<svg xmlns="http://www.w3.org/2000/svg" viewBox="0 0 281.56 123.29"><defs><style>.cls-1{fill:#231f20;}.cls-2{fill:#f04b56;}.cls-3{fill:#fff;}.cls-4{fill:#f04d57;}.cls-10,.cls-5,.cls-6,.cls-8{fill:none;}.cls-10,.cls-5{stroke:#231f20;}.cls-10,.cls-5,.cls-6{stroke-miterlimit:10;}.cls-5,.cls-6{stroke-width:5px;}.cls-6{stroke:#f04c56;}.cls-7{fill:#f04c56;}.cls-8{stroke:#808285;stroke-linecap:round;stroke-linejoin:round;stroke-dasharray:0.5 2;}.cls-9{fill:#808285;}.cls-10{stroke-width:0.05px;}</style></defs><g id="Layer_2" data-name="Layer 2"><g id="Capa_1" data-name="Capa 1"><circle class="cls-1" cx="30.98" cy="92.31" r="30.98"/><circle class="cls-1" cx="114.35" cy="92.31" r="30.98"/><circle class="cls-2" cx="167.21" cy="92.31" r="30.98"/><path class="cls-3" d="M9.84,95.57V89h1.3v6.6Z"/><path class="cls-3" d="M12.76,95.57v-4.1H14v.45a1.69,1.69,0,0,1,.59-.41,1.85,1.85,0,0,1,.78-.17,1.63,1.63,0,0,1,.83.21,1.42,1.42,0,0,1,.57.57A1.82,1.82,0,0,1,17,93v2.59H15.73V93.24a1,1,0,0,0-.23-.69.83.83,0,0,0-.63-.25,1,1,0,0,0-.47.11.86.86,0,0,0-.3.3.89.89,0,0,0-.11.43v2.43Z"/><path class="cls-3" d="M18.5,95.57V92.4H18v-.93h.55v-1a2.6,2.6,0,0,1,.18-1,1.48,1.48,0,0,1,.52-.65,1.45,1.45,0,0,1,.81-.23,1.9,1.9,0,0,1,.58.09,1.37,1.37,0,0,1,.48.25l-.42.86a.76.76,0,0,0-.42-.12.44.44,0,0,0-.32.11.57.57,0,0,0-.15.29,2.72,2.72,0,0,0,0,.43v1h1v.93h-1v3.17Z"/><path class="cls-3" d="M23.65,95.7a2.78,2.78,0,0,1-1.23-.28,2.21,2.21,0,0,1-.86-.77,2.16,2.16,0,0,1,0-2.26,2.21,2.21,0,0,1,.86-.77,2.75,2.75,0,0,1,1.23-.28,2.71,2.71,0,0,1,1.22.28,2.21,2.21,0,0,1,.86.77,2.16,2.16,0,0,1,0,2.26,2.21,2.21,0,0,1-.86.77A2.71,2.71,0,0,1,23.65,95.7Zm0-1a1.1,1.1,0,0,0,.57-.15,1,1,0,0,0,.4-.39,1.24,1.24,0,0,0,0-1.18,1,1,0,0,0-.4-.39,1.16,1.16,0,0,0-1.14,0,1,1,0,0,0-.4.39,1.24,1.24,0,0,0,0,1.18,1,1,0,0,0,.4.39A1.1,1.1,0,0,0,23.65,94.65ZM23.45,91l-.52-.42L24,88.82l.82.62Z"/><path class="cls-3" d="M27.13,95.57v-4.1h1.24v.59a1.54,1.54,0,0,1,.55-.53,1.48,1.48,0,0,1,.71-.19,1.76,1.76,0,0,1,.45.07,1.58,1.58,0,0,1,.39.16l-.51,1a1.35,1.35,0,0,0-.32-.15,1.47,1.47,0,0,0-.34,0,1,1,0,0,0-.46.12,1,1,0,0,0-.34.32.77.77,0,0,0-.13.43v2.29Z"/><path class="cls-3" d="M31.15,95.57v-4.1h1.23v.45a2.3,2.3,0,0,1,.6-.44,1.58,1.58,0,0,1,.65-.14,1.61,1.61,0,0,1,.85.22,1.24,1.24,0,0,1,.55.56,2.29,2.29,0,0,1,.64-.58,1.57,1.57,0,0,1,.79-.2,1.67,1.67,0,0,1,.78.19,1.37,1.37,0,0,1,.55.52,1.58,1.58,0,0,1,.2.8v2.72H36.76V93.18a.88.88,0,0,0-.21-.62.69.69,0,0,0-.56-.23.82.82,0,0,0-.42.1.73.73,0,0,0-.39.63v2.51H34V93.16a.87.87,0,0,0-.21-.61.7.7,0,0,0-.56-.22.87.87,0,0,0-.42.1.69.69,0,0,0-.29.27.7.7,0,0,0-.1.38v2.49Z"/><path class="cls-3" d="M41.07,95.7a2,2,0,0,1-1.75-1.06,2.32,2.32,0,0,1-.27-1.12,2.22,2.22,0,0,1,.26-1.11,1.94,1.94,0,0,1,.72-.78,1.91,1.91,0,0,1,1-.29,2,2,0,0,1,.82.17,1.71,1.71,0,0,1,.62.46v-.5h1.22v4.1H42.51V95a1.93,1.93,0,0,1-.65.49A1.73,1.73,0,0,1,41.07,95.7Zm.37-1a1.2,1.2,0,0,0,.57-.14,1,1,0,0,0,.38-.4,1.15,1.15,0,0,0,.14-.59,1.11,1.11,0,0,0-.14-.58,1.07,1.07,0,0,0-.38-.41,1.2,1.2,0,0,0-.57-.14,1.05,1.05,0,0,0-1,.55,1.27,1.27,0,0,0,0,1.16,1,1,0,0,0,.4.4A1,1,0,0,0,41.44,94.65Z"/><path class="cls-3" d="M46.53,95.7a1.21,1.21,0,0,1-1-.39,1.63,1.63,0,0,1-.33-1.09V92.4h-.56v-.93h.56V89.94h1.22v1.53h.9v.93h-.9v1.73a.58.58,0,0,0,.09.35.32.32,0,0,0,.27.12.6.6,0,0,0,.37-.13l.31,1a2.17,2.17,0,0,1-.47.17A2.24,2.24,0,0,1,46.53,95.7Z"/><path class="cls-3" d="M50.54,95.7a2.48,2.48,0,0,1-1.2-.29,2.15,2.15,0,0,1-.83-.78,2.1,2.1,0,0,1-.3-1.11,2,2,0,0,1,.17-.85,2,2,0,0,1,.48-.7,2.38,2.38,0,0,1,.73-.46,2.35,2.35,0,0,1,.89-.17,2.24,2.24,0,0,1,1.12.27,1.84,1.84,0,0,1,.75.74,2.26,2.26,0,0,1,.28,1.09.38.38,0,0,0,0,.1,1,1,0,0,1,0,.14H49.47a1,1,0,0,0,.54.91,1.25,1.25,0,0,0,.59.13,1.17,1.17,0,0,0,.57-.13,1.5,1.5,0,0,0,.47-.39l.89.44a2.06,2.06,0,0,1-.82.78A2.53,2.53,0,0,1,50.54,95.7Zm-1-2.7h1.91a1,1,0,0,0-.17-.41.93.93,0,0,0-.33-.26,1.14,1.14,0,0,0-.46-.09,1.16,1.16,0,0,0-.47.09.85.85,0,0,0-.33.26A.88.88,0,0,0,49.51,93Z"/><path class="cls-1" d="M80.68,41.43V33.18h2.81a3.58,3.58,0,0,1,1.43.28,2.26,2.26,0,0,1,1,.84,2.55,2.55,0,0,1,.35,1.38,2.69,2.69,0,0,1-.35,1.4,2.35,2.35,0,0,1-1,.88,3.13,3.13,0,0,1-1.43.31H82.3v3.16ZM82.3,37H83a2.2,2.2,0,0,0,.78-.13,1.26,1.26,0,0,0,.58-.4,1.13,1.13,0,0,0,.22-.73,1.09,1.09,0,0,0-.22-.72,1.26,1.26,0,0,0-.58-.4,2.45,2.45,0,0,0-.78-.12H82.3Z"/><path class="cls-1" d="M87.76,41.43V33.18h2.81a3.38,3.38,0,0,1,1.47.3,2.16,2.16,0,0,1,1,.85,2.56,2.56,0,0,1,.34,1.35,2.65,2.65,0,0,1-.22,1.11,2.17,2.17,0,0,1-.63.84,2.58,2.58,0,0,1-1,.51l2.7,3.29H92.14l-2.38-3.11h-.38v3.11ZM89.38,37h.69a2.15,2.15,0,0,0,.85-.15,1.12,1.12,0,0,0,.54-.43,1.16,1.16,0,0,0,.19-.68,1.13,1.13,0,0,0-.41-.92,1.87,1.87,0,0,0-1.17-.32h-.69Z"/><path class="cls-1" d="M95.31,41.43V33.18h4.58V34.6h-3v2h2.85V38H96.92v2h3v1.42Z"/><path class="cls-1" d="M104.29,41.43l-3.46-8.25h1.83L104.93,39l2.27-5.82H109l-3.46,8.25Z"/><path class="cls-1" d="M110.24,41.43V33.18h4.58V34.6h-3v2h2.85V38h-2.85v2h3v1.42Z"/><path class="cls-1" d="M116.81,41.43V33.18h1.61L122,38.73V33.18h1.62v8.25H122l-3.56-5.54v5.54Z"/><path class="cls-1" d="M125.85,41.43V33.18h1.62v8.25Z"/><path class="cls-1" d="M129.73,41.43V33.18h2.8a3.4,3.4,0,0,1,1.48.3,2.27,2.27,0,0,1,1,.85,2.56,2.56,0,0,1,.34,1.35,2.65,2.65,0,0,1-.22,1.11,2.38,2.38,0,0,1-.63.84,2.7,2.7,0,0,1-1,.51l2.71,3.29h-2.06l-2.39-3.11h-.38v3.11ZM131.34,37H132a2.21,2.21,0,0,0,.86-.15,1.12,1.12,0,0,0,.54-.43,1.23,1.23,0,0,0,.18-.68,1.12,1.12,0,0,0-.4-.92,1.93,1.93,0,0,0-1.18-.32h-.69Z"/><path class="cls-4" d="M145.52,41.43l3.31-8.25h1.5l3.31,8.25H151.9l-.7-1.88H148l-.71,1.88Zm3-3.3h2.14l-1.07-2.76Z"/><path class="cls-4" d="M158.58,41.59a4.66,4.66,0,0,1-1.75-.33,4.47,4.47,0,0,1-1.44-.91,4.41,4.41,0,0,1-1-1.37,4.14,4.14,0,0,1,0-3.33,4.3,4.3,0,0,1,1-1.37,4.49,4.49,0,0,1,1.44-.92,4.62,4.62,0,0,1,1.75-.33,4.92,4.92,0,0,1,1.44.22,4,4,0,0,1,1.18.56l-.7,1.38a2.54,2.54,0,0,0-.82-.42,3.32,3.32,0,0,0-1-.15,3,3,0,0,0-1.14.21,2.6,2.6,0,0,0-.91.57,2.61,2.61,0,0,0-.82,1.91,2.65,2.65,0,0,0,.82,1.92,2.6,2.6,0,0,0,.91.57,3,3,0,0,0,1.14.2,3.32,3.32,0,0,0,1-.15,2.52,2.52,0,0,0,.82-.41l.7,1.37a4.25,4.25,0,0,1-1.15.56A4.71,4.71,0,0,1,158.58,41.59Z"/><path class="cls-4" d="M163.67,41.43V34.61h-2.08V33.18h5.8v1.43h-2.1v6.82Z"/><path class="cls-4" d="M171.7,41.59a3.21,3.21,0,0,1-2.34-.78,3.1,3.1,0,0,1-.79-2.31V33.18h1.61V38a2.48,2.48,0,0,0,.36,1.51,1.73,1.73,0,0,0,2.33,0,2.56,2.56,0,0,0,.35-1.51V33.18h1.62V38.5a3.1,3.1,0,0,1-.79,2.31A3.22,3.22,0,0,1,171.7,41.59Z"/><path class="cls-4" d="M175.93,41.43l3.31-8.25h1.5l3.32,8.25h-1.74l-.71-1.88h-3.23l-.71,1.88Zm3-3.3h2.14L180,35.37Z"/><path class="cls-4" d="M185.29,41.43V33.18h2.8a3.32,3.32,0,0,1,1.47.3,2.24,2.24,0,0,1,1,.85,2.56,2.56,0,0,1,.34,1.35,2.65,2.65,0,0,1-.22,1.11,2.38,2.38,0,0,1-.63.84,2.7,2.7,0,0,1-1,.51l2.7,3.29h-2.05l-2.39-3.11h-.38v3.11ZM186.9,37h.69a2.21,2.21,0,0,0,.86-.15,1.17,1.17,0,0,0,.54-.43,1.23,1.23,0,0,0,.18-.68,1.1,1.1,0,0,0-.41-.92,1.87,1.87,0,0,0-1.17-.32h-.69Z"/><path class="cls-3" d="M98,95.7a3.67,3.67,0,0,1-1.4-.27,3.52,3.52,0,0,1-1.15-.73,3.32,3.32,0,0,1-.78-1.09,3.3,3.3,0,0,1,.78-3.76,3.55,3.55,0,0,1,1.15-.74,3.79,3.79,0,0,1,1.4-.26A4.07,4.07,0,0,1,99.2,89a3.22,3.22,0,0,1,.93.45l-.55,1.1a2,2,0,0,0-.66-.33,2.63,2.63,0,0,0-.8-.12,2.45,2.45,0,0,0-.91.16,2.21,2.21,0,0,0-.73.46,1.91,1.91,0,0,0-.48.68,2.05,2.05,0,0,0-.17.85,2,2,0,0,0,.17.85,2,2,0,0,0,.48.69,2.36,2.36,0,0,0,.73.45,2.45,2.45,0,0,0,.91.16,2.63,2.63,0,0,0,.8-.12,2,2,0,0,0,.66-.33l.55,1.1a3.29,3.29,0,0,1-.92.45A3.68,3.68,0,0,1,98,95.7Z"/><path class="cls-3" d="M103,95.7a2.38,2.38,0,0,1-1.62-.45,1.85,1.85,0,0,1-.49-1.45V91.47h1.22v2a1.63,1.63,0,0,0,.2.92,1,1,0,0,0,1.37,0,1.63,1.63,0,0,0,.2-.92v-2h1.22V93.8a1.85,1.85,0,0,1-.49,1.45A2.33,2.33,0,0,1,103,95.7Z"/><path class="cls-3" d="M106.9,91.14l-.52-.43,1.1-1.77.83.63Zm-.42,4.43v-4.1h1.23v4.1Z"/><path class="cls-3" d="M110.85,95.7a2,2,0,0,1-1-.28,2,2,0,0,1-.73-.77,2.22,2.22,0,0,1-.27-1.13,2.29,2.29,0,0,1,.26-1.12,2,2,0,0,1,.73-.77,2,2,0,0,1,1-.29,1.87,1.87,0,0,1,1.42.63V88.68h1.22v6.89H112.3V95a2.18,2.18,0,0,1-.65.49A1.84,1.84,0,0,1,110.85,95.7Zm.37-1a1.15,1.15,0,0,0,.57-.14,1,1,0,0,0,.39-.4,1.15,1.15,0,0,0,.14-.59,1.13,1.13,0,0,0-.14-.58.94.94,0,0,0-.39-.4,1,1,0,0,0-.56-.15,1.1,1.1,0,0,0-.57.15,1.07,1.07,0,0,0-.39.4,1.15,1.15,0,0,0-.14.59,1.24,1.24,0,0,0,.13.58,1.15,1.15,0,0,0,.39.4A1.2,1.2,0,0,0,111.22,94.65Z"/><path class="cls-3" d="M116.67,95.7a2,2,0,0,1-1.75-1.06,2.32,2.32,0,0,1-.27-1.12,2.22,2.22,0,0,1,.26-1.11,1.94,1.94,0,0,1,.72-.78,1.91,1.91,0,0,1,1-.29,2,2,0,0,1,.82.17,1.71,1.71,0,0,1,.62.46v-.5h1.22v4.1h-1.22V95a1.93,1.93,0,0,1-.65.49A1.73,1.73,0,0,1,116.67,95.7Zm.37-1a1.13,1.13,0,0,0,.56-.14,1,1,0,0,0,.39-.4,1.15,1.15,0,0,0,.14-.59,1.11,1.11,0,0,0-.14-.58,1,1,0,0,0-.39-.41,1.13,1.13,0,0,0-.56-.14,1.2,1.2,0,0,0-.57.14,1.18,1.18,0,0,0-.39.41,1.27,1.27,0,0,0,0,1.16,1.07,1.07,0,0,0,.39.4A1.1,1.1,0,0,0,117,94.65Z"/><path class="cls-3" d="M122.13,95.7a1.21,1.21,0,0,1-.95-.39,1.63,1.63,0,0,1-.33-1.09V92.4h-.56v-.93h.56V89.94h1.22v1.53h.9v.93h-.9v1.73a.58.58,0,0,0,.09.35.32.32,0,0,0,.27.12.6.6,0,0,0,.37-.13l.31,1a2.17,2.17,0,0,1-.47.17A2.24,2.24,0,0,1,122.13,95.7Z"/><path class="cls-3" d="M126.13,95.7a2.47,2.47,0,0,1-1.19-.29,2.15,2.15,0,0,1-.83-.78,2.1,2.1,0,0,1-.3-1.11,2,2,0,0,1,.17-.85,2,2,0,0,1,.48-.7,2.38,2.38,0,0,1,.73-.46,2.35,2.35,0,0,1,.89-.17,2.24,2.24,0,0,1,1.12.27,1.84,1.84,0,0,1,.75.74,2.26,2.26,0,0,1,.28,1.09.38.38,0,0,0,0,.1s0,.07,0,.14h-3.14a1,1,0,0,0,.54.91,1.25,1.25,0,0,0,.59.13,1.17,1.17,0,0,0,.57-.13,1.5,1.5,0,0,0,.47-.39l.89.44a2.12,2.12,0,0,1-.82.78A2.54,2.54,0,0,1,126.13,95.7Zm-1-2.7H127a.8.8,0,0,0-.17-.41.78.78,0,0,0-.33-.26,1.06,1.06,0,0,0-.45-.09,1.16,1.16,0,0,0-.47.09.78.78,0,0,0-.33.26A.88.88,0,0,0,125.11,93Z"/><path class="cls-3" d="M158.14,95.7a3.64,3.64,0,0,1-1.4-.27,3.57,3.57,0,0,1-1.16-.73,3.63,3.63,0,0,1-.78-1.09,3.32,3.32,0,0,1,0-2.67,3.4,3.4,0,0,1,.78-1.09,3.66,3.66,0,0,1,1.15-.74,3.88,3.88,0,0,1,1.41-.26,4,4,0,0,1,1.15.17,3.29,3.29,0,0,1,.94.45l-.56,1.1a2,2,0,0,0-.65-.33,2.67,2.67,0,0,0-.8-.12,2.42,2.42,0,0,0-.91.16,2.11,2.11,0,0,0-.73.46,1.91,1.91,0,0,0-.48.68,2.06,2.06,0,0,0-.18.85,2,2,0,0,0,.18.85,2,2,0,0,0,.48.69,2.25,2.25,0,0,0,.73.45,2.42,2.42,0,0,0,.91.16,2.67,2.67,0,0,0,.8-.12,2,2,0,0,0,.65-.33l.56,1.1a3.43,3.43,0,0,1-.92.45A3.68,3.68,0,0,1,158.14,95.7Z"/><path class="cls-3" d="M163.12,95.7a2.35,2.35,0,0,1-1.61-.45,1.86,1.86,0,0,1-.5-1.45V91.47h1.23v2a1.63,1.63,0,0,0,.2.92,1,1,0,0,0,1.36,0,1.55,1.55,0,0,0,.2-.92v-2h1.23V93.8a1.85,1.85,0,0,1-.49,1.45A2.38,2.38,0,0,1,163.12,95.7Z"/><path class="cls-3" d="M167.19,90.62a.66.66,0,0,1-.37-.1.65.65,0,0,1-.26-.26.71.71,0,0,1-.1-.37.66.66,0,0,1,.1-.37.81.81,0,0,1,.26-.26.76.76,0,0,1,.37-.1.75.75,0,0,1,.36.1.84.84,0,0,1,.27.26.76.76,0,0,1,.1.37.82.82,0,0,1-.1.37.75.75,0,0,1-.27.26A.65.65,0,0,1,167.19,90.62Zm-.61,4.95v-4.1h1.22v4.1Z"/><path class="cls-3" d="M171,95.7a1.94,1.94,0,0,1-1-.28,2,2,0,0,1-.74-.77,2.33,2.33,0,0,1-.27-1.13,2.29,2.29,0,0,1,.27-1.12,2,2,0,0,1,.72-.77,2,2,0,0,1,1.06-.29,1.94,1.94,0,0,1,.8.17,1.76,1.76,0,0,1,.61.46V88.68h1.23v6.89h-1.23V95a2,2,0,0,1-.65.49A1.76,1.76,0,0,1,171,95.7Zm.37-1a1.2,1.2,0,0,0,.57-.14,1.15,1.15,0,0,0,.39-.4,1.29,1.29,0,0,0,0-1.17,1.07,1.07,0,0,0-.39-.4,1.1,1.1,0,0,0-.57-.15,1,1,0,0,0-.56.15.94.94,0,0,0-.39.4,1.15,1.15,0,0,0-.15.59,1.24,1.24,0,0,0,.14.58,1,1,0,0,0,.39.4A1.15,1.15,0,0,0,171.32,94.65Z"/><path class="cls-3" d="M176.77,95.7a1.87,1.87,0,0,1-1-.29,2,2,0,0,1-.74-.77,2.32,2.32,0,0,1-.27-1.12,2.23,2.23,0,0,1,.27-1.11,1.93,1.93,0,0,1,1.76-1.07,2.08,2.08,0,0,1,.82.17,1.67,1.67,0,0,1,.61.46v-.5h1.23v4.1H178.2V95a1.89,1.89,0,0,1-.64.49A1.76,1.76,0,0,1,176.77,95.7Zm.36-1a1.15,1.15,0,0,0,.57-.14,1.07,1.07,0,0,0,.39-.4,1.25,1.25,0,0,0,.14-.59,1.21,1.21,0,0,0-.14-.58,1.1,1.1,0,0,0-.39-.41,1.15,1.15,0,0,0-.57-.14,1.16,1.16,0,0,0-.56.14,1.1,1.1,0,0,0-.39.41,1.27,1.27,0,0,0,0,1.16,1,1,0,0,0,.39.4A1.07,1.07,0,0,0,177.13,94.65Z"/><line class="cls-5" x1="7.54" y1="47.86" x2="136.14" y2="47.86"/><path class="cls-1" d="M0,47.86a37.6,37.6,0,0,1,10.68,6l-2.15-6,2.15-5.94A37.82,37.82,0,0,1,0,47.86Z"/><line class="cls-6" x1="274.02" y1="47.86" x2="145.42" y2="47.86"/><path class="cls-7" d="M281.56,47.86a37.82,37.82,0,0,1-10.68-5.94L273,47.86l-2.15,5.94A37.82,37.82,0,0,1,281.56,47.86Z"/><path class="cls-8" d="M178.52,57.18a41.14,41.14,0,0,1-77.11-2.56"/><path class="cls-9" d="M179.56,54.35a14.94,14.94,0,0,1-3.72,3.18l2.53,0,1.93,1.64A15.22,15.22,0,0,1,179.56,54.35Z"/><path class="cls-8" d="M102,27a43.61,43.61,0,0,1,1.78-4,41.14,41.14,0,0,1,73.86,1.1,39.72,39.72,0,0,1,2.21,5.77"/><path class="cls-9" d="M101,29.84a15.19,15.19,0,0,1,3.66-3.25l-2.53,0-2-1.6A15.43,15.43,0,0,1,101,29.84Z"/><circle class="cls-2" cx="250.59" cy="92.31" r="30.98"/><path class="cls-3" d="M231.58,95.57V89h2.24a2.81,2.81,0,0,1,1.15.22,1.78,1.78,0,0,1,.79.67A2,2,0,0,1,236,91a2.09,2.09,0,0,1-.28,1.12,1.87,1.87,0,0,1-.79.71,2.66,2.66,0,0,1-1.15.25h-.95v2.53ZM232.87,92h.55a1.81,1.81,0,0,0,.63-.1,1,1,0,0,0,.46-.32.89.89,0,0,0,.18-.58.87.87,0,0,0-.18-.58,1,1,0,0,0-.46-.32,2.08,2.08,0,0,0-.63-.1h-.55Z"/><path class="cls-3" d="M238.45,95.7a1.89,1.89,0,0,1-1-.29,2,2,0,0,1-.74-.77,2.32,2.32,0,0,1-.27-1.12,2.23,2.23,0,0,1,.27-1.11,1.94,1.94,0,0,1,.72-.78,1.91,1.91,0,0,1,1-.29,2.08,2.08,0,0,1,.82.17,1.67,1.67,0,0,1,.61.46v-.5h1.23v4.1h-1.23V95a1.89,1.89,0,0,1-.64.49A1.76,1.76,0,0,1,238.45,95.7Zm.37-1a1.13,1.13,0,0,0,.56-.14,1.07,1.07,0,0,0,.39-.4,1.25,1.25,0,0,0,.14-.59,1.21,1.21,0,0,0-.14-.58,1.1,1.1,0,0,0-.39-.41,1.13,1.13,0,0,0-.56-.14,1,1,0,0,0-1,.55,1.27,1.27,0,0,0,0,1.16,1.07,1.07,0,0,0,1,.55Z"/><path class="cls-3" d="M242.55,95.57v-4.1h1.23v.59a1.57,1.57,0,0,1,.56-.53,1.48,1.48,0,0,1,.71-.19,1.83,1.83,0,0,1,.45.07,1.76,1.76,0,0,1,.39.16l-.51,1a1.35,1.35,0,0,0-.32-.15,1.55,1.55,0,0,0-.34,0,.93.93,0,0,0-.46.12,1,1,0,0,0-.34.32.78.78,0,0,0-.14.43v2.29Z"/><path class="cls-3" d="M248,95.7a1.18,1.18,0,0,1-.95-.39,1.58,1.58,0,0,1-.34-1.09V92.4h-.55v-.93h.55V89.94h1.23v1.53h.89v.93h-.89v1.73a.58.58,0,0,0,.09.35.31.31,0,0,0,.26.12.58.58,0,0,0,.37-.13l.31,1a2,2,0,0,1-.47.17A2.23,2.23,0,0,1,248,95.7Z"/><path class="cls-3" d="M250.62,90.62a.69.69,0,0,1-.37-.1.65.65,0,0,1-.26-.26.71.71,0,0,1-.1-.37.66.66,0,0,1,.1-.37.84.84,0,0,1,.27-.26.72.72,0,0,1,.36-.1.75.75,0,0,1,.36.1.84.84,0,0,1,.27.26.76.76,0,0,1,.1.37.82.82,0,0,1-.1.37.75.75,0,0,1-.27.26A.65.65,0,0,1,250.62,90.62ZM250,95.57v-4.1h1.23v4.1Z"/><path class="cls-3" d="M254.6,95.7a2.34,2.34,0,0,1-.88-.17,2.23,2.23,0,0,1-.73-.47,2.26,2.26,0,0,1-.5-.69,2,2,0,0,1-.18-.85,2.08,2.08,0,0,1,.17-.82A2,2,0,0,1,253,92a2.11,2.11,0,0,1,.73-.48,2.23,2.23,0,0,1,.9-.18,2.48,2.48,0,0,1,.77.12,1.71,1.71,0,0,1,.59.29l-.42.82a1.28,1.28,0,0,0-.75-.22,1.17,1.17,0,0,0-.64.17,1.06,1.06,0,0,0-.4.44,1.19,1.19,0,0,0-.14.56,1.18,1.18,0,0,0,.15.59,1.06,1.06,0,0,0,.42.42,1.12,1.12,0,0,0,.62.16,1.42,1.42,0,0,0,.42-.06,1.91,1.91,0,0,0,.32-.16l.42.82a2,2,0,0,1-.59.29A2.37,2.37,0,0,1,254.6,95.7Z"/><path class="cls-3" d="M257.53,90.62a.65.65,0,0,1-.36-.1.68.68,0,0,1-.27-.26.82.82,0,0,1-.1-.37.76.76,0,0,1,.1-.37.84.84,0,0,1,.27-.26.75.75,0,0,1,.36-.1.79.79,0,0,1,.37.1.81.81,0,0,1,.26.26.66.66,0,0,1,.1.37.71.71,0,0,1-.1.37.72.72,0,0,1-.26.26A.69.69,0,0,1,257.53,90.62Zm-.61,4.95v-4.1h1.23v4.1Z"/><path class="cls-3" d="M259.59,97.65V91.47h1.23V92a1.68,1.68,0,0,1,.62-.46,1.91,1.91,0,0,1,.8-.17,2,2,0,0,1,1.05.29,2.05,2.05,0,0,1,.72.77,2.44,2.44,0,0,1,0,2.23,2,2,0,0,1-.71.78,1.94,1.94,0,0,1-1,.29,1.79,1.79,0,0,1-.79-.18,1.93,1.93,0,0,1-.65-.49v2.62Zm2.31-3a1.16,1.16,0,0,0,.56-.14,1.15,1.15,0,0,0,.39-.4,1.25,1.25,0,0,0,.14-.59,1.14,1.14,0,0,0-.15-.58.94.94,0,0,0-.39-.4,1,1,0,0,0-.55-.15,1.08,1.08,0,0,0-.57.15.94.94,0,0,0-.39.4,1.11,1.11,0,0,0-.14.58,1.15,1.15,0,0,0,.14.59,1,1,0,0,0,.39.4A1.15,1.15,0,0,0,261.9,94.65Z"/><path class="cls-3" d="M267.12,95.7a1.93,1.93,0,0,1-1-.29,2,2,0,0,1-.73-.77,2.48,2.48,0,0,1,0-2.23,2.08,2.08,0,0,1,.72-.78,2,2,0,0,1,1.86-.12,1.63,1.63,0,0,1,.62.46v-.5h1.23v4.1h-1.23V95a1.89,1.89,0,0,1-.64.49A1.76,1.76,0,0,1,267.12,95.7Zm.36-1a1,1,0,0,0,1-.54,1.25,1.25,0,0,0,.14-.59,1.21,1.21,0,0,0-.14-.58,1.18,1.18,0,0,0-.39-.41,1.15,1.15,0,0,0-.57-.14,1.16,1.16,0,0,0-.56.14,1,1,0,0,0-.39.41,1.2,1.2,0,0,0,0,1.16.94.94,0,0,0,.39.4A1.07,1.07,0,0,0,267.48,94.65Z"/><path class="cls-1" d="M206.43,39.68a14.71,14.71,0,0,0-1,1.51,56,56,0,0,0-4.24,9c-.27.79-.42,1.62-.63,2.42l.2.07c.18-.43.39-.85.53-1.29a58.8,58.8,0,0,1,3.88-8.56c.59-1.08,1.25-2.12,1.9-3.16a2.56,2.56,0,0,0-.63,0"/><path class="cls-1" d="M200.82,52.88l-.42-.15,0-.11c.07-.25.13-.51.19-.76a16.48,16.48,0,0,1,.45-1.67,54.85,54.85,0,0,1,4.24-9.06,14.37,14.37,0,0,1,1-1.52l0,0h0a2.92,2.92,0,0,1,.66,0l.18,0-.34.55c-.56.9-1.14,1.83-1.65,2.77a56.9,56.9,0,0,0-3.87,8.54,8.88,8.88,0,0,1-.36.9l-.18.4ZM206.5,39.8a14.72,14.72,0,0,0-1,1.45,54.72,54.72,0,0,0-4.22,9,15.89,15.89,0,0,0-.44,1.64l-.13.55a1.08,1.08,0,0,1,.08-.19c.13-.29.26-.58.36-.88a57.24,57.24,0,0,1,3.88-8.57c.52-1,1.1-1.89,1.66-2.79l.14-.22a1.38,1.38,0,0,0-.35,0"/><path class="cls-1" d="M242.34,56.72a10.32,10.32,0,0,0-.36,1.2,37.91,37.91,0,0,0-.91,6.77c0,.56.06,1.13.09,1.7h.15c0-.32.08-.64.08-1a37.21,37.21,0,0,1,1.08-6.27c.16-.82.45-1.49.67-2.31-.13,0-.64-.2-.8-.15"/><path class="cls-1" d="M241.42,66.53l-.38,0V66.4c0-.18,0-.36,0-.55a11.13,11.13,0,0,1-.05-1.16,36,36,0,0,1,.92-6.8,9.58,9.58,0,0,1,.36-1.21l0,0,.05,0c.11,0,.28,0,.55.07l.26.07h0l.17,0,0,.17c-.09.34-.2.66-.3,1a11,11,0,0,0-.37,1.34c-.11.59-.25,1.18-.38,1.75a22.29,22.29,0,0,0-.69,4.49q0,.33-.06.66l0,.3Zm1-9.69a8.07,8.07,0,0,0-.33,1.11,36.17,36.17,0,0,0-.91,6.74,10.68,10.68,0,0,0,.05,1.13c0-.12,0-.25,0-.37a24.25,24.25,0,0,1,.7-4.55c.13-.56.26-1.15.38-1.74a9.93,9.93,0,0,1,.38-1.36c.08-.27.17-.54.25-.83l-.2,0-.34-.08"/><path class="cls-1" d="M239,55.35c-.06.41-.13.82-.15,1.24a37.88,37.88,0,0,0,.26,6.82c.08.56.25,1.11.38,1.67l.14,0c0-.32,0-.64-.08-1a37.52,37.52,0,0,1,0-6.36c0-.84.19-1.55.26-2.39-.13,0-.67-.09-.81,0"/><path class="cls-1" d="M239.43,65.22l0-.11c0-.17-.09-.34-.13-.51a11.63,11.63,0,0,1-.26-1.17,38.38,38.38,0,0,1-.25-6.85,10.07,10.07,0,0,1,.15-1.25v-.06l0,0a1,1,0,0,1,.55,0,1.58,1.58,0,0,0,.28,0l.17-.05v.18c0,.35-.07.68-.12,1a10.4,10.4,0,0,0-.14,1.38c0,.6,0,1.2-.07,1.78a22.38,22.38,0,0,0,.08,4.56c0,.23,0,.46.06.68a2.64,2.64,0,0,0,0,.28v.11Zm-.28-9.78a8.61,8.61,0,0,0-.13,1.15,36.86,36.86,0,0,0,.25,6.8,10.62,10.62,0,0,0,.24,1.12,2.33,2.33,0,0,0,0-.38,23.75,23.75,0,0,1-.08-4.61c0-.58.06-1.18.07-1.77a10.31,10.31,0,0,1,.15-1.42c0-.27.08-.55.11-.84l-.21,0-.36,0"/><path class="cls-1" d="M202.24,39.25a32.23,32.23,0,0,0-2,3.29,31.17,31.17,0,0,0-2.43,6.1c-.13.45-.31.88-.44,1.34a.44.44,0,0,0,.2.63c.6-1.63,1.13-3.22,1.79-4.76a33.51,33.51,0,0,1,2.33-4.54c.35-.56.67-1.14,1-1.71a3.82,3.82,0,0,1-.47-.35"/><path class="cls-1" d="M197.65,50.8l-.13-.08a.56.56,0,0,1-.27-.73l0-.05c.06-.21.13-.41.21-.62s.16-.48.23-.71a31.15,31.15,0,0,1,2.45-6.13,29.68,29.68,0,0,1,2-3.3l.08-.11.21.18a2.36,2.36,0,0,0,.34.24l.11.07-.06.1-.3.51c-.22.4-.46.81-.71,1.2a33.42,33.42,0,0,0-2.32,4.53c-.45,1.06-.84,2.13-1.24,3.25-.18.5-.36,1-.55,1.51Zm4.62-11.37a29.34,29.34,0,0,0-1.89,3.17A31,31,0,0,0,198,48.67c-.07.25-.16.49-.24.73l-.21.61v.05c0,.13-.07.24,0,.35.17-.44.33-.89.48-1.34.41-1.13.8-2.2,1.26-3.27a34.49,34.49,0,0,1,2.33-4.56c.25-.39.48-.8.71-1.19l.23-.41-.26-.2Z"/><path class="cls-1" d="M229.39,26.79c-.74.93-1.59,1.91-2.61,3a69.35,69.35,0,0,1-8,7.06c-.43.33-.88.65-1.33.95l-.64.46-.23.18-.46.35.34,0,.26,0,.22,0a.27.27,0,0,0,.12,0l.09,0a4.81,4.81,0,0,0,1-.51c1.06-.76,2.11-1.55,3.08-2.29a51.87,51.87,0,0,0,7.8-7.32,26.09,26.09,0,0,0,3.81-6,2.59,2.59,0,0,0,.26-1.63l0-.1h-.15a.71.71,0,0,0-.67.6,17.49,17.49,0,0,1-2.85,5.24"/><path class="cls-1" d="M211.78,34.18l.84-.55a20.62,20.62,0,0,0,1.76-1.23,67.61,67.61,0,0,0,8.9-8.86,21.48,21.48,0,0,0,1.73-2.4c.13-.21.27-.41.41-.62l0,0a1.09,1.09,0,0,0,.18-1.13l-.07-.17-.13.13c-.06.06-.13.12-.18.18s-.21.21-.3.32c-.41.5-.8,1-1.2,1.51-.81,1-1.64,2.08-2.52,3.06a70.15,70.15,0,0,1-8.46,8.21c-.31.25-.6.53-.89.8l-.41.38-.08.08.3.39Z"/><path class="cls-1" d="M223,29a32.19,32.19,0,0,0,4.87-6.51,2.44,2.44,0,0,0,.14-.34.75.75,0,0,0,0-.16l0-.09-.33-.2-.07.08-1.2,1.41c-.94,1.1-1.92,2.25-2.84,3.42a42.58,42.58,0,0,1-4.36,4.67c-1.07,1-2.17,1.89-3.33,2.85l-1.55,1.29-.11.09.12.1a.74.74,0,0,0,.51.2.82.82,0,0,0,.43-.2l.05,0,.65-.52c.24-.19.49-.4.74-.57A40.17,40.17,0,0,0,223,29"/><path class="cls-1" d="M210.28,39.81c.37-.44.75-.88,1.16-1.29a15.51,15.51,0,0,1,1.22-1l.2-.18.58-.47,0,0h-.1c-1.41.08-3.62,2.26-3.63,3.62v0l0,0c.17-.18.33-.37.49-.56l0-.06"/><path class="cls-1" d="M215.41,38.56v0h0a1.22,1.22,0,0,0-.28.14l-.28.15a5.31,5.31,0,0,0-.69.54,7.64,7.64,0,0,1-.62.51l-1.2.82-.84.58,0,0h.05c1.4-.14,3.59-1.68,3.91-2.75"/><path class="cls-1" d="M213.65,39.21h0a7,7,0,0,0-2.94,1.68s.05,0,.08,0,.24,0,.36,0a.53.53,0,0,0-.19,0h-.17a.29.29,0,0,0,.17,0,4.12,4.12,0,0,0,.47-.13h.1a3.88,3.88,0,0,0,2.14-1.55l0,0Z"/><path class="cls-1" d="M212.39,38.72a3.94,3.94,0,0,0-2,1.56v0h.07a2.83,2.83,0,0,0,2-1.55v0Z"/><path class="cls-1" d="M210.81,37.34c-.14.12-.19.37-.19.77v0l0,0c.37-.32.69-.6,1.11-.94-.49-.05-.76,0-.94.17"/><path class="cls-1" d="M232.74,29l-.08.42a11.16,11.16,0,0,1-.84,3.08l-.21.24-.07.07-.31,0a1.75,1.75,0,0,1-.6-.05,3.58,3.58,0,0,0-.88-.11h-1c-.75,0-1.6,0-2.2,0a1.53,1.53,0,0,0-.59.15l-.1.12,0,.12a.48.48,0,0,0,.33.29c.74.06,1.49.08,2.23.09a24.41,24.41,0,0,1,3,.17,5.17,5.17,0,0,1,.44.65,15.92,15.92,0,0,1,.93,3.26c.07.27.35,1.47.42,1.76.11,0,.51-.28.62-.28a4.76,4.76,0,0,0-.12-1.21c-.17-.62-.33-1.2-.46-1.78a11.42,11.42,0,0,0-.7-2c-.06-.16-.13-.32-.2-.49a.61.61,0,0,0-.16-.21s0,0,0,0,.26-.42.38-.61.23-.36.26-.43a9.46,9.46,0,0,0,.62-3.6,9.12,9.12,0,0,1,.56-3.4,1.76,1.76,0,0,0,.17-.68.25.25,0,0,0-.09-.23.22.22,0,0,0-.24,0c-.16,0-.35.32-.37.35a7.82,7.82,0,0,0-.58,3c0,.5-.08,1-.14,1.3"/><path class="cls-1" d="M235.92,51.27a32.29,32.29,0,0,0-.48-3.42,1.48,1.48,0,0,1-.36.1,2,2,0,0,1-.42.09,1.16,1.16,0,0,1-.18,0c.55,5,1.11,11.1.92,13.48,0,.15,0,.32,0,.5v.25a7.2,7.2,0,0,1-1.55.19h0c-.37,0-.84,0-1.24,0-.1-1-.37-5.73-.54-8.63l-.08-1.46a52.38,52.38,0,0,0-1.19-7.31c-.21-1-.4-1.87-.56-2.76a13.59,13.59,0,0,0-1.39-4.24l-.11-.19a2,2,0,0,0-.81-.94,3.15,3.15,0,0,1-.27-.19,1.17,1.17,0,0,0-1.45-.12A10.4,10.4,0,0,0,222.9,39c-.3.35-2.25,2.37-4,4.15l-1.52,1.57h0l-.06.06-.08.09-.15.14-.16.2-.87.91-.14.16s-.68.86-1.05,1.27L213.68,49c-.23.27-.48.52-.73.79s-.37.39-.57.6l-.69.73c-.18.19.16.66.5.72,1.16-1.27,2.45-2.69,3.64-4l.84-1,0,0,.24-.26.08-.09c.2-.24.64-.72,1.18-1.27l.08-.09h0c2.14-2.24,6.1-6.22,7.05-7.09a2.11,2.11,0,0,1,1.47-.61,1.07,1.07,0,0,1,1,.5l.17.2s0,0,0,.09l.21.44A10,10,0,0,1,229,41c.28,1.26.73,3.4,1,4.87a129.61,129.61,0,0,1,1.62,15.66h0c0,.21,0,.45,0,.68s0,.37,0,.54l0,.35c.05,0,1.35.11,2.14.11h0a7.84,7.84,0,0,0,2.39-.4s0-7.08-.27-11.57"/><path class="cls-1" d="M232.62,10.23a.55.55,0,0,0,.2-.27,5.4,5.4,0,0,1,1.26-1.9,1.88,1.88,0,0,0,.22-2,2.33,2.33,0,0,0-1.09-1.26,6.17,6.17,0,0,1-2.49-2.39c-.1-.15-.22-.3-.34-.45A4,4,0,0,0,225.81.81a2,2,0,0,0-1.35,1.65,1.78,1.78,0,0,1-1,1.43,2.88,2.88,0,0,0-.79.56,5.45,5.45,0,0,0-1,1.24,1.22,1.22,0,0,0,1.08,1.75,7.71,7.71,0,0,0,.84.1c-.05.2-.07.35-.12.49a5.51,5.51,0,0,0-.47,2.32,6.31,6.31,0,0,0,1.73,4.74,3.48,3.48,0,0,0,4.81.59,2.38,2.38,0,0,1,.27-.12,1.29,1.29,0,0,1,.1,1.23,12.23,12.23,0,0,0-.59,1.63c-.08.2-.1.37-.18.57s.1.07.15.12a4.41,4.41,0,0,0,.72-.42,1.33,1.33,0,0,1,1.6-.22c.67.22.86.15,1.09-.49s.49-1.41.69-2.1c.27-.84.24-.86-.74-1.06-.15-1-.3-2-.47-2.91-.13-.64-.25-1.26.44-1.68m-2.81,8.07c.15-.42.25-.72.35-1,.29.63.29.63-.35,1m2.59-2.87c.12-.24.32-.24.59-.07a11.4,11.4,0,0,1-.86,2.84c-.39-.13-.72-.25-1.09-.4.47-.81.92-1.58,1.36-2.37m-.22-.46a1.31,1.31,0,0,1-.05.22c-.39.66-.77,1.36-1.16,2l-.22-.07c-.15-.69-.3-1.39-.42-2.08a1.13,1.13,0,0,1,.15-.59c.39-.79.81-1.58,1.26-2.49.17,1.06.29,2,.44,3m-.5-4.72a1.66,1.66,0,0,0-.76,1.26c-.22.89-.47,1.78-.76,2.64a2.47,2.47,0,0,1-1.44,1.46,3.06,3.06,0,0,1-3.4-.72,5.54,5.54,0,0,1-1-1.35,6.18,6.18,0,0,1,.34-6.49,1.43,1.43,0,0,1,.32-.33l1.88-1.1c.47-.27.64-.27.89.12a2.44,2.44,0,0,0,1.82,1.11,3.57,3.57,0,0,1,.35.1c.29,1.18-.15,2.39.1,3.7a2,2,0,0,0,.79-1.11,2.18,2.18,0,0,1,.29-.72.68.68,0,0,1,.87-.27.61.61,0,0,1,.34.74,1.23,1.23,0,0,1-.62,1"/><path class="cls-10" d="M232.62,10.23a.55.55,0,0,0,.2-.27,5.4,5.4,0,0,1,1.26-1.9,1.88,1.88,0,0,0,.22-2,2.33,2.33,0,0,0-1.09-1.26,6.17,6.17,0,0,1-2.49-2.39c-.1-.15-.22-.3-.34-.45A4,4,0,0,0,225.81.81a2,2,0,0,0-1.35,1.65,1.78,1.78,0,0,1-1,1.43,2.88,2.88,0,0,0-.79.56,5.45,5.45,0,0,0-1,1.24,1.22,1.22,0,0,0,1.08,1.75,7.71,7.71,0,0,0,.84.1c-.05.2-.07.35-.12.49a5.51,5.51,0,0,0-.47,2.32,6.31,6.31,0,0,0,1.73,4.74,3.48,3.48,0,0,0,4.81.59,2.38,2.38,0,0,1,.27-.12,1.29,1.29,0,0,1,.1,1.23,12.23,12.23,0,0,0-.59,1.63c-.08.2-.1.37-.18.57s.1.07.15.12a4.41,4.41,0,0,0,.72-.42,1.33,1.33,0,0,1,1.6-.22c.67.22.86.15,1.09-.49s.49-1.41.69-2.1c.27-.84.24-.86-.74-1.06-.15-1-.3-2-.47-2.91C232.05,11.27,231.93,10.65,232.62,10.23Zm-2.81,8.07c.15-.42.25-.72.35-1C230.45,17.92,230.45,17.92,229.81,18.3Zm2.59-2.87c.12-.24.32-.24.59-.07a11.4,11.4,0,0,1-.86,2.84c-.39-.13-.72-.25-1.09-.4C231.51,17,232,16.22,232.4,15.43Zm-.22-.46a1.31,1.31,0,0,1-.05.22c-.39.66-.77,1.36-1.16,2l-.22-.07c-.15-.69-.3-1.39-.42-2.08a1.13,1.13,0,0,1,.15-.59c.39-.79.81-1.58,1.26-2.49C231.91,13,232,14,232.18,15Zm-.5-4.72a1.66,1.66,0,0,0-.76,1.26c-.22.89-.47,1.78-.76,2.64a2.47,2.47,0,0,1-1.44,1.46,3.06,3.06,0,0,1-3.4-.72,5.54,5.54,0,0,1-1-1.35,6.18,6.18,0,0,1,.34-6.49,1.43,1.43,0,0,1,.32-.33l1.88-1.1c.47-.27.64-.27.89.12a2.44,2.44,0,0,0,1.82,1.11,3.57,3.57,0,0,1,.35.1c.29,1.18-.15,2.39.1,3.7a2,2,0,0,0,.79-1.11,2.18,2.18,0,0,1,.29-.72.68.68,0,0,1,.87-.27.61.61,0,0,1,.34.74A1.23,1.23,0,0,1,231.68,10.25Z"/><path class="cls-1" d="M226,9.33c.1,1-.32,1.88-.32,2.91l1-.24c-.11.21-.14.34-.23.41-.33.26-.64.7-1.12.46s-.22-.71-.17-1.07c.1-.63.24-1.25.37-1.86,0-.23.15-.44.22-.66Z"/><path class="cls-1" d="M228.28,13.58l-1.63.58a1.63,1.63,0,0,1,1.27-.94c.11,0,.28.11.42.17l-.06.19"/><path class="cls-1" d="M226.54,14.27l.05-.13a1.66,1.66,0,0,1,1.27-1l0,0a.46.46,0,0,1,.32.11l.13.06.06,0-.1.27Zm1.42-1h0l-.05,0a1.57,1.57,0,0,0-1.12.76l1.46-.53,0-.11-.09-.05a.6.6,0,0,0-.21-.09"/><path class="cls-1" d="M227,9.28l0,0-.5.05a1.41,1.41,0,0,1,1-1c.18.55-.27.7-.55.94"/><path class="cls-1" d="M224,9.28a1,1,0,0,1,1.17.15c.05,0,.09.23,0,.28s-.26.19-.32.15a7.26,7.26,0,0,1-.89-.58"/><path class="cls-1" d="M227.71,10a.4.4,0,0,1-.39.41.39.39,0,0,1-.38-.42.39.39,0,1,1,.77,0"/><path class="cls-1" d="M225.08,10.48a.41.41,0,0,1-.4.41.42.42,0,1,1,.4-.41"/><path class="cls-2" d="M201.88,38a.56.56,0,0,1,0-.48,2.18,2.18,0,0,1,.29-.56,25.43,25.43,0,0,1,5.43-.51h.25a.93.93,0,0,1,.3.54c0,.33-.31.6-.31.6a41.26,41.26,0,0,0-5.93.41"/><path class="cls-1" d="M218.37,38.74c-1.66,1.65-4.17,4.15-5.63,5.77s-2.84,3-4.21,4.7c-.6.75-.84,1.14-1.45,1.88-.23.28,0,.72.31.62l.22-.05c1.91-2.06,2.54-3.15,4.32-5.17.53-.6,1.2-1.2,1.73-1.86.14-.16,1.68-1.73,3.18-3.25l2-2.07a2.49,2.49,0,0,1-.51-.57"/><path class="cls-1" d="M214.14,18.2c0-.08,0-.13-.14-.15a1.57,1.57,0,0,0-.64-.12c-.1-.42-.18-.82-.28-1.21l0-.1a2.13,2.13,0,0,0-.1-.35,3.52,3.52,0,0,0-.12-.52c0-.12-.08-.26-.1-.39a1.78,1.78,0,0,1-.05-1.18.63.63,0,0,1,.12-.18,1.84,1.84,0,0,1,.2-.19.35.35,0,0,0,.15-.23,5.44,5.44,0,0,1,1-1.82,1.65,1.65,0,0,0,.05-1.8,2.18,2.18,0,0,0-1.06-1.06c-1-.42-2.69-.55-3.33-1.41A21.75,21.75,0,0,0,207,9.17l-.05.05h0s0,0-.07,0a.65.65,0,0,1-.15.1c-1.06.71-1.95,1.43-1.55,1.45.24,0-.65,1.23-.37,1.26,0,.07,0,.15,0,.22v0a1.33,1.33,0,0,0-.05.19.3.3,0,0,0,0,.13,4.22,4.22,0,0,0-.22,2,5.62,5.62,0,0,0,1.87,4.12,3.15,3.15,0,0,0,4.34.2.79.79,0,0,1,.25-.15,1.11,1.11,0,0,1,.17,1.08,12.65,12.65,0,0,0-.42,1.51,4.35,4.35,0,0,0-.1.52.57.57,0,0,0,.13.1,3,3,0,0,0,.61-.42,1.21,1.21,0,0,1,1.41-.32c.64.17.79.07,1-.52s.32-1.29.47-1.93a1.32,1.32,0,0,0,0-.59Zm-1,2.78-1-.27c.37-.76.71-1.48,1-2.22.1-.22.27-.24.54-.12a11.08,11.08,0,0,1-.56,2.61m-1.85-.66c.32.54.32.54-.22.91.1-.37.14-.64.22-.91m-4.49-1.8a4.9,4.9,0,0,1-1-1.14,5.5,5.5,0,0,1-.17-5.82,2.07,2.07,0,0,1,.76-1c.4-.27,1.31-.59,1.58-.25a5.88,5.88,0,0,0,2.05.72,1.37,1.37,0,0,1,.29.07c.38,1,.06,2.15.38,3.28a1.69,1.69,0,0,0,.61-1,2.05,2.05,0,0,1,.23-.67.63.63,0,0,1,.76-.3c.3.1.37.35.35.65a1.16,1.16,0,0,1-.5.91c-.44.27-.49.71-.59,1.16a20,20,0,0,1-.49,2.42,2.28,2.28,0,0,1-1.17,1.4,2.75,2.75,0,0,1-3.1-.39m4.49-.2a1,1,0,0,1,.1-.54c.29-.74.59-1.48,1-2.32.2.91.39,1.78.59,2.61a.9.9,0,0,1,0,.23c-.3.61-.6,1.25-.92,1.89a.53.53,0,0,0-.19,0c-.18-.62-.37-1.21-.52-1.83"/><path class="cls-1" d="M212.32,12.33a.61.61,0,0,0-.81.32,2,2,0,0,0-.25.66,1.47,1.47,0,0,1-.52,1,6.59,6.59,0,0,1-.12-1.52,5.92,5.92,0,0,0-.22-1.68v0l0,0a.18.18,0,0,1-.12,0c-.05,0-.13,0-.2-.05a5,5,0,0,1-1.8-.59l-.22-.1c-.3-.37-1.29,0-1.63.25a2,2,0,0,0-.76,1s0,0-.06.08a5.62,5.62,0,0,0,.2,5.87,4.76,4.76,0,0,0,1,1.16,3,3,0,0,0,1.9.71A2.51,2.51,0,0,0,210,19a2.16,2.16,0,0,0,1.18-1.43,22.52,22.52,0,0,0,.52-2.44V15a1.39,1.39,0,0,1,.54-1,1.1,1.1,0,0,0,.52-1c0-.37-.09-.62-.39-.69m-.79,2.76c-.15.79-.29,1.6-.49,2.39a2.19,2.19,0,0,1-1.14,1.38,2.74,2.74,0,0,1-3-.39,4.28,4.28,0,0,1-1-1.14,5.47,5.47,0,0,1-.17-5.74s0-.05,0-.08a2.3,2.3,0,0,1,.74-.91,2.44,2.44,0,0,1,1.14-.37.39.39,0,0,1,.34.12l.25.13a5.76,5.76,0,0,0,1.85.59l.17,0,.08,0a6.18,6.18,0,0,1,.2,1.61,5.55,5.55,0,0,0,.17,1.65l0,.1.08-.08a1.7,1.7,0,0,0,.61-1.08,2.71,2.71,0,0,1,.23-.64.51.51,0,0,1,.46-.3.78.78,0,0,1,.22,0,.48.48,0,0,1,.3.57,1,1,0,0,1-.44.89,1.42,1.42,0,0,0-.62,1.11Zm1,.74-.12-.57-.08.17c-.1.28-.22.52-.32.77-.22.54-.42,1.06-.61,1.55a.91.91,0,0,0-.1.57c.1.47.25.94.37,1.38l.15.45v.05l.29,0,.25-.51.66-1.41a.36.36,0,0,0,0-.25c-.15-.74-.32-1.48-.52-2.24m.4,2.44c-.22.47-.47.94-.7,1.41l-.19.44-.13,0a2.5,2.5,0,0,0-.12-.45c-.12-.44-.27-.89-.37-1.35a1,1,0,0,1,.07-.5c.2-.52.42-1,.65-1.55a4.35,4.35,0,0,1,.25-.59l0,.19c.18.77.35,1.51.5,2.25,0,0,0,.1,0,.17m.86.05a.69.69,0,0,0-.42-.07.44.44,0,0,0-.2.22c-.17.37-.34.74-.51,1.13s-.35.72-.52,1.09l0,.07.08,0c.32.1.64.17,1,.27h.05l0,0a9.78,9.78,0,0,0,.54-2.42l.05-.25Zm-.12.25a10.73,10.73,0,0,1-.52,2.34l-.86-.22c.17-.37.32-.69.46-1s.38-.76.52-1.13a.35.35,0,0,1,.15-.15c.08,0,.15,0,.27.05Zm-2.27,1.72-.08-.14,0,.14c-.07.28-.15.57-.22.94l0,.15.12-.1c.59-.37.59-.42.25-1m-.17.79c.05-.22.09-.42.14-.59.2.32.18.4-.14.59m2.56-2.76a.69.69,0,0,0-.42-.07.44.44,0,0,0-.2.22c-.17.37-.34.74-.51,1.13s-.35.72-.52,1.09l0,.07.08,0c.32.1.64.17,1,.27h.05l0,0a9.78,9.78,0,0,0,.54-2.42l.05-.25Zm-.12.25a10.73,10.73,0,0,1-.52,2.34l-.86-.22c.17-.37.32-.69.46-1s.38-.76.52-1.13a.35.35,0,0,1,.15-.15c.08,0,.15,0,.27.05Zm-1.56,1.67.25-.51.66-1.41a.36.36,0,0,0,0-.25c-.15-.74-.32-1.48-.52-2.24l-.12-.57-.08.17c-.1.28-.22.52-.32.77-.22.54-.42,1.06-.61,1.55a.91.91,0,0,0-.1.57c.1.47.25.94.37,1.38l.15.45v.05Zm0-4a4.35,4.35,0,0,1,.25-.59l0,.19c.18.77.35,1.51.5,2.25,0,0,0,.1,0,.17-.22.47-.47.94-.7,1.41l-.19.44-.13,0a2.5,2.5,0,0,0-.12-.45c-.12-.44-.27-.89-.37-1.35a1,1,0,0,1,.07-.5c.2-.52.42-1,.65-1.55m-.45-1.16V15a1.39,1.39,0,0,1,.54-1,1.1,1.1,0,0,0,.52-1c0-.37-.09-.62-.39-.69a.61.61,0,0,0-.81.32,2,2,0,0,0-.25.66,1.47,1.47,0,0,1-.52,1,6.59,6.59,0,0,1-.12-1.52,5.92,5.92,0,0,0-.22-1.68v0l0,0a.18.18,0,0,1-.12,0c-.05,0-.13,0-.2-.05a5,5,0,0,1-1.8-.59l-.22-.1c-.3-.37-1.29,0-1.63.25a2,2,0,0,0-.76,1s0,0-.06.08a5.62,5.62,0,0,0,.2,5.87,4.76,4.76,0,0,0,1,1.16,3,3,0,0,0,1.9.71A2.51,2.51,0,0,0,210,19a2.16,2.16,0,0,0,1.18-1.43,22.52,22.52,0,0,0,.52-2.44m-4.78,3.38a4.28,4.28,0,0,1-1-1.14,5.47,5.47,0,0,1-.17-5.74s0-.05,0-.08a2.3,2.3,0,0,1,.74-.91,2.44,2.44,0,0,1,1.14-.37.39.39,0,0,1,.34.12l.25.13a5.76,5.76,0,0,0,1.85.59l.17,0,.08,0a6.18,6.18,0,0,1,.2,1.61,5.55,5.55,0,0,0,.17,1.65l0,.1.08-.08a1.7,1.7,0,0,0,.61-1.08,2.71,2.71,0,0,1,.23-.64.51.51,0,0,1,.46-.3.78.78,0,0,1,.22,0,.48.48,0,0,1,.3.57,1,1,0,0,1-.44.89,1.42,1.42,0,0,0-.62,1.11v.1c-.15.79-.29,1.6-.49,2.39a2.19,2.19,0,0,1-1.14,1.38,2.74,2.74,0,0,1-3-.39m4.41,1.68,0,.14c-.07.28-.15.57-.22.94l0,.15.12-.1c.59-.37.59-.42.25-1Zm-.09.93c.05-.22.09-.42.14-.59.2.32.18.4-.14.59M206.82,9.37a.41.41,0,0,1,.12-.08s0,0,.05,0l-.07,0h0s0,0-.07,0l-.12.19s0-.07.09-.07Zm7.38,8.78s0,0,0,0-.08-.1-.1-.1a.08.08,0,0,1-.08,0l-.12,0a2.06,2.06,0,0,0-.5-.1,5.65,5.65,0,0,0-.17-.71l0-.1a3.2,3.2,0,0,0-.1-.42,2.06,2.06,0,0,0-.13-.47,7.91,7.91,0,0,0-.19-.81v-.05c-.15-.55-.27-1,.27-1.43a.4.4,0,0,0,.17-.28A4.66,4.66,0,0,1,214,12.1l.22-.29a1.69,1.69,0,0,0,.05-1.88,2.12,2.12,0,0,0-1.09-1.08A6.9,6.9,0,0,0,212,8.5a4,4,0,0,1-2.12-1,.14.14,0,0,0-.17,0,30.75,30.75,0,0,0-2.84,1.67.29.29,0,0,1-.1.08c-1,.66-1.85,1.33-1.82,1.55,0,.05,0,.1.12.1a1.62,1.62,0,0,1-.22.52,1.8,1.8,0,0,0-.25.59.16.16,0,0,1,0,.1l0,0v.13a.39.39,0,0,0,0,.15v0s0,.07-.05.1v0a5.23,5.23,0,0,0-.25,2.1,5.76,5.76,0,0,0,1.9,4.17,3.25,3.25,0,0,0,4.44.2.31.31,0,0,1,.15-.1l0,0a1,1,0,0,1,.13,1,9.14,9.14,0,0,0-.3,1.11,3.2,3.2,0,0,0-.1.42,1.61,1.61,0,0,0-.07.37.39.39,0,0,0,0,.15l0,0,.2.15,0,0,.22-.13a1,1,0,0,0,.42-.32,1.16,1.16,0,0,1,1.34-.27c.66.15.86.05,1-.57s.32-1.18.47-1.92a3,3,0,0,0,.1-.52.18.18,0,0,0-.05-.15,0,0,0,0,1,0,0m-1.49,3.06a1.24,1.24,0,0,0-1.47.32,1.59,1.59,0,0,1-.4.29l-.17.1,0-.05a.2.2,0,0,1,0-.1,1,1,0,0,1,.08-.37,2.79,2.79,0,0,1,.1-.42,8.64,8.64,0,0,1,.29-1.08,1.18,1.18,0,0,0-.17-1.16l0,0,0,0-.09,0-.15.13a3.08,3.08,0,0,1-4.27-.2,5.61,5.61,0,0,1-1.88-4.07,5,5,0,0,1,.25-2v0a.88.88,0,0,0,.05-.15v0c0-.05,0-.08,0-.13v-.07s0-.08,0-.1V12l-.07,0a2,2,0,0,1,.24-.56c.18-.32.28-.55.2-.62s0-.05-.07-.07,0-.08,0-.1a7.3,7.3,0,0,1,1.41-1.11l.15-.08s0-.07.09-.07l0,0a.41.41,0,0,1,.12-.08s0,0,.05,0,0,0,0,0a19.56,19.56,0,0,1,2.76-1.65,4.12,4.12,0,0,0,2.2,1,8.82,8.82,0,0,1,1.13.37,2.08,2.08,0,0,1,1,1,1.64,1.64,0,0,1,0,1.75,2.57,2.57,0,0,0-.22.32,4,4,0,0,0-.79,1.51.35.35,0,0,1-.13.2h0s0,0,0,.05a.94.94,0,0,0-.18.14,1.43,1.43,0,0,0-.17.32,1.54,1.54,0,0,0,.08,1v.1c0,.1,0,.22.07.32a2.64,2.64,0,0,1,.12.44c.1.35.18.7.25,1s.12.52.19.77v0h.06a3.72,3.72,0,0,1,.66.13s0,0,.08.07,0,.3-.06.64a19.07,19.07,0,0,1-.46,1.93c-.15.54-.28.61-.87.47m1.09-2.87-.05,0a.69.69,0,0,0-.42-.07.44.44,0,0,0-.2.22c-.17.37-.34.74-.51,1.13s-.35.72-.52,1.09l0,.07.08,0c.32.1.64.17,1,.27h.05l0,0a9.78,9.78,0,0,0,.54-2.42Zm-.17.23a10.73,10.73,0,0,1-.52,2.34l-.86-.22c.17-.37.32-.69.46-1s.38-.76.52-1.13a.35.35,0,0,1,.15-.15c.08,0,.15,0,.27.05Zm-1.31,1.16.66-1.41a.36.36,0,0,0,0-.25c-.15-.74-.32-1.48-.52-2.24l-.12-.57-.08.17c-.1.28-.22.52-.32.77-.22.54-.42,1.06-.61,1.55a.91.91,0,0,0-.1.57c.1.47.25.94.37,1.38l.15.45v.05l.29,0Zm-.45.37a2.5,2.5,0,0,0-.12-.45c-.12-.44-.27-.89-.37-1.35a1,1,0,0,1,.07-.5c.2-.52.42-1,.65-1.55a4.35,4.35,0,0,1,.25-.59l0,.19c.18.77.35,1.51.5,2.25,0,0,0,.1,0,.17-.22.47-.47.94-.7,1.41l-.19.44ZM211.65,15a1.39,1.39,0,0,1,.54-1,1.1,1.1,0,0,0,.52-1c0-.37-.09-.62-.39-.69a.61.61,0,0,0-.81.32,2,2,0,0,0-.25.66,1.47,1.47,0,0,1-.52,1,6.59,6.59,0,0,1-.12-1.52,5.92,5.92,0,0,0-.22-1.68v0l0,0a.18.18,0,0,1-.12,0c-.05,0-.13,0-.2-.05a5,5,0,0,1-1.8-.59l-.22-.1c-.3-.37-1.29,0-1.63.25a2,2,0,0,0-.76,1s0,0-.06.08a5.62,5.62,0,0,0,.2,5.87,4.76,4.76,0,0,0,1,1.16,3,3,0,0,0,1.9.71A2.51,2.51,0,0,0,210,19a2.16,2.16,0,0,0,1.18-1.43,22.52,22.52,0,0,0,.52-2.44Zm-.12.08c-.15.79-.29,1.6-.49,2.39a2.19,2.19,0,0,1-1.14,1.38,2.74,2.74,0,0,1-3-.39,4.28,4.28,0,0,1-1-1.14,5.47,5.47,0,0,1-.17-5.74s0-.05,0-.08a2.3,2.3,0,0,1,.74-.91,2.44,2.44,0,0,1,1.14-.37.39.39,0,0,1,.34.12l.25.13a5.76,5.76,0,0,0,1.85.59l.17,0,.08,0a6.18,6.18,0,0,1,.2,1.61,5.55,5.55,0,0,0,.17,1.65l0,.1.08-.08a1.7,1.7,0,0,0,.61-1.08,2.71,2.71,0,0,1,.23-.64.51.51,0,0,1,.46-.3.78.78,0,0,1,.22,0,.48.48,0,0,1,.3.57,1,1,0,0,1-.44.89,1.42,1.42,0,0,0-.62,1.11Zm-.25,5.06,0,.14c-.07.28-.15.57-.22.94l0,.15.12-.1c.59-.37.59-.42.25-1Zm-.09.93c.05-.22.09-.42.14-.59.2.32.18.4-.14.59"/><path class="cls-1" d="M212.49,15.83l-.12-.57-.08.17c-.09.28-.22.52-.32.77-.22.54-.42,1.06-.61,1.55a1,1,0,0,0-.1.57c.1.47.25.94.37,1.38l.15.45v0l.29.06.25-.52c.22-.47.44-.94.67-1.41a.43.43,0,0,0,0-.25c-.15-.74-.32-1.48-.52-2.24m.4,2.44c-.23.47-.47.94-.69,1.41l-.2.44-.12,0a4.29,4.29,0,0,0-.13-.44c-.12-.44-.27-.89-.37-1.35a.88.88,0,0,1,.08-.5c.19-.51.42-1,.64-1.55q.1-.3.24-.6l0,.2c.18.77.35,1.51.5,2.25,0,0,0,.1,0,.17"/><path class="cls-1" d="M207.32,14.78c.15.52-.1,1,0,1.58l.76-.17c-.07.12-.08.19-.14.23-.23.15-.42.4-.8.29s-.21-.37-.19-.57.09-.68.15-1a1.65,1.65,0,0,1,.11-.36l.15,0"/><path class="cls-1" d="M209.37,17.13l-1.41.64a1.42,1.42,0,0,1,1.07-.93c.1,0,.26.08.39.12s0,.12,0,.17"/><path class="cls-1" d="M209.44,16.89c-.06,0-.08,0-.13-.05s-.22-.1-.3-.05h0a1.45,1.45,0,0,0-1.05,1l-.06.12.13-.05,1.4-.64h.06l0-.28Zm-.13.2-1.26.56a1.53,1.53,0,0,1,1-.74l.05,0a1.21,1.21,0,0,1,.2.07s.05,0,.08,0Z"/><path class="cls-1" d="M208.36,13.56l0,0-.45.09a1.29,1.29,0,0,1,.84-.94c.2.48-.19.64-.42.88"/><path class="cls-1" d="M205.18,13.92a.88.88,0,0,1,1.06.05.25.25,0,0,1,.06.23c-.06.09-.22.19-.28.17-.25-.11-.48-.26-.84-.45"/><path class="cls-1" d="M209.1,14.21a.35.35,0,1,1-.69,0,.35.35,0,1,1,.69,0"/><path class="cls-1" d="M206.33,15a.37.37,0,0,1-.32.4.37.37,0,0,1-.38-.35.35.35,0,1,1,.7,0"/><path class="cls-1" d="M213.29,23.71a1.91,1.91,0,0,1-.27,1.22,20.69,20.69,0,0,1-3.29,4.55,41.44,41.44,0,0,1-6.53,5.44c-.85.56-1.69,1.13-2.55,1.67a4.16,4.16,0,0,1-.86.38c-.09,0-.2,0-.44,0,.19-.12.27-.18.35-.24.55-.34,1.11-.66,1.64-1a53.81,53.81,0,0,0,6.7-5.23c.77-.73,1.52-1.49,2.22-2.28a13.77,13.77,0,0,0,2.54-4.05c.08-.22.17-.39.49-.38"/><path class="cls-1" d="M213.31,23.57h-.05a.57.57,0,0,0-.57.47,13.82,13.82,0,0,1-2.52,4c-.64.69-1.35,1.43-2.22,2.27a54.44,54.44,0,0,1-6.68,5.23c-.35.23-.72.45-1.09.67-.17.13-.37.22-.54.34l-.22.15-.4.3.32,0a.54.54,0,0,0,.2,0,.59.59,0,0,0,.17,0h.13l.07-.05a6.21,6.21,0,0,0,.82-.34L203.27,35a42.94,42.94,0,0,0,6.56-5.45,21.1,21.1,0,0,0,3.3-4.59,1.89,1.89,0,0,0,.28-1.28v-.1Zm-13.5,13.25-.05,0h-.1l.1-.05a5.84,5.84,0,0,1,.57-.35c.35-.22.72-.44,1.09-.69a56.23,56.23,0,0,0,6.71-5.25c.86-.82,1.6-1.58,2.22-2.27a14.31,14.31,0,0,0,2.56-4.1c.08-.2.13-.27.27-.29a1.93,1.93,0,0,1-.27,1,19.92,19.92,0,0,1-3.28,4.52,42.51,42.51,0,0,1-6.49,5.42c-.86.57-1.7,1.14-2.56,1.68a6.15,6.15,0,0,1-.77.32"/><path class="cls-1" d="M195.67,32.87c.36-.3.71-.61,1.09-.87a57.89,57.89,0,0,0,7.12-6.14c1.11-1.1,2.12-2.3,3.17-3.46.11-.12.24-.22.4-.37a.77.77,0,0,1-.2.82,22.67,22.67,0,0,1-1.83,2.29,55.2,55.2,0,0,1-7.48,6.61c-.68.48-1.43.86-2.14,1.29l-.13-.17"/><path class="cls-1" d="M207.56,22l-.05-.18-.15.13c-.05.05-.1.07-.12.12a1.71,1.71,0,0,0-.27.25c-.35.37-.69.76-1,1.15-.69.77-1.38,1.56-2.14,2.3a56.86,56.86,0,0,1-7.11,6.12c-.25.2-.52.39-.77.61-.09.08-.19.18-.32.28l-.07.07.25.35.1-.06c.22-.12.44-.26.66-.39a16.12,16.12,0,0,0,1.48-.89,56.08,56.08,0,0,0,7.5-6.63A15.81,15.81,0,0,0,207,23.4c.12-.17.25-.32.35-.47l0,0a.85.85,0,0,0,.2-.91m-.42.79-.35.46a14.74,14.74,0,0,1-1.45,1.81,53.93,53.93,0,0,1-7.48,6.58,10.25,10.25,0,0,1-1.45.89,4.7,4.7,0,0,1-.5.29,1.86,1.86,0,0,0,.18-.12c.24-.22.49-.42.74-.61A55.32,55.32,0,0,0,204,25.94c.76-.74,1.48-1.53,2.17-2.31.32-.38.66-.77,1-1.14a1.86,1.86,0,0,1,.25-.22.75.75,0,0,1-.23.49Z"/><path class="cls-1" d="M198,34.33c1.39-1,2.78-2,4.07-3.07a33.13,33.13,0,0,0,3.7-3.51c1.11-1.25,2.28-2.43,3.43-3.65l.12.09c-.06.12-.1.26-.17.37A25.77,25.77,0,0,1,205,29.48a31.17,31.17,0,0,1-5.16,4.06c-.4.24-.76.54-1.16.8a.46.46,0,0,1-.67,0"/><path class="cls-1" d="M209.38,24.09a.4.4,0,0,1-.12-.1l-.1,0-.07.08c-.35.37-.69.74-1,1.08-.79.84-1.63,1.71-2.39,2.57a35.19,35.19,0,0,1-3.7,3.5c-.89.74-1.8,1.41-2.76,2.1l-1.29,1-.12.08.1.12a.72.72,0,0,0,.42.17.51.51,0,0,0,.37-.15h0c.17-.12.34-.27.54-.39s.4-.3.59-.42a31.76,31.76,0,0,0,5.21-4.07,27.68,27.68,0,0,0,4.17-4.93,1.69,1.69,0,0,0,.12-.28.61.61,0,0,1,0-.12l.05-.1Zm-10.26,9.77a5.67,5.67,0,0,1-.54.37l0,0c-.13.07-.23.15-.38.07l1.16-.86c1-.69,1.9-1.39,2.79-2.13a32.42,32.42,0,0,0,3.7-3.5c.79-.89,1.6-1.73,2.39-2.56l.79-.79a25.55,25.55,0,0,1-4.12,4.91,33.23,33.23,0,0,1-5.15,4,5.19,5.19,0,0,0-.62.42"/><path class="cls-1" d="M193.93,38c.08-1.12,2-2.75,3.11-2.69-.59.43-1.16.8-1.67,1.25s-1,1-1.44,1.44"/><path class="cls-1" d="M197,35.29h0a2.11,2.11,0,0,0-.94.27l-.19.13a2.5,2.5,0,0,1,1.13-.37.14.14,0,0,1-.1.07l-.37.3h0a5.32,5.32,0,0,1,.52-.37l0,0Zm-1.17.4a5.38,5.38,0,0,0-.77.54,4.87,4.87,0,0,1,.77-.54m-1.22,1.58a1.72,1.72,0,0,0-.27.27v0c.32-.34.67-.69,1-1h0c-.25.25-.5.47-.72.72m-.66.59a1.11,1.11,0,0,1,.09-.32,3.67,3.67,0,0,1,.6-.89,2.88,2.88,0,0,0-.37.44,0,0,0,0,0,0,0,1.8,1.8,0,0,0-.34.86V38l0,0v0a2.77,2.77,0,0,0,.42-.42c-.15.13-.27.25-.42.4,0,0,0-.08,0-.1"/><path class="cls-1" d="M198.52,36.77a4.55,4.55,0,0,1-3.24,2l1.69-1a6.15,6.15,0,0,1,1.55-1"/><path class="cls-1" d="M198.5,36.75a.52.52,0,0,0-.27.15,1.45,1.45,0,0,1,.25-.1h0l0,0v0Zm-.17.37,0,0h0Zm-.61.07-.25.17a1.37,1.37,0,0,0-.22.2l.24-.17A3.19,3.19,0,0,1,198,37l.27-.14A.39.39,0,0,0,198,37a.86.86,0,0,0-.24.17m-1.56,1-.24.15-.65.37-.05,0h.05a1.2,1.2,0,0,0,.5-.1,1.42,1.42,0,0,1-.45.08c.22-.13.42-.25.62-.35.35-.22.69-.44,1-.64a.82.82,0,0,0,.25-.2l-.25.18c-.26.17-.51.32-.81.49m.55.1s0,0,0,0a2.83,2.83,0,0,0,.47-.27,3.45,3.45,0,0,1-.47.24s0,0,0,0"/><path class="cls-1" d="M197.1,37.22a3,3,0,0,1-2.44,1.18,5.77,5.77,0,0,1,2.44-1.18"/><path class="cls-1" d="M197.07,37.22a1.08,1.08,0,0,0-.22,0,1.55,1.55,0,0,0-.27.1,3.32,3.32,0,0,0-.32.12c.22-.07.45-.14.59-.2a1.08,1.08,0,0,1,.22,0s0,0,0,0Zm-1.18.39c-.12.08-.22.12-.35.2a4.69,4.69,0,0,1,.69-.32l0,0h0l-.34.15m-1.26.79,0,0h.2a2.83,2.83,0,0,0,1.25-.38,3.2,3.2,0,0,1-1.25.35Z"/><path class="cls-1" d="M194.44,37.91c.75-.76,1.2-1.07,1.69-1.14a2.19,2.19,0,0,1-1.69,1.14"/><path class="cls-1" d="M194.46,37.91h0v0h0a1.17,1.17,0,0,0,.47-.12,1.72,1.72,0,0,1-.47.1,3,3,0,0,1,1.63-1.11l0,0c-.5,0-1,.37-1.68,1.14m.74-.22h0c-.07.05-.14.07-.22.12a.62.62,0,0,0,.22-.1s0,0,0,0"/><path class="cls-1" d="M195.68,35.5l-.94.68c0-.61.24-.77.94-.68"/><path class="cls-1" d="M195.69,35.49a1.23,1.23,0,0,0-.32,0,1.08,1.08,0,0,0-.27,0h0a1,1,0,0,1,.25,0,1.32,1.32,0,0,1,.27,0l-.22.18s0,0,.05,0l.22-.15,0,0Zm-.93.67a1,1,0,0,1,.14-.52.9.9,0,0,0-.17.54v0l0,0,.42-.3a.88.88,0,0,0,.24-.19c-.1.05-.17.12-.27.17l-.39.3m.17-.57v0l0,0Z"/><path class="cls-1" d="M241.31,44.06a.48.48,0,0,0,.24.34c.54.36,1,.63,1.73,1.06a25.27,25.27,0,0,0,2.6.82c.41,0,1,.21,1.43.23.12,0,0-.32.09-.33s0-.1,0-.1c-.26,0-.52,0-.78,0a10.32,10.32,0,0,1-2.25-.46,14.74,14.74,0,0,1-2.83-1.47c-.05-.06-.11-.1-.24,0"/><path class="cls-1" d="M247.52,46c0-.05-.05-.07-.07-.07h-.32c-.15,0-.32,0-.47-.05a6.7,6.7,0,0,1-1.65-.3l-.6-.14A15.5,15.5,0,0,1,241.63,44a.28.28,0,0,0-.37,0l-.08,0v.07a.56.56,0,0,0,.3.42c.57.37,1,.67,1.75,1.09.4.12.69.22,1,.32a10.53,10.53,0,0,0,1.68.49l.67.12c.09,0,.19,0,.27.06l.49.07a.19.19,0,0,0,.12,0c.08-.08.05-.15.05-.25v0l.07-.08,0,0v-.05s0-.07,0-.1m-.3.35v0h0c-.07,0-.17,0-.27,0l-.34-.07a4,4,0,0,0-.67-.1,10.31,10.31,0,0,1-1.63-.49h.05l.59.17a8,8,0,0,0,1.7.3,2.17,2.17,0,0,0,.37,0,.25.25,0,0,0,.13,0h.09v.18Zm-3-.74c-.27-.07-.52-.17-.86-.27s-.72-.42-1-.62c.67.35,1.46.74,1.85.89"/><path class="cls-1" d="M244,57.43a8.82,8.82,0,0,0,.2-.89,25.27,25.27,0,0,1,1.67-6c.38-1,.91-1.94,1.37-2.9a3.5,3.5,0,0,0,.12-.35.73.73,0,0,0-.61.39,11.86,11.86,0,0,0-1,1.77,24.79,24.79,0,0,0-1.9,6.32,12.34,12.34,0,0,0,0,1.61H244"/><path class="cls-1" d="M247.35,47.26a.78.78,0,0,0-.69.42l-.25.36a8.17,8.17,0,0,0-.81,1.44,23.77,23.77,0,0,0-1.9,6.31,4.71,4.71,0,0,0,0,1.06v.64h.14a.4.4,0,0,0,.17,0h.13l0-.07a1.16,1.16,0,0,1,.05-.28,3.18,3.18,0,0,0,.15-.61,25.19,25.19,0,0,1,1.65-6c.27-.64.59-1.31.91-1.93.16-.32.33-.64.48-1a1.87,1.87,0,0,1,.07-.22.18.18,0,0,1,.05-.12l0-.13Zm-.22.39c-.15.32-.3.64-.47,1-.3.62-.64,1.29-.89,2a24.29,24.29,0,0,0-1.68,6,2.13,2.13,0,0,1-.1.42V57s0,.07,0,.1,0,0,0,.07,0,0,0,.07v-.34a6.86,6.86,0,0,1,0-1.11,24.1,24.1,0,0,1,1.9-6.32,8.1,8.1,0,0,1,.82-1.4c.07-.13.15-.23.22-.35v0c.08-.09.15-.22.32-.26a2,2,0,0,1-.07.19"/><path class="cls-1" d="M244.13,57.09A.94.94,0,0,0,244,57a20.09,20.09,0,0,1-4.83-2.25c-.79-.47-1.55-1.08-2.32-1.62a2.18,2.18,0,0,0-.27-.15.76.76,0,0,0,.28.63,10.92,10.92,0,0,0,1.4,1.19,19.5,19.5,0,0,0,5.11,2.5,4.7,4.7,0,0,0,.75.13l0-.37"/><path class="cls-1" d="M244.1,57.39a3,3,0,0,1-.66-.11,18.85,18.85,0,0,1-5.1-2.49,7.82,7.82,0,0,1-1.11-.93,3.45,3.45,0,0,1-.28-.26h0a.62.62,0,0,1-.21-.34l.17.09.75.55c.51.38,1,.77,1.56,1.09A19.87,19.87,0,0,0,244,57.22l.08,0,0-.23-.08,0a20,20,0,0,1-4.82-2.24,17.93,17.93,0,0,1-1.55-1.08l-.76-.55-.18-.1-.1-.05-.1,0v.18a.84.84,0,0,0,.3.7l0,0,.27.25a8.14,8.14,0,0,0,1.13,1,19.45,19.45,0,0,0,5.12,2.5,5.2,5.2,0,0,0,.67.11,1.94,1.94,0,0,0,0-.24"/><path class="cls-1" d="M204.66,12.52s-1-4.22,2.35-5.17,6.86.11,8.16,2.62,5.66,5.45,5.82,6.84.4,1.89,0,2.33-2.8.82-2.8.82-3-.57-3.58-1.31a8.17,8.17,0,0,0-1.2-1.19l-1.14-3s1.34-1.28.58-2a18.86,18.86,0,0,0-2.79-1.93L206.86,9.2Z"/><path class="cls-1" d="M212.76,14a1.1,1.1,0,0,0-.17.32l.1-.1a.63.63,0,0,1,.12-.18,1.67,1.67,0,0,1,.13-.2,1,1,0,0,0-.18.16m-5.87-4.82,0,0-.05.1-.12.14-.12.18.15-.07.12-.2s.05,0,.07,0h0l.07,0s0,0,0,0L207,9.17Zm14.29,8.61c0-.25-.08-.57-.13-.93-.1-.75-1.21-1.8-2.49-3.06a17.19,17.19,0,0,1-3.33-3.83c-1.31-2.51-4.76-3.62-8.24-2.64-3.23.92-2.49,4.76-2.39,5.21v0l.05.13.07-.08v0l2.07-3.16,0,0,.07-.09.05,0,3.13,1.31a17.69,17.69,0,0,1,2.77,1.92.67.67,0,0,1,.22.52,2.85,2.85,0,0,1-.79,1.43l-.05,0,.64,1.63.2.49,0,.1.13.32,0,.1.15.34v0h0l.49.45a.94.94,0,0,0,.1.1s0,.05,0,.05,0,0,.08.07.05,0,.05,0l0,0,.1.1c.1.1.2.25.32.37.64.74,3.5,1.31,3.63,1.33s2.36-.27,2.83-.84c.3-.34.25-.71.13-1.43m-3,2.15c-.18,0-2.94-.59-3.53-1.29a4.88,4.88,0,0,0-.5-.51c0-.08-.07-.1-.09-.1a4.74,4.74,0,0,0-.62-.57L213,16.15l-.15-.4-.18-.44v-.05l-.29-.74a3.25,3.25,0,0,0,.22-.24l.1-.1a.63.63,0,0,1,.12-.18,1.67,1.67,0,0,1,.13-.2s0,0,0,0a1.55,1.55,0,0,0,.22-.72.93.93,0,0,0-.24-.61,18,18,0,0,0-2.82-1.95L207,9.22,207,9.17l-.08,0,0,0-.05.1-.12.14-.12.18-1.75,2.64-.08.12v0l0,0a.68.68,0,0,1,0-.12c0-.05,0-.1,0-.15a.16.16,0,0,0,0-.1c-.15-1.14-.19-3.85,2.4-4.56,3.4-1,6.8.12,8.09,2.59a17.93,17.93,0,0,0,3.35,3.85c1.24,1.18,2.4,2.29,2.47,3,0,.39.1.71.12,1,.13.69.18,1-.07,1.31-.45.51-2.59.78-2.76.81"/><path class="cls-2" d="M252.57,73.94c-7.43-2.2-8.38-6.23-11.37-14-1.74-4.55-4.08-10.09-6.89-14l.88-.7c3.21,3.56,5.4,9.66,7.16,14.28,2.87,7.51,3.72,11.26,10.57,13.29Z"/><path class="cls-2" d="M231,43.18a28,28,0,0,0-11.26-4L219.9,38a28.64,28.64,0,0,1,11.72,4.12Z"/><path class="cls-1" d="M250.44,32.57a1.88,1.88,0,0,1-.36,1.2,20.31,20.31,0,0,1-3.62,4.29A41.08,41.08,0,0,1,239.54,43c-.88.5-1.77,1-2.67,1.47a3.83,3.83,0,0,1-.88.31c-.09,0-.2,0-.43-.07l.36-.22c.57-.3,1.16-.57,1.71-.9a55.86,55.86,0,0,0,7.08-4.72c.82-.67,1.62-1.37,2.38-2.1a14,14,0,0,0,2.83-3.86c.1-.2.2-.38.52-.34"/><path class="cls-1" d="M250.36,32.46a.54.54,0,0,0-.54.39A14.4,14.4,0,0,1,247,36.68c-.69.66-1.43,1.33-2.36,2.09a58.52,58.52,0,0,1-7.06,4.71c-.39.22-.76.42-1.16.62l-.56.29-.18.1-.47.27.32.08a.39.39,0,0,1,.2,0l.22,0H236l.07,0a5.64,5.64,0,0,0,.84-.3c.86-.47,1.7-1,2.66-1.48a40.16,40.16,0,0,0,6.94-5,20.64,20.64,0,0,0,3.65-4.31,2.07,2.07,0,0,0,.37-1.28v-.1ZM236,44.64l-.08,0h-.07a.44.44,0,0,0,.1-.08,4.11,4.11,0,0,0,.56-.27c.37-.2.77-.39,1.17-.62A56.2,56.2,0,0,0,244.78,39c.94-.79,1.71-1.46,2.4-2.12A14.31,14.31,0,0,0,250,33c.07-.18.12-.28.29-.28a1.9,1.9,0,0,1-.37,1A19.73,19.73,0,0,1,246.39,38a40.7,40.7,0,0,1-6.91,4.93c-.94.54-1.8,1-2.66,1.48a4.33,4.33,0,0,1-.79.27"/><path class="cls-1" d="M252.92,29.58a1.45,1.45,0,0,1,.33,1,17.15,17.15,0,0,1-.72,5,40.85,40.85,0,0,1-3.12,7.26c-.45.85-.91,1.7-1.38,2.54a4.1,4.1,0,0,1-.55.71,1.45,1.45,0,0,1-.39.2c.09-.18.13-.27.18-.35.3-.54.63-1.06.9-1.6a55.91,55.91,0,0,0,3.34-7.22,27.78,27.78,0,0,0,.85-2.78,11.11,11.11,0,0,0,.3-4.24.45.45,0,0,1,.26-.53"/><path class="cls-1" d="M253,29.5l-.05-.08-.1,0a.55.55,0,0,0-.3.67,11.08,11.08,0,0,1-.32,4.19,25.3,25.3,0,0,1-.83,2.76,57.72,57.72,0,0,1-3.09,6.74l-.25.47c-.17.34-.39.71-.59,1a3.2,3.2,0,0,1-.32.54s0,.06,0,.08,0,.07-.08.1v0l-.05.1-.07.18-.07.09-.05.12.19-.09.13,0a.07.07,0,0,1,.07,0l0,0c.05,0,.07,0,.09,0h0a.73.73,0,0,0,.2-.1l0,0,.08-.05a5,5,0,0,0,.49-.67c.44-.81.89-1.62,1.33-2.44l.05-.1a41.77,41.77,0,0,0,3.13-7.27,17.32,17.32,0,0,0,.72-5A1.57,1.57,0,0,0,253,29.5m-3.75,13.41c-.44.79-.86,1.61-1.33,2.42a4.6,4.6,0,0,1-.47.62l0,.07s0,0-.05,0,0,0,0,0,0,0,0,0a4.7,4.7,0,0,0,.29-.5q.3-.51.6-1.05l.24-.45a57.53,57.53,0,0,0,3.11-6.78c.37-1.06.62-2,.84-2.79a11.32,11.32,0,0,0,.3-4.29c0-.15,0-.25.12-.35a1.4,1.4,0,0,1,.22.87,16.84,16.84,0,0,1-.71,5,41,41,0,0,1-3.11,7.22Z"/><path class="cls-1" d="M232.57,40.83c.37-.28.72-.59,1.1-.85a56.9,56.9,0,0,0,7.22-6c1.13-1.08,2.16-2.27,3.23-3.41.11-.12.24-.21.41-.36a.8.8,0,0,1-.22.82,23.86,23.86,0,0,1-1.87,2.26,55.85,55.85,0,0,1-7.58,6.49c-.69.47-1.44.83-2.17,1.25l-.12-.18"/><path class="cls-1" d="M244.64,30.16l0-.2-.15.13-.15.15a1.13,1.13,0,0,0-.25.24c-.37.35-.69.74-1,1.11-.72.77-1.43,1.55-2.2,2.27a55,55,0,0,1-7.2,6,9.54,9.54,0,0,0-.79.59c-.1.1-.22.17-.32.27l-.1.08.27.34.08,0,.69-.37a16.79,16.79,0,0,0,1.47-.88,54.24,54.24,0,0,0,7.63-6.49,20,20,0,0,0,1.5-1.83c.12-.15.25-.29.37-.47v0a.82.82,0,0,0,.23-.89m-.42.77-.37.46a18.52,18.52,0,0,1-1.48,1.81,55.08,55.08,0,0,1-7.58,6.46,16.76,16.76,0,0,1-1.48.86c-.15.1-.32.18-.49.27l.15-.12c.24-.2.52-.42.76-.59a57.56,57.56,0,0,0,7.26-6c.76-.74,1.48-1.53,2.19-2.32l1-1.11.22-.2c0,.2-.1.32-.2.47Z"/><path class="cls-1" d="M234.38,42c1.47-.94,2.92-1.79,4.29-2.75a34.79,34.79,0,0,0,4-3.23c1.2-1.16,2.46-2.26,3.69-3.38l.12.09c-.07.12-.12.25-.2.36a25.89,25.89,0,0,1-4.52,4.6,31.86,31.86,0,0,1-5.45,3.66c-.41.21-.8.49-1.21.71-.18.09-.38.24-.67-.06"/><path class="cls-1" d="M246.51,32.65s-.07-.07-.12-.09l-.08-.06-.07.08c-.37.32-.77.66-1.13,1-.87.76-1.73,1.56-2.57,2.37a34.58,34.58,0,0,1-3.95,3.2c-.94.67-1.92,1.29-2.93,1.9-.45.3-.89.57-1.33.85l-.15.09.12.1a.55.55,0,0,0,.42.22.66.66,0,0,0,.35-.12l0,0c.2-.09.37-.22.57-.32a5,5,0,0,1,.64-.36,33.89,33.89,0,0,0,5.48-3.68,25.62,25.62,0,0,0,4.51-4.64.62.62,0,0,0,.17-.25.43.43,0,0,1,.06-.12l0-.07Zm-.4.4a24.18,24.18,0,0,1-4.48,4.56,31.88,31.88,0,0,1-5.43,3.65,6.67,6.67,0,0,0-.64.37L235,42l-.05,0a.36.36,0,0,1-.35,0l1.19-.74c1-.65,2-1.24,3-1.93a31.26,31.26,0,0,0,4-3.23c.84-.81,1.71-1.6,2.57-2.37.29-.27.61-.54.91-.84a.91.91,0,0,1-.08.13"/><path class="cls-1" d="M230.87,44.81c.15-1.11,2.21-2.59,3.29-2.45-.61.39-1.21.72-1.76,1.13s-1,.88-1.53,1.32"/><path class="cls-1" d="M234,42.35a1.39,1.39,0,0,0-.44.07,3.49,3.49,0,0,1,.44-.05h.13l-.57.35a5.46,5.46,0,0,0-.59.39l.61-.37.57-.37h0l0,0Zm-2.66,2c-.15.15-.3.27-.47.42,0,0,0-.07,0-.1a.24.24,0,0,0-.05.12v0l0,0,.49-.41a8.74,8.74,0,0,1,1-.89,4.82,4.82,0,0,1,.57-.4,4.65,4.65,0,0,0-.57.37c-.37.27-.71.59-1.06.89m.74-1.18h0a2.59,2.59,0,0,0-.42.39,2,2,0,0,0-.37.4,1.47,1.47,0,0,0-.28.42,1.4,1.4,0,0,0-.09.29,2.52,2.52,0,0,1,.76-1.11,5.36,5.36,0,0,1,.42-.39"/><path class="cls-1" d="M235.53,43.94a4.62,4.62,0,0,1-3.38,1.75l1.77-.89a6,6,0,0,1,1.61-.86"/><path class="cls-1" d="M235.53,43.93a1.6,1.6,0,0,0-.44.14,4.09,4.09,0,0,0-.64.37,3.84,3.84,0,0,1-.54.35c-.37.2-.75.37-1.14.57-.2.1-.39.22-.62.32l-.05,0h.1a2.89,2.89,0,0,0,.94-.17,3.14,3.14,0,0,1-.91.15c.2-.1.37-.2.54-.3l.29-.15c.3-.14.6-.27.87-.42a2.58,2.58,0,0,0,.37-.24.75.75,0,0,0,.17-.1c.18-.1.32-.22.5-.32a1.47,1.47,0,0,1,.22-.1,1.5,1.5,0,0,1,.32-.1,1.74,1.74,0,0,1-.2.3,3.9,3.9,0,0,1-1,.76,3.52,3.52,0,0,0,1-.76,1.25,1.25,0,0,0,.19-.3l0,0Zm-1.6,1.3a.48.48,0,0,0,.2-.12,6.45,6.45,0,0,1-1,.42,4.08,4.08,0,0,0,.77-.3"/><path class="cls-1" d="M234.07,44.28a3,3,0,0,1-2.51,1,5.86,5.86,0,0,1,2.51-1"/><path class="cls-1" d="M234.08,44.27H234a3.14,3.14,0,0,0-.87.2,1.68,1.68,0,0,0-.34.15c.12,0,.24-.08.34-.13a3.05,3.05,0,0,1,.87-.19h0a2.09,2.09,0,0,0-.14.17.69.69,0,0,0,.17-.17l0,0Zm-1,.74.3-.15a3.17,3.17,0,0,1-.42.19l.12,0m-1.5.27a.88.88,0,0,0,.29,0,2.93,2.93,0,0,0,1.09-.28,3.23,3.23,0,0,1-1.11.26c-.1,0-.2,0-.27,0m0,0v0h0a4,4,0,0,1,.51-.34,2.85,2.85,0,0,0-.54.32"/><path class="cls-1" d="M231.37,44.78a3.24,3.24,0,0,1,1.78-1,2.24,2.24,0,0,1-1.78,1"/><path class="cls-1" d="M233.16,43.76h0a1,1,0,0,0-.37.07,2.65,2.65,0,0,0-.86.49,6.18,6.18,0,0,0-.54.44v0h.12a1.21,1.21,0,0,0,.34-.07,2.38,2.38,0,0,1-.34,0h-.08a3.33,3.33,0,0,1,1.71-1,2.44,2.44,0,0,1-.26.32,1.76,1.76,0,0,0,.3-.32Zm-.71.68.22-.14.15-.15,0,0-.07.07c-.1.09-.23.18-.34.27"/><path class="cls-1" d="M232.8,42.46l-1,.61c.07-.61.3-.75,1-.61"/><path class="cls-1" d="M232.79,42.45a1,1,0,0,0-.66,0,.87.87,0,0,1,.27,0,3.5,3.5,0,0,1,.37,0h0l0,0Zm-.91.29a.68.68,0,0,0-.07.32v0l1-.62c-.35.2-.64.37-.94.57a1,1,0,0,1,0-.3"/><path class="cls-1" d="M251,18.05a7.58,7.58,0,0,0-2-2.17,15.68,15.68,0,0,0-4-1H245a5.36,5.36,0,0,0-3.09,1.26c-1.21,1.23-.93,3.4-.86,4a.5.5,0,0,0,0,.17s0,0,0,0a.39.39,0,0,0,0,.15,1.44,1.44,0,0,1,0,.24,4.89,4.89,0,0,0-.25,2.22,6,6,0,0,0,2,4.34,3.34,3.34,0,0,0,4.61.18.65.65,0,0,0,.15-.1s0,0,.05,0a1.07,1.07,0,0,1,.12,1,8.55,8.55,0,0,0-.29,1.16c-.05.15-.08.29-.13.42s0,.27-.07.39a.27.27,0,0,1,0,.15v0l.2.15,0,0a1.55,1.55,0,0,1,.22-.12,1.4,1.4,0,0,0,.44-.34,1.21,1.21,0,0,1,1.41-.3c.69.17.89,0,1.06-.59s.32-1.19.47-2c.1-.39.12-.61,0-.74s-.34-.19-.81-.24c0-.25-.13-.52-.18-.77s-.12-.47-.17-.71a.3.3,0,0,0,0-.15.2.2,0,0,0,0-.1c-.05-.3-.15-.62-.22-.91l0-.05c-.15-.57-.29-1.06.3-1.48a.81.81,0,0,0,.17-.3c.05-.34.3-.37.62-.42a1,1,0,0,0,.79-.39s.05-.08.05-.12,0,0,0-.05,0-.05,0-.08a4.46,4.46,0,0,0-.42-2.76m-1.41,8.53a.19.19,0,0,1,0,.18c-.22.47-.44,1-.69,1.43l-.22.49h-.05a.1.1,0,0,0-.07,0l-.15-.45c-.12-.47-.27-.93-.39-1.4a.83.83,0,0,1,.09-.55l.72-1.77L249,24l.1.47c.17.74.32,1.4.46,2.09m-1.94-.64a2.23,2.23,0,0,1-1.16,1.46,2.83,2.83,0,0,1-3.16-.42,4.7,4.7,0,0,1-1-1.16,5.64,5.64,0,0,1-.24-5.87L245,18.76a4.53,4.53,0,0,0,1.65.52l.17,0a.2.2,0,0,0,.1,0,5.62,5.62,0,0,1,.2,1.7,6.84,6.84,0,0,0,.17,1.71l.05.1.07-.08a1.86,1.86,0,0,0,.65-1.13,2,2,0,0,1,.22-.67.61.61,0,0,1,.71-.3c.25.1.35.28.32.62a1.05,1.05,0,0,1-.46.89,1.52,1.52,0,0,0-.62,1.18l0,.1a20.81,20.81,0,0,1-.51,2.49m.17,3.78c.05-.15.07-.28.1-.4l.07-.27c.2.37.17.42-.17.67M250,27a.32.32,0,0,1,.15-.17c.08,0,.15,0,.3.05l0,.14a11.18,11.18,0,0,1-.54,2.47c-.32-.1-.59-.17-.91-.25l.34-.71c.23-.52.47-1,.69-1.53"/><path class="cls-1" d="M249.25,24.46l-.12-.54a.67.67,0,0,1-.08-.3l-.34.82c-.25.62-.5,1.21-.72,1.77a1.13,1.13,0,0,0-.1.62c.12.47.27.94.42,1.41a2.92,2.92,0,0,1,.12.49l0,0,0,0h.13s0,0,.1,0l0,0,.28-.59c.22-.47.44-1,.66-1.43a.38.38,0,0,0,0-.28c-.15-.66-.3-1.35-.47-2.07m.34,2.3c-.22.47-.44,1-.68,1.43l-.23.49h-.05a.1.1,0,0,0-.07,0l-.15-.45c-.12-.47-.27-.94-.4-1.4a1,1,0,0,1,.1-.55l.72-1.77L249,24l.1.47c.17.74.32,1.4.46,2.1a.17.17,0,0,1,0,.17"/><path class="cls-1" d="M243.79,23.14c.15.54-.11,1.08,0,1.65l.78-.17c-.07.12-.09.19-.15.23-.23.16-.44.42-.82.31s-.23-.39-.21-.6.09-.71.15-1.06c0-.12.08-.25.11-.37h.17"/><path class="cls-1" d="M245.93,25.59l-1.47.67c.18-.63.67-.8,1.11-1,.1,0,.27.08.41.13a1.21,1.21,0,0,0,0,.18"/><path class="cls-1" d="M246,25.35a.18.18,0,0,0-.12-.05c-.12-.05-.25-.1-.32-.07l-.05,0a1.53,1.53,0,0,0-1.11,1l0,.12.37-.15c.45-.22.84-.39,1.22-.56l0,0v0a.09.09,0,0,1,0-.08.15.15,0,0,1,0-.1v0Zm-.1.12s0,.05,0,.08l-1.18.54-.13.05a1.5,1.5,0,0,1,1-.79h0s0,0,0,0,.13.06.2.08.05,0,.07.05Z"/><path class="cls-1" d="M244.86,21.87l0,0-.46.09a1.33,1.33,0,0,1,.87-1c.21.5-.2.67-.44.92"/><path class="cls-1" d="M241.55,22.25a.94.94,0,0,1,1.1.05c.06,0,.11.21.07.25s-.23.2-.29.17a9,9,0,0,1-.88-.47"/><path class="cls-1" d="M245.64,22.54a.36.36,0,1,1-.39-.36.38.38,0,0,1,.39.36"/><path class="cls-1" d="M242.75,23.34a.37.37,0,0,1-.33.41.38.38,0,0,1-.39-.36.36.36,0,1,1,.72-.05"/><path class="cls-1" d="M253.48,23.42a2.23,2.23,0,1,1-1.9-2.52,2.23,2.23,0,0,1,1.9,2.52"/><path class="cls-1" d="M253.1,21.72a2.36,2.36,0,0,0-1.51-.88.34.34,0,0,1-.17,0,2.31,2.31,0,0,0-1.53.47,2.35,2.35,0,0,0-.89,1.51,2,2,0,0,0,.05.84.55.55,0,0,0,.08.29,2.07,2.07,0,0,0,.66.94,2.28,2.28,0,0,0,1.16.52,1.72,1.72,0,0,0,.32,0,2.3,2.3,0,0,0,2.27-2,2.36,2.36,0,0,0-.44-1.71M251,25.25a2.07,2.07,0,0,1-1.26-.64,2.1,2.1,0,0,1-.59-1.8,2.17,2.17,0,0,1,.83-1.43,2.13,2.13,0,0,1,1.31-.44h.13a.47.47,0,0,0,.17,0,2.09,2.09,0,0,1,1.43.84,2.25,2.25,0,0,1,.42,1.6,2.18,2.18,0,0,1-2.15,1.88,1,1,0,0,1-.29,0"/><path class="cls-2" d="M76.25,35.27a25.55,25.55,0,0,1-5.11-8.14c-.76-1.88-1.46-3.78-2.27-5.63a6.23,6.23,0,0,0-4.19-3.6A6.5,6.5,0,0,0,58.56,19a24.17,24.17,0,0,0-5.33,5.9c-.22.37-.47.69-.79,1.18a0,0,0,0,0,0,0,1,1,0,0,0,0-.12c-.12-.5-.19-.84-.25-1.19-.42-2.66-.86-5.35-1.23-8-.44-2.89-.79-5.78-1.23-8.66a9.88,9.88,0,0,0-2.37-5.48C45.61.85,44.1.63,42,2A4.33,4.33,0,0,0,40.77,3.2c-.51.69-1,1.48-1.43,2.24A23.93,23.93,0,0,0,36.7,14c-.54,3.35-.89,6.73-1.65,10a50,50,0,0,1-2.44,8.58A11.19,11.19,0,0,1,30.49,36a4.26,4.26,0,0,1-2.42,1.4c-1.14.2-2.3.28-3.43.4a2.56,2.56,0,0,0-.79.12.76.76,0,0,0-.3.5c0,.1.18.29.3.34a2.11,2.11,0,0,0,.61.1c1.16.05,2.35.17,3.53.15q16.62-.08,33.23-.17c3.61,0,7.23-.1,10.86-.13.91-.39,1.06-1,.32-1.45H70.13c-4.27,0-8.54-.05-12.78,0-.34,0-11.54.27-14.56,0C50.1,33.15,52,28.8,52,28.8l.51-.66.47-.62.08-.12a1,1,0,0,0,.17-.27.5.5,0,0,1,.08-.12,24.32,24.32,0,0,1,4.26-5.51c.67-.61,1.41-1.16,2.12-1.73A4.9,4.9,0,0,1,64,19a5,5,0,0,1,3.73,3.16c.69,1.6,1.33,3.21,1.87,4.89a25.57,25.57,0,0,0,4.25,7.84l.88,1c.23-.07.42-.17.65-.24s.56-.23.86-.35ZM51.33,27.69a3.05,3.05,0,0,1-.44,1,26.19,26.19,0,0,1-7.06,6.78,14.55,14.55,0,0,1-4.47,1.85,2.44,2.44,0,0,1-.71.1l-7,.15c-.15,0-.32,0-.57,0a1.34,1.34,0,0,1,.07-.22,14.38,14.38,0,0,0,3.6-6.46A89.72,89.72,0,0,0,37.54,18c.35-2.56.77-5.11,1.28-7.6a17.89,17.89,0,0,1,2.94-6.41,3.61,3.61,0,0,1,2.66-1.48,1.61,1.61,0,0,1,1.16.47,7.05,7.05,0,0,1,2.47,4.46c.35,1.9.52,3.82.81,5.73.47,3.23,1,6.46,1.46,9.71l.24,1.22.42,2Z"/><path class="cls-2" d="M76.25,35.27c.48.54-.32,1.55-.32,1.55-.17,0-1.38-.34-12.36-2.88-5.72-1.34-9.12-3.7-11-5.8A10.82,10.82,0,0,1,51,26.09L50.57,24h.25l.62,0v0a7.48,7.48,0,0,0,1,2,.14.14,0,0,1,.05.1c.22.32.49.64.79,1,1.68,1.92,4.81,4.26,10.61,5.6,4.46,1,7.74,1.7,10,2.12.93.2,2.35.4,2.36.42"/><path class="cls-1" d="M230.33,67.85a.26.26,0,0,0,.18.17c.74,0,1.65-.13,2.09-.18.64-.08,3-.3,3-.3a22.64,22.64,0,0,1-1.27-4.63c0-.26-.46.17-1,0a14,14,0,0,0,1,3.74,13,13,0,0,0-3.39.62c-.28.1-.7.17-.55.57"/><path class="cls-1" d="M238.09,67.85a.74.74,0,0,1-.16-.39c0-.17,1.71-.49,2.65-1.3a.92.92,0,0,0,.32-.68c0-.48.1-1,.16-1.43,0-.15,0-.37.25-.36s.23.05.22.19c0,.87-.06,1.47-.08,2.34,0,.2.15.71,0,.81s-3.28.86-3.33.82"/><path class="cls-1" d="M241.37,66.61a1.48,1.48,0,0,0-1.7-1.55c-1.11.06-3.48,2.75-3.48,2.75l1.9,0,2.26-.93Z"/><path class="cls-1" d="M235.6,67.54s-.51-1.26-.66-1.26a17.59,17.59,0,0,0-3.92.27c-.91.34-2.49,1.24-2.38,1.43a11.26,11.26,0,0,0,2.53,0c.15,0,4.43-.44,4.43-.44"/></g></g></svg>