<svg id="a4ad52c1-1039-4697-9259-a39db846ceff" data-name="Capa 1" xmlns="http://www.w3.org/2000/svg" viewBox="0 0 261.44094 91.71633">
    <title>logo</title>
    <path d="M243.81055,76.06724v.0848c0,4.34177-3.05247,8.03763-7.64611,8.03763-4.56123,0-7.69847-3.78066-7.69847-8.12243v-.08479c0-4.34177,3.05-8.04013,7.60619-8.04013a7.82135,7.82135,0,0,1,7.73839,8.12492m9.696-67.22888C251.1973,6.49665,240.09971-.04219,235.82278.00021c-4.27692.04489-9.86811,3.56369-13.37943,5.07994-3.50884,1.51626-4.0101,1.4988-4.0101,1.4988-1.7756.44391-1.09231.65588-2.52376,1.99258-1.424,1.3342-2.63848,1.8579-6.13235,2.93275-3.49636,1.07734-6.33933,1.48383-7.18225,2.20954s-.34664.995-.74815,1.73571c-.404.74067-.58107.35662-1.0499,1.222s.06982,3.52379-.29927,5.14728c-.37159,1.621-.90775.78556-1.15215,2.3492-.23941,1.56364,1.58858,3.32429,1.828,5.469.2419,2.1472-.2444,3.51382-.26436,5.96527s1.823,9.24466,1.16214,13.938c-.66338,4.6934-4.843,1.84793-6.57625,1.03245-1.73073-.8105-5.07746.29427-5.07746.29427l.22944,1.74319s.58107-.419,3.04-.58854,4.98768,2.98762,8.54637,2.04994c2.53625-.66835,4.30687-4.69341,4.41161-7.70846.08229-2.46391.42893-8.97781.44139-9.35438.01249-.37907.70577-.419.70577-.419s.51124,1.65341.96263,1.2918c.45387-.3616,1.10226-2.85544,1.43145-3.28438s2.9552-1.78559,4.38167-3.05994c1.424-1.27185,1.58857-2.33424,2.34421-2.37164s3.57367,2.06989,4.5737,2.35667c.995.2868,1.44394.04739,1.68335.43393.23691.38655,5.01509,17.08528,5.06747,17.402.04987.31423,1.6584,3.01255,2.12973,3.90785.41647.788-1.72074,6.80069-1.97512,8.99028a15.42921,15.42921,0,0,0-8.479,13.81087v.0848c0,8.63865,6.8755,15.564,16.16,15.564,9.287,0,16.24985-7.01018,16.24985-15.64884v-.08479a15.266,15.266,0,0,0-7.31442-13.12257c.95764-.53368.41148-1.11724-.94267-1.98011-1.35166-.86287-.87533-7.42914-.12719-9.03767.74317-1.611,5.04005-15.11265,6.31939-15.8209,1.28183-.71324,1.69332-1.70579,3.75073-3.01754,2.05491-1.31426,3.32678-3.53377,3.4365-3.02752.10474.50624-.92021,6.696-.6409,9.53393.28429,2.84049,3.16965,10.42175,3.16965,10.42175s-1.56363-7.66106-1.89781-10.75592c-.33665-3.08986,1.10976-6.81565,3.04249-13.66623,1.92774-6.85056-5.3019-14.32959-7.61118-16.67131" style="fill:#ff393f"/>
    <path d="M20.11779,46.37661l-3.34923-8.55386L13.372,46.37661ZM12.81334,27.93717h8.03514L33.66431,58.24229H24.71892l-2.19209-5.37422H10.92052l-2.1472,5.37422H0Z" style="fill:#fff"/>
    <polygon points="37.443 28.153 45.228 28.153 57.603 44.059 57.603 28.153 65.858 28.153 65.858 58.241 58.551 58.241 45.695 41.734 45.695 58.241 37.443 58.241 37.443 28.153" style="fill:#fff"/>
    <rect x="72.21531" y="28.15339" width="8.38677" height="30.08815" style="fill:#fff"/>
    <polygon points="86.963 28.153 95.776 28.153 102.956 39.799 110.136 28.153 118.949 28.153 118.949 58.241 110.65 58.241 110.65 40.959 102.956 52.74 102.784 52.74 95.133 41.046 95.133 58.241 86.963 58.241 86.963 28.153" style="fill:#fff"/>
    <path d="M142.85027,46.37661l-3.35173-8.55386-3.39909,8.55386Zm-7.30944-18.43944H143.581l12.81085,30.30512h-8.94292l-2.19208-5.37422H133.648l-2.1447,5.37422H122.73Z" style="fill:#fff"/>
    <polygon points="160.169 28.153 168.511 28.153 168.511 50.934 183.082 50.934 183.082 58.241 160.169 58.241 160.169 28.153" style="fill:#fff"/>
    <path d="M49.54308,75.98171c2.96518,0,4.76573-1.54868,4.76573-3.91284v-.08479c0-2.58112-1.80055-3.95522-4.81062-3.95522H45.58536v7.95285ZM37.24846,61.02117H50.14409c7.60871,0,12.5091,3.91283,12.5091,10.57886v.0823c0,7.09248-5.46151,10.83323-12.94053,10.83323h-4.1273v8.59626h-8.3369Z" style="fill:#fff"/>
    <path d="M89.90859,76.15228V76.0675a7.82386,7.82386,0,0,0-7.74336-8.12493c-4.55624,0-7.60622,3.69836-7.60622,8.04013v.0848c0,4.34177,3.13975,8.12243,7.696,8.12243,4.60114,0,7.65359-3.69587,7.65359-8.03765m-23.90343,0V76.0675c0-8.64115,6.96529-15.64884,16.24984-15.64884,9.28207,0,16.16506,6.9229,16.16506,15.564v.0848c0,8.63865-6.96529,15.64883-16.25483,15.64883-9.28456,0-16.16007-6.92539-16.16007-15.564" style="fill:#fff"/>
    <polygon points="102.292 61.021 110.634 61.021 110.634 83.805 125.208 83.805 125.208 91.112 102.292 91.112 102.292 61.021" style="fill:#fff"/>
    <rect x="129.808" y="61.02217" width="8.38677" height="30.09065" style="fill:#fff"/>
    <polygon points="151.905 68.33 142.882 68.33 142.882 61.02 169.272 61.02 169.272 68.33 160.245 68.33 160.245 91.113 151.905 91.113 151.905 68.33" style="fill:#fff"/>
    <rect x="173.95393" y="61.02217" width="8.38428" height="30.09065" style="fill:#fff"/>
    <path d="M187.66952,76.15228V76.0675a15.458,15.458,0,0,1,15.86079-15.64884c6.14732,0,10.10255,2.58112,12.76846,6.277l-6.27948,4.858c-1.71328-2.14969-3.69587-3.52629-6.57625-3.52629-4.20961,0-7.17726,3.57118-7.17726,7.95534v.0848c0,4.51135,2.96765,8.03763,7.17726,8.03763,3.13725,0,4.99017-1.46139,6.79072-3.651l6.27948,4.46647a15.83986,15.83986,0,0,1-28.84372-8.76834" style="fill:#fff"/>
</svg>
