<svg xmlns="http://www.w3.org/2000/svg" viewBox="0 0 92.61 167.91"><defs><style>.cls-1{fill:#f04d56;}</style></defs><g id="Layer_2" data-name="Layer 2"><g id="Capa_1" data-name="Capa 1"><path class="cls-1" d="M49.54,50.42c5.72,1.18,10.87-.36,16-1a21.63,21.63,0,0,1,11.2,1.21c7,3,8.8,10.47,3.37,15.85a17.13,17.13,0,0,1-7.44,4.12c-4.35,1.16-8.93,1.49-13.4,2.22-3.55.58-7.08,1.25-10.93,1.94,0,3.86-.19,7.29,0,10.69.88,13.4,2.09,26.79,2.78,40.21.62,11.78,1.11,23.63-2.9,35.05a15.37,15.37,0,0,1-2,4.44,6.57,6.57,0,0,1-11.5-1.59,42.79,42.79,0,0,1-2.53-12.71c-1.39-22.65-2.51-45.32-3.74-68-.05-1-.23-2.1-.37-3.31-4.9,0-9.6-.44-14.18.09C4.34,80.82-1.9,74.09.52,64.69a8.73,8.73,0,0,1,6.21-6.35c4.67-1.43,9.42-2.58,14.16-3.81,1.92-.5,3.87-.9,6-1.4a29.08,29.08,0,0,0,.46-3.74c-.15-10,2.32-19.42,5.5-28.74,3-8.7,8.95-14.14,17.44-17.47C61.17-1.08,72-.84,82.83,2.59A21.32,21.32,0,0,1,89.57,6c4.63,3.68,3.9,9.22-1.72,10.93-4.79,1.46-9.95,1.75-15,2.42-3.76.51-7.6.53-11.29,1.31a7,7,0,0,0-4.06,3.18C53,32,50.84,40.94,49.54,50.42Z"/></g></g></svg>