<?xml version="1.0" encoding="utf-8"?>
<!-- Generator: Adobe Illustrator 24.1.0, SVG Export Plug-In . SVG Version: 6.00 Build 0)  -->
<svg version="1.1" id="Layer_1" xmlns="http://www.w3.org/2000/svg" xmlns:xlink="http://www.w3.org/1999/xlink" x="0px" y="0px"
	 viewBox="0 0 94.3 34.1" style="enable-background:new 0 0 94.3 34.1;" xml:space="preserve">
<style type="text/css">
	.st0{fill:#FFFFFF;}
</style>
<g id="Layer_2_1_">
	<g id="Layer_1-2">
		<g>
			<polygon class="st0" points="5.2,17.5 1.6,17.5 1.6,19.4 4.6,19.4 4.6,20.9 1.6,20.9 1.6,23.9 0,23.9 0,16 5.2,16 			"/>
		</g>
		<g>
			<path class="st0" d="M9.4,17.9c0.2,0,0.4,0,0.6,0.1v1.4H9.5c-0.4,0-0.8,0.1-1.1,0.4C8,20.1,7.9,20.5,7.9,21v3H6.3v-6h1.5v0.7
				c0.2-0.2,0.4-0.4,0.7-0.6C8.8,18,9.1,17.9,9.4,17.9"/>
		</g>
		<g>
			<path class="st0" d="M13.6,17.8c0.4,0,0.8,0.1,1.1,0.2c0.3,0.1,0.6,0.3,0.9,0.6c0.3,0.2,0.4,0.5,0.6,0.9c0.1,0.3,0.2,0.7,0.2,1.1
				c0,0.2,0,0.3,0,0.5c0,0.2,0,0.3-0.1,0.4h-4.2c0.1,0.4,0.3,0.7,0.6,0.9c0.3,0.2,0.7,0.3,1.1,0.3c0.3,0,0.6,0,0.9-0.2
				c0.3-0.1,0.5-0.3,0.8-0.4l0.7,1.1c-0.3,0.3-0.7,0.5-1.1,0.6c-0.4,0.2-0.8,0.2-1.3,0.2c-0.4,0-0.9-0.1-1.3-0.2
				c-0.4-0.2-0.7-0.4-1-0.7c-0.6-0.6-0.9-1.4-0.9-2.2c0-0.8,0.3-1.6,0.9-2.2c0.3-0.3,0.6-0.5,1-0.7C12.8,17.9,13.2,17.8,13.6,17.8
				 M13.6,19.1c-0.3,0-0.7,0.1-0.9,0.3c-0.3,0.2-0.5,0.5-0.5,0.9h2.7c0-0.3-0.1-0.7-0.4-0.9C14.3,19.3,13.9,19.1,13.6,19.1"/>
		</g>
		<g>
			<path class="st0" d="M20.9,17.8c0.3,0,0.6,0.1,0.9,0.2c0.3,0.1,0.5,0.3,0.7,0.5c0.2,0.2,0.3,0.5,0.4,0.8c0.1,0.3,0.2,0.7,0.1,1
				v3.7h-1.6v-3.5c0-0.3-0.1-0.6-0.3-0.8c-0.2-0.2-0.5-0.3-0.8-0.3c-0.3,0-0.6,0.1-0.8,0.3c-0.2,0.2-0.3,0.5-0.3,0.8v3.5h-1.6V18
				h1.5v0.5c0.2-0.2,0.5-0.4,0.8-0.5C20.2,17.9,20.6,17.9,20.9,17.8"/>
		</g>
		<g>
			<path class="st0" d="M27.2,17.8c0.4,0,0.8,0.1,1.1,0.2c0.3,0.1,0.6,0.4,0.8,0.6V18h1.5v5.9h-1.5v-0.7c-0.2,0.3-0.5,0.5-0.8,0.6
				c-0.3,0.1-0.7,0.2-1.1,0.2c-0.4,0-0.8-0.1-1.1-0.2c-0.3-0.2-0.7-0.4-0.9-0.6c-0.3-0.3-0.5-0.6-0.6-1c-0.3-0.8-0.3-1.7,0-2.5
				c0.1-0.4,0.3-0.7,0.6-1c0.3-0.3,0.6-0.5,0.9-0.6C26.4,17.9,26.8,17.8,27.2,17.8 M27.5,19.3c-0.2,0-0.4,0-0.6,0.1
				c-0.2,0.1-0.4,0.2-0.5,0.3c-0.1,0.1-0.3,0.3-0.3,0.5c-0.2,0.4-0.2,0.9,0,1.4c0.1,0.2,0.2,0.4,0.3,0.5c0.1,0.1,0.3,0.3,0.5,0.3
				c0.2,0.1,0.4,0.1,0.6,0.1c0.2,0,0.4,0,0.5-0.1c0.2-0.1,0.3-0.2,0.5-0.3c0.2-0.1,0.3-0.3,0.4-0.5C29,21.5,29,21.2,29,21
				c0-0.3,0-0.5-0.1-0.7c-0.1-0.2-0.2-0.4-0.4-0.5c-0.1-0.1-0.3-0.2-0.5-0.3C27.9,19.4,27.7,19.3,27.5,19.3"/>
		</g>
		<g>
			<rect x="34.9" y="14.9" class="st0" width="1.6" height="9"/>
		</g>
		<g>
			<path class="st0" d="M40.7,17.8c0.4,0,0.8,0.1,1.1,0.2c0.3,0.1,0.6,0.4,0.8,0.6V18h1.5v5.9h-1.5v-0.7c-0.2,0.3-0.5,0.5-0.8,0.6
				c-0.3,0.1-0.7,0.2-1.1,0.2c-0.8,0-1.5-0.3-2.1-0.9c-0.3-0.3-0.5-0.6-0.6-1c-0.3-0.8-0.3-1.7,0-2.5c0.1-0.4,0.3-0.7,0.6-1
				c0.3-0.3,0.6-0.5,0.9-0.6C39.9,17.9,40.3,17.8,40.7,17.8 M41,19.3c-0.2,0-0.4,0-0.6,0.1c-0.2,0.1-0.4,0.2-0.5,0.3
				c-0.1,0.1-0.3,0.3-0.3,0.5c-0.2,0.4-0.2,0.9,0,1.4c0.1,0.2,0.2,0.4,0.3,0.5c0.1,0.1,0.3,0.3,0.5,0.3c0.2,0.1,0.4,0.1,0.6,0.1
				c0.2,0,0.4,0,0.5-0.1c0.2-0.1,0.3-0.2,0.5-0.3c0.2-0.1,0.3-0.3,0.3-0.5c0.1-0.2,0.1-0.5,0.1-0.7c0-0.3,0-0.5-0.1-0.7
				c-0.1-0.2-0.2-0.4-0.4-0.5c-0.1-0.1-0.3-0.2-0.5-0.3C41.3,19.3,41.2,19.3,41,19.3"/>
		</g>
		<g>
			<path class="st0" d="M51.9,17.8c0.5,0,1.1,0.1,1.5,0.4c0.4,0.3,0.8,0.6,1,1.1l-1.1,0.9c-0.2-0.2-0.4-0.5-0.6-0.6
				c-0.2-0.2-0.5-0.2-0.8-0.2c-0.2,0-0.4,0-0.6,0.1c-0.2,0.1-0.4,0.2-0.5,0.3c-0.4,0.5-0.5,1.2-0.3,1.8c0.1,0.2,0.2,0.4,0.3,0.5
				c0.1,0.1,0.3,0.3,0.5,0.3c0.2,0.1,0.4,0.1,0.6,0.1c0.3,0,0.6-0.1,0.8-0.2c0.2-0.2,0.4-0.4,0.6-0.6l1.1,0.9
				c-0.2,0.4-0.6,0.8-1,1.1c-0.5,0.3-1,0.4-1.5,0.4c-0.4,0-0.9-0.1-1.3-0.2c-0.4-0.2-0.7-0.4-1-0.7c-0.3-0.3-0.5-0.6-0.7-1
				c-0.2-0.4-0.3-0.8-0.2-1.2c0-0.4,0.1-0.8,0.3-1.2c0.2-0.4,0.4-0.7,0.7-1C50.3,18.1,51.1,17.8,51.9,17.8"/>
		</g>
		<g>
			<path class="st0" d="M61.1,21.3c0,0.4-0.1,0.8-0.2,1.1c-0.1,0.3-0.3,0.6-0.6,0.9c-0.2,0.2-0.5,0.4-0.9,0.5
				c-0.3,0.1-0.7,0.2-1.1,0.2c-0.4,0-0.7-0.1-1.1-0.2c-0.3-0.1-0.6-0.3-0.9-0.5c-0.2-0.2-0.4-0.5-0.6-0.9c-0.1-0.4-0.2-0.8-0.2-1.1
				V18h1.6v3.5c0,0.3,0.1,0.6,0.3,0.8c0.4,0.4,1.1,0.4,1.6,0c0.2-0.2,0.3-0.5,0.3-0.8V18h1.6L61.1,21.3z"/>
		</g>
		<g>
			<path class="st0" d="M65.8,17.9c0.2,0,0.4,0,0.5,0.1v1.4h-0.4c-0.4,0-0.8,0.1-1.1,0.4c-0.3,0.3-0.5,0.8-0.4,1.2v3h-1.6v-6h1.5
				v0.7c0.2-0.2,0.4-0.4,0.7-0.6C65.1,18,65.5,17.9,65.8,17.9"/>
		</g>
		<g>
			<polygon class="st0" points="70.1,24 69.6,24 66.7,18 68.4,18 69.9,21.3 71.4,18 73.1,18 			"/>
		</g>
		<g>
			<path class="st0" d="M76.3,17.8c0.4,0,0.8,0.1,1.1,0.2c0.3,0.1,0.6,0.4,0.8,0.6V18h1.5v5.9h-1.5v-0.7c-0.2,0.3-0.5,0.5-0.8,0.6
				c-0.7,0.3-1.5,0.3-2.2,0c-0.3-0.2-0.7-0.4-0.9-0.6c-0.3-0.3-0.5-0.6-0.6-1c-0.3-0.8-0.3-1.7,0-2.5c0.1-0.4,0.3-0.7,0.6-1
				c0.3-0.3,0.6-0.5,0.9-0.6C75.5,17.9,75.9,17.8,76.3,17.8 M76.6,19.3c-0.2,0-0.4,0-0.6,0.1c-0.2,0.1-0.3,0.2-0.5,0.3
				c-0.1,0.1-0.3,0.3-0.3,0.5c-0.2,0.4-0.2,0.9,0,1.4c0.1,0.2,0.2,0.4,0.3,0.5c0.1,0.1,0.3,0.3,0.5,0.3c0.2,0.1,0.4,0.1,0.6,0.1
				c0.2,0,0.4,0,0.6-0.1c0.2-0.1,0.3-0.2,0.5-0.3c0.2-0.1,0.3-0.3,0.3-0.5c0.1-0.2,0.1-0.5,0.1-0.7c0-0.3,0-0.5-0.1-0.7
				c-0.1-0.2-0.2-0.4-0.3-0.5c-0.1-0.1-0.3-0.2-0.5-0.3C77,19.3,76.8,19.3,76.6,19.3"/>
		</g>
		<g>
			<path class="st0" d="M83.6,3.6L83.6,3.6h-0.2c0.1-0.2,0.2-0.3,0.4-0.4C83.9,3.4,83.7,3.5,83.6,3.6"/>
		</g>
		<g>
			<path class="st0" d="M82.4,3.6c0.2-0.1,0.3-0.1,0.5,0.1c0,0,0,0.1,0,0.1s-0.1,0.1-0.1,0.1S82.5,3.7,82.4,3.6"/>
		</g>
		<g>
			<path class="st0" d="M83.9,3.9C83.9,4,83.8,4,83.7,4l0,0c-0.1,0-0.2-0.1-0.2-0.2c0,0,0,0,0,0c0-0.1,0.1-0.2,0.2-0.2l0,0
				C83.8,3.7,83.9,3.8,83.9,3.9C83.9,3.9,83.9,3.9,83.9,3.9"/>
		</g>
		<g>
			<path class="st0" d="M82.8,4.1c0,0.1-0.1,0.2-0.2,0.2c-0.1,0-0.2-0.1-0.2-0.2c0-0.1,0.1-0.2,0.2-0.2C82.7,3.9,82.8,4,82.8,4.1"/>
		</g>
		<g>
			<path class="st0" d="M89.8,22.8c-0.1,0.2-0.1,0.3-0.2,0.5c-0.2,0.9-0.3,1.8-0.4,2.8c0,0.2,0,0.5,0,0.7h0.1c0-0.1,0-0.3,0-0.4
				c0.1-0.9,0.2-1.7,0.4-2.5c0.1-0.3,0.2-0.6,0.3-0.9C90,22.9,89.8,22.8,89.8,22.8"/>
		</g>
		<g>
			<path class="st0" d="M89.4,26.8h-0.2l0,0c0-0.1,0-0.1,0-0.2c0-0.2,0-0.3,0-0.5c0-0.9,0.2-1.8,0.4-2.8c0-0.2,0.1-0.3,0.2-0.5l0,0
				l0,0c0.1,0,0.1,0,0.2,0h0.1h0.1v0.1c0,0.1-0.1,0.3-0.1,0.4c-0.1,0.2-0.1,0.4-0.2,0.5l-0.2,0.7c-0.2,0.6-0.3,1.2-0.3,1.8
				c0,0.1,0,0.2,0,0.3L89.4,26.8L89.4,26.8z M89.8,22.9c-0.1,0.1-0.1,0.3-0.1,0.5c-0.2,0.9-0.3,1.8-0.4,2.7c0,0.1,0,0.3,0,0.5
				c0,0,0-0.1,0-0.1c0-0.6,0.1-1.2,0.3-1.8l0.2-0.7c0-0.2,0.1-0.4,0.2-0.5S90,23,90,22.9h-0.1L89.8,22.9"/>
		</g>
		<g>
			<path class="st0" d="M88.5,22.3c0,0.2,0,0.3-0.1,0.5c0,0.9,0,1.9,0.1,2.8c0,0.2,0.1,0.5,0.2,0.7h0.1c0-0.1,0-0.3,0-0.4
				c-0.1-0.9-0.1-1.7,0-2.6c0-0.3,0.1-0.6,0.1-1C88.8,22.2,88.6,22.2,88.5,22.3"/>
		</g>
		<g>
			<path class="st0" d="M88.6,26.3L88.6,26.3c0-0.1,0-0.1,0-0.2c0-0.2-0.1-0.3-0.1-0.5c-0.1-0.9-0.1-1.8-0.1-2.8
				c0-0.2,0-0.3,0.1-0.5l0,0l0,0c0,0,0.1,0,0.2,0h0.2v0.1c0,0.1,0,0.3,0,0.4c0,0.2-0.1,0.4-0.1,0.6c0,0.2,0,0.5,0,0.7
				c-0.1,0.6-0.1,1.2,0,1.8c0,0.1,0,0.2,0,0.3c0,0,0,0.1,0,0.1l0,0L88.6,26.3z M88.5,22.3c0,0.2,0,0.3,0,0.5c0,0.9,0,1.8,0.1,2.8
				c0,0.2,0.1,0.3,0.1,0.5c0,0,0-0.1,0-0.1c-0.1-0.6-0.1-1.2,0-1.9c0-0.2,0-0.5,0-0.7c0-0.2,0-0.4,0.1-0.6c0-0.1,0-0.2,0-0.3
				L88.5,22.3"/>
		</g>
		<g>
			<path class="st0" d="M84.6,10.7c-0.3,0.4-0.7,0.8-1.1,1.2c-1,1-2.1,2-3.2,2.9l-0.5,0.4l-0.3,0.2l-0.1,0.1l-0.2,0.1h0.4l0,0
				c0.1,0,0.3-0.1,0.4-0.2l1.2-0.9c1.2-0.9,2.2-1.9,3.2-3c0.6-0.7,1.2-1.5,1.6-2.4C86,8.8,86.1,8.6,86,8.3l0,0h0
				c-0.2,0-0.2,0.1-0.3,0.2C85.5,9.3,85.1,10.1,84.6,10.7"/>
		</g>
		<g>
			<path class="st0" d="M77.4,13.7l0.3-0.2c0.2-0.1,0.5-0.3,0.7-0.5c1.3-1.1,2.5-2.3,3.6-3.6c0.3-0.3,0.5-0.7,0.7-1l0.2-0.2l0,0
				C83,8,83.1,7.8,83,7.7V7.6v0.1l-0.1,0.1c0,0-0.1,0.1-0.1,0.1l-0.5,0.6c-0.3,0.4-0.7,0.8-1,1.2c-1.1,1.2-2.3,2.3-3.5,3.3
				c-0.1,0.1-0.2,0.2-0.4,0.3l-0.2,0.2l0,0L77.4,13.7L77.4,13.7z"/>
		</g>
		<g>
			<path class="st0" d="M82,11.6c0.8-0.8,1.4-1.6,2-2.6c0,0,0-0.1,0-0.1V8.8l0,0l-0.1-0.1l0,0l-0.5,0.6c-0.4,0.4-0.8,0.9-1.2,1.4
				c-0.5,0.7-1.1,1.3-1.8,1.9c-0.4,0.4-0.9,0.8-1.3,1.2l-0.6,0.5l0,0l0,0c0.1,0.1,0.1,0.1,0.2,0.1c0.1,0,0.1,0,0.2-0.1l0,0
				c0.1-0.1,0.2-0.1,0.3-0.2l0.3-0.2C80.4,13.2,81.2,12.4,82,11.6"/>
		</g>
		<g>
			<path class="st0" d="M76.8,16c0.1-0.2,0.3-0.4,0.5-0.5c0.2-0.1,0.3-0.3,0.5-0.4l0.1-0.1l0.2-0.2l0,0c-0.7,0.2-1.3,0.7-1.5,1.5
				l0,0L76.8,16L76.8,16"/>
		</g>
		<g>
			<path class="st0" d="M78.9,15.4L78.9,15.4c0,0-0.1,0-0.1,0.1c0,0-0.1,0-0.1,0.1c-0.1,0.1-0.2,0.1-0.3,0.2
				c-0.1,0.1-0.2,0.1-0.2,0.2l-0.5,0.3l-0.3,0.2l0,0C78,16.4,78.5,16,78.9,15.4"/>
		</g>
		<g>
			<path class="st0" d="M78.2,15.7L78.2,15.7c-0.4,0.1-0.8,0.4-1.2,0.7l0,0h0.2h-0.1l0,0l0.2,0l0,0C77.6,16.2,77.9,16,78.2,15.7
				L78.2,15.7L78.2,15.7z"/>
		</g>
		<g>
			<path class="st0" d="M77.7,15.5c-0.3,0.1-0.6,0.3-0.8,0.6l0,0C77.2,16.1,77.5,15.8,77.7,15.5L77.7,15.5L77.7,15.5z"/>
		</g>
		<g>
			<path class="st0" d="M77,15c-0.1,0-0.1,0.1-0.1,0.3l0,0l0.4-0.4C77.2,14.9,77.1,14.9,77,15"/>
		</g>
		<g>
			<path class="st0" d="M85.9,11.6v0.2c-0.1,0.4-0.2,0.8-0.4,1.2c0,0-0.1,0.1-0.1,0.1l0,0h-0.1c-0.1,0-0.2,0-0.2,0
				c-0.1,0-0.2,0-0.4,0h-1.3c-0.1,0-0.2,0-0.2,0.1v0.1l0,0c0,0.1,0.1,0.1,0.1,0.1h0.9c0.4,0,0.8,0,1.2,0.1c0.1,0.1,0.1,0.2,0.2,0.3
				c0.2,0.4,0.3,0.9,0.4,1.3c0,0.1,0.1,0.6,0.2,0.7c0.1,0,0.2-0.1,0.2-0.1c0-0.2,0-0.3,0-0.5c-0.1-0.2-0.1-0.5-0.2-0.7
				c-0.1-0.3-0.2-0.6-0.3-0.8c0-0.1,0-0.1-0.1-0.2c0,0,0-0.1-0.1-0.1l0,0l0.2-0.2l0.1-0.2c0.2-0.5,0.3-1,0.2-1.5
				c0-0.5,0.1-0.9,0.2-1.4c0-0.1,0.1-0.2,0.1-0.3c0,0,0-0.1,0-0.1c0,0-0.1,0-0.1,0c-0.1,0-0.1,0.1-0.2,0.1c-0.2,0.4-0.2,0.8-0.2,1.2
				c0,0.2,0,0.4-0.1,0.5"/>
		</g>
		<g>
			<path class="st0" d="M87.2,20.6c0-0.4-0.1-0.9-0.2-1.4h-0.1h-0.2h-0.1c0.3,1.8,0.4,3.7,0.4,5.6c0,0.1,0,0.1,0,0.2v0.1
				c-0.2,0.1-0.4,0.1-0.6,0.1l0,0h-0.5c0-0.4-0.2-2.3-0.2-3.5v-0.6c-0.1-1-0.3-2-0.5-3c-0.1-0.4-0.2-0.8-0.2-1.1
				c-0.1-0.6-0.3-1.2-0.6-1.7c0,0,0-0.1,0-0.1c-0.1-0.2-0.2-0.3-0.3-0.4l-0.1-0.1c-0.2-0.1-0.4-0.2-0.6-0.1c-0.5,0.2-0.9,0.6-1.3,1
				c-0.1,0.1-0.9,1-1.6,1.7L79.8,18l0,0l0,0l0,0L79.8,18l-0.1,0.1l-0.3,0.4l-0.1,0.1c0,0-0.3,0.4-0.4,0.5s-0.3,0.4-0.5,0.5l-0.3,0.3
				c-0.1,0.1,0.3-0.8,0.2-0.7S78,20,78.1,19.9c0.8-0.9,0.9,0,1,0c0.5-0.5-0.3-0.3,0.2-0.8c0,0,0.2-0.3,0.3-0.4l0,0l0.1-0.1l0,0
				c0.1-0.1,0.3-0.3,0.5-0.5l0,0l0,0c0.9-0.9,2.5-2.5,2.8-2.9c0.2-0.2,0.4-0.2,0.6-0.2c0.2,0,0.3,0.1,0.4,0.2l0.1,0.1l0,0l0.1,0.2
				c0.2,0.3,0.3,0.6,0.3,1c0.1,0.5,0.3,1.4,0.4,2c0.3,2.1,0.6,4.2,0.7,6.3l0,0c0,0.1,0,0.2,0,0.3v0.4c0.3,0,0.6,0,0.9,0l0,0
				c0.3,0,0.7-0.1,1-0.2c0,0,0-2.9-0.1-4.7"/>
		</g>
		<g>
			<path class="st0" d="M85.9,4c0,0,0.1-0.1,0.1-0.1c0.1-0.3,0.3-0.6,0.5-0.8c0.2-0.2,0.2-0.6,0.1-0.8c-0.1-0.2-0.2-0.4-0.4-0.5
				c-0.4-0.2-0.8-0.6-1-1L85,0.6c-0.5-0.6-1.2-0.7-1.9-0.5c-0.3,0.1-0.5,0.4-0.6,0.7c0,0.3-0.2,0.5-0.4,0.6
				c-0.1,0.1-0.2,0.1-0.3,0.2c-0.2,0.1-0.3,0.3-0.4,0.5c-0.1,0.3,0,0.5,0.2,0.7c0.1,0,0.1,0,0.2,0h0.3c0,0.1,0,0.1,0,0.2
				C82.1,3.3,82,3.7,82,4c0,0.7,0.2,1.4,0.7,1.9c0.5,0.6,1.4,0.7,2,0.3c0,0,0,0,0,0h0.1c0.1,0.2,0.1,0.3,0,0.5
				c-0.1,0.2-0.2,0.4-0.2,0.7c0,0.1,0,0.2-0.1,0.2l0.1,0.1c0.1,0,0.2-0.1,0.3-0.2c0.2-0.2,0.4-0.2,0.7-0.1c0.3,0.1,0.3,0.1,0.4-0.2
				s0.2-0.6,0.3-0.8s0.1-0.3-0.3-0.4c-0.1-0.4-0.1-0.8-0.2-1.2S85.6,4.2,85.9,4 M84.7,7.2l0.1-0.4C85,7.1,85,7.1,84.7,7.2 M85.7,6.1
				c0-0.1,0.1-0.1,0.2,0c-0.1,0.4-0.2,0.8-0.3,1.2L85.2,7L85.7,6.1 M85.7,5.8C85.7,5.8,85.7,5.9,85.7,5.8l-0.5,0.9h-0.1
				C85.1,6.4,85,6.2,85,5.9c0-0.1,0-0.1,0-0.2c0.2-0.3,0.3-0.6,0.5-1C85.6,5.1,85.6,5.5,85.7,5.8 M85.5,4c-0.2,0.1-0.3,0.3-0.3,0.5
				c-0.1,0.4-0.2,0.7-0.3,1.1c-0.1,0.3-0.3,0.5-0.6,0.6c-0.5,0.2-1,0.1-1.4-0.3c-0.2-0.2-0.3-0.3-0.4-0.6c-0.5-0.8-0.4-1.9,0.1-2.6
				c0-0.1,0.1-0.1,0.1-0.1l0.8-0.5c0.2-0.1,0.3-0.1,0.4,0c0.2,0.3,0.4,0.4,0.7,0.5h0.1c0.1,0.5-0.1,1,0,1.5C84.9,4,85,3.8,85.1,3.6
				c0-0.1,0.1-0.2,0.1-0.3c0.1-0.1,0.2-0.2,0.3-0.1c0.1,0.1,0.2,0.2,0.1,0.3C85.7,3.7,85.6,3.8,85.5,4"/>
		</g>
		<g>
			<path class="st0" d="M84.6,7.6L84.6,7.6L84.6,7.6c0-0.2,0-0.2,0-0.3l0,0c0.1-0.2,0.1-0.4,0.2-0.7c0.1-0.1,0.1-0.3,0-0.5h-0.1
				c0,0,0,0,0,0c-0.3,0.2-0.7,0.3-1.1,0.3c-0.4,0-0.7-0.2-1-0.5C82.2,5.4,81.9,4.7,82,4c0-0.3,0.1-0.7,0.2-1V2.9h-0.3
				c-0.1,0-0.1,0-0.2,0c-0.3-0.1-0.4-0.4-0.3-0.7c0.1-0.2,0.2-0.4,0.4-0.5c0.1-0.1,0.2-0.2,0.3-0.2c0.2-0.1,0.4-0.3,0.4-0.6
				c0-0.3,0.3-0.6,0.6-0.7C83.8-0.2,84.6,0,85,0.6l0.1,0.2c0.2,0.4,0.6,0.8,1,1c0.2,0.1,0.4,0.3,0.5,0.5c0.1,0.3,0.1,0.6-0.1,0.8
				c-0.2,0.2-0.4,0.5-0.5,0.8c0,0,0,0.1-0.1,0.1l0,0c-0.2,0.1-0.2,0.2-0.1,0.5c0,0,0,0.1,0,0.2c0.1,0.4,0.1,0.8,0.2,1.2
				c0.2,0,0.3,0.1,0.3,0.1c0,0.1,0,0.2,0,0.3c-0.1,0.3-0.2,0.5-0.2,0.8l0,0.1c-0.1,0.3-0.2,0.3-0.5,0.2c-0.2-0.1-0.5-0.1-0.6,0.1
				C84.8,7.5,84.7,7.6,84.6,7.6L84.6,7.6z M84.5,7.5L84.5,7.5c0.1,0,0.2-0.1,0.3-0.1c0.2-0.2,0.5-0.2,0.7-0.1
				c0.3,0.1,0.3,0.1,0.4-0.2l0-0.1c0.1-0.2,0.2-0.5,0.2-0.8c0-0.1,0.1-0.2,0-0.3c0-0.1-0.1-0.1-0.3-0.1l0,0l0,0
				c-0.1-0.3-0.1-0.8-0.2-1.2c0-0.1,0-0.1,0-0.1c-0.1-0.3-0.1-0.4,0.2-0.6c0,0,0.1-0.1,0.1-0.1c0.1-0.3,0.3-0.6,0.5-0.8
				c0.2-0.2,0.2-0.5,0.1-0.8c-0.1-0.2-0.2-0.4-0.4-0.5c-0.4-0.2-0.8-0.6-1-1L85,0.6c-0.4-0.5-1.2-0.7-1.9-0.4
				c-0.3,0.1-0.5,0.3-0.5,0.7c0,0.3-0.2,0.5-0.4,0.6c-0.1,0.1-0.2,0.1-0.3,0.2c-0.2,0.1-0.3,0.3-0.4,0.5c-0.1,0.2,0,0.5,0.2,0.6
				c0.1,0,0.1,0,0.2,0h0.4l0,0.2C82.1,3.3,82,3.7,82,4c0,0.7,0.2,1.4,0.7,1.9c0.2,0.3,0.6,0.5,0.9,0.5c0.4,0.1,0.7,0,1-0.3
				c0,0,0,0,0,0l0,0h0.1l0,0c0.1,0.2,0.1,0.4,0,0.5c-0.1,0.2-0.2,0.4-0.2,0.7C84.6,7.4,84.6,7.5,84.5,7.5z M84.7,7.3l0.2-0.5l0,0.1
				C85,7,85,7,85,7.1C85,7.1,84.9,7.2,84.7,7.3L84.7,7.3z M84.9,6.9l-0.1,0.3c0.1-0.1,0.1-0.1,0.2-0.1C84.9,7,84.9,7,84.9,6.9z
				 M85.6,7.3L85.2,7l0,0l0.5-0.9c0,0,0-0.1,0.1-0.1c0.1,0,0.2,0,0.2,0.1l0,0l0,0C85.9,6.5,85.8,6.9,85.6,7.3L85.6,7.3z M85.3,7
				l0.3,0.2c0.2-0.4,0.3-0.7,0.3-1.1C85.9,6,85.8,6,85.8,6c0,0,0,0,0,0v0l0,0L85.3,7z M85.2,6.8H85l0,0C85,6.5,84.9,6.2,84.9,6
				c0-0.1,0-0.2,0.1-0.3c0.1-0.1,0.2-0.3,0.2-0.5c0.1-0.2,0.2-0.4,0.3-0.5l0-0.1l0,0.1c0,0.2,0,0.3,0.1,0.5c0,0.2,0.1,0.5,0.1,0.7
				l0,0h-0.1c0,0,0,0,0,0.1l0,0L85.2,6.8z M85.1,6.8L85.1,6.8L85.6,6c0,0,0-0.1,0-0.1l0,0h0c0-0.2-0.1-0.4-0.1-0.7
				c0-0.1,0-0.3-0.1-0.4c-0.1,0.2-0.2,0.3-0.2,0.5c-0.1,0.2-0.2,0.3-0.2,0.5C85,5.8,84.9,5.9,84.9,6C85,6.2,85,6.5,85.1,6.8z
				 M83.8,6.3c-0.3,0-0.7-0.1-0.9-0.4c-0.2-0.2-0.3-0.3-0.4-0.6c-0.5-0.8-0.4-1.9,0.1-2.7c0-0.1,0.1-0.1,0.1-0.1l0.8-0.5
				c0.2-0.1,0.3-0.1,0.4,0c0.2,0.3,0.4,0.4,0.7,0.4h0.2l0,0c0.1,0.3,0,0.6,0,0.8c0,0.2,0,0.4,0,0.6c0.1-0.1,0.2-0.2,0.3-0.4
				c0-0.1,0.1-0.2,0.1-0.3c0.1-0.1,0.2-0.2,0.4-0.1c0.1,0.1,0.2,0.2,0.2,0.3c0,0.2-0.1,0.4-0.2,0.5l0,0c-0.2,0.1-0.3,0.3-0.3,0.5
				c-0.1,0.4-0.2,0.8-0.3,1.1c-0.1,0.3-0.3,0.5-0.6,0.6C84.1,6.3,84,6.3,83.8,6.3z M83.7,2.1c0,0-0.1,0-0.2,0.1l-0.8,0.4
				c0,0-0.1,0.1-0.1,0.1c-0.5,0.8-0.6,1.8-0.1,2.6c0.1,0.2,0.2,0.4,0.4,0.5c0.3,0.4,0.9,0.5,1.4,0.3c0.3-0.1,0.5-0.3,0.6-0.6
				c0.1-0.3,0.2-0.6,0.3-1.1c0-0.2,0.1-0.4,0.3-0.5c0.1-0.1,0.2-0.3,0.2-0.5l0,0l0,0c0-0.1,0-0.2-0.1-0.3c-0.1-0.1-0.3,0-0.3,0.1
				c-0.1,0.1-0.1,0.2-0.1,0.3c0,0.2-0.2,0.4-0.3,0.5l0,0l0,0c0-0.2,0-0.5,0-0.7c0-0.3,0-0.5,0-0.8h-0.1c-0.3,0-0.6-0.2-0.8-0.5
				C83.8,2.1,83.8,2.1,83.7,2.1z"/>
		</g>
		<g>
			<path class="st0" d="M83.2,3.6c0,0.4-0.1,0.8-0.1,1.2l0.4-0.1c0,0.1,0,0.1-0.1,0.2S83.1,5.1,82.9,5s-0.1-0.3-0.1-0.4
				S83,4.1,83,3.8C83,3.8,83.1,3.7,83.2,3.6L83.2,3.6z"/>
		</g>
		<g>
			<path class="st0" d="M84.1,5.3l-0.7,0.2c0.1-0.2,0.3-0.4,0.6-0.4C84,5.2,84.1,5.2,84.1,5.3C84.2,5.3,84.2,5.3,84.1,5.3"/>
		</g>
		<g>
			<path class="st0" d="M83.4,5.6L83.4,5.6c0.1-0.3,0.3-0.4,0.5-0.5l0,0c0,0,0.1,0,0.1,0l0,0l0,0v0.1L83.4,5.6z M84,5.2L84,5.2
				c-0.2,0-0.4,0.1-0.5,0.3l0.6-0.2l0,0l0,0L84,5.2"/>
		</g>
		<g>
			<path class="st0" d="M73.4,15.2c0-0.1,0-0.1,0-0.2c0-0.1,0.1-0.2,0.1-0.2c0.7-0.1,1.5-0.2,2.2-0.2h0.1c0.1,0.1,0.1,0.1,0.1,0.2
				c0,0.1-0.1,0.2-0.1,0.2C75,15,74.2,15.1,73.4,15.2"/>
		</g>
		<g>
			<path class="st0" d="M70.2,14.1c-0.9-1-1.6-2.1-2.1-3.3c-0.3-0.8-0.6-1.5-0.9-2.3c-0.3-0.7-0.9-1.3-1.7-1.5
				c-0.9-0.3-1.8-0.1-2.5,0.5c-0.8,0.7-1.6,1.5-2.2,2.4c-0.1,0.1-0.2,0.3-0.3,0.5l0,0c0,0,0,0,0-0.1c0-0.2-0.1-0.3-0.1-0.5
				c-0.2-1.1-0.3-2.2-0.5-3.2s-0.3-2.3-0.5-3.5c-0.1-0.8-0.4-1.6-1-2.2c-0.5-0.7-1.4-0.8-2-0.4c0,0-0.1,0.1-0.1,0.1
				c-0.2,0.1-0.4,0.3-0.5,0.5c-0.2,0.3-0.4,0.6-0.6,0.9c-0.6,1.1-0.9,2.3-1.1,3.5c-0.2,1.4-0.4,2.7-0.7,4.1c-0.2,1.2-0.6,2.4-1,3.5
				c-0.2,0.5-0.5,1-0.9,1.4c-0.3,0.3-0.6,0.5-1,0.6c-0.5,0.1-0.9,0.1-1.4,0.2c-0.1,0-0.2,0-0.3,0c-0.1,0-0.1,0.1-0.1,0.2
				c0,0.1,0.1,0.1,0.1,0.1c0.1,0,0.2,0,0.2,0c0.5,0,1,0.1,1.4,0.1l13.5-0.1l4.4-0.1c0.4-0.2,0.4-0.4,0.1-0.6h-0.9
				c-1.7,0-3.5,0-5.2,0c-0.1,0-4.7,0.1-5.9,0c3-1.7,3.7-3.4,3.7-3.4l0.2-0.3l0.2-0.2v-0.1c0,0,0.1-0.1,0.1-0.1v-0.1
				c0.5-0.8,1-1.6,1.7-2.2c0.3-0.2,0.6-0.5,0.9-0.7c0.5-0.4,1.2-0.5,1.8-0.3c0.7,0.1,1.3,0.6,1.5,1.3c0.3,0.6,0.5,1.3,0.8,2
				c0.4,1.2,1,2.3,1.8,3.3l0.4,0.4l0.3-0.1L70.2,14.1L70.2,14.1z M60.1,11.1c0,0.1-0.1,0.3-0.2,0.4c-0.8,1.1-1.7,2-2.9,2.8
				c-0.6,0.4-1.2,0.6-1.8,0.8c-0.1,0-0.2,0-0.3,0l-2.8,0.1h-0.2c0-0.1,0-0.1,0-0.1c0.7-0.7,1.2-1.6,1.5-2.6c0.5-1.7,0.9-3.5,1.1-5.3
				C54.7,6.1,54.8,5,55,4c0.2-0.9,0.6-1.8,1.2-2.6c0.3-0.3,0.6-0.6,1.1-0.6c0.2,0,0.3,0.1,0.5,0.2c0.5,0.5,0.9,1.1,1,1.8
				c0.1,0.8,0.2,1.5,0.3,2.3c0.2,1.3,0.4,2.6,0.6,3.9l0.1,0.5l0.2,0.8L60.1,11.1z"/>
		</g>
		<g>
			<path class="st0" d="M80.1,15.5c-0.7,0.7-1.7,1.7-2.3,2.3s-0.9,0-1.5,0.7c-0.2,0.3-0.3,0.3,0,0c0.7-0.7,4,0,2.2,2.1
				c0,0-1.2-1.7-1.2-1.7c0.8-0.8-0.6,0.5,0.1-0.3c0.2-0.2,0.5-0.5,0.7-0.8l1.3-1.3c0.3-0.3,0.6-0.6,0.8-0.8
				C80.2,15.7,80.1,15.6,80.1,15.5"/>
		</g>
		<g>
			<path class="st0" d="M78.4,7.2C78.4,7.2,78.4,7.2,78.4,7.2c-0.1-0.1-0.2-0.1-0.3-0.1c0-0.2-0.1-0.3-0.1-0.5l0,0c0,0,0-0.1,0-0.1
				c0-0.1,0-0.1,0-0.2V6.1c-0.1-0.2-0.1-0.3,0-0.5V5.6c0,0,0.1-0.1,0.1-0.1c0-0.1,0-0.1,0-0.2c0.1-0.3,0.2-0.5,0.4-0.7
				c0.1-0.2,0.1-0.5,0-0.7c-0.1-0.2-0.2-0.3-0.4-0.4c-0.4-0.2-1.1-0.2-1.3-0.6c-0.4,0.2-0.8,0.4-1.2,0.7l0,0l0,0l0,0h-0.1
				c-0.4,0.3-0.8,0.6-0.6,0.6s-0.3,0.5-0.2,0.5s0,0.1,0,0.1l0,0c0,0,0,0,0,0.1l0,0c-0.1,0.3-0.1,0.5-0.1,0.8c0,0.6,0.3,1.2,0.8,1.7
				c0.4,0.5,1.1,0.6,1.7,0.2c0,0,0.1,0,0.1-0.1c0.1,0.1,0.1,0.3,0.1,0.4C77.1,8.1,77,8.3,77,8.5c0,0.1,0,0.1,0,0.2l0,0
				c0.1,0,0.2-0.1,0.2-0.2c0.1-0.2,0.4-0.2,0.6-0.1c0.3,0.1,0.3,0,0.4-0.2s0.1-0.5,0.2-0.8C78.4,7.3,78.4,7.2,78.4,7.2L78.4,7.2z
				 M78,8.3l-0.4-0.1c0.2-0.3,0.3-0.6,0.4-0.9c0-0.1,0.1-0.1,0.2-0.1C78.2,7.6,78.1,8,78,8.3 M77.2,8.1c0.1,0.2,0.1,0.2-0.1,0.4
				C77.2,8.3,77.2,8.2,77.2,8.1 M75.4,7.3C75.2,7.2,75.1,7,75,6.9c-0.5-0.7-0.5-1.6-0.1-2.4c0.1-0.2,0.2-0.3,0.3-0.4
				C75.4,4,75.8,3.9,75.9,4c0.3,0.1,0.5,0.2,0.8,0.3c0,0,0.1,0,0.1,0c0.2,0.4,0,0.9,0.2,1.3c0.1-0.1,0.2-0.3,0.2-0.4
				c0-0.1,0.1-0.1,0.1-0.2c0.1-0.1,0.2-0.2,0.3-0.1c0.1,0,0.2,0.2,0.1,0.3c0,0.1-0.1,0.3-0.2,0.4c-0.2,0.1-0.2,0.3-0.2,0.5
				c0,0.3-0.1,0.7-0.2,1c-0.1,0.2-0.2,0.5-0.5,0.6C76.2,7.8,75.7,7.7,75.4,7.3 M77.2,7.3c0-0.1,0-0.1,0-0.2c0.1-0.3,0.2-0.6,0.4-0.9
				c0.1,0.4,0.2,0.7,0.2,1.1c0,0,0,0.1,0,0.1c-0.1,0.2-0.2,0.5-0.4,0.8h-0.1C77.3,7.8,77.2,7.6,77.2,7.3"/>
		</g>
		<g>
			<path class="st0" d="M77.6,4.8c-0.1,0-0.3,0-0.3,0.1c0,0,0,0,0,0c0,0.1-0.1,0.2-0.1,0.3c0,0.2-0.1,0.3-0.2,0.4c0-0.2,0-0.4,0-0.6
				c0-0.2,0-0.5-0.1-0.7h-0.1h-0.1C76.5,4.3,76.2,4.2,76,4h-0.1c-0.1-0.2-0.5,0-0.7,0.1c-0.1,0.1-0.2,0.2-0.3,0.4l0,0
				c-0.4,0.7-0.4,1.7,0.1,2.4c0.1,0.2,0.2,0.3,0.4,0.5c0.2,0.2,0.5,0.3,0.8,0.3c0.2,0,0.4,0,0.5-0.1c0.2-0.1,0.4-0.3,0.5-0.6
				c0.1-0.3,0.2-0.7,0.2-1l0,0c0-0.2,0.1-0.3,0.2-0.4c0.1-0.1,0.2-0.2,0.2-0.4C77.8,5,77.8,4.9,77.6,4.8C77.7,4.8,77.7,4.8,77.6,4.8
				 M77.3,6c-0.1,0.3-0.1,0.7-0.2,1c-0.1,0.2-0.2,0.4-0.5,0.6c-0.4,0.2-0.9,0.1-1.2-0.2c-0.2-0.1-0.3-0.3-0.4-0.5
				c-0.5-0.7-0.5-1.6,0-2.4l0,0c0.1-0.1,0.2-0.3,0.3-0.4C75.4,4.1,75.6,4,75.7,4c0,0,0.1,0,0.1,0L76,4.1c0.2,0.1,0.5,0.2,0.8,0.2
				h0.1l0,0c0.1,0.2,0.1,0.4,0.1,0.7c0,0.2,0,0.5,0.1,0.7l0,0l0,0c0.1-0.1,0.2-0.3,0.2-0.4c0-0.1,0.1-0.1,0.2-0.2
				c0-0.1,0.1-0.1,0.2-0.1h0.1c0.1,0,0.1,0.1,0.1,0.2c0,0.1-0.1,0.3-0.2,0.4C77.4,5.6,77.3,5.7,77.3,6L77.3,6z M77.7,6.3V6v0.1
				c0,0.1-0.1,0.2-0.1,0.3L77.2,7c0,0.1,0,0.2,0,0.2c0,0.2,0.1,0.4,0.2,0.6L77.4,8v0h0.1l0.1-0.2l0.3-0.6c0,0,0-0.1,0-0.1
				C77.9,6.8,77.8,6.5,77.7,6.3 M77.9,7.2l-0.3,0.6L77.5,8l0,0c0-0.1,0-0.1,0-0.2c-0.1-0.2-0.1-0.4-0.2-0.6c0-0.1,0-0.1,0-0.2
				c0.1-0.2,0.2-0.4,0.3-0.6c0-0.1,0.1-0.2,0.1-0.2v0.1C77.8,6.6,77.8,6.9,77.9,7.2C77.9,7.2,77.9,7.2,77.9,7.2 M78.3,7.3
				c-0.1,0-0.1,0-0.2,0c0,0-0.1,0.1-0.1,0.1l-0.2,0.5l-0.2,0.4l0,0l0,0L78,8.4l0,0l0,0C78.1,8,78.2,7.7,78.3,7.3L78.3,7.3L78.3,7.3z
				 M78.3,7.4c0,0.3-0.1,0.7-0.2,1l-0.3-0.1l0.2-0.4C78,7.7,78,7.5,78.1,7.4C78.1,7.4,78.1,7.3,78.3,7.4C78.2,7.3,78.2,7.3,78.3,7.4
				L78.3,7.4z M77.3,8.1L77.3,8.1L77.3,8.1c0,0.1-0.1,0.2-0.1,0.4v0.1l0,0C77.5,8.4,77.5,8.3,77.3,8.1 M77.3,8.4
				c0-0.1,0-0.2,0.1-0.2C77.4,8.3,77.4,8.3,77.3,8.4 M78.3,7.3c-0.1,0-0.1,0-0.2,0c0,0-0.1,0.1-0.1,0.1l-0.2,0.5l-0.2,0.4l0,0l0,0
				L78,8.4l0,0l0,0C78.1,8.1,78.2,7.7,78.3,7.3L78.3,7.3L78.3,7.3z M78.3,7.4c0,0.3-0.1,0.7-0.2,1l-0.3-0.1l0.2-0.4
				c0.1-0.2,0.2-0.3,0.2-0.5C78.1,7.4,78.2,7.4,78.3,7.4C78.2,7.4,78.3,7.4,78.3,7.4L78.3,7.4z M77.5,8l0.1-0.2l0.3-0.6
				c0,0,0-0.1,0-0.1c-0.1-0.3-0.1-0.6-0.2-0.9V6v0.1c0,0.1-0.1,0.2-0.1,0.3L77.2,7c0,0.1,0,0.2,0,0.2c0,0.2,0.1,0.4,0.2,0.6L77.5,8
				L77.5,8L77.5,8z M77.5,6.4c0-0.1,0.1-0.2,0.1-0.2v0.1c0.1,0.3,0.1,0.6,0.2,0.9c0,0,0,0,0,0.1l-0.3,0.6l0,0.2l0,0
				c0-0.1,0-0.1,0-0.2c-0.1-0.2-0.1-0.4-0.2-0.6c0-0.1,0-0.1,0-0.2C77.4,6.9,77.5,6.7,77.5,6.4 M77.4,6L77.4,6
				c0-0.2,0.1-0.3,0.2-0.4c0.1-0.1,0.2-0.2,0.2-0.4c0-0.1,0-0.2-0.1-0.3c0,0,0,0,0,0c-0.1-0.1-0.3-0.1-0.4,0c0,0,0,0.1,0,0.1
				c0,0.1-0.1,0.2-0.1,0.3c0,0.2-0.1,0.3-0.2,0.4c0-0.2,0-0.4,0-0.6c0-0.2,0-0.5-0.1-0.7h-0.1h-0.1C76.5,4.3,76.2,4.2,76,4h-0.1
				c-0.1-0.2-0.5,0-0.7,0.1c-0.1,0.1-0.2,0.2-0.3,0.4l0,0c-0.4,0.7-0.4,1.7,0.1,2.4c0.1,0.2,0.2,0.3,0.4,0.5
				c0.2,0.2,0.5,0.3,0.8,0.3c0.2,0,0.4,0,0.5-0.1c0.2-0.1,0.4-0.3,0.5-0.6C77.3,6.6,77.3,6.3,77.4,6 M75.4,7.3
				C75.3,7.2,75.1,7,75,6.8c-0.4-0.7-0.5-1.6,0-2.3l0,0c0.1-0.1,0.2-0.3,0.3-0.4C75.4,4.1,75.6,4,75.7,4c0,0,0.1,0,0.1,0L76,4.1
				c0.2,0.1,0.5,0.2,0.8,0.2h0.1l0,0c0.1,0.2,0.1,0.4,0.1,0.7c0,0.2,0,0.5,0.1,0.7l0,0l0,0c0.1-0.1,0.2-0.3,0.2-0.4
				c0-0.1,0.1-0.1,0.2-0.2c0-0.1,0.1-0.1,0.2-0.1h0.1c0.1,0,0.1,0.1,0.1,0.2c0,0.1-0.1,0.3-0.2,0.4c-0.2,0.1-0.2,0.3-0.2,0.4l0,0
				c-0.1,0.3-0.1,0.7-0.2,1c-0.1,0.2-0.2,0.4-0.5,0.6C76.2,7.7,75.8,7.6,75.4,7.3 M77.2,8L77.2,8c0,0.2-0.1,0.3-0.1,0.4v0.1l0,0
				c0.2-0.1,0.2-0.2,0.1-0.4L77.2,8z M77.2,8.4c0-0.1,0-0.2,0.1-0.2C77.3,8.3,77.3,8.3,77.2,8.4 M75.4,3.6L75.4,3.6L75.4,3.6
				L75.4,3.6L75.4,3.6L75.4,3.6L75.4,3.6L75.4,3.6z M78.4,7.2L78.4,7.2L78.4,7.2L78.4,7.2c-0.1,0-0.2,0-0.3,0c0-0.1,0-0.2-0.1-0.3
				l0,0c0-0.1,0-0.1,0-0.2c0-0.1,0-0.1,0-0.2c0-0.1-0.1-0.2-0.1-0.3V6c-0.1-0.2-0.1-0.4,0.1-0.6c0,0,0-0.1-0.1-0.1
				c0.1-0.2,0.2-0.4,0.3-0.6l0.1-0.1c0.2-0.2,0.2-0.5,0-0.8c-0.1-0.2-0.2-0.3-0.4-0.4c-0.2-0.1-0.3-0.1-0.5-0.1
				c-0.3,0-0.6-0.2-0.9-0.4c0,0-0.1,0-0.1,0c-0.4,0.2-0.8,0.4-1.2,0.7l0,0c-0.4,0.3-0.8,0.5-0.7,0.6s0,0,0,0c0,0.1,0,0.1-0.1,0.2
				c0,0.1-0.1,0.2-0.1,0.2l0,0l0,0l0,0c0,0,0,0,0,0.1l0,0l0,0l0,0c-0.1,0.3-0.1,0.6-0.1,0.8c0,0.6,0.3,1.3,0.8,1.7
				c0.5,0.5,1.3,0.5,1.8,0.1c0,0,0,0,0.1,0l0,0c0.1,0.1,0.1,0.3,0,0.4C77,7.8,77,8,76.9,8.1c0,0.1,0,0.1,0,0.2c0,0,0,0.1,0,0.1
				c0,0,0,0,0,0.1l0,0L77,8.6l0,0h0.1c0.1,0,0.1-0.1,0.2-0.1c0.1-0.1,0.4-0.2,0.5-0.1c0.3,0.1,0.3,0,0.4-0.2s0.1-0.5,0.2-0.8
				C78.4,7.3,78.4,7.2,78.4,7.2c0-0.1,0-0.1,0-0.1l0,0 M77.8,8.3c-0.2-0.1-0.4,0-0.6,0.1c0,0-0.1,0.1-0.2,0.1H77l0,0l0,0
				c0,0,0-0.1,0-0.1c0-0.1,0-0.1,0-0.2c0-0.1,0.1-0.3,0.1-0.4c0.1-0.2,0-0.3-0.1-0.5l0,0l0,0l0,0L77,7.4c-0.5,0.4-1.3,0.4-1.7-0.1
				c-0.5-0.4-0.7-1-0.8-1.7c0-0.3,0-0.6,0.1-0.8l0,0c0,0,0,0,0-0.1l0,0l0,0l0,0l0,0l0,0l0,0c0-0.1,0.1-0.2,0.1-0.2
				c0.1-0.1,0.1-0.2,0.1-0.2s0,0,0,0l0,0c0.2-0.2,0.4-0.3,0.6-0.5h0.1l0,0l0,0l0,0l0,0l0,0c0.4-0.3,0.7-0.5,1.1-0.7
				c0.2,0.2,0.6,0.4,0.9,0.4c0.2,0,0.3,0.1,0.5,0.2c0.2,0.1,0.3,0.2,0.4,0.4c0.1,0.2,0.1,0.5,0,0.7L78.2,5c-0.1,0.2-0.3,0.4-0.3,0.6
				c0,0,0,0.1,0,0.1l0,0l0,0l-0.1,0.1c0,0-0.1,0.1-0.1,0.1c0,0.1,0,0.3,0,0.4l0,0v0.1c0,0.1,0,0.1,0,0.2c0,0.1,0.1,0.3,0.1,0.4
				s0,0.2,0.1,0.3l0,0l0,0c0.1,0,0.2,0,0.3,0l0,0c0,0,0,0.1,0,0.3c-0.1,0.3-0.1,0.6-0.2,0.8s-0.1,0.2-0.3,0.2 M78.1,7.4L78.1,7.4
				c-0.1,0-0.1,0-0.2,0c0,0-0.1,0.1-0.1,0.1l-0.2,0.5l-0.2,0.4l0,0l0,0l0.4,0.1l0,0l0,0C77.9,8.1,78,7.8,78.1,7.4L78.1,7.4z M78,7.5
				c0,0.3-0.1,0.7-0.2,1l-0.3-0.1l0.2-0.4c0.1-0.2,0.2-0.3,0.2-0.5C77.9,7.5,77.9,7.4,78,7.5C78,7.4,78,7.4,78,7.5L78,7.5z
				 M77.5,7.9l0.3-0.6c0,0,0-0.1,0-0.1c-0.1-0.3-0.1-0.6-0.2-0.9V6.1v0.1c0,0.1-0.1,0.2-0.1,0.3L77.2,7c0,0.1,0,0.2,0,0.2
				c0,0.2,0.1,0.4,0.2,0.6L77.5,7.9L77.5,7.9L77.5,7.9L77.5,7.9z M77.4,8c0-0.1,0-0.1,0-0.2c-0.1-0.2-0.1-0.4-0.2-0.6
				c0-0.1,0-0.1,0-0.2c0.1-0.2,0.2-0.4,0.3-0.6c0-0.1,0.1-0.2,0.1-0.2v0.1c0.1,0.3,0.1,0.6,0.2,0.9c0,0,0,0,0,0.1l-0.3,0.6L77.4,8
				L77.4,8z M77.4,5.9c0-0.2,0.1-0.3,0.2-0.4c0.1-0.1,0.2-0.2,0.2-0.4c0-0.1,0-0.2-0.1-0.3c0,0,0,0,0,0c-0.1-0.1-0.3,0-0.3,0.1
				c0,0,0,0,0,0c0,0.1-0.1,0.2-0.1,0.3c0,0.2-0.1,0.3-0.2,0.4c0-0.2,0-0.4,0-0.6c0-0.2,0-0.5-0.1-0.7h-0.1h-0.1
				C76.5,4.3,76.2,4.2,76,4h-0.1c-0.1-0.2-0.5,0-0.7,0.1c-0.1,0.1-0.2,0.2-0.3,0.4l0,0c-0.4,0.7-0.4,1.7,0.1,2.4
				c0.1,0.2,0.2,0.3,0.4,0.5c0.2,0.2,0.5,0.3,0.8,0.3c0.2,0,0.4,0,0.5-0.1c0.2-0.1,0.4-0.3,0.5-0.6C77.3,6.6,77.3,6.3,77.4,5.9
				L77.4,5.9z M77.4,5.9c-0.1,0.3-0.1,0.7-0.2,1c-0.1,0.2-0.2,0.4-0.5,0.6c-0.4,0.2-0.9,0.1-1.2-0.2c-0.2-0.1-0.3-0.3-0.4-0.5
				c-0.5-0.7-0.5-1.6-0.1-2.4l0,0c0.1-0.1,0.2-0.3,0.3-0.4C75.4,4.1,75.6,4,75.7,4c0,0,0.1,0,0.1,0L76,4.1c0.2,0.1,0.5,0.2,0.8,0.2
				h0.1l0,0c0.1,0.2,0.1,0.4,0.1,0.7c0,0.2,0,0.5,0.1,0.7l0,0l0,0c0.1-0.1,0.2-0.3,0.2-0.4c0-0.1,0.1-0.1,0.2-0.2
				c0-0.1,0.1-0.1,0.2-0.1h0.1c0.1,0,0.1,0.1,0.1,0.2c0,0.1-0.1,0.3-0.2,0.4C77.4,5.6,77.3,5.7,77.4,5.9L77.4,5.9z M77.2,8L77.2,8
				c0,0.2-0.1,0.3-0.1,0.4v0.1l0,0c0.2-0.1,0.2-0.2,0.1-0.4L77.2,8z M77.2,8.4c0-0.1,0-0.2,0.1-0.2C77.3,8.3,77.3,8.3,77.2,8.4"/>
		</g>
		<g>
			<path class="st0" d="M77.7,6.2V6v0.1c0,0.1-0.1,0.2-0.1,0.3L77.2,7c0,0.1,0,0.2,0,0.2c0,0.2,0.1,0.4,0.2,0.6L77.4,8v0h0.1
				l0.1-0.2l0.3-0.6c0,0,0-0.1,0-0.1C77.9,6.8,77.8,6.5,77.7,6.2 M77.9,7.2l-0.3,0.6L77.5,8l0,0c0-0.1,0-0.1,0-0.2
				c-0.1-0.2-0.1-0.4-0.2-0.6c0-0.1,0-0.1,0-0.2c0.1-0.2,0.2-0.4,0.3-0.6c0-0.1,0.1-0.2,0.1-0.2v0.1C77.8,6.6,77.8,6.9,77.9,7.2
				C77.9,7.2,77.9,7.2,77.9,7.2"/>
		</g>
		<g>
			<path class="st0" d="M75.6,5.8c0.1,0.2,0,0.4,0,0.7l0.3-0.1c0,0.1,0,0.1-0.1,0.1s-0.2,0.2-0.3,0.1s-0.1-0.2-0.1-0.2l0-0.4
				C75.5,6,75.5,5.9,75.6,5.8L75.6,5.8"/>
		</g>
		<g>
			<path class="st0" d="M76.4,6.8L75.9,7c0.1-0.2,0.3-0.3,0.4-0.4s0.1,0,0.2,0S76.5,6.6,76.4,6.8"/>
		</g>
		<g>
			<path class="st0" d="M76.5,6.7L76.5,6.7c0,0-0.1,0-0.1,0l0,0c-0.2,0-0.4,0.2-0.4,0.4v0.1H76l0.6-0.3l0,0L76.5,6.7L76.5,6.7z
				 M76.5,6.8L75.9,7c0.1-0.2,0.2-0.3,0.4-0.3l0,0L76.5,6.8L76.5,6.8L76.5,6.8z"/>
		</g>
		<g>
			<path class="st0" d="M76,5.3L76,5.3h-0.2C75.9,5.2,76,5,76.2,5C76.3,5.2,76.1,5.3,76,5.3"/>
		</g>
		<g>
			<path class="st0" d="M74.7,5.5c0.1-0.1,0.3-0.1,0.4,0c0,0,0,0.1,0,0.1c0,0-0.1,0.1-0.1,0.1L74.7,5.5"/>
		</g>
		<g>
			<path class="st0" d="M76.3,5.6c0,0.1,0,0.1-0.1,0.2c0,0,0,0,0,0c-0.1,0-0.2,0-0.2-0.1c0,0,0,0,0,0c0-0.1,0.1-0.1,0.1-0.2
				C76.2,5.4,76.3,5.5,76.3,5.6"/>
		</g>
		<g>
			<path class="st0" d="M75.2,5.9C75.2,6,75.1,6,75.1,6c-0.1,0-0.1-0.1-0.2-0.1c0-0.1,0-0.1,0.1-0.2c0,0,0,0,0,0
				C75.1,5.7,75.2,5.8,75.2,5.9C75.2,5.9,75.2,5.9,75.2,5.9"/>
		</g>
		<g>
			<path class="st0" d="M78,9.4c0,0.2,0,0.4-0.1,0.5c-0.4,0.7-0.8,1.3-1.3,1.8c-0.8,0.8-1.7,1.6-2.6,2.2c-0.3,0.2-0.7,0.5-1,0.7
				c-0.1,0.1-0.2,0.1-0.3,0.1c-0.1,0-0.1,0-0.2,0l0.1-0.1l0.7-0.4c1-0.6,1.9-1.4,2.7-2.1c0.3-0.3,0.6-0.6,0.9-0.9
				c0.4-0.5,0.8-1,1-1.6C77.8,9.5,77.9,9.5,78,9.4"/>
		</g>
		<g>
			<path class="st0" d="M78,9.4L78,9.4c-0.2,0-0.2,0.1-0.2,0.2c-0.2,0.6-0.6,1.1-1,1.6c-0.3,0.3-0.6,0.6-0.9,0.9
				c-0.8,0.8-1.8,1.5-2.7,2.1l-0.4,0.3l-0.2,0.1l-0.1,0.1l-0.2,0.1h0.3l0,0c0.1,0,0.2-0.1,0.3-0.1L74,14c1-0.6,1.8-1.4,2.7-2.2
				c0.5-0.5,1-1.1,1.3-1.8c0.1-0.2,0.1-0.3,0.1-0.5l0,0L78,9.4z M72.5,14.8L72.5,14.8L72.5,14.8l0.2-0.1l0.4-0.3
				c1-0.6,1.9-1.4,2.7-2.1c0.3-0.3,0.7-0.6,0.9-0.9c0.4-0.5,0.8-1.1,1-1.7c0-0.1,0-0.1,0.1-0.1c0,0.1,0,0.3-0.1,0.4
				c-0.4,0.7-0.8,1.3-1.3,1.8c-0.8,0.8-1.7,1.6-2.6,2.2l-1,0.7C72.7,14.7,72.6,14.7,72.5,14.8"/>
		</g>
		<g>
			<path class="st0" d="M70.9,13.1c0.2-0.1,0.3-0.2,0.4-0.4c1-0.8,2-1.6,2.9-2.5c0.4-0.4,0.8-0.9,1.3-1.4l0.2-0.1
				c0,0.1,0,0.3-0.1,0.3c-0.2,0.3-0.5,0.6-0.7,0.9c-0.9,1-1.9,1.9-3,2.7C71.6,12.9,71.2,13,70.9,13.1L70.9,13.1"/>
		</g>
		<g>
			<path class="st0" d="M75.7,8.7L75.7,8.7L75.7,8.7l-0.1,0l-0.1,0.1L75,9.3c-0.3,0.3-0.6,0.6-0.9,0.9c-0.9,0.9-1.9,1.7-2.9,2.5
				L71,13l-0.1,0.1l0,0l0.1,0.1l0,0l0.3-0.2c0.2-0.1,0.4-0.2,0.6-0.4c1.1-0.8,2.1-1.7,3-2.7c0.2-0.2,0.4-0.5,0.6-0.7l0.1-0.2l0,0
				C75.7,9,75.7,8.9,75.7,8.7 M75.5,9.1l-0.1,0.2C75.2,9.5,75,9.8,74.8,10c-0.9,1-1.9,1.9-3,2.7c-0.2,0.1-0.4,0.3-0.6,0.4L71,13.1
				l0.1-0.1l0.3-0.2c1-0.7,2-1.6,2.9-2.5c0.3-0.3,0.6-0.6,0.9-0.9l0.4-0.5l0.1-0.1C75.6,8.9,75.6,9,75.5,9.1L75.5,9.1z"/>
		</g>
		<g>
			<path class="st0" d="M71.8,13.7c0.6-0.4,1.1-0.8,1.7-1.2c0.6-0.4,1.1-0.9,1.5-1.4c0.4-0.5,0.9-1,1.4-1.5l0,0c0,0.1,0,0.1-0.1,0.1
				c-0.5,0.7-1,1.4-1.7,2c-0.6,0.6-1.3,1.2-2.1,1.6c-0.2,0.1-0.3,0.2-0.5,0.3S71.9,13.8,71.8,13.7"/>
		</g>
		<g>
			<path class="st0" d="M76.4,9.6L76.4,9.6L76.4,9.6L76.4,9.6L75.9,10c-0.3,0.3-0.7,0.7-1,1c-0.5,0.5-1,1-1.5,1.4
				c-0.4,0.3-0.7,0.6-1.1,0.9l-0.5,0.4h-0.1l0,0c0,0,0.1,0.1,0.2,0.1c0.1,0,0.1,0,0.2-0.1l0,0l0.2-0.2l0.2-0.2
				c0.8-0.5,1.5-1,2.1-1.6c0.6-0.6,1.2-1.3,1.7-2C76.3,9.7,76.3,9.6,76.4,9.6L76.4,9.6L76.4,9.6L76.4,9.6z M72.3,13.6l-0.2,0.1l0,0
				c0,0-0.1,0.1-0.2,0l0.5-0.4c0.4-0.3,0.8-0.6,1.1-0.9c0.5-0.4,1-0.9,1.5-1.4c0.3-0.4,0.7-0.7,1-1l0.3-0.3c-0.5,0.7-1,1.4-1.7,2
				c-0.6,0.6-1.3,1.2-2.1,1.6C72.5,13.5,72.4,13.5,72.3,13.6"/>
		</g>
		<g>
			<path class="st0" d="M70.2,15.2c0.2-0.6,0.7-1,1.3-1.1c-0.2,0.2-0.5,0.3-0.7,0.5S70.4,15,70.2,15.2"/>
		</g>
		<g>
			<path class="st0" d="M71.4,14.1L71.4,14.1c-0.1,0-0.3,0-0.4,0.1H71C71.1,14.2,71.3,14.1,71.4,14.1L71.4,14.1l-0.2,0.1l0,0
				L71.4,14.1L71.4,14.1L71.4,14.1z M70.9,14.3c-0.1,0.1-0.2,0.1-0.3,0.2C70.7,14.4,70.8,14.3,70.9,14.3 M70.5,14.9L70.3,15l0,0
				l0.4-0.4l0,0L70.5,14.9 M70.2,15.2c0,0,0-0.1,0-0.1c0.1-0.1,0.1-0.3,0.2-0.4c-0.1,0.1-0.1,0.1-0.2,0.2l0,0
				C70.2,15,70.2,15.1,70.2,15.2L70.2,15.2L70.2,15.2l0.1-0.1L70.2,15.2L70.2,15.2"/>
		</g>
		<g>
			<path class="st0" d="M72,14.7c-0.3,0.4-0.8,0.7-1.3,0.8l0.7-0.4C71.6,15,71.8,14.8,72,14.7"/>
		</g>
		<g>
			<path class="st0" d="M72,14.7c0,0-0.1,0-0.1,0.1L72,14.7L72,14.7L72,14.7z M71.9,14.9L71.9,14.9z M71.7,14.9L71.7,14.9L71.5,15
				L71.7,14.9c0,0,0,0,0.1-0.1l0.1-0.1c0,0-0.1,0-0.1,0.1L71.7,14.9 M71.1,15.3L71.1,15.3l-0.4,0.2l0,0c0.1,0,0.1,0,0.2,0h-0.2
				L71.1,15.3l0.3-0.2c0,0,0.1,0,0.1-0.1l-0.1,0.1L71.1,15.3 M71.3,15.3L71.3,15.3c0.1,0,0.1-0.1,0.2-0.1L71.3,15.3L71.3,15.3"/>
		</g>
		<g>
			<path class="st0" d="M71.5,14.9c-0.2,0.3-0.6,0.5-1,0.5C70.8,15.2,71.1,15,71.5,14.9"/>
		</g>
		<g>
			<path class="st0" d="M71.4,14.9L71.4,14.9h-0.2h-0.1H71.4L71.4,14.9L71.4,14.9z M71,15.1l-0.1,0.1c0.1-0.1,0.2-0.1,0.3-0.1l0,0
				L71,15.1 M70.5,15.4L70.5,15.4c0.3,0,0.4-0.1,0.6-0.1C70.9,15.3,70.7,15.4,70.5,15.4L70.5,15.4z"/>
		</g>
		<g>
			<path class="st0" d="M70.4,15.2c0.2-0.2,0.4-0.4,0.7-0.5C70.9,15,70.7,15.2,70.4,15.2"/>
		</g>
		<g>
			<path class="st0" d="M70.4,15.2L70.4,15.2c0.1,0,0.1,0,0.2,0C70.5,15.2,70.5,15.2,70.4,15.2c0.2-0.2,0.4-0.4,0.7-0.4l0,0
				C70.9,14.7,70.7,14.9,70.4,15.2 M70.7,15.1L70.7,15.1L70.7,15.1L70.7,15.1L70.7,15.1"/>
		</g>
		<g>
			<path class="st0" d="M70.9,14.2l-0.4,0.3C70.5,14.2,70.6,14.2,70.9,14.2"/>
		</g>
		<g>
			<path class="st0" d="M70.9,14.2h-0.1h-0.1H70.9l-0.1,0.1l0,0L70.9,14.2L70.9,14.2L70.9,14.2z M70.5,14.5c0-0.1,0-0.1,0.1-0.2
				C70.5,14.3,70.5,14.4,70.5,14.5L70.5,14.5l0.2-0.1c0,0,0.1,0,0.1-0.1l-0.1,0.1L70.5,14.5 M70.6,14.3L70.6,14.3z"/>
		</g>
		<g>
			<path class="st0" d="M89.4,17.7c0,0.1,0,0.1,0.1,0.1c0.2,0.1,0.4,0.2,0.7,0.4c0.3,0.1,0.7,0.2,1,0.3c0.2,0,0.4,0.1,0.6,0.1
				s0-0.1,0-0.1s0,0,0,0h-0.3c-0.3,0-0.6-0.1-0.9-0.2C90.1,18.2,89.7,18,89.4,17.7C89.4,17.8,89.4,17.8,89.4,17.7"/>
		</g>
		<g>
			<path class="st0" d="M91.9,18.5L91.9,18.5h-0.1h-0.2c-0.2,0-0.5-0.1-0.7-0.1l-0.2-0.1c-0.4-0.2-0.8-0.4-1.1-0.6c0,0-0.1,0-0.2,0
				l0,0l0,0c0,0.1,0.1,0.1,0.1,0.2l0.7,0.4l0.4,0.1c0.2,0.1,0.4,0.2,0.7,0.2l0.3,0h0.1h0.2l0,0c0,0,0-0.1,0-0.1l0,0l0,0l0,0l0,0
				 M91.8,18.7L91.8,18.7h-0.1h-0.1c-0.1,0-0.2,0-0.3,0c-0.2,0-0.4-0.1-0.7-0.2l0,0l0.2,0.1c0.2,0.1,0.5,0.1,0.7,0.1L91.8,18.7
				L91.8,18.7L91.8,18.7z M90.5,18.4l-0.3-0.1c-0.2-0.1-0.3-0.2-0.4-0.2C90,18.2,90.4,18.4,90.5,18.4"/>
		</g>
		<g>
			<path class="st0" d="M90.5,23.1c0-0.1,0.1-0.2,0.1-0.4c0.1-0.8,0.3-1.6,0.7-2.4c0.2-0.4,0.4-0.8,0.6-1.2c0,0,0-0.1,0-0.1
				c-0.1,0-0.2,0.1-0.2,0.2c-0.2,0.2-0.3,0.5-0.4,0.7c-0.4,0.8-0.6,1.7-0.8,2.6c0,0.2,0,0.4,0,0.6L90.5,23.1"/>
		</g>
		<g>
			<path class="st0" d="M91.8,19c-0.1,0-0.2,0.1-0.3,0.2l-0.1,0.1c-0.1,0.2-0.2,0.4-0.3,0.6c-0.4,0.8-0.6,1.7-0.8,2.6
				c0,0.1,0,0.3,0,0.4v0.3h0.2l0,0c0,0,0-0.1,0-0.1c0-0.1,0-0.2,0.1-0.2c0.1-0.8,0.3-1.6,0.7-2.4c0.1-0.3,0.2-0.5,0.4-0.8l0.2-0.4
				v-0.1C91.8,19.1,91.8,19.1,91.8,19L91.8,19L91.8,19z M91.7,19.2c-0.1,0.1-0.1,0.3-0.2,0.4s-0.3,0.5-0.4,0.8
				c-0.3,0.8-0.6,1.6-0.7,2.4c0,0.1,0,0.1,0,0.2l0,0l0,0l0,0v0c0-0.1,0-0.3,0-0.5c0.1-0.9,0.4-1.7,0.8-2.6c0.1-0.2,0.2-0.4,0.3-0.6
				L91.7,19.2L91.7,19.2C91.7,19.1,91.8,19.1,91.7,19.2L91.7,19.2"/>
		</g>
		<g>
			<path class="st0" d="M90.5,23C90.5,23,90.5,23,90.5,23c-0.8-0.2-1.4-0.5-2.1-0.9c-0.3-0.2-0.6-0.4-0.9-0.7l-0.1-0.1
				c0,0.1,0,0.2,0.1,0.2c0.2,0.2,0.4,0.3,0.6,0.5c0.6,0.4,1.3,0.8,2.1,1c0.1,0,0.2,0,0.3,0C90.5,23.1,90.5,23.1,90.5,23"/>
		</g>
		<g>
			<path class="st0" d="M90.5,23.1c-0.1,0-0.2,0-0.3,0c-0.7-0.2-1.4-0.6-2.1-1c-0.2-0.1-0.3-0.2-0.5-0.4l-0.1-0.1l0,0
				c0,0-0.1-0.1-0.1-0.1h0.1l0.3,0.2c0.2,0.1,0.4,0.3,0.6,0.4C89.2,22.5,89.8,22.8,90.5,23.1L90.5,23.1c0-0.1,0-0.2,0-0.2l0,0
				c-0.7-0.2-1.4-0.5-2-0.9c-0.2-0.1-0.4-0.3-0.6-0.4l-0.3-0.2h-0.1l0,0l0,0v0.1c0,0.1,0,0.2,0.1,0.3l0,0l0.1,0.1
				c0.1,0.1,0.3,0.3,0.5,0.4c0.6,0.4,1.3,0.8,2.1,1h0.3C90.6,23.2,90.6,23.1,90.5,23.1"/>
		</g>
		<g>
			<path class="st0" d="M74.5,4.9c0,0-0.4-1.7,1-2.1c1.2-0.5,2.6,0,3.3,1.1c0.5,1,2.3,2.2,2.4,2.8s0.2,0.8,0,0.9S80,7.9,80,7.9
				c-0.5-0.1-1-0.3-1.4-0.5c-0.1-0.2-0.3-0.3-0.5-0.5l-0.5-1.2c0,0,0.5-0.5,0.2-0.8c-0.4-0.3-0.7-0.6-1.1-0.8l-1.3-0.5L74.5,4.9z"/>
		</g>
		<g>
			<path class="st0" d="M77.8,5.5c0,0-0.1,0.1-0.1,0.1l0,0L77.8,5.5C77.7,5.5,77.7,5.5,77.8,5.5l-0.1,0 M75.3,3.5L75.3,3.5L75.3,3.5
				L75.3,3.5v0.1h0.1l0.1-0.1l0,0h0.1l0,0L75.3,3.5z M81.2,7c0-0.1,0-0.2,0-0.4s-0.5-0.7-1-1.2c-0.5-0.4-1-1-1.3-1.5
				c-0.7-1.1-2.1-1.5-3.3-1.1c-1.3,0.4-1,1.9-1,2.1l0,0l0,0l0,0l0,0l0.8-1.3l0,0l0,0l0,0l1.3,0.5c0.4,0.2,0.8,0.5,1.1,0.8
				C77.8,5,77.9,5,77.8,5.1c0,0.2-0.2,0.4-0.3,0.6l0,0l0.3,0.7l0.1,0.2l0,0v0.1l0,0l0.1,0.1l0,0L78.1,7l0,0l0,0l0,0l0,0l0,0l0.1,0.2
				c0.5,0.4,1.1,0.7,1.7,0.8c0,0,1-0.1,1.2-0.3S81.2,7.3,81.2,7 M80,7.9c-0.5-0.1-1-0.3-1.4-0.5c-0.1-0.1-0.1-0.1-0.2-0.2l0,0
				c-0.1-0.1-0.2-0.2-0.2-0.2l-0.2-0.5l-0.1-0.2L77.8,6l0,0l-0.1-0.3l0.1-0.1l0,0V5.5c0,0,0-0.1,0-0.1l0,0C77.9,5.4,78,5.3,78,5.1
				c0-0.1,0-0.2-0.1-0.2c-0.4-0.3-0.7-0.6-1.1-0.8l-1.2-0.5l0,0l0,0l0,0v0.1v0.1l-0.7,1.1l0,0l0,0l0,0c0,0,0,0,0-0.1l0,0
				c-0.2-0.8,0.2-1.6,1-1.8c1.2-0.5,2.6-0.1,3.3,1c0.4,0.6,0.8,1.1,1.4,1.6c0.5,0.5,1,0.9,1,1.2s0,0.3,0,0.4c0,0.3,0.1,0.4,0,0.5
				s-1,0.3-1.1,0.3"/>
		</g>
		<g>
			<path class="st0" d="M93.9,29.8c-3-0.9-3.4-2.5-4.6-5.7c-0.7-2-1.6-3.9-2.8-5.7l0.4-0.3c1.3,1.4,2.2,3.9,2.9,5.8
				c1.2,3,1.5,4.6,4.3,5.4L93.9,29.8z"/>
		</g>
		<g>
			<path class="st0" d="M85.2,17.3c-1.4-0.9-2.9-1.4-4.6-1.6l0.1-0.5c1.7,0.2,3.3,0.8,4.8,1.7L85.2,17.3z"/>
		</g>
		<g>
			<path class="st0" d="M93.1,13c0,0.2,0,0.3-0.2,0.5c-0.4,0.6-0.9,1.2-1.5,1.7c-0.9,0.8-1.8,1.4-2.8,2l-1.1,0.6
				c-0.1,0.1-0.2,0.1-0.4,0.1c0,0-0.1,0-0.2,0l0.1-0.1c0.2-0.1,0.5-0.2,0.7-0.4c1-0.6,2-1.2,2.9-1.9c0.3-0.3,0.7-0.6,1-0.9
				c0.5-0.5,0.9-1,1.2-1.6C92.9,13.1,93,13,93.1,13"/>
		</g>
		<g>
			<path class="st0" d="M93.1,13c-0.1,0-0.2,0.1-0.2,0.2c-0.3,0.6-0.7,1.1-1.1,1.6c-0.3,0.3-0.6,0.5-1,0.9c-0.9,0.7-1.9,1.3-2.9,1.9
				l-0.5,0.2l-0.2,0.1h-0.1L86.9,18l0.1,0h0.1h0.2c0.1,0,0.2-0.1,0.3-0.1l1.1-0.6c1-0.6,1.9-1.2,2.8-2c0.6-0.5,1.1-1.1,1.5-1.7
				C93.1,13.4,93.2,13.2,93.1,13L93.1,13L93.1,13z M87.2,17.9L87.2,17.9L87.2,17.9l0.2-0.1l0.5-0.2c1-0.6,2-1.2,2.9-1.9
				c0.4-0.3,0.7-0.6,1-0.9c0.5-0.5,0.9-1,1.2-1.6c0-0.1,0-0.1,0.1-0.1c0,0.1-0.1,0.3-0.2,0.4c-0.4,0.6-0.9,1.2-1.4,1.7
				c-0.9,0.8-1.8,1.4-2.8,2l-1.1,0.6C87.4,17.9,87.3,17.9,87.2,17.9"/>
		</g>
		<g>
			<path class="st0" d="M94.1,11.8c0.1,0.1,0.2,0.3,0.1,0.4c0,0.7-0.1,1.3-0.3,2c-0.3,1-0.8,2-1.3,2.9c-0.2,0.4-0.4,0.7-0.6,1
				c-0.1,0.1-0.1,0.2-0.2,0.3c0,0-0.1,0-0.2,0.1s0-0.1,0.1-0.1c0.1-0.2,0.3-0.4,0.4-0.6c0.5-0.9,1-1.9,1.4-2.9
				c0.1-0.4,0.2-0.7,0.3-1.1c0.2-0.6,0.2-1.1,0.1-1.7C94,11.9,94,11.8,94.1,11.8"/>
		</g>
		<g>
			<path class="st0" d="M94.1,11.8L94.1,11.8L94.1,11.8c-0.1,0-0.2,0.2-0.1,0.3c0.1,0.6,0,1.1-0.1,1.7c-0.1,0.4-0.2,0.8-0.3,1.1
				c-0.4,0.9-0.8,1.8-1.2,2.7l-0.1,0.2c-0.1,0.1-0.2,0.3-0.2,0.4c0,0.1-0.1,0.2-0.1,0.2l0,0l0,0l0,0l0,0v0.1l0,0v0h0.1l0,0l0,0l0,0
				l0,0c0,0,0.1,0,0.1,0l0,0l0,0c0.1-0.1,0.1-0.2,0.2-0.3l0.5-1l0,0c0.5-1,1-2,1.3-3c0.2-0.6,0.3-1.3,0.3-2
				C94.3,12.1,94.2,11.9,94.1,11.8 M92.6,17.2c-0.2,0.3-0.3,0.6-0.5,1c-0.1,0.1-0.1,0.2-0.2,0.2l0,0l0,0l0,0l0,0l0.1-0.2l0.2-0.4
				l0.1-0.2c0.5-0.9,0.9-1.8,1.3-2.8c0.2-0.4,0.2-0.8,0.3-1.1c0.1-0.6,0.2-1.2,0.1-1.8c0-0.1,0-0.1,0-0.1c0.1,0.1,0.1,0.2,0.1,0.4
				c0,0.7-0.1,1.4-0.3,2C93.5,15.2,93.1,16.2,92.6,17.2L92.6,17.2z"/>
		</g>
		<g>
			<path class="st0" d="M85.8,16.4c0.2-0.1,0.3-0.2,0.4-0.4c1-0.7,2-1.5,2.9-2.4c0.5-0.4,0.9-0.9,1.3-1.4c0-0.1,0.1-0.1,0.2-0.1
				c0,0.1,0,0.3-0.1,0.3c-0.2,0.3-0.5,0.6-0.8,0.9c-0.9,1-2,1.8-3.1,2.6C86.5,16.1,86.2,16.3,85.8,16.4L85.8,16.4"/>
		</g>
		<g>
			<path class="st0" d="M90.7,12.1L90.7,12.1L90.7,12.1l-0.1,0c0,0-0.1,0.1-0.1,0.1c-0.2,0.1-0.3,0.3-0.4,0.4
				c-0.3,0.3-0.6,0.6-0.9,0.9c-0.9,0.9-1.9,1.8-2.9,2.5c-0.1,0.1-0.2,0.2-0.3,0.2l-0.1,0.1l0,0l0.1,0.1l0,0l0.3-0.1
				c0.2-0.1,0.4-0.2,0.6-0.4c1.1-0.8,2.1-1.7,3.1-2.6c0.2-0.2,0.4-0.5,0.6-0.7l0.2-0.2l0,0C90.8,12.3,90.8,12.2,90.7,12.1
				 M90.6,12.4l-0.2,0.2c-0.2,0.3-0.4,0.5-0.6,0.7c-0.9,1-2,1.8-3.1,2.6c-0.2,0.1-0.4,0.2-0.6,0.3L86,16.4l0.1,0l0.3-0.2
				c1-0.7,2-1.5,2.9-2.4c0.3-0.3,0.6-0.6,0.9-0.9l0.4-0.4l0.1-0.1C90.7,12.3,90.7,12.3,90.6,12.4L90.6,12.4z"/>
		</g>
		<g>
			<path class="st0" d="M86.6,16.9c0.6-0.4,1.2-0.7,1.7-1.1c0.6-0.4,1.1-0.8,1.6-1.3c0.5-0.5,1-0.9,1.5-1.4l0,0c0,0.1,0,0.1-0.1,0.1
				c-0.5,0.7-1.1,1.3-1.8,1.9c-0.7,0.6-1.4,1.1-2.2,1.5c-0.2,0.1-0.3,0.2-0.5,0.3C86.7,16.9,86.6,16.9,86.6,16.9
				C86.5,16.9,86.5,16.8,86.6,16.9"/>
		</g>
		<g>
			<path class="st0" d="M91.5,13.1L91.5,13.1L91.5,13.1L91.5,13.1L91,13.5c-0.3,0.3-0.7,0.6-1,1c-0.5,0.5-1,0.9-1.6,1.3
				c-0.4,0.3-0.8,0.5-1.2,0.8l-0.5,0.3h-0.1h0.1c0,0.1,0.1,0.1,0.2,0.1c0.1,0,0.1,0,0.1,0l0,0l0.2-0.1c0.1-0.1,0.2-0.1,0.3-0.1
				c0.8-0.4,1.5-0.9,2.2-1.5c0.7-0.5,1.3-1.2,1.8-1.9c0,0,0.1-0.1,0.1-0.1v-0.1l0,0L91.5,13.1z M91.3,13.2c-0.5,0.7-1.1,1.3-1.8,1.9
				c-0.7,0.6-1.4,1.1-2.2,1.5c-0.1,0-0.2,0.1-0.3,0.1l-0.2,0.1l0,0c0,0-0.1,0-0.1,0l0.5-0.3c0.4-0.3,0.8-0.5,1.2-0.8
				c0.6-0.4,1.1-0.8,1.6-1.3c0.3-0.3,0.7-0.6,1-1L91.3,13.2L91.3,13.2"/>
		</g>
		<g>
			<path class="st0" d="M85.2,18c0.2-0.6,0.7-0.9,1.3-1c-0.2,0.2-0.5,0.3-0.7,0.5C85.6,17.6,85.3,17.8,85.2,18"/>
		</g>
		<g>
			<path class="st0" d="M86.4,17c-0.1,0-0.1,0-0.2,0H86.4L86.4,17l-0.2,0.1L86,17.3l0.2-0.1L86.4,17C86.5,17,86.4,17,86.4,17z
				 M85.3,17.8L85.1,18l0,0l0,0l0,0L85.3,17.8c0.1-0.1,0.3-0.3,0.4-0.4c0.1-0.1,0.1-0.1,0.2-0.2c-0.1,0-0.2,0.1-0.2,0.1
				C85.6,17.6,85.5,17.7,85.3,17.8 M85.6,17.3L85.6,17.3c-0.1,0-0.1,0.1-0.2,0.2c-0.1,0-0.1,0.1-0.2,0.2c0,0.1-0.1,0.1-0.1,0.2
				c0,0,0,0.1,0,0.1c0.1-0.2,0.2-0.3,0.3-0.5C85.5,17.4,85.6,17.4,85.6,17.3"/>
		</g>
		<g>
			<path class="st0" d="M87,17.6c-0.3,0.4-0.8,0.7-1.4,0.7l0.7-0.4C86.5,17.8,86.8,17.7,87,17.6"/>
		</g>
		<g>
			<path class="st0" d="M87,17.6c-0.1,0-0.1,0-0.2,0.1c-0.1,0-0.2,0.1-0.3,0.1c-0.1,0.1-0.1,0.1-0.2,0.1l-0.5,0.2l-0.2,0.1l0,0
				c0.1,0,0.3,0,0.4-0.1c-0.1,0-0.2,0.1-0.4,0.1l0.2-0.1l0.1-0.1l0.3-0.2l0.2-0.1h0.1l0.2-0.1h0.1H87c0,0,0,0.1-0.1,0.1
				c-0.1,0.1-0.3,0.2-0.4,0.3c0.2-0.1,0.3-0.2,0.4-0.3c0,0,0.1-0.1,0.1-0.1l0,0L87,17.6z M86.3,18.2C86.4,18.2,86.4,18.1,86.3,18.2
				c0,0-0.2,0.1-0.3,0.1C86.1,18.2,86.3,18.2,86.3,18.2"/>
		</g>
		<g>
			<path class="st0" d="M86.4,17.8c-0.3,0.3-0.6,0.4-1,0.4C85.7,18,86.1,17.8,86.4,17.8"/>
		</g>
		<g>
			<path class="st0" d="M86.4,17.8L86.4,17.8c-0.1,0-0.2,0-0.3,0.1L86,17.9l0.1,0C86.2,17.8,86.3,17.8,86.4,17.8L86.4,17.8
				L86.4,17.8C86.4,17.8,86.4,17.8,86.4,17.8L86.4,17.8L86.4,17.8z M86,18.1l0.1-0.1L86,18.1L86,18.1 M85.4,18.2h0.1
				c0.2,0,0.3-0.1,0.4-0.1c-0.1,0.1-0.3,0.1-0.4,0.1L85.4,18.2 M85.4,18.2L85.4,18.2l0.2-0.1C85.5,18.1,85.4,18.1,85.4,18.2"/>
		</g>
		<g>
			<path class="st0" d="M85.3,18c0.2-0.2,0.4-0.4,0.7-0.4C85.9,17.8,85.6,18,85.3,18"/>
		</g>
		<g>
			<path class="st0" d="M86.1,17.6L86.1,17.6c0,0-0.1,0-0.2,0c-0.1,0-0.2,0.1-0.3,0.2l-0.2,0.2h0.1h0.1h-0.1l0,0
				C85.6,17.7,85.8,17.6,86.1,17.6L86,17.7L86.1,17.6L86.1,17.6z M85.8,17.8L85.8,17.8l0.1-0.1l0,0l0,0L85.8,17.8"/>
		</g>
		<g>
			<path class="st0" d="M85.9,17l-0.4,0.2C85.5,17,85.7,17,85.9,17"/>
		</g>
		<g>
			<path class="st0" d="M85.9,17c-0.1,0-0.2,0-0.3,0h0.1H85.9L85.9,17L85.9,17z M85.6,17.1c0,0,0,0.1,0,0.1l0,0l0.4-0.2l-0.4,0.2
				C85.6,17.2,85.6,17.1,85.6,17.1"/>
		</g>
		<g>
			<path class="st0" d="M93.3,7.1c-0.2-0.3-0.5-0.6-0.8-0.9c-0.5-0.2-1.1-0.3-1.6-0.4l0,0c-0.5,0-0.9,0.2-1.2,0.5
				c-0.4,0.5-0.5,1.1-0.4,1.6c0,0,0,0,0,0.1l0,0c0,0,0,0,0,0.1c0,0,0,0.1,0,0.1c-0.1,0.3-0.1,0.6-0.1,0.9c0,0.7,0.3,1.3,0.8,1.8
				c0.5,0.5,1.3,0.5,1.9,0.1h0.1l0,0c0.1,0.1,0.1,0.3,0,0.4c-0.1,0.2-0.1,0.3-0.1,0.5c0,0.1,0,0.1,0,0.2v0.2c0,0,0,0,0,0.1l0,0
				l0.1,0.1l0,0h0.1c0.1,0,0.1-0.1,0.2-0.1c0.1-0.2,0.4-0.2,0.6-0.1c0.3,0.1,0.4,0,0.4-0.2s0.1-0.5,0.2-0.8c0-0.2,0-0.2,0-0.3
				s-0.1-0.1-0.3-0.1c0-0.1,0-0.2-0.1-0.3s0-0.2-0.1-0.3c0,0,0,0,0-0.1l0,0c0-0.1-0.1-0.2-0.1-0.4l0,0c-0.1-0.2-0.1-0.4,0.1-0.6
				c0,0,0.1-0.1,0.1-0.1c0-0.1,0.1-0.1,0.2-0.2c0.1,0,0.2-0.1,0.3-0.2l0,0l0,0l0,0c0.1-0.4,0-0.8-0.2-1.1 M92.8,10.8
				C92.8,10.9,92.8,10.9,92.8,10.8c-0.1,0.3-0.2,0.5-0.3,0.6l-0.1,0.2h-0.1l-0.1-0.2c-0.1-0.2-0.1-0.4-0.2-0.6c0-0.1,0-0.1,0-0.2
				l0.3-0.7l0.1-0.2V10C92.6,10.3,92.6,10.6,92.8,10.8 M92,10.3c-0.1,0.3-0.2,0.5-0.5,0.6c-0.4,0.2-0.9,0.1-1.3-0.2
				c-0.2-0.1-0.3-0.3-0.4-0.5c-0.5-0.7-0.5-1.6-0.1-2.4l1.2-0.5c0.2,0.1,0.4,0.2,0.7,0.2h0.1c0.1,0.2,0.1,0.5,0.1,0.7
				c0,0.2,0,0.5,0.1,0.7l0,0l0,0c0.1-0.1,0.2-0.3,0.3-0.5c0-0.1,0-0.2,0.1-0.3c0.1-0.1,0.2-0.2,0.3-0.1c0.1,0,0.1,0.1,0.1,0.2
				c0,0.1-0.1,0.3-0.2,0.4c-0.2,0.1-0.2,0.3-0.2,0.5l0,0C92.1,9.6,92.1,9.9,92,10.3 M92,11.9c0-0.1,0-0.1,0-0.2v-0.1
				C92.1,11.8,92.1,11.8,92,11.9 M92.8,10.8C92.8,10.8,92.8,10.7,92.8,10.8c0.1-0.1,0.1-0.1,0.2-0.1v0.1c0,0.3-0.1,0.7-0.2,1
				l-0.4-0.1l0.1-0.3C92.6,11.2,92.7,11,92.8,10.8"/>
		</g>
		<g>
			<path class="st0" d="M92.6,9.7V9.5c0,0,0-0.1,0-0.1l-0.1,0.3l-0.3,0.7c0,0.1,0,0.2,0,0.2c0,0.2,0.1,0.4,0.2,0.6
				c0,0.1,0,0.1,0,0.2h0.1l0.1-0.2l0.3-0.6c0,0,0-0.1,0-0.1C92.8,10.3,92.7,10,92.6,9.7 M92.8,10.6c-0.1,0.2-0.2,0.4-0.3,0.6
				l-0.1,0.2h-0.1l-0.1-0.2c-0.1-0.2-0.1-0.4-0.2-0.6c0-0.1,0-0.1,0-0.2l0.3-0.7l0.1-0.2v0.2C92.6,10,92.7,10.3,92.8,10.6
				C92.7,10.6,92.7,10.6,92.8,10.6"/>
		</g>
		<g>
			<path class="st0" d="M90.4,9.2c0.1,0.2,0,0.4,0,0.7l0.3-0.1c0,0,0,0.1-0.1,0.1c-0.1,0.1-0.2,0.2-0.3,0.1s-0.1-0.2-0.1-0.2
				s0-0.3,0.1-0.4C90.3,9.3,90.3,9.2,90.4,9.2L90.4,9.2"/>
		</g>
		<g>
			<path class="st0" d="M91.2,10.2l-0.6,0.3c0.1-0.3,0.3-0.3,0.4-0.4s0.1,0,0.2,0S91.3,10.1,91.2,10.2"/>
		</g>
		<g>
			<path class="st0" d="M91.3,10.1L91.3,10.1c0,0-0.1,0-0.1,0l0,0c-0.2,0-0.4,0.2-0.4,0.4l0,0l0.2-0.1l0.5-0.2l0,0l0,0l0,0l0,0
				L91.3,10.1z M91.3,10.2L91.3,10.2l-0.5,0.2l0,0C90.9,10.2,91,10.1,91.3,10.2L91.3,10.2L91.3,10.2L91.3,10.2L91.3,10.2z"/>
		</g>
		<g>
			<path class="st0" d="M90.8,8.7L90.8,8.7h-0.2c0.1-0.2,0.2-0.3,0.4-0.4C91.1,8.5,90.9,8.6,90.8,8.7"/>
		</g>
		<g>
			<path class="st0" d="M89.5,8.8c0.1-0.1,0.3-0.1,0.4,0L90,9c0,0-0.1,0.1-0.1,0.1C89.8,9,89.6,9,89.5,8.8"/>
		</g>
		<g>
			<path class="st0" d="M91.1,9c0,0.1,0,0.2-0.1,0.2c0,0,0,0,0,0c-0.1,0-0.2-0.1-0.2-0.2c0,0,0,0,0,0c0-0.1,0-0.2,0.1-0.2
				c0,0,0,0,0,0C91.1,8.8,91.2,8.9,91.1,9L91.1,9"/>
		</g>
		<g>
			<path class="st0" d="M90,9.3c0,0.1,0,0.2-0.1,0.2c0,0,0,0,0,0c-0.1,0-0.2-0.1-0.2-0.1c0-0.1,0.1-0.2,0.1-0.2c0,0,0,0,0,0
				C89.9,9.1,90,9.2,90,9.3C90,9.3,90,9.3,90,9.3"/>
		</g>
		<g>
			<path class="st0" d="M94.3,9.3c-0.1,0.5-0.5,0.8-1,0.8c-0.5-0.1-0.8-0.5-0.8-1c0.1-0.5,0.5-0.8,1-0.8C94,8.4,94.4,8.8,94.3,9.3
				C94.3,9.3,94.3,9.3,94.3,9.3"/>
		</g>
		<g>
			<path class="st0" d="M94.2,8.6c-0.2-0.2-0.4-0.3-0.6-0.4h-0.1c-0.2,0-0.4,0.1-0.6,0.2c-0.2,0.2-0.3,0.4-0.4,0.6
				c0,0.1,0,0.2,0,0.3c0,0,0,0.1,0,0.1c0.1,0.1,0.1,0.3,0.3,0.4c0.1,0.1,0.3,0.2,0.5,0.2h0.1c0.5,0,0.9-0.4,0.9-0.9
				C94.3,9,94.2,8.8,94.2,8.6 M93.2,10.1c-0.5-0.1-0.8-0.5-0.8-1c0,0,0,0,0,0c0-0.2,0.2-0.4,0.3-0.6c0.2-0.1,0.3-0.2,0.5-0.2h0.1
				c0.2,0,0.4,0.2,0.6,0.3c0.1,0.2,0.2,0.4,0.2,0.6c-0.1,0.4-0.4,0.8-0.9,0.8L93.2,10.1"/>
		</g>
		<g>
			<path class="st0" d="M70.2,14.1c0.2,0.2-0.1,0.6-0.1,0.6s-0.6-0.1-5-1.2c-1.7-0.3-3.3-1.1-4.5-2.4c-0.2-0.3-0.4-0.5-0.6-0.8
				l-0.2-0.8h0.3c0.1,0.3,0.2,0.6,0.4,0.8l0,0c0.1,0.1,0.2,0.3,0.3,0.4c1.2,1.2,2.7,2,4.3,2.3c1.8,0.4,3.1,0.7,4.1,0.9
				C69.6,14,70.2,14.1,70.2,14.1"/>
		</g>
		<g>
			<path class="st0" d="M84.9,27.3C84.9,27.3,84.9,27.4,84.9,27.3h0.9l1.2-0.1c-0.2-0.6-0.4-1.2-0.5-1.9c0-0.1-0.2,0.1-0.4,0
				c0.1,0.5,0.2,1,0.4,1.5c-0.5,0-0.9,0.1-1.4,0.2C85,27.1,84.9,27.2,84.9,27.3"/>
		</g>
		<g>
			<path class="st0" d="M88.1,27.3c0,0-0.1-0.1-0.1-0.2c0.4-0.1,0.7-0.3,1.1-0.5c0.1-0.1,0.1-0.2,0.1-0.3c0-0.2,0-0.4,0.1-0.6
				s0-0.1,0.1-0.1s0.1,0,0.1,0.1c0,0.4,0,0.6,0,1c0,0.1,0.1,0.3,0,0.3S88.1,27.4,88.1,27.3"/>
		</g>
		<g>
			<path class="st0" d="M89.4,26.8c0-0.3-0.2-0.6-0.6-0.6c0,0-0.1,0-0.1,0c-0.4,0-1.4,1.1-1.4,1.1h0.8L89,27L89.4,26.8z"/>
		</g>
		<g>
			<path class="st0" d="M87.1,27.2c0,0-0.2-0.5-0.3-0.5c-0.5,0-1.1,0-1.6,0.1c-0.4,0.1-1,0.5-1,0.6c0.3,0,0.7,0,1,0L87.1,27.2"/>
		</g>
		<g>
			<path class="st0" d="M35.8,27.9c0,0.2-0.1,0.4-0.2,0.6c-0.2,0.1-0.4,0.2-0.6,0.2h-0.2h-0.2v-0.5h0.3c0.1,0,0.2,0,0.3-0.1
				c0.1-0.1,0.1-0.1,0.1-0.2V26h0.5L35.8,27.9z"/>
		</g>
		<g>
			<path class="st0" d="M38,27.7c0,0.1,0,0.3-0.1,0.4c0,0.1-0.1,0.2-0.2,0.3c-0.1,0.1-0.2,0.1-0.3,0.2c-0.2,0.1-0.5,0.1-0.7,0
				c-0.1,0-0.2-0.1-0.3-0.2c-0.1-0.1-0.1-0.2-0.2-0.3c0-0.1-0.1-0.2-0.1-0.4v-1.1h0.5v1.1c0,0.1,0,0.2,0.1,0.3
				c0.1,0.1,0.4,0.1,0.5,0c0.1-0.1,0.1-0.2,0.1-0.3v-1.1H38V27.7z"/>
		</g>
		<g>
			<path class="st0" d="M39.5,26.6c0.1,0,0.2,0,0.3,0c0.1,0,0.2,0.1,0.2,0.2c0.1,0.1,0.1,0.2,0.2,0.2c0,0.1,0,0.2,0,0.3v1.2h-0.5
				v-1.1c0-0.1,0-0.2-0.1-0.3c-0.1-0.1-0.2-0.1-0.3-0.1c-0.2,0-0.4,0.1-0.4,0.3c0,0,0,0,0,0.1v1.1h-0.5v-1.9H39v0.2
				c0.1-0.1,0.2-0.1,0.2-0.2C39.3,26.6,39.4,26.6,39.5,26.6z"/>
		</g>
		<g>
			<path class="st0" d="M41.9,27.1h-0.5v0.8c0,0.1,0,0.2,0.1,0.2c0.1,0.1,0.2,0.1,0.3,0.1H42v0.4h-0.2h-0.2c-0.2,0-0.4-0.1-0.6-0.2
				c-0.1-0.1-0.2-0.3-0.2-0.5v-0.8h-0.3v-0.4h0.3v-0.5h0.5v0.5H42L41.9,27.1z"/>
		</g>
		<g>
			<path class="st0" d="M43.3,27.6l0.7,1h-0.6L43,28l-0.4,0.6H42l0.7-1L42,26.7h0.6l0.4,0.5l0.4-0.5H44L43.3,27.6z"/>
		</g>
		<g>
			<path class="st0" d="M44.9,26.6c0.3,0,0.5,0.1,0.7,0.3l-0.3,0.3c-0.1-0.1-0.1-0.1-0.2-0.1c-0.1,0-0.2,0-0.2,0c0,0-0.1,0-0.2,0
				c0,0,0,0.1,0,0.1c0,0,0,0.1,0,0.1c0,0,0.1,0.1,0.2,0.1l0.2,0.1c0.1,0.1,0.3,0.1,0.4,0.2c0.1,0.1,0.1,0.2,0.1,0.4
				c0,0.2-0.1,0.3-0.2,0.5c-0.1,0.1-0.2,0.1-0.2,0.1c-0.1,0-0.2,0-0.3,0c-0.2,0-0.3,0-0.5-0.1c-0.1-0.1-0.2-0.2-0.3-0.3l0.3-0.3
				c0.1,0.1,0.2,0.1,0.3,0.2c0.1,0.1,0.2,0.1,0.3,0.1c0.1,0,0.1,0,0.2,0c0,0,0.1-0.1,0.1-0.1c0,0,0-0.1,0-0.1L45,27.9l-0.2-0.1
				l-0.2-0.1c-0.1,0-0.1-0.1-0.2-0.1c0,0-0.1-0.1-0.1-0.2c0-0.1,0-0.1,0-0.2c0-0.1,0-0.2,0-0.2c0-0.1,0.1-0.1,0.2-0.2
				c0.1,0,0.1-0.1,0.2-0.1C44.8,26.6,44.8,26.6,44.9,26.6z"/>
		</g>
		<g>
			<path class="st0" d="M47.7,26.6c0.3,0,0.5,0.1,0.7,0.3l-0.3,0.3c-0.1-0.1-0.1-0.1-0.2-0.1c-0.1,0-0.2,0-0.2,0c0,0-0.1,0-0.2,0
				c0,0-0.1,0.1-0.1,0.1c0,0,0,0.1,0,0.1c0,0,0.1,0.1,0.2,0.1l0.2,0.1c0.1,0.1,0.3,0.1,0.4,0.2c0.1,0.1,0.2,0.2,0.2,0.4
				c0,0.1,0,0.2-0.1,0.3c0,0.1-0.1,0.1-0.2,0.2c-0.1,0.1-0.2,0.1-0.2,0.1c-0.1,0-0.2,0-0.3,0c-0.2,0-0.3,0-0.5-0.1
				c-0.1-0.1-0.3-0.2-0.3-0.3l0.3-0.3c0.1,0.1,0.2,0.1,0.2,0.2c0.1,0,0.2,0.1,0.3,0.1c0.1,0,0.1,0,0.2,0c0.1,0,0.1-0.1,0.1-0.1
				c0,0,0-0.1-0.1-0.1c0,0-0.1-0.1-0.1-0.1l-0.2-0.1l-0.2-0.1c-0.1,0-0.1-0.1-0.2-0.1c0,0-0.1-0.1-0.1-0.2c0-0.1,0-0.1,0-0.2
				c0-0.1,0-0.2,0.1-0.2c0-0.1,0.1-0.1,0.1-0.2c0.1,0,0.1-0.1,0.2-0.1C47.5,26.6,47.6,26.6,47.7,26.6z"/>
		</g>
		<g>
			<path class="st0" d="M49.7,26.6c0.1,0,0.3,0,0.4,0.1c0.1,0.1,0.2,0.1,0.3,0.2c0.1,0.1,0.2,0.2,0.2,0.3c0.1,0.1,0.1,0.3,0.1,0.4
				c0,0.1,0,0.3-0.1,0.4c0,0.1-0.1,0.2-0.2,0.3c-0.1,0.1-0.2,0.2-0.3,0.2c-0.1,0.1-0.3,0.1-0.4,0.1c-0.1,0-0.3,0-0.4-0.1
				c-0.1-0.1-0.2-0.1-0.3-0.2c-0.1-0.1-0.2-0.2-0.2-0.3c-0.1-0.1-0.1-0.3-0.1-0.4c0-0.1,0-0.3,0.1-0.4c0.1-0.1,0.1-0.2,0.2-0.3
				c0.1-0.1,0.2-0.2,0.3-0.2C49.4,26.6,49.5,26.6,49.7,26.6z M49.7,27.1c-0.1,0-0.3,0-0.4,0.1c-0.1,0.1-0.1,0.2-0.1,0.4
				c0,0.1,0,0.3,0.1,0.4c0.1,0.1,0.2,0.2,0.4,0.1c0.1,0,0.1,0,0.2,0c0.1,0,0.1-0.1,0.1-0.1c0,0,0.1-0.1,0.1-0.2c0-0.1,0-0.1,0-0.2
				c0-0.1,0-0.1,0-0.2c0-0.1-0.1-0.1-0.1-0.2c0-0.1-0.1-0.1-0.2-0.1C49.8,27.1,49.7,27.1,49.7,27.1z"/>
		</g>
		<g>
			<path class="st0" d="M53.3,26.6c0.1,0,0.2,0,0.3,0c0.1,0,0.2,0.1,0.2,0.2c0.1,0.1,0.1,0.2,0.1,0.2c0,0.1,0,0.2,0,0.3v1.2h-0.5
				v-1.1c0-0.1,0-0.2-0.1-0.3c-0.1-0.1-0.2-0.1-0.2-0.1c-0.1,0-0.2,0-0.3,0.1c-0.1,0.1-0.1,0.2-0.1,0.3v1.1h-0.5v-1.1
				c0-0.1,0-0.2-0.1-0.3c-0.1-0.1-0.2-0.1-0.2-0.1c-0.1,0-0.2,0-0.3,0.1c-0.1,0.1-0.1,0.2-0.1,0.3v1.1h-0.5v-1.9h0.5v0.2
				c0.1-0.1,0.1-0.1,0.2-0.2c0.1,0,0.2,0,0.3,0c0.1,0,0.2,0,0.3,0.1c0.1,0,0.2,0.1,0.2,0.2c0.1-0.1,0.2-0.2,0.3-0.2
				C53.1,26.7,53.2,26.6,53.3,26.6z"/>
		</g>
		<g>
			<path class="st0" d="M55.4,26.6c0.1,0,0.3,0,0.4,0.1c0.1,0.1,0.2,0.1,0.3,0.2c0.1,0.1,0.2,0.2,0.2,0.3c0.1,0.1,0.1,0.3,0.1,0.4
				c0,0.1,0,0.3-0.1,0.4c0,0.1-0.1,0.2-0.2,0.3c-0.1,0.1-0.2,0.2-0.3,0.2c-0.1,0.1-0.3,0.1-0.4,0.1c-0.1,0-0.3,0-0.4-0.1
				c-0.1-0.1-0.2-0.1-0.3-0.2c-0.1-0.1-0.2-0.2-0.2-0.3c-0.1-0.1-0.1-0.3-0.1-0.4c0-0.1,0-0.3,0.1-0.4c0.1-0.1,0.1-0.2,0.2-0.3
				c0.1-0.1,0.2-0.2,0.3-0.2C55.1,26.6,55.3,26.6,55.4,26.6z M55.4,27.1c-0.1,0-0.3,0.1-0.4,0.1c-0.1,0.1-0.1,0.2-0.1,0.4
				c0,0.1,0,0.3,0.1,0.4c0.1,0.1,0.2,0.2,0.4,0.1c0.1,0,0.1,0,0.2,0c0.1,0,0.1-0.1,0.2-0.1c0,0,0.1-0.1,0.1-0.2c0-0.1,0-0.1,0-0.2
				c0-0.1,0-0.1,0-0.2c0-0.1-0.1-0.1-0.1-0.2c0-0.1-0.1-0.1-0.2-0.1C55.6,27.1,55.5,27.1,55.4,27.1z"/>
		</g>
		<g>
			<path class="st0" d="M57.5,26.6c0.3,0,0.5,0.1,0.7,0.3l-0.3,0.3c-0.1-0.1-0.1-0.1-0.2-0.1c-0.1,0-0.2,0-0.2,0c0,0-0.1,0-0.2,0
				c0,0,0,0.1,0,0.1c0,0,0,0.1,0,0.1c0,0,0.1,0.1,0.2,0.1l0.2,0.1c0.1,0.1,0.3,0.1,0.4,0.2c0.1,0.1,0.1,0.2,0.1,0.4
				c0,0.2-0.1,0.3-0.2,0.5c-0.1,0.1-0.2,0.1-0.2,0.1c-0.1,0-0.2,0-0.3,0c-0.2,0-0.3,0-0.5-0.1c-0.1-0.1-0.2-0.2-0.3-0.3l0.3-0.3
				c0.1,0.1,0.2,0.1,0.2,0.2c0.1,0,0.2,0.1,0.3,0.1c0.1,0,0.1,0,0.2,0c0,0,0.1-0.1,0.1-0.1c0,0,0-0.1-0.1-0.1c0,0-0.1-0.1-0.1-0.1
				l-0.2-0.1l-0.2-0.1c-0.1,0-0.1-0.1-0.2-0.1c0,0-0.1-0.1-0.1-0.2c0-0.1,0-0.1,0-0.2c0-0.1,0-0.2,0-0.2c0-0.1,0.1-0.1,0.2-0.2
				l0.2-0.1C57.3,26.6,57.4,26.6,57.5,26.6z"/>
		</g>
		<g>
			<path class="st0" d="M61.8,26.6c0.1,0,0.2,0,0.3,0c0.1,0,0.2,0.1,0.2,0.2c0.1,0.1,0.1,0.2,0.1,0.2c0,0.1,0.1,0.2,0,0.3v1.2H62
				v-1.1c0-0.1,0-0.2-0.1-0.3c-0.1-0.1-0.2-0.1-0.2-0.1c-0.2,0-0.3,0.1-0.4,0.3c0,0,0,0,0,0.1v1.1h-0.5v-1.1c0-0.1,0-0.2-0.1-0.3
				c-0.1-0.1-0.2-0.1-0.3-0.1c-0.1,0-0.2,0-0.2,0.1c-0.1,0.1-0.1,0.2-0.1,0.3v1.1h-0.5v-1.9H60v0.2c0.1-0.1,0.1-0.1,0.2-0.2
				c0.1,0,0.2,0,0.3,0c0.1,0,0.2,0,0.3,0.1c0.1,0,0.2,0.1,0.2,0.2c0.1-0.1,0.2-0.2,0.3-0.2C61.5,26.6,61.7,26.6,61.8,26.6z"/>
		</g>
		<g>
			<path class="st0" d="M63.8,26.6c0.1,0,0.2,0,0.3,0c0.1,0,0.2,0.1,0.3,0.2c0.1,0.1,0.1,0.2,0.2,0.2c0,0.1,0.1,0.2,0.1,0.4v1.1
				h-0.5v-0.2c-0.1,0.1-0.2,0.1-0.2,0.2c-0.1,0-0.2,0.1-0.3,0.1c-0.1,0-0.2,0-0.3,0c-0.1,0-0.1-0.1-0.2-0.1c-0.1,0-0.1-0.1-0.1-0.2
				c0-0.1,0-0.2,0-0.2c0-0.2,0.1-0.3,0.2-0.4c0.2-0.1,0.3-0.2,0.5-0.1h0.5v-0.1c0-0.1,0-0.2-0.1-0.2C64,27,63.9,27,63.8,27
				c-0.1,0-0.2,0-0.3,0.1c-0.1,0.1-0.2,0.1-0.2,0.2L63,27C63.2,26.8,63.5,26.6,63.8,26.6z M63.7,28.2c0.1,0,0.2,0,0.3-0.1
				c0.1-0.1,0.1-0.2,0.1-0.3l0,0h-0.4c-0.2,0-0.3,0.1-0.3,0.2c0,0.1,0,0.1,0.1,0.2C63.6,28.2,63.6,28.2,63.7,28.2z M64.5,25.6
				L64,26.3h-0.4l0.3-0.8L64.5,25.6L64.5,25.6z"/>
		</g>
		<g>
			<path class="st0" d="M65.7,26.6c0.3,0,0.5,0.1,0.7,0.3l-0.3,0.3c-0.1-0.1-0.1-0.1-0.2-0.1c-0.1,0-0.2,0-0.2,0c0,0-0.1,0-0.2,0
				c0,0-0.1,0.1-0.1,0.1c0,0,0,0.1,0,0.1c0,0,0.1,0.1,0.2,0.1l0.2,0.1c0.2,0.1,0.3,0.1,0.4,0.2c0.1,0.1,0.1,0.2,0.1,0.4
				c0,0.2-0.1,0.3-0.2,0.5c-0.1,0.1-0.2,0.1-0.2,0.1c-0.1,0-0.2,0-0.3,0c-0.2,0-0.3,0-0.5-0.1c-0.1-0.1-0.3-0.2-0.3-0.3l0.3-0.3
				c0.1,0.1,0.2,0.1,0.2,0.2c0.1,0,0.2,0.1,0.3,0.1c0.1,0,0.1,0,0.2,0c0.1,0,0.1,0,0.2-0.1c0,0,0,0,0,0c0,0,0-0.1-0.1-0.1
				c0,0-0.1-0.1-0.1-0.1l-0.2-0.1l-0.2-0.1c-0.1,0-0.1-0.1-0.2-0.1c0,0-0.1-0.1-0.1-0.2c0-0.1,0-0.1,0-0.2c0-0.1,0-0.2,0.1-0.2
				c0-0.1,0.1-0.1,0.2-0.2c0.1,0,0.1-0.1,0.2-0.1C65.6,26.6,65.7,26.6,65.7,26.6z"/>
		</g>
		<g>
			<path class="st0" d="M68.9,27.1h-0.4v1.5h-0.5v-1.5h-0.3v-0.4h0.3v-0.3c0-0.2,0.1-0.4,0.2-0.5c0.2-0.1,0.3-0.2,0.5-0.2h0.2H69V26
				h-0.2c-0.1,0-0.2,0-0.3,0.1c-0.1,0.1-0.1,0.1-0.1,0.2v0.3h0.4V27.1z"/>
		</g>
		<g>
			<path class="st0" d="M70.9,27.7c0,0.1,0,0.3-0.1,0.4c0,0.1-0.1,0.2-0.2,0.3c-0.2,0.2-0.4,0.2-0.6,0.2c-0.1,0-0.2,0-0.4-0.1
				c-0.1,0-0.2-0.1-0.3-0.2c-0.1-0.1-0.1-0.2-0.2-0.3c-0.1-0.1-0.1-0.2-0.1-0.4v-1.1h0.5v1.1c0,0.2,0.2,0.4,0.3,0.4c0,0,0,0,0,0
				c0.1,0,0.2,0,0.2-0.1c0.1-0.1,0.1-0.2,0.1-0.3v-1.1h0.5V27.7z"/>
		</g>
		<g>
			<path class="st0" d="M72.2,26.6c0.1,0,0.3,0,0.4,0.1c0.1,0,0.2,0.1,0.3,0.2c0.1,0.1,0.1,0.2,0.2,0.3c0,0.1,0.1,0.2,0.1,0.4
				c0,0.1,0,0.1,0,0.2c0,0,0,0.1,0,0.1h-1.4c0,0.1,0.1,0.2,0.2,0.3c0.1,0.1,0.2,0.1,0.4,0.1c0.1,0,0.2,0,0.3,0
				c0.1,0,0.2-0.1,0.2-0.1l0.2,0.4c-0.1,0.1-0.2,0.2-0.4,0.2c-0.1,0.1-0.3,0.1-0.4,0.1c-0.1,0-0.3,0-0.4-0.1c-0.1,0-0.2-0.1-0.3-0.2
				c-0.1-0.1-0.2-0.2-0.2-0.3c-0.1-0.1-0.1-0.3-0.1-0.4c0-0.1,0-0.3,0.1-0.4c0-0.1,0.1-0.2,0.2-0.3c0.1-0.1,0.2-0.2,0.3-0.2
				C72,26.6,72.1,26.6,72.2,26.6z M72.2,27c-0.1,0-0.2,0-0.3,0.1c-0.1,0.1-0.1,0.2-0.2,0.3h0.9c0-0.1,0-0.2-0.1-0.3
				C72.5,27,72.3,27,72.2,27L72.2,27z"/>
		</g>
		<g>
			<path class="st0" d="M74.5,26.6c0.1,0,0.1,0,0.2,0v0.5h-0.1c-0.1,0-0.3,0-0.4,0.1c-0.1,0.1-0.2,0.2-0.2,0.4v1h-0.5v-2H74v0.2
				c0.1-0.1,0.1-0.1,0.2-0.2C74.3,26.6,74.4,26.6,74.5,26.6z"/>
		</g>
		<g>
			<path class="st0" d="M76.2,27.1h-0.6v0.8c0,0.1,0,0.2,0.1,0.2c0.1,0,0.2,0.1,0.3,0.1h0.2v0.4H76h-0.2c-0.2,0-0.4-0.1-0.6-0.2
				c-0.1-0.1-0.2-0.3-0.2-0.5v-0.8h-0.3v-0.4h0.3v-0.5h0.5v0.5h0.6L76.2,27.1z"/>
		</g>
		<g>
			<path class="st0" d="M77.4,26.6c0.1,0,0.3,0,0.4,0.1c0.1,0,0.2,0.1,0.3,0.2c0.1,0.1,0.1,0.2,0.2,0.3c0,0.1,0.1,0.2,0.1,0.4
				c0,0.1,0,0.1,0,0.2c0,0,0,0.1,0,0.1h-1.4c0,0.1,0.1,0.2,0.2,0.3c0.2,0.1,0.4,0.1,0.6,0c0.1,0,0.2,0,0.2-0.1l0.2,0.4
				c-0.1,0.1-0.2,0.2-0.4,0.2c-0.1,0.1-0.3,0.1-0.4,0.1c-0.1,0-0.3,0-0.4-0.1c-0.1,0-0.2-0.1-0.3-0.2c-0.1-0.1-0.2-0.2-0.2-0.3
				c-0.1-0.1-0.1-0.3-0.1-0.4c0-0.1,0-0.3,0.1-0.4c0-0.1,0.1-0.2,0.2-0.3c0.1-0.1,0.2-0.2,0.3-0.2C77.1,26.6,77.3,26.6,77.4,26.6z
				 M77.4,27c-0.1,0-0.2,0-0.3,0.1C77,27.2,77,27.3,77,27.4h0.9c0-0.1,0-0.2-0.1-0.3C77.6,27,77.5,27,77.4,27L77.4,27z"/>
		</g>
		<g>
			<path class="st0" d="M79.3,26.6c0.3,0,0.5,0.1,0.7,0.3l-0.3,0.3c-0.1-0.1-0.1-0.1-0.2-0.1c-0.1,0-0.2,0-0.2,0c0,0-0.1,0-0.2,0
				c0,0-0.1,0.1-0.1,0.1c0,0,0,0.1,0,0.1c0,0,0.1,0.1,0.2,0.1l0.2,0.1c0.1,0.1,0.3,0.1,0.4,0.2C80,27.7,80,27.9,80,28
				c0,0.1,0,0.2-0.1,0.3c0,0.1-0.1,0.2-0.2,0.2c-0.1,0.1-0.2,0.1-0.2,0.1c-0.1,0-0.2,0-0.3,0c-0.2,0-0.3,0-0.5-0.1
				c-0.1-0.1-0.3-0.2-0.3-0.3l0.3-0.3c0.1,0.1,0.2,0.1,0.2,0.2c0.1,0,0.2,0.1,0.3,0.1c0.1,0,0.1,0,0.2,0c0,0,0.1-0.1,0.1-0.1
				c0,0,0-0.1,0-0.1l-0.1-0.1l-0.2-0.1l-0.2-0.1c-0.1,0-0.1-0.1-0.2-0.1c0,0-0.1-0.1-0.1-0.2c0-0.1,0-0.1,0-0.2c0-0.1,0-0.2,0-0.2
				c0-0.1,0.1-0.1,0.2-0.2c0.1,0,0.1-0.1,0.2-0.1C79.1,26.6,79.2,26.6,79.3,26.6z"/>
		</g>
		<g>
			<path class="st0" d="M65.2,30.9h0.7V34h-0.7v-1.6l-0.9,1.5l-0.9-1.5V34h-0.7v-3.1h0.7l1,1.8L65.2,30.9z"/>
		</g>
		<g>
			<path class="st0" d="M67.3,33.3h1.4V34h-2.2v-3.1h2.1v0.7h-1.4v0.6h1v0.7h-1V33.3z M67.1,30.5l0.6-0.7h0.8l-0.8,0.7H67.1z"/>
		</g>
		<g>
			<path class="st0" d="M71.1,32.5l1,1.6h-0.9l-0.7-1.1L69.9,34H69l1-1.6l-1-1.6h0.9l0.7,1.2l0.7-1.1h0.8L71.1,32.5z"/>
		</g>
		<g>
			<path class="st0" d="M72.5,30.9h0.7V34h-0.7V30.9z"/>
		</g>
		<g>
			<path class="st0" d="M76.4,33.7c-0.2,0.1-0.3,0.2-0.5,0.3c-0.2,0-0.4,0.1-0.6,0.1c-0.4,0-0.8-0.2-1.1-0.5c-0.6-0.6-0.6-1.6,0-2.3
				c0.6-0.6,1.6-0.6,2.2-0.1l-0.3,0.6c-0.1-0.1-0.1-0.1-0.2-0.2c-0.2-0.1-0.4-0.2-0.7-0.1c-0.5,0-0.8,0.4-0.8,0.9
				c0,0.2,0.1,0.5,0.2,0.6c0.2,0.2,0.4,0.3,0.6,0.3c0.2,0,0.5,0,0.7-0.1c0.1,0,0.2-0.1,0.2-0.2L76.4,33.7z"/>
		</g>
		<g>
			<path class="st0" d="M79.2,31.3c0.6,0.6,0.6,1.6,0,2.2c0,0,0,0,0,0c-0.3,0.3-0.7,0.5-1.1,0.5c-0.4,0-0.8-0.2-1.1-0.5
				c-0.3-0.3-0.5-0.7-0.5-1.1c0-0.4,0.2-0.8,0.5-1.2c0.3-0.3,0.7-0.5,1.1-0.5C78.6,30.8,79,31,79.2,31.3z M78.7,31.8
				c-0.3-0.3-0.8-0.4-1.2-0.1c0,0,0,0-0.1,0.1c-0.2,0.2-0.3,0.4-0.3,0.6c0,0.2,0.1,0.5,0.3,0.6c0.3,0.3,0.8,0.4,1.2,0c0,0,0,0,0,0
				c0.2-0.2,0.3-0.4,0.2-0.6C79,32.2,78.9,32,78.7,31.8z"/>
		</g>
	</g>
</g>
</svg>
