<svg xmlns="http://www.w3.org/2000/svg" viewBox="0 0 141.3 125.96"><defs><style>.cls-1{fill:#f04d56;}</style></defs><g id="Layer_2" data-name="Layer 2"><g id="Capa_1" data-name="Capa 1"><path class="cls-1" d="M7.62,76.88h12c-1.31-1.74-2.14-2.81-2.94-3.89-2.46-3.38-5.05-6.67-7.33-10.16-4.08-6.24-4.42-8.15-3.66-17l6.87,1c-1.93-5.27-3.68-10.32-5.61-15.3C4.78,26.05,5,20.53,6.52,15a20.14,20.14,0,0,1,1.59-3.32A7.28,7.28,0,0,1,9.93,12C20,17.05,30,22.15,40.05,27.19c7.06,3.55,14.76,4.62,22.82,6-.3-8.67,4.33-15,8.89-21.35,10.18-14.11,29.79-14,40.32-8,4.09,2.34,7.14,6.5,11,10.2,2-1.69,4.56-3.87,7.15-6,1-.82,2-1.59,3-2.32,1.43-1,3.22-1.71,4.37-.16.64.88.53,2.81,0,3.94-1.38,3.13-3.15,6.09-5.14,9.83,1.88-.34,3.05-.81,4.14-.67,1.49.19,3.72.45,4.18,1.39a5.69,5.69,0,0,1-.29,4.9,32.06,32.06,0,0,1-6.12,6.14c-3.11,2.51-4.67,5.45-3.95,9.49.22,1.24.08,2.55.29,3.8,2.69,15.69-2.1,29.23-11.17,41.91-7,9.73-16.06,16.4-26.18,22.47-12.19,7.31-25.64,11-38.76,15.68a20,20,0,0,1-5.85,1.23c-13.62.47-27.25.67-40.66-2.49a31.94,31.94,0,0,1-4.64-1.54c-2.19-.89-3.67-2.47-3.54-5s1.75-4,3.94-4.73c4.62-1.62,9.34-3,13.91-4.71,4.16-1.58,8.18-3.5,13.43-5.79-9.6-4.11-15.08-10.89-20.22-18C9.86,81.81,9.12,79.79,7.62,76.88Z"/></g></g></svg>