<svg id="Capa_1" data-name="Capa 1" xmlns="http://www.w3.org/2000/svg" viewBox="0 0 123.55 36.37"><defs><style>.cls-1{fill:#dac6a1;}.cls-2{fill:#fff;}</style></defs><title>Logo_128x50</title><path class="cls-1" d="M33.65,23.53a7.88,7.88,0,0,0-.6-2.5.28.28,0,0,0-.22-.09.17.17,0,0,0-.13,0v.09a8.69,8.69,0,0,1,.55,2.31A3.81,3.81,0,0,1,33,25a5.07,5.07,0,0,0,0,1.23c0,.17-.09.24-.16.24s-.15-.06-.16-.25c0-.47,0-.87-.06-1.22v0a7.88,7.88,0,0,0-.17-1.7A3.57,3.57,0,0,0,31.67,22a3.5,3.5,0,0,1-.44-1c0-.07,0-.14-.06-.23s-.05-.19-.08-.27L30.93,20a.13.13,0,0,0-.11-.05.29.29,0,0,0-.22.12.24.24,0,0,0,0,.16L31,21.77a2.89,2.89,0,0,0,.54.78h0a4.1,4.1,0,0,1,.34.41,1.26,1.26,0,0,1,.26.71c.07.52.13,1.26.19,2.32l.3,1.53a5,5,0,0,1-.07,1.7c0,.23,0,.3,0,.32h0s.11,0,.27-.17c.42-.52.4-2.27.38-3.68a6.53,6.53,0,0,1,.2-1.14,3.49,3.49,0,0,0,.15-1" transform="translate(-2.52 -6.68)"/><path class="cls-1" d="M32.12,21.23l0-.27a.34.34,0,0,0-.05-.14.5.5,0,0,0-.3-.24h-.13s0,0,0,.06a2.4,2.4,0,0,0,.72,1.44h.06s0-.05,0-.15l-.19-.46a.81.81,0,0,1-.08-.25" transform="translate(-2.52 -6.68)"/><path class="cls-1" d="M30.25,25.31h0c-.07,0-.14-.08-.17-.18a4.16,4.16,0,0,1-.37-1.33c0-.19-.08-.38-.14-.57a1.47,1.47,0,0,0-.48-.84,4.19,4.19,0,0,1-1.26-1.67c-.07-.15-.16-.25-.22-.25s-.06,0-.09.06a.38.38,0,0,0,0,.32,4.15,4.15,0,0,0,.55,1,1.79,1.79,0,0,0,.23.24l.05,0a4.61,4.61,0,0,1,.77.75,1.89,1.89,0,0,1,.27.82,1.25,1.25,0,0,0,0,.19v0a7.46,7.46,0,0,0,.77,2.15,3,3,0,0,1,.21.7l.14.91c0,.24.11.3.15.3l.05,0a.42.42,0,0,0,.06-.25,18,18,0,0,0-.13-2.7A5.62,5.62,0,0,0,30,22.87c-.07-.09-.14-.15-.22-.15h0s0,.07,0,.18a6.49,6.49,0,0,1,.51,2.16.29.29,0,0,1-.05.22Z" transform="translate(-2.52 -6.68)"/><path class="cls-1" d="M28.58,20.66a.17.17,0,0,0-.19-.13.14.14,0,0,0-.12,0v0a2.27,2.27,0,0,0,.66,1.12l.08,0h0s0-.05,0-.11a2.61,2.61,0,0,1-.43-1" transform="translate(-2.52 -6.68)"/><path class="cls-1" d="M31.51,25.39h0s-.1,0-.16-.15a.51.51,0,0,1-.06-.2L31,23.47a2.63,2.63,0,0,0-.58-1.2,5.49,5.49,0,0,1-1.13-1.93c-.06-.22-.14-.27-.17-.27s-.09.06-.1.18a.42.42,0,0,0,0,.25,4,4,0,0,0,1,1.8,1.48,1.48,0,0,1,.52.95h0c0,.19.08.37.11.56h0a12.87,12.87,0,0,0,.65,2.44,2.17,2.17,0,0,1,.18.72c0,.58.06.94.1,1.23s.1.34.15.34.11-.08.14-.29a13.74,13.74,0,0,0,0-3,10.37,10.37,0,0,0-.2-1.6,1.56,1.56,0,0,0-.29-.64c-.1-.12-.15-.15-.17-.15a.5.5,0,0,0,0,.16,13,13,0,0,1,.35,2,.31.31,0,0,1-.06.25Z" transform="translate(-2.52 -6.68)"/><path class="cls-1" d="M30.51,21.6a2.94,2.94,0,0,1-.3-.69l-.07-.39a.41.41,0,0,0-.09-.2.35.35,0,0,0-.24-.12.11.11,0,0,0-.08,0,.13.13,0,0,0,0,.11,2.69,2.69,0,0,0,.75,1.47h0l.09.05h0s0,0,0-.09a.41.41,0,0,0-.07-.17" transform="translate(-2.52 -6.68)"/><path class="cls-1" d="M28.82,25.29v0c0,.1.07.19.1.29a.63.63,0,0,0,.12.23s.08.07.11.06.08-.06.09-.09a.55.55,0,0,0,0-.23,5,5,0,0,0-.69-2.89c-.09-.09-.13-.09-.13-.09s0,0,0,.07a.27.27,0,0,0,0,.16,2.82,2.82,0,0,1,.25.72.24.24,0,0,1,0,.21l0,0h0c-.06,0-.12-.06-.17-.17a1.89,1.89,0,0,0-.82-1,5.59,5.59,0,0,1-1.19-.92,3,3,0,0,1-.31-.49s0-.07-.08-.08-.15.1-.17.21,0,.08,0,.14a2.45,2.45,0,0,0,1,1.05,2.78,2.78,0,0,1,1.4,1.34c.26.62.41,1.1.51,1.41" transform="translate(-2.52 -6.68)"/><path class="cls-1" d="M26.71,20.93c-.08,0-.14,0-.15.07v0a2.12,2.12,0,0,0,.79.81l.08,0h0s0,0-.05-.09a2.4,2.4,0,0,1-.54-.75.19.19,0,0,0-.16-.08" transform="translate(-2.52 -6.68)"/><path class="cls-1" d="M25.28,22.53l0,0a4.45,4.45,0,0,1,.46.18,1.27,1.27,0,0,1,.41.27A7.57,7.57,0,0,1,27,24L27,24c.2.28.41.56.65.84a.16.16,0,0,0,.13.06.11.11,0,0,0,.08,0,.19.19,0,0,0,0-.15,8.72,8.72,0,0,0-.7-1.68.33.33,0,0,0-.31-.15h0v0l.16.3,0,.07v0a.1.1,0,0,1-.08,0h0l-.07,0h0v0a3.26,3.26,0,0,0-.44-.52.85.85,0,0,0-.25-.17l-.58-.23a2.81,2.81,0,0,1-.43-.26c-.14-.12-.29-.25-.45-.41l-.1,0a.08.08,0,0,0-.07,0,.23.23,0,0,0,0,.21,1.19,1.19,0,0,0,.45.44,1.36,1.36,0,0,0,.27.12" transform="translate(-2.52 -6.68)"/><path class="cls-1" d="M31.06,28.79c-.42-.26-.71-.45-.95-.62-1.62-1.23-3.27-2.42-5-3.63a.14.14,0,0,0-.1,0s0,0,0,0a.32.32,0,0,0,.16.31l5.25,3.85.06,0a.38.38,0,0,1,.19.16s.06.14-.09.25a1.07,1.07,0,0,1-.51.13,1.43,1.43,0,0,1-.9-.34c-1.4-1.1-2.79-2.22-4.08-3.26a.16.16,0,0,0-.1,0h0a.24.24,0,0,0,0,.2.38.38,0,0,0,.14.19c1.36,1.1,2.72,2.21,4,3.3a1.68,1.68,0,0,0,.89.24,1.86,1.86,0,0,0,1.11-.45.23.23,0,0,0-.05-.33" transform="translate(-2.52 -6.68)"/><path class="cls-1" d="M29.1,28.52a3.79,3.79,0,0,0,.6.37l.12,0s.06,0,.06,0,0-.07-.07-.13l-4.69-3.63-.07,0,0,0a.31.31,0,0,0,.14.26Z" transform="translate(-2.52 -6.68)"/><path class="cls-1" d="M28,28.73l-3.05-2.56a.16.16,0,0,0-.09,0l0,0s0,.09.09.18c.88.81,1.85,1.65,2.85,2.5a2.32,2.32,0,0,0,.41.31.28.28,0,0,0,.17.05c.06,0,.1,0,.11-.06s0,0,0-.05Z" transform="translate(-2.52 -6.68)"/><path class="cls-1" d="M25.61,22.07h.1a.18.18,0,0,0,0-.06.67.67,0,0,0-.13-.2.6.6,0,0,0-.23-.16l-.17,0s-.05,0-.06,0v.06a1.48,1.48,0,0,0,.49.37" transform="translate(-2.52 -6.68)"/><path class="cls-1" d="M28.53,29.85a.85.85,0,0,0,.45-.14s.06-.06.05-.09,0-.06-.08-.08l-.07,0-.09,0h-.05l-.2,0a1,1,0,0,1-.7-.26c-.75-.63-1.33-1.17-1.85-1.64l0,0c-.39-.36-.76-.7-1.16-1,0,0-.05,0-.07,0h0a.17.17,0,0,0,0,.1.35.35,0,0,0,.09.11l.18.19c.92.86,1.75,1.64,2.6,2.4a2,2,0,0,0,.61.44,1.81,1.81,0,0,0,.38.05" transform="translate(-2.52 -6.68)"/><path class="cls-1" d="M24.4,26.89c.67.73,1.38,1.45,2.17,2.2a1.06,1.06,0,0,0,.54.32h0a.17.17,0,0,0-.06-.07c-.7-.59-1.44-1.33-2.07-2a1.59,1.59,0,0,1-.13-.13l0-.05a2.92,2.92,0,0,0-.4-.38h-.07a.11.11,0,0,0,0,.09" transform="translate(-2.52 -6.68)"/><path class="cls-1" d="M27.43,30a.52.52,0,0,0,.18,0,.05.05,0,0,0,0-.06.14.14,0,0,0-.14-.1,1.42,1.42,0,0,1-.87-.34c-.81-.74-1.61-1.52-2.37-2.31a.1.1,0,0,0-.08-.05h0a.39.39,0,0,0,0,.23.92.92,0,0,0,.11.14l0,0c.44.46,1,1.05,1.79,1.79a2.68,2.68,0,0,0,.72.56,1.38,1.38,0,0,0,.57.15" transform="translate(-2.52 -6.68)"/><path class="cls-1" d="M26.28,29.72s0,0,0,0a.18.18,0,0,0-.15-.15c-.37-.06-.86-.61-1.37-1.19L24.54,28l-.05,0,0,.05a.1.1,0,0,0,0,.09l1.08,1.25a1,1,0,0,0,.74.33Z" transform="translate(-2.52 -6.68)"/><path class="cls-1" d="M12.68,16.41h0a.4.4,0,0,1,.15,0,.38.38,0,0,1,.16,0,.2.2,0,0,0,.1,0,.25.25,0,0,0,.12,0,1.15,1.15,0,0,1,.4-.32.76.76,0,0,1,.21,0,.7.7,0,0,1,.43.16.17.17,0,0,1,.05.17c0,.05-.07.08-.16.09H14a1.77,1.77,0,0,0-.43.06.71.71,0,0,0-.56.79h0c0,.07,0,.26-.15.26a.32.32,0,0,1-.19-.1.79.79,0,0,1-.27-.56.73.73,0,0,1,.3-.51m-.48.34a.62.62,0,0,0-.06.54,1.18,1.18,0,0,0,1.15.77h0c.14,0,.24,0,.26-.1s0-.12-.07-.15a.69.69,0,0,1-.28-.74.75.75,0,0,1,.73-.44.81.81,0,0,1,.22,0,.8.8,0,0,0,.43-.12.91.91,0,0,1,.6-.27.72.72,0,0,1,.28.05h0a.19.19,0,0,1,0,.3.37.37,0,0,1-.25.12,1.26,1.26,0,0,0-.48.22.17.17,0,0,0,0,.07s0,0,.13,0l.17,0,.17,0a3.52,3.52,0,0,0,.91-.58c.09-.08.1-.14,0-.25a1.16,1.16,0,0,0-.8-.34,1.92,1.92,0,0,0-.32,0,1.85,1.85,0,0,1-.44.06.78.78,0,0,1-.31,0l-.64-.19a.83.83,0,0,0-.29-.06.37.37,0,0,0-.25.1l0,0,.07.05c.06.06.08.11.06.16s-.11.09-.19.1h-.15a.24.24,0,0,0-.19.07,2.32,2.32,0,0,0-.43.54" transform="translate(-2.52 -6.68)"/><path class="cls-1" d="M13.34,15.34a1.81,1.81,0,0,0,.45.18h.05a.15.15,0,0,0,.12-.07.91.91,0,0,0,.16-.39,1.2,1.2,0,0,1,.27-.54l.07-.07a.77.77,0,0,0,.18-.32.49.49,0,0,0-.16-.57v.11a1.31,1.31,0,0,1-.59.93l-.14.09a2.43,2.43,0,0,0-.35.29.38.38,0,0,0-.15.25.17.17,0,0,0,.08.11" transform="translate(-2.52 -6.68)"/><path class="cls-1" d="M14.46,14.75c-.05,0-.08,0-.06.06.22.38.12.52-.2.67-.12,0-.06.15.05.13a.13.13,0,0,0,.1,0,.48.48,0,0,0,.28-.72c-.05-.1-.13-.13-.17-.12" transform="translate(-2.52 -6.68)"/><path class="cls-1" d="M14.94,14c.06,0,.09-.1.11-.18s0-.3.13-.32.07.14.11.16.07,0,.09-.07a.65.65,0,0,0-.22-.52l0,0s0,0,0,.06a2.91,2.91,0,0,0-.17.81c0,.06,0,.08,0,.08" transform="translate(-2.52 -6.68)"/><path class="cls-1" d="M14.91,14.57h0c.87-.4,1.05-.92,1.08-1.19a.76.76,0,0,0-.21-.68h0a1.23,1.23,0,0,1-.23,1.13c-.19.16-.41.33-.64.5l-.1.07s-.05.06,0,.09a.13.13,0,0,0,.13.09" transform="translate(-2.52 -6.68)"/><path class="cls-1" d="M16,14.61a2.63,2.63,0,0,1-.67.39.85.85,0,0,0-.34.23.12.12,0,0,0,0,.06H15a4.4,4.4,0,0,0,1.23-.67c.25-.21.33-.42.22-.63,0,0-.05,0-.07,0a.14.14,0,0,0-.09,0c-.21.2-1.07.65-1.23.77s-.07.08-.07.09a.05.05,0,0,0,.08,0c.13,0,.7-.39.84-.46s.22-.06.23,0-.05.13-.15.2" transform="translate(-2.52 -6.68)"/><path class="cls-1" d="M14.79,15.79a1,1,0,0,0,.28-.07,6.76,6.76,0,0,1,1.2-.51c.05,0,.11,0,.13,0a.17.17,0,0,1,0,.29l-.52.23s0,0,0,0,0,0,.17,0h0c.52-.12.72-.32.65-.62a.27.27,0,0,0-.26-.16.82.82,0,0,0-.44.07c-.26.11-.64.32-.88.41a1.68,1.68,0,0,0-.3.15s-.21.17,0,.14" transform="translate(-2.52 -6.68)"/><path class="cls-1" d="M16.41,13.48c.15-.12.29-.47.39-.29a.64.64,0,0,1-.1.53c-.06.1,0,.15.07.19h0s0,0,.05,0a1.08,1.08,0,0,0,.15-.79.62.62,0,0,0-.22-.4l-.07,0a.09.09,0,0,0-.08.06l-.08.3a.69.69,0,0,1-.16.29.33.33,0,0,0-.12.22c0,.08,0,0,.14,0" transform="translate(-2.52 -6.68)"/><path class="cls-1" d="M17.21,13.87a2.82,2.82,0,0,1,.75.32.8.8,0,0,0,.16.08,5.45,5.45,0,0,0,.64.32l.07,0s.06,0,.09-.06h0a1.16,1.16,0,0,0,.32-.63v0h0a.64.64,0,0,1-.24,0,.74.74,0,0,1-.29,0,3.16,3.16,0,0,0-1.32-.43h-.06v0h0v.05l0,0a4.17,4.17,0,0,1,1.39.55h0s.12.07.12.12v0a.15.15,0,0,1-.12,0l-.06,0-.07,0a8.39,8.39,0,0,0-1.32-.52h0a.08.08,0,0,0-.07,0,.19.19,0,0,0,.05.1" transform="translate(-2.52 -6.68)"/><path class="cls-1" d="M16.67,16.27c-.06,0-.16-.16-.21-.27l0,0-.05,0a.13.13,0,0,0,0,.09.69.69,0,0,0,.24.4.33.33,0,0,0,.13,0,.25.25,0,0,0,.22-.2.62.62,0,0,0-.25-.51v0a.92.92,0,0,1,.09.37c0,.07-.07.06-.1.06" transform="translate(-2.52 -6.68)"/><path class="cls-1" d="M17.37,15.91c-.12,0-.28-.29-.33-.38l-.06,0h0a.54.54,0,0,0,0,.11,1,1,0,0,0,.27.53.22.22,0,0,0,.17.05.68.68,0,0,0,.44-.28.28.28,0,0,0,0-.32,2.36,2.36,0,0,0-.92-.61h0a2.49,2.49,0,0,0,.31.23h0a1.55,1.55,0,0,1,.39.32.24.24,0,0,1,0,.2.33.33,0,0,1-.21.16" transform="translate(-2.52 -6.68)"/><path class="cls-1" d="M16.8,14.63v0a7.44,7.44,0,0,0,1.33.76.45.45,0,0,0,.17.05.23.23,0,0,0,.16-.08.38.38,0,0,0,.09-.47A2.89,2.89,0,0,0,17,14.06h0v0a.1.1,0,0,0,.08.05,3.71,3.71,0,0,1,1.07.59h0c.07.06.15.12.12.22a.31.31,0,0,1-.11.15l-.06,0a1,1,0,0,1-.38-.15l-.07,0h0a4,4,0,0,0-.81-.35Z" transform="translate(-2.52 -6.68)"/><path class="cls-1" d="M27.89,13.76s0,.08.08.14a14.24,14.24,0,0,1,4.5,5.86.27.27,0,0,1,0,.23.17.17,0,0,1-.12.05A.85.85,0,0,1,32,19.9a4.12,4.12,0,0,1-1.07-1.06,16.69,16.69,0,0,0-4.21-4.48.19.19,0,0,0-.1,0h0a.31.31,0,0,0,.11.28A17.74,17.74,0,0,1,31,19.49a2.51,2.51,0,0,0,2.2,1.1h.27c.15,0,.17-.08.17-.08s0-.05-.08-.1a2.38,2.38,0,0,1-.85-1.19,13.8,13.8,0,0,0-4.56-5.44.27.27,0,0,0-.14,0s-.06,0-.07,0" transform="translate(-2.52 -6.68)"/><path class="cls-1" d="M31.69,19.44a.37.37,0,0,0,.21.1.06.06,0,0,0,.06,0,.4.4,0,0,0-.06-.31,15.45,15.45,0,0,0-4.48-5.08.48.48,0,0,0-.2,0,.19.19,0,0,0-.12,0s0,.06.15.14a18.83,18.83,0,0,1,4.44,5.19" transform="translate(-2.52 -6.68)"/><path class="cls-1" d="M29.85,19.43a.45.45,0,0,1-.3-.2,17.59,17.59,0,0,0-3-3.25l0,0,0,0a.49.49,0,0,0,0,.39,17.55,17.55,0,0,1,2.05,2.14l0,0a12.48,12.48,0,0,0,1.12,1.21.84.84,0,0,0,.42.12.4.4,0,0,0,.32-.14.37.37,0,0,0,0-.31,12.5,12.5,0,0,0-3.79-4.24s-.06,0-.08,0h0a.45.45,0,0,0,.13.38,19,19,0,0,1,3.22,3.57.31.31,0,0,1,0,.27.14.14,0,0,1-.12.06" transform="translate(-2.52 -6.68)"/><path class="cls-1" d="M26.25,16.74h0a.24.24,0,0,0,0,.22,15.62,15.62,0,0,1,2.16,2.32.29.29,0,0,1,.05.34.35.35,0,0,1-.56.09c-.5-.43-1-.92-1.42-1.39-.19-.21-.4-.43-.59-.62l-.05,0,0,0a.25.25,0,0,0,0,.24l1.46,1.57a2.1,2.1,0,0,0,.72.54l.33,0a.53.53,0,0,0,.45-.18.59.59,0,0,0,0-.53,9.11,9.11,0,0,0-2.5-2.66Z" transform="translate(-2.52 -6.68)"/><path class="cls-1" d="M25.87,17.12a.19.19,0,0,0,0,.16,23.07,23.07,0,0,0,2.06,2l.05,0,0,0s0-.05,0-.09a13.09,13.09,0,0,0-2.1-2.11Z" transform="translate(-2.52 -6.68)"/><path class="cls-1" d="M25.65,18.28a.19.19,0,0,0-.1,0,.11.11,0,0,0-.09.06.17.17,0,0,0,.05.16,6,6,0,0,1,1.24,1.34.29.29,0,0,1,0,.32.33.33,0,0,1-.29.15.6.6,0,0,1-.28-.08,7.49,7.49,0,0,1-1.19-1l-.08-.08s0,0-.06.06a.19.19,0,0,0,0,.19,5.14,5.14,0,0,0,1.32,1.21,2.32,2.32,0,0,0,.48.06.51.51,0,0,0,.41-.15.71.71,0,0,0,0-.59,7,7,0,0,0-1.45-1.6" transform="translate(-2.52 -6.68)"/><path class="cls-1" d="M25.11,18.83,26.3,20l.09,0,.06,0v0a4.77,4.77,0,0,0-1.39-1.34.28.28,0,0,0,.05.25" transform="translate(-2.52 -6.68)"/><path class="cls-1" d="M25,21.32A.77.77,0,0,0,25.6,21a.42.42,0,0,0,0-.41,5.75,5.75,0,0,0-1-1.09h0s-.05,0-.07.05a.11.11,0,0,0,0,.11,4.21,4.21,0,0,1,.74.86.38.38,0,0,1,0,.33.41.41,0,0,1-.33.16A.46.46,0,0,1,24.7,21a5,5,0,0,1-.73-.69l0,0s-.05,0-.07.05a.17.17,0,0,0,0,.14,2.69,2.69,0,0,0,.92.82.86.86,0,0,0,.24,0" transform="translate(-2.52 -6.68)"/><path class="cls-1" d="M24.67,20.58a.26.26,0,0,0,.13.05.14.14,0,0,0,.12-.07.17.17,0,0,0-.05-.17,3,3,0,0,0-.61-.57l-.09,0a.11.11,0,0,0-.11.11c0,.05,0,.1.1.16.2.22.34.35.51.52" transform="translate(-2.52 -6.68)"/><path class="cls-1" d="M24.18,21.28l-.57-.65h-.05a.12.12,0,0,0-.08,0,.17.17,0,0,0,0,.14l.36.41a.23.23,0,0,1,.08.19c0,.13-.12.24-.24.34h0a.7.7,0,0,0-.19.2.12.12,0,0,0,0,.13.08.08,0,0,0,.08.05l.06,0,.47-.4a.31.31,0,0,0,.07-.43" transform="translate(-2.52 -6.68)"/><path class="cls-1" d="M23.44,21.5l0,0,.06,0a.08.08,0,0,0,0-.08l-.29-.5-.06,0a.13.13,0,0,0-.09.06V21Z" transform="translate(-2.52 -6.68)"/><path class="cls-1" d="M23.52,13.15a.7.7,0,0,0,.25.24,8.46,8.46,0,0,1,2.12,1.1.22.22,0,0,1,.06.25.2.2,0,0,1-.19.12.37.37,0,0,1-.2-.06,6.41,6.41,0,0,0-1.73-.92l0,0a.16.16,0,0,0,.11.17,9.11,9.11,0,0,1,1.85,1.09.42.42,0,0,0,.25.09.25.25,0,0,0,.21-.13c.13-.36,0-.69-.5-1a10,10,0,0,0-2.19-1Z" transform="translate(-2.52 -6.68)"/><path class="cls-1" d="M24,14.43l0,0a.21.21,0,0,0,.08.2c.14.1.35.22.6.36a3.48,3.48,0,0,1,1.06.75.44.44,0,0,1,0,.43.28.28,0,0,1-.22.15.32.32,0,0,1-.18-.06l-1.07-.61h0a.48.48,0,0,0,.16.35,6,6,0,0,0,.77.53l.07,0a1.06,1.06,0,0,0,.42.17.31.31,0,0,0,.17-.05.93.93,0,0,0,.17-.95,7.45,7.45,0,0,0-2-1.32" transform="translate(-2.52 -6.68)"/><path class="cls-1" d="M25.22,16l.07,0c.07,0,.15,0,.13-.06a6.74,6.74,0,0,0-1.3-.8.26.26,0,0,0,.05.12,5.6,5.6,0,0,0,1,.72" transform="translate(-2.52 -6.68)"/><path class="cls-1" d="M24.2,17.6l.65.47a.35.35,0,0,0,.2.07.25.25,0,0,0,.16-.06,1,1,0,0,0,.3-.41.51.51,0,0,0-.21-.62l-.88-.64h0l0,0a.23.23,0,0,0,0,.2,4.65,4.65,0,0,1,.67.59.37.37,0,0,1,.06.37.21.21,0,0,1-.19.14.23.23,0,0,1-.17-.07l-.52-.32a.12.12,0,0,0-.07.07.21.21,0,0,0,0,.2" transform="translate(-2.52 -6.68)"/><path class="cls-1" d="M24.72,17.37a.11.11,0,0,0,.1-.07.1.1,0,0,0,0-.12l-.42-.24-.06,0v.09l.37.3Z" transform="translate(-2.52 -6.68)"/><path class="cls-1" d="M23.39,18.78a.15.15,0,0,0,0,.16l.64.48a.24.24,0,0,0,.13,0,.44.44,0,0,0,.27-.14l.08-.13c.17-.28.3-.47.1-.76a1.71,1.71,0,0,0-.64-.54s0,0-.06.05a.25.25,0,0,0,0,.21l.33.35a.34.34,0,0,1,0,.35A.31.31,0,0,1,24,19a.24.24,0,0,1-.15,0l-.36-.27-.05,0s-.07,0-.09.09" transform="translate(-2.52 -6.68)"/><path class="cls-1" d="M23.65,18.38a.12.12,0,0,0,0,.12l.23.17.06,0a.06.06,0,0,0,.06-.06.11.11,0,0,0,0-.13l-.22-.17h0a.13.13,0,0,0-.1.06" transform="translate(-2.52 -6.68)"/><path class="cls-1" d="M22.46,19.65a.08.08,0,0,0-.07.05.19.19,0,0,0,0,.18l.49.57a.26.26,0,0,0,.19.08.84.84,0,0,0,.57-.44.52.52,0,0,0,.05-.49,3.47,3.47,0,0,0-.51-.62l0,0s0,0-.07.06a.22.22,0,0,0,0,.22l.22.3a.4.4,0,0,1,0,.38.33.33,0,0,1-.25.17.34.34,0,0,1-.2-.08l-.3-.33Z" transform="translate(-2.52 -6.68)"/><path class="cls-1" d="M23,19.82a.11.11,0,0,0,.09-.06.12.12,0,0,0,0-.1l-.26-.25h0a.08.08,0,0,0-.07.05.12.12,0,0,0,0,.1l.27.26Z" transform="translate(-2.52 -6.68)"/><path class="cls-1" d="M23.92,26.35c0,.06,0,.17.12.16a.31.31,0,0,0,.21-.12c.54-.69.35-2.89-.33-4l-.05,0a.09.09,0,0,0-.08.06.21.21,0,0,0,0,.19,4.91,4.91,0,0,1,.56,2.9c0,.09-.06.2-.16.21s-.13,0-.18-.29a5.25,5.25,0,0,0-.78-2.21.7.7,0,0,0,0,.43,7.07,7.07,0,0,1,.69,2.68" transform="translate(-2.52 -6.68)"/><path class="cls-1" d="M23.46,22.64h0a.44.44,0,0,0,0,.3,4.61,4.61,0,0,1,.66,1.8l0,0,0,0a4.9,4.9,0,0,0-.65-2.08Z" transform="translate(-2.52 -6.68)"/><path class="cls-1" d="M20.15,12.58l.3.12q.24.12.48.27a2.43,2.43,0,0,1,1.25,1.95l0,.13c.25,1.16.41,1.86-.76,2.79a.28.28,0,0,0,0,.3.14.14,0,0,0,.13.09h0a2.2,2.2,0,0,0,.91-.87c.68-.92-.07-3-.31-3.67a1.76,1.76,0,0,0-1-1l-1.29-.6a.45.45,0,0,1-.19-.41c0-.15.11-.18.28-.28a1.39,1.39,0,0,1,.56-.11l.48,0a11.48,11.48,0,0,1,5.83,1.94h0a.23.23,0,0,1,.05.24c-.05.1-.18.14-.44.16a.52.52,0,0,1-.37-.15l-.16-.27s0-.06-.06-.06,0,0-.06.07l-.07.36c0,.05,0,.07.07.08a2.45,2.45,0,0,0,.83.14,2.15,2.15,0,0,0,1.31-.49c.06-.08.09-.15.07-.19s-.1-.07-.22-.08h-.14a2,2,0,0,1-1.19-.36,11.92,11.92,0,0,0-6.19-1.62,1.09,1.09,0,0,0-.54.11.64.64,0,0,0-.36.45.67.67,0,0,0,.16.54,1.5,1.5,0,0,0,.64.39" transform="translate(-2.52 -6.68)"/><path class="cls-1" d="M10.5,16.92c.1.28.24.44.43.47h.84a.19.19,0,0,0,.14-.17.15.15,0,0,0-.1-.14h-.67c-.25,0-.37-.36-.47-.72a1.86,1.86,0,0,1,.53-1.74l.05-.08h-.06a.1.1,0,0,1-.06-.09.18.18,0,0,1,.07-.16l.11-.1v0l-.07,0h0a3.65,3.65,0,0,0-1,.91.55.55,0,0,0-.06.53Z" transform="translate(-2.52 -6.68)"/><path class="cls-1" d="M12.21,16.26h0a1.46,1.46,0,0,1-.43.08.65.65,0,0,1-.52-.19l-.05,0,0,0a.18.18,0,0,0,0,.14.68.68,0,0,0,.52.26.87.87,0,0,0,.51-.21s.05-.06,0-.08" transform="translate(-2.52 -6.68)"/><path class="cls-1" d="M11,15.49a.35.35,0,0,0,0,.26.24.24,0,0,0,.16.11l.15,0a2.19,2.19,0,0,0,1.21-.58l0-.06,0,0a2.53,2.53,0,0,1-1.06.37c-.09,0-.13-.06-.14-.1s0-.18.09-.32a2.58,2.58,0,0,0,.4-.43s0-.07,0-.13a.68.68,0,0,1,0-.15.37.37,0,0,1,0-.11.35.35,0,0,1,.09-.23.85.85,0,0,1,.2-.17.14.14,0,0,0,.06-.16.23.23,0,0,0-.21-.15c-.25.09-.33.21-.3.43a.63.63,0,0,1-.13.57,3.18,3.18,0,0,0-.51.81" transform="translate(-2.52 -6.68)"/><path class="cls-1" d="M12,14.34a.14.14,0,0,0,0,.14.49.49,0,0,1,.09.51h0a.54.54,0,0,0,.18-.3.49.49,0,0,0-.1-.35s-.08-.08-.12-.07-.06,0-.07.08" transform="translate(-2.52 -6.68)"/><path class="cls-1" d="M18.44,34.89a2.39,2.39,0,0,1,.68,1.22c.22.63.45,1.27.93,1.39a.52.52,0,0,0,.19,0h0a.16.16,0,0,0-.06-.05c-.29-.1-.46-.59-.64-1.15s-.47-1.4-1-1.55l-.16,0a.27.27,0,0,0-.11,0s0,0,.1.11" transform="translate(-2.52 -6.68)"/><path class="cls-1" d="M19.32,34.77a.27.27,0,0,0-.13,0l.06.06c.33.18.53.71.75,1.28s.52,1.4,1,1.39h0l.11,0h0c-.29-.14-.47-.64-.67-1.17-.25-.69-.54-1.47-1.11-1.55" transform="translate(-2.52 -6.68)"/><path class="cls-1" d="M20.94,36.28v0c.2.54.45,1.22,1,1.24H22a2.13,2.13,0,0,1-.65-1.08c-.13-.42-.25-.78-.68-.9h-.11l0,.05c.15.08.24.34.37.68" transform="translate(-2.52 -6.68)"/><path class="cls-1" d="M19.34,34.41h.18a.16.16,0,0,0,.16-.16.14.14,0,0,0-.11-.14h-.36a2.22,2.22,0,0,1-.73-.08l-.09,0a.42.42,0,0,0-.14,0c-.05,0-.11,0-.13.05a.21.21,0,0,0,0,.2c.13.17.42.24.88.24l.33,0" transform="translate(-2.52 -6.68)"/><path class="cls-1" d="M24,34.36A.55.55,0,0,0,23.4,34a.63.63,0,0,0-.67.6.19.19,0,0,0,0,.12.21.21,0,0,0,.13.05.15.15,0,0,0,.14-.1c0-.29.23-.33.3-.33a.31.31,0,0,1,.29.2.26.26,0,0,1-.11.28.35.35,0,0,0-.15.48,1.06,1.06,0,0,1,0,1.14.37.37,0,0,0,.22.52h0a.22.22,0,0,1,0,.23.3.3,0,0,1-.26.16.3.3,0,0,1-.29-.23A.19.19,0,0,0,22.9,37a.17.17,0,0,0-.13.07.19.19,0,0,0,0,.14c.19.37.41.55.69.54a.91.91,0,0,0,.4-.1.53.53,0,0,0,.2-.37.54.54,0,0,0-.12-.38c-.15-.08-.17-.26-.09-.53a1,1,0,0,0,0-.93.44.44,0,0,1,.07-.52.49.49,0,0,0,.08-.52" transform="translate(-2.52 -6.68)"/><path class="cls-1" d="M18,36.93a.19.19,0,0,0-.18-.13l-.07,0-.15.27a.25.25,0,0,1-.42,0,.26.26,0,0,1,0-.23.46.46,0,0,1,.2-.28.42.42,0,0,0,0-.38,1.3,1.3,0,0,1-.08-.89l.1-.4a.3.3,0,0,0-.13-.35.29.29,0,0,1-.13-.33.26.26,0,0,1,.23-.19.19.19,0,0,1,.1,0,.3.3,0,0,1,.18.2l0,.08a.27.27,0,0,0,.19.11.14.14,0,0,0,.1,0,.27.27,0,0,0,0-.22.67.67,0,0,0-.67-.49.54.54,0,0,0-.4.16.5.5,0,0,0-.13.39.44.44,0,0,0,.14.36h0a.5.5,0,0,1,0,.57,1,1,0,0,0,0,.79.86.86,0,0,1,0,.65l-.05.09a.41.41,0,0,0-.07.38.53.53,0,0,0,.55.42.72.72,0,0,0,.4-.12.7.7,0,0,0,.28-.52" transform="translate(-2.52 -6.68)"/><path class="cls-1" d="M22.65,37.7a.32.32,0,0,0-.2.07.66.66,0,0,1-.36.1H22c-1.18,0-2.35,0-3.56-.08a.82.82,0,0,1-.35-.1.49.49,0,0,0-.24-.05c-.06,0-.1,0-.12,0a.23.23,0,0,0,0,.2c.24.35,2.22.31,3,.3h1.4a1.32,1.32,0,0,0,.67-.19.14.14,0,0,0,.07-.16.19.19,0,0,0-.19-.13" transform="translate(-2.52 -6.68)"/><path class="cls-1" d="M18.41,13.08c1.13.26,1.93.62,2.15,1.57a1,1,0,0,0,.22.73l0,0v-.08a1.86,1.86,0,0,0-.91-1.9,4.47,4.47,0,0,0-1.38-.55.47.47,0,0,1-.41-.51.6.6,0,0,1,.56-.6h.07c.1,0,.15,0,.15-.07s0,0-.06,0h-.14c-.38,0-.75.09-.79.69-.05.45.1.68.49.75" transform="translate(-2.52 -6.68)"/><path class="cls-1" d="M18.57,12.1h0c.2,0,.28.08.28.16s-.07.16-.28.18l0,0,.06,0h.23a.39.39,0,0,0,.36-.14.14.14,0,0,0,0-.15.41.41,0,0,0-.36-.16.57.57,0,0,0-.22,0" transform="translate(-2.52 -6.68)"/><path class="cls-1" d="M20.13,13.21a.33.33,0,0,0,.19,0,.21.21,0,0,0,.15,0l0,0a1.3,1.3,0,0,0-1.24-.34c-.11.06.79,0,.92.36" transform="translate(-2.52 -6.68)"/><path class="cls-1" d="M20.33,15a1.92,1.92,0,0,0-.8-.82c-.08,0-.1,0-.08.05a2.9,2.9,0,0,1,1,1.61.44.44,0,0,1-.08.35l0,0-.15.15a.14.14,0,0,0,0,.15.18.18,0,0,0,.16.1h0l.55-.42a.24.24,0,0,0,.06-.16A.22.22,0,0,0,21,16a2.1,2.1,0,0,1-.64-.93" transform="translate(-2.52 -6.68)"/><path class="cls-1" d="M18.78,15.42h0a.11.11,0,0,0,0,.08,6.59,6.59,0,0,1,.13,1.56.15.15,0,0,0,0,.1.3.3,0,0,0,.22.06,1.78,1.78,0,0,0,.56-.25.47.47,0,0,0,.23-.41,3.2,3.2,0,0,0-.7-1.72s0,0-.06,0h0a.18.18,0,0,0,0,.11c.47.85.58,1.38.38,1.73a.55.55,0,0,1-.3.16c-.07,0-.16,0-.19-.22a3.6,3.6,0,0,0-.24-1.15Z" transform="translate(-2.52 -6.68)"/><path class="cls-1" d="M19.4,16.33a.38.38,0,0,0,0-.15A3.62,3.62,0,0,0,18.93,15h0V15a7.17,7.17,0,0,1,.35,1.34s.1.12.12-.05" transform="translate(-2.52 -6.68)"/><path class="cls-1" d="M20.09,16c.07.13.15-.05.14-.1-.16-.53-.66-1.34-.79-1.29A6,6,0,0,1,20.09,16" transform="translate(-2.52 -6.68)"/><path class="cls-1" d="M17.71,17l.09-.65a.11.11,0,0,0,0-.1s0,0-.07.08-.34.9-.2,1.15a.15.15,0,0,0,.13.08h.19a.71.71,0,0,0,.55-.21c.28-.3.23-.91.2-1.45v-.11c0-.11-.06-.15-.09-.15l-.06,0a.19.19,0,0,0,0,.15A2.8,2.8,0,0,1,18.23,17a.45.45,0,0,1-.33.24c-.08,0-.18-.06-.19-.24" transform="translate(-2.52 -6.68)"/><path class="cls-1" d="M18.11,16.76a5.09,5.09,0,0,0,0-.68s0,0,0,0a.06.06,0,0,0-.06.06,3.61,3.61,0,0,1-.08.66.16.16,0,0,0,0,.1h0a.12.12,0,0,0,.12-.11" transform="translate(-2.52 -6.68)"/><path class="cls-1" d="M17.79,14.86a.08.08,0,0,0,.08,0l0,0a.1.1,0,0,0-.05-.13c-.18-.07-.61-.28-.81-.33,0,0,0,0,0,0a.06.06,0,0,0,0,.07,6.06,6.06,0,0,1,.76.39" transform="translate(-2.52 -6.68)"/><path class="cls-1" d="M16.29,17.59a.52.52,0,0,0,.35.11.55.55,0,0,0,.54-.38l.18-.75a.09.09,0,0,0,0-.09l-.06,0c-.07,0-.16.07-.19.22a2,2,0,0,1-.24.68.17.17,0,0,1-.14.08.1.1,0,0,1-.11-.06.11.11,0,0,1,0-.13,1,1,0,0,0,.16-.36.08.08,0,0,0,0-.08l0,0-.09.05a2.64,2.64,0,0,1-.35.52c-.06.1-.07.17,0,.23" transform="translate(-2.52 -6.68)"/><path class="cls-1" d="M14.28,16.83a.38.38,0,0,0-.17,0c-.06,0-.11,0-.12.05s0,.07,0,.08a1.5,1.5,0,0,1,.59,2,.16.16,0,0,0,0,.1h0a.27.27,0,0,0,.12-.06,1.51,1.51,0,0,0-.48-2.18" transform="translate(-2.52 -6.68)"/><path class="cls-1" d="M7.52,20.27c0,.07,0,.11.08.13h.05a.16.16,0,0,0,.13-.08.15.15,0,0,0,0-.16c-.15-.26,0-.38.1-.52h0A.87.87,0,0,0,8,19.5a.16.16,0,0,0,0-.14.12.12,0,0,0-.12-.11.24.24,0,0,0-.14.05,1.52,1.52,0,0,1-.27.22l0,0,0,0-.06,0s-.1.07,0,.22a3,3,0,0,1,.19.44" transform="translate(-2.52 -6.68)"/><path class="cls-1" d="M8.09,20.52a.22.22,0,0,0,.17.11.08.08,0,0,0,.07,0,.3.3,0,0,0,0-.25c-.15-.35,0-.47.2-.65l0,0a.12.12,0,0,0-.1-.2l-.1,0c-.4.24-.47.49-.29,1" transform="translate(-2.52 -6.68)"/><path class="cls-1" d="M8.57,20.21l.08.47a.17.17,0,0,0,.16.12.12.12,0,0,0,.1-.05.18.18,0,0,0,0-.16A.5.5,0,0,1,9,20l.17-.16a.18.18,0,0,0,0-.16A.16.16,0,0,0,9,19.63l-.07,0-.23.2a.32.32,0,0,0-.16.36" transform="translate(-2.52 -6.68)"/><path class="cls-1" d="M13.65,17.13a.19.19,0,0,0-.1,0,.15.15,0,0,0-.15.11.27.27,0,0,0,.06.29,1.42,1.42,0,0,1,.6.75,1,1,0,0,1-.2.81l-1.51,1.38c-1,.95-1.13,1.82-.42,2.63l.05,0a.48.48,0,0,0,0-.12c-.53-1.11.19-1.73,1.1-2.52h0a10.87,10.87,0,0,0,1.33-1.31c.34-.7.1-1.36-.74-2" transform="translate(-2.52 -6.68)"/><path class="cls-1" d="M14.23,22.79a6.55,6.55,0,0,0-.68.05h-.07a2.37,2.37,0,0,1-.43,0c-.4,0-.69-.14-.86-.89,0-.1,0-.13-.06-.16A.2.2,0,0,0,12,22c0,1,.66,1,1.6,1a7.13,7.13,0,0,1,.89.05,1.23,1.23,0,0,1,.93.85A1.11,1.11,0,0,1,15,25c-.09.08-.12.15-.1.21a.25.25,0,0,0,.22.11.23.23,0,0,0,.14,0,1.36,1.36,0,0,0,.53-1.4,1.49,1.49,0,0,0-1.27-1.12h-.29" transform="translate(-2.52 -6.68)"/><path class="cls-1" d="M12.55,19.14a3,3,0,0,0-1.72,3.17,2.06,2.06,0,0,0,1.87,1.74h1.66a.29.29,0,0,1,.26.14.37.37,0,0,1-.06.36c-.05.06-.05.11,0,.13l0,0a.23.23,0,0,0,.14-.07.58.58,0,0,0,.2-.64.53.53,0,0,0-.51-.32l-.76,0a2.81,2.81,0,0,1-1.37-.17,1.9,1.9,0,0,1-1.09-1.65,3,3,0,0,1,1.58-2.51c.47-.3,1-.68,1.11-1a.27.27,0,0,0,0-.21h0a.21.21,0,0,0-.1,0,3.41,3.41,0,0,1-1.19.9" transform="translate(-2.52 -6.68)"/><path class="cls-1" d="M9.68,22.45a.77.77,0,0,0,.18.85,7.3,7.3,0,0,0,.9.64,1.29,1.29,0,0,1,.5,1v0c0,.09,0,.18.05.28a.77.77,0,0,0,.68.62h0a.14.14,0,0,0,.14-.09c0-.05,0-.08-.08-.09-.35-.14-.51-.28-.54-.51A2.71,2.71,0,0,0,11,23.85a6.19,6.19,0,0,1-.89-.65A.39.39,0,0,1,10,23a2.15,2.15,0,0,1,.37-1.4A1.44,1.44,0,0,0,9.48,20l-.09,0c-.05,0-.06,0-.06,0a.15.15,0,0,0,.05.14c.62.47,1,.92.3,2.33" transform="translate(-2.52 -6.68)"/><path class="cls-1" d="M9.94,24.29a1.21,1.21,0,0,1,.61,1.08c.08,1.09.62,1.63,1.62,1.61h0a.84.84,0,0,0,.45-.12s0,0,0,0a.26.26,0,0,0-.1-.2.27.27,0,0,0-.23-.11.45.45,0,0,0-.14,0h0a.82.82,0,0,1-.26.06.69.69,0,0,1-.22,0,1.14,1.14,0,0,1-.87-1.09,1.32,1.32,0,0,0-.49-1.25,2.91,2.91,0,0,1-1-.88,1.23,1.23,0,0,1,.06-1.29l.12-.25a1.24,1.24,0,0,0,.1-.54c0-.54-.14-.84-.43-.92H9.12s-.09,0-.1,0,0,.1.1.2c.36.29.35.79,0,1.61A1.28,1.28,0,0,0,9,23.41a3.25,3.25,0,0,0,.92.88" transform="translate(-2.52 -6.68)"/><path class="cls-1" d="M13.14,26.86l.09,0s0,0,0-.06a.71.71,0,0,0-.29-.07h0a.22.22,0,0,0,.21.14" transform="translate(-2.52 -6.68)"/><path class="cls-1" d="M13.75,26.73a.2.2,0,0,0,0-.08.61.61,0,0,0-.36-.1h0l0,0s0,0,0,.07a.57.57,0,0,0,.35.12h0Z" transform="translate(-2.52 -6.68)"/><path class="cls-1" d="M13.82,26.33l-.09,0,0,0a.35.35,0,0,0,.36.2h.14l0,0s0,0,0-.06a.54.54,0,0,0-.44-.18" transform="translate(-2.52 -6.68)"/><path class="cls-1" d="M14,25.36a.4.4,0,0,0,.2-.08l.16-.14a.08.08,0,0,0,0-.12.37.37,0,0,1-.09-.46.13.13,0,0,0,0-.12h-.07a.49.49,0,0,0-.15.09h0a.59.59,0,0,0-.27.65c0,.13.09.19.2.19Z" transform="translate(-2.52 -6.68)"/><path class="cls-1" d="M12.83,26.48h.06v0a.58.58,0,0,1-.2-.51,1,1,0,0,0-.22-.64.21.21,0,0,0-.05.08.26.26,0,0,0,0,.23.47.47,0,0,1,.08.38c0,.29.07.45.33.49" transform="translate(-2.52 -6.68)"/><path class="cls-1" d="M13.23,26.34h.06c.09,0,.09-.06.09-.06s0,0-.05-.05a.52.52,0,0,1-.24-.58.45.45,0,0,0-.07-.43.44.44,0,0,1-.09-.41v0l-.1,0a.27.27,0,0,0-.14.16.63.63,0,0,0,.12.45.4.4,0,0,1,.09.36.6.6,0,0,0,.15.47.23.23,0,0,0,.19.09" transform="translate(-2.52 -6.68)"/><path class="cls-1" d="M13.81,24.49s0-.06,0-.06l0,0h-.16a.54.54,0,0,0-.46.21.45.45,0,0,0,0,.43.37.37,0,0,1,0,.4.48.48,0,0,0,.38.67l.11,0,0,0a.22.22,0,0,1,0-.33.14.14,0,0,0,.06-.08s0-.08-.08-.13a.68.68,0,0,1,.09-1" transform="translate(-2.52 -6.68)"/><path class="cls-1" d="M15.48,26.35a.86.86,0,0,1,.42-.29,1.48,1.48,0,0,0,.48-.36.82.82,0,0,0-.21-1,.16.16,0,0,0-.09,0,.13.13,0,0,0-.11.06.21.21,0,0,0,0,.19l.16.28a.34.34,0,0,1-.17.48,2.65,2.65,0,0,0-.77.53.31.31,0,0,1-.2.13.25.25,0,0,1-.17-.07L14.52,26a.19.19,0,0,1,0-.18.12.12,0,0,1,.12-.07h.09l.2.09.06,0s0,0,.05-.06a.41.41,0,0,0-.27-.41l-.15,0a.69.69,0,0,0-.56.37c-.15.22.16.44.48.67.09.06.19.15.28.22a.36.36,0,0,0,.19.05.25.25,0,0,0,.14,0,1.06,1.06,0,0,0,.37-.29" transform="translate(-2.52 -6.68)"/><path class="cls-1" d="M16.31,26.72h.07a2.43,2.43,0,0,1,.72.27.09.09,0,0,0,.13,0,.14.14,0,0,0-.06-.09,2.15,2.15,0,0,0-1.1-.35,1.12,1.12,0,0,0-.32,0c-.11.06-.19.15-.19.23a.15.15,0,0,0,.09.13l.7.18.48.21h.05a.14.14,0,0,0,.1,0l0-.08a1.71,1.71,0,0,0-.61-.27c-.15-.05-.14-.1-.14-.12s0-.07.12-.07" transform="translate(-2.52 -6.68)"/><path class="cls-1" d="M16.71,25.77a.91.91,0,0,0-.24.24.32.32,0,0,0,0,.27c.12.25.62.38.86.44h0c.06,0,.12,0,.12-.06l0-.06h0a1.71,1.71,0,0,1-.63-.39c0-.11-.06-.19,0-.25s.11-.09.23-.1a1,1,0,0,1,.32.06h0l.05,0s0-.06,0-.09a.57.57,0,0,0-.25-.14.61.61,0,0,0-.44.12" transform="translate(-2.52 -6.68)"/><path class="cls-1" d="M17.15,26h0c-.06,0-.08,0-.08.05s0,.08,0,.11a3.26,3.26,0,0,0,.65.29h0s.05,0,.06-.06a.09.09,0,0,0,0-.1,3.1,3.1,0,0,0-.63-.29" transform="translate(-2.52 -6.68)"/><path class="cls-1" d="M17.28,27.84h0a1.12,1.12,0,0,0,.27,0,2.88,2.88,0,0,1,1-.22c.07,0,.12,0,.12-.08s0-.1-.12-.11H18.4a3.45,3.45,0,0,0-.88.18h-.06a.11.11,0,0,1-.1,0c0-.06,0-.14.06-.2a2.06,2.06,0,0,1,1-.58.1.1,0,0,0,.08-.12.12.12,0,0,0-.13-.08,1.92,1.92,0,0,0-1.23.8.36.36,0,0,0-.06.36.27.27,0,0,0,.24.13" transform="translate(-2.52 -6.68)"/><path class="cls-1" d="M17.93,27.12s0,.07,0,.09.08.05.17.05a.71.71,0,0,0,.44-.13l0-.06h0s-.06,0-.21,0a.64.64,0,0,0-.4.11" transform="translate(-2.52 -6.68)"/><path class="cls-1" d="M16.94,25.1a.15.15,0,0,1,0-.16c0-.06.1-.07.15-.07h0l0,0a.68.68,0,0,0-.49-.27s-.06,0-.07,0c0,.38.19.64.65.82h.09v0Z" transform="translate(-2.52 -6.68)"/><path class="cls-1" d="M16.37,23.33v0a1.23,1.23,0,0,0,.29.93.53.53,0,0,0,.36.19.11.11,0,0,0,.08,0,.28.28,0,0,0,0-.21.41.41,0,0,0-.2-.19.1.1,0,0,1-.08.06c-.11,0-.22-.17-.23-.36a.35.35,0,0,0-.22-.42" transform="translate(-2.52 -6.68)"/><path class="cls-1" d="M17.49,24.64a.41.41,0,0,0-.17-.12h0v.05a2.4,2.4,0,0,0,.83,1.72.27.27,0,0,0,.14,0c.15,0,.2-.16.22-.21a1.14,1.14,0,0,0-.1-.63.17.17,0,0,0-.12-.07s-.06,0-.06,0l0,.33a.21.21,0,0,1,0,.12l-.05,0h0a.2.2,0,0,1-.13-.05,1.58,1.58,0,0,1-.44-1.08.32.32,0,0,0-.07-.19" transform="translate(-2.52 -6.68)"/><path class="cls-1" d="M19.2,27.84a.63.63,0,0,0,.21.05.21.21,0,0,0,.18-.09,1.06,1.06,0,0,0,.07-.74h0a.59.59,0,0,0-.13-.19h0a.45.45,0,0,0,0,.08v.43c0,.12,0,.17-.11.18a.28.28,0,0,1-.13-.06,2.83,2.83,0,0,1-.31-1.38c0-.17-.11-.27-.17-.27s-.05,0-.05.12a2.5,2.5,0,0,0,.52,1.87Z" transform="translate(-2.52 -6.68)"/><path class="cls-1" d="M19.23,27.06h0a.34.34,0,0,0,0-.17l-.05-.35a.14.14,0,0,0-.1-.08s-.06,0-.07.07a.64.64,0,0,0,.09.49l.07,0" transform="translate(-2.52 -6.68)"/><path class="cls-1" d="M18,25.53s.05-.09.05-.1a.39.39,0,0,0-.08-.25c0-.05-.06-.05-.07-.05l0,.05a.35.35,0,0,0,0,.28.13.13,0,0,0,.1.07" transform="translate(-2.52 -6.68)"/><path class="cls-1" d="M20.63,13.47h-.05s-.06,0-.06,0,0,.08.15.08a.54.54,0,0,1,.62.35.2.2,0,0,1,0,.2s-.07.07-.18.07h0v.07a.34.34,0,0,0,.17.05.21.21,0,0,0,.18-.09.26.26,0,0,0,0-.26.79.79,0,0,0-.85-.52" transform="translate(-2.52 -6.68)"/><path class="cls-1" d="M21,14s.05,0,.05-.07-.05-.17-.2-.18a.07.07,0,0,0,0,0s0,0,.07.15A.19.19,0,0,0,21,14" transform="translate(-2.52 -6.68)"/><path class="cls-1" d="M21.2,14.63a.07.07,0,0,0-.08.07s0,.08.06.08c.34,0,.46.21.46.64,0,.2-.13.19-.2.19a.39.39,0,0,1-.2,0,.09.09,0,0,0-.1,0s0,0,0,.06a.66.66,0,0,0,.46.18.23.23,0,0,0,.14,0c.13-.1.16-.28.1-.58a.61.61,0,0,0-.64-.59" transform="translate(-2.52 -6.68)"/><path class="cls-1" d="M21.36,15.33a.06.06,0,0,0,.06,0,.24.24,0,0,0-.05-.22.32.32,0,0,0-.13,0c-.06,0-.1,0-.1.08s0,.07,0,.11a.37.37,0,0,0,.19.09" transform="translate(-2.52 -6.68)"/><path class="cls-1" d="M21.43,17.44h.05a1.25,1.25,0,0,0,.57-.79.53.53,0,0,0-.09-.41.72.72,0,0,0-.49-.18h-.06a.2.2,0,0,0-.19.1.15.15,0,0,0,0,.11l.31.06a.27.27,0,0,1,.17.14.61.61,0,0,1-.08.43c-.23.27-.34.29-.29.46s0,.09.06.09" transform="translate(-2.52 -6.68)"/><path class="cls-1" d="M21.29,16.77h.12c.12,0,.13-.05.13-.08s-.1-.18-.13-.18l-.14,0a.14.14,0,0,0-.08.11s0,.08.1.11" transform="translate(-2.52 -6.68)"/><path class="cls-1" d="M22.17,12.84h-.06a1.15,1.15,0,0,0,.66.24.24.24,0,0,0,.15,0,.14.14,0,0,0,0-.09,2.36,2.36,0,0,0-2.2-1.17h-.35s-.07,0-.07,0,.14.15.3.16L21,12a1.64,1.64,0,0,1,1.38.53c.07.09.09.17.06.23s-.11.1-.24.1" transform="translate(-2.52 -6.68)"/><path class="cls-1" d="M21.63,12.36l-.23,0s0,0,0,0,0,0,.09.09a.86.86,0,0,0,.3,0,.38.38,0,0,0,.16,0l.05,0s0,0-.08-.08a.81.81,0,0,0-.25,0" transform="translate(-2.52 -6.68)"/><path class="cls-1" d="M23.59,12.58a.4.4,0,0,1-.21-.1,1.53,1.53,0,0,0-.73-.48h-.09v0A2.67,2.67,0,0,0,24,13l.13,0a.12.12,0,0,0,.09,0,.08.08,0,0,0,0-.07.66.66,0,0,0-.51-.62c0,.12.06.2,0,.26a.19.19,0,0,1-.12.07" transform="translate(-2.52 -6.68)"/><path class="cls-1" d="M24.57,33.78a.28.28,0,0,0,.13,0l0,0a.21.21,0,0,1-.13-.16c0-.11,0-.24.16-.39.79-.41,1-.77.93-1.4a.08.08,0,0,0,0-.07.21.21,0,0,0-.16-.06.23.23,0,0,0-.22.14,1.35,1.35,0,0,1-.43.87,4.66,4.66,0,0,1-2.22.67.74.74,0,0,0-.73.43l-.27.69a.31.31,0,0,1-.32.28l-.68-.06a.25.25,0,0,1-.18-.08.18.18,0,0,1,0-.16,5.19,5.19,0,0,1,.23-1.67.61.61,0,0,0-.06-.51.1.1,0,0,0-.07-.06s0,0-.08.11a5.2,5.2,0,0,0-.39,2.32c0,.21.05.33.24.37l1.41.11c.21,0,.3-.08.31-.25.07-.72.31-1.09.7-1.11l1.12-.18h.09a.29.29,0,0,1,.27.1.72.72,0,0,0,.37.13" transform="translate(-2.52 -6.68)"/><path class="cls-1" d="M23.8,31.36h-.06c-.2,0-.25.17-.24.26a.19.19,0,0,0,.17.18.21.21,0,0,0,.11,0,1.13,1.13,0,0,1,.45-.31,1,1,0,0,0-.43-.1" transform="translate(-2.52 -6.68)"/><path class="cls-1" d="M23.49,32.71l.1,0a.87.87,0,0,0,.4-.25,1.75,1.75,0,0,1-.56-.1h-.05a.15.15,0,0,0-.15.15.23.23,0,0,0,.07.15.27.27,0,0,0,.19.07" transform="translate(-2.52 -6.68)"/><path class="cls-1" d="M22.93,31.65a1.21,1.21,0,0,1,.33-.44h-.12a1.12,1.12,0,0,0-.39.08c-.13.08-.19.19-.16.29a.22.22,0,0,0,.2.16.17.17,0,0,0,.14-.08" transform="translate(-2.52 -6.68)"/><path class="cls-1" d="M21.2,33.9a.13.13,0,0,0,.14-.11,1,1,0,0,1,.18-.52.9.9,0,0,0-.44.2.29.29,0,0,0-.07.31.22.22,0,0,0,.19.12" transform="translate(-2.52 -6.68)"/><path class="cls-1" d="M27.22,33.36a1.29,1.29,0,0,1,.66-.2,1.27,1.27,0,0,0-.63-.3c-.55,0-.4.67,0,.5" transform="translate(-2.52 -6.68)"/><path class="cls-1" d="M28,32.46a1.37,1.37,0,0,1,.13-.53.85.85,0,0,0-.42.22.27.27,0,0,0-.06.31.22.22,0,0,0,.2.13.16.16,0,0,0,.15-.13" transform="translate(-2.52 -6.68)"/><path class="cls-1" d="M29,32.18h-.13a.92.92,0,0,0-.38.08c-.13.08-.19.2-.15.3a.21.21,0,0,0,.19.16.16.16,0,0,0,.14-.08,1.11,1.11,0,0,1,.33-.46" transform="translate(-2.52 -6.68)"/><path class="cls-1" d="M28.37,33.37h.1a1,1,0,0,0,.42-.25,1.9,1.9,0,0,1-.58-.11h-.06a.15.15,0,0,0-.15.16.18.18,0,0,0,.07.15.27.27,0,0,0,.2.07" transform="translate(-2.52 -6.68)"/><path class="cls-1" d="M22.14,32.58a.22.22,0,0,0,.2.15.31.31,0,0,0,.23-.15,1,1,0,0,0,.12-.46,1.77,1.77,0,0,1-.47.28.16.16,0,0,0-.08.18" transform="translate(-2.52 -6.68)"/><path class="cls-1" d="M19.57,31.27a1.06,1.06,0,0,0-.58.32,1.21,1.21,0,0,1,.65.18c.39.15.47-.51-.07-.5" transform="translate(-2.52 -6.68)"/><path class="cls-1" d="M18.19,30.81a.18.18,0,0,0,.16-.15c0-.11,0-.22-.17-.3a1,1,0,0,0-.36-.06h-.13a1.15,1.15,0,0,1,.36.42.19.19,0,0,0,.14.08" transform="translate(-2.52 -6.68)"/><path class="cls-1" d="M17.38,30.78c0-.11-.07-.24-.29-.26a.85.85,0,0,0-.44.13,1.23,1.23,0,0,1,.48.25.17.17,0,0,0,.11,0,.15.15,0,0,0,.14-.16" transform="translate(-2.52 -6.68)"/><path class="cls-1" d="M17.59,31.46a1.08,1.08,0,0,1-.62.18,1.19,1.19,0,0,0,.59.3c.54,0,.4-.63,0-.48" transform="translate(-2.52 -6.68)"/><path class="cls-1" d="M18.33,31.48a.34.34,0,0,0,.16,0,.19.19,0,0,0,.2-.19.16.16,0,0,0-.17-.17l-.21,0a1.34,1.34,0,0,1-.33,0,1,1,0,0,0,.35.34" transform="translate(-2.52 -6.68)"/><path class="cls-1" d="M14.65,30.66a.38.38,0,0,0,.19.06.19.19,0,0,0,.19-.18c0-.05,0-.17-.2-.18a1.12,1.12,0,0,1-.47-.09.91.91,0,0,0,.29.39" transform="translate(-2.52 -6.68)"/><path class="cls-1" d="M13.3,30.79a.31.31,0,0,0,.18,0,.19.19,0,0,0,.19-.18.17.17,0,0,0-.16-.18H13.4a1,1,0,0,1-.4-.07,1,1,0,0,0,.3.38" transform="translate(-2.52 -6.68)"/><path class="cls-1" d="M12.73,29.59h-.09a1,1,0,0,0-.38.09,1.29,1.29,0,0,1,.3.22h0a.23.23,0,0,0,.11.07l.09,0a.19.19,0,0,0,.19-.16c0-.11-.07-.2-.23-.24" transform="translate(-2.52 -6.68)"/><path class="cls-1" d="M10.34,28.06h0a.21.21,0,0,0,.21.18.14.14,0,0,0,.12-.06.3.3,0,0,0,0-.27,1,1,0,0,0-.33-.36,1.09,1.09,0,0,1,0,.37c0,.1,0,.12,0,.13" transform="translate(-2.52 -6.68)"/><path class="cls-1" d="M9.91,27.58a1.07,1.07,0,0,0-.33-.35,1.35,1.35,0,0,1,0,.36.35.35,0,0,0,0,.14h0a.19.19,0,0,0,.2.17.14.14,0,0,0,.12-.06s.06-.11,0-.27" transform="translate(-2.52 -6.68)"/><path class="cls-1" d="M9.8,28.26H9.73a1.19,1.19,0,0,1-.44-.16.86.86,0,0,0,.29.48.33.33,0,0,0,.16.05.2.2,0,0,0,.18-.16.17.17,0,0,0-.12-.2" transform="translate(-2.52 -6.68)"/><path class="cls-1" d="M10.52,29.18a.32.32,0,0,0,.18.07.18.18,0,0,0,.18-.14.18.18,0,0,0-.11-.21l-.06,0a1.08,1.08,0,0,1-.43-.19,1,1,0,0,0,.24.5" transform="translate(-2.52 -6.68)"/><path class="cls-1" d="M20.37,30.62a.15.15,0,0,0,0-.14,2.28,2.28,0,0,1,0-.46s0-.1-.18-.13h-.1a.67.67,0,0,0-.64.48.68.68,0,0,0,.27.78l.1,0h0a.33.33,0,0,0,0-.16.25.25,0,0,1,0-.23c.07-.09.2-.13.44-.14Z" transform="translate(-2.52 -6.68)"/><path class="cls-1" d="M21.22,32.41h0c.05,0,.1,0,.11,0v0c-.14-.12-.21-.22-.21-.32s.09-.2.21-.3.09-.17,0-.24a1.06,1.06,0,0,1-.3-.35.15.15,0,0,0-.12-.07.32.32,0,0,0-.18.07.71.71,0,0,0,.43,1.27" transform="translate(-2.52 -6.68)"/><path class="cls-1" d="M26,32.29h0a.54.54,0,0,0,.22,0,.61.61,0,0,0,.55-.47.74.74,0,0,0-.33-.85.2.2,0,0,0-.14-.05.15.15,0,0,0-.11.06,2.63,2.63,0,0,1-.3.37.17.17,0,0,0,0,.13.19.19,0,0,0,.11.11.38.38,0,0,1,.22.28c0,.12-.06.23-.21.37" transform="translate(-2.52 -6.68)"/><path class="cls-1" d="M24.78,31.35a.48.48,0,0,0,.3.12.39.39,0,0,0,.2-.06,1.28,1.28,0,0,0,.72-.63.49.49,0,0,0-.1-.42.56.56,0,0,0-.47-.23h-.08a.94.94,0,0,1-.73-.38c-.11-.12-.2-.22-.31-.24l-.11,0s0,0,0,0v.05a.84.84,0,0,0,.31.46,3.88,3.88,0,0,0,.59.33c.12.08.18.15.17.23s-.08.17-.22.24l-.11,0c-.11,0-.21-.07-.3-.22a4,4,0,0,0-.67-.8l-.06,0a.13.13,0,0,0-.08,0,.5.5,0,0,0-.22.19c-.05.07-.09.1-.14.1a.26.26,0,0,1-.14-.05l-.07,0a3.87,3.87,0,0,0-1,.78.28.28,0,0,1-.18.08h0l-.06,0,0,0v0a.25.25,0,0,1,.1-.23,3.34,3.34,0,0,0,.78-.68.15.15,0,0,0,0-.09.2.2,0,0,0-.08-.12.66.66,0,0,0-.32-.07,1.22,1.22,0,0,0-.35.06,1.86,1.86,0,0,1-.34,0,2,2,0,0,1-.56-.08.39.39,0,0,0-.15,0,.29.29,0,0,0-.27.15,1.89,1.89,0,0,0-.06.18,1.41,1.41,0,0,0,0,.51.46.46,0,0,0,.07.16.13.13,0,0,0,.11.06.5.5,0,0,0,.19-.07.54.54,0,0,0,.27-.49.27.27,0,0,1,.17-.16,2.31,2.31,0,0,1,.61-.13l.19,0c.08,0,.13.05.14.1s-.05.12-.1.16a3.45,3.45,0,0,1-.84.41.43.43,0,0,0-.23.51c0,.13.14.28.4.47a.4.4,0,0,0,.22.06.47.47,0,0,0,.39-.28c0-.09.09-.16.25-.25a3.1,3.1,0,0,0,.57-.49.15.15,0,0,1,.11-.05c.09,0,.11.08.13.17l0,.09c.06.09.11.13.17.13s.15-.06.24-.18a.31.31,0,0,1,.14-.07H24s0,.1,0,.2,0,.07,0,.09a.13.13,0,0,1,.1,0,.37.37,0,0,1,.2.07Z" transform="translate(-2.52 -6.68)"/><path class="cls-1" d="M21.13,28.23a.13.13,0,0,0-.1,0,.17.17,0,0,0,0,.1l.66.9a.46.46,0,0,0,.32.17.21.21,0,0,0,.15-.07.3.3,0,0,0,0-.27c0-.07-.05-.1-.07-.1l0,.05a.23.23,0,0,1-.14.08.2.2,0,0,1-.15-.09l-.56-.77a.1.1,0,0,0-.1,0" transform="translate(-2.52 -6.68)"/><path class="cls-1" d="M23.17,29.72a.19.19,0,0,0,.12,0c.07,0,.15,0,.19-.2a1.39,1.39,0,0,0-.1-.78l-.53-1.18c0-.08-.05-.09-.06-.09s0,0-.06.1a.76.76,0,0,0,.14.59c.08.13.16.28.24.44l.1.2a.46.46,0,0,1,0,.38.26.26,0,0,1-.16.09.3.3,0,0,1-.19-.1l-.52-.76a.94.94,0,0,0-.47-.46l-.14,0h0l0,.09c.15.19.28.39.4.57v0a2.61,2.61,0,0,0,1,1.1" transform="translate(-2.52 -6.68)"/><path class="cls-1" d="M22.45,28.08v.08l.4.69,0,0a.12.12,0,0,0,.09-.05.17.17,0,0,0,0-.12l-.4-.61,0,0Z" transform="translate(-2.52 -6.68)"/><path class="cls-1" d="M21.87,28.86h0a.1.1,0,0,0,.08-.05.11.11,0,0,0,0-.11l-.33-.51h0l0,0v.07Z" transform="translate(-2.52 -6.68)"/><path class="cls-1" d="M24.07,29.17a.53.53,0,0,0,.16,0,.1.1,0,0,0,.07,0,.12.12,0,0,0,0-.11A4.54,4.54,0,0,0,24,27.71a1.46,1.46,0,0,1-.11-.41.08.08,0,0,0,0-.1l-.06,0a.55.55,0,0,0,0,.49l.27.69q.06.16,0,.24l0,0h0a.18.18,0,0,1-.15-.1,1.54,1.54,0,0,1-.22-.64c-.08-.28-.15-.31-.22-.34h-.08v0a2.38,2.38,0,0,0,.78,1.52" transform="translate(-2.52 -6.68)"/><path class="cls-1" d="M23,23.94a.19.19,0,0,0-.11.09.27.27,0,0,0,0,.21,4.2,4.2,0,0,1,.5,2.18c0,.25-.15.26-.18.26a.23.23,0,0,1-.2-.13,9.14,9.14,0,0,1-.49-1v0c-.12-.27-.25-.57-.38-.81,0,0,0,0,0,0s0,0-.06.12a.76.76,0,0,0,.08.46c.12.23.24.49.33.7h0a3.82,3.82,0,0,0,.67,1.18.34.34,0,0,0,.19.07q.12,0,.21-.18A4.94,4.94,0,0,0,23.07,24s-.05,0-.06,0" transform="translate(-2.52 -6.68)"/><path class="cls-1" d="M23,26.05s.06,0,.07-.11a2.15,2.15,0,0,0-.66-1.56.13.13,0,0,0-.08,0,.06.06,0,0,0-.06,0,.14.14,0,0,0,0,.14A5.34,5.34,0,0,1,23,26s0,.05.05.05" transform="translate(-2.52 -6.68)"/><path class="cls-1" d="M22.07,27.7a.29.29,0,0,0,.16,0c.06,0,.22,0,.27-.27a4.23,4.23,0,0,0-.73-2.36.14.14,0,0,0-.1-.05.24.24,0,0,0-.15.07.17.17,0,0,0,0,.11,5.78,5.78,0,0,0,.32.76l0,.05a5.81,5.81,0,0,1,.37.93.3.3,0,0,1,0,.27.13.13,0,0,1-.11.06.24.24,0,0,1-.18-.09,5.75,5.75,0,0,1-.77-1.08l0-.06a5.21,5.21,0,0,0-.39-.6c-.06-.07-.11-.1-.15-.1l-.06,0a.25.25,0,0,0,0,.22,6.88,6.88,0,0,0,1.57,2.07" transform="translate(-2.52 -6.68)"/><path class="cls-1" d="M20.68,25h-.05l0,.06a7.05,7.05,0,0,1,1,1.62l.05,0h0a.3.3,0,0,0,0-.14A2.72,2.72,0,0,0,20.71,25Z" transform="translate(-2.52 -6.68)"/><path class="cls-1" d="M21,27.91c.16,0,.25-.14.25-.36a3.36,3.36,0,0,0-1.11-1.86.24.24,0,0,0-.12-.05l0,0,0,0a9.89,9.89,0,0,1,1,1.4.37.37,0,0,1,0,.34.2.2,0,0,1-.16.09.25.25,0,0,1-.2-.1,16.07,16.07,0,0,0-1.57-1.87.14.14,0,0,0-.09-.05l-.06,0a.14.14,0,0,0,0,.11,24.28,24.28,0,0,1,1.69,2.06.52.52,0,0,0,.34.18" transform="translate(-2.52 -6.68)"/><path class="cls-1" d="M19.32,25.31h0a.2.2,0,0,0,0,.18l1.29,1.57.08,0h0a.19.19,0,0,0,0-.11l-1.3-1.65Z" transform="translate(-2.52 -6.68)"/><path class="cls-1" d="M24.53,13.07a1.93,1.93,0,0,0,.76.4s.07,0,.08,0a.31.31,0,0,0,.1-.27.46.46,0,0,0-.29-.29h0a.31.31,0,0,1-.05.19.25.25,0,0,1-.16.06.24.24,0,0,1-.25-.21.57.57,0,0,0-.27-.37h0a.48.48,0,0,1,.06.35.18.18,0,0,0,0,.18" transform="translate(-2.52 -6.68)"/><path class="cls-1" d="M22.87,14l-.18,0h0l0,.06a.84.84,0,0,0,.53.23.28.28,0,0,0,.24-.12c.07-.11,0-.32-.13-.57l0,0h0v0s0-.08-.24-.28h0c0,.06-.07.09-.17.11l-.2,0h-.27l0,0a.18.18,0,0,0,.14.13c.48,0,.65.16.65.3s-.13.22-.3.22" transform="translate(-2.52 -6.68)"/><path class="cls-1" d="M23.07,14.83c.36.11.46.35.43.52a.26.26,0,0,1-.24.25.42.42,0,0,1-.27-.13.24.24,0,0,0,0,.16.87.87,0,0,0,.67.47.2.2,0,0,0,.19-.09.37.37,0,0,0,0-.37,2,2,0,0,1-.22-1,.13.13,0,0,0,0-.11l-.11.05a.42.42,0,0,1-.22.05.73.73,0,0,1-.4-.12l-.05.05s0,0,0,.07Z" transform="translate(-2.52 -6.68)"/><path class="cls-1" d="M21.8,20.43a.27.27,0,0,0,0,.22,11.57,11.57,0,0,1,.68,1.06l0,.05c.18.3.32.54.43.7a.21.21,0,0,0,.13.09c.05,0,.1-.09.1-.2a5.18,5.18,0,0,0-1.11-2.56l0,0a.17.17,0,0,0,0,.18,6,6,0,0,1,.74,1.43.21.21,0,0,1,0,.19l0,0h0s-.1,0-.14-.12a6.63,6.63,0,0,0-.68-1.11l0,0Z" transform="translate(-2.52 -6.68)"/><path class="cls-1" d="M21.12,21.79a.07.07,0,0,0-.07,0,.24.24,0,0,0,0,.23A16.62,16.62,0,0,0,22,23.77a.53.53,0,0,0,.42.26.43.43,0,0,0,.36-.22,1.16,1.16,0,0,0,0-1,10.5,10.5,0,0,0-1.1-1.85.09.09,0,0,0-.08,0,.07.07,0,0,0-.07,0,.23.23,0,0,0,0,.21,9.31,9.31,0,0,1,1,1.87.54.54,0,0,1,0,.51.25.25,0,0,1-.22.12.28.28,0,0,1-.25-.15,10.51,10.51,0,0,1-.87-1.63.16.16,0,0,0-.09-.05" transform="translate(-2.52 -6.68)"/><path class="cls-1" d="M22.15,23a.14.14,0,0,0,.12-.06.17.17,0,0,0,0-.18l-.79-1.39a.16.16,0,0,0-.05-.07.12.12,0,0,0,0,0,.5.5,0,0,0,0,.32L22.09,23l.06,0" transform="translate(-2.52 -6.68)"/><path class="cls-1" d="M21.27,24.9a.54.54,0,0,0,.46-.28.79.79,0,0,0-.05-.77,10.34,10.34,0,0,1-.79-1.66c0-.09-.08-.14-.14-.14a.2.2,0,0,0-.13.09.11.11,0,0,0,0,.12A16,16,0,0,0,21.46,24a.42.42,0,0,1,0,.44.25.25,0,0,1-.23.14A.38.38,0,0,1,21,24.4a6.2,6.2,0,0,1-.66-1l-.06-.1c-.13-.21-.26-.44-.4-.63a.14.14,0,0,0-.12-.06.14.14,0,0,0-.13.09.12.12,0,0,0,0,.14l1.12,1.74a.64.64,0,0,0,.52.3" transform="translate(-2.52 -6.68)"/><path class="cls-1" d="M20.12,22.48,21,24a.19.19,0,0,0,.15.09l0,0s0-.08,0-.25l-.89-1.65s0,0-.06,0h0v.08a.16.16,0,0,1,0,.12.18.18,0,0,0,0,.18" transform="translate(-2.52 -6.68)"/><path class="cls-1" d="M20.3,25.29a.61.61,0,0,0,0-.51,7.31,7.31,0,0,0-1-1.77l-.07-.1a.25.25,0,0,0-.2-.09c-.05,0-.09,0-.09,0a.11.11,0,0,0,0,.07,10.87,10.87,0,0,1,1,1.73.3.3,0,0,1,0,.29.2.2,0,0,1-.18.12.25.25,0,0,1-.19-.1,16.7,16.7,0,0,1-1.47-1.84.17.17,0,0,0-.12-.05.13.13,0,0,0-.11.06.17.17,0,0,0,0,.15,12.65,12.65,0,0,0,1.55,2,.59.59,0,0,0,.44.17.36.36,0,0,0,.29-.12" transform="translate(-2.52 -6.68)"/><path class="cls-1" d="M18.4,22.82a4.85,4.85,0,0,0,1.17,1.65.09.09,0,0,0,.07,0l0,0s0-.06,0-.12c-.39-.61-.78-1.17-1.16-1.65h-.06a.13.13,0,0,0,0,.11" transform="translate(-2.52 -6.68)"/><path class="cls-1" d="M18.84,25.29a.17.17,0,0,0,.12,0s0-.07,0-.2a8.67,8.67,0,0,0-1.37-1.85.19.19,0,0,0-.13-.07l0,0a.14.14,0,0,0,0,.07c.3.38.65.82.91,1.23a.17.17,0,0,1,0,.17h0l0,0h0a.27.27,0,0,1-.14-.06,21.47,21.47,0,0,1-1.41-1.82.14.14,0,0,0-.1-.06.18.18,0,0,0-.14.08.12.12,0,0,0,0,.13l.09.13c.57.86,1.29,1.92,2.19,2.2Z" transform="translate(-2.52 -6.68)"/><path class="cls-1" d="M20.73,18.57a.91.91,0,0,0-.09.17c0,.2,0,.25,0,.26h0l.07,0a1,1,0,0,0,.4-.81L21,16.81c0-.09-.06-.14-.1-.14l-.07,0a.23.23,0,0,0,0,.17v.3c0,.16,0,.31,0,.46s0,.3,0,.44a.54.54,0,0,1-.12.48Z" transform="translate(-2.52 -6.68)"/><path class="cls-1" d="M19.69,17.32a.16.16,0,0,0-.09.08,4.38,4.38,0,0,0-.22,1.71.39.39,0,0,0,.39.33.81.81,0,0,0,.68-.59,6.53,6.53,0,0,0,.1-1.82c0-.11-.05-.18-.1-.18l-.06,0a.2.2,0,0,0-.05.14,4.47,4.47,0,0,1-.13,1.68c-.14.23-.28.36-.4.36s-.17,0-.19-.26a6.42,6.42,0,0,1,.13-1.39s0-.06-.06-.1" transform="translate(-2.52 -6.68)"/><path class="cls-1" d="M20,18.58a3.75,3.75,0,0,0,.06-1.46c0-.06,0-.09,0-.09a.17.17,0,0,0-.07.11l-.06,1.45c0,.06,0,.06.05.06s.06,0,.07-.07" transform="translate(-2.52 -6.68)"/><path class="cls-1" d="M18.15,19.41a.2.2,0,0,1-.19-.09c-.05-.08,0-.18,0-.35l.3-1.07a.16.16,0,0,0,0-.1l-.06,0s-.08,0-.11.11c-.07.25-.17.49-.27.75s-.13.35-.21.58a.37.37,0,0,0,0,.27.65.65,0,0,0,.55.2h0c.54-.07.82-.27.85-.61l.22-1.42a.2.2,0,0,0,0-.14l-.07,0s-.1.05-.13.16l-.18,1.08c-.08.45-.3.67-.66.68" transform="translate(-2.52 -6.68)"/><path class="cls-1" d="M18.67,17.58a.14.14,0,0,0-.11.11,9.51,9.51,0,0,1-.21,1.18.11.11,0,0,0,0,.08l.05,0c.05,0,.1,0,.14-.14a8.2,8.2,0,0,0,.16-1.17c0-.08,0-.08,0-.08" transform="translate(-2.52 -6.68)"/><path class="cls-1" d="M16.6,19.45a.88.88,0,0,0,.32.08.56.56,0,0,0,.47-.32l.4-1.14c0-.1,0-.13,0-.15s0,0-.05,0a6.13,6.13,0,0,1-.53,1.14.33.33,0,0,1-.26.16.23.23,0,0,1-.2-.11.26.26,0,0,1,0-.28,8.13,8.13,0,0,0,.44-1,.11.11,0,0,0,0-.12.08.08,0,0,0-.07.07,7.58,7.58,0,0,1-.56,1.1.46.46,0,0,0-.08.35.33.33,0,0,0,.17.18" transform="translate(-2.52 -6.68)"/><path class="cls-1" d="M17.34,17.93a4.27,4.27,0,0,1-.39.92A.11.11,0,0,0,17,19l0,0a.12.12,0,0,0,.09-.06,2.45,2.45,0,0,0,.4-.93.13.13,0,0,0-.07-.13s0,0-.06.07" transform="translate(-2.52 -6.68)"/><path class="cls-1" d="M16.69,17.88s0,0,0,.05a6,6,0,0,1-.44.74.13.13,0,0,0,0,.1h.09a2.2,2.2,0,0,0,.46-.8s0,0,0-.09" transform="translate(-2.52 -6.68)"/><path class="cls-1" d="M15.67,19a.53.53,0,0,0,.37.25.17.17,0,0,0,.13-.08V19.1L16,19a.23.23,0,0,1-.07-.1.35.35,0,0,1,.07-.21,2.42,2.42,0,0,0,.41-.55.19.19,0,0,0,0-.17l0,0s-.05,0-.07.07a6.42,6.42,0,0,1-.58.73c-.09.12-.11.2-.06.28" transform="translate(-2.52 -6.68)"/><path class="cls-1" d="M15.57,19.44a1.8,1.8,0,0,0-.37,1.43,3.74,3.74,0,0,0,.25.66,3.15,3.15,0,0,1,.18.41,1.5,1.5,0,0,1,.1.63s0,.1.17.1a1.24,1.24,0,0,0,.23,0,.59.59,0,0,0,.35-.26.42.42,0,0,0,0-.33C16,21,16,20.32,16.39,19.76a.17.17,0,0,0,0-.14.11.11,0,0,0-.1-.06.16.16,0,0,0-.13.07,1.16,1.16,0,0,0-.33.92,2.57,2.57,0,0,0,.15.72c.05.17.11.36.15.56a.18.18,0,0,1,0,.19.11.11,0,0,1-.1.06s-.12,0-.18-.18-.12-.36-.17-.5h0a2.47,2.47,0,0,1-.19-.73,1.59,1.59,0,0,1,.33-1.08h0c0-.06,0-.11,0-.14a.13.13,0,0,0-.12-.06.17.17,0,0,0-.14.07" transform="translate(-2.52 -6.68)"/><path class="cls-1" d="M16.51,21.44a3.06,3.06,0,0,0,.63,1.31.6.6,0,0,0,.44.16.54.54,0,0,0,.56-.42.84.84,0,0,0-.06-.38A.58.58,0,0,1,18,22a3.37,3.37,0,0,1,0-1.81.11.11,0,0,0,0-.11.16.16,0,0,0-.11,0,.19.19,0,0,0-.16.08,3.22,3.22,0,0,0,0,2,.4.4,0,0,1-.05.33.28.28,0,0,1-.21.1.29.29,0,0,1-.26-.14,2.34,2.34,0,0,1-.3-2.4.15.15,0,0,0,0-.18.12.12,0,0,0-.1-.05.17.17,0,0,0-.14.09,2.08,2.08,0,0,0-.16,1.63" transform="translate(-2.52 -6.68)"/><path class="cls-1" d="M17.46,19.81a.11.11,0,0,0-.09,0,.16.16,0,0,0-.13.1,2.43,2.43,0,0,0,.09,2.07.1.1,0,0,0,.07.05l0,0a.23.23,0,0,0,0-.16,2.45,2.45,0,0,1,0-1.88.09.09,0,0,0,0-.11" transform="translate(-2.52 -6.68)"/><path class="cls-1" d="M18.55,20l-.08,0a.14.14,0,0,0-.14.11,3.54,3.54,0,0,0,0,1.89.74.74,0,0,0,.74.57.63.63,0,0,0,.63-.61,7.29,7.29,0,0,1-.09-2.05.16.16,0,0,0,0-.12.18.18,0,0,0-.12-.05.11.11,0,0,0-.11.09,5.51,5.51,0,0,0-.09,1.63s0,.08,0,.13a.53.53,0,0,1,0,.43.28.28,0,0,1-.21.11.42.42,0,0,1-.33-.22,3.06,3.06,0,0,1-.1-1.78.18.18,0,0,0,0-.11" transform="translate(-2.52 -6.68)"/><path class="cls-1" d="M19,19.83h0s-.08,0-.1.09a5.62,5.62,0,0,0-.07,1.64.12.12,0,0,0,.13.1c.05,0,.11,0,.12-.14a7.92,7.92,0,0,1,0-1.62Z" transform="translate(-2.52 -6.68)"/><path class="cls-1" d="M20.56,19.33a.53.53,0,0,0,0,.32,3.56,3.56,0,0,1,.23,1.45.33.33,0,0,1-.3.28.28.28,0,0,1-.27-.2,4.86,4.86,0,0,1-.13-1.37.14.14,0,0,0-.14-.12.13.13,0,0,0-.09,0,.1.1,0,0,0,0,.1,3.73,3.73,0,0,0,.3,1.87.4.4,0,0,0,.32.16c.23,0,.47-.22.64-.58a2.67,2.67,0,0,0-.41-1.91l-.06,0Z" transform="translate(-2.52 -6.68)"/><path class="cls-1" d="M20.46,20.88s.05-.07.05-.11c-.07-.39-.12-.75-.16-1.13,0-.09-.05-.11-.07-.11s-.05,0-.05.08a5,5,0,0,0,.17,1.24Z" transform="translate(-2.52 -6.68)"/><path class="cls-1" d="M21.38,18.69s0,0,0,.09a1,1,0,0,0,.1.42h0a1.2,1.2,0,0,1,.11.47c0,.12-.11.14-.15.14l-.08,0c-.13,0-.22-.27-.24-.38s.07-.12.09-.09.07.1.09.08-.06-.34-.06-.34a.14.14,0,0,0-.12,0,.29.29,0,0,0-.15.06c-.07,0-.11.08-.07.21a2.07,2.07,0,0,0,.46,1,.12.12,0,0,0,.09,0c.06,0,.11,0,.17-.11a1.29,1.29,0,0,0-.18-1.47s-.05,0-.05,0" transform="translate(-2.52 -6.68)"/><path class="cls-1" d="M22,18.45h-.06a.08.08,0,0,0-.07,0s0,0,0,.07a1,1,0,0,0,.14.19c.13.15.3.33.1.53-.05,0-.05,0,0,.12s.09.1.15.1a.3.3,0,0,0,.15-.05l.26-.33,0-.07s0,0-.05,0-.27-.16-.37-.29a.92.92,0,0,0-.29-.27" transform="translate(-2.52 -6.68)"/><path class="cls-1" d="M22.72,18.41a.2.2,0,0,1-.11,0l-.31-.24-.06,0s-.07,0-.09.06a.11.11,0,0,0,0,.1,2.33,2.33,0,0,0,.47.47.25.25,0,0,0,.16.07.24.24,0,0,0,.13-.05,2.26,2.26,0,0,1,.25-.28,1,1,0,0,0,.33-.44.31.31,0,0,0,0-.11s0,0-.1,0a1,1,0,0,1-.63-.34l-.06,0a.15.15,0,0,0-.11.07s0,.06,0,.1l.31.32a.23.23,0,0,1,0,.24.24.24,0,0,1-.2.12" transform="translate(-2.52 -6.68)"/><path class="cls-1" d="M23.39,17.19a.31.31,0,0,1-.22-.11s0,0-.05,0,0,0-.07,0-.12.23-.07.29a.79.79,0,0,0,.49.3.37.37,0,0,0,.29-.2,2.15,2.15,0,0,0,.2-.76.19.19,0,0,0,0-.12s-.07,0-.1-.05h0l-.06,0a3.19,3.19,0,0,1-.59-.37v0a.23.23,0,0,0,.05.25l.29.24a.39.39,0,0,1,.08.4.2.2,0,0,1-.18.13" transform="translate(-2.52 -6.68)"/><path class="cls-1" d="M29.22,31.47a.3.3,0,0,0,0-.29c0-.07-.06-.08-.2-.1s-.42,0-.43-.4v-.13l-.06,0a.62.62,0,0,0-.37.36.8.8,0,0,1-.11.19.51.51,0,0,1-.3.14c-.13,0-.23-.07-.32-.23s0-.08,0-.09l-.07.09a.49.49,0,0,0-.07.36,1,1,0,0,1-.13.63c-.27.46-.57.69-.92.7l-.25,0h-.05a.14.14,0,0,0-.12.11c0,.06,0,.12,0,.13a1.37,1.37,0,0,0,.47.08,1.12,1.12,0,0,0,.89-.5c.38-.53.85-1.2,1.39-1.21a.59.59,0,0,1,.34.08h0a.27.27,0,0,0,.21.15.1.1,0,0,0,.1-.06" transform="translate(-2.52 -6.68)"/><path class="cls-1" d="M30.51,33.1a.33.33,0,0,1-.32-.11.36.36,0,0,1,0-.36l0-.05H30.1c-.28.05-.34.14-.35.3a.23.23,0,0,1-.16.28,4.53,4.53,0,0,1-1.94.51,5.16,5.16,0,0,1-1.49-.24c-.29-.08-.53-.15-.78-.2s-.29.06-.31.13a.11.11,0,0,0,.05.11l.58.2c.08,0,.32.07.33.3s.2.4.37.4h.07a.34.34,0,0,1,0-.26.13.13,0,0,1,.13-.1l.12,0a5.14,5.14,0,0,0,1,.1,4.48,4.48,0,0,0,.65-.06h.08a.2.2,0,0,1,.15.07,1,1,0,0,0,.55.23.44.44,0,0,0,.25-.1h0c-.1,0-.18-.11-.24-.25s0-.17.14-.2a1.61,1.61,0,0,0,.61-.3.26.26,0,0,1,.22-.08h0c.39,0,.48-.13.5-.21v-.09h-.16" transform="translate(-2.52 -6.68)"/><path class="cls-1" d="M30.6,31.7a.86.86,0,0,1-.67.35.68.68,0,0,1-.29,0,.32.32,0,0,1-.12-.22c0-.14.11-.3.34-.5a.67.67,0,0,1,.38-.16.38.38,0,0,1,.33.16.43.43,0,0,1,0,.42m-.41-.79a.67.67,0,0,0-.41.15c-.56.47-.68.83-.4,1.2a1.07,1.07,0,0,0,.53.15,1.43,1.43,0,0,0,.91-.43.62.62,0,0,0,0-.68.73.73,0,0,0-.65-.39" transform="translate(-2.52 -6.68)"/><path class="cls-1" d="M31.88,31.49c0-.12-.07-.12-.11-.12h-.06a2.15,2.15,0,0,0-.36.11.1.1,0,0,0-.09.1.13.13,0,0,0,.07.15,2.51,2.51,0,0,0,.44.11h0a.06.06,0,0,0,.06,0s0,0,0-.08a.53.53,0,0,1,0-.25" transform="translate(-2.52 -6.68)"/><path class="cls-1" d="M31.68,30.93a2.9,2.9,0,0,1-.22-.27s-.06-.06-.08-.06-.05,0-.1.06A.84.84,0,0,0,31,31a.22.22,0,0,0,0,.2.23.23,0,0,0,.17.07.83.83,0,0,0,.44-.19c.05-.05.05-.07,0-.11" transform="translate(-2.52 -6.68)"/><path class="cls-1" d="M30.91,30.23c-.06-.05-.09-.06-.12-.06s0,0-.08.07a1,1,0,0,0-.11.25.27.27,0,0,0,0,.2s.07,0,.14,0h.09a.64.64,0,0,0,.3-.22l0-.05a.23.23,0,0,0-.07-.08,1.67,1.67,0,0,1-.2-.15" transform="translate(-2.52 -6.68)"/><path class="cls-1" d="M32.23,30a.21.21,0,0,0-.21.15.34.34,0,0,1-.27.35c-.07,0,0,.14,0,.14s.09.17.17.16l.06,0a.41.41,0,0,1,.34-.17l.17,0a.17.17,0,0,0,.16-.12.35.35,0,0,0-.1-.37.38.38,0,0,0-.28-.14" transform="translate(-2.52 -6.68)"/><path class="cls-1" d="M17.56,32.83c0,.1-.06.17-.22.23l0,0a.47.47,0,0,0,.16,0,.68.68,0,0,0,.38-.15.76.76,0,0,1,.45-.17,1.07,1.07,0,0,1,.36.08c.14.06.21.12.23.2a.2.2,0,0,1-.07.18H19c.22,0,.38-.13.48-.4a.78.78,0,0,1,.46-.3.64.64,0,0,0,.16-.37s0-.09-.06-.12l-.07,0a2.67,2.67,0,0,1-1.31.35A7,7,0,0,1,16,31.76a.51.51,0,0,1-.29-.61l.34-1a.81.81,0,0,1,.77-.49,4.8,4.8,0,0,1,2.35,1l.05,0,0,0a.26.26,0,0,0,0-.25l-.38-.31a.41.41,0,0,1-.16-.33c0-.34-.17-.43-.31-.49h0a.35.35,0,0,0,0,.06l0,.27a.15.15,0,0,1-.15.1H18a1.21,1.21,0,0,1-.94-.55c-.13-.17-.22-.29-.44-.28h-.1l.11.1a.23.23,0,0,1,.08.21c0,.08-.09.14-.23.18a.46.46,0,0,0-.21,0l-.16,0a.44.44,0,0,1-.24-.09h0a.56.56,0,0,0-.3-.1.45.45,0,0,0-.16,0h0a.49.49,0,0,1,.22.64l-.41,1.25a.86.86,0,0,0,.24.87c.3.11.43.22.44.34s-.06.16-.2.24h0a.53.53,0,0,0,.24.06.51.51,0,0,0,.35-.16.55.55,0,0,1,.31-.12.52.52,0,0,1,.21,0c.46.12.68.24.69.38" transform="translate(-2.52 -6.68)"/><path class="cls-1" d="M15.29,30.2a.08.08,0,0,0,.07-.05.09.09,0,0,0,0-.11,1.64,1.64,0,0,0-.6-.6l-.08,0a.08.08,0,0,0-.07,0,.1.1,0,0,0,0,.12,2.37,2.37,0,0,1,.6.59Z" transform="translate(-2.52 -6.68)"/><path class="cls-1" d="M11.26,30.19c0,.3,0,.58-.28.62h0a.65.65,0,0,0,.33.1.59.59,0,0,0,.25-.07.18.18,0,0,1,.13-.06.14.14,0,0,1,.09,0l.83.39c.11.05.16.1.17.17s0,.13-.14.2a.69.69,0,0,0,.24.05.68.68,0,0,0,.36-.14.22.22,0,0,1,.16-.07h.51a4,4,0,0,0,1-.13.27.27,0,0,0,.12-.28A.1.1,0,0,0,15,31h-.06a3.1,3.1,0,0,1-.92.15,3.69,3.69,0,0,1-2.11-.69c-.16-.06-.22-.23-.17-.53a3.19,3.19,0,0,1,.51-1,.24.24,0,0,1,.2-.11h.24c.25,0,.29-.1.29-.19a.16.16,0,0,1,0,0h-.11a.76.76,0,0,1-.49-.23.44.44,0,0,0-.29-.17h0a.3.3,0,0,1,0,.46,2.37,2.37,0,0,0-.69,1.56" transform="translate(-2.52 -6.68)"/><path class="cls-1" d="M13.41,29.5h0a.92.92,0,0,1,0-.83.35.35,0,0,1,.28-.14.34.34,0,0,1,.28.13.56.56,0,0,1,.05.5c-.09.31-.21.46-.38.47a.43.43,0,0,1-.26-.12m1-.24a.83.83,0,0,0-.13-.71.68.68,0,0,0-.54-.25.54.54,0,0,0-.39.16.83.83,0,0,0-.2.68,1.13,1.13,0,0,0,.34.77.81.81,0,0,0,.25,0c.29,0,.52-.23.67-.69" transform="translate(-2.52 -6.68)"/><path class="cls-1" d="M14.65,28.37A.69.69,0,0,0,15,28.2a.14.14,0,0,0-.05-.2l-.2-.15h-.06s-.08,0-.12.09a.47.47,0,0,0-.1.3c0,.1.07.14.16.14Z" transform="translate(-2.52 -6.68)"/><path class="cls-1" d="M14.3,27.63l-.25-.09h-.11s0,0,0,.11l0,.33c0,.07.08.1.13.1a.29.29,0,0,0,.15-.06l.15-.19a.19.19,0,0,0,0-.15s-.05,0-.11-.06" transform="translate(-2.52 -6.68)"/><path class="cls-1" d="M13.59,27.57l-.26,0a.13.13,0,0,0-.08,0,.4.4,0,0,0,0,.19c.05.13.17.32.28.32s.09,0,.13-.12a.24.24,0,0,0,0-.15V27.7a.14.14,0,0,0-.06-.15Z" transform="translate(-2.52 -6.68)"/><path class="cls-1" d="M10.13,29.71l.09,0a2.07,2.07,0,0,0,.57.1.54.54,0,0,0,.19,0,.11.11,0,0,0,.08-.12c0-.06-.07-.07-.11-.07a3.13,3.13,0,0,1-2.31-1.53.58.58,0,0,1,0-.63,2,2,0,0,1,.81-.66.64.64,0,0,1,.31-.09.5.5,0,0,1,.34.13,4,4,0,0,1,1.14,1.82c0,.12.07.18.12.18s.1,0,.12-.15l-.07-.36a.36.36,0,0,1,0-.3c.24-.31.26-.55,0-.76h0c-.08.21-.17.31-.27.32s-.16-.07-.23-.2a3.26,3.26,0,0,0-.78-.82c-.13-.08-.18-.17-.15-.25-.06-.37-.18-.4-.35-.43h0c.09.28,0,.47-.36.58a2,2,0,0,0-1.15,1A.26.26,0,0,1,8,27.7a.43.43,0,0,1-.25-.12h0v.05A.46.46,0,0,0,8,28.1a.24.24,0,0,1,.24.17,1.05,1.05,0,0,0,.29.39c.08.08.11.14.09.2s-.11.11-.29.13l0,0a.59.59,0,0,0,.48.17h.08a.24.24,0,0,1,.18.07l.35.22c.1.05.14.1.14.16s-.06.15-.2.23h0a.57.57,0,0,0,.28.09A.38.38,0,0,0,10,29.8a.18.18,0,0,1,.15-.09" transform="translate(-2.52 -6.68)"/><path class="cls-1" d="M8.24,25.29c.08,0,.27,0,.39.34s.13.48.06.59a.24.24,0,0,1-.21.1H8.41a.87.87,0,0,1-.5-.69.34.34,0,0,1,.33-.34m-.49.09a.73.73,0,0,0,0,.62,1.17,1.17,0,0,0,.75.6h.08A.44.44,0,0,0,9,26.36a1,1,0,0,0-.13-.93.79.79,0,0,0-.62-.4.6.6,0,0,0-.51.35" transform="translate(-2.52 -6.68)"/><path class="cls-1" d="M8.35,24.84a.22.22,0,0,0,.16-.11.8.8,0,0,0,.09-.31c0-.1,0-.12-.09-.15a.4.4,0,0,0-.19,0,.36.36,0,0,0-.14,0s-.07.08-.06.18.12.4.23.4" transform="translate(-2.52 -6.68)"/><path class="cls-1" d="M7.93,24.89a.59.59,0,0,0,0-.44.19.19,0,0,0,0-.08.21.21,0,0,0-.12,0,.44.44,0,0,0-.33.17s0,.08,0,.14c.13.22.26.3.33.29a.08.08,0,0,0,.08,0" transform="translate(-2.52 -6.68)"/><path class="cls-1" d="M7.31,24.71c-.1,0-.24.16-.27.27a.08.08,0,0,0,0,.09.57.57,0,0,0,.37.17.15.15,0,0,0,.14-.07c0-.09,0-.25-.21-.43Z" transform="translate(-2.52 -6.68)"/><path class="cls-1" d="M7.21,23.9a.21.21,0,0,1,.18.21c0,.08.07.12.14.11a.13.13,0,0,0,.12-.08.19.19,0,0,0,0-.21.21.21,0,0,1,0-.23.29.29,0,0,0,0-.26.25.25,0,0,0-.2-.08.4.4,0,0,0-.37.23c0,.14.1.25.21.31" transform="translate(-2.52 -6.68)"/><path class="cls-1" d="M14.72,32.63a.32.32,0,0,1-.19.07.29.29,0,0,1-.27-.16.35.35,0,0,1,.06-.37.24.24,0,0,1,.18-.07.31.31,0,0,1,.28.18.33.33,0,0,1-.06.35m.33,0a.55.55,0,0,0-.13-.59.53.53,0,0,0-.42-.2.59.59,0,0,0-.48.28.63.63,0,0,0,.09.65.55.55,0,0,0,.94-.14" transform="translate(-2.52 -6.68)"/><path class="cls-1" d="M12.07,34.62a.36.36,0,0,1-.18.07.3.3,0,0,1-.27-.16.37.37,0,0,1,.06-.37.3.3,0,0,1,.18-.08.31.31,0,0,1,.27.19.3.3,0,0,1-.06.35m-.21-.78a.52.52,0,0,0-.47.27.62.62,0,0,0,.09.65.54.54,0,0,0,.42.21h0a.55.55,0,0,0,.49-.35.53.53,0,0,0-.12-.59.48.48,0,0,0-.41-.19" transform="translate(-2.52 -6.68)"/><path class="cls-1" d="M26.51,36.88a.37.37,0,0,1-.2.07.34.34,0,0,1-.3-.18.36.36,0,0,1,.06-.38.33.33,0,0,1,.44.49m-.26-.83a.58.58,0,0,0-.51.29.65.65,0,0,0,.11.68.66.66,0,0,0,.48.23.6.6,0,0,0,.54-.37.55.55,0,0,0-.15-.62.61.61,0,0,0-.47-.21" transform="translate(-2.52 -6.68)"/><path class="cls-1" d="M16.27,34.21a3.51,3.51,0,0,1-1.15-1.05c0-.06-.08-.1-.13-.09a.08.08,0,0,0-.07,0,.19.19,0,0,0,0,.18,2.26,2.26,0,0,0,1.36,1.09s.09,0,.09-.05,0-.08-.08-.12" transform="translate(-2.52 -6.68)"/><path class="cls-1" d="M16.2,36.4a5.57,5.57,0,0,0-1.11-.18.09.09,0,0,0-.09.07.12.12,0,0,0,.09.12,4.59,4.59,0,0,1,1.12.41h.06s0,0,0-.07v-.24c0-.07,0-.08-.1-.12" transform="translate(-2.52 -6.68)"/><path class="cls-1" d="M14.2,35.84a1.23,1.23,0,0,0-.77.36s0,.09,0,.11,0,0,.1,0a.49.49,0,0,0,.22-.06.9.9,0,0,1,.55-.23h.08c.16,0,.21.11.21.19a.17.17,0,0,1-.16.16.12.12,0,0,1-.09,0,.15.15,0,0,0-.11,0h-.09a1.6,1.6,0,0,0-.36.16l0,0-.08,0-.05,0s0,0,.05,0a1.85,1.85,0,0,0,.57.1.55.55,0,0,0,.5-.23.47.47,0,0,0,0-.43.51.51,0,0,0-.48-.24" transform="translate(-2.52 -6.68)"/><path class="cls-1" d="M10,31.48s-.11,0-.11.07.13.16.35.2A1,1,0,0,1,11,32c.13.11.11.21.1.24a.19.19,0,0,1-.17.11.17.17,0,0,1-.16-.12c0-.07,0-.12-.16-.17a1.73,1.73,0,0,0-.45-.11l-.17,0H9.9a.18.18,0,0,0,0,.06c.45.58.79.66,1,.66a.41.41,0,0,0,.35-.21.51.51,0,0,0,0-.49A1.3,1.3,0,0,0,10,31.48" transform="translate(-2.52 -6.68)"/><path class="cls-1" d="M28.35,34.72a2.13,2.13,0,0,0-.85-.19.83.83,0,0,0-.57.18.52.52,0,0,0-.17.39c0,.24.19.5.61.49a1.83,1.83,0,0,0,.9-.31c.05-.05.05-.07.05-.08a.15.15,0,0,0-.08,0l-.18,0a1.87,1.87,0,0,0-.52-.06.22.22,0,0,0-.23.11.14.14,0,0,1-.12.06.21.21,0,0,1-.2-.16s0-.16.18-.23a.88.88,0,0,1,.29-.05,1.2,1.2,0,0,1,.53.11h.19c.17,0,.24-.05.25-.08s0-.08-.08-.12" transform="translate(-2.52 -6.68)"/><path class="cls-1" d="M25.31,35.27A2.3,2.3,0,0,0,26.38,35s.09-.07.08-.13a.18.18,0,0,0-.17-.09.2.2,0,0,0-.1,0,5,5,0,0,1-1.1.16,6.62,6.62,0,0,1-.72,0c-.1,0-.16.06-.16.11s.06.13.22.16c.35,0,.64,0,.88,0" transform="translate(-2.52 -6.68)"/><path class="cls-1" d="M25.37,36.11a.16.16,0,0,1-.06-.13c0-.06.08-.1.2-.14l1-.29a.09.09,0,0,0,.06-.1s0-.12-.21-.12h0c-.93.16-1.42.36-1.47.59s.11.31.39.49a.18.18,0,0,0,.12,0c.08,0,.14,0,.15-.07s0-.09,0-.12Z" transform="translate(-2.52 -6.68)"/><path class="cls-1" d="M25.26,36.67l-.9.22a.13.13,0,0,0,0,.16.16.16,0,0,0,.16.14h.05l.84-.2a.14.14,0,0,0,.06-.16.19.19,0,0,0-.17-.15" transform="translate(-2.52 -6.68)"/><path class="cls-1" d="M15.31,35.37c-.16-.47-1.13-.89-2.47-1a.14.14,0,0,0-.15.09c0,.05,0,.12.13.15a5.61,5.61,0,0,1,2,.72.38.38,0,0,1,.16.22.21.21,0,0,1-.09.15.18.18,0,0,0-.09.14c0,.13.05.16.14.16l.13,0a.57.57,0,0,0,.2-.56" transform="translate(-2.52 -6.68)"/><path class="cls-1" d="M12.93,33.88c0-.2-.2-.66-1.35-1.2h-.07s0,0-.06,0a.13.13,0,0,0,.05.13l.21.15.11.08a3.68,3.68,0,0,1,.67.51.19.19,0,0,1,.08.15.12.12,0,0,1-.06.1c0,.07,0,.09,0,.09a.41.41,0,0,0,.25.08.16.16,0,0,0,.17-.11" transform="translate(-2.52 -6.68)"/><path class="cls-1" d="M13.13,33.2l.48.21a2.07,2.07,0,0,0,.62.24h.07c.17,0,.29-.07.32-.18a.24.24,0,0,0-.14-.25l-.09,0,0,0a.22.22,0,0,1-.19.13l-.16,0a16.35,16.35,0,0,1-2.23-1.11l-.11,0a.09.09,0,0,0-.08,0l0,.1a10.35,10.35,0,0,0,1.5.88" transform="translate(-2.52 -6.68)"/><path class="cls-1" d="M4.87,21.68h0a.71.71,0,0,1,.36.3.9.9,0,0,1,0,.45,1.13,1.13,0,0,1-.06.32s0,0-.11,0l-.9-.11,0-.29c0-.15.06-.2.09-.22a.81.81,0,0,1,.29,0h0l0-.14-.94-.12V22h0a.67.67,0,0,1,.27.12s0,.08,0,.23l0,.29-.81-.1c-.06,0-.08,0-.08,0s0,0,0-.05l.05-.41c0-.21.07-.29.11-.31s.11-.06.31-.07h0l0-.14L3,21.46l-.22,1.68.14,0v0C3,23,3,23,3,22.94s0,0,.11,0h.13L5,23.15c.17,0,.22.05.24.07a.44.44,0,0,1,0,.2v0l.14,0,.22-1.7-.69-.24Z" transform="translate(-2.52 -6.68)"/><path class="cls-1" d="M5.33,19.89a.75.75,0,0,0-.42,0,1.68,1.68,0,0,0-.45.26l-.26.21a1.21,1.21,0,0,1-.26.15.39.39,0,0,1-.24,0,.37.37,0,0,1-.21-.14.31.31,0,0,1,0-.21.51.51,0,0,1,.21-.26.86.86,0,0,1,.53-.1h0l0-.13-.88-.15,0,.12h0s.06,0,.07,0,0,0,0,.05a.66.66,0,0,1-.1.14.57.57,0,0,0-.13.24.53.53,0,0,0,.09.47.8.8,0,0,0,.45.28.74.74,0,0,0,.44,0,1.18,1.18,0,0,0,.23-.14l.26-.2A1.64,1.64,0,0,1,5,20.31a.46.46,0,0,1,.31,0,.41.41,0,0,1,.27.17.3.3,0,0,1,0,.24.51.51,0,0,1-.35.35,1.31,1.31,0,0,1-.44.07h0l0,.12.87.13,0-.13h0l-.07,0v0s0,0,.1-.15a.67.67,0,0,0,.14-.28.59.59,0,0,0-.08-.52.74.74,0,0,0-.46-.32" transform="translate(-2.52 -6.68)"/><path class="cls-1" d="M6.39,18.58a.41.41,0,0,1-.14.19A.46.46,0,0,1,6,18.72L4.22,18l0-.13a.47.47,0,0,1,.2-.27,1,1,0,0,1,.4,0h0l.06-.12-.68-.24L3.61,19l.67.28,0-.13,0,0A.79.79,0,0,1,4,18.84a.46.46,0,0,1,0-.33l0-.13,1.75.67a.84.84,0,0,1,.26.14s0,.08,0,.23v0l.13.05.34-.89-.13-.06Z" transform="translate(-2.52 -6.68)"/><path class="cls-1" d="M6.28,16.72,6,17.26l-.67-.69Zm1.2-.32a.27.27,0,0,1-.11.09.76.76,0,0,1-.28,0L4.8,16.13l-.06.1,1.38,1.45a5.33,5.33,0,0,1,.36.42.22.22,0,0,1,0,.18v0l.12.07.31-.6-.12-.06v0l-.09.11s-.07,0-.12,0l-.09-.08-.32-.32.35-.66.36.05.15,0,.08,0s.06,0,.06.05a.87.87,0,0,1,0,.16v0l.12.06.4-.75-.12-.06Z" transform="translate(-2.52 -6.68)"/><path class="cls-1" d="M8.13,15.09a.88.88,0,0,1-.2.56c0,.07-.08.09-.09.09a.14.14,0,0,1-.09,0L6.18,14.56c-.06-.05-.06-.07-.06-.08s0,0,0-.11A.85.85,0,0,1,6.74,14h.12a1.34,1.34,0,0,1,.75.29,1,1,0,0,1,.52.81m.1-.73A1.38,1.38,0,0,0,7.84,14a1.21,1.21,0,0,0-1.23-.23,1.38,1.38,0,0,0-.57.47l-.5.7.11.08,0,0c.08-.09.13-.12.17-.12s.09,0,.22.12l1.37,1c.14.1.17.15.17.17s0,.09-.06.2v0l.1.08.53-.72a1.37,1.37,0,0,0,.25-.54.8.8,0,0,0,0-.31,1.14,1.14,0,0,0-.19-.49" transform="translate(-2.52 -6.68)"/><path class="cls-1" d="M9.58,13.76a.48.48,0,0,1-.5.12,1.6,1.6,0,0,1-.75-.47,1.71,1.71,0,0,1-.5-.75.53.53,0,0,1,.11-.5A.49.49,0,0,1,8.3,12l.13,0a1.44,1.44,0,0,1,.76.48,1.55,1.55,0,0,1,.5.75.49.49,0,0,1-.11.49m-.1-1.53a1.41,1.41,0,0,0-.93-.48A.86.86,0,0,0,7.8,12a.9.9,0,0,0-.26.75,1.54,1.54,0,0,0,.5.93,1.47,1.47,0,0,0,.9.47h.13a.9.9,0,0,0,.66-.27,1,1,0,0,0,.25-.75,1.47,1.47,0,0,0-.5-.93" transform="translate(-2.52 -6.68)"/><path class="cls-1" d="M10.93,11.34a1.56,1.56,0,0,0-.48-.06h-.39a1,1,0,0,1-.28,0,.36.36,0,0,1-.2-.15.3.3,0,0,1-.08-.23.27.27,0,0,1,.1-.18.48.48,0,0,1,.33-.09.93.93,0,0,1,.48.25l0,0,.11-.09-.6-.64-.1.07,0,0a.13.13,0,0,1,0,.08l0,0s0,0-.16.05a.84.84,0,0,0-.25.11.53.53,0,0,0-.21.43.77.77,0,0,0,.18.5.67.67,0,0,0,.37.24,1,1,0,0,0,.27,0h.36a1.33,1.33,0,0,1,.35,0,.44.44,0,0,1,.27.17.42.42,0,0,1,.11.3.3.3,0,0,1-.11.22.49.49,0,0,1-.49.07,1.51,1.51,0,0,1-.39-.21h0l-.11.08.63.63.1-.08,0,0,0-.08,0,0a.62.62,0,0,1,.17,0,.87.87,0,0,0,.29-.14.63.63,0,0,0,.25-.47.78.78,0,0,0-.18-.53.79.79,0,0,0-.33-.25" transform="translate(-2.52 -6.68)"/><path class="cls-1" d="M13.77,8.68a.84.84,0,0,1-.12-.35.3.3,0,0,1,.15-.18l0,0L13.77,8l-.7.33.06.12h0a.37.37,0,0,1,.23,0,.85.85,0,0,1,.21.31l.43.9a1.62,1.62,0,0,1,.17.5.47.47,0,0,1-.3.47.42.42,0,0,1-.51-.07,1.09,1.09,0,0,1-.26-.38l-.53-1.1c-.08-.15-.08-.21-.07-.24s0-.08.16-.15h0l-.06-.12-.84.4,0,.13h0a.4.4,0,0,1,.21,0s.08.05.15.21l.52,1.07a1.35,1.35,0,0,0,.34.48.72.72,0,0,0,.44.17.92.92,0,0,0,.38-.09.72.72,0,0,0,.46-.7,1.66,1.66,0,0,0-.19-.61Z" transform="translate(-2.52 -6.68)"/><path class="cls-1" d="M16.06,7.5c0-.06.08-.1.18-.15h0l0-.13-.76.23,0,.13h0a.35.35,0,0,1,.21,0,.65.65,0,0,1,.18.35L16.28,9,14.68,7.7l-.55.17,0,.13h0l.12,0a.42.42,0,0,1,.13.08l0,0L15,9.69a.77.77,0,0,1,.06.36.35.35,0,0,1-.18.15h0l0,.13.75-.23,0-.13h0a.3.3,0,0,1-.2,0,.65.65,0,0,1-.18-.35l-.41-1.3,1.84,1.53.1,0-.61-1.94a.76.76,0,0,1-.07-.37" transform="translate(-2.52 -6.68)"/><path class="cls-1" d="M18,9.38h-.1a.31.31,0,0,1-.13,0s0-.06-.09-.24L17.3,7.47c0-.16,0-.23,0-.26s.06-.06.2-.1h0l0-.13-.95.19,0,.13h0c.11,0,.19,0,.22,0s.07.07.1.23l.33,1.67c0,.17,0,.23,0,.25a.47.47,0,0,1-.21.1h0l0,.13,1-.19,0-.13Z" transform="translate(-2.52 -6.68)"/><path class="cls-1" d="M18.8,9.19h-.08s0,0,0-.1l-.18-1.93c0-.07,0-.09,0-.1l.12,0h.1a.78.78,0,0,1,.55.19,1.13,1.13,0,0,1,.36.83A1.07,1.07,0,0,1,19.4,9a.92.92,0,0,1-.55.22Zm.63-2.27a1.32,1.32,0,0,0-.73-.11l-.86.07,0,.14h0c.13,0,.18,0,.2.05a.42.42,0,0,1,.06.24L18.3,9c0,.17,0,.23,0,.24s-.07.06-.19.09h0v.14L19,9.39a1.59,1.59,0,0,0,.58-.16,1.11,1.11,0,0,0,.24-.2A1.12,1.12,0,0,0,20,8.56a1.75,1.75,0,0,0,0-.56,1.18,1.18,0,0,0-.63-1.08" transform="translate(-2.52 -6.68)"/><path class="cls-1" d="M22,8.07a1.58,1.58,0,0,1-.23.86.51.51,0,0,1-.45.25.52.52,0,0,1-.42-.3A1.65,1.65,0,0,1,20.79,8,1.64,1.64,0,0,1,21,7.14a.52.52,0,0,1,.43-.25h0a.52.52,0,0,1,.42.28,1.6,1.6,0,0,1,.14.9m-.55-1.39a.89.89,0,0,0-.73.32,1.52,1.52,0,0,0-.37,1,1.57,1.57,0,0,0,.24,1,.88.88,0,0,0,.72.41h.05a.93.93,0,0,0,.68-.3,1.48,1.48,0,0,0,.37-1,1.46,1.46,0,0,0-.26-1,.92.92,0,0,0-.7-.39" transform="translate(-2.52 -6.68)"/><path class="cls-1" d="M24.18,7.06s0,.06,0,.07l0,0h0L24,7.06a.62.62,0,0,0-.25-.12.57.57,0,0,0-.47.12.79.79,0,0,0-.24.47A.75.75,0,0,0,23,8a1.34,1.34,0,0,0,.16.22l.22.25a2,2,0,0,1,.23.3.5.5,0,0,1-.1.6.36.36,0,0,1-.24.06.52.52,0,0,1-.38-.33,1.44,1.44,0,0,1-.1-.42v0l-.13,0-.06.88.12,0v0l0-.08h0l.15.09a.81.81,0,0,0,.29.13h.14a.58.58,0,0,0,.38-.13.83.83,0,0,0,.25-.9,1.7,1.7,0,0,0-.29-.43l-.23-.25a.85.85,0,0,1-.17-.25.38.38,0,0,1,0-.24.31.31,0,0,1,.12-.21.28.28,0,0,1,.21,0,.44.44,0,0,1,.27.19.91.91,0,0,1,.14.53v0l.14,0,.08-.88-.12,0Z" transform="translate(-2.52 -6.68)"/><path class="cls-1" d="M27.88,11a.33.33,0,0,1-.15-.13s0-.09.06-.25l.68-1.55a.56.56,0,0,1,.14-.21.42.42,0,0,1,.21,0h0l0-.12-.61-.27L27,9.9l.12-2-.61-.26-.05.12,0,0c.12.06.16.11.17.14a.6.6,0,0,1-.06.24l-.63,1.42a.82.82,0,0,1-.19.31.32.32,0,0,1-.24,0h0l-.05.13.72.31.05-.12,0,0c-.11-.06-.14-.11-.15-.14a.64.64,0,0,1,.1-.38l.54-1.22-.13,2,.08,0L28.07,9l-.61,1.39a.75.75,0,0,1-.15.25.36.36,0,0,1-.22,0h0l0,.12.84.37.06-.12Z" transform="translate(-2.52 -6.68)"/><path class="cls-1" d="M29.71,11.49h0a.73.73,0,0,1-.41.2h0a1,1,0,0,1-.41-.17,1.17,1.17,0,0,1-.27-.2s0-.07,0-.1l.49-.77.25.17c.12.08.15.13.16.17a.83.83,0,0,1-.08.28l0,0,.12.07.51-.8-.12-.07,0,0a.54.54,0,0,1-.21.19c-.05,0-.12,0-.22-.07l-.25-.16.44-.7s0-.06.05-.06l.05,0,.35.22c.18.11.23.19.24.23a.56.56,0,0,1-.07.32l0,0,.12.08.32-.53L29.27,9l-.08.11,0,0a.33.33,0,0,1,.13.16.43.43,0,0,1-.1.23l-.91,1.43c-.09.15-.14.18-.16.19a.43.43,0,0,1-.21,0l0,0-.07.12,1.44.92.51-.53Z" transform="translate(-2.52 -6.68)"/><path class="cls-1" d="M31.18,13.43a.48.48,0,0,1-.08-.16.56.56,0,0,1,0-.24l.23-1.16.76-.24a1.52,1.52,0,0,1,.39-.07.34.34,0,0,1,.16.08l0,0,.09-.1-.6-.51-.09.1,0,0,.09.1a.07.07,0,0,1,0,.09l-.05,0a.77.77,0,0,1-.19.07l-.54.16.11-.58,0-.09a.23.23,0,0,1,0-.1s.05,0,.08,0,.05,0,.13.09h0l.09-.1-.76-.63-.08.1,0,0a.3.3,0,0,1,.1.21,2.47,2.47,0,0,1-.08.57l-.14.67-.81.25-.42.11a.32.32,0,0,1-.17-.06h0l-.08.1.59.5.09-.11,0,0L30,12.42a.09.09,0,0,1,0-.1.33.33,0,0,1,.11-.07l.2-.06.58-.19c-.07.39-.13.63-.15.73a.48.48,0,0,1-.07.18l-.06,0a.76.76,0,0,1-.15-.09l0,0-.09.1.74.62.08-.1Z" transform="translate(-2.52 -6.68)"/><path class="cls-1" d="M32,13.8l1.22-1.17c.12-.11.18-.14.22-.14s.08,0,.18.12l0,0,.1-.09L33,11.83l-.1.1,0,0c.09.11.11.17.1.2s0,.09-.14.21l-1.23,1.17c-.12.13-.18.14-.21.14s-.08,0-.19-.11l0,0-.1.09.68.7.1-.09,0,0c-.1-.11-.12-.17-.12-.2s0-.08.16-.21" transform="translate(-2.52 -6.68)"/><path class="cls-1" d="M33.44,15.63h0l0-.15h0a1.41,1.41,0,0,1-.33,0,.72.72,0,0,1-.36-.25.62.62,0,0,1-.1-.58,1.4,1.4,0,0,1,.51-.66,1.65,1.65,0,0,1,.79-.37.59.59,0,0,1,.55.21.56.56,0,0,1,.07.55,1.45,1.45,0,0,1-.22.36l0,0,.08.1.71-.59-.07-.1h0a.12.12,0,0,1-.08,0l-.06,0-.06-.18a1.38,1.38,0,0,0-.17-.32,1,1,0,0,0-.79-.38h0a1.6,1.6,0,0,0-.93.36,1.55,1.55,0,0,0-.56.79,1,1,0,0,0,.17.89.93.93,0,0,0,.53.32l.27,0h.12" transform="translate(-2.52 -6.68)"/><path class="cls-1" d="M35.3,15.77l-.64.72-.3-.52Zm-1,1.92a.28.28,0,0,1,0-.15.8.8,0,0,1,.16-.23L36,15.55l-.05-.1-2,.4a3.5,3.5,0,0,1-.54.09.18.18,0,0,1-.16-.09l0,0-.12.07.34.58.12-.07v0a1,1,0,0,1,0-.12.17.17,0,0,1,.07-.1l.12,0,.44-.1.38.65-.24.27a.57.57,0,0,1-.11.11.27.27,0,0,1-.07.06s-.06,0-.07,0a.71.71,0,0,1-.11-.12l0,0-.11.07.42.73.12-.07Z" transform="translate(-2.52 -6.68)"/><path class="cls-1" d="M37.13,18.72a.36.36,0,0,1,.17.16v0l.12-.05-.29-.73-.12.05v0c0,.13,0,.18,0,.21s-.1.11-.33.2l-1.07.43,1.2-1.69-.21-.54-.14.06,0,0a.21.21,0,0,1,0,.13.35.35,0,0,1-.06.13l0,0-1.55.63a.85.85,0,0,1-.35.09c-.06,0-.12-.07-.17-.17l0,0-.12.05.29.73.13-.05v0a.34.34,0,0,1,0-.2A.75.75,0,0,1,35,18l1.27-.51-1.37,1.94v0l0,.09,1.89-.76a.89.89,0,0,1,.36-.09" transform="translate(-2.52 -6.68)"/><path class="cls-1" d="M35.79,21.22a.5.5,0,0,1-.36-.36.52.52,0,0,1,.17-.49,1.61,1.61,0,0,1,.8-.38,2.51,2.51,0,0,1,.55-.08,1.06,1.06,0,0,1,.34.05.49.49,0,0,1,.22.85,1.69,1.69,0,0,1-.82.39,1.62,1.62,0,0,1-.9,0m.54.44a1.94,1.94,0,0,0,.46-.06,1.57,1.57,0,0,0,.9-.54.94.94,0,0,0,.17-.79.91.91,0,0,0-.51-.61,1.48,1.48,0,0,0-1.05-.07,1.52,1.52,0,0,0-.87.51.9.9,0,0,0-.2.81,1,1,0,0,0,.5.61,1.33,1.33,0,0,0,.6.14" transform="translate(-2.52 -6.68)"/><path class="cls-1" d="M38.3,22.93h0l-.09,0s0,0,0-.05a.77.77,0,0,1,0-.16.68.68,0,0,0,0-.27A.5.5,0,0,0,38,22a.71.71,0,0,0-.52-.1.73.73,0,0,0-.4.18,1,1,0,0,0-.17.22l-.17.28a2.26,2.26,0,0,1-.22.32.49.49,0,0,1-.29.13.39.39,0,0,1-.31-.06.3.3,0,0,1-.13-.21.48.48,0,0,1,.2-.45,1.46,1.46,0,0,1,.38-.22h0l0-.14-.86.21v.12h0l.09,0,0,0a.73.73,0,0,1,0,.18.56.56,0,0,0,0,.31.62.62,0,0,0,.26.46.74.74,0,0,0,.44.13h.11a.71.71,0,0,0,.39-.15,1.67,1.67,0,0,0,.32-.41l.17-.29a.92.92,0,0,1,.18-.23.37.37,0,0,1,.23-.1.31.31,0,0,1,.24.06.27.27,0,0,1,.11.18.5.5,0,0,1-.11.32.83.83,0,0,1-.46.28h0v.14l.87-.18Z" transform="translate(-2.52 -6.68)"/><path class="cls-1" d="M20,40.91a.22.22,0,0,1-.23-.15,2,2,0,0,1,0-1.09.24.24,0,0,1,.21-.2.25.25,0,0,1,.25.18,3.71,3.71,0,0,1,0,1.05.3.3,0,0,1-.26.21" transform="translate(-2.52 -6.68)"/><path class="cls-1" d="M21,40.86a.2.2,0,0,1-.26-.17v-.88a.42.42,0,0,1,.08-.31.21.21,0,0,1,.17-.08.29.29,0,0,1,.29.31v.84a.23.23,0,0,1-.06.2.27.27,0,0,1-.2.09" transform="translate(-2.52 -6.68)"/><path class="cls-1" d="M17.81,41.56h-.14a.21.21,0,0,1-.16-.2.18.18,0,0,1,.13-.18l.12,0a.21.21,0,0,1,.23.32.19.19,0,0,1-.18.08" transform="translate(-2.52 -6.68)"/><path class="cls-1" d="M23,41.63a.19.19,0,0,1-.18-.06.24.24,0,0,1,0-.19.34.34,0,0,1,.25-.21h.08c.1,0,.16.08.16.17a.29.29,0,0,1-.16.25.22.22,0,0,1-.13,0" transform="translate(-2.52 -6.68)"/><path class="cls-1" d="M18.35,41.16h-.1L18,41a.08.08,0,0,1,0-.09,2.19,2.19,0,0,1,1.22-.56h0c.1,0,.14.06.16.13a.26.26,0,0,1-.15.28,1.41,1.41,0,0,0-.72.3.3.3,0,0,1-.2.12" transform="translate(-2.52 -6.68)"/><path class="cls-1" d="M22.52,41.22s0,0-.07,0a1.77,1.77,0,0,0-.82-.43s-.08,0-.08-.11,0-.27,0-.28a2.05,2.05,0,0,1,1.27.55l0,.07,0,.05-.25.17Z" transform="translate(-2.52 -6.68)"/><path class="cls-1" d="M21.73,43.05a.19.19,0,0,1-.15-.06,9.57,9.57,0,0,0-1-.47.2.2,0,0,1-.08-.23.35.35,0,0,1,.28-.25h.08a2.76,2.76,0,0,0,.52.25,2,2,0,0,1,.55.28.19.19,0,0,1,.09.11.16.16,0,0,1,0,.09l-.15.2a.27.27,0,0,1-.14.07" transform="translate(-2.52 -6.68)"/><path class="cls-1" d="M17.92,42.75l-.05,0s0-.07,0-.14c0-.53.52-.85,1-1.19l.5-.35a.31.31,0,0,1,.16-.07s.05,0,.07,0l.26.15s.06,0,.06.06a.14.14,0,0,1-.05.09,2.87,2.87,0,0,1-.54.37,2,2,0,0,0-.82.72.92.92,0,0,1-.59.35Z" transform="translate(-2.52 -6.68)"/><path class="cls-1" d="M19.36,43l-.11,0L19,42.79c-.09-.11-.08-.22.07-.37a3.52,3.52,0,0,1,.67-.52,4.65,4.65,0,0,0,.7-.56.37.37,0,0,1,.26-.17h.06l.18,0c.08,0,.18,0,.2,0s-.08.22-.11.28a3.45,3.45,0,0,1-.87.75,2.08,2.08,0,0,0-.72.66c0,.11-.09.13-.12.13" transform="translate(-2.52 -6.68)"/><path class="cls-1" d="M23,42.58h-.17a.59.59,0,0,1-.31-.19,1.38,1.38,0,0,0-.41-.29L21.76,42a3.15,3.15,0,0,1-.43-.19.16.16,0,0,1-.11-.13c0-.08.06-.21.14-.31s.07-.08.11-.08a.24.24,0,0,1,.12,0,2.5,2.5,0,0,0,.49.26,2.34,2.34,0,0,1,1.17.86.13.13,0,0,1,0,.08.1.1,0,0,1-.07.05l-.22,0" transform="translate(-2.52 -6.68)"/><path class="cls-1" d="M16,40.57c.25,0,.4,0,.45.14a.3.3,0,0,1-.05.26c-.06.1,0,.16,0,.19a.08.08,0,0,0,.09,0c.13,0,.29-.15.37-.42,0-.11.12-.18.32-.23a.27.27,0,0,0,.15-.29c0-.09-.07-.15-.13-.14a.1.1,0,0,0-.08.05.63.63,0,0,1-.31.17h-.12a.53.53,0,0,1-.53-.24l-.33-.54c-.05-.07-.09-.1-.13-.1h0l0,0a.24.24,0,0,0,0,.2l.17.32a.17.17,0,0,1,0,.13s-.09.06-.14.07h0a1.4,1.4,0,0,1-1.24-.71c0-.07-.11-.11-.15-.1h0l0,0a.21.21,0,0,0,0,.16l.17.25c.06.07.06.1.05.12a.19.19,0,0,1-.09,0,1.89,1.89,0,0,1-1.23-.47.26.26,0,0,0-.14,0c-.06.06-.06.09,0,.14l.06.15a.18.18,0,0,1,0,.1s-.05,0-.1,0l-.68.08c-.1,0-.16,0-.16.09s.09.1.25.09a4.35,4.35,0,0,1,1.54.08s.07,0,.08,0a.14.14,0,0,1,0,.1l-.25.26c-.07.06-.1.12-.09.17a.09.09,0,0,0,.1,0l.08,0a2.21,2.21,0,0,1,.94-.4.69.69,0,0,1,.25,0,.14.14,0,0,1,.13.09.17.17,0,0,1,0,.17L15,41c0,.08,0,.14,0,.17H15a.23.23,0,0,0,.14-.07c.22-.26.5-.55.78-.57Zm-.14,1.35a.2.2,0,0,1-.19-.08.17.17,0,0,1,0-.14l.24-.41a.13.13,0,0,0,0-.14.1.1,0,0,0-.1,0,.38.38,0,0,0-.25.14,1.58,1.58,0,0,1-1,.55,1.31,1.31,0,0,1-.28,0q-.15,0-.18-.12c0-.06,0-.12.06-.21l.3-.38c0-.09,0-.14,0-.17v0h-.07l-.1,0-.74.36a.75.75,0,0,1-.23.07.47.47,0,0,1-.4-.16.17.17,0,0,1-.06-.11l.05,0a1.15,1.15,0,0,0,.33-.33.15.15,0,0,0,0-.15s-.07-.07-.17-.07l-.73.09a1.59,1.59,0,0,1-.87-.08.2.2,0,0,1-.1-.18c0-.08.08-.16.24-.27l.74-.29a.22.22,0,0,0,.14-.12.16.16,0,0,0-.07-.14s0-.08,0-.12a.21.21,0,0,1,.1-.11.63.63,0,0,1,.29-.1,1.21,1.21,0,0,1,.82.36.36.36,0,0,0,.13.05.13.13,0,0,0,0-.18l-.09-.3c0-.07,0-.13,0-.16a.2.2,0,0,1,.13-.06c.39,0,.74.18,1.15.68a.29.29,0,0,0,.2.12h0l.05,0a.28.28,0,0,0-.05-.23l-.13-.29a.24.24,0,0,1,0-.19.29.29,0,0,1,.2-.1l.16,0c.27,0,.43.05.48.23l.38.64a.25.25,0,0,0,.2.13c.08,0,.15-.07.23-.19s.09-.13.12-.13.32.11.59.36a.45.45,0,0,0,.36.14.53.53,0,0,0,.23-.06,2.7,2.7,0,0,1,.93-.25,1.34,1.34,0,0,1,.4,0,.17.17,0,0,1,.14.2c0,.11-.15.23-.4.25h-.26a2.67,2.67,0,0,0-1.06.54.52.52,0,0,1-.33.13.39.39,0,0,0-.18.06c-.12,0-.24.16-.4.35a1.71,1.71,0,0,1-1,.73" transform="translate(-2.52 -6.68)"/><path class="cls-1" d="M9.83,38c.17,0,.28,0,.33.11a.25.25,0,0,1,0,.1c0,.09,0,.21.14.2l.58,0c.06,0,.09,0,.11-.05s0-.07,0-.12c-.11-.23-.18-.27-.29-.26h-.07a.31.31,0,0,1-.17,0c-.25-.13-.35-.53-.32-1.23a.19.19,0,0,0,0-.17h0c-.06,0-.09,0-.1.16L9.91,37c0,.15-.07.15-.09.16l-.11,0a1.27,1.27,0,0,1-.58-.86c0-.15,0-.87-.22-.42-.09.06-.24-.22-.34-.43s-.06-.12-.11-.12a.18.18,0,0,0-.07.16.21.21,0,0,1-.07.2c-.07,0-.13.06-.12.11s0,.06.14.08.44.31.63.8a.13.13,0,0,1,0,.09l-.69,0H8.21c-.09,0-.11,0-.11.07s.09.13.19.14l.7.1a.6.6,0,0,1,.55.35c.05.09.07.16.05.2a.09.09,0,0,1-.07.06,6,6,0,0,1-.78.2c-.11,0-.16,0-.17.08s0,.09.19.14a.86.86,0,0,0,.29,0,3.38,3.38,0,0,0,.4-.07A2.79,2.79,0,0,1,9.83,38m2.32,1.21a.27.27,0,0,1-.14,0,2,2,0,0,0-1.53-.48,3.25,3.25,0,0,0-.65.13.13.13,0,0,1-.1-.06.34.34,0,0,1,0-.21c0-.13-.05-.19-.16-.18l-.11,0-.29,0a1.24,1.24,0,0,1-1.32-.55.17.17,0,0,1,0-.12s0,0,.11,0l.9-.11A.14.14,0,0,0,9,37.47s0-.12-.13-.14c-.9-.15-1.44-.41-1.61-.8a.18.18,0,0,1,0-.14s.07,0,.15,0l.69.06c.11,0,.16,0,.17-.07s0-.09-.13-.15l-.69-.38a.17.17,0,0,1-.07-.18c0-.07.11-.11.23-.12h.27a.27.27,0,0,0,.21-.08c.08-.08.08-.22.07-.44v-.21c0-.15,0-.24.08-.25s.14,0,.36.34c.11.13.18.2.24.19s.13-.14.18-.37.08-.12.09-.12a.27.27,0,0,1,.16.07c.28.16.28.86.25,1.52a.18.18,0,0,0,0,.14.14.14,0,0,0,.1,0s.13,0,.15-.2l.1-.44c0-.12.08-.18.16-.19a.37.37,0,0,1,.25.11c.26.23.33.61.3,1.52a.2.2,0,0,0,.06.16.14.14,0,0,0,.09,0c.07,0,.15-.06.2-.21S11,37,11,37s.07,0,.11.15a2.35,2.35,0,0,0,1,1.75.17.17,0,0,1,.05.19.12.12,0,0,1-.09.08" transform="translate(-2.52 -6.68)"/><path class="cls-1" d="M11.94,37.58a.2.2,0,0,1-.19-.14.19.19,0,0,1,.05-.19.5.5,0,0,1,.28-.12.2.2,0,0,1,.2.07.18.18,0,0,1,.06.18.45.45,0,0,1-.39.2Z" transform="translate(-2.52 -6.68)"/><path class="cls-1" d="M10.23,39.76h-.11a.3.3,0,0,1-.18-.26.31.31,0,0,1,.11-.25l.17,0q.21,0,.27.33a.25.25,0,0,1-.05.15.34.34,0,0,1-.21.08" transform="translate(-2.52 -6.68)"/><path class="cls-1" d="M12.53,38.87c-.06,0-.19-.09-.32-.3a.66.66,0,0,0-.39-.34.23.23,0,0,1-.15-.26.2.2,0,0,1,.19-.16h.08a1.25,1.25,0,0,0,.39-.1l.12,0a.19.19,0,0,1,.21.12.22.22,0,0,1-.05.23.33.33,0,0,0-.14.38.69.69,0,0,1,.1.45Z" transform="translate(-2.52 -6.68)"/><path class="cls-1" d="M10.88,39.87a.17.17,0,0,1-.19-.13.94.94,0,0,0-.08-.43.3.3,0,0,1,0-.31.18.18,0,0,1,.16-.1.29.29,0,0,1,.19.05.56.56,0,0,0,.46.17.48.48,0,0,1,.39.09c.06,0,.07.09.06.11l-.14,0h0a.61.61,0,0,0-.55.34.31.31,0,0,1-.25.19" transform="translate(-2.52 -6.68)"/><path class="cls-1" d="M5.68,33.49c-.07,0-.1,0-.1.08s0,.09.11.09c.27,0,.51,0,.62.12a.17.17,0,0,0,.11.06h0l0-.05a.15.15,0,0,0,0-.14c-.12-.15-.08-.33.12-.59a.2.2,0,0,0,.06-.16h0l-.07,0-.08,0a.35.35,0,0,1-.14,0,.27.27,0,0,1-.26-.1.74.74,0,0,1,0-.64c.1-.31.22-.64.33-1,0-.06,0-.13,0-.17h0a.15.15,0,0,0-.12.11c-.08.18-.15.34-.2.49s-.16.43-.25.44-.29-.25-.41-.44a.82.82,0,0,1,0-.78.19.19,0,0,0,0-.15H5.34s-.07,0-.09.08-.14.21-.19.22-.17-.1-.29-.25a.16.16,0,0,0-.1-.05.14.14,0,0,0-.12.09.17.17,0,0,0,0,.18l.06.05c.11.11.31.3.29.35h0a1.09,1.09,0,0,1-.3,0H4.5c-.06,0-.09.05-.09.08s0,.09.13.11c.6.05,1.06.52,1,.79,0,.1-.09.15-.21.16a1.17,1.17,0,0,1-.42-.06H4.87a.11.11,0,0,0-.1.09s0,.11.15.12c.64,0,1.09.4,1.08.63s-.17.2-.3.23Zm2.07,1.76-.12,0a3.26,3.26,0,0,1-1-.77A.93.93,0,0,0,5.92,34a1.59,1.59,0,0,1-1.1-.52c-.05-.07,0-.1,0-.11s0,0,.11,0h.3c.11,0,.13-.05.13-.07s-.06-.14-.18-.17c-.82-.14-1.23-.37-1.27-.72,0-.09,0-.14,0-.17s.06,0,.14-.06h.25A.12.12,0,0,0,4.37,32s0-.07-.17-.13a1.5,1.5,0,0,1-.69-.46.27.27,0,0,1,0-.26.16.16,0,0,1,.15-.08.3.3,0,0,1,.13,0,.31.31,0,0,0,.18,0,.11.11,0,0,0,.1-.06c0-.07,0-.19-.13-.3a.21.21,0,0,1,0-.18.26.26,0,0,1,.19-.08.5.5,0,0,0,.16,0,.52.52,0,0,0,.31-.16.21.21,0,0,1,.11-.05c.07,0,.14,0,.2.15s.13.26.24.25.12,0,.16-.2.11-.3.2-.31a.22.22,0,0,1,.14.05c.18.1.19.4,0,.9a.26.26,0,0,0,0,.19h0l.06,0c.09,0,.19-.12.24-.28,0-.38.16-.58.34-.59h.13a.38.38,0,0,1,.28.19A1.87,1.87,0,0,1,6.59,32a.28.28,0,0,0,0,.24.16.16,0,0,0,.11,0,.28.28,0,0,0,.16-.1A.45.45,0,0,1,7.08,32a.12.12,0,0,1,.1,0,.59.59,0,0,1,0,.54A1.6,1.6,0,0,0,7.77,35a.21.21,0,0,1,.08.2.13.13,0,0,1-.1.07" transform="translate(-2.52 -6.68)"/><path class="cls-1" d="M7.55,34.68s-.09,0-.1-.11c0-.46-.11-.72-.24-.83a.31.31,0,0,1,0-.29.16.16,0,0,1,.14-.08h.09A1.68,1.68,0,0,0,8,33.5a.21.21,0,0,1,.2.17.16.16,0,0,1-.09.18.46.46,0,0,0-.38.55c0,.18-.09.27-.16.28" transform="translate(-2.52 -6.68)"/><path class="cls-1" d="M7.89,33.22H7.76c-.14,0-.23-.09-.24-.2a.27.27,0,0,1,.18-.25l.14,0a.25.25,0,0,1,.22.06.3.3,0,0,1,.06.25.23.23,0,0,1-.23.16" transform="translate(-2.52 -6.68)"/><path class="cls-1" d="M5.65,35.17A.21.21,0,0,1,5.42,35a.34.34,0,0,1,0-.35.24.24,0,0,1,.19-.12.23.23,0,0,1,.24.2.32.32,0,0,1,0,.28.27.27,0,0,1-.19.12" transform="translate(-2.52 -6.68)"/><path class="cls-1" d="M6.16,35.5A.21.21,0,0,1,6,35.43a.14.14,0,0,1,0-.14A1.57,1.57,0,0,0,6,34.74a.26.26,0,0,1,.23-.26.23.23,0,0,1,.21.12.64.64,0,0,0,.36.36c.28.14.36.27.35.32a.13.13,0,0,1-.11,0,.34.34,0,0,1-.1,0,.67.67,0,0,0-.35-.09.25.25,0,0,0-.2.12.38.38,0,0,1-.26.14" transform="translate(-2.52 -6.68)"/><path class="cls-1" d="M3.29,26.36s0,.06,0,.17c.2.32.41.71.34.91a.23.23,0,0,1-.14.13s-.13,0-.15.07a.13.13,0,0,0,.05.13.4.4,0,0,0,.2.12c.15.07.24.12.17.32l0,.22a.39.39,0,0,0,.29.16.15.15,0,0,0,.13-.1.32.32,0,0,0-.15-.32c-.08,0-.13-.05-.13-.09s0-.1.15-.22c.29-.32.3-.38.28-.42v0h0l-.12.05-.1,0c-.15,0-.2-.06-.21-.31s0-.36.19-.46c.32-.2.37-.26.36-.32s-.07-.06-.22-.05l-.1,0s0,0,0,0,0-.06,0-.13a1.05,1.05,0,0,1,.35-.67c.05-.07.1-.14.08-.2s-.1-.05-.16,0a.49.49,0,0,0-.38.18.5.5,0,0,0-.08.36l-.08.54c0,.08,0,.17-.1.18a.21.21,0,0,1-.11,0c-.18-.17-.24-.19-.27-.18h0Zm1.39,3.77-.08,0a.59.59,0,0,1-.3-.44c-.14-.71-.3-.9-.52-1s-.37-.3-.37-.4c0-.29-.12-.38-.26-.42a.74.74,0,0,1-.59-.52.57.57,0,0,1,0-.37.13.13,0,0,1,.09-.05.86.86,0,0,1,.34.12h.08A.13.13,0,0,0,3.14,27a.3.3,0,0,0,0-.24l-.23-.41a.5.5,0,0,1,.07-.6c.13-.16.21-.2.25-.21a.08.08,0,0,1,.07,0c.17.27.24.29.29.29s.11-.18.11-.24c0-.42.12-.93.4-.95a.24.24,0,0,1,.14,0,.32.32,0,0,0,.24.08.66.66,0,0,0,.41-.26L5,24.46s.11,0,.15.16a.87.87,0,0,1-.27.86q-.12.18-.09.24s0,0,.08,0a1.31,1.31,0,0,0,.37-.16.25.25,0,0,1,.11-.05s.09.05.1.18c.06.36-.21.66-.85,1a.19.19,0,0,0-.12.19.11.11,0,0,0,.13.1.21.21,0,0,0,.12,0,.71.71,0,0,1,.35-.16.18.18,0,0,1,.2.1c0,.1,0,.3-.24.53s-.22.32-.35.37-.12.07-.13.12,0,.09,0,.15.09.19,0,.33q-.36.3.06,1.41a.26.26,0,0,1,.07.28.07.07,0,0,1-.07.06" transform="translate(-2.52 -6.68)"/><path class="cls-1" d="M5.68,28.49a.42.42,0,0,1-.24,0,.2.2,0,0,1-.08-.23A.25.25,0,0,1,5.58,28c.18,0,.29,0,.32.11a.27.27,0,0,1,0,.26.42.42,0,0,1-.21.08" transform="translate(-2.52 -6.68)"/><path class="cls-1" d="M2.83,29.34a.33.33,0,0,1-.18,0A.25.25,0,0,1,2.59,29a.29.29,0,0,1,.19-.23l.09,0a.17.17,0,0,1,.17.06.39.39,0,0,1,0,.33.3.3,0,0,1-.23.17" transform="translate(-2.52 -6.68)"/><path class="cls-1" d="M4.09,30l-.08,0c-.19-.16-.34-.27-.48-.25a.21.21,0,0,0-.16.08l-.15,0A.21.21,0,0,1,3,29.73a.2.2,0,0,1,0-.2A4.44,4.44,0,0,0,3.3,29a.27.27,0,0,1,.19-.13.24.24,0,0,1,.25.23l.07.23.3.39a.22.22,0,0,1,0,.2Z" transform="translate(-2.52 -6.68)"/><path class="cls-1" d="M5.05,29.75s0,0-.1-.12a1,1,0,0,1,0-.39.56.56,0,0,0,0-.41.23.23,0,0,1,0-.24.22.22,0,0,1,.15-.12h.06a3.93,3.93,0,0,0,.5.26.22.22,0,0,1,.19.23.24.24,0,0,1-.24.17c-.2,0-.34.18-.43.48-.06.12-.1.13-.11.13" transform="translate(-2.52 -6.68)"/><path class="cls-1" d="M28.92,38.06a.23.23,0,0,1-.2-.07.2.2,0,0,1,0-.19c0-.12,0-.24-.16-.35a.41.41,0,0,1-.09-.43.5.5,0,0,1,.4-.25.39.39,0,0,1,.36.14.54.54,0,0,1,0,.49.27.27,0,0,0-.08.34.23.23,0,0,1-.21.32" transform="translate(-2.52 -6.68)"/><path class="cls-1" d="M33.44,34.05a.18.18,0,0,1-.19-.15c0-.13-.11-.21-.31-.22s-.31-.22-.28-.39a.59.59,0,0,1,.48-.42c.2,0,.34.13.38.43a.26.26,0,0,0,.1.33.21.21,0,0,1,.07.23.3.3,0,0,1-.25.19" transform="translate(-2.52 -6.68)"/><path class="cls-1" d="M35.85,28.79a.2.2,0,0,1-.19-.11.23.23,0,0,0-.26-.14l-.09,0C35,28.5,35,28.3,35,28.19a.53.53,0,0,1,.42-.47c.16,0,.29.1.38.32v.05c0,.1,0,.2.17.23a.22.22,0,0,1,.14.25.29.29,0,0,1-.23.22" transform="translate(-2.52 -6.68)"/><path class="cls-1" d="M30,39.8a.47.47,0,0,1-.41-.26.24.24,0,0,0-.21-.26.2.2,0,0,1-.16-.22.3.3,0,0,1,.24-.25.18.18,0,0,1,.17.08.21.21,0,0,0,.23.1L30,39c.26,0,.42.1.42.3a.56.56,0,0,1-.43.54" transform="translate(-2.52 -6.68)"/><path class="cls-1" d="M35.13,35a.6.6,0,0,1-.32-.08.26.26,0,0,0-.24-.12h-.08l-.06,0a.2.2,0,0,1-.16-.06.16.16,0,0,1-.06-.13.24.24,0,0,1,.23-.27h.08a.2.2,0,0,0,.11,0,.45.45,0,0,0,.25-.15.63.63,0,0,1,.23-.08.28.28,0,0,1,.27.14.54.54,0,0,1,0,.51.31.31,0,0,1-.27.18" transform="translate(-2.52 -6.68)"/><path class="cls-1" d="M37.71,29.18a.45.45,0,0,1-.22,0,.33.33,0,0,0-.38,0l-.09,0a.22.22,0,0,1-.25-.21.34.34,0,0,1,0-.17.23.23,0,0,1,.16-.08h.14a.34.34,0,0,0,.25-.2.5.5,0,0,1,.29-.16.28.28,0,0,1,.27.15A.54.54,0,0,1,38,29a.3.3,0,0,1-.26.17" transform="translate(-2.52 -6.68)"/><path class="cls-1" d="M24.79,41.15a1,1,0,0,1-.39,0,4.73,4.73,0,0,1-1.17-.58,3.72,3.72,0,0,0-1.6-.47.18.18,0,0,1-.15-.22.21.21,0,0,1,.17-.21,8.44,8.44,0,0,1,1.86.55.7.7,0,0,0,.35.06,1.06,1.06,0,0,0,.43-.15l.24-.1a10.42,10.42,0,0,1,3.33-1.08l.38,0c.11,0,.16,0,.16,0s0,.08-.3.11H28a1.92,1.92,0,0,0-.66.2l-.87.44a4.43,4.43,0,0,1-1.34.54.4.4,0,0,1-.11,0c-.39.06-.61.16-.62.28s.09.13.23.13h.31a3.73,3.73,0,0,0,1.32-.43,6,6,0,0,1,2.22-1h.09s.08,0,.09,0a.59.59,0,0,1-.09.17,6.48,6.48,0,0,1-2.31,1.29c-.22.07-.42.16-.61.23a2.86,2.86,0,0,1-.84.26" transform="translate(-2.52 -6.68)"/><path class="cls-1" d="M25.82,41.83c-.77.07-1.24-.09-1.47-.5a1.52,1.52,0,0,0,.57,0,6.16,6.16,0,0,0,2-.67,4.3,4.3,0,0,1,1.21-.45c.18,0,.26,0,.26.06s0,.07-.07.1l-2.1.86c-.12,0-.19.11-.18.17s.06.08.15.07a6.17,6.17,0,0,0,1.41-.59,2.78,2.78,0,0,1,1.06-.41h.14c.08,0,.11,0,.11,0s0,.06-.12.11A14.66,14.66,0,0,1,26,41.81l-.19,0" transform="translate(-2.52 -6.68)"/><path class="cls-1" d="M24,40.05c-.22,0-.5-.06-.56-.22h0a2.06,2.06,0,0,0,1.14-.65,7.69,7.69,0,0,1,.68-.54.66.66,0,0,1,.33-.12,1.49,1.49,0,0,0,.47-.15,2,2,0,0,1,.8-.3.8.8,0,0,1,.46.09c.11.08.12.11.12.12h-.29a1.67,1.67,0,0,0-.9.37l-.79.23c-.21.07-.43.19-.42.29s0,.06.12,0h.08l.39-.1a1.49,1.49,0,0,0,.39-.17,1.33,1.33,0,0,1,.54-.21,3.74,3.74,0,0,0,.56-.16l.31-.11h0a.12.12,0,0,1,.14.11.14.14,0,0,1-.12.17,3.43,3.43,0,0,1-.46.11,6.78,6.78,0,0,0-.76.21,17,17,0,0,0-2,.91.39.39,0,0,1-.25.08" transform="translate(-2.52 -6.68)"/><path class="cls-1" d="M29,38.74a.23.23,0,0,1-.22-.11.18.18,0,0,1,.07-.19c0-.14.22-.26.47-.44a5.24,5.24,0,0,0,1.4-1.28,7.66,7.66,0,0,1,1.55-1.47c.27-.22.57-.46.87-.72.11-.11.14-.12.15-.12s0,0,0,.12a2.46,2.46,0,0,1-1.06,1.24,6.48,6.48,0,0,0-1.68,1.58c-.06.1-.08.16,0,.2h0s.11,0,.33-.19a5.32,5.32,0,0,1,1.39-1.29A3.25,3.25,0,0,0,33.4,34.8c.05-.09.07-.1.07-.1a.92.92,0,0,1,0,.28,1.9,1.9,0,0,1-.83,1.37,7.44,7.44,0,0,1-2,1.5,2.12,2.12,0,0,0-1.42.76.28.28,0,0,1-.22.13" transform="translate(-2.52 -6.68)"/><path class="cls-1" d="M31.49,38.24l-.5,0-.49,0c-.11,0-.14,0-.15,0s0-.08.12-.12a5.75,5.75,0,0,0,3-2.29.39.39,0,0,1,.19-.1l.07,0a.11.11,0,0,1,0,.1,4.64,4.64,0,0,1-1.57,1.63l-.17.13c-.11.08-.17.17-.15.24a.07.07,0,0,0,.09,0l.1,0a7.13,7.13,0,0,0,2-2c0-.07.06-.07.07-.07s0,0,0,.1c.06.23-.12.54-.51.92a6.16,6.16,0,0,1-1.37,1.23,4.64,4.64,0,0,1-.77.14" transform="translate(-2.52 -6.68)"/><path class="cls-1" d="M29.79,37.43l-.07,0a.16.16,0,0,1,0-.15,4.25,4.25,0,0,0,.16-.86,1.52,1.52,0,0,1,.59-.91,13.4,13.4,0,0,0,1.41-1.37s.05,0,.05,0,0,0,0,.13-.19.41-.5.7-.39.36-.61.61l-.52.6c-.05.1-.07.17,0,.2v0h.06a.41.41,0,0,0,.25-.17A6.3,6.3,0,0,1,31.68,35c.09-.08.13-.1.14-.1s0,.05,0,.19a1.32,1.32,0,0,1-.54.7,3.8,3.8,0,0,0-.92,1.09,1.47,1.47,0,0,1-.58.58" transform="translate(-2.52 -6.68)"/><path class="cls-1" d="M33.83,34.56a.1.1,0,0,1-.11-.06.2.2,0,0,1,0-.21,3.29,3.29,0,0,0,.73-1.76l.14-.36a9.6,9.6,0,0,1,1.24-2.48c.1-.1.14-.11.15-.11s0,0,0,.17a13.9,13.9,0,0,1-.69,1.67,11,11,0,0,0-.52,1.21c0,.11,0,.17,0,.2v0h.05a.29.29,0,0,0,.14-.09,6.89,6.89,0,0,0,.85-1.92,8.75,8.75,0,0,1,.55-1.42c.09-.16.13-.17.14-.17s0,0,0,.23a7.12,7.12,0,0,1-1,3.09,2.78,2.78,0,0,1-.42.42,1.44,1.44,0,0,0-.42.47,3.75,3.75,0,0,1-.69,1,.35.35,0,0,1-.17.1" transform="translate(-2.52 -6.68)"/><path class="cls-1" d="M34.07,33.11s-.06,0-.11-.06c-.74-1.13,0-2.46.76-3.36.09-.08.14-.1.16-.1a.08.08,0,0,1,0,.12,1.5,1.5,0,0,0-.35.8,1.71,1.71,0,0,1-.33.74,1.28,1.28,0,0,0-.16.28c-.1.22-.13.38-.09.45H34c.05,0,.1-.06.13-.1a6.83,6.83,0,0,0,.53-1.22,3.56,3.56,0,0,1,.44-1,.22.22,0,0,1,.13-.09l.06,0a.19.19,0,0,1,0,.17,8.37,8.37,0,0,1-.82,1.82,2.09,2.09,0,0,0-.32.92c0,.3-.09.56-.16.56" transform="translate(-2.52 -6.68)"/><path class="cls-1" d="M35.07,33.57H35s0-.05.06-.17a4.36,4.36,0,0,0,1.14-1.59A1.83,1.83,0,0,1,37,30.4l.21-.09s0,.06-.13.22a3.54,3.54,0,0,0-.54,1.06,3.5,3.5,0,0,1-.52,1c-.08.11-.1.18-.08.22H36a.36.36,0,0,0,.13,0,2.39,2.39,0,0,0,.51-1,4.59,4.59,0,0,1,.7-1.4c.09-.07.13-.08.15-.08s0,0-.05.21a8.46,8.46,0,0,0-.31.84A5.65,5.65,0,0,1,36.44,33a1.57,1.57,0,0,1-.47.3l-.3.1-.33.12a.69.69,0,0,1-.27.09" transform="translate(-2.52 -6.68)"/><path class="cls-1" d="M36.16,27.67A.19.19,0,0,1,36,27.6c-.68-.53-.85-1.41-.53-2.78,0-.06,0-.1,0-.14l.05,0a.59.59,0,0,1,.12.66,2.45,2.45,0,0,0,.08,1.47c0,.09.1.12.14.11h0l0,0a.11.11,0,0,0,0-.12,1.87,1.87,0,0,1-.08-1.12,1.13,1.13,0,0,0,0-.34.19.19,0,0,1,0-.11h0l.11,0c.09.1.19.29.11.86a1.82,1.82,0,0,0,0,.86.83.83,0,0,1,.05.59c0,.06-.05.09-.08.09" transform="translate(-2.52 -6.68)"/><path class="cls-1" d="M36.32,29.11a.13.13,0,0,1-.12-.05.17.17,0,0,1,0-.16,5.16,5.16,0,0,1,.13-.89A3.4,3.4,0,0,0,36.42,27a3.76,3.76,0,0,1,.42-2.44.24.24,0,0,1,.13-.08s.07,0,.08.14a1.42,1.42,0,0,1-.2,1A3.41,3.41,0,0,0,36.7,27a.19.19,0,0,0,0,.14.14.14,0,0,0,.1,0c.07,0,.14-.07.15-.23a2.71,2.71,0,0,1,.15-1.38,1.38,1.38,0,0,0,.1-.95c0-.09,0-.11,0-.11s0,0,.09.06.2.21.22.7a5,5,0,0,1-.23,1.63,6.63,6.63,0,0,1-.39.67,2.79,2.79,0,0,0-.39.72,1,1,0,0,0-.08.64.18.18,0,0,1-.16.2" transform="translate(-2.52 -6.68)"/><path class="cls-1" d="M36.89,28.31h0s0-.06,0-.2L37.57,27a4.17,4.17,0,0,0,.23-1.83.35.35,0,0,1,0-.16h0l.06,0c.11.06.22.17.15.44l-.16.91-.11.61a.17.17,0,0,0,0,.15v0h.06c.05,0,.1-.06.1-.17a1.67,1.67,0,0,1,.18-.8,2.14,2.14,0,0,0,0-1.21.15.15,0,0,1,0-.08s0,0,.11.1a.85.85,0,0,1,.21.83,1.26,1.26,0,0,0-.07.58,1.08,1.08,0,0,1-.23.79l-1,.93a.88.88,0,0,1-.31.17" transform="translate(-2.52 -6.68)"/><path class="cls-2" d="M50.49,13.91a2.4,2.4,0,0,0-2.39-.08,3.83,3.83,0,0,0-.8,2.44c0,1.68.86,2.69,2.23,2.69a2.71,2.71,0,0,0,.95-.15,4.94,4.94,0,0,0-.16-1.42,2.79,2.79,0,0,0-.85-.42l.13-.61H53l.13.61-.79.31A12.47,12.47,0,0,0,52.21,19v.18a5.44,5.44,0,0,1-2.93.84c-2.42,0-3.92-1.38-3.92-3.61a4,4,0,0,1,4.2-3.82,5.73,5.73,0,0,1,2.65.62l.18.31c-.1.53-.32,1.49-.4,1.83a9.92,9.92,0,0,1-1.11-.06A5.27,5.27,0,0,0,50.49,13.91Z" transform="translate(-2.52 -6.68)"/><path class="cls-2" d="M54.07,16.52A3.86,3.86,0,0,1,58,12.6a3.32,3.32,0,0,1,3.58,3.5A3.8,3.8,0,0,1,57.73,20,3.36,3.36,0,0,1,54.07,16.52Zm5.13,2.05a4.53,4.53,0,0,0,.43-2.06c0-1.76-.53-2.83-1.87-2.83a2,2,0,0,0-1.13.32A4.12,4.12,0,0,0,56,16.31C56,18,56.74,19,58,19A1.87,1.87,0,0,0,59.2,18.57Z" transform="translate(-2.52 -6.68)"/><path class="cls-2" d="M63.13,18.92a14.42,14.42,0,0,0,.09-1.72V15.43a5.38,5.38,0,0,0-.15-1.6,2.06,2.06,0,0,0-.83-.44l.14-.62H64c.37,0,1.48-.06,2-.06,1.76,0,2.83.61,2.83,1.81a1.87,1.87,0,0,1-1.19,1.63,1.76,1.76,0,0,1,1.53,1.71c0,1.39-1.33,2.08-2.81,2.08-.65,0-1.61-.09-2.27-.09H62.38l-.14-.62ZM65,15.83l1.4.07a1.6,1.6,0,0,0,.33-2.07,1.51,1.51,0,0,0-.88-.23,2.63,2.63,0,0,0-.68.08l-.08,0A14.48,14.48,0,0,0,65,15.43Zm.19,3a1.76,1.76,0,0,0,1,.21,2,2,0,0,0,.72-.12,1.42,1.42,0,0,0,.43-1.07c0-.62-.38-1-1.14-1H65v.36a5.46,5.46,0,0,0,.15,1.6Z" transform="translate(-2.52 -6.68)"/><path class="cls-2" d="M71,18.92a15.06,15.06,0,0,0,.08-1.72V15.43a5.06,5.06,0,0,0-.15-1.6,1.94,1.94,0,0,0-.82-.44l.13-.62h3.45l.14.62-.89.31a14.48,14.48,0,0,0-.09,1.73V17.2A5.46,5.46,0,0,0,73,18.8a2.06,2.06,0,0,0,.83.43l-.14.62H70.21l-.13-.62Z" transform="translate(-2.52 -6.68)"/><path class="cls-2" d="M76,18.92a14.42,14.42,0,0,0,.09-1.72V15.43a5.38,5.38,0,0,0-.15-1.6,2.09,2.09,0,0,0-.83-.44l.14-.62h2.83c1.28,0,2.3,0,3.14-.08a4,4,0,0,1,.32.48c-.08.5-.27,1.39-.35,1.74a6.37,6.37,0,0,1-1.06-.05l-.27-1.18a6.87,6.87,0,0,0-1.07-.08h-.86c0,.32-.08,1-.08,1.82V16L80,15.82l.2.27c0,.27-.1.57-.15.84l-2.2-.08v.35A5.08,5.08,0,0,0,78,18.8l.07.07A2,2,0,0,0,79,19a5.67,5.67,0,0,0,1-.09l.35-1.23a7.22,7.22,0,0,1,1.15.05c0,.67,0,1.38,0,2.09H75.26l-.14-.62Z" transform="translate(-2.52 -6.68)"/><path class="cls-2" d="M83.72,18.92a14.42,14.42,0,0,0,.09-1.72V15.43a5.38,5.38,0,0,0-.15-1.6,2,2,0,0,0-.82-.44l.13-.62h1.71c.37,0,1.49-.06,2-.06,1.71,0,2.75.6,2.75,1.86a2.18,2.18,0,0,1-1.38,1.88,24.15,24.15,0,0,0,1.42,2.43l.67.35-.13.62c-.68,0-1.29,0-2.09,0-.34-.8-.8-1.78-1.36-2.87h-1v.18a5.14,5.14,0,0,0,.15,1.6,1.94,1.94,0,0,0,.82.43l-.13.62H83l-.13-.62ZM85.58,16l1.43.06a1.68,1.68,0,0,0,.57-1.32,1.52,1.52,0,0,0-.23-.92,1.52,1.52,0,0,0-.87-.23,3,3,0,0,0-.81.1,12.7,12.7,0,0,0-.09,1.73Z" transform="translate(-2.52 -6.68)"/><path class="cls-2" d="M91.77,13.83a3.28,3.28,0,0,0-.82-.44l.13-.62c.73,0,1.63,0,2.3,0a37.22,37.22,0,0,0,3.3,4.47,17.18,17.18,0,0,0-.22-3.37,3.24,3.24,0,0,0-1-.44l.13-.62h3.13l.13.62-.88.32a55.55,55.55,0,0,0-.18,6.05l-1.37.13-.91-1.32c-.71-1-1.62-2.14-2.39-3.1a20.84,20.84,0,0,0,.19,3.33,3.54,3.54,0,0,0,1.18.43l-.13.62H91.08L91,19.23l.88-.31a25.66,25.66,0,0,0,.09-2.66A8.77,8.77,0,0,0,91.77,13.83Z" transform="translate(-2.52 -6.68)"/><path class="cls-2" d="M99.46,16.52a3.87,3.87,0,0,1,3.94-3.92A3.32,3.32,0,0,1,107,16.1,3.8,3.8,0,0,1,103.12,20,3.37,3.37,0,0,1,99.46,16.52Zm5.13,2.05a4.51,4.51,0,0,0,.44-2.06c0-1.76-.53-2.83-1.87-2.83A2,2,0,0,0,102,14a4.12,4.12,0,0,0-.62,2.31c0,1.64.72,2.65,1.94,2.65A1.84,1.84,0,0,0,104.59,18.57Z" transform="translate(-2.52 -6.68)"/><path class="cls-2" d="M111.7,18.92a15.06,15.06,0,0,0,.08-1.72V15.43a5.06,5.06,0,0,0-.15-1.6,1.94,1.94,0,0,0-.82-.44l.13-.62h1.59c.37,0,1.5-.06,2-.06,2.93,0,3.92,1.63,3.92,3.54a3.44,3.44,0,0,1-3.61,3.69c-.64,0-1.61-.09-2.26-.09h-1.66l-.13-.62Zm2.07-.05a2.22,2.22,0,0,0,1.64.05,2.83,2.83,0,0,0,1.19-2.67,3,3,0,0,0-.8-2.28,2.63,2.63,0,0,0-1.34-.31,6.44,6.44,0,0,0-.82.05,14.42,14.42,0,0,0-.09,1.72V17.2a5.46,5.46,0,0,0,.15,1.6A.45.45,0,0,1,113.77,18.87Z" transform="translate(-2.52 -6.68)"/><path class="cls-2" d="M120.1,18.92a14.42,14.42,0,0,0,.09-1.72V15.43a5.38,5.38,0,0,0-.15-1.6,2.09,2.09,0,0,0-.83-.44l.14-.62h2.83c1.28,0,2.3,0,3.14-.08a4,4,0,0,1,.32.48c-.08.5-.27,1.39-.35,1.74a6.37,6.37,0,0,1-1.06-.05L124,13.68a6.87,6.87,0,0,0-1.07-.08H122c0,.32-.08,1-.08,1.82V16l2.15-.13.2.27c0,.27-.1.57-.15.84l-2.2-.08v.35a5.08,5.08,0,0,0,.16,1.6l.07.07a2,2,0,0,0,.93.16,5.67,5.67,0,0,0,1-.09l.35-1.23a7.22,7.22,0,0,1,1.15.05c0,.67,0,1.38,0,2.09h-6.25l-.14-.62Z" transform="translate(-2.52 -6.68)"/><path class="cls-2" d="M50.58,37h-5l-.21-1,1.51-.49c.12-.92.27-2.95.36-4.73a14.14,14.14,0,0,0,0-3.57,3.88,3.88,0,0,0-1.33-.73l.22-1h5.51c.47,1.62,1.63,4.85,2.51,6.93.86-2.34,2.1-5.4,2.51-6.93h5.19l.2,1-1.5.66.3,5.41a7.55,7.55,0,0,0,.39,2.73,3.2,3.2,0,0,0,1.34.7l-.21,1H56.72l-.21-1,1.58-.5c0-1-.23-4.86-.27-7.67l-3.09,7.89a12.84,12.84,0,0,1-2.32,0c-.71-1.65-2.16-5.53-3.25-7.88l-.1,3.52a18.74,18.74,0,0,0,0,3.88c.15.39,1,.55,1.7.76Z" transform="translate(-2.52 -6.68)"/><path class="cls-2" d="M66.31,35.5a20.37,20.37,0,0,0,.15-2.81V29.8a8.71,8.71,0,0,0-.25-2.61,3.24,3.24,0,0,0-1.34-.71l.22-1H69.7c2.09,0,3.77,0,5.14-.14.17.23.4.58.52.79-.13.81-.45,2.27-.58,2.85a11.47,11.47,0,0,1-1.73-.09L72.62,27a10.26,10.26,0,0,0-1.75-.14c-.52,0-1,0-1.41,0,0,.51-.12,1.67-.12,2.95v.85l3.49-.2.33.43c-.07.44-.15.94-.24,1.37l-3.58-.13v.57a8.71,8.71,0,0,0,.25,2.61,1.14,1.14,0,0,0,.11.11,3.17,3.17,0,0,0,1.53.26,8.43,8.43,0,0,0,1.6-.14l.58-2a11.56,11.56,0,0,1,1.88.09c0,1.1,0,2.25,0,3.4H65.09l-.22-1Zm6.06-14.84a7.29,7.29,0,0,1,1.11,2l-.29.59-4.71,1.19-.29-.14-.29-.88C69.21,22.53,70.89,21.49,72.37,20.66Z" transform="translate(-2.52 -6.68)"/><path class="cls-2" d="M78.7,35.44a28.29,28.29,0,0,0,3.35-4.35,50,50,0,0,0-3.15-4,9.74,9.74,0,0,0-1.38-.62l.22-1c1.29,0,2.9,0,4-.07a42.61,42.61,0,0,0,2.78,4.45c.54-1,1.06-1.89,1.49-2.7a11.39,11.39,0,0,0-1.62-.67l.22-1h5.19l.22,1c-.35.16-.87.42-1.21.6a24.09,24.09,0,0,0-3.29,4.16c1.3,1.79,2.57,3.41,3.24,4.14A13.81,13.81,0,0,0,90.1,36l-.22,1c-1.27,0-2.87,0-3.91.08a42.11,42.11,0,0,0-2.91-4.59c-.56,1-1.14,2-1.57,2.86.5.2,1.22.44,1.87.64l-.21,1H77.66l-.21-1C77.79,35.86,78.33,35.63,78.7,35.44Z" transform="translate(-2.52 -6.68)"/><path class="cls-2" d="M93.7,35.5a20.37,20.37,0,0,0,.15-2.81V29.8a8.71,8.71,0,0,0-.25-2.61,3.25,3.25,0,0,0-1.34-.71l.22-1H98.1l.22,1L96.88,27a20.37,20.37,0,0,0-.15,2.81v2.89A8.71,8.71,0,0,0,97,35.3a3.14,3.14,0,0,0,1.34.7l-.22,1H92.48l-.22-1Z" transform="translate(-2.52 -6.68)"/><path class="cls-2" d="M108.66,35.11a19.28,19.28,0,0,0,.65-2,18.38,18.38,0,0,1,2,.08c0,.71.07,1.83.07,2.47l-.26.52a8.44,8.44,0,0,1-4.39,1.15c-3.83,0-6.2-2.22-6.2-5.85a6.33,6.33,0,0,1,6.57-6.26,9.26,9.26,0,0,1,4.25,1l.29.5c-.16.88-.45,2.15-.65,3a16,16,0,0,1-1.8-.09,8.91,8.91,0,0,0-.57-2.13,4,4,0,0,0-3.69-.12,6.31,6.31,0,0,0-1.22,3.89c0,2.51,1.27,4.19,3.4,4.19A3.34,3.34,0,0,0,108.66,35.11Z" transform="translate(-2.52 -6.68)"/><path class="cls-2" d="M113.82,31.59a6.31,6.31,0,0,1,6.42-6.4c3.45,0,5.83,2.16,5.83,5.71a6.19,6.19,0,0,1-6.27,6.4C116.26,37.3,113.82,35.14,113.82,31.59Zm8.37,3.33a7.35,7.35,0,0,0,.71-3.36c0-2.87-.87-4.6-3.05-4.6a3.2,3.2,0,0,0-1.84.52,6.64,6.64,0,0,0-1,3.76c0,2.67,1.18,4.33,3.17,4.33A2.93,2.93,0,0,0,122.19,34.92Z" transform="translate(-2.52 -6.68)"/></svg>