<svg xmlns="http://www.w3.org/2000/svg" viewBox="0 0 46.38 50.1"><defs><style>.cls-1{fill:#fff;}</style></defs><g id="Layer_2" data-name="Layer 2"><g id="Capa_1" data-name="Capa 1"><polygon class="cls-1" points="5.99 21.17 2.33 21.17 2.33 23.19 5.33 23.19 5.33 24.68 2.33 24.68 2.33 27.75 0.68 27.75 0.68 19.68 5.99 19.68 5.99 21.17"/><path class="cls-1" d="M10.3,21.62a1.92,1.92,0,0,1,.52.07v1.46h-.44a1.76,1.76,0,0,0-1.16.38,1.48,1.48,0,0,0-.45,1.2v3H7.12V21.69H8.63v.73a2.13,2.13,0,0,1,.74-.6,2.18,2.18,0,0,1,.93-.2"/><path class="cls-1" d="M14.58,21.56a2.92,2.92,0,0,1,1.16.22,2.84,2.84,0,0,1,.9.6,2.69,2.69,0,0,1,.58.89,3.11,3.11,0,0,1,.2,1.1,2.85,2.85,0,0,1,0,.51c0,.16-.05.29-.07.4H13.05a1.52,1.52,0,0,0,.61.89,1.89,1.89,0,0,0,1.11.31,2.37,2.37,0,0,0,.9-.17,3.24,3.24,0,0,0,.79-.44L17.14,27a4.16,4.16,0,0,1-1.12.67,3.65,3.65,0,0,1-2.63,0A3,3,0,0,1,12.34,27a3.19,3.19,0,0,1-.69-1,3.07,3.07,0,0,1-.25-1.25,3.2,3.2,0,0,1,.24-1.25,3.16,3.16,0,0,1,.68-1,3,3,0,0,1,1-.67,3.12,3.12,0,0,1,1.26-.25m-.06,1.33a1.39,1.39,0,0,0-.93.33,1.64,1.64,0,0,0-.54.9h2.78a1.2,1.2,0,0,0-.41-.91,1.36,1.36,0,0,0-.9-.32"/><path class="cls-1" d="M22,21.56a2.49,2.49,0,0,1,1,.18,2.14,2.14,0,0,1,.72.49,2.44,2.44,0,0,1,.45.77,3.13,3.13,0,0,1,.16,1v3.75H22.63V24.22a1.14,1.14,0,0,0-.31-.85A1,1,0,0,0,21.5,23a1.1,1.1,0,0,0-.83.33,1.15,1.15,0,0,0-.32.85v3.53H18.7V21.7h1.52v.56a2.41,2.41,0,0,1,1.76-.7"/><path class="cls-1" d="M28.45,21.56a2.75,2.75,0,0,1,1.13.23,2.1,2.1,0,0,1,.82.65V21.7h1.51v6.05H30.37v-.7a2.12,2.12,0,0,1-.81.63,2.82,2.82,0,0,1-1.11.22,2.85,2.85,0,0,1-1.17-.24,2.81,2.81,0,0,1-.93-.66,3,3,0,0,1-.61-1,3.78,3.78,0,0,1,0-2.54,3.14,3.14,0,0,1,.6-1,2.83,2.83,0,0,1,2.11-.9m.3,1.49a1.46,1.46,0,0,0-.6.12,1.43,1.43,0,0,0-.5.34,1.49,1.49,0,0,0-.33.53,1.92,1.92,0,0,0,0,1.39,1.65,1.65,0,0,0,.33.52,1.41,1.41,0,0,0,.49.33,1.74,1.74,0,0,0,.61.11,1.76,1.76,0,0,0,.55-.09,1.59,1.59,0,0,0,.5-.3,1.49,1.49,0,0,0,.35-.52,1.89,1.89,0,0,0,.14-.75,1.93,1.93,0,0,0-.14-.75,1.49,1.49,0,0,0-.35-.52,1.37,1.37,0,0,0-.48-.31,1.9,1.9,0,0,0-.57-.1"/><rect class="cls-1" x="0.57" y="28.77" width="1.65" height="9.18"/><path class="cls-1" d="M6.46,31.76A2.7,2.7,0,0,1,7.58,32a2,2,0,0,1,.82.66v-.75H9.92V38H8.38v-.7a2.1,2.1,0,0,1-.82.62,2.64,2.64,0,0,1-1.1.22,3,3,0,0,1-1.18-.23,2.7,2.7,0,0,1-.93-.67,3.05,3.05,0,0,1-.61-1,3.75,3.75,0,0,1,0-2.53,3.05,3.05,0,0,1,.61-1A2.44,2.44,0,0,1,5.27,32a2.88,2.88,0,0,1,1.19-.24m.29,1.49a1.73,1.73,0,0,0-.6.11,1.53,1.53,0,0,0-.5.34,1.69,1.69,0,0,0-.33.53,1.94,1.94,0,0,0-.12.7,1.85,1.85,0,0,0,.12.69,1.45,1.45,0,0,0,.33.52,1.25,1.25,0,0,0,.49.33,1.62,1.62,0,0,0,.61.12,1.58,1.58,0,0,0,.56-.1,1.25,1.25,0,0,0,.49-.3,1.38,1.38,0,0,0,.36-.51,2.23,2.23,0,0,0,0-1.5,1.69,1.69,0,0,0-.35-.53,1.33,1.33,0,0,0-.49-.3,1.59,1.59,0,0,0-.57-.1"/><path class="cls-1" d="M17.9,31.76a3,3,0,0,1,1.57.4,3.08,3.08,0,0,1,1.06,1.09l-1.16.89a2.45,2.45,0,0,0-.61-.63,1.36,1.36,0,0,0-.85-.25,1.54,1.54,0,0,0-.65.13,1.57,1.57,0,0,0-.49.35,1.65,1.65,0,0,0-.33.52,2,2,0,0,0,0,1.31,1.59,1.59,0,0,0,.33.53,1.57,1.57,0,0,0,.49.35,1.71,1.71,0,0,0,.65.13,1.36,1.36,0,0,0,.85-.25,2.37,2.37,0,0,0,.6-.62l1.15.88a2.87,2.87,0,0,1-1,1.09,2.9,2.9,0,0,1-1.57.41,3.17,3.17,0,0,1-3-1.92,3.12,3.12,0,0,1-.25-1.26,3.07,3.07,0,0,1,.25-1.25,3.15,3.15,0,0,1,.69-1,3.3,3.3,0,0,1,2.32-.91"/><path class="cls-1" d="M27.24,35.28A3.13,3.13,0,0,1,27,36.45a2.88,2.88,0,0,1-.59.89,2.6,2.6,0,0,1-.88.56,3,3,0,0,1-1.1.19,3.07,3.07,0,0,1-1.1-.19,2.5,2.5,0,0,1-.88-.56,2.71,2.71,0,0,1-.59-.89,3.13,3.13,0,0,1-.21-1.17V31.89h1.63v3.52a1.07,1.07,0,0,0,.34.85,1.12,1.12,0,0,0,.81.32,1.13,1.13,0,0,0,.81-.32,1.1,1.1,0,0,0,.33-.85V31.89h1.64Z"/><path class="cls-1" d="M32,31.82a1.66,1.66,0,0,1,.53.07v1.46H32.1a1.71,1.71,0,0,0-1.16.38,1.45,1.45,0,0,0-.46,1.2v3H28.83V31.89h1.52v.72a2,2,0,0,1,.73-.59,2.1,2.1,0,0,1,.93-.2"/><polygon class="cls-1" points="36.45 38.09 35.92 38.09 32.91 31.89 34.66 31.89 36.17 35.32 37.71 31.89 39.45 31.89 36.45 38.09"/><path class="cls-1" d="M42.77,31.76a2.7,2.7,0,0,1,1.12.22,2,2,0,0,1,.82.66v-.75h1.52V38H44.69v-.7a2,2,0,0,1-.82.62,2.6,2.6,0,0,1-1.1.22,3,3,0,0,1-1.18-.23,2.7,2.7,0,0,1-.93-.67,3.05,3.05,0,0,1-.61-1,3.75,3.75,0,0,1,0-2.53,3.05,3.05,0,0,1,.61-1,2.44,2.44,0,0,1,.92-.66,2.91,2.91,0,0,1,1.19-.24m.29,1.49a1.73,1.73,0,0,0-.6.11,1.39,1.39,0,0,0-.49.34,1.55,1.55,0,0,0-.34.53,1.94,1.94,0,0,0-.12.7,1.85,1.85,0,0,0,.12.69,1.45,1.45,0,0,0,.33.52,1.22,1.22,0,0,0,.5.33,1.53,1.53,0,0,0,.6.12,1.58,1.58,0,0,0,.56-.1,1.25,1.25,0,0,0,.49-.3,1.38,1.38,0,0,0,.36-.51,2.23,2.23,0,0,0,0-1.5,1.69,1.69,0,0,0-.35-.53,1.25,1.25,0,0,0-.49-.3,1.56,1.56,0,0,0-.57-.1"/><path class="cls-1" d="M26.9,16.19a6.27,6.27,0,0,0-.42.63,22.62,22.62,0,0,0-1.75,3.73c-.11.33-.18.67-.26,1l.08,0c.08-.18.16-.35.22-.53a24,24,0,0,1,1.6-3.54c.25-.45.52-.87.79-1.31H26.9"/><path class="cls-1" d="M24.58,21.65l-.17-.06v-.05c0-.1,0-.21.08-.31a5.38,5.38,0,0,1,.18-.69,22.53,22.53,0,0,1,1.76-3.75,5.31,5.31,0,0,1,.42-.63h0a1.26,1.26,0,0,1,.27,0h.07l-.14.23c-.23.37-.47.76-.68,1.15a22.31,22.31,0,0,0-1.6,3.53c0,.12-.1.25-.15.37l-.07.16Zm2.35-5.41a6.34,6.34,0,0,0-.41.6,22.15,22.15,0,0,0-1.74,3.73,5.23,5.23,0,0,0-.18.68l-.06.23,0-.09a3,3,0,0,0,.14-.36,23.94,23.94,0,0,1,1.61-3.54c.21-.39.45-.78.68-1.15l.06-.09h-.14"/><path class="cls-1" d="M41.74,23.24a4,4,0,0,0-.15.49,15,15,0,0,0-.37,2.8c0,.23,0,.47,0,.7h.06a2.85,2.85,0,0,0,0-.4,15.24,15.24,0,0,1,.44-2.59c.07-.34.19-.61.28-.95-.06,0-.27-.09-.33-.06"/><path class="cls-1" d="M41.36,27.29H41.2v0c0-.08,0-.15,0-.23a3.87,3.87,0,0,1,0-.48,16.6,16.6,0,0,1,.38-2.81,5,5,0,0,1,.15-.5v0h0a.42.42,0,0,1,.23,0l.11,0h.07v.07l-.12.4a5,5,0,0,0-.16.55c0,.25-.1.49-.15.73a9.12,9.12,0,0,0-.29,1.85,2.46,2.46,0,0,1,0,.28l0,.12Zm.42-4c-.05.14-.1.3-.14.46a15.45,15.45,0,0,0-.37,2.79,3.77,3.77,0,0,0,0,.47c0-.05,0-.11,0-.16A9.09,9.09,0,0,1,41.59,25c0-.23.11-.47.15-.72a4.58,4.58,0,0,1,.16-.56,3.37,3.37,0,0,0,.1-.34l-.08,0-.14,0"/><path class="cls-1" d="M40.38,22.67a3,3,0,0,0-.06.51,14.44,14.44,0,0,0,.1,2.82,5.73,5.73,0,0,0,.16.69h.06l0-.39a14.44,14.44,0,0,1,0-2.63c0-.35.08-.64.11-1-.05,0-.28,0-.33,0"/><path class="cls-1" d="M40.54,26.75V26.7a1.6,1.6,0,0,1-.05-.21,4.15,4.15,0,0,1-.11-.48,14.75,14.75,0,0,1-.1-2.83,3.32,3.32,0,0,1,.06-.52v0l0,0a.43.43,0,0,1,.23,0h.12l.07,0v.08c0,.14,0,.28,0,.41a5.23,5.23,0,0,0-.06.57c0,.25,0,.5,0,.74a9.08,9.08,0,0,0,0,1.88c0,.1,0,.19,0,.28s0,.08,0,.12v0Zm-.12-4a2.69,2.69,0,0,0-.05.47,15.35,15.35,0,0,0,.1,2.81,3.41,3.41,0,0,0,.1.46.77.77,0,0,0,0-.15,10.19,10.19,0,0,1,0-1.91c0-.24,0-.48,0-.73a4.93,4.93,0,0,1,.06-.58c0-.12,0-.23,0-.35h-.24"/><path class="cls-1" d="M25.17,16a10.9,10.9,0,0,0-.82,1.36,13.13,13.13,0,0,0-1,2.52c-.05.18-.12.36-.18.55s-.07.17.08.26c.25-.67.47-1.33.75-2a12.7,12.7,0,0,1,1-1.87l.41-.71a1.33,1.33,0,0,1-.19-.14"/><path class="cls-1" d="M23.27,20.79l-.05,0a.23.23,0,0,1-.11-.31v0l.09-.25c0-.1.07-.2.09-.3a13.26,13.26,0,0,1,1-2.53A10,10,0,0,1,25.13,16l0-.05.09.07.14.11,0,0,0,.05-.12.21-.29.49a14.75,14.75,0,0,0-1,1.87c-.19.44-.35.88-.51,1.35-.08.2-.15.41-.23.62Zm1.91-4.7a11.55,11.55,0,0,0-.78,1.31,13.43,13.43,0,0,0-1,2.51c0,.1-.06.2-.1.3a2.41,2.41,0,0,0-.08.25v0c0,.06,0,.1,0,.15.07-.19.14-.37.2-.56.17-.46.33-.91.52-1.35a14.92,14.92,0,0,1,1-1.88l.3-.5.09-.16-.11-.09Z"/><path class="cls-1" d="M36.39,10.86c-.31.39-.66.79-1.08,1.25A28.75,28.75,0,0,1,32,15c-.17.14-.36.27-.55.4l-.26.19a.46.46,0,0,0-.1.07l-.18.15h.38l0,0a2.27,2.27,0,0,0,.41-.21L33,14.67a21.94,21.94,0,0,0,3.22-3A10.77,10.77,0,0,0,37.8,9.17a1,1,0,0,0,.11-.68v0h-.06c-.2,0-.24.15-.27.25a7.28,7.28,0,0,1-1.18,2.16"/><path class="cls-1" d="M29.11,13.92l.35-.23a8.58,8.58,0,0,0,.72-.51,27.35,27.35,0,0,0,3.68-3.66,7.82,7.82,0,0,0,.72-1l.17-.25v0a.45.45,0,0,0,.08-.47l0-.07,0,.06-.08.07L34.55,8l-.5.63c-.33.42-.67.86-1,1.26a28.54,28.54,0,0,1-3.5,3.4l-.36.33a1.29,1.29,0,0,0-.17.16l0,0,.13.16Z"/><path class="cls-1" d="M33.76,11.79a13.78,13.78,0,0,0,2-2.69,1.21,1.21,0,0,0,0-.14l0-.07v0l-.14-.08,0,0c-.16.2-.32.39-.49.58-.39.46-.79.94-1.17,1.42a17.51,17.51,0,0,1-1.81,1.93c-.44.41-.89.78-1.37,1.18l-.64.53,0,0,0,0a.35.35,0,0,0,.21.08.33.33,0,0,0,.18-.08l0,0,.27-.21a3.55,3.55,0,0,1,.31-.23,17.14,17.14,0,0,0,2.55-2.27"/><path class="cls-1" d="M28.49,16.25c.15-.18.31-.37.48-.54s.33-.29.5-.43l.09-.07.24-.2h0a2.06,2.06,0,0,0-1.5,1.49h0c.07-.07.13-.15.2-.23l0,0"/><path class="cls-1" d="M30.61,15.73h0l-.12.07-.12.06a1.93,1.93,0,0,0-.28.22,2.65,2.65,0,0,1-.26.21l-.49.34-.35.24h0a2.4,2.4,0,0,0,1.62-1.14"/><path class="cls-1" d="M29.88,16h0a3,3,0,0,0-1.21.69h0l.15,0-.08,0h0l.2-.05h0a1.57,1.57,0,0,0,.88-.64h0Z"/><path class="cls-1" d="M29.36,15.8a1.59,1.59,0,0,0-.83.64h0a1.18,1.18,0,0,0,.81-.64h0Z"/><path class="cls-1" d="M28.71,15.23c-.06,0-.08.15-.08.31h0l.46-.38c-.21,0-.32,0-.39.07"/><path class="cls-1" d="M37.77,11.79l0,.17a4.54,4.54,0,0,1-.35,1.28l-.09.1,0,0h-.13a.71.71,0,0,1-.25,0,1.56,1.56,0,0,0-.36,0H35.21a.68.68,0,0,0-.25.07l0,0,0,0a.23.23,0,0,0,.14.13c.3,0,.61,0,.92,0a9.76,9.76,0,0,1,1.22.07,1.26,1.26,0,0,1,.19.27,6.84,6.84,0,0,1,.38,1.35c0,.11.15.61.18.72s.21-.11.25-.11a1.59,1.59,0,0,0,0-.5c-.07-.26-.13-.5-.19-.74a5.76,5.76,0,0,0-.28-.83l-.09-.2a.17.17,0,0,0-.06-.08h0a1.83,1.83,0,0,1,.15-.25,1.75,1.75,0,0,0,.11-.18,3.76,3.76,0,0,0,.26-1.49,3.91,3.91,0,0,1,.23-1.41.71.71,0,0,0,.07-.28.11.11,0,0,0,0-.09.09.09,0,0,0-.1,0c-.06,0-.14.13-.15.14a3.3,3.3,0,0,0-.24,1.23,5.18,5.18,0,0,1-.06.54"/><path class="cls-1" d="M39.09,21a13.54,13.54,0,0,0-.2-1.41l-.15,0-.17,0h-.08a43.15,43.15,0,0,1,.38,5.57c0,.07,0,.14,0,.21v.1a2.86,2.86,0,0,1-.64.08h0l-.51,0c0-.42-.16-2.36-.23-3.56l0-.61a22.81,22.81,0,0,0-.49-3c-.09-.4-.17-.77-.24-1.14a5.35,5.35,0,0,0-.57-1.75l0-.08a.88.88,0,0,0-.34-.39L35.64,15a.49.49,0,0,0-.6,0,4.1,4.1,0,0,0-1.33,1c-.13.14-.93,1-1.64,1.71l-.63.65h0l0,0,0,0-.06.06-.06.09-.36.37-.06.07s-.28.35-.44.52L29.9,20l-.31.32-.23.25-.29.3c-.07.08.07.27.21.3l1.5-1.65.35-.4h0l.1-.11,0,0,.49-.52,0,0h0c.88-.92,2.52-2.57,2.91-2.93a.89.89,0,0,1,.61-.25.43.43,0,0,1,.4.21c0,.06.06.08.07.08l0,0,.08.18a3.61,3.61,0,0,1,.36,1c.12.52.31,1.4.43,2a54,54,0,0,1,.66,6.47h0a2.8,2.8,0,0,1,0,.29c0,.07,0,.15,0,.22v.15s.56,0,.89,0h0a3.75,3.75,0,0,0,1-.16s0-2.93-.11-4.79"/><path class="cls-1" d="M37.72,4a.23.23,0,0,0,.08-.11,2.47,2.47,0,0,1,.52-.79.77.77,0,0,0,.1-.83A1,1,0,0,0,38,1.77a2.52,2.52,0,0,1-1-1L36.8.6A1.64,1.64,0,0,0,34.91.13a.82.82,0,0,0-.56.68.72.72,0,0,1-.42.59,1.5,1.5,0,0,0-.33.23,2.36,2.36,0,0,0-.4.51.51.51,0,0,0,.45.73l.34,0c0,.08,0,.14-.05.2a2.32,2.32,0,0,0-.19,1,2.6,2.6,0,0,0,.71,2,1.44,1.44,0,0,0,2,.24l.11,0a.55.55,0,0,1,0,.51,5.49,5.49,0,0,0-.24.68c0,.08,0,.15-.07.23l.06.05a1.58,1.58,0,0,0,.29-.17.55.55,0,0,1,.67-.09c.27.09.35.06.44-.21A7.25,7.25,0,0,0,38,6.36c.11-.35.1-.36-.31-.44-.06-.41-.12-.81-.19-1.21s-.1-.52.18-.69M36.56,7.36l.14-.42c.13.26.13.26-.14.42m1.07-1.19c0-.1.13-.1.25,0a5.09,5.09,0,0,1-.36,1.17l-.45-.16c.19-.34.38-.65.56-1M37.54,6a.37.37,0,0,1,0,.09L37,6.91l-.09,0c-.06-.29-.12-.58-.17-.86a.57.57,0,0,1,.06-.25l.52-1c.07.44.12.84.18,1.24M37.34,4a.67.67,0,0,0-.32.52,10.45,10.45,0,0,1-.32,1.09,1,1,0,0,1-.59.6A1.23,1.23,0,0,1,34.71,6a2.06,2.06,0,0,1-.42-.56,2.54,2.54,0,0,1,.14-2.68.44.44,0,0,1,.13-.14l.78-.46c.19-.11.26-.11.36.06a1,1,0,0,0,.76.45l.14,0c.12.48-.06,1,0,1.52A.76.76,0,0,0,37,3.74a.9.9,0,0,1,.12-.3.28.28,0,0,1,.36-.11.25.25,0,0,1,.14.3.51.51,0,0,1-.25.4"/><path class="cls-1" d="M37.72,4a.23.23,0,0,0,.08-.11,2.47,2.47,0,0,1,.52-.79.77.77,0,0,0,.1-.83A1,1,0,0,0,38,1.77a2.52,2.52,0,0,1-1-1L36.8.6A1.64,1.64,0,0,0,34.91.13a.82.82,0,0,0-.56.68.72.72,0,0,1-.42.59,1.5,1.5,0,0,0-.33.23,2.36,2.36,0,0,0-.4.51.51.51,0,0,0,.45.73l.34,0c0,.08,0,.14-.05.2a2.32,2.32,0,0,0-.19,1,2.6,2.6,0,0,0,.71,2,1.44,1.44,0,0,0,2,.24l.11,0a.55.55,0,0,1,0,.51,5.49,5.49,0,0,0-.24.68c0,.08,0,.15-.07.23l.06.05a1.58,1.58,0,0,0,.29-.17.55.55,0,0,1,.67-.09c.27.09.35.06.44-.21A7.25,7.25,0,0,0,38,6.36c.11-.35.1-.36-.31-.44-.06-.41-.12-.81-.19-1.21S37.44,4.19,37.72,4ZM36.56,7.36l.14-.42C36.83,7.2,36.83,7.2,36.56,7.36Zm1.07-1.19c0-.1.13-.1.25,0a5.09,5.09,0,0,1-.36,1.17l-.45-.16C37.26,6.81,37.45,6.5,37.63,6.17ZM37.54,6a.37.37,0,0,1,0,.09L37,6.91l-.09,0c-.06-.29-.12-.58-.17-.86a.57.57,0,0,1,.06-.25l.52-1C37.43,5.18,37.48,5.58,37.54,6ZM37.34,4a.67.67,0,0,0-.32.52,10.45,10.45,0,0,1-.32,1.09,1,1,0,0,1-.59.6A1.23,1.23,0,0,1,34.71,6a2.06,2.06,0,0,1-.42-.56,2.54,2.54,0,0,1,.14-2.68.44.44,0,0,1,.13-.14l.78-.46c.19-.11.26-.11.36.06a1,1,0,0,0,.76.45l.14,0c.12.48-.06,1,0,1.52A.76.76,0,0,0,37,3.74a.9.9,0,0,1,.12-.3.28.28,0,0,1,.36-.11.25.25,0,0,1,.14.3A.51.51,0,0,1,37.34,4Z"/><path class="cls-1" d="M35,3.65a10.22,10.22,0,0,1-.13,1.2l.43-.1a.61.61,0,0,1-.09.17c-.14.11-.27.29-.46.19s-.1-.29-.07-.44.09-.52.15-.77c0-.09.06-.18.09-.27Z"/><path class="cls-1" d="M35.93,5.41l-.67.24a.66.66,0,0,1,.52-.39s.12,0,.17.07a.31.31,0,0,1,0,.08"/><path class="cls-1" d="M35.21,5.69l0-.05a.68.68,0,0,1,.52-.4h0s.08,0,.13,0l.05,0h0l0,.12Zm.59-.41h0a.68.68,0,0,0-.47.31l.61-.21v0l0,0a.2.2,0,0,0-.08,0"/><path class="cls-1" d="M35.4,3.63h0l-.21,0a.6.6,0,0,1,.42-.4c.08.23-.11.29-.22.39"/><path class="cls-1" d="M34.15,3.63a.42.42,0,0,1,.49.06.15.15,0,0,1,0,.11s-.11.08-.14.07-.21-.14-.37-.24"/><path class="cls-1" d="M35.69,3.93a.17.17,0,0,1-.16.17.17.17,0,0,1-.16-.18.18.18,0,0,1,.17-.17.17.17,0,0,1,.15.18"/><path class="cls-1" d="M34.6,4.12a.16.16,0,0,1-.16.17.16.16,0,0,1-.15-.17A.17.17,0,0,1,34.45,4a.15.15,0,0,1,.15.17"/><path class="cls-1" d="M25,15.48a.23.23,0,0,1,0-.2,1.08,1.08,0,0,1,.13-.23,10.74,10.74,0,0,1,2.24-.21h.1a.42.42,0,0,1,.13.23c0,.13-.13.24-.13.24a17.71,17.71,0,0,0-2.45.17"/><path class="cls-1" d="M21.78,14.37A10.56,10.56,0,0,1,19.67,11c-.32-.78-.6-1.57-.94-2.33A2.61,2.61,0,0,0,17,7.19a2.7,2.7,0,0,0-2.53.47,9.85,9.85,0,0,0-2.2,2.44c-.1.15-.2.28-.33.49h0a.43.43,0,0,0,0,0c-.05-.21-.08-.35-.1-.49-.18-1.1-.36-2.22-.51-3.32S11,4.36,10.8,3.16A4.13,4.13,0,0,0,9.82.9,1.47,1.47,0,0,0,7.63.62a1.7,1.7,0,0,0-.51.49c-.22.29-.4.62-.59.93a9.86,9.86,0,0,0-1.1,3.55C5.21,7,5.07,8.37,4.75,9.74a20,20,0,0,1-1,3.55,4.49,4.49,0,0,1-.87,1.38,1.85,1.85,0,0,1-1,.59c-.47.08-.95.11-1.42.16a1.2,1.2,0,0,0-.33.05.3.3,0,0,0-.12.2.22.22,0,0,0,.12.15,1.09,1.09,0,0,0,.26,0c.48,0,1,.07,1.46.06l13.73-.07,4.48,0c.38-.17.44-.41.14-.61h-.94c-1.76,0-3.53,0-5.28,0-.14,0-4.77.12-6,0,3-1.72,3.81-3.51,3.81-3.51l.21-.28.19-.25,0-.05a1,1,0,0,0,.08-.11l0-.06a10.23,10.23,0,0,1,1.76-2.27c.28-.26.58-.48.88-.71a2,2,0,0,1,1.79-.34,2,2,0,0,1,1.54,1.3c.29.67.55,1.33.78,2A10.21,10.21,0,0,0,20.8,14.2l.37.42.26-.1.36-.14Zm-10.3-3.13a1.28,1.28,0,0,1-.18.42,10.81,10.81,0,0,1-2.92,2.8,6,6,0,0,1-1.84.77,1.08,1.08,0,0,1-.3,0l-2.89.06H3.11c0-.06,0-.08,0-.09a6,6,0,0,0,1.49-2.68A36,36,0,0,0,5.78,7.21c.14-1.06.32-2.11.53-3.14A7.33,7.33,0,0,1,7.52,1.42,1.5,1.5,0,0,1,8.63.81.66.66,0,0,1,9.1,1a2.89,2.89,0,0,1,1,1.85c.15.78.22,1.58.34,2.36.19,1.34.4,2.67.6,4l.1.5.18.85Z"/><path class="cls-1" d="M31.83,15.8c-.68.69-1.72,1.72-2.33,2.39s-1.17,1.24-1.73,1.94c-.25.31-.35.47-.6.78-.1.12,0,.3.13.25l.08,0c.8-.85,1.05-1.3,1.79-2.13.22-.25.5-.5.72-.77.05-.07.69-.72,1.31-1.35l.85-.85a1,1,0,0,1-.22-.24"/><path class="cls-1" d="M30.09,7.31s0,0-.06-.06a.76.76,0,0,0-.27,0c0-.17-.07-.33-.11-.5v0a1,1,0,0,0,0-.14,2.25,2.25,0,0,0-.05-.22s0-.11,0-.16a.69.69,0,0,1,0-.49s0-.05.05-.07a.6.6,0,0,1,.08-.08.13.13,0,0,0,.06-.09,2.11,2.11,0,0,1,.42-.76.68.68,0,0,0,0-.74.9.9,0,0,0-.44-.44c-.42-.17-1.11-.22-1.38-.58a10,10,0,0,0-1.18.69l0,0h0l0,0-.06,0c-.44.3-.81.6-.64.61s-.27.51-.16.52,0,.06,0,.09h0s0,.05,0,.08a.09.09,0,0,0,0,0,1.87,1.87,0,0,0-.09.82,2.34,2.34,0,0,0,.78,1.7,1.29,1.29,0,0,0,1.79.08.33.33,0,0,1,.1-.06.48.48,0,0,1,.07.45,4.77,4.77,0,0,0-.17.62,1.55,1.55,0,0,0,0,.21l0,0a1.21,1.21,0,0,0,.25-.17.53.53,0,0,1,.59-.13c.26.07.32,0,.39-.22s.14-.53.2-.79a.58.58,0,0,0,0-.25Zm-.41,1.16-.42-.12c.15-.31.3-.61.43-.91,0-.1.11-.11.22-.05a4.74,4.74,0,0,1-.23,1.08m-.77-.28c.14.23.14.23-.09.38,0-.15.06-.27.09-.38m-1.85-.74a2.3,2.3,0,0,1-.48-2.88.86.86,0,0,1,.32-.42c.16-.11.54-.24.65-.1a2.44,2.44,0,0,0,.84.3.5.5,0,0,1,.13,0c.15.43,0,.88.15,1.35a.7.7,0,0,0,.25-.42A1.16,1.16,0,0,1,29,5a.25.25,0,0,1,.31-.12.22.22,0,0,1,.15.26.48.48,0,0,1-.21.38c-.18.11-.2.3-.24.48a8.45,8.45,0,0,1-.21,1,.92.92,0,0,1-.48.58,1.15,1.15,0,0,1-1.28-.16m1.85-.09A.36.36,0,0,1,29,7.14c.12-.31.24-.61.39-1,.08.38.17.74.25,1.08a.28.28,0,0,1,0,.09c-.12.26-.25.52-.38.79l-.08,0c-.07-.26-.15-.5-.22-.76"/><path class="cls-1" d="M29.33,4.89A.25.25,0,0,0,29,5a.86.86,0,0,0-.11.28.61.61,0,0,1-.21.39,2.72,2.72,0,0,1-.05-.63,2.3,2.3,0,0,0-.09-.69h-.06l-.08,0a2.14,2.14,0,0,1-.75-.25l-.09,0c-.12-.15-.53,0-.67.1a.87.87,0,0,0-.32.4l0,0A2.31,2.31,0,0,0,26.63,7a2.07,2.07,0,0,0,.42.48,1.24,1.24,0,0,0,.78.29,1,1,0,0,0,.52-.13A.9.9,0,0,0,28.84,7c.09-.33.16-.67.22-1V6a.57.57,0,0,1,.22-.43.49.49,0,0,0,.22-.4.22.22,0,0,0-.17-.28M29,6q-.09.5-.21,1a.89.89,0,0,1-.47.57,1.15,1.15,0,0,1-1.25-.16A2,2,0,0,1,26.67,7a2.27,2.27,0,0,1-.07-2.38v0A.86.86,0,0,1,27.39,4a.16.16,0,0,1,.14.05l.1,0a2.17,2.17,0,0,0,.77.25l.07,0h0a2.44,2.44,0,0,1,.08.66,2.25,2.25,0,0,0,.07.68v0l0,0A.71.71,0,0,0,29,5.31,1.07,1.07,0,0,1,29,5a.22.22,0,0,1,.19-.12h.09a.19.19,0,0,1,.12.23.43.43,0,0,1-.18.37A.59.59,0,0,0,29,6Zm.39.31,0-.24,0,.07c0,.11-.09.22-.13.32s-.17.44-.26.64a.38.38,0,0,0,0,.23c0,.2.11.39.16.58l.06.18v0l.12,0,.1-.21c.09-.2.19-.39.28-.59a.17.17,0,0,0,0-.1c-.06-.3-.14-.61-.22-.92m.17,1c-.09.2-.2.39-.29.59l-.08.18h-.05a1.21,1.21,0,0,0,0-.18c-.05-.19-.11-.37-.15-.57a.35.35,0,0,1,0-.2c.08-.21.17-.42.26-.64l.1-.25,0,.09c.07.31.15.62.21.92,0,0,0,0,0,.07m.35,0a.29.29,0,0,0-.17,0,.21.21,0,0,0-.08.1c-.07.15-.14.3-.21.47s-.15.29-.22.44v0h0c.13,0,.27.08.41.12h0v0a4.19,4.19,0,0,0,.22-1l0-.1Zm-.05.11a4.45,4.45,0,0,1-.21,1l-.36-.1.2-.42c.07-.17.15-.32.21-.47l.06-.06a.16.16,0,0,1,.11,0Zm-.94.71,0-.06v.06q0,.16-.09.39l0,.06,0,0c.25-.15.25-.17.1-.41m-.07.33a1.49,1.49,0,0,1,.07-.25c.08.13.07.17-.07.25m1.06-1.15a.29.29,0,0,0-.17,0,.21.21,0,0,0-.08.1c-.07.15-.14.3-.21.47s-.15.29-.22.44v0h0c.13,0,.27.08.41.12h0v0a4.19,4.19,0,0,0,.22-1l0-.1Zm-.05.11a4.45,4.45,0,0,1-.21,1l-.36-.1.2-.42c.07-.17.15-.32.21-.47l.06-.06a.16.16,0,0,1,.11,0Zm-.64.69.1-.21c.09-.2.19-.39.28-.59a.17.17,0,0,0,0-.1c-.06-.3-.14-.61-.22-.92l0-.24,0,.07c0,.11-.09.22-.13.32s-.17.44-.26.64a.38.38,0,0,0,0,.23c0,.2.11.39.16.58l.06.18v0Zm0-1.65.1-.25,0,.09c.07.31.15.62.21.92,0,0,0,0,0,.07-.09.2-.2.39-.29.59l-.08.18h-.05a1.21,1.21,0,0,0,0-.18c-.05-.19-.11-.37-.15-.57a.35.35,0,0,1,0-.2c.08-.21.17-.42.26-.64M29.06,6V6a.57.57,0,0,1,.22-.43.49.49,0,0,0,.22-.4.22.22,0,0,0-.17-.28A.25.25,0,0,0,29,5a.86.86,0,0,0-.11.28.61.61,0,0,1-.21.39,2.72,2.72,0,0,1-.05-.63,2.3,2.3,0,0,0-.09-.69h-.06l-.08,0a2.14,2.14,0,0,1-.75-.25l-.09,0c-.12-.15-.53,0-.67.1a.87.87,0,0,0-.32.4l0,0A2.31,2.31,0,0,0,26.63,7a2.07,2.07,0,0,0,.42.48,1.24,1.24,0,0,0,.78.29,1,1,0,0,0,.52-.13A.9.9,0,0,0,28.84,7c.09-.33.16-.67.22-1m-2,1.4A2,2,0,0,1,26.67,7a2.27,2.27,0,0,1-.07-2.38v0A.86.86,0,0,1,27.39,4a.16.16,0,0,1,.14.05l.1,0a2.17,2.17,0,0,0,.77.25l.07,0h0a2.44,2.44,0,0,1,.08.66,2.25,2.25,0,0,0,.07.68v0l0,0A.71.71,0,0,0,29,5.31,1.07,1.07,0,0,1,29,5a.22.22,0,0,1,.19-.12h.09a.19.19,0,0,1,.12.23.43.43,0,0,1-.18.37A.59.59,0,0,0,29,6V6q-.09.5-.21,1a.89.89,0,0,1-.47.57,1.15,1.15,0,0,1-1.25-.16m1.82.69v.06q0,.16-.09.39l0,.06,0,0c.25-.15.25-.17.1-.41Zm0,.39a1.49,1.49,0,0,1,.07-.25c.08.13.07.17-.07.25m-1.8-4.85.05,0,0,0h0l0,0,0,.08s0,0,0,0Zm3.05,3.63s0,0,0,0,0,0,0,0H30l-.21,0c0-.1,0-.19-.07-.29v0a1,1,0,0,0,0-.17,1.33,1.33,0,0,0-.05-.19c0-.11-.05-.23-.08-.34v0c-.06-.22-.12-.43.11-.59a.16.16,0,0,0,.07-.11A1.63,1.63,0,0,1,30,4.8l.09-.13a.69.69,0,0,0,0-.77.9.9,0,0,0-.45-.45,3,3,0,0,0-.48-.14,1.66,1.66,0,0,1-.88-.43s0,0-.07,0-.68.38-1.17.69l0,0c-.41.28-.77.55-.76.65s0,0,.05,0a.69.69,0,0,1-.09.21.75.75,0,0,0-.1.24.13.13,0,0,1,0,0h0v0a.13.13,0,0,0,0,.06h0s0,0,0,0h0a2.15,2.15,0,0,0-.1.87,2.38,2.38,0,0,0,.78,1.72,1.35,1.35,0,0,0,1.84.08s0,0,.06,0h0a.43.43,0,0,1,.05.41,3.45,3.45,0,0,0-.12.46,1,1,0,0,0,0,.17.8.8,0,0,0,0,.15.13.13,0,0,0,0,.06h0l.08.06h0l.09-.05a.55.55,0,0,0,.18-.13.48.48,0,0,1,.55-.11c.27.06.35,0,.42-.24a6,6,0,0,0,.2-.79,1.15,1.15,0,0,0,0-.22.07.07,0,0,0,0-.06h0M29.5,8.56a.55.55,0,0,0-.62.13.52.52,0,0,1-.16.12l-.07,0,0,0a.06.06,0,0,1,0,0,.4.4,0,0,1,0-.15,1.36,1.36,0,0,1,0-.17A3.31,3.31,0,0,1,28.83,8a.49.49,0,0,0-.07-.48v0l0,0h0l-.06,0a1.27,1.27,0,0,1-1.76-.08,2.31,2.31,0,0,1-.78-1.68,2,2,0,0,1,.1-.85h0s0,0,0-.06h0s0,0,0,0v0a.06.06,0,0,1,0,0v0l0,0a.91.91,0,0,1,.1-.23c.08-.13.12-.22.09-.25s0,0,0,0,0,0,0,0A2.54,2.54,0,0,1,27,3.74l.06,0s0,0,0,0h0l.05,0,0,0h0a9.59,9.59,0,0,1,1.14-.68,1.72,1.72,0,0,0,.91.43,4.35,4.35,0,0,1,.47.15.87.87,0,0,1,.43.42.69.69,0,0,1,0,.72.85.85,0,0,0-.09.14,1.48,1.48,0,0,0-.33.62.16.16,0,0,1-.05.08h0s0,0,0,0l-.07.06a.46.46,0,0,0-.08.13.58.58,0,0,0,0,.41v0a.61.61,0,0,0,0,.13,1.8,1.8,0,0,1,0,.19c0,.14.07.28.1.43s.05.21.08.31v0h0a1.84,1.84,0,0,1,.28,0s0,0,0,0,0,.13,0,.27c-.06.3-.13.56-.2.79s-.11.26-.35.2m.44-1.18,0,0a.29.29,0,0,0-.17,0,.21.21,0,0,0-.08.1c-.07.15-.14.3-.21.47s-.15.29-.22.44v0h0c.13,0,.27.08.41.12h0v0a4.19,4.19,0,0,0,.22-1Zm-.07.09a4.45,4.45,0,0,1-.21,1l-.36-.1.2-.42c.07-.17.15-.32.21-.47l.06-.06a.16.16,0,0,1,.11,0ZM29.33,8c.09-.2.19-.39.28-.59a.17.17,0,0,0,0-.1c-.06-.3-.14-.61-.22-.92l0-.24,0,.07c0,.11-.09.22-.13.32s-.17.44-.26.64a.38.38,0,0,0,0,.23c0,.2.11.39.16.58l.06.18v0l.12,0Zm-.18.15a1.21,1.21,0,0,0,0-.18c-.05-.19-.11-.37-.15-.57a.35.35,0,0,1,0-.2c.08-.21.17-.42.26-.64l.1-.25,0,.09c.07.31.15.62.21.92,0,0,0,0,0,.07-.09.2-.2.39-.29.59l-.08.18ZM29.06,6a.57.57,0,0,1,.22-.43.49.49,0,0,0,.22-.4.22.22,0,0,0-.17-.28A.25.25,0,0,0,29,5a.86.86,0,0,0-.11.28.61.61,0,0,1-.21.39,2.72,2.72,0,0,1-.05-.63,2.3,2.3,0,0,0-.09-.69h-.06l-.08,0a2.14,2.14,0,0,1-.75-.25l-.09,0c-.12-.15-.53,0-.67.1a.87.87,0,0,0-.32.4l0,0A2.31,2.31,0,0,0,26.63,7a2.07,2.07,0,0,0,.42.48,1.24,1.24,0,0,0,.78.29,1,1,0,0,0,.52-.13A.9.9,0,0,0,28.84,7c.09-.33.16-.67.22-1Zm0,0q-.09.5-.21,1a.89.89,0,0,1-.47.57,1.15,1.15,0,0,1-1.25-.16A2,2,0,0,1,26.67,7a2.27,2.27,0,0,1-.07-2.38v0A.86.86,0,0,1,27.39,4a.16.16,0,0,1,.14.05l.1,0a2.17,2.17,0,0,0,.77.25l.07,0h0a2.44,2.44,0,0,1,.08.66,2.25,2.25,0,0,0,.07.68v0l0,0A.71.71,0,0,0,29,5.31,1.07,1.07,0,0,1,29,5a.22.22,0,0,1,.19-.12h.09a.19.19,0,0,1,.12.23.43.43,0,0,1-.18.37A.59.59,0,0,0,29,6ZM28.9,8.12v.06q0,.16-.09.39l0,.06,0,0c.25-.15.25-.17.1-.41Zm0,.39a1.49,1.49,0,0,1,.07-.25c.08.13.07.17-.07.25"/><path class="cls-1" d="M29.4,6.34l0-.24,0,.07c0,.11-.09.22-.13.32s-.17.44-.26.64a.49.49,0,0,0,0,.24c0,.19.11.38.16.57l.06.18v0l.12,0,.1-.21c.09-.2.19-.39.28-.58a.22.22,0,0,0,0-.11c-.06-.3-.13-.61-.22-.92m.17,1c-.09.2-.2.39-.29.59l-.08.18h-.05a1.21,1.21,0,0,0,0-.18c-.05-.19-.11-.37-.15-.56a.3.3,0,0,1,0-.21c.08-.21.17-.42.26-.64l.1-.25,0,.09c.07.31.15.62.21.92,0,0,0,0,0,.07"/><path class="cls-1" d="M27.27,5.9c.06.22,0,.43,0,.66l.31-.07s0,.07-.06.09-.17.17-.32.12-.09-.15-.08-.24A3,3,0,0,1,27.16,6a.83.83,0,0,1,0-.15h.07"/><path class="cls-1" d="M28.11,6.87l-.58.27c.07-.25.27-.32.44-.39s.11,0,.16,0a.14.14,0,0,1,0,.07"/><path class="cls-1" d="M28.14,6.77l-.05,0s-.09,0-.12,0h0a.61.61,0,0,0-.44.4l0,0,.05,0,.58-.26h0l0-.12Zm-.05.09-.52.23a.62.62,0,0,1,.4-.31h0l.08,0h0Z"/><path class="cls-1" d="M27.7,5.4h0l-.19,0A.53.53,0,0,1,27.87,5c.08.2-.08.27-.17.37"/><path class="cls-1" d="M26.38,5.54a.37.37,0,0,1,.44,0s0,.08,0,.09-.09.08-.11.07a2.11,2.11,0,0,1-.35-.19"/><path class="cls-1" d="M28,5.67a.14.14,0,1,1-.28,0,.15.15,0,0,1,.13-.17.15.15,0,0,1,.15.15"/><path class="cls-1" d="M26.86,6a.16.16,0,0,1-.14.16A.14.14,0,0,1,26.57,6a.15.15,0,0,1,.13-.17.16.16,0,0,1,.16.15"/><path class="cls-1" d="M29.74,9.59a.86.86,0,0,1-.12.51A8.57,8.57,0,0,1,28.26,12a16.56,16.56,0,0,1-2.7,2.24l-1,.7a2.17,2.17,0,0,1-.35.15.49.49,0,0,1-.19,0l.15-.1c.22-.14.46-.27.67-.42a23.32,23.32,0,0,0,2.78-2.17c.31-.3.62-.61.91-.93a5.86,5.86,0,0,0,1.05-1.68.19.19,0,0,1,.21-.16"/><path class="cls-1" d="M29.74,9.54h0c-.16,0-.2.11-.23.19a6.07,6.07,0,0,1-1,1.66c-.27.29-.57.59-.92.94a23.41,23.41,0,0,1-2.76,2.16l-.45.28-.23.14L24,15l-.16.12h.33l0,0a2,2,0,0,0,.34-.14l1.05-.69A18.19,18.19,0,0,0,28.3,12a9.26,9.26,0,0,0,1.37-1.9.79.79,0,0,0,.11-.53v0ZM24.16,15H24.1l0,0,.24-.14.45-.29A23.38,23.38,0,0,0,27.6,12.4c.36-.34.66-.65.92-.94a6,6,0,0,0,1.06-1.69c0-.08.05-.11.11-.12a.89.89,0,0,1-.11.43,8.35,8.35,0,0,1-1.36,1.86,17.46,17.46,0,0,1-2.68,2.25l-1.06.69a1.93,1.93,0,0,1-.32.13"/><path class="cls-1" d="M22.45,13.38c.15-.12.29-.25.45-.36a24.58,24.58,0,0,0,2.94-2.54c.46-.45.88-1,1.32-1.43,0-.05.1-.09.16-.15a.32.32,0,0,1-.08.34,11.71,11.71,0,0,1-.76.95,23.58,23.58,0,0,1-3.09,2.73c-.28.19-.59.35-.89.53a.18.18,0,0,0-.05-.07"/><path class="cls-1" d="M27.36,8.88l0-.07-.06,0s0,0-.05.06l-.11.1c-.14.15-.29.31-.43.48s-.57.64-.88.94A22.85,22.85,0,0,1,22.87,13l-.32.26-.13.11,0,0,.1.14,0,0,.28-.16a5.51,5.51,0,0,0,.61-.37,22.9,22.9,0,0,0,3.1-2.74,7.14,7.14,0,0,0,.61-.75l.14-.2h0a.34.34,0,0,0,.08-.38m-.17.33-.14.19a6.16,6.16,0,0,1-.6.75,22.5,22.5,0,0,1-3.09,2.72,4.6,4.6,0,0,1-.6.37l-.21.12.07,0,.31-.26a22.37,22.37,0,0,0,2.95-2.54c.31-.3.61-.63.89-.95l.42-.47.1-.09a.31.31,0,0,1-.09.2Z"/><path class="cls-1" d="M23.41,14c.57-.43,1.14-.82,1.68-1.27a13.07,13.07,0,0,0,1.53-1.45c.46-.51.94-1,1.42-1.51a.1.1,0,0,0,.05,0c0,.05-.05.11-.08.15a10.77,10.77,0,0,1-1.71,2,12.82,12.82,0,0,1-2.14,1.67c-.16.11-.31.23-.48.34s-.14.11-.27,0"/><path class="cls-1" d="M28.12,9.75l-.05,0,0,0,0,0-.43.45c-.33.35-.67.7-1,1.06a14.45,14.45,0,0,1-1.53,1.45c-.37.3-.74.58-1.14.86-.17.14-.36.27-.53.4l-.05,0,0,0a.29.29,0,0,0,.17.07.21.21,0,0,0,.15-.06h0l.23-.16.24-.17A12.37,12.37,0,0,0,26.33,12a11,11,0,0,0,1.73-2,1,1,0,0,0,.05-.12l0,0,0,0Zm-4.24,4-.23.15h0c-.05,0-.09.06-.15,0l.48-.35c.4-.29.78-.58,1.15-.88a14.45,14.45,0,0,0,1.53-1.45c.33-.37.66-.71,1-1.06L28,9.91a10.19,10.19,0,0,1-1.71,2,12.48,12.48,0,0,1-2.13,1.67l-.25.18"/><path class="cls-1" d="M21.73,15.49A1.63,1.63,0,0,1,23,14.38c-.24.18-.48.33-.69.52s-.4.39-.6.59"/><path class="cls-1" d="M23,14.38h0a.93.93,0,0,0-.39.11l-.07,0a1,1,0,0,1,.46-.15.05.05,0,0,1,0,0l-.15.12h0l.21-.15h0Zm-.48.16a2.35,2.35,0,0,0-.32.23,1.86,1.86,0,0,1,.32-.23m-.51.65-.11.12h0a5.55,5.55,0,0,1,.42-.42h0c-.1.1-.21.19-.3.29m-.27.25a.38.38,0,0,1,0-.13,1.38,1.38,0,0,1,.24-.37,1.19,1.19,0,0,0-.15.18,0,0,0,0,0,0,0,.86.86,0,0,0-.14.36v0h0l.17-.17-.17.16a.06.06,0,0,1,0,0"/><path class="cls-1" d="M23.63,15a1.89,1.89,0,0,1-1.34.82l.7-.42a2.65,2.65,0,0,1,.64-.4"/><path class="cls-1" d="M23.62,15a.24.24,0,0,0-.11.06l.1,0h0Zm-.07.15h0Zm-.25,0-.1.08a.39.39,0,0,0-.1.08l.1-.07a1.3,1.3,0,0,1,.2-.15l.11-.06a.16.16,0,0,0-.11.05l-.1.07m-.65.43-.1.06-.26.16h0a.51.51,0,0,0,.2,0,.57.57,0,0,1-.18,0l.25-.15L23,15.4a.39.39,0,0,0,.1-.08l-.1.07-.34.2m.23,0h0a.93.93,0,0,0,.19-.11l-.19.1s0,0,0,0"/><path class="cls-1" d="M23,15.18a1.27,1.27,0,0,1-1,.49,2.29,2.29,0,0,1,1-.49"/><path class="cls-1" d="M23,15.18h-.09l-.11.05-.14,0,.25-.09Zm-.49.16-.14.08a1.75,1.75,0,0,1,.28-.13h0l-.14.06m-.52.32h.09a1.18,1.18,0,0,0,.52-.15,1.31,1.31,0,0,1-.52.14Z"/><path class="cls-1" d="M21.94,15.46a1.35,1.35,0,0,1,.7-.47.9.9,0,0,1-.7.47"/><path class="cls-1" d="M22,15.46h0a.45.45,0,0,0,.19-.05.72.72,0,0,1-.19,0,1.24,1.24,0,0,1,.67-.46h0c-.2,0-.39.15-.69.47m.31-.09h0l-.1.05.1,0s0,0,0,0"/><path class="cls-1" d="M22.46,14.46l-.39.29c0-.26.1-.32.39-.29"/><path class="cls-1" d="M22.46,14.46h-.13l-.11,0h.22l-.09.07h0l.09-.06h0Zm-.39.28a.41.41,0,0,1,.06-.22.36.36,0,0,0-.07.23h0l.18-.13a.39.39,0,0,0,.1-.08l-.11.07-.17.13m.07-.24h0Z"/><path class="cls-1" d="M41.31,18a.22.22,0,0,0,.1.14l.72.44a8.49,8.49,0,0,0,1.07.34c.17,0,.42.09.59.1s0-.13,0-.14,0,0,0,0l-.33,0a4.79,4.79,0,0,1-.93-.19A6.26,6.26,0,0,1,41.41,18a.08.08,0,0,0-.1,0"/><path class="cls-1" d="M43.88,18.81l0,0h-.13l-.2,0a3.12,3.12,0,0,1-.68-.12l-.24-.06a6,6,0,0,1-1.15-.6.13.13,0,0,0-.16,0l0,0v0a.23.23,0,0,0,.12.17c.24.15.43.28.73.45l.4.13a3.2,3.2,0,0,0,.69.21l.27.05.12,0,.2,0,.05,0s0-.06,0-.1v0l0,0v0a.08.08,0,0,0,0-.05m-.12.15h0l-.11,0-.15,0a1.6,1.6,0,0,0-.27,0,5,5,0,0,1-.67-.21h0l.24.07a3.13,3.13,0,0,0,.7.13h.25V19Zm-1.25-.31-.36-.11a3.3,3.3,0,0,1-.41-.26,7.17,7.17,0,0,0,.77.37"/><path class="cls-1" d="M42.43,23.53a2.21,2.21,0,0,0,.08-.37,11,11,0,0,1,.69-2.46c.16-.41.38-.8.57-1.2,0,0,0-.09,0-.14a.27.27,0,0,0-.25.16,3.88,3.88,0,0,0-.43.73,9.93,9.93,0,0,0-.79,2.61c0,.22,0,.44,0,.67h.09"/><path class="cls-1" d="M43.81,19.32a.33.33,0,0,0-.28.18l-.11.15a3.42,3.42,0,0,0-.33.59,9.87,9.87,0,0,0-.79,2.61,2.16,2.16,0,0,0,0,.44v.26h.06a.11.11,0,0,0,.07,0h0v0a.21.21,0,0,1,0-.12,1.29,1.29,0,0,0,.06-.25,10.21,10.21,0,0,1,.68-2.47c.11-.26.24-.54.38-.8l.19-.39,0-.09a.08.08,0,0,1,0-.05v-.06Zm-.09.17-.19.4a6.51,6.51,0,0,0-.37.8,9.84,9.84,0,0,0-.69,2.47l0,.17v0s0,0,0,0,0,0,0,0,0,0,0,0v-.14a2.37,2.37,0,0,1,0-.46,10.26,10.26,0,0,1,.79-2.61,2.92,2.92,0,0,1,.34-.58l.09-.14h0a.24.24,0,0,1,.13-.11l0,.08"/><path class="cls-1" d="M42.48,23.39l-.06,0a8.18,8.18,0,0,1-2-.92c-.33-.2-.64-.45-1-.68l-.11-.06a.3.3,0,0,0,.12.26,4.24,4.24,0,0,0,.57.49,8,8,0,0,0,2.12,1,1.54,1.54,0,0,0,.31.05c0-.05,0-.1,0-.15"/><path class="cls-1" d="M42.47,23.51l-.28,0a7.87,7.87,0,0,1-2.1-1,2.8,2.8,0,0,1-.46-.39l-.12-.1h0a.21.21,0,0,1-.09-.14l.07,0,.31.23c.21.15.42.31.64.44a8.19,8.19,0,0,0,2,.93h0s0-.06,0-.09h0a8.54,8.54,0,0,1-2-.93,6.74,6.74,0,0,1-.64-.45l-.31-.22-.08,0,0,0,0,0v.08a.35.35,0,0,0,.13.29h0l.11.1a3.35,3.35,0,0,0,.47.39,8.13,8.13,0,0,0,2.11,1l.28,0s0-.07,0-.1"/><path class="cls-1" d="M26.17,5s-.44-1.74,1-2.14a2.86,2.86,0,0,1,3.37,1.08c.54,1,2.34,2.25,2.4,2.83s.17.78,0,1S31.77,8,31.77,8a4,4,0,0,1-1.48-.54A3.73,3.73,0,0,0,29.8,7l-.47-1.22s.55-.53.23-.84a7.24,7.24,0,0,0-1.15-.8l-1.33-.56Z"/><path class="cls-1" d="M29.52,5.56a.46.46,0,0,0-.08.13l0,0,.05-.07a.35.35,0,0,1,.05-.08l-.07.06m-2.43-2h0l0,0L27,3.66,27,3.74a.09.09,0,0,1,.06,0l0-.09,0,0h.06l0,0ZM33,7.13c0-.1,0-.23-.05-.39s-.5-.74-1-1.26A7,7,0,0,1,30.54,3.9a2.88,2.88,0,0,0-3.41-1.09c-1.34.38-1,2-1,2.15h0l0,0,0,0h0l.86-1.31h0l0,0h0l1.29.54a7.24,7.24,0,0,1,1.15.8.27.27,0,0,1,.09.21,1.18,1.18,0,0,1-.33.59l0,0,.27.67.08.2v0l.05.14v0l.06.14h0l.21.18,0,0s0,0,0,0,0,0,0,0h0s0,0,0,0a1.83,1.83,0,0,0,.13.16,4.28,4.28,0,0,0,1.5.55s1-.11,1.17-.35.1-.29.05-.59M31.77,8a4.36,4.36,0,0,1-1.46-.53,2.3,2.3,0,0,0-.2-.22s0,0,0,0A2.08,2.08,0,0,0,29.81,7l-.2-.53-.06-.17-.07-.18v0l-.13-.31.09-.1,0,0,.05-.07a.35.35,0,0,1,.05-.08s0,0,0,0a.65.65,0,0,0,.09-.3.37.37,0,0,0-.1-.25,8,8,0,0,0-1.16-.81L27.15,3.6l0,0h-.05l0,0L27,3.66,27,3.74l-.73,1.09,0,0h0a.43.43,0,0,1,0-.05s0,0,0-.06a.11.11,0,0,0,0,0,1.58,1.58,0,0,1,1-1.88,2.81,2.81,0,0,1,3.34,1.07,7.69,7.69,0,0,0,1.39,1.59c.51.49,1,1,1,1.22s0,.3,0,.4c.05.29.07.42,0,.54S31.84,8,31.77,8"/><path class="cls-1" d="M46,30.35c-3.07-.91-3.47-2.57-4.7-5.8a27.34,27.34,0,0,0-2.85-5.79l.36-.29c1.33,1.47,2.24,4,3,5.9,1.18,3.1,1.53,4.65,4.36,5.49Z"/><path class="cls-1" d="M37.05,17.64A11.64,11.64,0,0,0,32.4,16l.07-.5a11.82,11.82,0,0,1,4.84,1.7Z"/><path class="cls-1" d="M45.09,13.26a.81.81,0,0,1-.15.49,8.43,8.43,0,0,1-1.5,1.77,16.51,16.51,0,0,1-2.86,2c-.36.21-.73.42-1.1.61a1.55,1.55,0,0,1-.36.13.5.5,0,0,1-.18,0l.15-.09.7-.37a23.3,23.3,0,0,0,2.93-1.95c.34-.28.67-.57,1-.87a5.59,5.59,0,0,0,1.17-1.6.18.18,0,0,1,.22-.13"/><path class="cls-1" d="M45.05,13.21a.22.22,0,0,0-.22.16A6,6,0,0,1,43.67,15c-.29.28-.59.55-1,.87a24.18,24.18,0,0,1-2.92,1.94,4.45,4.45,0,0,1-.48.26l-.23.12-.07,0-.2.11.14,0a.19.19,0,0,1,.08,0h.15l.35-.13,1.1-.61a16.26,16.26,0,0,0,2.86-2A8.64,8.64,0,0,0,45,13.78a.86.86,0,0,0,.16-.53v0Zm-5.92,5h-.06l0,0,.23-.11.48-.25a23.75,23.75,0,0,0,2.93-2c.39-.33.7-.6,1-.88a5.76,5.76,0,0,0,1.18-1.6c0-.07,0-.11.12-.11a.89.89,0,0,1-.15.42,8.34,8.34,0,0,1-1.48,1.75,16.13,16.13,0,0,1-2.85,2l-1.1.61a1.83,1.83,0,0,1-.33.11"/><path class="cls-1" d="M46.11,12a.57.57,0,0,1,.14.42A7.34,7.34,0,0,1,46,14.5a17.17,17.17,0,0,1-1.29,3c-.18.35-.37.71-.57,1.05a1.6,1.6,0,0,1-.23.3s-.07,0-.16.08l.08-.15c.12-.22.26-.43.37-.66a23.54,23.54,0,0,0,1.38-3A11.7,11.7,0,0,0,45.88,14,4.73,4.73,0,0,0,46,12.24a.18.18,0,0,1,.1-.22"/><path class="cls-1" d="M46.14,12l0,0,0,0a.23.23,0,0,0-.12.28A4.72,4.72,0,0,1,45.83,14a9.43,9.43,0,0,1-.35,1.14,22.56,22.56,0,0,1-1.27,2.79l-.1.19-.25.43a1.59,1.59,0,0,1-.13.22s0,0,0,0,0,0,0,0h0l0,.05,0,.07,0,0,0,.05.08,0,0,0h0l0,0h0l.08,0v0l0,0c.07-.1.16-.19.21-.28l.55-1,0,0a17.09,17.09,0,0,0,1.29-3,6.92,6.92,0,0,0,.3-2.08.65.65,0,0,0-.16-.46M44.6,17.53c-.19.33-.36.66-.56,1a1.5,1.5,0,0,1-.19.25l0,0h0s0,0,0,0,0,0,0,0l.12-.2.25-.44.1-.18a22.89,22.89,0,0,0,1.28-2.81A11,11,0,0,0,45.93,14a4.69,4.69,0,0,0,.12-1.77c0-.06,0-.1.05-.14a.53.53,0,0,1,.1.35,7,7,0,0,1-.3,2.05,17.17,17.17,0,0,1-1.28,3Z"/><path class="cls-1" d="M37.7,16.67a5.07,5.07,0,0,1,.46-.35,24.42,24.42,0,0,0,3-2.49c.47-.45.89-.94,1.34-1.41,0-.05.1-.09.16-.15a.31.31,0,0,1-.09.34,9.86,9.86,0,0,1-.77.94,22.18,22.18,0,0,1-3.13,2.67c-.29.2-.6.35-.9.52l0-.07"/><path class="cls-1" d="M42.69,12.26l0-.08-.06.05-.06.06a.52.52,0,0,0-.11.1c-.15.14-.28.31-.42.46-.3.32-.6.64-.91.94a23,23,0,0,1-3,2.49,3.81,3.81,0,0,0-.32.24l-.14.11,0,0,.11.15,0,0,.29-.16c.2-.11.42-.23.61-.36a22.26,22.26,0,0,0,3.15-2.69,7.25,7.25,0,0,0,.62-.75c.05-.06.11-.12.16-.19h0a.35.35,0,0,0,.09-.37m-.17.32-.16.19a6.15,6.15,0,0,1-.61.74,21.94,21.94,0,0,1-3.13,2.67,5.41,5.41,0,0,1-.61.36l-.2.11.06,0,.31-.24a23.06,23.06,0,0,0,3-2.49c.32-.31.61-.63.91-1l.43-.46.09-.08c0,.08,0,.13-.08.19Z"/><path class="cls-1" d="M38.45,17.16c.61-.39,1.21-.74,1.77-1.14a12.28,12.28,0,0,0,1.63-1.33c.5-.48,1-.94,1.53-1.4l0,0-.08.15a11.21,11.21,0,0,1-1.87,1.9,13.2,13.2,0,0,1-2.25,1.51l-.5.29c-.08,0-.16.11-.28,0"/><path class="cls-1" d="M43.46,13.29l-.05,0,0,0,0,0c-.15.13-.32.27-.47.42-.35.31-.71.64-1.06,1A16,16,0,0,1,40.19,16c-.39.27-.79.53-1.21.78l-.55.35-.06,0,.05,0a.24.24,0,0,0,.17.1.26.26,0,0,0,.14-.06h0l.24-.13a2.2,2.2,0,0,1,.26-.15,14,14,0,0,0,2.27-1.52,10.7,10.7,0,0,0,1.86-1.92.36.36,0,0,0,.07-.1l0-.05,0,0Zm-.16.16a10.2,10.2,0,0,1-1.85,1.89,13.41,13.41,0,0,1-2.25,1.51,2.2,2.2,0,0,0-.26.15l-.24.14h0s-.09,0-.14,0l.49-.3c.43-.27.82-.51,1.22-.8a15,15,0,0,0,1.64-1.33c.35-.34.71-.67,1.06-1l.38-.35,0,0"/><path class="cls-1" d="M37,18.31a1.59,1.59,0,0,1,1.36-1c-.25.16-.5.3-.73.47s-.42.36-.63.54"/><path class="cls-1" d="M38.29,17.3a.57.57,0,0,0-.18,0l.18,0h.06l-.24.14-.24.16.25-.15.24-.15h-.07Zm-1.1.83L37,18.3s0,0,0,0,0,0,0,0v0l.2-.17.43-.37a1.43,1.43,0,0,1,.24-.16,1.4,1.4,0,0,0-.24.15l-.44.37m.31-.49h0a.91.91,0,0,0-.17.17.8.8,0,0,0-.16.16.62.62,0,0,0-.11.17.56.56,0,0,0,0,.12,1,1,0,0,1,.32-.45,1.37,1.37,0,0,1,.17-.17"/><path class="cls-1" d="M38.92,18a1.89,1.89,0,0,1-1.39.73l.73-.37a2.5,2.5,0,0,1,.66-.36"/><path class="cls-1" d="M38.93,18a.7.7,0,0,0-.19.06,1.35,1.35,0,0,0-.26.15,1.28,1.28,0,0,1-.23.14,5.16,5.16,0,0,1-.47.24l-.25.13h0a1.19,1.19,0,0,0,.39-.07,1.36,1.36,0,0,1-.38.06l.22-.12.13-.06a3.84,3.84,0,0,0,.35-.18l.16-.1.07,0,.2-.13.09,0,.14,0a.47.47,0,0,1-.09.12,2,2,0,0,1-.4.32,1.85,1.85,0,0,0,.42-.32.42.42,0,0,0,.08-.12h0Zm-.67.54.09,0a3.42,3.42,0,0,1-.4.17,2,2,0,0,0,.31-.12"/><path class="cls-1" d="M38.32,18.1a1.25,1.25,0,0,1-1,.41,2.33,2.33,0,0,1,1-.41"/><path class="cls-1" d="M38.33,18.09h0a1.2,1.2,0,0,0-.35.08l-.14.06.14-.05a1.2,1.2,0,0,1,.35-.08h0l-.06.07.08-.07h0Zm-.41.31.12-.06-.17.07h.05m-.62.11.12,0a1.21,1.21,0,0,0,.45-.12,1.39,1.39,0,0,1-.46.11H37.3m0,0h0l.21-.14a1.06,1.06,0,0,0-.22.13"/><path class="cls-1" d="M37.21,18.3a1.36,1.36,0,0,1,.73-.42.92.92,0,0,1-.73.42"/><path class="cls-1" d="M38,17.88h0a.4.4,0,0,0-.15,0,1,1,0,0,0-.36.2l-.23.18v0h0a.48.48,0,0,0,.15,0l-.15,0h0a1.36,1.36,0,0,1,.71-.4l-.11.13.13-.13Zm-.3.28.09-.06L37.8,18l0,0,0,0-.14.11"/><path class="cls-1" d="M37.8,17.34l-.41.25c0-.25.12-.31.41-.25"/><path class="cls-1" d="M37.79,17.34a.39.39,0,0,0-.27,0l.11,0,.15,0h0Zm-.37.12a.28.28,0,0,0,0,.13h0l.39-.25-.38.23a.37.37,0,0,1,0-.12"/><path class="cls-1" d="M45.32,7.25a3.2,3.2,0,0,0-.82-.9A6.65,6.65,0,0,0,42.85,6h0a2.18,2.18,0,0,0-1.27.52,2.11,2.11,0,0,0-.36,1.66.17.17,0,0,0,0,.07h0a.13.13,0,0,0,0,.06s0,.07,0,.1a2.11,2.11,0,0,0-.1.92,2.46,2.46,0,0,0,.81,1.8,1.4,1.4,0,0,0,1.91.07l.06,0h0a.45.45,0,0,1,.05.43,3.59,3.59,0,0,0-.12.47c0,.07,0,.13,0,.18l0,.16a.13.13,0,0,1,0,.06v0l.08.06h0l.09-.05a.67.67,0,0,0,.19-.14c.15-.18.33-.18.58-.12s.36,0,.43-.25a6.79,6.79,0,0,0,.2-.83c0-.17.05-.26,0-.31s-.14-.08-.34-.1l-.07-.32c0-.1,0-.19-.07-.29a.14.14,0,0,0,0-.06.06.06,0,0,0,0,0c0-.13-.06-.26-.09-.38v0c-.06-.24-.13-.44.12-.61a.33.33,0,0,0,.07-.13c0-.14.12-.15.26-.17a.4.4,0,0,0,.32-.16s0,0,0-.05,0,0,0,0,0,0,0,0a1.89,1.89,0,0,0-.17-1.14m-.58,3.53a.09.09,0,0,1,0,.07c-.09.2-.19.4-.29.59l-.09.21h0l-.06-.19c0-.19-.11-.38-.16-.58a.29.29,0,0,1,0-.22c.09-.24.19-.48.29-.74l.08-.19,0,.19c.07.31.14.59.2.87m-.81-.26a.92.92,0,0,1-.48.6,1.17,1.17,0,0,1-1.3-.18,1.77,1.77,0,0,1-.43-.48A2.32,2.32,0,0,1,41.62,8l1.2-.49a2,2,0,0,0,.68.21h.12a2.38,2.38,0,0,1,.08.71,2.87,2.87,0,0,0,.07.7l0,0,0,0a.85.85,0,0,0,.27-.47.72.72,0,0,1,.09-.27.24.24,0,0,1,.29-.13c.1,0,.14.12.14.26a.47.47,0,0,1-.2.37.63.63,0,0,0-.25.49v0a9.12,9.12,0,0,1-.22,1M44,12.08c0-.07,0-.12,0-.17l0-.11c.08.15.07.17-.08.28M44.89,11a.14.14,0,0,1,.06-.07s.06,0,.12,0V11a4.65,4.65,0,0,1-.22,1l-.38-.1.15-.29c.09-.22.19-.43.28-.64"/><path class="cls-1" d="M44.59,9.9l-.05-.22a.27.27,0,0,1,0-.12l-.14.33c-.1.26-.2.5-.29.74a.32.32,0,0,0,0,.25c.05.2.11.39.17.58a1.6,1.6,0,0,1,0,.21h.13l.11-.25c.09-.19.19-.39.28-.59a.14.14,0,0,0,0-.11c-.06-.27-.12-.56-.2-.86m.15.95c-.09.2-.19.4-.29.59l-.09.21h0l-.06-.19c0-.19-.11-.38-.16-.58a.29.29,0,0,1,0-.22c.09-.24.19-.48.29-.74l.08-.19,0,.19c.08.31.14.58.2.87a.09.09,0,0,1,0,.07"/><path class="cls-1" d="M42.34,9.36c.06.22,0,.44,0,.68l.33-.07s0,.08-.06.09-.18.18-.34.13-.1-.16-.09-.25,0-.29.06-.43a1,1,0,0,1,.05-.16h.07"/><path class="cls-1" d="M43.22,10.37l-.6.28c.07-.27.27-.34.46-.41s.11,0,.16,0a.24.24,0,0,1,0,.08"/><path class="cls-1" d="M43.25,10.27l0,0a.24.24,0,0,0-.13,0h0a.61.61,0,0,0-.46.41v0l.15-.06.5-.24h0a0,0,0,0,1,0,0s0,0,0,0v0Zm0,.05v0l-.49.23-.05,0a.59.59,0,0,1,.41-.33h0l.08,0,0,0Z"/><path class="cls-1" d="M42.78,8.83h0l-.19,0A.6.6,0,0,1,43,8.45c.09.21-.08.28-.18.38"/><path class="cls-1" d="M41.42,9a.38.38,0,0,1,.45,0,.12.12,0,0,1,0,.1s-.1.08-.12.07A3.28,3.28,0,0,1,41.42,9"/><path class="cls-1" d="M43.1,9.11a.15.15,0,0,1-.13.17.16.16,0,0,1-.17-.15A.16.16,0,0,1,42.94,9a.15.15,0,0,1,.16.15"/><path class="cls-1" d="M41.91,9.44a.16.16,0,0,1-.14.17.16.16,0,0,1-.16-.15.16.16,0,0,1,.14-.17.16.16,0,0,1,.16.15"/><path class="cls-1" d="M46.34,9.47a.92.92,0,1,1-1.82-.26.92.92,0,1,1,1.82.26"/><path class="cls-1" d="M46.18,8.77a.94.94,0,0,0-.62-.36.1.1,0,0,1-.07,0,1,1,0,0,0-.63.2,1,1,0,0,0-.37.62.83.83,0,0,0,0,.35.27.27,0,0,0,0,.12,1.08,1.08,0,0,0,.28.39.91.91,0,0,0,.48.21h.13a.94.94,0,0,0,.75-1.52m-.87,1.46a.85.85,0,0,1-.52-.27.88.88,0,0,1-.25-.74.93.93,0,0,1,.35-.59.9.9,0,0,1,.54-.18h.12a.86.86,0,0,1,.59.34.89.89,0,0,1-.71,1.44h-.12"/><path class="cls-1" d="M21.78,14.37c.2.22-.13.64-.13.64s-.57-.14-5.11-1.19A8.72,8.72,0,0,1,12,11.42a4.46,4.46,0,0,1-.63-.84l-.17-.85h.35a3.38,3.38,0,0,0,.4.82.05.05,0,0,1,0,0c.09.13.21.26.33.41a7.91,7.91,0,0,0,4.38,2.32c1.85.43,3.2.7,4.15.88.39.08,1,.16,1,.17"/><path class="cls-1" d="M36.78,27.83s0,.07.07.07l.87-.07L39,27.71a9.11,9.11,0,0,1-.52-1.91c0-.11-.19.06-.42,0a6,6,0,0,0,.39,1.54,6,6,0,0,0-1.4.26c-.11,0-.28.07-.22.23"/><path class="cls-1" d="M40,27.84a.39.39,0,0,1-.06-.17c0-.07.7-.2,1.09-.54a.34.34,0,0,0,.13-.28c0-.19,0-.39.07-.59s0-.15.1-.14.1,0,.1.08c0,.35,0,.6,0,1,0,.08.06.3,0,.34s-1.36.35-1.38.34"/><path class="cls-1" d="M41.34,27.32a.62.62,0,0,0-.7-.64c-.46,0-1.44,1.14-1.44,1.14l.78,0,.94-.39Z"/><path class="cls-1" d="M39,27.71s-.21-.52-.27-.52a7.3,7.3,0,0,0-1.62.11c-.37.14-1,.51-1,.59a4.52,4.52,0,0,0,1,0L39,27.71"/><path class="cls-1" d="M1.21,42.15a.69.69,0,0,1-.21.56.84.84,0,0,1-.59.19l-.2,0-.17,0v-.46H.3a.5.5,0,0,0,.28-.07.31.31,0,0,0,.1-.25V40.22h.53Z"/><path class="cls-1" d="M3.49,42a1.12,1.12,0,0,1-.06.38,1,1,0,0,1-.2.29.75.75,0,0,1-.28.18.86.86,0,0,1-.36.07.86.86,0,0,1-.36-.07A.75.75,0,0,1,2,42.65a.84.84,0,0,1-.2-.29A1.12,1.12,0,0,1,1.69,42v-1.1h.53V42a.34.34,0,0,0,.11.28.35.35,0,0,0,.26.1A.36.36,0,0,0,3,42V40.88h.53Z"/><path class="cls-1" d="M5,40.84a1.06,1.06,0,0,1,.31,0,.66.66,0,0,1,.23.17.82.82,0,0,1,.15.24,1.14,1.14,0,0,1,0,.33v1.22H5.24V41.7a.41.41,0,0,0-.1-.28.41.41,0,0,0-.54,0,.37.37,0,0,0-.1.28v1.15H4v-2h.49v.18a.72.72,0,0,1,.25-.16A.81.81,0,0,1,5,40.84Z"/><path class="cls-1" d="M7.44,41.33H6.88v.78a.3.3,0,0,0,.09.24.48.48,0,0,0,.27.07H7.5v.45l-.18,0-.19,0a.86.86,0,0,1-.58-.18.7.7,0,0,1-.21-.56v-.83H6v-.45h.31v-.5h.54v.5h.56Z"/><path class="cls-1" d="M8.88,41.83l.73,1H9l-.43-.63-.42.63h-.6l.72-1-.67-.95h.6l.37.56L9,40.88h.6Z"/><path class="cls-1" d="M10.52,40.83a.91.91,0,0,1,.71.3l-.27.33a.85.85,0,0,0-.21-.14.64.64,0,0,0-.23,0,.34.34,0,0,0-.16,0s0,0,0,.1a.11.11,0,0,0,0,.1l.15.08.19.08a1.2,1.2,0,0,1,.41.24.43.43,0,0,1,.15.36.6.6,0,0,1-.06.27.61.61,0,0,1-.17.19.55.55,0,0,1-.24.12,1,1,0,0,1-.3,0,1,1,0,0,1-.47-.11.89.89,0,0,1-.35-.28l.27-.32a1.07,1.07,0,0,0,.26.19.61.61,0,0,0,.3.08.47.47,0,0,0,.17,0,.14.14,0,0,0,.08-.13.11.11,0,0,0-.06-.1l-.15-.08L10.33,42a1.12,1.12,0,0,1-.22-.1.59.59,0,0,1-.17-.13.57.57,0,0,1-.11-.16.66.66,0,0,1,0-.21.53.53,0,0,1,0-.25A.65.65,0,0,1,10,41a.84.84,0,0,1,.23-.12A1.35,1.35,0,0,1,10.52,40.83Z"/><path class="cls-1" d="M13.34,40.83a.91.91,0,0,1,.71.3l-.27.33a.85.85,0,0,0-.21-.14.68.68,0,0,0-.23,0,.34.34,0,0,0-.16,0,.1.1,0,0,0-.06.1.14.14,0,0,0,.05.1l.16.08.19.08a1.2,1.2,0,0,1,.41.24.43.43,0,0,1,.14.36.59.59,0,0,1-.05.27.61.61,0,0,1-.17.19.55.55,0,0,1-.24.12,1,1,0,0,1-.3,0,1.06,1.06,0,0,1-.48-.11.93.93,0,0,1-.34-.28l.27-.32a.91.91,0,0,0,.26.19.61.61,0,0,0,.3.08.47.47,0,0,0,.17,0,.14.14,0,0,0,.08-.13.11.11,0,0,0-.06-.1l-.15-.08L13.15,42a1.12,1.12,0,0,1-.22-.1.59.59,0,0,1-.17-.13.57.57,0,0,1-.11-.16.66.66,0,0,1,0-.21.53.53,0,0,1,.05-.25.52.52,0,0,1,.15-.18.84.84,0,0,1,.23-.12A1.35,1.35,0,0,1,13.34,40.83Z"/><path class="cls-1" d="M15.37,40.84a.94.94,0,0,1,.41.08,1.08,1.08,0,0,1,.34.21,1.14,1.14,0,0,1,.23.33,1.06,1.06,0,0,1,.08.4,1.11,1.11,0,0,1-.08.41,1.3,1.3,0,0,1-.23.33,1.08,1.08,0,0,1-.34.21,1.09,1.09,0,0,1-.82,0,1.08,1.08,0,0,1-.34-.21,1.06,1.06,0,0,1-.22-.33.94.94,0,0,1-.08-.41.9.9,0,0,1,.08-.4,1,1,0,0,1,.22-.33,1.08,1.08,0,0,1,.34-.21A.91.91,0,0,1,15.37,40.84Zm0,.48a.51.51,0,0,0-.37.16.56.56,0,0,0-.14.39.56.56,0,0,0,.14.38.5.5,0,0,0,.37.15.45.45,0,0,0,.2,0,.46.46,0,0,0,.16-.11.62.62,0,0,0,.11-.17.52.52,0,0,0,0-.21.54.54,0,0,0,0-.22.5.5,0,0,0-.11-.17.36.36,0,0,0-.16-.11A.46.46,0,0,0,15.37,41.32Z"/><path class="cls-1" d="M19.09,40.84a1,1,0,0,1,.31,0,.66.66,0,0,1,.23.17.55.55,0,0,1,.15.24,1.14,1.14,0,0,1,0,.33v1.22h-.54V41.7a.41.41,0,0,0-.09-.28.39.39,0,0,0-.52,0,.36.36,0,0,0-.1.27v1.16H18V41.7a.41.41,0,0,0-.09-.28.34.34,0,0,0-.26-.1.33.33,0,0,0-.26.1.37.37,0,0,0-.1.28v1.15h-.54v-2h.5v.18a.61.61,0,0,1,.24-.17,1,1,0,0,1,.31,0,.75.75,0,0,1,.35.07.58.58,0,0,1,.23.21,1,1,0,0,1,.29-.21A.89.89,0,0,1,19.09,40.84Z"/><path class="cls-1" d="M21.23,40.84a.94.94,0,0,1,.41.08,1.08,1.08,0,0,1,.34.21,1.14,1.14,0,0,1,.23.33,1.06,1.06,0,0,1,.08.4,1.11,1.11,0,0,1-.08.41,1.3,1.3,0,0,1-.23.33,1.08,1.08,0,0,1-.34.21.94.94,0,0,1-.41.08,1,1,0,0,1-.41-.08,1.08,1.08,0,0,1-.34-.21,1.06,1.06,0,0,1-.22-.33,1.11,1.11,0,0,1-.08-.41,1.06,1.06,0,0,1,.08-.4,1,1,0,0,1,.22-.33,1.08,1.08,0,0,1,.34-.21A.94.94,0,0,1,21.23,40.84Zm0,.48a.51.51,0,0,0-.37.16.56.56,0,0,0-.14.39.56.56,0,0,0,.14.38.5.5,0,0,0,.37.15.45.45,0,0,0,.2,0,.38.38,0,0,0,.16-.11.62.62,0,0,0,.11-.17.52.52,0,0,0,0-.21.54.54,0,0,0,0-.22.5.5,0,0,0-.11-.17.31.31,0,0,0-.16-.11A.46.46,0,0,0,21.23,41.32Z"/><path class="cls-1" d="M23.32,40.83a.9.9,0,0,1,.71.3l-.27.33a.66.66,0,0,0-.44-.19.33.33,0,0,0-.15,0,.1.1,0,0,0-.06.1.14.14,0,0,0,.05.1.76.76,0,0,0,.16.08l.19.08a1.43,1.43,0,0,1,.41.24.46.46,0,0,1,.14.36.6.6,0,0,1-.06.27.58.58,0,0,1-.16.19.53.53,0,0,1-.25.12.94.94,0,0,1-.3,0,1,1,0,0,1-.47-.11.86.86,0,0,1-.34-.28l.27-.32a.91.91,0,0,0,.26.19.57.57,0,0,0,.29.08.48.48,0,0,0,.18,0,.14.14,0,0,0,.07-.13.11.11,0,0,0-.06-.1.58.58,0,0,0-.14-.08L23.14,42l-.23-.1a.76.76,0,0,1-.17-.13.54.54,0,0,1-.1-.16.46.46,0,0,1,0-.21.7.7,0,0,1,0-.25A.65.65,0,0,1,22.8,41a.9.9,0,0,1,.24-.12A1.18,1.18,0,0,1,23.32,40.83Z"/><path class="cls-1" d="M27.76,40.84a1,1,0,0,1,.32,0,.66.66,0,0,1,.23.17.55.55,0,0,1,.15.24,1.14,1.14,0,0,1,.05.33v1.22H28V41.7a.41.41,0,0,0-.09-.28.39.39,0,0,0-.52,0,.36.36,0,0,0-.1.27v1.16h-.54V41.7a.41.41,0,0,0-.09-.28.34.34,0,0,0-.26-.1.33.33,0,0,0-.26.1.37.37,0,0,0-.1.28v1.15h-.54v-2H26v.18a.61.61,0,0,1,.24-.17,1,1,0,0,1,.31,0,.75.75,0,0,1,.35.07.66.66,0,0,1,.23.21,1,1,0,0,1,.29-.21A.87.87,0,0,1,27.76,40.84Z"/><path class="cls-1" d="M29.78,40.84a.93.93,0,0,1,.34,0,.92.92,0,0,1,.27.16.78.78,0,0,1,.17.26,1.06,1.06,0,0,1,.06.37v1.17h-.49v-.19a.69.69,0,0,1-.26.17.74.74,0,0,1-.34.07.84.84,0,0,1-.29,0,.61.61,0,0,1-.21-.12.52.52,0,0,1-.14-.19.59.59,0,0,1,0-.23.48.48,0,0,1,.2-.42.81.81,0,0,1,.54-.15h.5v-.09a.36.36,0,0,0-.09-.26.41.41,0,0,0-.28-.09.51.51,0,0,0-.28.07,1.41,1.41,0,0,0-.24.2l-.28-.33A1.06,1.06,0,0,1,29.78,40.84Zm-.11,1.66a.45.45,0,0,0,.3-.1.38.38,0,0,0,.12-.29v0h-.42c-.19,0-.28.07-.28.2a.19.19,0,0,0,.08.16A.39.39,0,0,0,29.67,42.5Zm.85-2.66-.54.74h-.39l.28-.83h.65Z"/><path class="cls-1" d="M31.75,40.83a.91.91,0,0,1,.71.3l-.27.33a.66.66,0,0,0-.44-.19.27.27,0,0,0-.15,0,.1.1,0,0,0-.06.1.11.11,0,0,0,.05.1l.15.08.2.08a1.43,1.43,0,0,1,.41.24.46.46,0,0,1,.14.36.6.6,0,0,1-.06.27.74.74,0,0,1-.16.19.53.53,0,0,1-.25.12.94.94,0,0,1-.3,0,1,1,0,0,1-.47-.11.86.86,0,0,1-.34-.28l.27-.32a.87.87,0,0,0,.25.19.61.61,0,0,0,.3.08.48.48,0,0,0,.18,0,.16.16,0,0,0,.07-.13.11.11,0,0,0-.06-.1.58.58,0,0,0-.14-.08L31.57,42l-.23-.1a.76.76,0,0,1-.17-.13.54.54,0,0,1-.1-.16.46.46,0,0,1,0-.21.7.7,0,0,1,0-.25.65.65,0,0,1,.15-.18,1,1,0,0,1,.23-.12A1.35,1.35,0,0,1,31.75,40.83Z"/><path class="cls-1" d="M35,41.33h-.44v1.52H34V41.33h-.28v-.45H34v-.32a.7.7,0,0,1,.2-.56.81.81,0,0,1,.55-.18h.17l.13,0v.45h-.16a.41.41,0,0,0-.27.07.27.27,0,0,0-.09.24v.27H35Z"/><path class="cls-1" d="M37,42a.92.92,0,0,1-.07.38.81.81,0,0,1-.19.29.79.79,0,0,1-.29.18.81.81,0,0,1-.35.07.86.86,0,0,1-.36-.07.79.79,0,0,1-.29-.18,1,1,0,0,1-.19-.29,1.12,1.12,0,0,1-.07-.38v-1.1h.53V42a.38.38,0,0,0,.11.28.36.36,0,0,0,.27.1.35.35,0,0,0,.26-.1.38.38,0,0,0,.11-.28V40.88H37Z"/><path class="cls-1" d="M38.39,40.84a1,1,0,0,1,.38.07.85.85,0,0,1,.48.48,1,1,0,0,1,.06.36.81.81,0,0,1,0,.16,1.05,1.05,0,0,0,0,.13H37.89a.54.54,0,0,0,.2.3.69.69,0,0,0,.36.1.65.65,0,0,0,.29-.06.94.94,0,0,0,.26-.14l.22.36a1.13,1.13,0,0,1-.36.22,1.16,1.16,0,0,1-.42.08,1.27,1.27,0,0,1-.44-.08,1.33,1.33,0,0,1-.34-.22,1.06,1.06,0,0,1-.22-.33.9.9,0,0,1-.08-.4,1.07,1.07,0,0,1,.07-.41,1.46,1.46,0,0,1,.22-.33,1.15,1.15,0,0,1,.33-.21A.94.94,0,0,1,38.39,40.84Zm0,.43a.49.49,0,0,0-.3.1.54.54,0,0,0-.18.3h.9a.35.35,0,0,0-.13-.3A.43.43,0,0,0,38.37,41.27Z"/><path class="cls-1" d="M40.71,40.86a.44.44,0,0,1,.17,0v.47h-.14a.55.55,0,0,0-.38.13.47.47,0,0,0-.15.39v1h-.53v-2h.49v.23a.88.88,0,0,1,.24-.19A.73.73,0,0,1,40.71,40.86Z"/><path class="cls-1" d="M42.37,41.33h-.56v.78a.3.3,0,0,0,.09.24.5.5,0,0,0,.28.07h.25v.45l-.17,0-.2,0a.85.85,0,0,1-.57-.18.7.7,0,0,1-.21-.56v-.83H41v-.45h.31v-.5h.53v.5h.56Z"/><path class="cls-1" d="M43.65,40.84a1,1,0,0,1,.38.07.85.85,0,0,1,.48.48,1,1,0,0,1,.06.36.81.81,0,0,1,0,.16,1.05,1.05,0,0,0,0,.13H43.15a.54.54,0,0,0,.2.3.69.69,0,0,0,.36.1.73.73,0,0,0,.3-.06,1,1,0,0,0,.25-.14l.22.36a1.13,1.13,0,0,1-.36.22,1.16,1.16,0,0,1-.42.08,1.27,1.27,0,0,1-.44-.08,1.33,1.33,0,0,1-.34-.22,1.06,1.06,0,0,1-.22-.33.9.9,0,0,1-.08-.4,1.07,1.07,0,0,1,.07-.41,1.46,1.46,0,0,1,.22-.33,1.15,1.15,0,0,1,.33-.21A.94.94,0,0,1,43.65,40.84Zm0,.43a.49.49,0,0,0-.3.1.54.54,0,0,0-.18.3h.9a.35.35,0,0,0-.13-.3A.43.43,0,0,0,43.63,41.27Z"/><path class="cls-1" d="M45.61,40.83a.89.89,0,0,1,.7.3l-.27.33a.66.66,0,0,0-.44-.19.33.33,0,0,0-.15,0,.1.1,0,0,0-.06.1.14.14,0,0,0,0,.1l.16.08.19.08a1.3,1.3,0,0,1,.41.24.46.46,0,0,1,.14.36.6.6,0,0,1-.06.27.58.58,0,0,1-.16.19.53.53,0,0,1-.25.12.94.94,0,0,1-.3,0,1,1,0,0,1-.47-.11.93.93,0,0,1-.34-.28l.27-.32a.91.91,0,0,0,.26.19.6.6,0,0,0,.29.08.48.48,0,0,0,.18,0,.14.14,0,0,0,.07-.13.12.12,0,0,0,0-.1l-.15-.08L45.42,42l-.23-.1a.7.7,0,0,1-.16-.13.57.57,0,0,1-.11-.16.46.46,0,0,1,0-.21.54.54,0,0,1,.06-.25.43.43,0,0,1,.15-.18.71.71,0,0,1,.23-.12A1.27,1.27,0,0,1,45.61,40.83Z"/><path class="cls-1" d="M2.54,46.9h.65v3.17H2.46V48.43L1.6,49.9.73,48.43v1.64H0V46.9H.65l1,1.81Z"/><path class="cls-1" d="M4.59,49.37H6v.7H3.85V46.91H6v.69H4.59v.59h1v.69h-1Zm-.16-2.79L5,45.84H5.8l-.75.74Z"/><path class="cls-1" d="M8.38,48.49l1,1.58H8.52L7.85,49l-.67,1.12H6.32l1-1.58-1-1.59h.85L7.85,48l.67-1.14h.85Z"/><path class="cls-1" d="M9.76,46.9h.74v3.17H9.76Z"/><path class="cls-1" d="M13.69,49.73a1.23,1.23,0,0,1-.54.3,2.3,2.3,0,0,1-.62.07,1.48,1.48,0,0,1-1.12-.49A1.57,1.57,0,0,1,11,48.48a1.63,1.63,0,0,1,.46-1.15,1.56,1.56,0,0,1,1.12-.47,1.53,1.53,0,0,1,1.12.41l-.27.58a1.12,1.12,0,0,0-.19-.16,1.2,1.2,0,0,0-.66-.13.9.9,0,0,0-.59.29.88.88,0,0,0-.24.63.91.91,0,0,0,.23.63.89.89,0,0,0,.6.28,1.29,1.29,0,0,0,.67-.11.66.66,0,0,0,.21-.15Z"/><path class="cls-1" d="M16.53,47.34a1.61,1.61,0,0,1,0,2.28,1.55,1.55,0,0,1-2.24,0,1.56,1.56,0,0,1-.48-1.14,1.6,1.6,0,0,1,.46-1.14,1.56,1.56,0,0,1,2.25,0Zm-.5.51a.84.84,0,0,0-1.23,0,.91.91,0,0,0,0,1.27.84.84,0,0,0,1.23,0,.93.93,0,0,0,0-1.27Z"/></g></g></svg>