<svg xmlns="http://www.w3.org/2000/svg" viewBox="0 0 512 335.45"><defs><style>.cls-1{fill:#c8414b;}.cls-2{fill:#ffd250;}.cls-3{fill:#f5f5f5;}.cls-4{fill:#fab446;}.cls-5{fill:#ffb441;}.cls-6{fill:#5064aa;}.cls-7{fill:#ffa0d2;}</style></defs><g id="Layer_2" data-name="Layer 2"><g id="Layer_1-2" data-name="Layer 1"><path class="cls-1" d="M8.83,335.45H503.17a8.83,8.83,0,0,0,8.83-8.83V8.83A8.83,8.83,0,0,0,503.17,0H8.83A8.83,8.83,0,0,0,0,8.83V326.62A8.83,8.83,0,0,0,8.83,335.45Z"/><rect class="cls-2" y="70.63" width="512" height="194.21"/><path class="cls-1" d="M216.28,167.73,223.76,134a5,5,0,0,0-4.85-6h-5.27a5,5,0,0,0-4.85,6Z"/><rect class="cls-3" x="207.45" y="150.07" width="17.65" height="75.03"/><rect class="cls-4" x="203.03" y="141.25" width="26.48" height="8.83"/><rect class="cls-1" x="185.38" y="167.73" width="44.14" height="8.83"/><polygon class="cls-1" points="229.52 203.03 203.03 194.21 203.03 185.38 229.52 194.21 229.52 203.03"/><path class="cls-1" d="M83.86,167.73,91.35,134a5,5,0,0,0-4.85-6H81.23a5,5,0,0,0-4.85,6Z"/><path class="cls-3" d="M114.76,141.24a8.83,8.83,0,0,0-8.83,8.83v57.38c0,10.72,10,30.9,44.14,30.9s44.14-20.17,44.14-30.9V150.07a8.84,8.84,0,0,0-8.83-8.83Z"/><path class="cls-1" d="M150.07,185.38H105.93V150.07a8.83,8.83,0,0,1,8.83-8.83h35.31Z"/><path class="cls-1" d="M150.07,185.38h44.14v22.07a22.07,22.07,0,0,1-22.07,22.07h0a22.07,22.07,0,0,1-22.07-22.07Z"/><path class="cls-4" d="M105.93,185.38h44.14v22.07A22.07,22.07,0,0,1,128,229.52h0a22.07,22.07,0,0,1-22.07-22.07Z"/><path class="cls-1" d="M141.24,225V185.38h-8.83v43.69A21.84,21.84,0,0,0,141.24,225Z"/><path class="cls-1" d="M123.59,229.07V185.38h-8.83V225A21.84,21.84,0,0,0,123.59,229.07Z"/><rect class="cls-5" x="114.76" y="167.73" width="26.48" height="8.83"/><rect class="cls-4" x="114.76" y="150.07" width="26.48" height="8.83"/><rect class="cls-4" x="119.17" y="155.32" width="17.65" height="15.99"/><rect class="cls-3" x="75.03" y="150.07" width="17.65" height="75.03"/><rect class="cls-4" x="70.62" y="220.7" width="26.48" height="8.83"/><rect class="cls-4" x="70.62" y="141.25" width="26.48" height="8.83"/><rect class="cls-6" x="66.21" y="229.51" width="35.31" height="8.83"/><rect class="cls-4" x="207.45" y="220.7" width="26.48" height="8.83"/><rect class="cls-6" x="198.62" y="229.51" width="35.31" height="8.83"/><rect class="cls-4" x="123.59" y="132.42" width="52.97" height="8.83"/><rect class="cls-5" x="145.66" y="105.94" width="8.83" height="26.48"/><path class="cls-3" d="M141.24,119.17a13.24,13.24,0,1,1,13.24-13.24A13.26,13.26,0,0,1,141.24,119.17Zm0-17.65a4.42,4.42,0,1,0,4.41,4.41A4.42,4.42,0,0,0,141.24,101.52Z"/><path class="cls-3" d="M158.9,119.17a13.24,13.24,0,1,1,13.24-13.24A13.26,13.26,0,0,1,158.9,119.17Zm0-17.65a4.42,4.42,0,1,0,4.41,4.41A4.42,4.42,0,0,0,158.9,101.52Z"/><path class="cls-3" d="M176.55,128a13.24,13.24,0,1,1,13.24-13.24A13.26,13.26,0,0,1,176.55,128Zm0-17.65a4.41,4.41,0,1,0,4.42,4.41A4.41,4.41,0,0,0,176.55,110.35Z"/><path class="cls-3" d="M123.59,128a13.24,13.24,0,1,1,13.24-13.24A13.25,13.25,0,0,1,123.59,128Zm0-17.65a4.41,4.41,0,1,0,4.41,4.41A4.41,4.41,0,0,0,123.59,110.35Z"/><path class="cls-4" d="M176.55,203v4.41a4.42,4.42,0,0,1-8.83,0V203h8.83m8.83-8.83H158.9v13.24a13.24,13.24,0,0,0,26.48,0V194.21Z"/><path class="cls-7" d="M172.14,176.55h0a8.82,8.82,0,0,1-8.83-8.82V158.9a8.83,8.83,0,0,1,8.83-8.83h0A8.83,8.83,0,0,1,181,158.9v8.83A8.83,8.83,0,0,1,172.14,176.55Z"/><circle class="cls-6" cx="150.07" cy="185.38" r="13.24"/><rect class="cls-4" x="145.66" y="88.28" width="8.83" height="26.48"/><path class="cls-1" d="M123.59,132.42l-8.83-8.83,5.17-5.17a42.59,42.59,0,0,1,30.14-12.49h0a42.62,42.62,0,0,1,30.14,12.49l5.17,5.17-8.83,8.83Z"/><circle class="cls-2" cx="150.07" cy="123.58" r="4.41"/><circle class="cls-2" cx="132.41" cy="123.58" r="4.41"/><circle class="cls-2" cx="167.72" cy="123.58" r="4.41"/><rect class="cls-1" x="70.62" y="167.73" width="44.14" height="8.83"/><polygon class="cls-1" points="70.62 203.03 97.1 194.21 97.1 185.38 70.62 194.21 70.62 203.03"/></g></g></svg>