<svg xmlns="http://www.w3.org/2000/svg" viewBox="0 0 512 335.45"><defs><style>.cls-1{fill:#ff4b55;}.cls-2{fill:#ffe15a;}.cls-3{fill:#41479b;}.cls-4{fill:#5a4646;}.cls-5{fill:#e6e1cd;}.cls-6{fill:#ffd0af;}.cls-7{fill:#ffaf94;}.cls-8{fill:#8cb400;}.cls-9{fill:#69c3ff;}.cls-10{fill:#009b64;}.cls-11{fill:#f5f5f5;}.cls-12{fill:#5aa0e6;}.cls-13{fill:#ffc88c;}.cls-14{fill:#e1e1e1;}.cls-15{fill:#966446;}.cls-16{fill:#be915a;}.cls-17{fill:#b9b9b9;}</style></defs><g id="Layer_2" data-name="Layer 2"><g id="Layer_1-2" data-name="Layer 1"><path class="cls-1" d="M512,251.59H0v75a8.83,8.83,0,0,0,8.83,8.83H503.17a8.83,8.83,0,0,0,8.83-8.83v-75Z"/><path class="cls-2" d="M512,167.73H0V8.83A8.83,8.83,0,0,1,8.83,0H503.17A8.83,8.83,0,0,1,512,8.83v158.9Z"/><rect class="cls-3" y="167.73" width="512" height="83.86"/><path class="cls-2" d="M246.79,172.68l64.48-55.27v80a24.41,24.41,0,0,1-24.41,24.41h0a24.43,24.43,0,0,1-16.33-6.27l-23.74-21.37V172.68Z"/><path class="cls-1" d="M280.8,204.13l-18.66-16.8V159.52l33.78-29V197.4a9.06,9.06,0,0,1-15.12,6.73Z"/><path class="cls-3" d="M271.35,151.63v31.61L286.7,197.1V138.47l9.22-7.9V197.4a9.06,9.06,0,0,1-15.12,6.73l-18.66-16.79V159.52Z"/><path class="cls-2" d="M265.21,172.68l-64.48-55.27v80a24.41,24.41,0,0,0,24.41,24.41h0a24.43,24.43,0,0,0,16.33-6.27l23.74-21.37Z"/><path class="cls-1" d="M231.2,204.13l18.66-16.8V159.52l-33.78-29V197.4a9.06,9.06,0,0,0,15.12,6.73Z"/><path class="cls-3" d="M240.65,151.63v31.61L225.3,197.1V138.47l-9.22-7.9V197.4a9.06,9.06,0,0,0,15.12,6.73l18.66-16.79V159.52Z"/><rect class="cls-3" x="309.04" y="117.69" width="4.41" height="26.45"/><rect class="cls-3" x="198.51" y="117.69" width="4.41" height="26.45"/><path class="cls-4" d="M246.79,105.13S252.93,76,231.44,79.8s-21.5,10-46.06,22.26c0,0,27.63,6.14,39.91,3.07,0,0,9.22,12.28,18.43,15.35h9.21Z"/><path class="cls-4" d="M265.21,105.13S259.07,76,280.56,79.8s21.5,10,46.06,22.26c0,0-27.63,6.14-39.91,3.07,0,0-9.22,12.28-18.43,15.35h-9.21Z"/><path class="cls-4" d="M265.21,120.48H246.79V105a9.09,9.09,0,0,1,9.1-9.1h.22a9.09,9.09,0,0,1,9.1,9.09v15.47Z"/><circle class="cls-5" cx="256" cy="105.13" r="6.14" transform="translate(111.23 340.98) rotate(-80.78)"/><path class="cls-6" d="M242.82,101.16l11.55,6.17a2.49,2.49,0,0,0,2.94-.44h0a2.49,2.49,0,0,0,0-3.52l-7.45-7.45h-1.79a5.25,5.25,0,0,0-5.25,5.24Z"/><path class="cls-7" d="M246.83,102.06h-9.25l4-4.74a4,4,0,0,1,3-1.4h5.19V99A3,3,0,0,1,246.83,102.06Z"/><path class="cls-8" d="M282.19,120.49a8.65,8.65,0,0,1-1.51-8.54,8.65,8.65,0,0,1,8.16,2.93,8.55,8.55,0,0,1,1.79,7.27c.61,1,1.36,2.38,2.19,4,0-.23,0-.45.09-.68a7.17,7.17,0,0,1,5.14-5,7.16,7.16,0,0,1,1.76,6.92,7.06,7.06,0,0,1-4.18,4.58c.77,1.77,1.53,3.68,2.24,5.69.05-.11.05-.23.1-.35a7.12,7.12,0,0,1,5.65-4.36,7.15,7.15,0,0,1,1,7.07,7.07,7.07,0,0,1-4.76,4.12,53.84,53.84,0,0,1,1.77,13.18h-3.07A49.67,49.67,0,0,0,297,145.72a7,7,0,0,1-9.2-6.86,7.07,7.07,0,0,1,7.07.17c.08.05.13.12.21.17-.66-1.89-1.36-3.68-2.08-5.37a7,7,0,0,1-6,.08,7.07,7.07,0,0,1-4-5.82,7.06,7.06,0,0,1,7-.62c-.85-1.62-1.61-3-2.21-4A8.6,8.6,0,0,1,282.19,120.49Z"/><path class="cls-8" d="M229.81,120.49a8.65,8.65,0,0,0,1.51-8.54,8.65,8.65,0,0,0-8.16,2.93,8.55,8.55,0,0,0-1.79,7.27c-.61,1-1.36,2.38-2.19,4,0-.23,0-.45-.09-.68a7.17,7.17,0,0,0-5.14-5,7.16,7.16,0,0,0-1.76,6.92,7.06,7.06,0,0,0,4.18,4.58c-.77,1.77-1.53,3.68-2.24,5.69,0-.11,0-.23-.1-.35a7.12,7.12,0,0,0-5.65-4.36,7.15,7.15,0,0,0-1,7.07,7.07,7.07,0,0,0,4.76,4.12,53.84,53.84,0,0,0-1.77,13.18h3.07A49.67,49.67,0,0,1,215,145.72a7,7,0,0,0,5.84-.64,7.08,7.08,0,0,0,3.37-6.22,7.09,7.09,0,0,0-7.08.17c-.08.05-.13.12-.21.17.66-1.89,1.36-3.68,2.08-5.37a7,7,0,0,0,6,.08,7.1,7.1,0,0,0,4-5.82,7.08,7.08,0,0,0-7-.62c.85-1.62,1.61-3,2.21-4A8.6,8.6,0,0,0,229.81,120.49Z"/><path class="cls-2" d="M256,188l-64.48-55.27v80a24.41,24.41,0,0,0,24.41,24.41h0a24.4,24.4,0,0,0,16.33-6.27L256,209.53Z"/><path class="cls-1" d="M222,219.48l18.66-16.79V174.87l-33.78-29v66.83A9.06,9.06,0,0,0,222,219.48Z"/><path class="cls-3" d="M231.44,167v31.61l-15.36,13.87V153.82l-9.21-7.9v66.83A9.06,9.06,0,0,0,222,219.48l18.66-16.79V174.87Z"/><path class="cls-2" d="M256,188l64.48-55.27v80a24.41,24.41,0,0,1-24.41,24.41h0a24.4,24.4,0,0,1-16.33-6.27L256,209.53Z"/><path class="cls-1" d="M290,219.48l-18.66-16.79V174.87l33.78-29v66.83A9.06,9.06,0,0,1,290,219.48Z"/><path class="cls-3" d="M280.56,167v31.61l15.36,13.87V153.82l9.21-7.9v66.83A9.06,9.06,0,0,1,290,219.48l-18.66-16.79V174.87Z"/><ellipse class="cls-9" cx="256" cy="166.54" rx="30.7" ry="46.06"/><path class="cls-10" d="M228.37,178.82h55.26l3.08-12.28-14,2.33a9.61,9.61,0,0,1-7.84-2.18L249,153.07a7.87,7.87,0,0,0-5.1-1.88h0a7.84,7.84,0,0,0-5.54,2.29l-10,10v15.35Z"/><path class="cls-11" d="M253.09,164.48l5.27-3.37-9.37-8a7.82,7.82,0,0,0-5.1-1.88h0a7.82,7.82,0,0,0-5.54,2.29l-10,10v3.07l15.36-3.07,2.71,1.35A6.76,6.76,0,0,0,253.09,164.48Z"/><polygon class="cls-12" points="228.37 178.82 231.44 197.24 246.79 212.59 256 212.59 268.28 209.53 280.56 197.24 283.63 178.82 228.37 178.82"/><path class="cls-13" d="M256,215.67c-18.62,0-33.77-22-33.77-49.13s15.15-49.13,33.77-49.13,33.77,22,33.77,49.13S274.62,215.67,256,215.67Zm0-92.12c-15.24,0-27.63,19.29-27.63,43s12.39,43,27.63,43,27.63-19.29,27.63-43S271.24,123.55,256,123.55Z"/><path class="cls-14" d="M234.34,212.32a12.77,12.77,0,0,0-21.49,0,14.82,14.82,0,0,1,9.68,9.48,18.17,18.17,0,0,1,1.06,6.15C223.59,220.35,228.18,214,234.34,212.32Z"/><path class="cls-14" d="M226,222s-.24,4.09-2.34,6l-.09-.07c-2.09-1.92-2.34-6-2.34-6Z"/><path class="cls-15" d="M294.4,223.34H217.6a1.52,1.52,0,0,1-1.52-1.51v0a1.52,1.52,0,0,1,1.52-1.52h76.8a1.52,1.52,0,0,1,1.52,1.52v0A1.52,1.52,0,0,1,294.4,223.34Z"/><path class="cls-16" d="M271.43,228H240.57a6.06,6.06,0,0,1-6.06-6.07v-.15a6.06,6.06,0,0,1,6.06-6.07h30.86a6.06,6.06,0,0,1,6.06,6.07v.15A6.06,6.06,0,0,1,271.43,228Z"/><path class="cls-17" d="M228.37,220.27H217.62a1.54,1.54,0,1,0,0,3.07h10.75Z"/><polygon class="cls-1" points="256 227.95 256 256 243.72 252.51 249.86 227.95 256 227.95"/><polygon class="cls-3" points="252.93 227.95 246.79 249.44 234.51 246.37 243.72 227.95 252.93 227.95"/><polygon class="cls-2" points="240.65 227.95 231.44 240.23 240.65 243.3 246.79 227.95 240.65 227.95"/><polygon class="cls-1" points="256 227.95 256 256 268.28 252.51 262.14 227.95 256 227.95"/><polygon class="cls-3" points="259.07 227.95 265.21 249.44 277.49 246.37 268.28 227.95 259.07 227.95"/><polygon class="cls-2" points="271.35 227.95 280.56 240.23 271.35 243.3 265.21 227.95 271.35 227.95"/><polygon class="cls-3" points="193.73 159.21 189.31 154.76 189.31 132.76 193.73 132.76 193.73 159.21"/><polygon class="cls-3" points="322.65 154.76 318.23 159.21 318.23 132.76 322.65 132.76 322.65 154.76"/></g></g></svg>