<svg xmlns="http://www.w3.org/2000/svg" viewBox="0 0 512 335.45"><defs><style>.cls-1{fill:#73af00;}.cls-2{fill:#ffe15a;}.cls-3{fill:#41479b;}.cls-4{fill:#f5f5f5;}</style></defs><g id="Layer_2" data-name="Layer 2"><g id="Layer_1-2" data-name="Layer 1"><path class="cls-1" d="M503.17,335.45H8.83A8.83,8.83,0,0,1,0,326.62V8.83A8.83,8.83,0,0,1,8.83,0H503.17A8.83,8.83,0,0,1,512,8.83V326.62A8.83,8.83,0,0,1,503.17,335.45Z"/><path class="cls-2" d="M251.41,46.93,65.35,160.18a8.84,8.84,0,0,0,0,15.09L251.41,288.52a8.85,8.85,0,0,0,9.18,0L446.65,175.27a8.83,8.83,0,0,0,0-15.08L260.59,46.93A8.85,8.85,0,0,0,251.41,46.93Z"/><circle class="cls-3" cx="256" cy="167.73" r="70.62"/><path class="cls-4" d="M195.4,131.6a70.26,70.26,0,0,0-7.6,18.07c39.15-2.94,97.06,8,133.92,43.78a70.52,70.52,0,0,0,4.59-19.52C288.25,141.89,235.63,130.5,195.4,131.6Z"/><path class="cls-4" d="M258.92,191.82l1.88,5.64,5.95,0a.8.8,0,0,1,.47,1.44l-4.78,3.53,1.79,5.67A.8.8,0,0,1,263,209l-4.83-3.45L253.33,209a.8.8,0,0,1-1.23-.89l1.79-5.67L249.11,199a.8.8,0,0,1,.47-1.44l5.95,0,1.88-5.64A.79.79,0,0,1,258.92,191.82Z"/><path class="cls-4" d="M282,206.41l.81,2.42,2.56,0a.35.35,0,0,1,.2.63L283.53,211l.78,2.44a.34.34,0,0,1-.53.38l-2.08-1.49-2.09,1.49a.34.34,0,0,1-.52-.38l.77-2.44-2.06-1.52a.35.35,0,0,1,.2-.63l2.56,0,.81-2.42A.34.34,0,0,1,282,206.41Z"/><path class="cls-4" d="M248.94,181.11l.81,2.43,2.56,0a.34.34,0,0,1,.2.62l-2.06,1.52.77,2.44a.34.34,0,0,1-.53.38L248.61,187l-2.08,1.48a.34.34,0,0,1-.53-.38l.77-2.44-2.06-1.52a.34.34,0,0,1,.2-.62l2.56,0,.81-2.43A.35.35,0,0,1,248.94,181.11Z"/><path class="cls-4" d="M204.13,178.17l.81,2.43,2.56,0a.34.34,0,0,1,.2.62l-2.06,1.52.77,2.44a.34.34,0,0,1-.53.38l-2.08-1.48-2.08,1.48a.34.34,0,0,1-.53-.38l.77-2.44-2.06-1.52a.35.35,0,0,1,.21-.62l2.55,0,.81-2.43A.35.35,0,0,1,204.13,178.17Z"/><path class="cls-4" d="M241.61,205.57l.81,2.43,2.56,0a.34.34,0,0,1,.2.62l-2.06,1.52.78,2.44a.34.34,0,0,1-.53.38l-2.08-1.49L239.21,213a.34.34,0,0,1-.53-.38l.77-2.44-2.06-1.52a.34.34,0,0,1,.2-.62l2.56,0,.81-2.43A.34.34,0,0,1,241.61,205.57Z"/><path class="cls-4" d="M221,176.48l.66,2,2.09,0a.28.28,0,0,1,.17.51l-1.68,1.24.63,2a.28.28,0,0,1-.43.31l-1.71-1.22-1.7,1.22a.28.28,0,0,1-.43-.31l.63-2L217.54,179a.28.28,0,0,1,.16-.51l2.09,0,.67-2A.28.28,0,0,1,221,176.48Z"/><path class="cls-4" d="M283.82,135.52l.83,2.48,2.61,0a.36.36,0,0,1,.21.64l-2.11,1.55.79,2.5a.35.35,0,0,1-.54.39l-2.13-1.52-2.12,1.52a.36.36,0,0,1-.55-.39l.79-2.5-2.1-1.55a.36.36,0,0,1,.21-.64l2.61,0,.83-2.48A.35.35,0,0,1,283.82,135.52Z"/><path class="cls-4" d="M207,164.34l.66,2h2.1a.28.28,0,0,1,.16.51l-1.68,1.24.63,2a.28.28,0,0,1-.43.31l-1.71-1.22L205,170.4a.28.28,0,0,1-.43-.31l.63-2-1.68-1.24a.28.28,0,0,1,.16-.51l2.1,0,.66-2A.28.28,0,0,1,207,164.34Z"/><path class="cls-4" d="M217.11,192.31l1,3,3.17,0a.43.43,0,0,1,.25.77L219,198l1,3a.43.43,0,0,1-.66.47l-2.57-1.84-2.58,1.84a.43.43,0,0,1-.66-.47l1-3-2.55-1.89a.43.43,0,0,1,.25-.77l3.17,0,1-3A.43.43,0,0,1,217.11,192.31Z"/><path class="cls-4" d="M294.9,207l.63,1.89,2,0a.26.26,0,0,1,.15.48l-1.6,1.18.6,1.9a.27.27,0,0,1-.41.3l-1.62-1.16L293,212.81a.27.27,0,0,1-.42-.3l.6-1.9-1.6-1.18a.27.27,0,0,1,.16-.48l2,0,.63-1.89A.27.27,0,0,1,294.9,207Z"/><path class="cls-4" d="M301.88,192.61l.81,2.43,2.55,0a.34.34,0,0,1,.21.62l-2.06,1.52.77,2.44a.34.34,0,0,1-.53.38l-2.08-1.49L299.47,200a.34.34,0,0,1-.53-.38l.77-2.44-2.06-1.52a.34.34,0,0,1,.2-.62l2.56,0,.81-2.43A.35.35,0,0,1,301.88,192.61Z"/></g></g></svg>