<svg xmlns="http://www.w3.org/2000/svg" viewBox="0 0 512 335.45"><defs><style>.cls-1{fill:#f5f5f5;}.cls-2{fill:#4173cd;}.cls-3{fill:#ffe15a;}.cls-4{fill:#ffcd5a;}</style></defs><g id="Layer_2" data-name="Layer 2"><g id="Layer_1-2" data-name="Layer 1"><path class="cls-1" d="M503.17,0H8.83A8.83,8.83,0,0,0,0,8.83V326.62a8.83,8.83,0,0,0,8.83,8.83H503.17a8.83,8.83,0,0,0,8.83-8.83V8.83A8.83,8.83,0,0,0,503.17,0Z"/><rect class="cls-2" x="185.38" y="37.27" width="326.62" height="37.27"/><rect class="cls-1" y="74.54" width="512" height="37.27"/><rect class="cls-2" x="185.38" y="111.81" width="326.62" height="37.27"/><rect class="cls-1" y="149.08" width="512" height="37.27"/><rect class="cls-2" y="186.36" width="512" height="37.27"/><rect class="cls-1" y="223.63" width="512" height="37.27"/><rect class="cls-2" y="260.9" width="512" height="37.27"/><polygon class="cls-3" points="63.98 23.37 78.74 91.7 101.85 82.13 63.98 23.37"/><polygon class="cls-4" points="63.98 23.37 90.3 86.91 78.74 91.7 63.98 23.37"/><polygon class="cls-3" points="121.4 162.01 106.64 93.68 83.53 103.25 121.4 162.01"/><polygon class="cls-4" points="121.4 162.01 95.08 98.47 106.64 93.68 121.4 162.01"/><polygon class="cls-3" points="162.01 63.98 93.68 78.74 103.25 101.85 162.01 63.98"/><polygon class="cls-4" points="162.01 63.98 98.47 90.3 93.68 78.74 162.01 63.98"/><polygon class="cls-3" points="23.37 121.4 91.7 106.64 82.13 83.53 23.37 121.4"/><polygon class="cls-4" points="23.37 121.4 86.91 95.08 91.7 106.64 23.37 121.4"/><polygon class="cls-3" points="121.4 23.37 83.53 82.13 106.64 91.7 121.4 23.37"/><polygon class="cls-4" points="121.4 23.37 95.08 86.91 83.53 82.13 121.4 23.37"/><polygon class="cls-3" points="63.98 162.01 101.85 103.25 78.74 93.68 63.98 162.01"/><polygon class="cls-4" points="63.98 162.01 90.3 98.47 101.85 103.25 63.98 162.01"/><polygon class="cls-3" points="162.01 121.4 103.25 83.53 93.68 106.64 162.01 121.4"/><polygon class="cls-4" points="162.01 121.4 98.47 95.08 103.25 83.53 162.01 121.4"/><polygon class="cls-3" points="23.37 63.98 82.13 101.85 91.7 78.74 23.37 63.98"/><polygon class="cls-4" points="23.37 63.98 86.91 90.3 82.13 101.85 23.37 63.98"/><polygon class="cls-3" points="92.69 17.66 80.18 86.44 105.19 86.44 92.69 17.66"/><polygon class="cls-4" points="92.69 17.66 92.69 86.44 80.18 86.44 92.69 17.66"/><polygon class="cls-3" points="92.69 167.72 105.19 98.94 80.18 98.94 92.69 167.72"/><polygon class="cls-4" points="92.69 167.72 92.69 98.94 105.19 98.94 92.69 167.72"/><polygon class="cls-3" points="167.72 92.69 98.94 80.18 98.94 105.19 167.72 92.69"/><polygon class="cls-4" points="167.72 92.69 98.94 92.69 98.94 80.18 167.72 92.69"/><polygon class="cls-3" points="17.66 92.69 86.44 105.19 86.44 80.18 17.66 92.69"/><polygon class="cls-4" points="17.66 92.69 86.44 92.69 86.44 105.19 17.66 92.69"/><polygon class="cls-3" points="145.75 39.63 88.27 79.42 105.95 97.11 145.75 39.63"/><polygon class="cls-4" points="145.75 39.63 97.11 88.27 88.27 79.42 145.75 39.63"/><polygon class="cls-3" points="39.63 145.75 97.11 105.95 79.42 88.27 39.63 145.75"/><polygon class="cls-4" points="39.63 145.75 88.27 97.11 97.11 105.95 39.63 145.75"/><polygon class="cls-3" points="145.75 145.75 105.95 88.27 88.27 105.95 145.75 145.75"/><polygon class="cls-4" points="145.75 145.75 97.11 97.11 105.95 88.27 145.75 145.75"/><polygon class="cls-3" points="39.63 39.63 79.42 97.11 97.11 79.42 39.63 39.63"/><polygon class="cls-4" points="39.63 39.63 88.27 88.27 79.42 97.11 39.63 39.63"/><circle class="cls-3" cx="92.69" cy="92.69" r="25.01"/></g></g></svg>