<svg xmlns="http://www.w3.org/2000/svg" viewBox="0 0 512 335.45"><defs><style>.cls-1{fill:#ff4b55;}.cls-2{fill:#41479b;}.cls-3{fill:#f5f5f5;}.cls-4{fill:#3cc8ff;}.cls-5{fill:#ffe15a;}.cls-6{fill:#73af00;}.cls-7{fill:#f0aa00;}.cls-8{fill:#8c5a28;}</style></defs><g id="Layer_2" data-name="Layer 2"><g id="Layer_1-2" data-name="Layer 1"><rect class="cls-1" y="114.75" width="512" height="105.93"/><path class="cls-2" d="M8.83,0H503.17A8.83,8.83,0,0,1,512,8.83V57.38H0V8.83A8.83,8.83,0,0,1,8.83,0Z"/><rect class="cls-3" y="57.38" width="512" height="57.38"/><path class="cls-2" d="M503.17,335.45H8.83A8.83,8.83,0,0,1,0,326.62V278.07H512v48.55A8.83,8.83,0,0,1,503.17,335.45Z"/><rect class="cls-3" y="220.68" width="512" height="57.38"/><ellipse class="cls-3" cx="138.39" cy="167.72" rx="41.29" ry="44.14"/><rect class="cls-4" x="117.03" y="150.64" width="42.71" height="21.36"/><polygon class="cls-5" points="122.73 162.78 123.22 167.49 125.14 163.16 124.15 167.8 127.31 164.27 124.93 168.37 129.03 165.99 125.51 169.16 130.14 168.16 125.81 170.08 130.52 170.57 125.81 171.06 130.14 172.98 125.51 171.99 129.03 175.15 124.93 172.77 127.31 176.87 124.15 173.35 125.14 177.98 123.22 173.65 122.73 178.36 122.24 173.65 120.33 177.98 121.32 173.35 118.15 176.87 120.53 172.77 116.43 175.15 119.96 171.99 115.32 172.98 119.65 171.06 114.94 170.57 119.65 170.08 115.32 168.16 119.96 169.16 116.43 165.99 120.53 168.37 118.15 164.27 121.32 167.8 120.33 163.16 122.24 167.49 122.73 162.78"/><polygon class="cls-2" points="146.94 201.9 129.85 201.9 114.19 189.08 114.19 170.57 164.02 170.57 164.02 189.08 146.94 201.9"/><path class="cls-6" d="M155.48,164.88h0a.71.71,0,0,0-1.42,0h0c0,2.47-1.43,5.89-3.18,8.33a19.24,19.24,0,0,1-3.73-8.94,1.6,1.6,0,0,0-2.3-1.19,1.61,1.61,0,0,0-.87,1.21c-1.09,7-4.38,10-6.51,11.17-3.2-3.08-4.25-8.08-4.59-11a1.66,1.66,0,0,0-3.23-.31,21.44,21.44,0,0,1-16.88,15v4.27H162.6v-7.12C156.9,174.84,155.48,164.88,155.48,164.88Z"/><path class="cls-7" d="M162.6,152.06c-5.7-2.85-5.7-5.69-5.7-5.69s-7.12-2.85-12.81-2.85c0,0,1.42-2.85-1.42-2.85h-8.55c-2.84,0-1.42,2.85-1.42,2.85-5.69,0-12.81,2.85-12.81,2.85s0,2.85-5.7,5.69-5.69,9.26-5.69,9.26a2.14,2.14,0,0,0,4.27,0,2,2,0,0,0-.13-.69l.13,0,14.24-10h22.78l14.24,10,.12,0a2.22,2.22,0,0,0-.12.69,2.14,2.14,0,0,0,4.27,0S168.29,154.91,162.6,152.06Z"/><path class="cls-7" d="M166.87,169.15c-1.42,0-5.7,0-5.7-4.27s5.7-4.27,5.7-4.27l-8.54-2.85c-2.85,10,2.85,10,2.85,22.78,0,11.48-12.82,18.51-17.09,18.51s-5.7,2.85-5.7,2.85-1.42-2.85-5.69-2.85-17.09-7-17.09-18.51c0-12.81,5.7-12.81,2.85-22.78l-8.54,2.85s5.69,0,5.69,4.27-4.27,4.27-5.69,4.27-7.12,0-7.12,7.12,7.12,15.66,17.08,21.35,5.7,11.4,18.51,11.4,8.55-5.7,18.51-11.4S174,183.39,174,176.27,168.29,169.15,166.87,169.15Z"/><path class="cls-6" d="M135.55,146.86l-3.45-1.55a2.88,2.88,0,0,0-1.81-.17,22.89,22.89,0,0,0-11.83,6.92l4.27,1.43Z"/><path class="cls-6" d="M141.24,146.86l3.44-1.55a2.92,2.92,0,0,1,1.82-.17,22.89,22.89,0,0,1,11.83,6.92l-4.27,1.43Z"/><path class="cls-6" d="M138.9,147.79l2.59-2.59a.36.36,0,0,0,0-.51.35.35,0,0,0-.5,0l-2.6,2.6-2.59-2.6a.36.36,0,0,0-.51,0,.38.38,0,0,0,0,.51l2.6,2.59-2.6,2.6a.37.37,0,0,0,0,.5.39.39,0,0,0,.26.1.35.35,0,0,0,.25-.1l2.59-2.6,2.6,2.6a.35.35,0,0,0,.5-.5Z"/><path class="cls-3" d="M166.87,160.61c0-2.43-2.29-3.47-4.27-3.93v-1.13c-2.68-.25-4.18-1.25-6.78-3-1-.68-2.13-1.45-3.5-2.28-5-3.05-8.86-3.48-11.08-3.38v2.35h-5.69v-2.35c-2.22-.1-6.07.33-11.08,3.38-1.37.83-2.5,1.6-3.51,2.28-2.59,1.77-4.09,2.78-6.77,3v1.13c-2,.46-4.27,1.5-4.27,3.93l4.27-1.43v.65c4-.3,6.35-1.85,9.18-3.77,1-.66,2-1.4,3.32-2.17a17.28,17.28,0,0,1,7.43-2.73v2.33h8.55v-2.33a17.28,17.28,0,0,1,7.43,2.73c1.28.77,2.36,1.51,3.32,2.17,2.83,1.92,5.14,3.48,9.18,3.77v-.65Z"/><path class="cls-4" d="M155.48,138.16V136.4h-4a2.76,2.76,0,0,0,1.12-2.13c0-3.94-8.95-5-14.24-5s-14.23,1.05-14.23,5a2.76,2.76,0,0,0,1.12,2.13h-4v1.76a21.54,21.54,0,0,0-6.49,2.75l1.58,2.37s4-2.61,7.76-2.61v-1.42h28.47v1.42c3.8,0,7.72,2.58,7.76,2.61l1.57-2.37A21.41,21.41,0,0,0,155.48,138.16ZM144.09,136v-1.08a1.07,1.07,0,0,0-1.33-1L138.39,135,134,133.89a1.07,1.07,0,0,0-1.33,1V136c-3.2-.47-5.09-1.25-5.61-1.74.77-.74,4.55-2.14,11.3-2.14s10.53,1.41,11.3,2.14C149.18,134.75,147.29,135.54,144.09,136Z"/><path class="cls-3" d="M138.57,154l.36,1.08h1.14a.16.16,0,0,1,.09.28l-.91.68.34,1.09a.16.16,0,0,1-.24.17l-.92-.67-.93.67a.16.16,0,0,1-.24-.17l.35-1.09-.92-.68a.15.15,0,0,1,.09-.28h1.14l.36-1.08A.15.15,0,0,1,138.57,154Z"/><path class="cls-3" d="M133,154.39l.47,1,1.14-.11a.15.15,0,0,1,.12.26l-.84.77.45,1.05a.15.15,0,0,1-.22.19l-1-.56-.85.76a.15.15,0,0,1-.25-.15l.22-1.12-1-.57a.16.16,0,0,1,.06-.29l1.14-.13.24-1.11A.15.15,0,0,1,133,154.39Z"/><path class="cls-3" d="M127.26,155.91l.68.92,1.09-.36a.16.16,0,0,1,.17.24l-.65.93.67.92a.16.16,0,0,1-.17.24l-1.09-.34-.67.93a.15.15,0,0,1-.28-.09l0-1.14-1.08-.35a.15.15,0,0,1,0-.29l1.07-.37V156A.16.16,0,0,1,127.26,155.91Z"/><path class="cls-3" d="M121.51,158.34l.8.81,1-.5a.16.16,0,0,1,.2.22l-.52,1,.79.82a.16.16,0,0,1-.14.26l-1.12-.19-.55,1a.15.15,0,0,1-.28-.05l-.17-1.13-1.12-.21a.15.15,0,0,1-.05-.28l1-.51-.15-1.13A.15.15,0,0,1,121.51,158.34Z"/><path class="cls-3" d="M143.86,154.39l-.47,1-1.13-.11a.15.15,0,0,0-.12.26l.84.77-.46,1.05a.15.15,0,0,0,.22.19l1-.56.85.76a.16.16,0,0,0,.26-.15l-.23-1.12,1-.57a.16.16,0,0,0-.06-.29l-1.13-.13-.25-1.11A.15.15,0,0,0,143.86,154.39Z"/><path class="cls-3" d="M149.59,155.91l-.68.92-1.09-.36a.16.16,0,0,0-.17.24l.65.93-.67.92a.16.16,0,0,0,.17.24l1.09-.34.67.93a.15.15,0,0,0,.28-.09l0-1.14,1.08-.35a.15.15,0,0,0,0-.29l-1.08-.37V156A.16.16,0,0,0,149.59,155.91Z"/><path class="cls-3" d="M155.34,158.34l-.8.81-1-.5a.16.16,0,0,0-.2.22l.52,1-.79.82a.16.16,0,0,0,.14.26l1.13-.19.54,1a.16.16,0,0,0,.29-.05l.17-1.13,1.12-.21a.15.15,0,0,0,0-.28l-1-.51.15-1.13A.15.15,0,0,0,155.34,158.34Z"/><polygon class="cls-8" points="128.56 188.19 135.81 193.04 144.58 193.04 148.63 189.57 145.51 190.82 135.19 190.82 128.56 188.19"/><path class="cls-3" d="M133.5,181.93l-.7,7.06-3.19-1.21A21.72,21.72,0,0,1,133.5,181.93Z"/><rect class="cls-8" x="139.78" y="179.13" width="0.47" height="12.02"/><rect class="cls-8" x="144.14" y="180.15" width="0.47" height="11.01"/><rect class="cls-8" x="135.45" y="180.15" width="0.47" height="11.01"/><path class="cls-3" d="M141.46,190h-2.87a.55.55,0,0,1-.55-.55V188a.55.55,0,0,1,.55-.54h2.87a.54.54,0,0,1,.54.54v1.45A.55.55,0,0,1,141.46,190Z"/><path class="cls-3" d="M141.46,186.63h-2.87a.55.55,0,0,1-.55-.54v-1.45a.55.55,0,0,1,.55-.54h2.87a.54.54,0,0,1,.54.54v1.45A.54.54,0,0,1,141.46,186.63Z"/><path class="cls-3" d="M141.46,183.52h-2.87A.55.55,0,0,1,138,183v-1.46a.55.55,0,0,1,.55-.54h2.87a.54.54,0,0,1,.54.54V183A.54.54,0,0,1,141.46,183.52Z"/><path class="cls-3" d="M145.55,190h-2.34a.55.55,0,0,1-.54-.55V188a.54.54,0,0,1,.54-.54h2.34a.54.54,0,0,1,.54.54v1.45A.55.55,0,0,1,145.55,190Z"/><path class="cls-3" d="M145.55,186.9h-2.34a.54.54,0,0,1-.54-.54v-1.05a.55.55,0,0,1,.54-.55h2.34a.55.55,0,0,1,.54.55v1.05A.54.54,0,0,1,145.55,186.9Z"/><path class="cls-3" d="M145.55,183.82h-2.34a.55.55,0,0,1-.54-.55v-.71a.54.54,0,0,1,.54-.54h2.34a.54.54,0,0,1,.54.54v.71A.55.55,0,0,1,145.55,183.82Z"/><path class="cls-3" d="M136.85,190h-2.34a.55.55,0,0,1-.54-.55V188a.54.54,0,0,1,.54-.54h2.34a.54.54,0,0,1,.54.54v1.45A.55.55,0,0,1,136.85,190Z"/><path class="cls-3" d="M136.85,186.9h-2.34a.54.54,0,0,1-.54-.54v-1.05a.55.55,0,0,1,.54-.55h2.34a.55.55,0,0,1,.54.55v1.05A.54.54,0,0,1,136.85,186.9Z"/><path class="cls-3" d="M136.85,183.82h-2.34a.55.55,0,0,1-.54-.55v-.71a.54.54,0,0,1,.54-.54h2.34a.54.54,0,0,1,.54.54v.71A.55.55,0,0,1,136.85,183.82Z"/><polygon class="cls-3" points="135.91 180.15 135.91 181.58 138.01 180.85 135.91 180.15"/><polygon class="cls-3" points="144.61 180.15 144.61 181.58 146.7 180.85 144.61 180.15"/><polygon class="cls-3" points="140.25 179.13 140.25 180.56 142.35 179.83 140.25 179.13"/><polygon class="cls-8" points="134.69 169.53 137.21 171.21 140.26 171.21 141.66 170 140.58 170.44 137 170.44 134.69 169.53"/><path class="cls-3" d="M136.41,167.35l-.24,2.45-1.11-.42A7.59,7.59,0,0,1,136.41,167.35Z"/><rect class="cls-8" x="138.59" y="166.37" width="0.16" height="4.18"/><rect class="cls-8" x="140.1" y="166.73" width="0.16" height="3.82"/><rect class="cls-8" x="137.08" y="166.73" width="0.16" height="3.82"/><path class="cls-3" d="M139.17,170.16h-1A.19.19,0,0,1,138,170v-.51a.18.18,0,0,1,.18-.18h1a.18.18,0,0,1,.19.18V170A.19.19,0,0,1,139.17,170.16Z"/><path class="cls-3" d="M139.17,169h-1a.18.18,0,0,1-.18-.18v-.51a.19.19,0,0,1,.18-.19h1a.19.19,0,0,1,.19.19v.51A.18.18,0,0,1,139.17,169Z"/><path class="cls-3" d="M139.17,167.9h-1a.18.18,0,0,1-.18-.19v-.5a.19.19,0,0,1,.18-.19h1a.18.18,0,0,1,.19.19v.5A.18.18,0,0,1,139.17,167.9Z"/><path class="cls-3" d="M140.6,170.16h-.82a.2.2,0,0,1-.19-.19v-.51a.19.19,0,0,1,.19-.18h.82a.18.18,0,0,1,.18.18V170A.19.19,0,0,1,140.6,170.16Z"/><path class="cls-3" d="M140.6,169.08h-.82a.2.2,0,0,1-.19-.19v-.37a.2.2,0,0,1,.19-.19h.82a.19.19,0,0,1,.18.19v.37A.19.19,0,0,1,140.6,169.08Z"/><path class="cls-3" d="M140.6,168h-.82a.19.19,0,0,1-.19-.18v-.25a.19.19,0,0,1,.19-.19h.82a.18.18,0,0,1,.18.19v.25A.18.18,0,0,1,140.6,168Z"/><path class="cls-3" d="M137.57,170.16h-.81a.19.19,0,0,1-.19-.19v-.51a.18.18,0,0,1,.19-.18h.81a.18.18,0,0,1,.19.18V170A.19.19,0,0,1,137.57,170.16Z"/><path class="cls-3" d="M137.57,169.08h-.81a.19.19,0,0,1-.19-.19v-.37a.19.19,0,0,1,.19-.19h.81a.19.19,0,0,1,.19.19v.37A.19.19,0,0,1,137.57,169.08Z"/><path class="cls-3" d="M137.57,168h-.81a.18.18,0,0,1-.19-.18v-.25a.18.18,0,0,1,.19-.19h.81a.18.18,0,0,1,.19.19v.25A.18.18,0,0,1,137.57,168Z"/><polygon class="cls-3" points="137.25 166.73 137.25 167.23 137.97 166.97 137.25 166.73"/><polygon class="cls-3" points="140.27 166.73 140.27 167.23 141 166.97 140.27 166.73"/><polygon class="cls-3" points="138.75 166.38 138.75 166.87 139.48 166.62 138.75 166.38"/><path class="cls-3" d="M132.91,162h-1.85a1.22,1.22,0,0,1-1.21-1.21h0a1.22,1.22,0,0,1,1.21-1.22h1.85a1.22,1.22,0,0,1,1.21,1.22h0A1.21,1.21,0,0,1,132.91,162Z"/><path class="cls-3" d="M147,162h-1.21a1.22,1.22,0,0,1-1.22-1.21h0a1.22,1.22,0,0,1,1.22-1.22H147a1.22,1.22,0,0,1,1.22,1.22h0A1.22,1.22,0,0,1,147,162Z"/><path class="cls-3" d="M155.62,163.85h-1.07a.69.69,0,0,1-.7-.69V163a.69.69,0,0,1,.7-.69h1.07a.69.69,0,0,1,.69.69v.12A.69.69,0,0,1,155.62,163.85Z"/></g></g></svg>