<svg xmlns="http://www.w3.org/2000/svg" viewBox="0 0 512 335.46"><defs><style>.cls-1{fill:#73af00;}.cls-2{fill:#f5f5f5;}.cls-3{fill:#ff4b55;}.cls-4{fill:#ffd250;}.cls-5{fill:#00c3a0;}.cls-6{fill:#00aadc;}.cls-7{fill:#732d37;}.cls-8{fill:#aad264;}.cls-9{fill:#874150;}.cls-10{fill:#783c46;}.cls-11{fill:#ffe15a;}.cls-12{fill:#ffb478;}.cls-13{fill:#9b4b5a;}</style></defs><g id="Layer_2" data-name="Layer 2"><g id="Layer_1-2" data-name="Layer 1"><path class="cls-1" d="M170.67,335.45H8.83A8.83,8.83,0,0,1,0,326.62V8.83A8.83,8.83,0,0,1,8.83,0H170.67Z"/><rect class="cls-2" x="170.67" y="0.01" width="170.67" height="335.45"/><path class="cls-3" d="M503.17,335.45H341.33V0H503.17A8.83,8.83,0,0,1,512,8.83V326.62A8.83,8.83,0,0,1,503.17,335.45Z"/><polygon class="cls-4" points="271.23 175.62 256 183.24 256 190.85 263.61 190.85 271.23 175.62"/><path class="cls-5" d="M256,209.88a3.81,3.81,0,0,1-3.81-3.81V190.85a3.81,3.81,0,1,1,7.62,0v15.22A3.81,3.81,0,0,1,256,209.88Z"/><path class="cls-5" d="M256,194.65a59.66,59.66,0,0,1-40.65-16.24,3.81,3.81,0,0,1,5.18-5.58,51.37,51.37,0,0,0,70.94,0,3.81,3.81,0,1,1,5.18,5.58A59.61,59.61,0,0,1,256,194.65Z"/><path class="cls-6" d="M256,209.88a49.25,49.25,0,0,1-27.34-8.25l4.22-6.34a42.46,42.46,0,0,0,46.24,0l4.21,6.34A49.2,49.2,0,0,1,256,209.88Z"/><polygon class="cls-7" points="249.97 158.49 241.57 171.5 240.14 175.78 262.03 170.71 249.97 158.49"/><path class="cls-8" d="M232.7,180c-10.06,0-22.14-8.46-25.34-27.33l7.51-1.27c2.66,15.69,12.31,21,18.11,21,1.78,0,3.63-.66,3.78-1.92.17-1.5.21-1.86-3.77-3.2-2.17-.74-4.62-1.56-6.34-3.54-7-7.95,2.46-16.36,7-20.41.8-.71,1.13-1.32,1.05-1.55-.25-.65-1.75-1.63-3.43-1.63-4.84,0-8.51-2.73-9.57-7.13a10.15,10.15,0,0,1,5-11.4l3.49,6.76a2.65,2.65,0,0,0-1.06,2.84c.09.4.32,1.32,2.17,1.32,4.66,0,9.1,2.75,10.54,6.53.62,1.61,1.55,5.81-3.09,9.94-5,4.47-8,7.83-6.33,9.72a10.57,10.57,0,0,0,3.05,1.33c3.43,1.16,9.8,3.32,8.89,11.29-.57,5-5,8.49-11.13,8.66Z"/><path class="cls-9" d="M263.61,137.56s7.62-15.23-7.61-22.84c0,0,53.29-7.61,45.68,60.9h0c-5-4-12.41-11.3-15.06-17.13l-23-13.32v-7.61Z"/><path class="cls-7" d="M256,152.78l38.06,22.84-15.22,7.61L256,160.4Z"/><path class="cls-10" d="M240.77,129.94h0a7.62,7.62,0,0,1,7.62,7.62h0a14.9,14.9,0,0,0-2.79,17.22l1.72,3.44a14.85,14.85,0,0,0,2.79,3.88l21.13,21.13V172.72A84.32,84.32,0,0,0,262.31,135h0a22.82,22.82,0,0,0-20.42-12.63h-1.11V130h0Z"/><path class="cls-4" d="M240.77,122.33,233.16,130v7.61s9.06-4.59,12.11-6.06c2.13-1,1.74-3.43.52-4.6C244.84,126,240.77,122.33,240.77,122.33Z"/><path class="cls-8" d="M256,225.1a64.78,64.78,0,0,1-64.71-64.7h7.61a57.1,57.1,0,0,0,114.2,0h7.61A64.78,64.78,0,0,1,256,225.1Z"/><circle class="cls-11" cx="199.32" cy="182.99" r="5.17"/><circle class="cls-11" cx="210.74" cy="201.23" r="5.17"/><circle class="cls-11" cx="229.29" cy="215.02" r="5.17"/><circle class="cls-11" cx="313.23" cy="182.99" r="5.17"/><circle class="cls-11" cx="301.8" cy="201.23" r="5.17"/><circle class="cls-11" cx="283.25" cy="215.02" r="5.17"/><path class="cls-12" d="M259.81,213.69h-7.62a7.62,7.62,0,0,1-7.61-7.62h0a7.61,7.61,0,0,1,7.61-7.61h7.62a7.61,7.61,0,0,1,7.61,7.61h0A7.62,7.62,0,0,1,259.81,213.69Z"/><path class="cls-13" d="M286.61,158.49c2.54,7.46,7.93,14.28,15.06,17.13h0c7.61-68.51-45.68-60.9-45.68-60.9C294.06,114.72,286.61,158.49,286.61,158.49Z"/></g></g></svg>