<svg xmlns="http://www.w3.org/2000/svg" viewBox="0 0 512 335.45"><defs><style>.cls-1{fill:#82afff;}.cls-2{fill:#f5f5f5;}.cls-3{fill:#f09146;}.cls-4{fill:#ffe15a;}</style></defs><g id="Layer_2" data-name="Layer 2"><g id="Layer_1-2" data-name="Layer 1"><path class="cls-1" d="M512,111.82H0V8.83A8.83,8.83,0,0,1,8.83,0H503.17A8.83,8.83,0,0,1,512,8.83v103Z"/><path class="cls-1" d="M503.17,335.45H8.83A8.83,8.83,0,0,1,0,326.62v-103H512v103A8.83,8.83,0,0,1,503.17,335.45Z"/><rect class="cls-2" y="111.82" width="512" height="111.81"/><path class="cls-3" d="M300.14,165.52H268.35a13.59,13.59,0,0,0,1.49-1.31,8.09,8.09,0,0,1,3-2,8,8,0,0,1,3.6-.71,13.66,13.66,0,0,0,9.65-4,8.14,8.14,0,0,1,3-2.05,8,8,0,0,1,3.58-.7,12.29,12.29,0,0,0,5.22-1l-1.69-4.07a8,8,0,0,1-3.58.7,13.55,13.55,0,0,0-9.65,4,7.89,7.89,0,0,1-3,2,8,8,0,0,1-3.6.72,13.61,13.61,0,0,0-9.65,4,8.29,8.29,0,0,1-3,2l25-25L285.65,135l-22.49,22.49a16.56,16.56,0,0,0,.14-2,8.05,8.05,0,0,1,.7-3.59,7.92,7.92,0,0,1,2-3,13.66,13.66,0,0,0,4-9.67,8,8,0,0,1,.7-3.58,8.2,8.2,0,0,1,2-3,12.33,12.33,0,0,0,3-4.42l-4.08-1.69a8.09,8.09,0,0,1-2,3,13.61,13.61,0,0,0-4,9.64,9.09,9.09,0,0,1-2.74,6.62,12.36,12.36,0,0,0-3,4.44,12.49,12.49,0,0,0-1,5.23,7.89,7.89,0,0,1-.67,3.5V123.59h-4.42v31.78a15.71,15.71,0,0,0-1.3-1.48,8.26,8.26,0,0,1-2.05-3,8,8,0,0,1-.7-3.6,13.66,13.66,0,0,0-4-9.66A9.15,9.15,0,0,1,243,131a12.18,12.18,0,0,0-1-5.21l-4.08,1.68a8.3,8.3,0,0,1,.7,3.58,12.31,12.31,0,0,0,1,5.23,12.47,12.47,0,0,0,3,4.42,8,8,0,0,1,2,3,8.14,8.14,0,0,1,.71,3.61,13.66,13.66,0,0,0,4,9.66,8.07,8.07,0,0,1,2,3l-25-25-3.12,3.12L248.17,163a8.59,8.59,0,0,1-2.74-1.89,12.2,12.2,0,0,0-4.45-3,12.54,12.54,0,0,0-5.23-1,8.06,8.06,0,0,1-3.62-.71,8.21,8.21,0,0,1-3.07-2.05,13.66,13.66,0,0,0-9.7-4,8.28,8.28,0,0,1-3.63-.72L214,153.69a12.25,12.25,0,0,0,5.25,1,8.31,8.31,0,0,1,3.63.73,8.1,8.1,0,0,1,3.07,2,12.33,12.33,0,0,0,4.45,3,12.45,12.45,0,0,0,5.25,1.05,8.19,8.19,0,0,1,3.61.71,8.06,8.06,0,0,1,3,2,15.11,15.11,0,0,0,1.4,1.23H211.86v4.41h35.25a8.56,8.56,0,0,1-3.26.62,12.19,12.19,0,0,0-5.24,1,12.36,12.36,0,0,0-4.44,3,9.42,9.42,0,0,1-6.68,2.77,13.71,13.71,0,0,0-9.71,4,8.1,8.1,0,0,1-3.07,2l1.69,4.09a12.45,12.45,0,0,0,4.45-3,9.51,9.51,0,0,1,6.7-2.77,13.84,13.84,0,0,0,9.7-4,9.31,9.31,0,0,1,6.66-2.76,16.17,16.17,0,0,0,1.86-.12l-22.54,22.54,3.12,3.12,24.93-24.92a8.52,8.52,0,0,1-1.88,2.73,12.36,12.36,0,0,0-3,4.44,12.21,12.21,0,0,0-1,5.24,9.31,9.31,0,0,1-2.77,6.68,13.82,13.82,0,0,0-4,9.71,8.32,8.32,0,0,1-.71,3.62l4.07,1.69a12.3,12.3,0,0,0,1-5.25,9.36,9.36,0,0,1,2.77-6.69,12.39,12.39,0,0,0,3-4.46A12.26,12.26,0,0,0,249.8,188a8.19,8.19,0,0,1,.71-3.61,8,8,0,0,1,2.05-3.05,15.11,15.11,0,0,0,1.23-1.4v31.88h4.41V176.61a8.33,8.33,0,0,1,.61,3.26,13.71,13.71,0,0,0,4,9.68,9.42,9.42,0,0,1,2.77,6.68,12.25,12.25,0,0,0,1,5.25,12.38,12.38,0,0,0,3,4.46,8,8,0,0,1,2.05,3.07l4.08-1.69a12.39,12.39,0,0,0-3-4.46,8.05,8.05,0,0,1-2.06-3.07,8.18,8.18,0,0,1-.71-3.62,12.45,12.45,0,0,0-1.05-5.25,12.33,12.33,0,0,0-3-4.45,9.36,9.36,0,0,1-2.76-6.66,16.36,16.36,0,0,0-.13-1.87l22.56,22.55,3.12-3.12-22.49-22.48a16.4,16.4,0,0,0,2,.14,8,8,0,0,1,3.59.7,8.11,8.11,0,0,1,3,2.05,12.43,12.43,0,0,0,4.43,3,12.28,12.28,0,0,0,5.23,1,8,8,0,0,1,3.58.71,7.84,7.84,0,0,1,3,2,12.43,12.43,0,0,0,4.43,3l1.69-4.09a8.09,8.09,0,0,1-3-2,13.5,13.5,0,0,0-9.65-4,9.2,9.2,0,0,1-6.62-2.75,12.37,12.37,0,0,0-4.44-3,12.07,12.07,0,0,0-5.23-1,8.39,8.39,0,0,1-3.53-.68h35.35v-4.41Z"/><circle class="cls-4" cx="256" cy="167.73" r="22.07"/></g></g></svg>