<svg width="512" height="512" xmlns="http://www.w3.org/2000/svg">

 <g>
  <title>background</title>
  <rect fill="none" id="canvas_background" height="402" width="582" y="-1" x="-1"/>
 </g>
 <g>
  <title>Layer 1</title>
  <ellipse ry="164" rx="164" id="svg_9" cy="262.453125" cx="255.5" stroke-width="1.5" stroke="#fff" fill="#f04b56"/>
  <g id="svg_8">
   <g id="svg_7">
    <g id="svg_6">
     <path id="svg_5" fill="#ffffff" class="active-path" d="m256,0c-141.156,0 -256,114.844 -256,256s114.844,256 256,256s256,-114.844 256,-256s-114.844,-256 -256,-256zm146.208,263.542l-96,96c-2.042,2.042 -4.771,3.125 -7.542,3.125c-1.375,0 -2.76,-0.26 -4.083,-0.813c-3.99,-1.646 -6.583,-5.542 -6.583,-9.854l0,-21.333c0,-2.833 1.125,-5.542 3.125,-7.542l45.792,-45.792l-219.584,0c-5.896,0 -10.667,-4.771 -10.667,-10.667l0,-21.333c0,-5.896 4.771,-10.667 10.667,-10.667l219.583,0l-45.792,-45.792c-2,-2 -3.125,-4.708 -3.125,-7.542l0,-21.332c0,-4.313 2.594,-8.208 6.583,-9.854c4,-1.667 8.573,-0.74 11.625,2.313l96,96c4.168,4.166 4.168,10.916 0.001,15.083z"/>
    </g>
   </g>
  </g>
 </g>
</svg>