<svg xmlns="http://www.w3.org/2000/svg" viewBox="0 0 121.73 121.1"><defs><style>.cls-1{fill:#fff;}</style></defs><g id="Layer_2" data-name="Layer 2"><g id="Capa_1" data-name="Capa 1"><path class="cls-1" d="M118.18,113.78A57.85,57.85,0,0,1,98.55,118c-9.4.48-18.75,1.86-28.14,2.65-4.88.4-9.8.56-14.69.48-12.15-.2-24.34.25-36.36-2.14-2.14-.42-4.25-1-6.41-1.21-5.61-.56-8.73-3.55-10.09-9A103.67,103.67,0,0,1,.29,76.3c1-14.66,1.12-29.39,1.58-44.09.2-6.17.09-12.36.51-18.52C3,4.46,6.15,2.13,15.3,1,27.1-.48,38.88.14,50.67.1Q76.26,0,101.85.14a37.19,37.19,0,0,1,8.6,1C117,2.77,119.72,6,120,12.62c.59,15.59.77,31.19,1.54,46.77.78,15.86-.71,31.58-2,47.32A69.51,69.51,0,0,1,118.18,113.78ZM92,48c.56,2.08.78,2.93,1,3.77A44.51,44.51,0,0,1,91.47,81.6C87.32,91.76,78.72,96.47,68.75,98.1,57.4,100,47,96.2,38.62,88.47c-9-8.32-14-18.47-10.52-31.25a21.56,21.56,0,0,0,.4-3.44L11,55.74c-.1,1.25-.32,2.85-.35,4.45-.14,6.9.1,13.82-.42,20.69-.63,8.26.72,16.31,1.73,24.4.52,4.07,2.19,5.6,6.24,6.43a17.86,17.86,0,0,0,3.77.48c10.88-.18,21.76-.45,32.64-.64,10.14-.19,20.29-.55,30.43-.41,8.69.11,17.33.08,26.55-1.57,1-20,1.75-39.89,1.58-60.26C106.29,47.17,99.49,48.6,92,48ZM65.8,90.91c2.62.49,5.92-.84,9.12-2.75,7.88-4.69,11.46-12.1,12.16-20.75.77-9.36-2.68-17.89-7.77-25.5-4.75-7.1-16.6-9.55-24.57-6.41C40.79,41,31,63.29,41.27,77.08,47.35,85.26,54.37,90.37,65.8,90.91ZM92.9,17.27V35l12.31,1.92c2.3-6.39,2.62-12.21,1.94-18.86Z"/></g></g></svg>