<svg xmlns="http://www.w3.org/2000/svg" viewBox="0 0 35.4 43.9"><defs><style>.cls-1{fill:#0271af;}.cls-2{fill:#fff;}</style></defs><g id="Layer_2" data-name="Layer 2"><g id="Layer_1-2" data-name="Layer 1"><path class="cls-1" d="M16.6,43a1.92,1.92,0,0,0,1.2.4A1.75,1.75,0,0,0,19,43c.7-.5,16-11.5,15.9-25.3A17.2,17.2,0,0,0,.5,17.6C.7,31.5,16,42.5,16.6,43Z"/><path class="cls-2" d="M17.8,43.9a2.4,2.4,0,0,1-1.5-.5l-.21-.16C11.31,39.57.17,29.73,0,17.61a17.7,17.7,0,0,1,35.4.09C35.5,31.43,21,42.22,19.29,43.41A2.21,2.21,0,0,1,17.8,43.9Zm-.89-1.29a1.42,1.42,0,0,0,.89.29,1.3,1.3,0,0,0,.85-.25c.7-.52,15.85-11.49,15.75-24.95A16.7,16.7,0,0,0,1,17.6c.17,12,12.06,22,15.7,24.85Z"/><path class="cls-2" d="M17.9,13.4a4.3,4.3,0,1,1-4.3,4.3A4.27,4.27,0,0,1,17.9,13.4Zm0,12.8a8.6,8.6,0,1,0-8.6-8.6A8.6,8.6,0,0,0,17.9,26.2Z"/></g></g></svg>