<svg xmlns="http://www.w3.org/2000/svg" viewBox="0 0 91.17 98.48"><defs><style>.cls-1{fill:#fff;}</style></defs><g id="Layer_2" data-name="Layer 2"><g id="Capa_1" data-name="Capa 1"><polygon class="cls-1" points="11.78 41.61 4.59 41.61 4.59 45.58 10.48 45.58 10.48 48.52 4.59 48.52 4.59 54.55 1.34 54.55 1.34 38.68 11.78 38.68 11.78 41.61"/><path class="cls-1" d="M20.24,42.5a3.22,3.22,0,0,1,1,.15v2.86h-.87a3.45,3.45,0,0,0-2.28.74,2.9,2.9,0,0,0-.89,2.36v5.94H14V42.65h3v1.42a3.85,3.85,0,0,1,1.44-1.17,4.33,4.33,0,0,1,1.83-.4"/><path class="cls-1" d="M28.66,42.38a5.83,5.83,0,0,1,2.28.44A5.46,5.46,0,0,1,32.71,44a5.16,5.16,0,0,1,1.13,1.76,5.72,5.72,0,0,1,.4,2.16,8,8,0,0,1-.07,1c-.05.32-.1.59-.15.8H25.65a2.94,2.94,0,0,0,1.21,1.75,3.8,3.8,0,0,0,2.18.6,4.81,4.81,0,0,0,1.77-.32,6.85,6.85,0,0,0,1.55-.88l1.33,2.21a8.21,8.21,0,0,1-2.19,1.31,7.27,7.27,0,0,1-5.17,0,6.12,6.12,0,0,1-3.93-5.75,6.21,6.21,0,0,1,6.26-6.23M28.54,45a2.79,2.79,0,0,0-1.83.64,3.37,3.37,0,0,0-1.06,1.77h5.46a2.31,2.31,0,0,0-.79-1.78A2.67,2.67,0,0,0,28.54,45"/><path class="cls-1" d="M43.21,42.38a5,5,0,0,1,1.88.35,3.85,3.85,0,0,1,1.41,1,4.15,4.15,0,0,1,.89,1.5,5.75,5.75,0,0,1,.32,2v7.38H44.48V47.6a2.34,2.34,0,0,0-.6-1.67,2.13,2.13,0,0,0-1.61-.64,2.23,2.23,0,0,0-1.64.64A2.31,2.31,0,0,0,40,47.6v6.95H36.76V42.65h3v1.1a4.87,4.87,0,0,1,3.47-1.37"/><path class="cls-1" d="M55.93,42.38a5.23,5.23,0,0,1,2.21.45,3.93,3.93,0,0,1,1.61,1.29V42.65h3v11.9h-3V53.18a4.17,4.17,0,0,1-1.6,1.23,5.3,5.3,0,0,1-2.18.43,5.56,5.56,0,0,1-4.14-1.77,5.92,5.92,0,0,1-1.2-2,7.42,7.42,0,0,1,0-5,6.17,6.17,0,0,1,1.19-2,5.55,5.55,0,0,1,1.82-1.3,5.7,5.7,0,0,1,2.33-.47m.58,2.94a2.92,2.92,0,0,0-1.18.23,2.79,2.79,0,0,0-1,.66,2.94,2.94,0,0,0-.66,1,3.74,3.74,0,0,0-.25,1.36A3.64,3.64,0,0,0,53.7,50a3.26,3.26,0,0,0,.64,1,2.82,2.82,0,0,0,1,.64,3,3,0,0,0,1.19.23,3.17,3.17,0,0,0,1.09-.19,2.82,2.82,0,0,0,1-.59,2.89,2.89,0,0,0,.7-1,4.29,4.29,0,0,0,0-2.94,3.15,3.15,0,0,0-.69-1,2.68,2.68,0,0,0-1-.6,3.3,3.3,0,0,0-1.12-.19"/><rect class="cls-1" x="1.12" y="56.56" width="3.25" height="18.04"/><path class="cls-1" d="M12.69,62.43a5.26,5.26,0,0,1,2.21.44,4,4,0,0,1,1.61,1.29V62.69h3v11.9h-3V73.22a4.17,4.17,0,0,1-1.6,1.23,5.3,5.3,0,0,1-2.18.43,5.5,5.5,0,0,1-4.14-1.76,6.07,6.07,0,0,1-1.2-2,7.4,7.4,0,0,1,0-5,6.22,6.22,0,0,1,1.19-2,5.38,5.38,0,0,1,1.82-1.29,5.55,5.55,0,0,1,2.33-.47m.58,2.93a3.1,3.1,0,0,0-1.18.23,2.7,2.7,0,0,0-1,.66,3,3,0,0,0-.67,1,3.66,3.66,0,0,0-.24,1.36A3.72,3.72,0,0,0,10.45,70a3.13,3.13,0,0,0,.65,1,3,3,0,0,0,1,.65,3.13,3.13,0,0,0,2.28,0,2.7,2.7,0,0,0,1-.59,2.65,2.65,0,0,0,.7-1,4.14,4.14,0,0,0,0-2.94,3.08,3.08,0,0,0-.68-1,2.68,2.68,0,0,0-1-.6,3.3,3.3,0,0,0-1.12-.19"/><path class="cls-1" d="M35.18,62.43a5.69,5.69,0,0,1,5.17,2.93l-2.26,1.76a5.37,5.37,0,0,0-1.2-1.26,2.84,2.84,0,0,0-1.69-.48,3,3,0,0,0-1.26.26,2.93,2.93,0,0,0-1,.68,3.13,3.13,0,0,0-.63,1,3.76,3.76,0,0,0,0,2.59A3.07,3.07,0,0,0,33,71a3.1,3.1,0,0,0,1,.69,3,3,0,0,0,1.26.25,2.84,2.84,0,0,0,1.69-.48,4.92,4.92,0,0,0,1.17-1.23l2.26,1.74a5.62,5.62,0,0,1-5.14,2.95,6.57,6.57,0,0,1-2.52-.48,6.36,6.36,0,0,1-2-1.32,6.08,6.08,0,0,1-1.36-2,6.19,6.19,0,0,1-.49-2.47,6,6,0,0,1,.49-2.45,5.9,5.9,0,0,1,1.36-2,6.33,6.33,0,0,1,2-1.31,6.57,6.57,0,0,1,2.52-.48"/><path class="cls-1" d="M53.55,69.35a6,6,0,0,1-.42,2.3,5,5,0,0,1-2.89,2.85,5.82,5.82,0,0,1-2.15.38,6,6,0,0,1-2.18-.38A5,5,0,0,1,43,71.65a6,6,0,0,1-.42-2.3V62.69h3.22v6.93a2.21,2.21,0,0,0,.65,1.67,2.24,2.24,0,0,0,1.61.61,2.16,2.16,0,0,0,2.24-2.28V62.69h3.22Z"/><path class="cls-1" d="M62.93,62.55a3.23,3.23,0,0,1,1,.14v2.86H63.1a3.45,3.45,0,0,0-2.29.75,2.91,2.91,0,0,0-.89,2.36V74.6H56.68V62.69h3v1.42a4,4,0,0,1,1.44-1.17,4.29,4.29,0,0,1,1.83-.39"/><polygon class="cls-1" points="71.66 74.88 70.6 74.88 64.69 62.69 68.13 62.69 71.11 69.42 74.14 62.69 77.55 62.69 71.66 74.88"/><path class="cls-1" d="M84.07,62.43a5.22,5.22,0,0,1,2.21.44,4,4,0,0,1,1.61,1.29V62.69h3v11.9h-3V73.22a4.17,4.17,0,0,1-1.6,1.23,5.3,5.3,0,0,1-2.18.43,5.71,5.71,0,0,1-2.31-.46,5.81,5.81,0,0,1-1.83-1.3,6.07,6.07,0,0,1-1.2-2,7.4,7.4,0,0,1,0-5,6.22,6.22,0,0,1,1.19-2,5.38,5.38,0,0,1,1.82-1.29,5.55,5.55,0,0,1,2.33-.47m.58,2.93a3.1,3.1,0,0,0-1.18.23,2.7,2.7,0,0,0-1,.66,3.15,3.15,0,0,0-.67,1,3.66,3.66,0,0,0-.24,1.36A3.72,3.72,0,0,0,81.83,70a3.13,3.13,0,0,0,.65,1,3,3,0,0,0,1,.65,3.13,3.13,0,0,0,2.28,0,2.82,2.82,0,0,0,1-.59,2.75,2.75,0,0,0,.69-1,4.14,4.14,0,0,0,0-2.94,3.08,3.08,0,0,0-.68-1,2.68,2.68,0,0,0-1-.6,3.3,3.3,0,0,0-1.12-.19"/><path class="cls-1" d="M52.88,31.83a11,11,0,0,0-.83,1.23,45.41,45.41,0,0,0-3.44,7.34c-.22.64-.34,1.31-.51,2l.16.06c.15-.35.32-.7.44-1a45.27,45.27,0,0,1,3.15-7c.47-.88,1-1.73,1.54-2.58a2.79,2.79,0,0,0-.51,0"/><path class="cls-1" d="M48.32,42.55,48,42.43l0-.09a6.23,6.23,0,0,0,.15-.62c.11-.44.22-.91.37-1.35A43.75,43.75,0,0,1,52,33a12.17,12.17,0,0,1,.83-1.24l0,0h0a2.35,2.35,0,0,1,.53,0l.15,0-.28.44c-.45.73-.92,1.49-1.33,2.25a45,45,0,0,0-3.15,6.94c-.08.25-.19.49-.29.73l-.15.33Zm4.61-10.62a12.75,12.75,0,0,0-.79,1.18,43.32,43.32,0,0,0-3.43,7.33,12.45,12.45,0,0,0-.36,1.33l-.11.45.07-.16c.1-.24.21-.47.29-.71a46.34,46.34,0,0,1,3.16-7c.41-.77.89-1.53,1.34-2.26l.12-.19h-.29"/><path class="cls-1" d="M82.05,45.68a8.3,8.3,0,0,0-.29,1,30.64,30.64,0,0,0-.74,5.5c0,.46,0,.92.07,1.38h.12a6.88,6.88,0,0,0,.07-.77,29.47,29.47,0,0,1,.88-5.09c.13-.68.37-1.22.54-1.88-.11,0-.52-.17-.65-.12"/><path class="cls-1" d="M81.31,53.64H81v-.09c0-.15,0-.3,0-.44,0-.31,0-.64,0-1a29.26,29.26,0,0,1,.75-5.52,7.6,7.6,0,0,1,.29-1l0,0,0,0a.84.84,0,0,1,.45.07l.21.05h.14l0,.13c-.08.28-.16.54-.24.79a9.18,9.18,0,0,0-.31,1.09c-.09.47-.2.95-.3,1.42a18.24,18.24,0,0,0-.57,3.65,4.55,4.55,0,0,1,0,.53l0,.25Zm.82-7.87a7.32,7.32,0,0,0-.27.9,30.61,30.61,0,0,0-.74,5.48c0,.3,0,.62,0,.92,0-.1,0-.21,0-.31a19.57,19.57,0,0,1,.57-3.69c.11-.46.21-.94.31-1.41a8.52,8.52,0,0,1,.31-1.11c.07-.22.14-.44.2-.67l-.16,0a1.64,1.64,0,0,0-.28-.07"/><path class="cls-1" d="M79.37,44.56c-.05.33-.1.67-.12,1a30.34,30.34,0,0,0,.21,5.54,12.73,12.73,0,0,0,.31,1.36l.11,0c0-.26,0-.52-.06-.77a30.77,30.77,0,0,1,0-5.17c0-.68.16-1.26.22-1.94-.11,0-.54-.08-.66,0"/><path class="cls-1" d="M79.69,52.58l0-.09c0-.14-.07-.28-.1-.42a8.83,8.83,0,0,1-.21-1,30,30,0,0,1-.21-5.56,8.38,8.38,0,0,1,.13-1v0l0,0a.79.79,0,0,1,.45,0,1,1,0,0,0,.23,0l.14,0v.14c0,.28-.06.55-.1.81a8.17,8.17,0,0,0-.12,1.12c0,.49,0,1,0,1.45a18.27,18.27,0,0,0,.06,3.7,5.29,5.29,0,0,1,0,.56c0,.07,0,.15,0,.22v.09Zm-.23-7.94a8.63,8.63,0,0,0-.11.93,29.72,29.72,0,0,0,.21,5.53,9,9,0,0,0,.19.9,1.63,1.63,0,0,0,0-.31A18.75,18.75,0,0,1,79.66,48c0-.47,0-1,0-1.44a10.15,10.15,0,0,1,.12-1.15c0-.22.07-.45.09-.69h-.17l-.29,0"/><path class="cls-1" d="M49.47,31.48a26.7,26.7,0,0,0-1.6,2.68,25,25,0,0,0-2,5c-.1.37-.25.72-.36,1.09,0,.15-.13.33.16.51.49-1.32.92-2.62,1.46-3.87A27.3,27.3,0,0,1,49,33.15c.28-.45.54-.92.81-1.38-.13-.08-.25-.19-.38-.29"/><path class="cls-1" d="M45.74,40.86l-.1-.06a.45.45,0,0,1-.22-.6v0c0-.17.11-.34.17-.51a5.62,5.62,0,0,0,.19-.58,26.25,26.25,0,0,1,2-5,24.37,24.37,0,0,1,1.61-2.68l.06-.09.18.14a1.56,1.56,0,0,0,.27.2l.09.05-.05.09-.24.41c-.18.32-.37.66-.58,1a27.78,27.78,0,0,0-1.88,3.67c-.37.86-.68,1.73-1,2.65-.14.4-.29.81-.45,1.22Zm3.76-9.23A23.89,23.89,0,0,0,48,34.2a25.88,25.88,0,0,0-2,4.93,5.26,5.26,0,0,1-.19.6c-.06.16-.12.33-.17.49v0c0,.11-.06.2,0,.29.14-.36.27-.73.4-1.09.33-.92.64-1.79,1-2.66A26,26,0,0,1,49,33.1l.57-1c.06-.11.12-.22.19-.33a1.84,1.84,0,0,1-.22-.17Z"/><path class="cls-1" d="M71.53,21.36c-.6.75-1.29,1.55-2.12,2.44a56.57,56.57,0,0,1-6.5,5.73c-.35.27-.72.53-1.08.78l-.52.37-.18.14-.38.29.27,0h.22l.17,0,.11,0,.06,0a3.56,3.56,0,0,0,.8-.41c.86-.62,1.71-1.26,2.51-1.86a42.36,42.36,0,0,0,6.33-5.95A21,21,0,0,0,74.31,18a2,2,0,0,0,.22-1.32l0-.09h-.12a.55.55,0,0,0-.54.48,14.25,14.25,0,0,1-2.32,4.26"/><path class="cls-1" d="M57.22,27.37l.69-.45c.47-.32,1-.64,1.42-1a54.7,54.7,0,0,0,7.24-7.2A17.79,17.79,0,0,0,68,16.77l.33-.5,0,0a.88.88,0,0,0,.15-.92l-.06-.14-.11.11-.14.15-.25.26-1,1.22c-.66.83-1.33,1.69-2,2.49A57.1,57.1,0,0,1,58,26.08c-.25.2-.49.43-.72.65L57,27l-.06.06.25.32Z"/><path class="cls-1" d="M66.37,23.17a26.64,26.64,0,0,0,4-5.29,2.33,2.33,0,0,0,.11-.28l0-.12,0-.08-.28-.16,0,.06c-.32.38-.65.76-1,1.15-.77.9-1.56,1.83-2.31,2.78A35.58,35.58,0,0,1,63.36,25c-.86.8-1.75,1.54-2.7,2.32L59.4,28.39l-.09.07.1.08a.58.58,0,0,0,.41.16.63.63,0,0,0,.35-.16l0,0,.53-.41c.2-.16.4-.33.6-.47a32.11,32.11,0,0,0,5-4.46"/><path class="cls-1" d="M56,31.94A11.57,11.57,0,0,1,57,30.89a11.89,11.89,0,0,1,1-.85l.16-.14c.16-.12.31-.25.47-.39H58.5c-1.14.07-2.93,1.84-2.94,2.94v0l0,0L56,32l0,0"/><path class="cls-1" d="M60.18,30.92v0h0a2.53,2.53,0,0,0-.23.12,2.39,2.39,0,0,0-.22.12,4.81,4.81,0,0,0-.57.44,4.83,4.83,0,0,1-.49.41l-1,.67-.69.47,0,0h0a4.7,4.7,0,0,0,3.19-2.23"/><path class="cls-1" d="M58.74,31.45h0a5.55,5.55,0,0,0-2.38,1.37s0,0,.06,0,.2,0,.3,0a.38.38,0,0,0-.16,0H56.4a.3.3,0,0,0,.14,0,2.66,2.66,0,0,0,.38-.1H57a3.17,3.17,0,0,0,1.74-1.27l0,0Z"/><path class="cls-1" d="M57.72,31.05c-.48.1-.94.44-1.64,1.27v0h.06a2.31,2.31,0,0,0,1.6-1.27v0Z"/><path class="cls-1" d="M56.44,29.93c-.12.1-.16.3-.16.62v0l0,0,.9-.76c-.4,0-.62,0-.76.14"/><path class="cls-1" d="M74.25,23.18l-.06.34a9.48,9.48,0,0,1-.68,2.5l-.18.2s0,.05,0,.06l-.25,0a1.6,1.6,0,0,1-.49,0,3,3,0,0,0-.72-.09H71c-.6,0-1.3,0-1.78,0a1.26,1.26,0,0,0-.49.12l-.08.1,0,.09a.39.39,0,0,0,.27.24c.59,0,1.21.06,1.8.07a21.4,21.4,0,0,1,2.42.14,4.78,4.78,0,0,1,.36.53,13.17,13.17,0,0,1,.75,2.65c.06.22.28,1.19.34,1.43.09,0,.42-.23.51-.23a3.76,3.76,0,0,0-.1-1c-.14-.5-.27-1-.38-1.44a9,9,0,0,0-.56-1.64l-.17-.39a.46.46,0,0,0-.12-.17l0,0c0-.1.21-.34.31-.49s.18-.29.21-.35a7.62,7.62,0,0,0,.5-2.92,7.53,7.53,0,0,1,.46-2.77,1.63,1.63,0,0,0,.14-.55.26.26,0,0,0-.07-.19.24.24,0,0,0-.21,0c-.12,0-.27.27-.29.29a6.42,6.42,0,0,0-.48,2.42,10.59,10.59,0,0,1-.11,1.06"/><path class="cls-1" d="M76.84,41.24c0-.74-.22-1.76-.39-2.77-.1,0-.2.05-.29.08a2.17,2.17,0,0,1-.35.07.35.35,0,0,1-.14,0,86.18,86.18,0,0,1,.74,11l0,.41v.21a6.13,6.13,0,0,1-1.26.15h0c-.3,0-.69,0-1,0-.08-.83-.3-4.65-.44-7l-.07-1.19a41.36,41.36,0,0,0-1-5.94c-.17-.78-.32-1.52-.46-2.23A10.86,10.86,0,0,0,71,30.5a1.09,1.09,0,0,1-.08-.15,1.63,1.63,0,0,0-.66-.76,1.25,1.25,0,0,1-.22-.16,1,1,0,0,0-1.18-.09,8.41,8.41,0,0,0-2.62,2c-.25.29-1.83,1.92-3.22,3.37L61.8,36h0l0,0-.07.07-.11.12-.14.16c-.33.34-.6.62-.7.74l-.12.12s-.55.71-.85,1l-1,1.1c-.19.22-.39.43-.6.64l-.46.49c-.17.19-.36.39-.56.59s.13.54.41.59c.93-1,2-2.19,2.95-3.23l.69-.79h0l.19-.2.07-.08c.17-.2.53-.58,1-1l.06-.07h0c1.73-1.83,4.95-5.06,5.73-5.77A1.74,1.74,0,0,1,69.41,30a.89.89,0,0,1,.79.4c.09.13.13.16.13.17a.17.17,0,0,1,0,.07l.17.36a7.83,7.83,0,0,1,.7,1.9c.24,1,.6,2.76.84,4A106.39,106.39,0,0,1,73.39,49.6h0a5.28,5.28,0,0,1,0,.56c0,.15,0,.3,0,.44l0,.28s1.1.09,1.74.09h0a6.81,6.81,0,0,0,2-.32s0-5.76-.22-9.41"/><path class="cls-1" d="M74.16,7.9a.45.45,0,0,0,.16-.22,4.41,4.41,0,0,1,1-1.54,1.53,1.53,0,0,0,.18-1.64,1.94,1.94,0,0,0-.88-1,4.94,4.94,0,0,1-2-1.94,4.39,4.39,0,0,0-.28-.36A3.25,3.25,0,0,0,68.62.25a1.64,1.64,0,0,0-1.1,1.34,1.43,1.43,0,0,1-.82,1.16,2.49,2.49,0,0,0-.64.46,4.44,4.44,0,0,0-.8,1,1,1,0,0,0,.88,1.42c.22,0,.44.06.68.08,0,.16-.06.28-.1.4A4.41,4.41,0,0,0,66.34,8a5.11,5.11,0,0,0,1.4,3.84,2.82,2.82,0,0,0,3.91.48,2.35,2.35,0,0,1,.22-.1,1.05,1.05,0,0,1,.08,1,10.55,10.55,0,0,0-.48,1.33c-.06.16-.08.3-.14.46l.12.1a3.17,3.17,0,0,0,.58-.34,1.09,1.09,0,0,1,1.3-.18c.55.18.71.12.89-.4a18,18,0,0,0,.56-1.71c.22-.68.2-.7-.6-.86-.12-.8-.24-1.58-.38-2.36-.11-.52-.21-1,.36-1.37m-2.29,6.56c.12-.34.2-.58.28-.82.24.52.24.52-.28.82M74,12.13c.1-.2.26-.2.48-.06a8.89,8.89,0,0,1-.71,2.31c-.31-.1-.58-.2-.88-.32L74,12.13m-.18-.38a.83.83,0,0,1,0,.18c-.31.54-.62,1.11-.94,1.64l-.18-.05c-.12-.56-.24-1.13-.34-1.69a1,1,0,0,1,.12-.48c.32-.64.66-1.28,1-2,.13.86.23,1.64.36,2.42m-.41-3.83a1.37,1.37,0,0,0-.62,1c-.18.72-.38,1.44-.62,2.14A2,2,0,0,1,71,12.27a2.49,2.49,0,0,1-2.77-.58,4.38,4.38,0,0,1-.82-1.1,5,5,0,0,1,.28-5.27,1.07,1.07,0,0,1,.26-.26l1.53-.9c.38-.22.52-.22.72.1a2,2,0,0,0,1.48.9l.28.08c.24,1-.12,1.94.08,3a1.57,1.57,0,0,0,.64-.91,1.87,1.87,0,0,1,.24-.58.54.54,0,0,1,.7-.22.49.49,0,0,1,.29.6,1,1,0,0,1-.51.78"/><path class="cls-1" d="M74.16,7.9a.45.45,0,0,0,.16-.22,4.41,4.41,0,0,1,1-1.54,1.53,1.53,0,0,0,.18-1.64,1.94,1.94,0,0,0-.88-1,4.94,4.94,0,0,1-2-1.94,4.39,4.39,0,0,0-.28-.36A3.25,3.25,0,0,0,68.62.25a1.64,1.64,0,0,0-1.1,1.34,1.43,1.43,0,0,1-.82,1.16,2.49,2.49,0,0,0-.64.46,4.44,4.44,0,0,0-.8,1,1,1,0,0,0,.88,1.42c.22,0,.44.06.68.08,0,.16-.06.28-.1.4A4.41,4.41,0,0,0,66.34,8a5.11,5.11,0,0,0,1.4,3.84,2.82,2.82,0,0,0,3.91.48,2.35,2.35,0,0,1,.22-.1,1.05,1.05,0,0,1,.08,1,10.55,10.55,0,0,0-.48,1.33c-.06.16-.08.3-.14.46l.12.1a3.17,3.17,0,0,0,.58-.34,1.09,1.09,0,0,1,1.3-.18c.55.18.71.12.89-.4a18,18,0,0,0,.56-1.71c.22-.68.2-.7-.6-.86-.12-.8-.24-1.58-.38-2.36C73.69,8.75,73.59,8.25,74.16,7.9Zm-2.29,6.56c.12-.34.2-.58.28-.82C72.39,14.16,72.39,14.16,71.87,14.46ZM74,12.13c.1-.2.26-.2.48-.06a8.89,8.89,0,0,1-.71,2.31c-.31-.1-.58-.2-.88-.32Zm-.18-.38a.83.83,0,0,1,0,.18c-.31.54-.62,1.11-.94,1.64l-.18-.05c-.12-.56-.24-1.13-.34-1.69a1,1,0,0,1,.12-.48c.32-.64.66-1.28,1-2C73.57,10.19,73.67,11,73.8,11.75Zm-.41-3.83a1.37,1.37,0,0,0-.62,1c-.18.72-.38,1.44-.62,2.14A2,2,0,0,1,71,12.27a2.49,2.49,0,0,1-2.77-.58,4.38,4.38,0,0,1-.82-1.1,5,5,0,0,1,.28-5.27,1.07,1.07,0,0,1,.26-.26l1.53-.9c.38-.22.52-.22.72.1a2,2,0,0,0,1.48.9l.28.08c.24,1-.12,1.94.08,3a1.57,1.57,0,0,0,.64-.91,1.87,1.87,0,0,1,.24-.58.54.54,0,0,1,.7-.22.49.49,0,0,1,.29.6A1,1,0,0,1,73.39,7.92Z"/><path class="cls-1" d="M68.79,7.17a22.56,22.56,0,0,1-.26,2.37l.85-.2c-.09.17-.12.28-.19.33-.26.22-.52.57-.91.38s-.18-.57-.13-.87c.08-.51.18-1,.29-1.51a4.72,4.72,0,0,1,.18-.53Z"/><path class="cls-1" d="M70.62,10.63l-1.32.47a1.33,1.33,0,0,1,1-.76c.09,0,.22.08.34.13l-.06.16"/><path class="cls-1" d="M69.22,11.18l0-.1a1.33,1.33,0,0,1,1-.78h0a.4.4,0,0,1,.26.08l.11.06,0,0-.08.22Zm1.15-.8h-.06a1.26,1.26,0,0,0-.91.61l1.18-.42,0-.09-.07,0a.42.42,0,0,0-.17-.08"/><path class="cls-1" d="M69.58,7.13l0,0-.41,0A1.18,1.18,0,0,1,70,6.37c.14.45-.22.57-.45.76"/><path class="cls-1" d="M67.14,7.14a.8.8,0,0,1,1,.12.22.22,0,0,1,0,.22c-.07.07-.21.15-.27.13-.22-.12-.42-.27-.72-.47"/><path class="cls-1" d="M70.16,7.72a.31.31,0,1,1-.62,0,.32.32,0,0,1,.32-.33.31.31,0,0,1,.3.34"/><path class="cls-1" d="M68,8.11a.34.34,0,0,1-.32.33.32.32,0,0,1-.31-.34.33.33,0,0,1,.32-.34.34.34,0,0,1,.31.35"/><path class="cls-1" d="M49.18,30.44a.47.47,0,0,1,0-.4,2,2,0,0,1,.24-.45,20.74,20.74,0,0,1,4.42-.41H54a.74.74,0,0,1,.25.44c0,.26-.26.48-.26.48a31.05,31.05,0,0,0-4.81.34"/><path class="cls-1" d="M42.81,28.25a20.82,20.82,0,0,1-4.15-6.62c-.62-1.52-1.18-3.06-1.84-4.57a5,5,0,0,0-3.41-2.92,5.28,5.28,0,0,0-5,.92,19.59,19.59,0,0,0-4.33,4.79c-.18.3-.38.56-.64,1a0,0,0,0,0,0,0,.87.87,0,0,0,0-.1,9.27,9.27,0,0,1-.2-1c-.34-2.16-.7-4.35-1-6.51-.36-2.35-.64-4.7-1-7A8,8,0,0,0,19.3,1.77C17.92.29,16.69.11,15,1.21a3.59,3.59,0,0,0-1,1c-.42.56-.78,1.2-1.16,1.83a19.52,19.52,0,0,0-2.15,7c-.44,2.73-.72,5.47-1.34,8.16a40.15,40.15,0,0,1-2,7,9.12,9.12,0,0,1-1.73,2.73,3.47,3.47,0,0,1-2,1.14c-.92.16-1.86.22-2.79.32a2.25,2.25,0,0,0-.64.1.59.59,0,0,0-.24.4.46.46,0,0,0,.24.28,2,2,0,0,0,.5.08c.94,0,1.91.14,2.87.12q13.5-.06,27-.14c2.92,0,5.87-.08,8.81-.1.74-.32.87-.8.26-1.18H37.84c-3.47,0-6.94,0-10.38,0-.28,0-9.38.22-11.83,0C21.57,26.52,23.11,23,23.11,23l.42-.54.38-.51.06-.1a.83.83,0,0,0,.14-.22l.06-.1a20.08,20.08,0,0,1,3.47-4.47c.54-.5,1.14-.94,1.72-1.4A4,4,0,0,1,32.89,15a4,4,0,0,1,3,2.56c.56,1.31,1.08,2.61,1.52,4a20.53,20.53,0,0,0,3.45,6.38l.72.84.52-.2c.24-.08.46-.18.7-.28ZM22.57,22.09a2.37,2.37,0,0,1-.36.82,21.24,21.24,0,0,1-5.74,5.52,11.67,11.67,0,0,1-3.62,1.5,1.93,1.93,0,0,1-.58.08l-5.69.12-.47,0c0-.12,0-.16.06-.18A11.69,11.69,0,0,0,9.1,24.68a73,73,0,0,0,2.26-10.5C11.65,12.09,12,10,12.41,8a14.55,14.55,0,0,1,2.38-5.22A2.92,2.92,0,0,1,17,1.59,1.33,1.33,0,0,1,17.9,2a5.75,5.75,0,0,1,2,3.63c.28,1.54.42,3.11.66,4.65.38,2.62.79,5.25,1.19,7.89l.2,1,.34,1.66Z"/><path class="cls-1" d="M62.58,31.07c-1.35,1.34-3.39,3.37-4.58,4.69s-2.31,2.43-3.42,3.81c-.49.62-.68.93-1.17,1.53-.2.23,0,.59.25.5l.17,0c1.56-1.67,2.07-2.56,3.52-4.2.43-.48,1-1,1.4-1.5.11-.14,1.37-1.41,2.59-2.65L63,31.53a1.79,1.79,0,0,1-.41-.46"/><path class="cls-1" d="M59.14,14.38q0-.09-.12-.12a1.39,1.39,0,0,0-.52-.1c-.08-.34-.14-.66-.22-1l0-.08a2.16,2.16,0,0,0-.08-.29,3.63,3.63,0,0,0-.1-.42c0-.1-.06-.22-.08-.32a1.45,1.45,0,0,1,0-1,.61.61,0,0,1,.1-.14,1.21,1.21,0,0,1,.16-.16.27.27,0,0,0,.12-.18,4.31,4.31,0,0,1,.82-1.48,1.33,1.33,0,0,0,0-1.47,1.8,1.8,0,0,0-.86-.86c-.82-.34-2.18-.44-2.7-1.14A17.71,17.71,0,0,0,53.31,7l0,0h0s0,0-.06,0a.42.42,0,0,1-.12.08c-.86.58-1.58,1.16-1.26,1.18s-.52,1-.3,1c0,.06,0,.12,0,.18v0c0,.06,0,.1,0,.16a.18.18,0,0,0,0,.1,3.6,3.6,0,0,0-.18,1.6,4.59,4.59,0,0,0,1.52,3.35A2.56,2.56,0,0,0,56.3,15a.67.67,0,0,1,.2-.12.93.93,0,0,1,.14.88A9.26,9.26,0,0,0,56.3,17a3.43,3.43,0,0,0-.08.42.35.35,0,0,0,.1.08,2.09,2.09,0,0,0,.5-.34A1,1,0,0,1,58,16.86c.52.14.64.06.78-.42s.26-1,.38-1.56a1.09,1.09,0,0,0,0-.48Zm-.8,2.26-.82-.22c.3-.62.58-1.2.84-1.8.08-.18.22-.2.44-.1a9,9,0,0,1-.46,2.12m-1.5-.54c.26.44.26.44-.18.74.08-.3.12-.52.18-.74m-3.65-1.46a3.9,3.9,0,0,1-.8-.92A4.48,4.48,0,0,1,52.25,9a1.67,1.67,0,0,1,.62-.82c.32-.23,1.06-.49,1.28-.21a4.8,4.8,0,0,0,1.67.59,1.05,1.05,0,0,1,.24.06c.3.84,0,1.74.3,2.66a1.4,1.4,0,0,0,.5-.84A1.72,1.72,0,0,1,57,9.89a.51.51,0,0,1,.62-.24.44.44,0,0,1,.28.52.93.93,0,0,1-.4.74c-.36.22-.4.58-.48.94a16,16,0,0,1-.4,2A1.83,1.83,0,0,1,55.72,15a2.26,2.26,0,0,1-2.53-.32m3.65-.16a.86.86,0,0,1,.08-.44c.24-.6.48-1.21.78-1.89q.24,1.11.48,2.13a.55.55,0,0,1,0,.18c-.24.5-.48,1-.74,1.54a.38.38,0,0,0-.16,0c-.14-.5-.3-1-.42-1.48"/><path class="cls-1" d="M57.66,9.61a.51.51,0,0,0-.66.26,1.76,1.76,0,0,0-.2.54,1.22,1.22,0,0,1-.42.78,5.28,5.28,0,0,1-.1-1.24,4.46,4.46,0,0,0-.18-1.36v0l0,0a.18.18,0,0,1-.1,0l-.16,0A4.06,4.06,0,0,1,54.36,8l-.19-.08c-.24-.3-1,0-1.32.2a1.74,1.74,0,0,0-.62.79s0,0,0,.06a4.56,4.56,0,0,0,.16,4.77,3.6,3.6,0,0,0,.82.94,2.42,2.42,0,0,0,1.54.58,2,2,0,0,0,1-.26,1.79,1.79,0,0,0,1-1.16c.18-.64.3-1.33.42-2v-.06a1.1,1.1,0,0,1,.44-.84.91.91,0,0,0,.42-.78.45.45,0,0,0-.32-.56M57,11.85c-.12.64-.24,1.31-.4,2a1.78,1.78,0,0,1-.92,1.12,2.26,2.26,0,0,1-2.47-.32,3.49,3.49,0,0,1-.8-.92A4.46,4.46,0,0,1,52.29,9s0,0,0-.06a1.68,1.68,0,0,1,1.52-1,.32.32,0,0,1,.28.1l.21.1a4.32,4.32,0,0,0,1.5.49l.14,0,.06,0a4.73,4.73,0,0,1,.16,1.3,4.44,4.44,0,0,0,.14,1.34l0,.08.06-.06a1.39,1.39,0,0,0,.5-.88,2.28,2.28,0,0,1,.18-.52.43.43,0,0,1,.38-.24.55.55,0,0,1,.18,0c.18.06.26.22.24.46a.85.85,0,0,1-.36.72,1.14,1.14,0,0,0-.5.9Zm.78.6L57.7,12l-.06.14c-.08.22-.18.42-.26.63-.18.44-.34.86-.5,1.26a.76.76,0,0,0-.08.46c.08.38.2.76.3,1.12l.12.36v0l.24,0,.2-.42.54-1.14a.35.35,0,0,0,0-.2q-.18-.9-.42-1.83m.32,2c-.18.38-.38.76-.56,1.14l-.16.36-.1,0a2.42,2.42,0,0,0-.1-.36c-.1-.36-.22-.72-.3-1.1a.7.7,0,0,1,.06-.4c.16-.42.34-.82.52-1.27a4.89,4.89,0,0,1,.2-.48l0,.16c.14.62.28,1.23.4,1.83,0,0,0,.08,0,.14m.7,0a.58.58,0,0,0-.34-.06.36.36,0,0,0-.16.18c-.14.3-.28.6-.42.92s-.28.58-.42.88l0,.06.06,0,.8.22h0l0,0a7.88,7.88,0,0,0,.44-2l0-.2Zm-.1.2a8.33,8.33,0,0,1-.42,1.9l-.7-.18c.14-.3.26-.56.38-.84s.3-.62.42-.92a.34.34,0,0,1,.12-.12.32.32,0,0,1,.22,0Zm-1.84,1.4L56.82,16l0,.12c-.06.22-.12.46-.18.76l0,.12.1-.08c.48-.3.48-.34.2-.8m-.14.64q.06-.27.12-.48c.16.26.14.32-.12.48m2.08-2.24a.58.58,0,0,0-.34-.06.36.36,0,0,0-.16.18c-.14.3-.28.6-.42.92s-.28.58-.42.88l0,.06.06,0,.8.22h0l0,0a7.88,7.88,0,0,0,.44-2l0-.2Zm-.1.2a8.33,8.33,0,0,1-.42,1.9l-.7-.18c.14-.3.26-.56.38-.84s.3-.62.42-.92a.34.34,0,0,1,.12-.12.32.32,0,0,1,.22,0ZM57.46,16l.2-.42.54-1.14a.35.35,0,0,0,0-.2q-.18-.9-.42-1.83L57.7,12l-.06.14c-.08.22-.18.42-.26.63-.18.44-.34.86-.5,1.26a.76.76,0,0,0-.08.46c.08.38.2.76.3,1.12l.12.36v0Zm0-3.25a4.89,4.89,0,0,1,.2-.48l0,.16c.14.62.28,1.23.4,1.83,0,0,0,.08,0,.14-.18.38-.38.76-.56,1.14l-.16.36-.1,0a2.42,2.42,0,0,0-.1-.36c-.1-.36-.22-.72-.3-1.1a.7.7,0,0,1,.06-.4c.16-.42.34-.82.52-1.27m-.36-.94v-.06a1.1,1.1,0,0,1,.44-.84.91.91,0,0,0,.42-.78.45.45,0,0,0-.32-.56.51.51,0,0,0-.66.26,1.76,1.76,0,0,0-.2.54,1.22,1.22,0,0,1-.42.78,5.28,5.28,0,0,1-.1-1.24,4.46,4.46,0,0,0-.18-1.36v0l0,0a.18.18,0,0,1-.1,0l-.16,0A4.06,4.06,0,0,1,54.36,8l-.19-.08c-.24-.3-1,0-1.32.2a1.74,1.74,0,0,0-.62.79s0,0,0,.06a4.56,4.56,0,0,0,.16,4.77,3.6,3.6,0,0,0,.82.94,2.42,2.42,0,0,0,1.54.58,2,2,0,0,0,1-.26,1.79,1.79,0,0,0,1-1.16c.18-.64.3-1.33.42-2M53.23,14.6a3.49,3.49,0,0,1-.8-.92A4.46,4.46,0,0,1,52.29,9s0,0,0-.06a1.68,1.68,0,0,1,1.52-1,.32.32,0,0,1,.28.1l.21.1a4.32,4.32,0,0,0,1.5.49l.14,0,.06,0a4.73,4.73,0,0,1,.16,1.3,4.44,4.44,0,0,0,.14,1.34l0,.08.06-.06a1.39,1.39,0,0,0,.5-.88,2.28,2.28,0,0,1,.18-.52.43.43,0,0,1,.38-.24.55.55,0,0,1,.18,0c.18.06.26.22.24.46a.85.85,0,0,1-.36.72,1.14,1.14,0,0,0-.5.9v.08c-.12.64-.24,1.31-.4,2a1.78,1.78,0,0,1-.92,1.12,2.26,2.26,0,0,1-2.47-.32M56.82,16l0,.12c-.06.22-.12.46-.18.76l0,.12.1-.08c.48-.3.48-.34.2-.8Zm-.08.76q.06-.27.12-.48c.16.26.14.32-.12.48M53.19,7.2l.1-.06s0,0,0,0l-.06,0h0s0,0-.06,0l-.1.16s0-.06.08-.06Zm6,7.14s0,0,0,0a.12.12,0,0,0-.08-.08.1.1,0,0,1-.07,0l-.1,0a1.55,1.55,0,0,0-.4-.08c0-.2-.08-.38-.14-.58l0-.08a2.49,2.49,0,0,0-.08-.35,2.66,2.66,0,0,0-.1-.38c0-.22-.1-.44-.16-.66v0c-.12-.44-.22-.84.22-1.16a.33.33,0,0,0,.14-.22A3.62,3.62,0,0,1,59,9.43c.07-.08.12-.16.18-.24a1.37,1.37,0,0,0,0-1.53,1.77,1.77,0,0,0-.89-.88,5.78,5.78,0,0,0-.94-.28,3.17,3.17,0,0,1-1.72-.84s-.1,0-.14,0A24.27,24.27,0,0,0,53.25,7l-.08.06c-.8.54-1.5,1.08-1.48,1.27s0,.08.1.08a1.38,1.38,0,0,1-.18.42,1.49,1.49,0,0,0-.2.48.15.15,0,0,1,0,.08l0,0v.1a.25.25,0,0,0,0,.12v0s0,.06,0,.08v0a4.14,4.14,0,0,0-.2,1.7,4.71,4.71,0,0,0,1.54,3.39,2.65,2.65,0,0,0,3.61.16s.08-.06.12-.08l0,0a.83.83,0,0,1,.1.8,7.49,7.49,0,0,0-.24.9,2.09,2.09,0,0,0-.08.34,1.55,1.55,0,0,0-.06.31.2.2,0,0,0,0,.11l0,0,.16.12,0,0,.18-.1a.78.78,0,0,0,.34-.26.94.94,0,0,1,1.08-.22c.54.12.7,0,.84-.46s.26-1,.39-1.56a4.11,4.11,0,0,0,.08-.42.13.13,0,0,0,0-.12s0,0,0,0M58,16.82a1,1,0,0,0-1.2.26,1,1,0,0,1-.32.24l-.14.08,0,0a.12.12,0,0,1,0-.08.8.8,0,0,1,.06-.3,2.73,2.73,0,0,1,.08-.34,7.19,7.19,0,0,1,.24-.88,1,1,0,0,0-.14-.94l0,0,0,0-.08,0-.12.1a2.51,2.51,0,0,1-3.47-.16,4.55,4.55,0,0,1-1.52-3.31,3.92,3.92,0,0,1,.2-1.66v0s0-.08,0-.12v0s0-.06,0-.1V9.49a.12.12,0,0,1,0-.08v0l-.06,0a1.83,1.83,0,0,1,.2-.46c.14-.26.22-.44.16-.5s0,0-.06-.07,0-.06,0-.07A5.7,5.7,0,0,1,53,7.34l.12-.06s0-.06.08-.06l0,0,.1-.06s0,0,0,0,0,0,0,0a17.73,17.73,0,0,1,2.25-1.34,3.3,3.3,0,0,0,1.78.84,8.29,8.29,0,0,1,.92.3,1.73,1.73,0,0,1,.85.82,1.34,1.34,0,0,1-.05,1.43,2.93,2.93,0,0,0-.18.26,3.24,3.24,0,0,0-.64,1.22.32.32,0,0,1-.1.16h0s0,0,0,0a.87.87,0,0,0-.14.12.83.83,0,0,0-.14.26,1.23,1.23,0,0,0,.06.8v.08c0,.08,0,.19.06.26a2.42,2.42,0,0,1,.1.36c.08.28.14.57.2.85s.1.42.16.62v0h0a3.3,3.3,0,0,1,.54.1.1.1,0,0,1,.07.06c.06.08,0,.24,0,.52-.12.6-.24,1.1-.38,1.56s-.22.5-.7.38m.88-2.32,0,0a.58.58,0,0,0-.34-.06.36.36,0,0,0-.16.18c-.14.3-.28.6-.42.92s-.28.58-.42.88l0,.06.06,0,.8.22h0l0,0a7.88,7.88,0,0,0,.44-2Zm-.14.18a8.33,8.33,0,0,1-.42,1.9l-.7-.18c.14-.3.26-.56.38-.84s.3-.62.42-.92a.34.34,0,0,1,.12-.12.32.32,0,0,1,.22,0Zm-1.06.94.54-1.14a.35.35,0,0,0,0-.2q-.18-.9-.42-1.83L57.7,12l-.06.14c-.08.22-.18.42-.26.63-.18.44-.34.86-.5,1.26a.76.76,0,0,0-.08.46c.08.38.2.76.3,1.12l.12.36v0l.24,0Zm-.36.3a2.42,2.42,0,0,0-.1-.36c-.1-.36-.22-.72-.3-1.1a.7.7,0,0,1,.06-.4c.16-.42.34-.82.52-1.27a4.89,4.89,0,0,1,.2-.48l0,.16c.14.62.28,1.23.4,1.83,0,0,0,.08,0,.14-.18.38-.38.76-.56,1.14l-.16.36Zm-.18-4.13a1.1,1.1,0,0,1,.44-.84.91.91,0,0,0,.42-.78.45.45,0,0,0-.32-.56.51.51,0,0,0-.66.26,1.76,1.76,0,0,0-.2.54,1.22,1.22,0,0,1-.42.78,5.28,5.28,0,0,1-.1-1.24,4.46,4.46,0,0,0-.18-1.36v0l0,0a.18.18,0,0,1-.1,0l-.16,0A4.06,4.06,0,0,1,54.36,8l-.19-.08c-.24-.3-1,0-1.32.2a1.74,1.74,0,0,0-.62.79s0,0,0,.06a4.56,4.56,0,0,0,.16,4.77,3.6,3.6,0,0,0,.82.94,2.42,2.42,0,0,0,1.54.58,2,2,0,0,0,1-.26,1.79,1.79,0,0,0,1-1.16c.18-.64.3-1.33.42-2Zm-.1.06c-.12.64-.24,1.31-.4,2a1.78,1.78,0,0,1-.92,1.12,2.26,2.26,0,0,1-2.47-.32,3.49,3.49,0,0,1-.8-.92A4.46,4.46,0,0,1,52.29,9s0,0,0-.06a1.68,1.68,0,0,1,1.52-1,.32.32,0,0,1,.28.1l.21.1a4.32,4.32,0,0,0,1.5.49l.14,0,.06,0a4.73,4.73,0,0,1,.16,1.3,4.44,4.44,0,0,0,.14,1.34l0,.08.06-.06a1.39,1.39,0,0,0,.5-.88,2.28,2.28,0,0,1,.18-.52.43.43,0,0,1,.38-.24.55.55,0,0,1,.18,0c.18.06.26.22.24.46a.85.85,0,0,1-.36.72,1.14,1.14,0,0,0-.5.9ZM56.82,16l0,.12c-.06.22-.12.46-.18.76l0,.12.1-.08c.48-.3.48-.34.2-.8Zm-.08.76q.06-.27.12-.48c.16.26.14.32-.12.48"/><path class="cls-1" d="M57.8,12.45,57.7,12l-.06.14c-.08.22-.18.42-.26.63-.18.44-.34.86-.5,1.26a.76.76,0,0,0-.08.46c.08.38.2.76.3,1.12l.12.36v0l.24,0,.2-.42.54-1.14a.35.35,0,0,0,0-.2q-.18-.9-.42-1.83m.32,2c-.18.38-.38.76-.56,1.14l-.16.36-.1,0a2.42,2.42,0,0,0-.1-.36c-.1-.36-.22-.72-.3-1.1a.7.7,0,0,1,.06-.4c.16-.42.34-.83.52-1.26a4.19,4.19,0,0,1,.2-.49l0,.16c.14.63.28,1.23.4,1.83,0,0,0,.08,0,.14"/><path class="cls-1" d="M53.6,11.6c.12.42-.08.84,0,1.29l.61-.14c0,.1-.06.16-.11.19s-.34.32-.65.23-.17-.3-.15-.47.07-.55.11-.82a1.42,1.42,0,0,1,.1-.29h.12"/><path class="cls-1" d="M55.26,13.51,54.12,14c.14-.49.52-.62.87-.76.08,0,.21.07.31.1a.57.57,0,0,1,0,.14"/><path class="cls-1" d="M55.32,13.32s-.06,0-.1,0-.18-.09-.24,0h0c-.34.14-.72.28-.85.78l0,.1.1,0,1.15-.52h0l0-.22Zm-.1.16-1,.46a1.22,1.22,0,0,1,.79-.6l0,0a.82.82,0,0,1,.16.06l.06,0Z"/><path class="cls-1" d="M54.44,10.61l0,0-.37.07a1,1,0,0,1,.69-.76c.16.39-.16.52-.35.71"/><path class="cls-1" d="M51.86,10.9a.72.72,0,0,1,.86,0s.08.16.05.19-.18.16-.23.14-.39-.21-.68-.37"/><path class="cls-1" d="M55.05,11.14a.29.29,0,0,1-.27.32.31.31,0,0,1,0-.61.3.3,0,0,1,.3.29"/><path class="cls-1" d="M52.79,11.75a.29.29,0,0,1-.26.32.31.31,0,1,1,.26-.32"/><path class="cls-1" d="M58.45,18.86a1.51,1.51,0,0,1-.22,1,16.69,16.69,0,0,1-2.67,3.69A33.49,33.49,0,0,1,50.25,28c-.69.46-1.37.92-2.07,1.36a3.39,3.39,0,0,1-.7.31,1.48,1.48,0,0,1-.35,0l.28-.19c.44-.28.9-.54,1.33-.84a44.78,44.78,0,0,0,5.45-4.25c.62-.6,1.23-1.21,1.8-1.85a11.18,11.18,0,0,0,2.06-3.3c.07-.17.14-.31.4-.3"/><path class="cls-1" d="M58.46,18.75h0c-.32,0-.4.22-.46.38a11.26,11.26,0,0,1-2,3.26c-.52.57-1.1,1.17-1.81,1.85a45,45,0,0,1-5.43,4.25L47.8,29c-.14.1-.3.18-.44.28l-.18.12-.32.24.26,0a.5.5,0,0,0,.16,0,.39.39,0,0,0,.14,0h.1l.06,0a4.66,4.66,0,0,0,.66-.28l2.07-1.36a36.12,36.12,0,0,0,5.33-4.43,17.56,17.56,0,0,0,2.68-3.73,1.53,1.53,0,0,0,.22-1v-.08Zm-11,10.76,0,0h-.08s.06,0,.08,0,.3-.2.46-.28l.88-.56a45.93,45.93,0,0,0,5.45-4.27c.71-.66,1.31-1.28,1.81-1.84a11.7,11.7,0,0,0,2.08-3.33c.06-.16.1-.22.22-.24a1.64,1.64,0,0,1-.22.84,16.14,16.14,0,0,1-2.67,3.67,35.13,35.13,0,0,1-5.26,4.41c-.71.46-1.39.92-2.09,1.36a4.44,4.44,0,0,1-.62.26"/><path class="cls-1" d="M44.14,26.3c.29-.24.57-.5.88-.71a45.79,45.79,0,0,0,5.78-5c.91-.89,1.73-1.87,2.58-2.81l.33-.3a.65.65,0,0,1-.17.67A16.86,16.86,0,0,1,52.05,20,43.6,43.6,0,0,1,46,25.39c-.55.39-1.16.7-1.74,1.05l-.1-.14"/><path class="cls-1" d="M53.79,17.46l0-.14-.12.1s-.08.06-.1.11a1.5,1.5,0,0,0-.22.2c-.28.3-.56.61-.84.94-.56.62-1.12,1.26-1.74,1.86a45.1,45.1,0,0,1-5.78,5c-.2.16-.42.32-.62.5l-.26.22-.06.06.2.28.08,0c.19-.1.36-.22.54-.32.4-.22.83-.46,1.21-.72a46.31,46.31,0,0,0,6.09-5.39,13.87,13.87,0,0,0,1.2-1.48l.28-.38,0,0a.71.71,0,0,0,.16-.75m-.34.65c-.08.12-.18.23-.28.38A11.77,11.77,0,0,1,52,20a43.58,43.58,0,0,1-6.07,5.35,8.36,8.36,0,0,1-1.19.72l-.4.24a1,1,0,0,1,.15-.1c.19-.18.4-.34.59-.5a44.91,44.91,0,0,0,5.8-5c.62-.6,1.2-1.24,1.76-1.88.26-.3.54-.63.82-.92a1.16,1.16,0,0,1,.2-.18.59.59,0,0,1-.18.39Z"/><path class="cls-1" d="M46,27.48c1.13-.84,2.26-1.62,3.31-2.49a26.91,26.91,0,0,0,3-2.85c.9-1,1.86-2,2.79-3l.1.07c-.05.09-.08.2-.14.3a20.84,20.84,0,0,1-3.38,4,25.63,25.63,0,0,1-4.19,3.29c-.33.2-.62.45-1,.65a.36.36,0,0,1-.54,0"/><path class="cls-1" d="M55.28,19.17a.44.44,0,0,1-.1-.08l-.08,0-.06.06-.85.88c-.64.68-1.32,1.38-1.94,2.08a26.15,26.15,0,0,1-3,2.85c-.72.6-1.46,1.14-2.24,1.7-.34.27-.7.53-1,.78l-.1.07.08.09a.61.61,0,0,0,.34.15.39.39,0,0,0,.3-.13h0c.14-.1.28-.22.44-.32s.32-.24.48-.34a25.47,25.47,0,0,0,4.23-3.3,22.8,22.8,0,0,0,3.39-4,1.07,1.07,0,0,0,.1-.22s0-.06,0-.1l0-.08ZM46.94,27.1a3.41,3.41,0,0,1-.44.3l0,0c-.1.06-.18.13-.3.06l.94-.69c.78-.57,1.54-1.13,2.27-1.73a27.76,27.76,0,0,0,3-2.84c.64-.73,1.3-1.41,1.94-2.09l.65-.64a21.56,21.56,0,0,1-3.35,4,27.11,27.11,0,0,1-4.19,3.28,4.39,4.39,0,0,0-.5.34"/><path class="cls-1" d="M42.72,30.46a3.18,3.18,0,0,1,2.52-2.19c-.47.35-.94.66-1.35,1s-.78.78-1.17,1.17"/><path class="cls-1" d="M45.24,28.27h0a1.71,1.71,0,0,0-.77.22,1.3,1.3,0,0,0-.15.1,2,2,0,0,1,.92-.3.11.11,0,0,1-.08.06l-.31.24h0c.14-.1.26-.2.43-.3l0,0Zm-1,.32a5.12,5.12,0,0,0-.63.44,4.22,4.22,0,0,1,.63-.44m-1,1.28a2.28,2.28,0,0,0-.22.22v0c.26-.28.54-.56.82-.82h0c-.2.2-.4.38-.58.58m-.54.48a.76.76,0,0,1,.08-.26,3,3,0,0,1,.48-.72,2.38,2.38,0,0,0-.3.36,0,0,0,0,0,0,0,1.56,1.56,0,0,0-.28.7v0l0,0v0a2.72,2.72,0,0,0,.34-.34c-.12.1-.22.2-.34.32a.12.12,0,0,1,0-.08"/><path class="cls-1" d="M46.45,29.47a3.73,3.73,0,0,1-2.63,1.62l1.37-.83a5,5,0,0,1,1.26-.79"/><path class="cls-1" d="M46.44,29.45a.48.48,0,0,0-.22.12,2.07,2.07,0,0,1,.2-.08h0l0,0v0Zm-.14.3,0,0h0Zm-.5.06-.2.14a.9.9,0,0,0-.18.16l.19-.14a3.48,3.48,0,0,1,.39-.28l.22-.12a.32.32,0,0,0-.22.1.72.72,0,0,0-.2.14m-1.27.84-.2.12-.52.3,0,0h0a1,1,0,0,0,.4-.08,1.13,1.13,0,0,1-.36.06l.5-.28.84-.52a.83.83,0,0,0,.21-.16l-.21.14c-.21.14-.42.26-.66.4m.45.08s0,0,0,0a2.17,2.17,0,0,0,.38-.22,2.28,2.28,0,0,1-.38.2s0,0,0,0"/><path class="cls-1" d="M45.29,29.83a2.43,2.43,0,0,1-2,1,4.74,4.74,0,0,1,2-1"/><path class="cls-1" d="M45.27,29.83a.73.73,0,0,0-.18,0,1.11,1.11,0,0,0-.21.08l-.27.1.48-.16a.73.73,0,0,1,.18,0s0,0,0,0Zm-1,.32-.28.16a3.51,3.51,0,0,1,.56-.26l0,0h0l-.28.12m-1,.64,0,0h.16a2.36,2.36,0,0,0,1-.3,2.61,2.61,0,0,1-1,.28Z"/><path class="cls-1" d="M43.13,30.4a2.6,2.6,0,0,1,1.38-.93,1.82,1.82,0,0,1-1.38.93"/><path class="cls-1" d="M43.15,30.39h0v0h0a.9.9,0,0,0,.38-.1,1.44,1.44,0,0,1-.38.08,2.43,2.43,0,0,1,1.32-.9l0,0c-.4,0-.78.3-1.36.92m.6-.18h0l-.18.1a.71.71,0,0,0,.18-.08s0,0,0,0"/><path class="cls-1" d="M44.15,28.43l-.77.56c0-.5.2-.63.77-.56"/><path class="cls-1" d="M44.15,28.43a1.23,1.23,0,0,0-.26,0,.72.72,0,0,0-.22,0h0a.62.62,0,0,1,.2,0,.9.9,0,0,1,.22,0l-.18.14s0,0,0,0l.18-.12,0,0Zm-.76.54a.81.81,0,0,1,.12-.42.71.71,0,0,0-.14.44v0l0,0,.34-.24a.78.78,0,0,0,.2-.16c-.08,0-.14.1-.22.14l-.32.24m.14-.46v0l0,0Z"/><path class="cls-1" d="M81.22,35.39a.36.36,0,0,0,.19.27c.44.3.8.51,1.4.87a19.26,19.26,0,0,0,2.12.66c.33,0,.82.17,1.16.19.09,0,0-.26.08-.27s0-.08,0-.08l-.63,0a9,9,0,0,1-1.83-.37,12.38,12.38,0,0,1-2.3-1.2.14.14,0,0,0-.19,0"/><path class="cls-1" d="M86.26,37s0-.06-.06-.06h-.26c-.12,0-.26,0-.38,0a5.31,5.31,0,0,1-1.34-.24l-.48-.12a12.32,12.32,0,0,1-2.27-1.18.22.22,0,0,0-.3,0l-.06,0v.06a.45.45,0,0,0,.24.34c.46.3.84.54,1.42.88l.79.26a7.31,7.31,0,0,0,1.36.41l.54.09c.08,0,.16,0,.22,0s.28,0,.4.06a.23.23,0,0,0,.1,0c.06-.07,0-.12,0-.2v0l.06-.06,0,0v0a.1.1,0,0,0,0-.08m-.24.28v0h0l-.22,0-.28-.06a3.21,3.21,0,0,0-.54-.08,8.12,8.12,0,0,1-1.32-.41h0l.48.15a6.87,6.87,0,0,0,1.38.24,1.42,1.42,0,0,0,.3,0H86v.15Zm-2.46-.61-.71-.22c-.32-.2-.58-.34-.8-.5.54.28,1.19.6,1.51.72"/><path class="cls-1" d="M83.41,46.26c0-.25.13-.49.16-.73a20.93,20.93,0,0,1,1.36-4.85c.31-.79.74-1.57,1.11-2.35a2.91,2.91,0,0,0,.1-.28.58.58,0,0,0-.5.31,10.65,10.65,0,0,0-.85,1.44,20.11,20.11,0,0,0-1.53,5.13,9.69,9.69,0,0,0,0,1.32h.17"/><path class="cls-1" d="M86.12,38a.65.65,0,0,0-.56.34l-.2.3a6.66,6.66,0,0,0-.66,1.16,19.68,19.68,0,0,0-1.55,5.13,3.54,3.54,0,0,0,0,.86v.52h.11a.27.27,0,0,0,.14,0h.1l0-.06a.86.86,0,0,1,0-.23,2.58,2.58,0,0,0,.12-.5A20.78,20.78,0,0,1,85,40.69c.22-.52.48-1.06.74-1.56.12-.26.26-.52.38-.78l.06-.18s0-.06,0-.1l0-.1Zm-.18.32c-.12.26-.24.52-.38.78-.24.5-.52,1-.72,1.58a20,20,0,0,0-1.36,4.85,2.14,2.14,0,0,1-.09.34v.06s0,.06,0,.08,0,0,0,.06,0,0,0,.06v-.28a4.51,4.51,0,0,1,0-.9,20.08,20.08,0,0,1,1.55-5.13,6.69,6.69,0,0,1,.66-1.14l.18-.28v0a.48.48,0,0,1,.26-.22,1.38,1.38,0,0,1-.06.16"/><path class="cls-1" d="M83.51,46l-.13,0a16.54,16.54,0,0,1-3.92-1.83c-.64-.38-1.26-.88-1.88-1.32a2.42,2.42,0,0,0-.23-.12.63.63,0,0,0,.23.51,9.17,9.17,0,0,0,1.14,1,15.94,15.94,0,0,0,4.15,2,3.11,3.11,0,0,0,.61.1l0-.29"/><path class="cls-1" d="M83.48,46.22a3.38,3.38,0,0,1-.54-.09,15.35,15.35,0,0,1-4.14-2,6.26,6.26,0,0,1-.9-.76l-.23-.21h0a.42.42,0,0,1-.17-.27l.13.07.61.45c.42.3.84.62,1.27.88a16.32,16.32,0,0,0,3.93,1.82l.07,0a1.11,1.11,0,0,1,0-.19l-.07,0a16.06,16.06,0,0,1-3.91-1.82,14.89,14.89,0,0,1-1.26-.87l-.62-.45-.14-.08-.09,0-.08,0v.14a.71.71,0,0,0,.25.58h0l.23.21a8.08,8.08,0,0,0,.91.77,16.29,16.29,0,0,0,4.16,2,3.35,3.35,0,0,0,.54.08,1.23,1.23,0,0,0,0-.19"/><path class="cls-1" d="M51.44,9.76s-.85-3.42,1.91-4.2,5.57.1,6.63,2.13,4.59,4.43,4.72,5.56.33,1.53,0,1.89-2.28.67-2.28.67-2.4-.46-2.9-1.06a7,7,0,0,0-1-1l-.92-2.4s1.09-1,.47-1.66a15.81,15.81,0,0,0-2.27-1.56L53.23,7.07Z"/><path class="cls-1" d="M58,10.93a.83.83,0,0,0-.14.26l.08-.08a.61.61,0,0,1,.1-.14.7.7,0,0,1,.1-.16.87.87,0,0,0-.14.12M53.25,7l0,0,0,.08-.1.12-.1.14.12-.06.1-.16s0,0,.06,0h0l.06,0s0,0,0,0l-.06,0Zm11.61,7c0-.2-.06-.47-.1-.76-.08-.61-1-1.47-2-2.49A13.82,13.82,0,0,1,60,7.66c-1.07-2-3.87-2.94-6.7-2.14-2.62.74-2,3.87-1.94,4.23v0l0,.1.06-.06v0l1.68-2.57,0,0,.06-.08,0,0L55.84,8.2a14.48,14.48,0,0,1,2.24,1.57.54.54,0,0,1,.18.42,2.38,2.38,0,0,1-.64,1.16l0,0,.52,1.33.16.4,0,.08.1.26,0,.08.12.28v0h0l.4.36.08.08s0,0,0,0,0,0,.06.06l0,0,0,0,.08.08c.08.08.16.2.27.3.52.6,2.84,1.06,2.94,1.08s1.93-.22,2.31-.68c.24-.28.2-.58.1-1.16m-2.41,1.74c-.14,0-2.38-.48-2.86-1a4.14,4.14,0,0,0-.41-.42c0-.06-.06-.08-.08-.08a3.31,3.31,0,0,0-.5-.46l-.4-1-.12-.32L57.94,12v0l-.24-.6a2.23,2.23,0,0,0,.18-.2l.08-.08a.61.61,0,0,1,.1-.14.7.7,0,0,1,.1-.16s0,0,0,0a1.23,1.23,0,0,0,.18-.58.75.75,0,0,0-.2-.5,14.77,14.77,0,0,0-2.28-1.58l-2.51-1-.06,0-.06,0,0,0,0,.08-.1.12-.1.14L51.55,9.49l-.06.1v0l0,0a.87.87,0,0,1,0-.1s0-.08,0-.12a.15.15,0,0,0,0-.08c-.12-.93-.16-3.13,1.94-3.71,2.77-.8,5.53.1,6.58,2.1a14.54,14.54,0,0,0,2.72,3.13c1,1,1.95,1.86,2,2.41,0,.32.08.58.1.78.1.56.14.82-.06,1.06-.36.42-2.11.64-2.25.66"/><path class="cls-1" d="M90.36,59.67c-6-1.79-6.81-5.07-9.23-11.4a54.06,54.06,0,0,0-5.6-11.39l.71-.57c2.61,2.89,4.39,7.84,5.82,11.6,2.33,6.1,3,9.15,8.59,10.8Z"/><path class="cls-1" d="M72.83,34.67a22.83,22.83,0,0,0-9.15-3.21l.14-1a23.15,23.15,0,0,1,9.52,3.34Z"/><path class="cls-1" d="M88.63,26.06a1.51,1.51,0,0,1-.29,1,16.61,16.61,0,0,1-2.94,3.49,33.59,33.59,0,0,1-5.62,4c-.72.4-1.44.81-2.17,1.2a4.07,4.07,0,0,1-.72.25c-.07,0-.16,0-.35-.06l.3-.18c.46-.24.93-.47,1.39-.73A46,46,0,0,0,84,31.17c.66-.54,1.31-1.11,1.93-1.7a11.31,11.31,0,0,0,2.3-3.14c.08-.16.16-.31.42-.27"/><path class="cls-1" d="M88.57,26a.45.45,0,0,0-.45.32,11.42,11.42,0,0,1-2.28,3.11c-.56.54-1.16,1.08-1.92,1.7a45.81,45.81,0,0,1-5.74,3.83c-.31.18-.62.34-.94.5l-.46.24-.14.08-.38.22.26.06a.38.38,0,0,1,.16,0l.18,0h.06l.06,0a4.6,4.6,0,0,0,.68-.24c.71-.38,1.39-.78,2.17-1.2a32.74,32.74,0,0,0,5.63-4,16.82,16.82,0,0,0,3-3.51,1.65,1.65,0,0,0,.3-1V26Zm-11.65,9.9-.06,0H76.8a.28.28,0,0,0,.08-.06,4.81,4.81,0,0,0,.46-.22c.3-.16.63-.32,1-.5A45.41,45.41,0,0,0,84,31.25c.76-.64,1.38-1.18,1.94-1.72a11.8,11.8,0,0,0,2.33-3.15c.06-.14.1-.22.24-.22a1.55,1.55,0,0,1-.31.82,15.9,15.9,0,0,1-2.9,3.45,32.48,32.48,0,0,1-5.61,4c-.76.44-1.47.82-2.17,1.2a3.45,3.45,0,0,1-.64.22"/><path class="cls-1" d="M90.65,23.63a1.18,1.18,0,0,1,.26.83,13.82,13.82,0,0,1-.58,4.05,34.6,34.6,0,0,1-2.53,5.9c-.37.69-.74,1.38-1.13,2.06a3.06,3.06,0,0,1-.44.58c0,.06-.15.08-.32.16l.15-.29c.24-.43.51-.85.73-1.3a45.48,45.48,0,0,0,2.71-5.86,23.45,23.45,0,0,0,.69-2.26,9,9,0,0,0,.25-3.44.35.35,0,0,1,.21-.43"/><path class="cls-1" d="M90.71,23.56l0-.06-.08,0a.43.43,0,0,0-.24.54,9.19,9.19,0,0,1-.26,3.41,22.28,22.28,0,0,1-.68,2.24A46.51,46.51,0,0,1,86.9,35.2l-.2.38c-.14.28-.32.58-.48.84a2.32,2.32,0,0,1-.26.44s0,0,0,.06,0,.07-.06.09h0l0,.08-.06.15-.06.08,0,.1.16-.09.1,0a.06.06,0,0,1,.06,0l0,0s.06,0,.08,0h0a1.16,1.16,0,0,0,.16-.08l0,0,.06,0a5.82,5.82,0,0,0,.4-.55l1.08-2,0-.08a34.2,34.2,0,0,0,2.55-5.91A14.18,14.18,0,0,0,91,24.46a1.29,1.29,0,0,0-.3-.9m-3,10.9c-.36.64-.7,1.3-1.08,2a3,3,0,0,1-.38.5l0,.07,0,0s0,0,0,0,0,0,0,0a3.52,3.52,0,0,0,.24-.4c.16-.28.32-.56.48-.86l.2-.36a47.21,47.21,0,0,0,2.53-5.51c.3-.86.5-1.58.68-2.27A9.08,9.08,0,0,0,90.53,24c0-.12,0-.2.1-.28a1.15,1.15,0,0,1,.18.7,13.72,13.72,0,0,1-.58,4,32.84,32.84,0,0,1-2.53,5.87Z"/><path class="cls-1" d="M74.12,32.77c.29-.23.58-.48.89-.7a46.38,46.38,0,0,0,5.86-4.88c.92-.88,1.75-1.85,2.63-2.77a3.5,3.5,0,0,1,.33-.3.65.65,0,0,1-.18.67,20.61,20.61,0,0,1-1.52,1.84A44.22,44.22,0,0,1,76,31.89c-.56.39-1.17.68-1.76,1l-.09-.14"/><path class="cls-1" d="M83.92,24.1l0-.16-.12.1-.12.12a1,1,0,0,0-.2.2c-.31.28-.57.6-.85.9-.58.62-1.16,1.26-1.78,1.84A43.62,43.62,0,0,1,75,32c-.22.15-.45.33-.64.49s-.18.13-.26.21l-.08.07.22.28.06,0c.18-.1.38-.2.56-.31A10.58,10.58,0,0,0,76,32a43.4,43.4,0,0,0,6.19-5.27c.44-.46.84-1,1.23-1.48.09-.12.2-.24.3-.38v0a.68.68,0,0,0,.18-.72m-.34.62c-.1.14-.2.26-.3.38a15.62,15.62,0,0,1-1.21,1.46,44.38,44.38,0,0,1-6.15,5.25,12.19,12.19,0,0,1-1.2.71c-.12.08-.26.14-.4.22,0-.05.08-.06.12-.1.2-.16.42-.34.62-.48A46.94,46.94,0,0,0,81,27.27c.62-.61,1.2-1.25,1.78-1.89l.85-.9.18-.16c0,.16-.08.26-.16.38Z"/><path class="cls-1" d="M75.58,33.73c1.19-.76,2.38-1.45,3.49-2.24a26.62,26.62,0,0,0,3.21-2.62c1-.94,2-1.83,3-2.74l.09.07a2,2,0,0,1-.16.29,21,21,0,0,1-3.67,3.74,25,25,0,0,1-4.43,3c-.34.18-.65.4-1,.58-.14.07-.31.2-.55-.05"/><path class="cls-1" d="M85.44,26.12s-.06-.06-.1-.08l-.06,0-.06.06c-.3.26-.62.54-.92.83-.71.61-1.4,1.26-2.09,1.92a28.46,28.46,0,0,1-3.2,2.6c-.77.54-1.57,1-2.39,1.55-.36.24-.72.46-1.08.68l-.12.08.1.08a.44.44,0,0,0,.34.18.51.51,0,0,0,.28-.1l0,0c.16-.08.3-.18.46-.26a4.4,4.4,0,0,1,.52-.3,27.08,27.08,0,0,0,4.45-3,20.46,20.46,0,0,0,3.67-3.77.72.72,0,0,0,.14-.2.34.34,0,0,1,0-.1l0-.06Zm-.32.32a19.5,19.5,0,0,1-3.65,3.71,26.46,26.46,0,0,1-4.41,3,4.4,4.4,0,0,0-.52.3l-.46.28,0,0c-.1,0-.18.08-.28,0l1-.6c.84-.52,1.62-1,2.41-1.57A26.75,26.75,0,0,0,82.35,29c.68-.66,1.39-1.3,2.09-1.93.24-.22.5-.44.74-.68l-.06.1"/><path class="cls-1" d="M72.73,36a3.19,3.19,0,0,1,2.67-2c-.49.31-1,.58-1.42.91s-.84.72-1.25,1.08"/><path class="cls-1" d="M75.28,34a1.13,1.13,0,0,0-.36.06,2.2,2.2,0,0,1,.36,0h.1l-.46.28c-.16.1-.32.2-.48.32l.5-.3.46-.3h0l0,0Zm-2.17,1.64c-.12.12-.24.22-.38.34s0-.06,0-.08,0,.06,0,.1v0l0,0,.4-.34a6.59,6.59,0,0,1,.85-.72,3.76,3.76,0,0,1,.46-.32,3.64,3.64,0,0,0-.46.3c-.31.22-.59.48-.87.72m.61-1h0a2.15,2.15,0,0,0-.35.32,2.2,2.2,0,0,0-.3.32,1.24,1.24,0,0,0-.22.34,1.13,1.13,0,0,0-.08.24,2.09,2.09,0,0,1,.62-.9,3.7,3.7,0,0,1,.35-.32"/><path class="cls-1" d="M76.52,35.29a3.73,3.73,0,0,1-2.74,1.42L75.21,36a4.73,4.73,0,0,1,1.31-.7"/><path class="cls-1" d="M76.52,35.28a1.27,1.27,0,0,0-.36.12,2.7,2.7,0,0,0-.52.3,3.29,3.29,0,0,1-.44.28c-.3.16-.6.3-.92.46-.16.08-.32.18-.5.26l0,0h.08a2.28,2.28,0,0,0,.76-.14,2.59,2.59,0,0,1-.74.12l.44-.24.23-.12c.25-.12.49-.22.71-.34a2.61,2.61,0,0,0,.3-.2.5.5,0,0,0,.14-.08c.14-.08.26-.18.4-.26l.18-.08a1,1,0,0,1,.26-.08,1.67,1.67,0,0,1-.16.24,3.36,3.36,0,0,1-.8.62,2.75,2.75,0,0,0,.82-.62.84.84,0,0,0,.16-.24l0,0Zm-1.3,1.06a.35.35,0,0,0,.16-.1,5.41,5.41,0,0,1-.78.34,4,4,0,0,0,.62-.24"/><path class="cls-1" d="M75.34,35.57a2.44,2.44,0,0,1-2,.81,4.72,4.72,0,0,1,2-.81"/><path class="cls-1" d="M75.34,35.56h0a2.39,2.39,0,0,0-.7.16,1.69,1.69,0,0,0-.28.12l.28-.1a2.39,2.39,0,0,1,.7-.16h0l-.12.14a.47.47,0,0,0,.14-.14l0,0Zm-.8.6.24-.12a1.47,1.47,0,0,1-.34.15l.1,0m-1.23.22a.61.61,0,0,0,.24,0,2.22,2.22,0,0,0,.89-.23,2.47,2.47,0,0,1-.91.22c-.08,0-.16,0-.22,0m0,0v0h0a3.6,3.6,0,0,1,.43-.28,2,2,0,0,0-.45.26"/><path class="cls-1" d="M73.14,36a2.62,2.62,0,0,1,1.44-.82,1.77,1.77,0,0,1-1.44.82"/><path class="cls-1" d="M74.6,35.14h0a.8.8,0,0,0-.3.06,2.16,2.16,0,0,0-.71.4l-.44.36v0h.1a.79.79,0,0,0,.28-.06,1.57,1.57,0,0,1-.28,0h-.06a2.71,2.71,0,0,1,1.39-.8,2.39,2.39,0,0,1-.21.26,1.5,1.5,0,0,0,.25-.26ZM74,35.7l.19-.12.12-.12,0,0-.06.06a2.09,2.09,0,0,1-.28.22"/><path class="cls-1" d="M74.3,34.09l-.8.5c0-.5.24-.62.8-.5"/><path class="cls-1" d="M74.3,34.08a.79.79,0,0,0-.54,0,.62.62,0,0,1,.22,0,2.08,2.08,0,0,1,.3,0h0l0,0Zm-.75.24a.55.55,0,0,0-.06.26v0l.79-.5c-.28.16-.52.3-.77.46a.75.75,0,0,1,0-.24"/><path class="cls-1" d="M89.09,14.26a6.2,6.2,0,0,0-1.61-1.77,12.78,12.78,0,0,0-3.24-.8h-.06a4.33,4.33,0,0,0-2.51,1c-1,1-.76,2.77-.7,3.27a.34.34,0,0,0,0,.14s0,0,0,0a.25.25,0,0,0,0,.12c0,.08,0,.14,0,.2a4,4,0,0,0-.2,1.81,4.83,4.83,0,0,0,1.6,3.52,2.71,2.71,0,0,0,3.75.14.42.42,0,0,0,.12-.08s0,0,0,0a.88.88,0,0,1,.1.85,7.19,7.19,0,0,0-.24.94c0,.12-.06.24-.1.34s0,.22-.06.32a.25.25,0,0,1,0,.12v0l.16.12,0,0a.81.81,0,0,1,.18-.1,1,1,0,0,0,.36-.28,1,1,0,0,1,1.14-.24c.57.14.73,0,.87-.48s.26-1,.38-1.65c.08-.32.1-.5,0-.6s-.28-.16-.66-.2c0-.2-.1-.42-.14-.62s-.1-.38-.14-.58a.28.28,0,0,0,0-.12.09.09,0,0,0,0-.08,5,5,0,0,0-.18-.74l0,0c-.12-.47-.24-.86.25-1.21a.72.72,0,0,0,.14-.24c0-.28.24-.3.5-.34a.8.8,0,0,0,.64-.32s0-.06,0-.1,0,0,0,0,0,0,0-.06a3.64,3.64,0,0,0-.34-2.24M88,21.19a.17.17,0,0,1,0,.14c-.19.38-.37.78-.57,1.17l-.18.4h0a.07.07,0,0,0-.06,0L87,22.51c-.1-.38-.22-.76-.32-1.14a.7.7,0,0,1,.08-.44c.18-.46.38-.94.58-1.44l.16-.38.08.38c.14.6.26,1.14.39,1.7m-1.59-.52a1.79,1.79,0,0,1-.94,1.18,2.31,2.31,0,0,1-2.57-.34,3.69,3.69,0,0,1-.84-.94,4.6,4.6,0,0,1-.2-4.77l2.37-1a3.86,3.86,0,0,0,1.34.42l.14,0a.12.12,0,0,0,.08,0,4.5,4.5,0,0,1,.16,1.38A5.7,5.7,0,0,0,86,18.07l0,.08.06-.06a1.53,1.53,0,0,0,.52-.93,1.91,1.91,0,0,1,.18-.54.49.49,0,0,1,.58-.24c.2.08.28.22.26.5a.86.86,0,0,1-.38.72,1.28,1.28,0,0,0-.5,1l0,.08a16.56,16.56,0,0,1-.42,2m.14,3.07a2.49,2.49,0,0,0,.08-.32l.06-.22c.16.3.14.34-.14.54m1.75-2.19a.29.29,0,0,1,.12-.14c.06,0,.12,0,.24,0l0,.12a9.31,9.31,0,0,1-.44,2l-.75-.2.28-.58c.18-.43.39-.85.57-1.25"/><path class="cls-1" d="M87.66,19.47,87.57,19a.44.44,0,0,1-.07-.24l-.28.66c-.2.5-.4,1-.58,1.44a.88.88,0,0,0-.08.5c.1.38.22.76.34,1.15a2.34,2.34,0,0,1,.1.4l0,0,0,0h.1s0,0,.08,0l0,0,.23-.48c.17-.39.35-.79.53-1.17a.21.21,0,0,0,0-.22c-.12-.54-.23-1.1-.38-1.68m.28,1.86c-.18.38-.36.79-.55,1.16l-.19.41h0a.07.07,0,0,0-.06,0L87,22.51c-.1-.38-.22-.76-.32-1.14a.7.7,0,0,1,.08-.44c.18-.46.38-.94.58-1.44l.17-.38.08.38.37,1.7a.12.12,0,0,1,0,.14"/><path class="cls-1" d="M83.23,18.4c.12.44-.09.87,0,1.33l.64-.14c-.06.1-.07.16-.12.19s-.36.35-.67.25-.18-.31-.17-.48S83,19,83,18.69c0-.1.06-.21.09-.31l.14,0"/><path class="cls-1" d="M85,20.38l-1.2.55c.15-.52.55-.65.91-.8.08,0,.22.07.33.1a.83.83,0,0,0,0,.15"/><path class="cls-1" d="M85,20.19s-.06,0-.1,0a.48.48,0,0,0-.26-.06l0,0a1.23,1.23,0,0,0-.9.8l0,.1.3-.12c.36-.18.68-.32,1-.46l0,0v0a.07.07,0,0,1,0-.06s0-.06,0-.08v0Zm-.08.1s0,0,0,.06l-1,.44-.1,0a1.21,1.21,0,0,1,.8-.64h0a0,0,0,0,1,0,0,.82.82,0,0,1,.16.06l.06,0Z"/><path class="cls-1" d="M84.1,17.36l0,0-.37.07a1,1,0,0,1,.7-.79c.17.4-.16.54-.35.74"/><path class="cls-1" d="M81.41,17.67a.77.77,0,0,1,.9,0s.08.17,0,.2-.18.16-.24.14a7.62,7.62,0,0,1-.71-.38"/><path class="cls-1" d="M84.73,17.91a.3.3,0,0,1-.27.33.31.31,0,0,1-.32-.29.3.3,0,0,1,.28-.33.29.29,0,0,1,.31.29"/><path class="cls-1" d="M82.39,18.55a.31.31,0,0,1-.28.34.3.3,0,0,1-.31-.29.31.31,0,0,1,.27-.34.32.32,0,0,1,.32.29"/><path class="cls-1" d="M91.1,18.62a1.81,1.81,0,1,1-1.54-2.05,1.81,1.81,0,0,1,1.54,2.05"/><path class="cls-1" d="M90.79,17.24a1.89,1.89,0,0,0-1.22-.72.34.34,0,0,1-.14,0,1.82,1.82,0,0,0-1.24.38,1.89,1.89,0,0,0-.73,1.23,1.56,1.56,0,0,0,0,.68.53.53,0,0,0,.06.24,1.66,1.66,0,0,0,.55.76,1.73,1.73,0,0,0,.94.42,1.14,1.14,0,0,0,.26,0,1.87,1.87,0,0,0,1.84-1.6,1.92,1.92,0,0,0-.36-1.39m-1.72,2.87a1.79,1.79,0,0,1-1-.52,1.73,1.73,0,0,1-.48-1.46A1.8,1.8,0,0,1,88.25,17a1.74,1.74,0,0,1,1.06-.36h.1a.34.34,0,0,0,.14,0,1.71,1.71,0,0,1,1.16.68,1.83,1.83,0,0,1,.34,1.31,1.76,1.76,0,0,1-1.74,1.52,1,1,0,0,1-.24,0"/><path class="cls-1" d="M42.82,28.25c.38.44-.26,1.26-.26,1.26s-1.12-.28-10-2.35c-4.65-1.08-7.42-3-9-4.71a8.26,8.26,0,0,1-1.24-1.66L22,19.13h.2l.5,0v0a6.26,6.26,0,0,0,.79,1.6.1.1,0,0,1,0,.08c.18.26.4.52.64.82,1.36,1.57,3.91,3.47,8.62,4.55,3.62.84,6.29,1.39,8.15,1.73.76.16,1.91.32,1.93.34"/><path class="cls-1" d="M72.3,54.71a.18.18,0,0,0,.14.14c.6,0,1.34-.1,1.7-.14l2.43-.24a19,19,0,0,1-1-3.76c0-.21-.37.13-.81,0a10.93,10.93,0,0,0,.76,3,11.33,11.33,0,0,0-2.75.5c-.23.08-.57.15-.44.46"/><path class="cls-1" d="M78.6,54.72a.56.56,0,0,1-.13-.32c0-.14,1.39-.39,2.15-1.06a.71.71,0,0,0,.26-.55c0-.39.08-.78.13-1.16,0-.12,0-.3.2-.29s.19,0,.18.16c0,.7,0,1.19-.06,1.9,0,.15.12.57,0,.65s-2.66.7-2.7.67"/><path class="cls-1" d="M81.27,53.71a1.21,1.21,0,0,0-1.38-1.26c-.91,0-2.83,2.24-2.83,2.24l1.54,0L80.43,54Z"/><path class="cls-1" d="M76.57,54.47s-.41-1-.53-1a14.61,14.61,0,0,0-3.19.21c-.73.28-2,1-1.93,1.17a9.46,9.46,0,0,0,2.06,0c.12,0,3.59-.36,3.59-.36"/><path class="cls-1" d="M2.38,82.85A1.42,1.42,0,0,1,2,84a1.76,1.76,0,0,1-1.16.35l-.39,0-.35-.07v-.9l.28,0H.59a.91.91,0,0,0,.55-.13.55.55,0,0,0,.19-.49V79.07h1Z"/><path class="cls-1" d="M6.87,82.53a2,2,0,0,1-.14.74,1.7,1.7,0,0,1-.37.57,1.68,1.68,0,0,1-.57.36,1.94,1.94,0,0,1-.7.12,2,2,0,0,1-.7-.12,1.68,1.68,0,0,1-.57-.36,1.87,1.87,0,0,1-.37-.57,2,2,0,0,1-.14-.74V80.36H4.36v2.25a.74.74,0,0,0,.21.55.75.75,0,0,0,.52.2.7.7,0,0,0,.73-.75V80.36h1Z"/><path class="cls-1" d="M9.88,80.27a1.51,1.51,0,0,1,.61.12,1.23,1.23,0,0,1,.46.32,1.43,1.43,0,0,1,.29.48,1.87,1.87,0,0,1,.1.64v2.4H10.29V82a.76.76,0,0,0-.19-.54.69.69,0,0,0-.53-.21.72.72,0,0,0-.53.21.77.77,0,0,0-.2.54v2.26H7.78V80.36h1v.36a1.66,1.66,0,0,1,.49-.32A1.59,1.59,0,0,1,9.88,80.27Z"/><path class="cls-1" d="M14.62,81.25h-1.1v1.53a.56.56,0,0,0,.18.47,1,1,0,0,0,.54.13h.22l.28,0v.88l-.34.07-.39,0A1.66,1.66,0,0,1,12.88,84a1.34,1.34,0,0,1-.41-1.1V81.25h-.61v-.89h.61v-1h1v1h1.1Z"/><path class="cls-1" d="M17.45,82.24l1.43,2H17.7L16.87,83,16,84.23H14.86l1.42-2L15,80.36h1.18l.74,1.11.74-1.11h1.18Z"/><path class="cls-1" d="M20.68,80.27a1.78,1.78,0,0,1,1.39.58l-.53.65a1.33,1.33,0,0,0-.41-.27,1.22,1.22,0,0,0-.46-.09.67.67,0,0,0-.3.06.24.24,0,0,0-.11.21.22.22,0,0,0,.1.19,1.36,1.36,0,0,0,.3.15l.38.16a2.56,2.56,0,0,1,.8.47.91.91,0,0,1,.29.71,1.15,1.15,0,0,1-.12.53,1.18,1.18,0,0,1-.32.38,1.35,1.35,0,0,1-.48.24,1.91,1.91,0,0,1-.59.08,2,2,0,0,1-.93-.2,1.73,1.73,0,0,1-.67-.55l.53-.64a2.19,2.19,0,0,0,.5.39,1.27,1.27,0,0,0,.58.14.75.75,0,0,0,.35-.08.25.25,0,0,0,.15-.24.25.25,0,0,0-.11-.21l-.29-.15-.42-.17a3.61,3.61,0,0,1-.44-.21,1.2,1.2,0,0,1-.33-.25,1,1,0,0,1-.28-.72,1.07,1.07,0,0,1,.1-.49,1,1,0,0,1,.3-.37,1.35,1.35,0,0,1,.45-.22A1.79,1.79,0,0,1,20.68,80.27Z"/><path class="cls-1" d="M26.22,80.27a1.77,1.77,0,0,1,1.39.58l-.53.65a1.24,1.24,0,0,0-.87-.36.67.67,0,0,0-.3.06.24.24,0,0,0-.11.21.22.22,0,0,0,.1.19,1.49,1.49,0,0,0,.31.15l.37.16a2.74,2.74,0,0,1,.81.47.94.94,0,0,1,.28.71,1.15,1.15,0,0,1-.12.53,1.07,1.07,0,0,1-.32.38,1.35,1.35,0,0,1-.48.24,1.91,1.91,0,0,1-.59.08,2,2,0,0,1-.93-.2,1.73,1.73,0,0,1-.67-.55l.53-.64a2,2,0,0,0,.51.39,1.23,1.23,0,0,0,.57.14.72.72,0,0,0,.35-.08.25.25,0,0,0,.15-.24.25.25,0,0,0-.11-.21l-.29-.15-.42-.17a3.61,3.61,0,0,1-.44-.21,1.2,1.2,0,0,1-.33-.25,1,1,0,0,1-.28-.72,1.07,1.07,0,0,1,.1-.49,1.09,1.09,0,0,1,.3-.37,1.31,1.31,0,0,1,.46-.22A1.69,1.69,0,0,1,26.22,80.27Z"/><path class="cls-1" d="M30.22,80.27a2.15,2.15,0,0,1,.8.16,2,2,0,0,1,.67.43,2.16,2.16,0,0,1,.44.63,1.94,1.94,0,0,1,.17.8,1.91,1.91,0,0,1-.17.8,2.08,2.08,0,0,1-.44.64,2,2,0,0,1-.67.43,2.11,2.11,0,0,1-1.61,0,1.89,1.89,0,0,1-.66-.43,2,2,0,0,1-.45-.64,2.08,2.08,0,0,1-.16-.8,2.11,2.11,0,0,1,.16-.8,2,2,0,0,1,.45-.63,1.94,1.94,0,0,1,.65-.43A2.18,2.18,0,0,1,30.22,80.27Zm0,1a1,1,0,0,0-.73.3,1.09,1.09,0,0,0-.27.76,1,1,0,0,0,.27.75,1,1,0,0,0,.73.3,1,1,0,0,0,.71-.3.93.93,0,0,0,.21-.33,1.14,1.14,0,0,0,0-.84,1,1,0,0,0-.21-.34,1,1,0,0,0-.32-.22A.85.85,0,0,0,30.22,81.24Z"/><path class="cls-1" d="M37.52,80.27a1.48,1.48,0,0,1,.61.12,1.19,1.19,0,0,1,.47.32,1.27,1.27,0,0,1,.28.48,1.87,1.87,0,0,1,.1.64v2.4H37.92V82a.78.78,0,0,0-.18-.55.65.65,0,0,0-.5-.2.66.66,0,0,0-.52.2.72.72,0,0,0-.2.53v2.27H35.47V82a.74.74,0,0,0-.19-.55.63.63,0,0,0-.51-.2.66.66,0,0,0-.51.2.74.74,0,0,0-.19.55v2.25H33V80.36h1v.35a1.27,1.27,0,0,1,.47-.32,1.54,1.54,0,0,1,.63-.12,1.41,1.41,0,0,1,.67.15,1.24,1.24,0,0,1,.47.41,1.59,1.59,0,0,1,.55-.4A1.8,1.8,0,0,1,37.52,80.27Z"/><path class="cls-1" d="M41.74,80.27a2.25,2.25,0,0,1,.81.16,2.09,2.09,0,0,1,.66.43,2.16,2.16,0,0,1,.44.63,1.94,1.94,0,0,1,.17.8,1.91,1.91,0,0,1-.17.8,2,2,0,0,1-1.1,1.07,2.25,2.25,0,0,1-.81.16,2.17,2.17,0,0,1-.81-.16,1.89,1.89,0,0,1-.66-.43,1.79,1.79,0,0,1-.44-.64,1.91,1.91,0,0,1-.16-.8,1.94,1.94,0,0,1,.16-.8,1.84,1.84,0,0,1,.44-.63,1.94,1.94,0,0,1,.65-.43A2.22,2.22,0,0,1,41.74,80.27Zm0,1a1,1,0,0,0-.73.3,1.09,1.09,0,0,0-.27.76,1,1,0,0,0,.27.75,1,1,0,0,0,.73.3,1,1,0,0,0,.71-.3.93.93,0,0,0,.21-.33,1.14,1.14,0,0,0,0-.84,1,1,0,0,0-.21-.34,1,1,0,0,0-.32-.22A.85.85,0,0,0,41.74,81.24Z"/><path class="cls-1" d="M45.85,80.27a1.78,1.78,0,0,1,1.39.58l-.53.65a1.33,1.33,0,0,0-.41-.27,1.22,1.22,0,0,0-.46-.09.67.67,0,0,0-.3.06.22.22,0,0,0-.11.21.23.23,0,0,0,.09.19,1.8,1.8,0,0,0,.31.15l.38.16a2.56,2.56,0,0,1,.8.47.91.91,0,0,1,.29.71,1.15,1.15,0,0,1-.12.53,1.18,1.18,0,0,1-.32.38,1.35,1.35,0,0,1-.48.24,2,2,0,0,1-.59.08,2,2,0,0,1-.93-.2,1.84,1.84,0,0,1-.68-.55l.54-.64a2.19,2.19,0,0,0,.5.39,1.27,1.27,0,0,0,.58.14.75.75,0,0,0,.35-.08.24.24,0,0,0,.14-.24.23.23,0,0,0-.11-.21l-.28-.15-.42-.17A3,3,0,0,1,45,82.4a1.2,1.2,0,0,1-.33-.25,1,1,0,0,1-.28-.72,1.07,1.07,0,0,1,.1-.49,1,1,0,0,1,.3-.37,1.35,1.35,0,0,1,.45-.22A1.79,1.79,0,0,1,45.85,80.27Z"/><path class="cls-1" d="M54.58,80.27a1.56,1.56,0,0,1,.62.12,1.23,1.23,0,0,1,.46.32,1.27,1.27,0,0,1,.28.48,1.87,1.87,0,0,1,.1.64v2.4H55V82a.78.78,0,0,0-.19-.55.63.63,0,0,0-.5-.2.66.66,0,0,0-.52.2.72.72,0,0,0-.19.53v2.27H52.53V82a.74.74,0,0,0-.19-.55.63.63,0,0,0-.51-.2.66.66,0,0,0-.51.2.78.78,0,0,0-.19.55v2.25H50.08V80.36h1v.35a1.23,1.23,0,0,1,.46-.32,1.61,1.61,0,0,1,.63-.12,1.45,1.45,0,0,1,.68.15,1.21,1.21,0,0,1,.46.41,1.63,1.63,0,0,1,.56-.4A1.75,1.75,0,0,1,54.58,80.27Z"/><path class="cls-1" d="M58.53,80.27a2.11,2.11,0,0,1,.68.11,1.44,1.44,0,0,1,.52.31,1.35,1.35,0,0,1,.34.52,2,2,0,0,1,.12.72v2.3h-1v-.38a1.5,1.5,0,0,1-.5.35,1.88,1.88,0,0,1-.69.12,1.64,1.64,0,0,1-.56-.09,1.22,1.22,0,0,1-.42-.24,1.07,1.07,0,0,1-.27-.36,1.17,1.17,0,0,1-.08-.46,1,1,0,0,1,.39-.83,1.72,1.72,0,0,1,1.07-.3h1v-.17a.68.68,0,0,0-.18-.5.73.73,0,0,0-.54-.18,1.1,1.1,0,0,0-.55.14,2.06,2.06,0,0,0-.48.39l-.54-.65A2.09,2.09,0,0,1,58.53,80.27Zm-.21,3.28a.87.87,0,0,0,.59-.21.74.74,0,0,0,.23-.56v0h-.82q-.54,0-.54.39a.36.36,0,0,0,.15.31A.67.67,0,0,0,58.32,83.55ZM60,78.32l-1.07,1.45h-.77l.56-1.64H60Z"/><path class="cls-1" d="M62.42,80.27a1.78,1.78,0,0,1,1.39.58l-.53.65a1.33,1.33,0,0,0-.41-.27,1.22,1.22,0,0,0-.46-.09.67.67,0,0,0-.3.06.22.22,0,0,0-.11.21.23.23,0,0,0,.09.19,1.8,1.8,0,0,0,.31.15l.38.16a2.56,2.56,0,0,1,.8.47.91.91,0,0,1,.29.71,1.15,1.15,0,0,1-.12.53,1.18,1.18,0,0,1-.32.38,1.35,1.35,0,0,1-.48.24,2,2,0,0,1-.59.08,2,2,0,0,1-.93-.2,1.84,1.84,0,0,1-.68-.55l.54-.64a2.19,2.19,0,0,0,.5.39,1.27,1.27,0,0,0,.58.14.75.75,0,0,0,.35-.08.24.24,0,0,0,.14-.24.23.23,0,0,0-.11-.21l-.28-.15-.42-.17a3,3,0,0,1-.44-.21,1.2,1.2,0,0,1-.33-.25,1,1,0,0,1-.28-.72,1.07,1.07,0,0,1,.1-.49,1,1,0,0,1,.3-.37,1.35,1.35,0,0,1,.45-.22A1.79,1.79,0,0,1,62.42,80.27Z"/><path class="cls-1" d="M68.73,81.25h-.85v3h-1v-3h-.55v-.89h.55v-.63a1.39,1.39,0,0,1,.4-1.1,1.59,1.59,0,0,1,1.09-.36,1.51,1.51,0,0,1,.32,0,1.43,1.43,0,0,1,.26.06v.88l-.32,0a.86.86,0,0,0-.53.13.58.58,0,0,0-.17.47v.54h.85Z"/><path class="cls-1" d="M72.74,82.53a2,2,0,0,1-.14.74,1.73,1.73,0,0,1-.38.57,1.54,1.54,0,0,1-.56.36,2,2,0,0,1-.7.12,2.08,2.08,0,0,1-.71-.12,1.74,1.74,0,0,1-.56-.36,1.7,1.7,0,0,1-.37-.57,2,2,0,0,1-.14-.74V80.36h1v2.25a.73.73,0,1,0,1.46,0V80.36h1Z"/><path class="cls-1" d="M75.46,80.27a1.86,1.86,0,0,1,.75.15,1.73,1.73,0,0,1,.57.38,1.7,1.7,0,0,1,.37.57,2,2,0,0,1,.13.7,1.66,1.66,0,0,1,0,.32c0,.11,0,.19,0,.26H74.49a.9.9,0,0,0,.39.57,1.24,1.24,0,0,0,.71.2,1.48,1.48,0,0,0,.57-.11,2.12,2.12,0,0,0,.51-.28l.43.71a2.5,2.5,0,0,1-.71.43,2.31,2.31,0,0,1-.83.15,2.34,2.34,0,0,1-.85-.15,2.13,2.13,0,0,1-.68-.43,2.35,2.35,0,0,1-.44-.64,2.08,2.08,0,0,1,0-1.6,2,2,0,0,1,1.07-1.07A2.15,2.15,0,0,1,75.46,80.27Zm0,.86a1,1,0,0,0-.59.2,1,1,0,0,0-.34.58h1.77a.77.77,0,0,0-.26-.58A.84.84,0,0,0,75.42,81.13Z"/><path class="cls-1" d="M80,80.31a1,1,0,0,1,.33,0v.93h-.28a1.12,1.12,0,0,0-.74.24,1,1,0,0,0-.29.77v1.93H78V80.36h1v.46a1.4,1.4,0,0,1,.46-.38A1.5,1.5,0,0,1,80,80.31Z"/><path class="cls-1" d="M83.3,81.25H82.19v1.53a.56.56,0,0,0,.18.47,1,1,0,0,0,.54.13h.22l.28,0v.88l-.34.07-.38,0A1.69,1.69,0,0,1,81.55,84a1.38,1.38,0,0,1-.41-1.1V81.25h-.61v-.89h.61v-1h1v1H83.3Z"/><path class="cls-1" d="M85.8,80.27a1.83,1.83,0,0,1,.75.15,1.73,1.73,0,0,1,.57.38,1.7,1.7,0,0,1,.37.57,2,2,0,0,1,.13.7,1.66,1.66,0,0,1,0,.32c0,.11,0,.19,0,.26H84.83a1,1,0,0,0,.39.57,1.24,1.24,0,0,0,.71.2,1.48,1.48,0,0,0,.57-.11A2.12,2.12,0,0,0,87,83l.43.71a2.5,2.5,0,0,1-.71.43,2.27,2.27,0,0,1-.83.15,2.34,2.34,0,0,1-.85-.15,2.25,2.25,0,0,1-.68-.43,2.35,2.35,0,0,1-.44-.64,2.11,2.11,0,0,1-.16-.8,1.94,1.94,0,0,1,.16-.8A2,2,0,0,1,85,80.43,2.15,2.15,0,0,1,85.8,80.27Zm0,.86a1,1,0,0,0-.6.2,1.09,1.09,0,0,0-.34.58H86.6a.74.74,0,0,0-.26-.58A.83.83,0,0,0,85.77,81.13Z"/><path class="cls-1" d="M89.65,80.27a1.78,1.78,0,0,1,1.39.58l-.53.65a1.24,1.24,0,0,0-.87-.36.67.67,0,0,0-.3.06.24.24,0,0,0-.11.21.22.22,0,0,0,.1.19,1.36,1.36,0,0,0,.3.15l.38.16a2.74,2.74,0,0,1,.81.47.94.94,0,0,1,.28.71,1.15,1.15,0,0,1-.12.53,1.18,1.18,0,0,1-.32.38,1.35,1.35,0,0,1-.48.24,1.91,1.91,0,0,1-.59.08,2,2,0,0,1-.93-.2,1.73,1.73,0,0,1-.67-.55l.53-.64a2,2,0,0,0,.51.39,1.23,1.23,0,0,0,.57.14.75.75,0,0,0,.35-.08.25.25,0,0,0,.15-.24.25.25,0,0,0-.11-.21l-.29-.15-.42-.17a3.61,3.61,0,0,1-.44-.21,1.2,1.2,0,0,1-.33-.25,1,1,0,0,1-.28-.72,1.07,1.07,0,0,1,.1-.49,1,1,0,0,1,.3-.37,1.35,1.35,0,0,1,.45-.22A1.79,1.79,0,0,1,89.65,80.27Z"/><path class="cls-1" d="M5,92.2H6.27v6.22H4.84V95.2l-1.7,2.89L1.43,95.2v3.22H0V92.2H1.28l1.86,3.55Z"/><path class="cls-1" d="M9,97.06h2.82v1.36H7.58V92.21h4.17v1.37H9v1.14h2.05v1.37H9Zm-.31-5.49,1.13-1.46h1.57L9.94,91.57Z"/><path class="cls-1" d="M16.47,95.32l2,3.1H16.75l-1.32-2.2-1.31,2.2h-1.7l2-3.1-2-3.12h1.68l1.31,2.23,1.31-2.23h1.67Z"/><path class="cls-1" d="M19.19,92.2h1.45v6.22H19.19Z"/><path class="cls-1" d="M26.91,97.76a2.73,2.73,0,0,1-1.06.6,5.47,5.47,0,0,1-1.22.12,2.9,2.9,0,0,1-2.21-1,3.24,3.24,0,0,1,0-4.48,3,3,0,0,1,2.19-.93,3.06,3.06,0,0,1,2.2.81l-.54,1.15a1.36,1.36,0,0,0-.37-.31,2.29,2.29,0,0,0-1.29-.26,1.67,1.67,0,0,0-1.16.56,1.84,1.84,0,0,0,0,2.47,1.67,1.67,0,0,0,1.17.56A2.5,2.5,0,0,0,26,96.87a1.64,1.64,0,0,0,.42-.29Z"/><path class="cls-1" d="M32.49,93.07a3.14,3.14,0,0,1,0,4.46,3,3,0,0,1-2.21,1,3,3,0,0,1-2.2-.94,3.11,3.11,0,0,1-.93-2.24,3.14,3.14,0,0,1,.91-2.25,3,3,0,0,1,4.41,0Zm-1,1a1.58,1.58,0,0,0-1.21-.53,1.61,1.61,0,0,0-1.21.53,1.76,1.76,0,0,0-.5,1.24,1.81,1.81,0,0,0,.5,1.26,1.65,1.65,0,0,0,1.21.53,1.61,1.61,0,0,0,1.21-.53A1.81,1.81,0,0,0,32,95.3,1.76,1.76,0,0,0,31.51,94.06Z"/></g></g></svg>