<svg xmlns="http://www.w3.org/2000/svg" viewBox="0 0 100.5 102.96"><g id="Layer_2" data-name="Layer 2"><g id="Layer_1-2" data-name="Layer 1"><path d="M7.9,102.44a10.08,10.08,0,0,1,1.22-.54c1.4-.39,2.8-.75,4.21-1.11,6-1.52,10.47-5.13,14.23-9.83a34.64,34.64,0,0,0,5.16-8.78,10.38,10.38,0,0,1,.69-1.11,5.17,5.17,0,0,1-.47,3.42c-4.15,8.9-10.37,15.45-20.26,17.83a26,26,0,0,1-2.58.6,16.66,16.66,0,0,1-2.12,0Z"/><path d="M97.37.75A17.6,17.6,0,0,0,95.22.53a28.25,28.25,0,0,0-20.2,9A29.84,29.84,0,0,0,70.08,16a3.1,3.1,0,0,0-.53,2.87c.32-.49.66-1,1-1.49A34.21,34.21,0,0,1,84.77,4.14c3.3-1.61,6.89-2,10.46-2.38A2.66,2.66,0,0,0,97.37.75Z"/><path d="M24.09,79.27c-.48,4.07-10.57,13.1-13.84,12.6,2.43-1.9,5-3.68,7.3-5.77S21.85,81.63,24.09,79.27Z"/><path d="M93.89,11.47C90,10.88,79.52,18.05,78.33,22c1.61-.64,2.36-2.12,3.58-3S84.39,17,85.68,16.1s2.53-1.67,3.85-2.41S92.24,12.3,93.89,11.47Z"/><path d="M73.26,19.34a50.81,50.81,0,0,1,10.95-12C80.86,7.31,73.28,15.68,73.26,19.34Z"/><path d="M20.46,94.77c.71-1.68,2.19-2.8,3.21-4.26s2.21-2.92,3.17-4.48,1.67-3.15,2.67-5.07C29.91,84.8,25,92.17,20.46,94.77Z"/><path d="M26.75,79.67C26.13,84,19.57,91.86,15.54,93.29c.4-.53.6-.86.85-1.12,2-2.08,4.12-4.07,6-6.25A53.71,53.71,0,0,0,25.86,81C26.16,80.56,26.45,80.11,26.75,79.67Z"/><path d="M75.73,21.13C79.15,16.45,83.65,13,88.62,9.56,85,9.7,76.71,17.21,75.73,21.13Z"/><path d="M14.2,84.57C9.94,86.33,6,88.37,3.74,92.79l-.42-.31a3.56,3.56,0,0,1,.13-1.11,12,12,0,0,1,4.31-4.93,26.73,26.73,0,0,1,3.51-1.86A2.82,2.82,0,0,1,14.2,84.57Z"/><path d="M100.46,11.73a45.28,45.28,0,0,1-5.38,4.07,48.71,48.71,0,0,1-6.63,2.48c3.25,1.07,5.54-.54,7.86-1.69a10.42,10.42,0,0,0,4.13-4C100.56,12.36,100.46,12,100.46,11.73Z"/><path d="M71.56,30.83c-1.23-.73-2.78-.14-3.55-1.7A7.33,7.33,0,0,1,72,29c.94.23,1.28.9,1.18,2.09-.24,3.09-.63,6.17-.77,9.26-.21,4.66-.25,9.33-.41,14a10.45,10.45,0,0,1-.47,2.59,16.79,16.79,0,0,1-1,2.45c-2.6,5.34-5.26,10.65-7.82,16-1.44,3-2.72,6.09-4.19,9.39h5.13c4.35,0,8.72-.28,13,0a97.65,97.65,0,0,0,13-.14l3-.2c-1.62-4.1-3-8.19-5.2-11.87s-4.69-7.35-7-11.06c-1.19-1.94-2.28-3.94-3.28-6a5.61,5.61,0,0,1-.47-2.57q.28-11.08.68-22.17c.07-1.87.51-2.25,2.44-2.4.79-.06,1.6,0,2.59,0-.61,1.68-2.08,1.13-3.25,1.74C79,31.6,78.76,33.27,78.7,35c-.21,5.68-.33,11.37-.51,17a7.1,7.1,0,0,0,1.16,4.12c3,4.81,6,9.64,9,14.46,2.63,4.22,4.16,8.92,6,13.5.62,1.57.21,2.08-1.43,2.25l-3.76.41a77.61,77.61,0,0,1-14-.12c-3.9-.26-7.82-.07-11.74-.08-1.76,0-3.53,0-5.29,0-1.13-.06-1.51-.69-1.32-1.81a4.94,4.94,0,0,1,.29-1.1c1.44-3.44,2.85-6.89,4.35-10.3,1.11-2.54,2.32-5,3.55-7.54,1.34-2.72,2.68-5.44,4.13-8.09a13.54,13.54,0,0,0,1.43-6.21c.23-5.87.52-11.74.8-17.61C71.41,32.84,71.49,31.84,71.56,30.83Z"/><path d="M68,82.79a29.77,29.77,0,0,1-3.78,0c-1.73-.23-2.35-1.34-1.47-2.84a80.12,80.12,0,0,1,4.55-7,4.49,4.49,0,0,1,3.81-1.81,6.43,6.43,0,0,0,4.34-1.56c2.8-2.26,5.58-2,8,.73A18.71,18.71,0,0,1,87,76.52c.31.82.61,1.66.89,2.49.6,1.74.12,2.84-1.66,3.37a18.42,18.42,0,0,1-3.9.68,39.29,39.29,0,0,1-4.73,0c-2.39-.12-4.78-.34-7.18-.49-.82,0-1.64,0-2.46,0Z"/><path d="M21,11.26c4.43-.14,8.06,1.63,11.43,4.33,5.48,4.41,7.84,10.21,8,17.05a14.72,14.72,0,0,1-2.12,8.14c-1.41,2.3-2.64,4.73-3.9,7.13a16.2,16.2,0,0,0-1.56,6.39,24.7,24.7,0,0,1-.61,4.11,4.31,4.31,0,0,1-3.53,3.32,43.53,43.53,0,0,1-16.17.14,3,3,0,0,1-2.94-3.12,19.27,19.27,0,0,1-.07-3.22,7.13,7.13,0,0,0-1.13-4.32c-1.53-2.47-3-5-4.59-7.41C-.43,37.18-1.2,30.16,1.87,23A17.72,17.72,0,0,1,16.26,11.78C17.82,11.55,19.39,11.43,21,11.26Zm-.21,50c1.28-.1,3.55-.21,5.8-.48,3-.37,4.19-1.65,4.58-4.59.15-1.06.14-2.15.34-3.2a25.41,25.41,0,0,1,1.22-5.32c1.16-2.72,2.67-5.28,4.07-7.9,2.66-5,2.52-10,.52-15.17a19.07,19.07,0,0,0-7.67-8.9,14.08,14.08,0,0,0-6.83-2.59,36.19,36.19,0,0,0-4.16.12c-6.94.31-11.89,3.89-14.73,10C.76,29.9,1.33,36.62,5.17,43c1.54,2.53,3.08,5.07,4.59,7.63A8.32,8.32,0,0,1,11,55.5a19.37,19.37,0,0,0,0,2.85c.14,1.7.77,2.34,2.5,2.49C15.59,61,17.67,61.11,20.75,61.3Z"/><path d="M27.2,63.42c1.33.11,1.71.56,1.54,1.84a24,24,0,0,1-.8,4.07,5.24,5.24,0,0,1-1.48,2.13c-2.55,2.31-8.08,2.11-10.47-.38a3.84,3.84,0,0,1-.83-1.83c-.29-1.36-.43-2.75-.64-4.12s.13-1.87,1.53-2,2.65,0,4,0C20,63.07,24.82,63.24,27.2,63.42Z"/><path d="M48.85,55c-2.6-.33-5,.39-7.16-1,2.12-1.4,4.53-.71,7-1.26,0-.55,0-1.16,0-1.76,0-1.77,0-3.53.12-5.3,0-.48.38-1.32.62-1.34.87-.06.81.79.89,1.38.11.87.16,1.75.22,2.63.09,1.32.16,2.64.25,4a7.81,7.81,0,0,0,3.69,0c.93-.11,1.85-.35,2.79-.49a2.59,2.59,0,0,1,1.3,0c.38.17.64.62,1,1-.29.27-.55.73-.88.79-1.85.33-3.72.57-5.59.83-.68.09-1.36.15-2,.22,0,1.76,0,3.38,0,5,0,1.32-.1,2.64-.25,4,0,.35-.48.65-.73,1-.31-.32-.81-.61-.9-1a12.73,12.73,0,0,1-.27-2.62C48.83,59.06,48.85,57.05,48.85,55Z"/><path d="M19.34,7.48c-.68-2.17-.43-4.43-.41-6.67,0-.26.29-.87.83-.8.67,2.54.45,4.51.56,6.72C20.33,7,20,7.9,19.34,7.48Z"/><path d="M31.1,10.64c1-2.05,2.71-3.53,4.25-5.15a.84.84,0,0,1,1.16,0c-1.25,2.32-2.75,3.61-4.18,5.29C32.15,11,31.31,11.41,31.1,10.64Z"/><path d="M6.88,10.62c-2-1-3.48-2.78-5.07-4.34-.18-.19-.43-.82,0-1.16C4.1,6.41,5.36,7.93,7,9.4,7.24,9.58,7.65,10.43,6.88,10.62Z"/><path d="M21.61,57.2c.06-.6.07-1.21.17-1.81.76-4.28,1.56-8.56,2.3-12.84a7.94,7.94,0,0,0-.14-1.76c-.85.52-1.4,1.09-2,1.15s-1.22-.42-2-.72a3.61,3.61,0,0,1-.86.92c-.39.22-1.22.41-1.33.25-.78-1.12-1.89-.76-3.19-.83C16.73,46.21,17.07,51.15,18,56l-.41.15a2.78,2.78,0,0,1-.5-.81c-.41-1.84-.83-3.69-1.15-5.55A22.38,22.38,0,0,0,13.48,42c-.45-.07-1.16.45-1.41-.51-.37-1.42.2-2.37,2.14-3.28l1.34,2.55,1.68-1.86L18,41.45c1.41-.35,1-2,2.17-2.64l1.38,2.44C22.67,40,24.28,40,25.61,38.67a8.38,8.38,0,0,1,.15,1.71c-.73,4.6-1.5,9.2-2.27,13.79a15.87,15.87,0,0,1-.57,2.38c-.12.34-.52.58-.79.86Z"/></g></g></svg>