<svg xmlns="http://www.w3.org/2000/svg" viewBox="0 0 1010.71 662.54"><defs><style>.cls-1,.cls-2{fill:none;stroke:#000;}.cls-1{stroke-miterlimit:10;}.cls-2{stroke-linecap:round;stroke-linejoin:round;stroke-width:5px;}.cls-3{fill:#00b39a;}.cls-4{fill:#fff;}.cls-5{fill:#ef4b56;}.cls-6{fill:#894f7d;}.cls-7{fill:#0271af;}</style></defs><g id="Layer_2" data-name="Layer 2"><g id="Layer_1-2" data-name="Layer 1"><path id="MX-AGU" class="cls-1" d="M497.52,421.43l-2.93-2.92-.12-1.53,1.53-3.69,4.2-5.86,1.14-4.08,1.4-.89L505,402l4.46-2.54,1.53-1.15.51-1.65.89-.26,1,1.78,1.65,1.66,5.61,3.31.76,3.06,1.4,2.54h0l.38.77-.25,2,2.54,2.68-5.47,2.54-3.18,4.46-.9.64-3.82,1.27-1.65.13-2.8-1.28-2.17-1.78-5.34-.51Z"/><path id="MX-BCN" class="cls-1" d="M135.93,202.57H135l-1,.13.13.51-1,.5h-.89l-1,1.15-.38-.89.25-1,3.95-4.84.76-.12.13,1.27-1,1v.63ZM101,187.29l.77.51,1,3.69-.26,1.27.51,3.06-.89,1.15v2.67l-.76-.25-.64.38-.89-.38-.77-1.79-.76-.25-1.27.76-.51-.12.12-1,3.44-3.82.26-.89-.77-2,.64-2.42.76-.51Zm74.1-10.95,1,.26,3.44,2.92-.64.64-.76-1.27L176,177.74Zm10.7-1.91.38.76-.38,1.28h-1.53l-.51-2ZM4,157.75l-.76,1.66.26,1.27,1.65,1.53.25,3.69-.89,2.67-1,.26-.77-1.78L3,165.9l-.77-.51-.13-2L.59,161.83l.51-1.28-.39-1.27.9-.76h1C2.75,158.64,4,157.75,4,157.75Zm150-13.11v.63l1.4-.63V145l1.15.38,1.65,2,1,.51,1.4,2.8-.76,1.14.12,1.53,2.3,1,3.69-.25.38.38L166.1,160l.77,2.17,1.53.51-.39,2.42-3.82-2.68L162,159.41l-3.31-2.3-1.27-2.41-1.79-.39-.25-1.4-2.55-3.18-.25-1.15,1-2.41-.26-1.28.64-.25Zm-27.5-15.92.76,1-.51.13-.38-.38ZM113.9,35.78l-1,.63-.63-.51h-1.66l-.76,2.55-.64.64-.13,1.65-2.29,3.06,1.79,2.55-.77,2.29.38,1.4-.51,3.44.26,1.27L107.15,56l1.28,1.27,1.14.13L114.41,61h0l-.63,2.16,1.14,5.09-1.4,1.91-.89,3.06-.13,4.46-1.14,4.07.38.89-.26,2.8.77,2.8L114,89.89l-.64.76v.89l3.57,2.3.76,4.45-.12,6.62,2.16,5.1v2.8l-.38,1.65.25,1L119,117.9l.51.38-.9,2.8,1.28,2.68.76.51,2.17,5.09,1.52.76.39,1.15,1.27.25.76,1.15V135l.51,1.15,1,.38.51.89,1.53.13.38-1.15,2.29,1,1.53,1.91.38-.13,1.27,1.53,1.15.64.89,1.4,2,1,2.67,2.92,1.91,1,.13.77,1.78.89,2.55,3.18,1.78,1.53.38,1.15-.89,1v.64l2.68,3.31,1,2-.76,1.53.51,2-.38.26,1,2.16,1,.13.64-.89-.51-.51.51-.77.64.39.63-.51.51,1,.77-.13v.51l.51.13.12,2.67.51,1.14h1.4l1.66-1.27,1.4.77,1.78,5.73,1,1,.76,4.46,3.32,1.91,3-.76.64.51.12.89,1-.26.13.77-.51.63.26.89-.77,3.31,2.55,3.57-.64,2.55.77,1.78-.51,1.53,1.14.76.38,1.27-.38,3.19h0l-.76-2.17-1.15-.38h0l-40.36-.13.26-.63-.39-.64-.12-1.66,1.14,1.53,1-1.78-2-.51-.38-2.16,1.91-3.82L137.2,191l-1.14.64-.64-.64,1.66-3.69.89-4.07-1.66-2.81-2-.76-.12-2.55-.51-.5-2.8-.13v-1l-.51-.64-1.91-1.14.12-.77-.63-1.53-1.15-.63-.76-2.42-.64-.13-.25-.76-1.28-.89-1.27-.13-.25.38-.64-1.4-.89-.51-.26.38-.63-3.43-.77-1.4-1.4-.64-.76.38-1-1.27-.25-1.66-1.53-.76L114,156h-.51l-4.33-5.35-3.69-1.91-4-.51-2-3.18-3.06-1.53h-1l-2.55-2.42-1.52.26-2.55-2.8-.64.89-2.42-2L86,134.2l-.38-1.91-1.4-2-2-.76L83,124.9l-.63-1.53V118l-1.79-3.19-2.67-1.52.26-1.79-1-1-.26.5.64,1.15-.64.38-.63-.89h-.64l.76,1.66-.51.25L74.56,111l.76-6.74-.76-4.46-.64-1.27L73,98.29l-1.78-1.65h-.64l-2.92-3.82-1.91.25-.51-.63.89-6.75-1.79-3.44-2.67-2.8-2.29-4-1.66-1.27-.89.13-.25-1.28-1.53-1.14-.38-.89-.51.12-.13-.76,1.27-.64-.5-1.14.63-1.53-1.53-2-.38.13-1-1.27.64-.13,2,1.14,1.27-1.27.26-3.31-.51-.76-1.66-.39-.76-.89-1.53-.25-.51-2.29-.64-.51H49.61l-1.53-1.53L48,49.91l-1-3.56-.63-1-2.68-1L43,43.54,40.31,36V34.38l76.65-7-2,3.57-.89.25.64,2.3-.39.25-.38,2Z"/><path id="MX-BCS" class="cls-1" d="M116.32,533.22l1.91.51-.63.51-1.66.26-.13-.9C115.69,533.48,116.32,533.22,116.32,533.22Zm119.56-16.55,1.27.89L238,519v2.29l-1,.51-.51-.89-1.4-.25-1-1.66Zm6-15.66.26.76-.64.9-.38-.77Zm27.63-172.14,3.56,5.86.51,2.42-2-.38-.89-1.4-1.4-4.84.25-1.66Zm-65.57-5.22,4,.26,1.4,1.78,1.14.13,1,.76,1.66,3.06-.51,1-8.79-6.36-.38-.38Zm52-.25,2.29,2L257,328h-.63v-1l-.9-.38.13-.64-.63-.76.25-.89-.38-.64,1-.25Zm-1.15-2,1.15,1.65-.77.39-.76-.51-.13-1Zm-9.93-17.95,1.15,1.78,2.54.64.51.76.13,1.91,1.27,2.8-.63.13-3.32-2.55-.89-2.54-1.14-1.15Zm-45.33-5.86.26,1.78-1.4,4.33.12,3.95-1,.89.89,1.66-.38,1.4-.77.12-.38.64.25.89,1.4,1.66-.25.38,1.15,1,.5,1.65-.89,1.4,1.15,1,1.53,2.29-.13.51-1.4-.63-.13-.9-2.29-2.41.26-.64.76.13.25-.64-.12-1.4-1-1.27-1.66-.9-1.53.51-.89-.51v-.76l.51-.13,2.42-6.62,2.8-9.42Zm45.84-1.4-.51,1.53-.64.25L244,297Zm-44.82-6.24-.25,5.6-.51,1.79-.64-.51,1.4-6.88Zm.13-6.62.25,2.67-.25,3.19h-.38l.38-5.86Zm42-1.27.38,4.2-.89-.51-.51-1.78Zm-8.28,0,.64,1.53-.39.63-.51-.25-.5-1.79.76-.12Zm-.89-12.48-.64,1.27.51,2.17-1.53-.89-2.16,3.43v1.15l-.77.76v.9l-.76.12-.13-1,.51-.51.26-2.16,1.4-2.16-.26-1.91,1.28-.26.25-.51.76.51,1.28-.89Zm-6.62-2.42.25,1-.51.13-.25-.64Zm-62.52-21,1.66.38,1,2-1.28-.76-2.54-.64-.13-.38,1.27-.64Zm36.42-18.84,1.4,1.27-.39,1.53-.76-.25-.76-1.66Zm6.49-7,.51.12.38.77H207l-.26-.64.51-.25ZM101,204.48l1.79,1-.13.63-1.78-1.27Zm34-1.91h.89l.51.51.38-.51,40.36.13h0l1.15.38.76,2.16h0l-.13.64,1.66,1.27.51,2.55,1.4,1.65H183l1.53,2.17,3.56,1.14.64.77,1.14.13,2,1.4.89,1.27.89,4.71,2,2.29L197,228l-.51,1,3.32,2.68,3.18.76.63.76h1.15l.13.89h-.77L203,235.42l-.26,2,2.17,3.06,1.14.64v.63l1.15.9.38,1.78-.89.76-.64,1.66,1.53.89.38,1.53,1.4.89.9,2.16,1.27,1,2-1.78L209.27,247l-.26-3.69-.89-2,.89-.63,2.42,1.78.89,1.4,1.79,1.15.63,1,2.8,1.78-.25,4.45.51.77,3.44,1.14-.77,2v1.53l1.4,2.42.89.38.26.64.12,1.4-.5.89,2.54,6.62-.76,1.15.13,1.78-.64.89.13,1.27.51.77.12,2.42.77.89v1.4l2.29,1.91.25-.26,1,4,2.29,3,3.31.39-.25,2,1.53,3.95,1.14,1.15.38,1.4-.38.25.51,1.91.77,1v1.27l.89.64.51,1.66,1.14.63.64,1.15.64-.13,1,.76.26,1.66,2,2.8.89,2.67-.26,1.53-.89,2.29L244,319.45l-.26,3.95.26,1.27,1.4,1.78.12,3.69,1.4,1.53.9,2,1.91,1.78,5.47,1.15,1.53-.13.13.38-1.66.64-1-.76-.51.25.26,1.91,2.16-.13v-1l1.53-1.27.13-1.27-1.15-2.8L257,331l.89-.51,2,.25v1l1.4.76.51,1.4,2.67,1.28,2.68,2,.89,4.08,1.53.38,3.31-1.14v.76l.63.64-.89,1.14.13,2.55,4.07,4.07-.38,2.55.38,2.16.51.64,6.88,3.31-.38,1,1.78,2.67-.25.89.5.51-.63,5.61-.77,1.65-2.42,2.93-1.27.89-2.8.64-1.53,1v1l-2.67,1.4-.64,1.28-1.14.89h-1.15l-.76.89h-1.4l-3.06-2.55-1.53-3.56-1.91-9-3.18-5.86-2.29-3.05-7.9-4.21L234.09,338.8l-13.75-8.27.13-.39-1.53-1.52-2.16-1.15.13-.64-.77-.12-1.27-3.82.38-.13-.64-.76-1.27-.39-.13,1.4-3.05-.25-.13,1h-.76l.12-1.91-.89-2.55-2.8-3.05.38-.26-.76-.63-.89.38.13.51-1.79-.26-2.54-1.27-.38-.89h.63l.13-1-.76-.51-.26-1,.76-1.27-.38-.26.51-.89-.51-.13.26-.5-.51-.64-.77,1.14.39,1-.51.64.12,3.18h-.89l-.63-1.4,1-2-.76-1.79,1-.51.89-2.16v-1.27l-1.15.12.26-2.42,1.15-2.54.38-2.29.89-.13.13-3.06-.64-.12.13-1.53.76-.51-.51-.38-.25-1.4.38-1.28.38-.12.13-3.06-.13-1.66-1-1.4L200.1,279l-2.55-6.87-1.14-1.53-2.42-1.4-1.15-3.69-2-2.42-2-.51-.26.89-.51.13-4.07-2.93-.89-.38-.89.38-1-1.53-2.55-1.78v-.51h-.76L173.23,253l1.28.13,1.65,1.14.13-.25-1.4-1-1.4-.38-.89.25-2.93-2.55.25-.25-.5-.64.5-.76L167.76,246l-1.15-2.55-.51,1.4-1.9-.89.38-.38.63.25,2-2,.51-1.65-1-3.57-.76.77-.51,4.07-.77.64-.89-.26-.51,1,.13,2.29-.51.13-2.67-1.65-1.91-.39.25-.63.64.51.13-.51-.64-.26-1.78.26-1,1.14-.51,1.53-.76.38v.77l-.9.51-1-.39-1-.63-.89-1.78-2-.51-2-4.71-2.29-1.66-2.8-.76-.51.25-.25.76h-.51l-1.66-1.65-1.4-2.55-1.4-1-1.53-.76-2.54-.38-1,.89-3.06-2-.64.51-.63-.38.13-1-.77-.51-.64.13-.25-.51V223.7l-.64-2-2.93-2.42-4.2-1.53-1.52-2.8-2.17-1.53-.13-1.27-.89-.64-.76,1.15-1-.51-.38-1.15-1.28-.63-.76.38-1.4-3.57-1-1,1-.51,1.4,1.15,2.93-.25,1.91.25.51.64,1.78-.26,2,.38.63.64,2,.38,3.57-.25.76.51,3.06-1.66.76.51,1-.13.25-.76h-.76l1.4-1.53,1.15.38-.64,3.19,1,1.65,1.91,1.53,1.65.51L137,214l-.13.51,1,.38,1.27-1.4.13-1.15,2.67.89,2,3.82,1.15.13.76-1.53-2-2,.13-1.4.89.76.26-.51-.77-.51.38-.76-.63-2.17.25-1.14L142,206.13l-1.27,2.42L141,210,137,211.48l-2-1.53.26-.63.76.63-.89-2.54,1.53-2.17-.64-.63-.89-2Z"/><path id="MX-CAM" class="cls-1" d="M855.93,519.6l.64,1-.89.76-.64.26-1.4-.77-.51.38.51.39-2.16,1.65-.64-.89-.38.76-2.68,1.15-1.4.13-.63-.77.38-.38,3.06-.51,6.74-3.18Zm36.54-68-.25,9.29,5.22.64,1.27,2.55.64.25,1.4-.51,1.15,1.28.63-.13.51-1.27,1-.9.51.39,1.27,2.29-.12,1.14.76,1.28,2.29,1.52,2.55,5.73,5,2.68,1.53,3.18,4.08,4.58,1,4.33.51.64h0l1.66,2.29,6.75,5.35,4.33,6-.26,7.52-1.53.89-.51.89.26,3.18-1,6.49.25,1.66,1.28,1.53.25.89-.63,1.78,1,.64-.76,2.16.64,1.78.38,6-.76,1.65-3.06,3.57.25,3.18h0v4.2H873.5v-2l-5.09-2-.89.51-1-1.15-2-.89-2-1.91-4.71-1-3.57.13-.38,1.66.38,2.29-.38.89-2.17.13-1.65.76-2.8-1.4-1.91.13-1.66-.89-1.14-1.79L838,542.64l-1.53-2.29-1.4-3.31-.63-.38.25-2.55-1.4-1.78-.51-.25-.13.51-.63.12-.89-1.4h-1.28L828.05,530l-.76-1.15-1.4-4.71h0l3.94-.76,12.48-.76,1.15,1.78,1.91,1L844.6,527l-.38-.51-.38.39-1.28-1.66-.89,1.15-.89-.51-.25.25.25.89-.63.77.76.89,1.53-.26-.64-1.4h1l.38.64.77-.13,1.4.89.25.77,8.66,2.16,1.78-.12.26-.9.89-.89,5.73-1.91,1-3.69.77-.38.38-1.66-.25-.89-1.4-1.27-1.15.89-1.53-.76-.38-1.28.76-.63-.12-1,1.27-1.27-1,.25-.89,1.66-1,.89h-.64l-1,1-.13.77h-.77v-.26l3.19-3.31,8.66-4.71,6.11-4.45,6.24-5.73.63-1.15-.12-1.27.63-2.55-.25-2.8.89-2.29-.64-.77v-.76l1.15-1.4.25-1.27,4.84-3.7,1.78-3.18-1.27-3.44.38-1.78-.51-1.65.51-.39-.51-5.72.38-1-.63-4.33,1.65-4.59.51-3.82,1.78-2.16Z"/><path id="MX-CHP" class="cls-1" d="M773.81,610.13l.26-.77h0l-.13-.51h.51l1,1.4Zm-.51-5.1v-1h0l-.13-2.67.64-1.91-1.53-3.69.13-1.15,2.8-8,3.69-3.31,1-4.46,1-1.27V575l.38-1.14h0l1.15-1.4,2.55-1.15,4.71-3.69h0l3.18-4.07.13-2,1.78-2.42,1.53-1,.76-1.53,1-9,2.16-.38.64-.76,2.67,1.14,1.79,2.17,1,.51L810,550l-.38,2.16-1.78,2.68-.13.76.51,1.15,2.67,2.8-.38,2.42.51.38,1.53-.13.51-.51.63.26,1.53,2.42v.89l.89,1.14,1,.39,2.42-1,3.06-2.8,7.38-5.48.76-1,4.21-1.52.5-1-.5-2.3.12-.5.51.12v-.51l2.29.64h2.55l.89-2.29,1.91.51-.13.76.77.38.76-.51,1.53.26,1.53-.38,1.4,1.78v2.55l3.31,1.65,1.65,4.2-1,3.44,5.48,1.53.25,1,1.66.51,1.4,2.29-1,.38-.64,1.27h0l-.89.13.77,1.27h1l1.27,1.4,1-.51,1.14.39v1l.64.89.76.38.39,1.27,1.4,1.53,1.27.25.38,1.28,1.78,1.78.13.76,1.66.51.63.77.39-.38,1.4.5.25,1.15h1.27l1.15.89,1.4-.13v.64L882,588.1l1.79,2.8.38,4.07,1-.12.12.63-.89.26.26.51,1-.38.51.63,1.14-.38.77.76.76-.38.64.89-.26.64h2.17l.51.76.12.77-.51.51.39.63-.39,1.15H891l-.26.76.51.51-1,2,1,1.4-.89.51.76.38V608h-.76l.38,1.78-40.87-.38-15.53,26.87,5,6.36-1.27,2-1-.13-.38.89.13,3.19-1.28,1.78,1.15,5.47-.89,1.53-.51,1.91-1.15.89-5.73-5.22-14-14.77-.13-1.14-1-.26L798.77,625.4l-6.88-5.47-7.77-5.35-4.83-2.29.38-.51,1-.13.38.77.76-.38.13-.64-1.4-2.29-6-1.28-.89-1.14L773.3,605Z"/><path id="MX-CHH" class="cls-1" d="M478,163.86l-2.93,5.35v.38l2.17.77v1.27l-.89,1.27-1-.38-.89.38-2.17,5.1-1.78,1.4-2,.76L465.57,185l-.77,1.4,1.15,1.78L464.8,190l-3.44,8.66-.76.51-2.29-.89v2l1.4.25.64,1.91-.39.64-2.42.51,1,1.78-.12,1-.77,1,.89,1,.13.89-1.4,1.52,1,5.73,1.4.64.25,1,.13,1.4-.64,1.4.9,4.71.25,6.11.64.89,2.29,1-.51,1.91h-1.4l-1.4,1.28-2.42,1.14.51,1-.13,1.66,2.67,2.41,1.4,2.3h0l-1.4.25-1.4-1.15-.63.9-.38-.26.5-.89-1-.13-4.08,1.4-1.91-.76-1.14,1-1.79-.38-.89-1.28-1.78-.25-1.78-1.15-.89.38-.39.9.64.89,1.91.12-.13,1.28-3.18.51-1.4,1.91-1.91.63-2.42,4,.26,1.66-.26,1-.51.26-2.16-.26L432,257.19l-1.27-.25-2.17-1.53L426,253l-2.93.63-1.53-.38-.89-.89H420v1.4l-2,.89-.64.77-.76.12-.51-.63-2.17,1.27-.25-.76-2-.64-1.65.26-1.4-2.42-2,.38-1-1.4H404.2l-2-1.78-2.42-.26-.38-.76-1.66-.89-1.27-2.42-1.4-.26-2.42-1.53-1.66-.12-.89-1.15-1,.64-.25,1.65-2.29.77v2.29l-.77.63-1.14,4.33v2l-1.15,1.91.13.64,1.4.63v1.4l-.38.77L382,261.26l-1.14,1.15v1.78l-1.28-.25-.51.51.51,2.67-1.14.38-2.17,5.1,1.28,2,.76,2.42-2.67,4.33-4.46,3.44-1.53,2-.76-.39L368,285l-2.55-.39-.64-1.14-2,.25-1.4-.89-.39-1.65-2.92,1-.39.77h0l-2.67-3.57-.76-4.07-3.7-6.24-3-.89-4.08-.38-4.83-1.4-1.53-6-4-6.36-.13-2.42-1.78-1.15-.38-1.4.64-2.55-.64-1,.51-2.93-1.4-2.93-1.53.25-.76-.25-.13-3.69-.89-.51-6.24.25h0l-2.29-.51-2.55.77-4.46-2.29V233l.9-.51-.64-4.33,1.53-3.95v-2.16l-2-5.22-1.27-1.78-.77-2.68-3.56-2.16-.64-.77.89-3.05-.51-2.17-2.67-3.82-2.29-.89-.51-.89.76-3.56-2-1.4-.25-.77,1.27-1.78,3.19-.64,1.78-1,1,.13,2.29,1.66h.64l1.78-1.4,1.4-.13,1.27-1.53,1.15-.13.76-1.52-2.8-1.15-2-2.29.51-3.69-1-2.42.26-1.28,1.91-3.31-1-3.43,1-1.66-.64-3.31,1.91-1.65.13-3.44,1.78-.89.38-.64-.38-7.26.26-1.14,1-1.15v-3.31l-.89-7.89-1-1.28h-.77l-.38-1.27.76-6.24,1.66-3.31v-1.4l-1.78-1.66-.26-1.27,1.15-.63.38-2.3-2.42-7.89.13-1.53-1.4-1.91v-1.27l.89-2-1.28-1.14-.12-3.06L307.05,95v-.76l2-.13V91.8l.63-1.66-.25-2-2-3.57-.63-2.42,1.14-1.65-1.4-1.28h17.95V62.39H378l1.27,1.4,2-.13,1.27.76,1.15,1.28L386,70.79l1,.51,1.4,3.06,4.07,2.54,2.29.26,1.53,1,.77,1.91h.76l.51.89H399l2.8,3.43.25,1,1.66.64.51.76,1.91.77,1.52,1.27,1.4,3.06,1.53.76.51,1,2.42,1.53.64,1.14-.26.64,1.28.25,1.91,1.28.38-.51,1.14,1.14,1.15-.25.25.76.51-.25.77.89h.51l-.13.51H423l1,1.65,1.14.64,1.15-.13.76.89.26,1.66,1.4.51,1.15,1.27,1,2.68v1.91l.64,1-.25,1,1.4.89-.26.39,1.91,2-.13.64,1.79,1.4.63,2-.25,1.91.38,1.27-.64,2.67.51.26v1.4l.51.89-.38.51.38,1.4,1.4,1.15,1.4,2.42,1.66,5,4.45,3.44.51,1,1.4.76.64-.38,2.55,1.27.13.51.76.26-.13.76,1.53,2.16,1.78.77L457,152.4l2.55,1.15,3.82.51,1.78.76.51-.25.26,1.65.51-.38,1.27,1.78,1.91.39.38.51H473l2.67,2.67-.12.64.76-.13.64,1Z"/><path id="MX-COA" class="cls-1" d="M591,209.19l-.38.76-1.41,1-1.27.13-2.42,1.65-7-1.14-4.71.38-1.4.76-.64,2.93L569.59,219l-.38,1,.25,2.93-.76.64-2.81-.13-2.67,1.15-1.53-.51-1.52,1.27-2.3,3.82.26,4.2,3.56,2.67.77-.12.89-4,.76.13,2.55,1.91.51,6.49-1,2.8-1.27,1-1.4,2.8H559.4l-3.31,2.17-4.46.38-1.14,1.14-1.27,3.44-3.06,3.06V259l5.73,6.11,3.44,2.55,1.27,3.95,1.78,1.4,1.15.12.51.77-1.28,3.69.26,3.18,1,2.3,1.4.12,1,.89,2.67.13.51.51.76,4.33,1,1.15,4.2,2.42L571,294l4.58.76.64,1,1.14.38.51,1.15-1,1.14-.12,1.4-.38.26h-2.42L569.59,299,567.93,297l-2.16-.25-1.15.38.38,1-2.29.76L560.55,303l1.14,3.69.13,2.8-.25.51-3.06.13-.25.5.38,1-.38,1.53,1.78,2,.13,1.78.76,1.53-1.27,4.2h0l-2.68-.64-1,.39-.25,1-1.78.51-2.68-1-1.78-1.66-2.42-4.84-1.53-1L541.7,315l-2.92.64-1.15,1.15h-3.57l-.76-4.59-1.53-.38-1.91.51-2.8-3.95-2.54-2.16-3.19-1.27-3.18-2.17-12-.76-6.87,1.4-.77.63v2h0l-3.82,2.55L494,309.9l-.64,2.67.64,2.17-.38.64-.9.25L490,313.85l-3.56-.26-4.33-2L480.46,310l-.76-1.15-.64-3.94L476,302.52l-.77-2.17L473,297.68l-.76-3.95L474,292l2.93-.51-1-1.53-1.66-.38-.89-1,.13-1.15,1.78-2.67,1.4-1,1.53-3.94L476.64,274l-.25-2.55.51-2.93-2.17-5-.25-1.79.51-3.69L473.2,253l-2.92-2.68-1-1.52-1.53-1.53-3.82-1-.89-.76h0l-1.4-2.3-2.68-2.41.13-1.66-.51-1L461,237l1.4-1.28h1.4l.51-1.91-2.29-1-.64-.89-.25-6.11-.89-4.71.63-1.4-.12-1.4-.26-1-1.4-.64-1-5.73,1.4-1.52-.12-.89-.89-1,.76-1,.13-1-1-1.78,2.42-.51.38-.64-.64-1.91-1.4-.25v-2l2.29.89.77-.51,3.44-8.66,1.14-1.78-1.14-1.78.76-1.4,2.93-4.84,2-.76,1.79-1.4,2.16-5.1.89-.38,1,.38.89-1.27v-1.27l-2.8-.77v-.38l2.93-5.35h0l.89.13.38-.76.51.12-.38.77,1.78.89.13.64.51-.51.38.51,2-.13,1.14.51,1.15-.51.64-2.8.38.25.38-1.4,1-.13,1.4-2.16v-.76l.76-.26.51.38,1.28-.63.25-.9.77.26.63-.38-.25-.89-1-.51.51-1,.25-2.29,1.28-.26-.13-.38.89-1.15-.51-.25v-1.15l.89-1.52-.13-1.4.9-.77.38-2,.63.13.13-1.53,1.53-1.4-.13-.51.89-2,1.4.25,1.79-.76.76.38,1.15-.76-.13-.64,3.44.64.89-.77.51-2,1.4-1.27,1.78.38v.51l2.67.38,2,1.79,1.78.25.64-.13v-.38l1.27-.13,2,.26.38.51.64-.51,2.55-.38.63.38-.13.64,1-.26,2.17,1,.51-.25.51.38.51-.38.38.5,2.42-.76.12-.76.77-.64.25,1.91,2.55-1,.25,1.4,1.4-.63.26.25-.51.38.51,1.28.64.5.38,1.79,1.53-.26.5.77-.38,1.91.77.51.25-1.66.38-.38.64.13.13,2-.64,1.4.38.39,2.42.25.77,1.4,2.8.64,1.65,3.18,2,1,1.78,1.27.38,1,2.55,1.27,1,2.17-.26.51,3.06,2.29.51,1.15.51,4.71.63,1.52.9.13.89,2.55.89.12.38.77.13,1.65.76.77.26,2.67,1.65.77v1l1.53,1-.51,1.4.76,1,1.53.51-.13.51-.76.26.89,1.14-.25,1.78,1.91,3.06v1.4l1.27,1.4,1,.13.38,1.4,4,1.78,1.14,2.29,1,.64.26,1.27,1,1.53,1.14.13v1.4l1.27,1.27-.25,1.27.89,1.41v1.4l.89.12Z"/><path id="MX-COL" class="cls-1" d="M474.73,513.62l-3.18,2.8-1.27-.39-.51.39v2.29l-2.42,1.53-.89,2.16h0l-7-5.6-6.62-3.57-5.09-1.78.13-1h.63l.13-.76L448,509l-1.4-.76-2.29,1.14-.25-.76-2.29-.89L436,506.23l.38-.51.76.51.26-.38-.77-.26h2.42L441,503.3l1.4.64.77-.13.63-1,1.15-.76.64.51,4.83-1.15,1.66.51,1.4-.38,3.95-2.93,4.07.38,1.78-.25,4.08-2.17,3.18-3.05.76.13.64,3.69-.25,1.27,1.27,1,.25,1,1.41.64-.64,2.29.13,3.94-.77,1.66,1,1.91Z"/><path id="MX-DIF" class="cls-1" d="M622.17,509.8H620.9l-3.06,1-1.14-1-.77.12-1.65,1.4-1.66-1.52-1.65.25h0l-3.31-5.6-.13-1.27,4.07-3.57.64-2.55,2.8-3.18.38.51v1.4l2,2.42.64,1.91,2.67,2.29.38,1.91.64-.51.25.64.51,2-.63,2.16Z"/><path id="MX-DUR" class="cls-1" d="M357.85,282.65l.38-.76,2.93-1,.38,1.66,1.4.89,2-.26.64,1.15,2.54.38.9,1.53.76.38,1.53-2,4.45-3.43,2.68-4.33-.77-2.42-1.27-2,2.16-5.09,1.15-.38-.51-2.68.51-.51,1.27.26v-1.78l1.15-1.15,2.55-1.15.38-.76v-1.4l-1.4-.64-.13-.63,1.15-1.91v-2l1.14-4.33.77-.64v-2.29l2.29-.76.25-1.66,1-.63.89,1.14,1.66.13,2.42,1.53,1.4.25,1.27,2.42,1.66.89.38.77,2.42.25,2,1.78h1.28l1,1.4,2-.38,1.4,2.42,1.66-.25,2,.63.25.77,2.16-1.28.51.64.77-.13.63-.76,2-.89v-1.4h.64l.89.89,1.53.38,3.18-.25,2.55,2.41,2.16,1.53,1.27.26,2.17-1.15,2.16.26.51-.26.26-1-.26-1.65,2.42-3.95,1.91-.64,1.4-1.91,3.19-.51.12-1.27-1.91-.13-.63-.89.38-.89.89-.38,1.78,1.15,1.78.25.9,1.27,1.78.39,1.14-1,1.91.76,4.08-1.4,1,.13-.51.89.38.25.64-.89,1.4,1.15,1.4-.26h0l.89.77,3.82,1,1.53,1.52,1,1.53,2.93,2.68,1.79,5.09-.51,3.69.25,1.78,2.16,5-.5,2.93.25,2.54,1.53,5.73-1.53,3.95-1.4,1-1.78,2.67-.13,1.15.89,1,1.66.38,1,1.53-2.92.51-1.79,1.78.77,3.95,2.29,2.67.76,2.16,3.06,2.42.64,3.95.76,1.15,1.66,1.52,4.32,2,3.57.26,2.67,1.78.89-.26.39-.63-.64-2.17.64-2.67.76-1.28,3.82-2.54h0l.51.64v2l1,.38.51,1.4,1.91.9,1,1.14-1,6.24,1.52.51,1.28,5.09-1.28.64v.51l.64.51-.13.89-7.76.76-2.17-.25-1,1.14-3.43-1.14-1.28-.89-1.4-.13-2.8,1-2.8-.89-5-.38-2.16,1.78L474,330l-3.06,2.29-2.67,3.56-2.93,2.68-3.06.89-.25,1.65,1,.64.51,2-.38,2.16.51,2.42-.64,1.53,1.14,5.47-3.56,3.06-2.93,3.69-.13,2.42-1.65,7.39-.77.51-1.78,3.43-.12,1.66,1.14,3.95-.25,7-.26.76L449.78,391l-1.28,1.91L447,396.73h0l-3.7,1.66-.51,1.78h-.63l-2.29-1.4-1.28-2.67L435.39,393l-2.16-.51-1.79-2.29-1.78,3.31-1,1.15h-.89l-2.8-5.86,2.16-2.29,2.17-1.15.76-1.14-.12-1.53h-1.41l-.63-.51-.77-3.18-2.67-.26-1.65-.76-1.91-2.29h-.64l-1.15,1.65-2.16.51-2.8-3.31h0l-2.68-2.8-.76-.13-1.15.77-2.54-.13-.77-1.66-.12-2.93-1.53-1.65-.89-2.16.38-1.15-1.27-3.69-.51-3.57-2.17-2L399,350.9l-1.4-1.53-.77-3.69-.89-1.4-1-3.31.38-1.15L394,338.68l-.13-2.81L391.72,333l-.13-1.4-1.4-.39L389,329.38l-1.91-1.27L382,326.58l-.89,1.27-3.56,2.68-1.66.25-.89.77-.89-.64-1,.25-.76-2.54-1.28-1.79-1-5.22-.25-.25-.76.51-.77-.26-1.53-5.73-1.65-.38L364,312.19l-2.93-.25-.63.51-1.53-1.28.38-1.78-1.53-3.05-1-.77-.64-2.29-1.27-.76.63-2.55.13-6.49,1.65-4.08-.12-.89-.64.13-.76-.89,2.16-2.8,1.53-1-.13-.89-.89.25Z"/><path id="MX-GUA" class="cls-1" d="M592.89,427.29l.63.64-.12,2.67L592,433l3.18.76v1.53l-.89,1.79-1.91.89-.77,1.27-1.4.25-2.16-2.29-1.91.77-2.8,4.2.12,1.91-.89,2-1-.64-.26,1.4-.89.51L577,446.9l-1.91.89-5.86.38-.89,1.78-.76,4.84.13,1,1.27.89.76,2.17v3.43l1.4,2.42,2.55,1.79.89,2.16h0l-.51,1.4.77,1.53.12,1.65-.63,2.3h.89l-.13,1.27-1.53,1.4-2.67.38-.89,1-.64,1.78-.76.26.38-1.91-.64-.26-2.42.64-1.78,1.27-4.33-.25L556.47,480l-1.65-.12-.77.38-.38-.13.26-.64-.64-2.93-2.8.77-1.78-.51-.9.76.39,1-1.53.64-2.29-.89-3.19-.26-.63-.63v-4.08l-.64-2.16,1.27.63.77-.38-1.66-2.29-1.4-1-1.78.26-.76-.51-2.68.89-2.54,3.56L530,472l-2.8.13-.64-.51-1.53.89-1-.13-.51-.63-.89-3.7.5-.5-.76-.64-.64.13-.38-.64h-1.14l.51-3.57,2.29-4.32-2-3.7-2-.51-.63-1.65,2.54-2.55.13-1,2.29-1.91,2.42-5.09,3.18-2.42,1.4-3.44-.12-.76.63-.89,1.91-.13.51-.51.89-1.78-1-.64.76-2.8-.89-.13,1.91-7-.13-.89,1.53-1.78-.89-1,1.53-1.66h0l1.27.77,1-1.15h0l1.52.89,3.7.39L546,418l5.86,1.4,1.53,1h1.4l6.36,4.71,3.44,1.78h3.57l1.91-.76-.13-1.4.76-2.3,1.4-.89,5,1.66,3.95,2.54.38.89.63-.12,2.17,2.67,2.29-.25.51-.64.89,1h2Z"/><path id="MX-GRO" class="cls-1" d="M572.64,510.18l.38,3.69-1.27,2.42-.89,5.35.51,2,2.29,1,.13,1.53-.26.89-2.16,2.29.76.89,1.66-.38,1.91.38.25,1.41,2,2.54v-.51h.76l.39-.51.25.51,2.55-2.8,3.18-.76-.89-1.79.51-.76L586,527l1,.51,4.46-.25.38-.77L593,526l1.15.38.51-2,2.29-.38-.51-2.17h1l1.15,1.4,2.54.9,1-.64,1,.13h0l.64,1-.77,1.4.51.5,1.4-.25,1.4.64,2.55,3.43,7,.9,2.93,2.92h0v1.53l1.78,1.53,1.66.76,1.53,2.8,3.82-.25.25,1-1,1.27,5.35,2.29.13,1.4,1.78-.38.64.38,1.14-1.14,1.91-.13,2,2.55,2,1h0l-2.17,5.09-.25,1.78,3.43,7.77.77,5.85-1.15,1-.25,2.68.76.63,2.93,1,.64,1.53-.13,2.42.38.76,1.53.26.51.63.51,2-1.15,3.69-1.14,1.15-1.53.25-1.15.9L644.2,590,639,594.59l-.64,2.55-5.86,4.45h0L627.9,597l-2.42-3.18-2.16.25-.39.77-1.65-.26-13.5-4.07-3.94-.77h-5.1l-2-.63-2.68-1.4-2.29-1.91-1.27-.39.76-.76-.25-.51H589.7l.26.51-.77.26-1.4-2.17-1.14-.51-33.87-12.09.13-.77-.64-.76-3.18-2.29-1-1.28-7.89-3.31.25-1-1.15-1.4-1-.76-3.19-.64-.12-.63-1.28-.51-1-2.42-2.42-1.66-1.78-3.05L523.62,547l-2.8-.89-1.78.26-.89,1-.64-.39h0l-1-1.65.13-5,1-.76,3.31-1,1.15.26,1.91-.77,1-1,2,.51,1-.38.25-.38H526l.38-1.15-.12-1.53-.77-1.78.77-1.4-.77-1.53.13-.38h.76l-.63-1,.89-.51.76.13-.25-.64.76-.12.64,1,.64-1-.39-.51,1.4-.38.13,1.27.77-.51.38.51.13-.89.89-.26h1.4l1.52,2.42,2.55,1.15,4.46-.64.25-.64,2.55-.63h2.16l.64.63,2.55.64,2-.25,1.4.38,1.53,2.16.13,1,.76.13,1.79-1.4.76.76,1.78.26.51,1,1.91,1.14.38-.51.51.38.38,1.4h1l1-1.27L563,529.4l-.39-3.94-1.52-5.35.63-1.27,1.4-1.15h.51l.77,2,3-3.7,1.15-.63,1.4-3.19,2.67-2Zm5.86,23.93.13.39.51-.39Z"/><path id="MX-HID" class="cls-1" d="M632.61,430.86l1,.25.38,1-.38,3.44,2.29,2.16,1.66.89,1.65.13,1.15-1.15,2.54.77,3.19,4.33-2.42,3.18-.77,2.8.77,1.4-.38.77-1.91.25-1.66-1.78h-.64l-3.05,2.8-.38,1.15-.77.63-.38,4.71-.76,1.66-.26,2.67,1.53,3.31,1.15,1.4.63-.25,1.66-1.91,3.18-1.53,2.42-2.8,2-.89,2.67-2.93,1-.51,1.91,1.27h0l.13,3.82-3.7,3.19L647,466.89l-4.59,2.42.9,1.78,2.67-.64.64,2.8-1,6.12-1.91,3.94.89,6h0l-3.06-.64-1,1.91-1.91,1.53-2.68.38-1.27-.25-6.37,2.16h0l-.25-1.78,2.29-5.22-.26-2.17-7.38.77-2.16,3.31-.26.25-.76-.38V488l-1.15-2.29.26-.63,1.14-.64,1.15-.13,1.4-5.47-.64-2.42-.76-.13-3.44,1.78-5,1.4-.63,4.84-.89,1-2.68-1.27-.25,2.8-1.53,1.27.13-3.18-.51-1.66-.89-.76-.38-1.53-1.53-1.65.89-1.28-1.91-3.94-.77-.26-.12-.76-5.86-.89-3.31-1.91-1.53-1.79h0l1.28-8.27,2-.64,1.15-.89,3.69-.89,2.93-2-.76-2.55,1.4-3.31,1.52-.5,1-1.53.64-2.8,1-2-.38-1.4,2-1.78,1.53.89,5.22-1.66,1.66-3.94h0l2.92-1,1.4,3.05,1.66,1.4h1.4l1.78-3.05,1.15,1.65,1.65-3.82,2-2.29Z"/><path id="MX-JAL" class="cls-1" d="M497.52,421.43l2.55-1.4,5.35.51,2.16,1.79,2.8,1.27,1.66-.13,3.82-1.27.89-.64,3.18-4.45,5.48-2.55-2.55-2.67.25-2-.38-.77h0l4.46,1.15,2.67,1.4,3.44,3.06,2.67,1,.39.5h0l-1.53,1.66.89,1-1.53,1.78.13.89-1.91,7,.89.13-.76,2.8,1,.64-.9,1.78-.51.51-1.91.13-.63.89.13.76-1,3.31-3.19,2.42-2.42,5.1-2.29,1.91-.12,1-2.55,2.55.64,1.66,2,.51,2,3.69-2.29,4.33-.51,3.56h-3.57l-2.67,1.27-2.16-.25-1.66.64-2.16-.13-1.4.38-2.68,2-1.4-.13-1.27,1.27-1.15.39-.38,1.78-3.82.89-.25,1H495l-1.28-1.66-3.18-.63-.38,1.4-1.15-.26-.51.38v3.06l-1.14,1.91.63,1h.64l.64-.76,2.93.38,4.07,1.14.89.77.77,2.8-.39,1-1.14.89,2.42,5.35-.77,3.31,4.33-.13.77.89.12,2-3.05,3.18-1.15,2.93-2.93-.77-1.78.9-5.09,4.58-2.8,1.53-2,2.16L484,513l-1.66-2.29-.63-.13-2.81,2.16-1.91-.38-2.16.51h0V510.3l-1-1.9.77-1.66-.13-3.95.63-2.29-1.4-.64-.25-1-1.27-1,.25-1.28-.64-3.69-.76-.13-3.18,3.06L463.78,498l-1.78.26-4.07-.38L454,500.76l-1.4.38-1.66-.51-4.83,1.14-.64-.5-1.15.76-.63,1-.77.13-1.4-.64-1.91,2.29h-2.42l-.76-.64-.77.13-.12-.64-.89.39-.64-.39-1.15.13v-.76l.64-.64-.13-.64-1.14-.38-.26.51-1.14.26-2.55-1.4-2.42-2.17.51-.89-.51-.89-1-.64L425,495l-.64-.26-.25-1.91-1-.89h-1v-.51l-3.56-2.67-.39-.89L416.29,486l-.51-1.4-5-6.75-1.4-2.93.25-2.8-.38-1.53-.89-.25-.13-.77-2.8-2.93-.64-2,1.28-.64,1.27-1.4L416.8,461l1.91-1.4.89-2-.38-1.27-1.65-1.4h0l5.72-7.13,1.53-.64,2.93.64,4.08-3.06,1.52-.25,1.91.89,1.53,1.78,3.95,1,3.44,3.82,1.4.77,2.92,2.67.9,1,.63,1.91.64.38v-1.91l-1.53-1.91.38-.51-.89-1-.51-1.91.64-.76,1-.26,1.91-10.82,5.09-.25,1.27-.51,1.28-1.28,2.16-.38,2.8-1.65.51-1,.51-5.35-.25-1.91-1.79-1.53-2.16-5.47-5.73-.77-1.15-2-.12-3.44-.64-.64-1.4-.12-1.53-1.53-2,.63-.63-3.82,1.53-6.23-.26-.64h0l1.4-1.53,1.78.38.51-3.82,3.95-1.52.64.51-1.28,4.07.39.64,2.29-1.4,1.27-1.53-.25-1.78-2.17-4.84.13-1,2.8-1.91,3.44-.51,2.29,1.27-.26,1.15-1.4,1-1.91,2.42-2.16,5.34v4.21l1.53,2.29,1.53.25.5-1.53V395l.77-.76,4.33-.89,1.78.63,1.78,1.66.77,2.42v1.52l-4.84,7.9-.13.64.77.89h2.41l.9-1,1.65.25.89.64,1.15-.51,1.14-2.16,3.06-2.42-1.53-1.28.38-2.42,2.42-.89,2.8.26.51,1.14-1,1.91.64.51,2.67.13.64.51-.89,4.46-1.53,3.69-.89.89-1.65.25-4.21,2.17-2.29,2.16L473,419.91l.25,2.29-.38,3.18-2.67,2.68-2.29.63,1.14,3.18,1.15.64,1.27-.64.89.13.39.77-.13,1.27-1.53,1.4L466,437.73l.25.64,3.18.76,1,1,1,2.17,1.15.63,2.93-.25,3.69,2,1.27-.63,1.15.13.25-.77,1.66-.38,2.16.51.13-.51,1.91-.64.38-2.54.77-.64,1.78-.64,1.91.64,4.58-3.69,2.93-1.79,1.27-1.65.64-3.44-3.57-2.29-.76-2.42Z"/><path id="MX-MEX" class="cls-1" d="M579.14,534.11l-.51.39-.13-.39Zm11.2-65.82,1.53,1.78,3.31,1.91,5.86.89.12.77.77.38,1.91,4-.89,1.27,1.52,1.53.39,1.52.89.77.51,1.65-.13,3.19,1.53-1.28.25-2.8,2.67,1.28.9-1,.63-4.84,5-1.4,3.44-1.78.76.12.64,1.66-1.4,5.47-1.15.13-1.15.64-.25.63,1.15,2.3v1.14l.76.38.25-.25L622.3,485l7.38-.77.26,2.17-2.29,5.22.25,1.78h0l1.27,2.29,1-.25.64.76h0l.51,2.29-.77.77v1.4l1.28,4.58.12,5.6h0l-1.14.26-3.31,2.67-3.18-1.14-1.15-2-1.27-1h0l-.26-1,.64-2.16-.51-2-.26-.64-.63.51-.38-1.91L617.84,500l-.63-1.91-2-2.42v-1.4l-.38-.51-2.8,3.19-.77,2.54-4.07,3.57.12,1.27,3.31,5.6h0l-5.09,8-.63,1.79-2,2.29-.26,1.27h0l-1-.13-1,.64-2.55-.89-1.15-1.4h-1l.5,2.16-2.29.39-.51,2-1.14-.38-1.15.51-.38.76-4.46.26-1-.51-1.28.64-.51.76.89,1.78-3.18.77-2.55,2.8-.25-.51-.38.51h-.77V534l-2-2.55-.26-1.4-1.91-.38-1.65.38-.77-.89,2.17-2.29.25-.89-.13-1.53-2.29-1-.51-2,.9-5.35,1.27-2.41-.38-3.7h0l.76-.51L573,508l1.91-2.29,1.41-3.05-.39-1.28,1-2.29.51-.76.89-.13.38-.76-.5-6.63-.77-.63-1.27-2.55,1.91.13,1.78-.64.38-.63.38-2.68,1.66-2.16v-.77l-1.15-1,.13-3.06h0l3.18-.38,2.42-2.55-.38-2.16-.64-1.28.26-.38,1.14.77.77-.13-.26-.89.39-.77,2.16-.76Z"/><path id="MX-MIC" class="cls-1" d="M520.19,466.25h1.14l.38.64.64-.13.76.64-.5.51.89,3.69.51.64,1,.12,1.53-.89.64.51,2.8-.13,1.15.39,2.54-3.57,2.68-.89.76.51,1.78-.26,1.4,1,1.66,2.29-.77.39-1.27-.64.64,2.16v4.08l.63.64,3.19.25,2.29.89,1.53-.64-.38-1,.89-.77,1.78.51,2.8-.76.64,2.93-.26.63.38.13.77-.38,1.65.13,3.31,1.14,4.33.26,1.78-1.28,2.42-.63.64.25-.38,1.91.76-.25.64-1.79.89-1,2.67-.38,1.53-1.4.13-1.27h-.89l.63-2.29-.12-1.66-.77-1.53.51-1.4h0l1.91,1.28,1.53,2.42-.25,1,4.2,3.82h0l-.13,3.06,1.15,1v.76l-1.66,2.17-.38,2.54-.38.64-1.79.64-1.91-.13,1.28,2.55.76.63.51,6.62-.38.77-.89.12-.51.77-1,2.29.38,1.27-1.4,3.06-1.91,2.29-.25,1.4-.77.51h0l-2.8,1.78-1.4,3.19-1.14.63-3.06,3.69-.76-2H563l-1.4,1.14-.64,1.28,1.53,5.34.38,3.95,3.56,4.84-1,1.27h-1l-.39-1.4-.5-.38-.39.51-1.91-1-.51-1-1.78-.25-.76-.77-1.78,1.4-.77-.12-.13-1-1.52-2.17-1.4-.38-2,.26-2.55-.64-.63-.64h-2.17l-2.55.64-.25.64-4.46.63-2.54-1.14-1.53-2.42h-1.4l-.89.25-.13.89-.38-.51-.77.51-.12-1.4-1.4.39.38.5-.64,1-.63-1-.77.13.26.64-.77-.13-.89.51.64,1h-.77l-.12.38.76,1.53-.76,1.4.76,1.78.13,1.53-.38,1.15h2.29l-.26.38-1,.38-2-.51-1,1-1.91.76-1.15-.25-3.31,1-1,.76-.12,5,1,1.65h0l.25,1-1.66.64-3.82-1.91-5.09-1.53L497,542.64l-6.49-3-4.84-.89-6.36-2.42-.64.25-4.84-2.93-2.29-5.22-3.69-2.8.51-1-2-2.41h0l.89-2.17,2.42-1.53v-2.29l.51-.38,1.27.38,3.19-2.8h0l2.16-.51,1.91.38,2.8-2.16.64.13,1.65,2.29.38-.13,2-2.16,2.8-1.53,5.1-4.59,1.78-.89,2.93.77,1.14-2.93,3.06-3.18-.13-2-.76-.89-4.33.12.76-3.31-2.42-5.34,1.15-.89.38-1-.76-2.8-.89-.77-4.08-1.14-2.93-.39-.63.77h-.64l-.64-1,1.15-1.91v-3.06l.51-.38,1.14.26.39-1.4,3.18.63,1.27,1.66h.51l.26-1,3.82-.89.38-1.78,1.14-.39,1.28-1.27,1.4.13,2.67-2,1.4-.38,2.17.13,1.65-.64,2.17.25,2.67-1.27Z"/><path id="MX-MOR" class="cls-1" d="M611,510.18l1.65-.26,1.66,1.53,1.65-1.4.77-.13,1.14,1,3.06-1h1.27l1.27,1,1.15,2,3.18,1.14,3.31-2.67,1.15-.25h0l-3.57,9,1.66,9.93-.64.89-3.56-3.31-.64.13-1,1.65-1.53.76-.76,1.28L618.61,534h0l-2.93-2.93-7-.89-2.54-3.44-1.4-.64-1.4.26-.51-.51.76-1.4-.63-1h0l.25-1.27,2-2.3.51-1.78Z"/><path id="MX-NAY" class="cls-1" d="M387.39,433.4l.25,1-1,.51L386,434l.51-.64Zm-6.62-5.6,2,.51.51.76-.64.51-.13,1-2.93-1.14-.51-.64,1.66-1Zm-6.88-6.75,3.31.89.51.51-.12.77,1,1-.25,1.14-.76.51-2.93-1.65-.64-1.79-.13-1.4Zm-.51-2.67.51,1.27-.63.26-.26-1,.38-.51Zm31.45-27.25.77,1.78-.26,1.79.64.63-.26.89,1.15,8.15h-.76l-.26-.51-1-5.34-2.54-5.73.38-.26,1.4,2.29,1-.25-.89-2.8.63-.64ZM414,375l2.8,3.31,2.17-.51,1.14-1.65h.64l1.91,2.29,1.65.76,2.68.26.76,3.18.64.51h1.4l.13,1.53-.77,1.14L427,386.93l-2.17,2.29,2.8,5.86h.89l1-1.15,1.79-3.31,1.78,2.29,2.16.51,3.19,3.06,1.27,2.67,2.29,1.4h.64l.51-1.78,3.69-1.65h0l.25,3.56.51,1.27.89.51h0l.26.64-1.53,6.24.64,3.82,2.16-.64,1.53,1.4,1.4.13.64.64.12,3.43,1.15,2,5.73.77,2.16,5.47,1.79,1.53.25,1.91-.51,5.35-.51,1-2.8,1.66-2.16.38-1.28,1.27-1.27.51-5.09.26-1.91,10.82-1,.26-.64.76.51,1.91.89,1-.38.51,1.53,1.91v1.91l-.64-.39-.63-1.91-.9-1-2.92-2.68-1.4-.63-3.44-3.82-4-1-1.53-1.78-1.91-.9-1.52.26-4.08,3.05-2.93-.63-1.52.63-5.73,7.13h0l-1.53-2.29-.64-.12-1.14.89-3.82-1.28,1-.76,1.15-2.67.51.12,1.15-2,1.52-1,1.15-1.53.13-1,1.27.51,1.4-2-.38-1.27.63-3.95-.76-3.56,1.78-3.44-.25-1.53-.89-1-1.15.39-6-4.08-1.79-4.58-3.81-6.5-.9-3.43.26-4.08,1-.51.63,1.53.77.13.38,1,2.55,1.27.38-1.91-1.28-.89-.25.25-.51-1-1.27.39-.26-.77.51-.51-.12-.76-.64-.13-.38.51-.39-.38.13-.89-.63-1.27-.26-4.33-.38-.77.25-1.14-.76-.51.25-.89-.76-2.68.38-.25h0l2.68,1.53,4.45.76L413,392l-.25-2.54-.51-.51-.26-1.66-1.65-1.65-.64-1.66.38-1.27,2.17-2.67.76-4.33,1-.77Z"/><path id="MX-NEL" class="cls-1" d="M594.67,212.75l-.76.39-1.66,2.16-3.56,1-.77.89.38,1-.51,1.4.77.51,5.09.25v1.15l-1.53,1.78,1.66,1.15-.26,3.18.26,1.78,1.4,1.4.51,4.08-2,1.78-1,3.06.13,1.4,1.91-.13,1.53.89.63,1-.63,1.65-.26,4.08,1,1,1.15-.51.89.51,1,2.42,2.42.25,1.52,5.22,2.3,3.18,1.78-.12-.13,1.27,1.53,2,.89.13,1-.9.76.13.26.77-.51.89,1,1.65-1.15.38,1,.64.51.76,4.2.64.76.76,1.53,2.93,1.27.64,3.44-1.91,1.4.13,4.33-.89.89.51.13,1.9,1,1.28-.38,4.33.76,1.91-.64,1-.25,2.67.89,2-.51,1,1.28,1,2.54.77.51.38v.64l-1.91,2-.76,1.79-1.53.76-1.78,1.78-1,.13-1.28,1.4-5.6,1.15-1.27,1.4-1,2.54-3.56-.25-.77-1.53h-.63l-1.91,2.55-1.66.51-.25.51.76,2.8.89.51-.51,2.16-1.14.13-1.15.89-.64,2-1.4.51-.51-1.91-.51.12-.5,1.28-1.41.63-1.4,2-2.29-.13L600,318.69l-3.7,1.65-2.54,1.78-.89,2.68.25.38,2.29-.13,1.66,3.31L595.94,337l2.29,2.67,1.79,4.59,1.78,1,1,2.92-2.8-.5-.51.12-.38,1.91-2.3,1.28-.89.12-3.18-.89-2.93,1.53-.89,3.56-1.91,2.3-.38,1.27.51,3.56-.26,2.3-3.94-.51-1,.89.63,1.78-.51,1h0l-5-.89-2.93,3.56-1.91-.89-1.53-1.91-.76-2-.26-5.23-.63-1.65,1.4-7.13-.13-1.15-1.27-1.91.25-5.6-1.14-2.8L565,336.38l.13-1.78-2.29-2.16-.38-1,1.52-2V329l-.89-.38.64-2-1.78-.64-1.28.26-2.16-2.93h0l.64-.51h0l1.27-4.2-.76-1.53-.13-1.78-1.78-2,.38-1.53-.38-1,.25-.5,3.06-.13.25-.51-.13-2.8L560,303,562.2,299l2.29-.76-.38-1,1.15-.38,2.16.25,1.66,1.91,4.33,1.15h2.42l.38-.26.13-1.4,1-1.14-.51-1.15-1.14-.38-.64-1-4.58-.76.63-1.4-4.2-2.42-1-1.15-.76-4.33-.51-.51-2.67-.13-1-.89-1.4-.12-1-2.3-.25-3.18,1.27-3.69-.51-.77-1.15-.12-1.78-1.4-1.27-3.95-3.44-2.55L545.65,259v-1.65l3.06-3.06,1.27-3.44,1.15-1.14,4.45-.38,3.31-2.17H563l1.4-2.8,1.27-1,1-2.8-.51-6.49-2.55-1.91-.76-.13-.89,4-.77.12-3.56-2.67-.26-4.2,2.3-3.82,1.52-1.27,1.53.51,2.68-1.15,2.8.13.76-.64L568.7,220l.38-1,2.16-3.31.64-2.93,1.4-.76,4.71-.38,7,1.14,2.42-1.65,1.28-.13,1.4-1,.38-.76h0l1-.26.25,1.15,1,.26Z"/><path id="MX-OAX" class="cls-1" d="M692.83,531.31l1.53-2.8.38-1.27-.63-.89V525.2l.89-.76,1.53,1.53,1.27.5-.76,1.66.76,3.44.76,1.14,2.55,1.91,1.66-.51,1.78,1,1.27,2.42,1.78.13-.63,1.15.89.5,3.18-1,1.78.63,1.53-.25,2.55.63.63.51,1.28,4.84-.26,1.53-1,1.4-1.27,3.31-.89.89.38.89-.25,1.53,2.8,5.6,2.55.77,1.65-.77,3.69-.25L730,556.9l4.71-1.14,1.53-1.4.51.13,1.78,1-.25.9-1.91.89-.26,1.4,4.33,5.6,4.46,3.56v1.28l.76.76-.38,1.78,36.42,2.3h0l-.39,1.14v2.55l-1,1.27-1,4.46-3.7,3.31-2.8,8-.12,1.15,1.52,3.69-.63,1.91.12,2.67h0v.51l-2.54,1.15-.64-.13-.64-.51-.89.13-1-1.15h-1.14l-1.15-1.91-1.4.51V604h-.89v.77l1.4,1.27,5.6.38,4,2.93h0l-.25.77h0l-6-2.68-3.82-1.14-9.8-1.41-.26-.63,3.31-1.15.9-.76.5-1.4-3-1-1.66,1.15-.51,1h-1.27l-.38.77-.64-.13-.12-.51,1.4-1.14-1.4-1.15.25-.76-1.78-1.28-2.17.51-1.65,2.8H744.4l-1.15,1,.26,1.15-.77.12-.5,1h8.14l2.3.26.12.38-4.58.13-5.09.89-2.3-.26-.25.77-2.55.25-.63.64h-.77l-.25,1.27L733.83,610l-.38.63.25,1-1.78.64-.25.64-1.91-.26-.13.77h-2.55l-.12.63-2.55,1.15-3.06.38-1.65,1.15L714.86,618l-3.44,1.65v.39l-1.91.51.26.38L706,622.73l-5.73-.38-2.42,1.27h-2l-4.45-1.91-5.1-.76-1.91-1.28-3-1-1-.64-.38-1L675,614.84l-4.2-.77-2.55.13-3.31-.89-.89.25-3.31-.51-.51.51-3.06-.51-7.25-4.71-6.88-3.69-6-1-4.84-1.78h0l5.86-4.46.63-2.54,5.22-4.59.26-1.78,1.14-.89,1.53-.26,1.15-1.14,1.14-3.69-.51-1.91-.51-.64-1.52-.38-.39-.77.13-2.42-.63-1.52-2.93-1-.77-.64.26-2.67,1.14-1-.76-5.86-3.44-7.76.26-1.79,2.16-5.09h0l1.53-1.78,2.67-1.78,2-.51h4.46l1.91-.77,2.8,2,1.53.51.89-.26,2.29-2-.13-.51-2.93-2-.51-1,2.55-5.47,2-.89,2-.26.64.38.26,1.28-.13.63-1.66,1.15.13.51,1.66,1.27.89,1.4,1.78,3.57.51,2,1,.9,1.14-1.15,1.15-2.42,3.31-3.31,1.78-.38,4.71,1.14,2.29-1.91.13-1.14.38.76,1.79-1.14,3-.64,2.42-4.46Z"/><path id="MX-PUE" class="cls-1" d="M651.71,457.59l.89-3.31,1.27-1,.13-1,1.15-1.15.38-1.27,1.53.51,2.54-.39v2.3l-1.52,1,.25.39,1.15-.26,1,.77-.5,1,.25,1,1,1,2.8,1.53.64,1.4-1.91,3.18-2-1.14-1.53,1,.13,5.09.64,3,.89.64,2.54-.25,1.15,2.29.76.25,2-1.78,1.53-2.55,1-.89,9,3.19.12.63-2.8,3.82-2.16,5.48-.26,1,.39,1.27-.39,1.27-.89,1.15-1.27,3.31-.77.25-.25.89,1.78,3.82-.63,1.79.38.51,1.78,1.27,4.58,1,3.7,1.65.63.77.13,1.65-.25.89-.64.13-6.11-.25-.26,1.14.64,7.77-.13.63-2.42,3.06V521l.51,1.4,1,.89,4.84,1.4-.26,1,2.42,3.95,1.79.13,1.27-1.28,1.78-1,3.31,1,2.29,2.8h0l-1,1-2.42,4.46-3.06.63-1.78,1.15-.38-.76-.13,1.14-2.29,1.91-4.71-1.14-1.79.38L672,543.41l-1.14,2.42L669.66,547l-1-.89-.51-2-1.78-3.57-.89-1.4-1.66-1.27-.12-.51,1.65-1.15.13-.64-.25-1.27-.64-.38-2,.25-2,.9L658,540.48l.51,1,2.93,2,.12.51-2.29,2-.89.26-1.53-.51-2.8-2-1.91.76h-4.46l-1.78.64L643.18,547l-1.53,1.79h0l-2-1-2-2.55-1.91.13-1.15,1.14-.64-.38-1.78.38-.13-1.4-5.34-2.29,1-1.27-.26-1-3.82.25-1.53-2.8-1.78-.76-1.78-1.53v-1.53h0L622,531.7l.77-1.28,1.53-.76,1-1.66.64-.12,3.57,3.31.63-.9-1.65-9.93,3.56-9h0l-.13-5.6-1.27-4.58v-1.4l.64-.77-.51-2.29h0l.89-.38,1.53.51,3.82,2.93,1.65,1.78.64,1.78,1.53,1.66,5.22,2.8,1.14-.13,4-3.44H652l1.91,1.28h1l1.53-1,1.78-2.93,1,.38,3.44-.63,1-.64.38-1.4-1.15-.26-.89-.76-.38-1.53-1.53-1.53-.76-.51-1.91.64-1-.25.13-2.17-5.22-4.33-.89-1.4-.64-.12-1.91,2.29-.76.25-2.68-.51h0l-.89-6,1.91-3.95,1-6.11-.64-2.8-2.67.64-.89-1.79,4.58-2.42,1.15-1.78,3.69-3.18Z"/><path id="MX-QUE" class="cls-1" d="M616.44,434.8l-1.65,3.95-5.22,1.66-1.53-.9-2,1.79.38,1.4-1,2-.63,2.81-1,1.52-1.53.51-1.4,3.31.76,2.55-2.92,2-3.7.89-1.14.89-2,.64-1.27,8.27h0l-1.4,1-.51.89.25.89-.89.13-1.14-.76-.26.38.64,1.27.38,2.17-2.42,2.54-3.18.38h0l-4.2-3.82.25-1-1.53-2.42-1.91-1.28h0l-.89-2.16-2.55-1.78-1.4-2.42v-3.44l-.76-2.16-1.27-.9-.13-1,.76-4.84.9-1.79,5.85-.38,1.91-.89,3.44.51.89-.51.26-1.4,1,.64.9-2-.13-1.91,2.8-4.2,1.91-.76,2.16,2.29,1.4-.26.77-1.27,1.91-.89.89-1.78v-1.53l-3.18-.77,1.4-2.42.12-2.67-.63-.64h0l-.77-.76,1.91-.51-.38-.64.26-.63h1.4l1.91,1.27.76,2.42.76.89,3.19.26,2.42-.64.76.51,1.4-3.57.76-.51,1,.26.64-.38,1.27,2.8,4.08,4.33,1,1.91Z"/><path id="MX-SLP" class="cls-1" d="M558.76,323.14l2.17,2.93,1.27-.25,1.78.63-.63,2,.89.38v.38l-1.53,2,.38,1,2.3,2.16-.13,1.79,3.18,3.94,1.15,2.8-.26,5.61,1.28,1.91.12,1.14-1.4,7.13.64,1.66.25,5.22.77,2,1.53,1.91,1.91.9,2.92-3.57,5,.89h0l1.15,1.4.12,2.68,1.28,1,.63,1.4-.38,4.58.25,3.82.26.89,1.4,1.15,5.35,1.78,4.2.38,2.8.89.76-.51V386l1.28-.76.76.38,1,1.65,2.16.77,1.79,1.4,1,1.52,1.14,3.19,2.8,3.69,2.29-.25,2.55.5,2.93-.12.89-1,2.42,1.53,2.67-.64,1.28.25h0l.38,1.15.63.38h3.06l5.6,1.79.89.89,1.53,4.58h-3.18l-1.4.89L635,411l-.38.9-.51.38-2.8-.38-.38.5.51.51h1.4l-.77.64.51.38-.13,1.53.77.89.63-.13v.64l1.53,1.4-2.29.89-.38,1-1.4-.13v.9h-1.66l-.25,1.14,1.14,4.2,1.66.26.13,4.2h-2.17l-2,2.29-1.65,3.82-1.15-1.65-1.78,3.05h-1.4l-1.65-1.4-1.4-3.06-2.93,1h0l-1.15-.38-1-1.91L610,428.18l-1.28-2.8-.63.38-1-.25-.76.51-1.4,3.56-.77-.51-2.42.64-3.18-.25-.76-.9-.77-2.41-1.91-1.28h-1.4l-.25.64.38.64-1.91.5.76.77h0l-3.31,1.65h-2l-.89-1-.51.63-2.29.26-2.16-2.68-.64.13-.38-.89L576.46,423l-5-1.65-1.4.89-.77,2.29.13,1.4-1.91.76H564l-3.43-1.78-6.37-4.71h-1.4l-1.15-1-5.85-1.4-1.66-.89-3.69-.38-1.53-.89h0l2.42-5.1.51-1.27-.38-.25.13-.64h.51l.5-2-1.78-5L545,392l.26-2-2.55-3.31h-.89l-1.91.89-5.73,5.85-3.05.9h-2.68l-1.91-2.55-1.14-2.55-1.4-.76-2.93-.38-1.4-1.66-5.35-3.18L513.18,382l-.25-1.9.25-1.66,1.66-5.09-1.27-3.82.63-2.17-.76-1,1.14-2.16.9-.25L518.4,365l3.7-.76.63-1.79,1.15-1.27,2.93-1,4.58-2.67,4.46-6.49,6-2,1.4-1.91,1.53-3.82-1.27-1.53,1-4.33.77-.76,2.42-.64,1.78-1.14,1.15-2.3.25-1.91.89-.63,2,.12,1.27-.63.89-2.17,1.53-1.27.51-2.29Z"/><path id="MX-SIN" class="cls-1" d="M404.45,388.59l.51.12.64,1.15-.64.89Zm-77.79-83.27,1.53,1.78.63-.25.38.38v1.14l.77,1.4-.38,3.44H329l-.89-2.67-1.4-1.53v-3.69Zm-6.24-2.68,1.78,1.15,4.58,5.86.9,1.4v1.78l-.51.25-3.44-6.49-3.57-3.31.26-.64Zm-.64-2.92,2.29,1.52.26.77-2.17-1-.38-1.27Zm-27.5-39.22,1.27.13h0l.64.51-.13,1.27-.51.38,2.3,1.91-.51-1.4,1-.76-.25-.64-.38.38-.64-.25-1.14-2.29v-.9h0l-.13-2,.38-.26.26,2.42.5.26.64-1.15,1,1.15.13,1,.63-.13-.12,1,.38.51,3.69-2.17L303,258l2.54-.76.13-3.18.64-1.15,5.22-1.27,2.67-5,2.42-.76-.38-3.19,3.94-5,.39-2.29h0l6.23-.26.9.51.12,3.69.77.26,1.53-.38,1.27,2.93-.51,2.92.64,1-.64,2.55.38,1.4,1.78,1.15.13,2.41,4,6.37,1.53,6,4.83,1.41,4.08.38,3,.89,3.7,6.24.76,4.07,2.67,3.57h0l.13.89.89-.26.26.89-1.53,1-2.17,2.8.77.9.64-.13.12.89-1.65,4.07-.13,6.5-.64,2.54,1.28.77.63,2.29,1,.76,1.53,3.06-.38,1.78,1.53,1.15.63-.51,2.93.25,1.15,3.31,1.65.38,1.53,5.73.76.26.77-.51.25.25,1,5.22,1.27,1.79.77,2.42,1-.26.89.64.89-.77,1.65-.25,3.57-2.67.89-1.28,5.09,1.53,1.91,1.27,1.15,1.79,1.4.38.13,1.4,2.16,2.93.13,2.8,1.27,1.14-.25,1.15,1,3.31.89,1.4.76,3.69,1.4,1.53,1.15,2.55,2.16,2,.51,3.57,1.27,3.69-.38,1.15.89,2.16,1.53,1.66.13,2.93.76,1.65,2.55.13,1.15-.77.76.13,2.67,2.8h0l-1,.77-.76,4.33-2.16,2.67-.39,1.27.64,1.66,1.66,1.65.25,1.66.51.51.25,2.54-.5,1.15-4.46-.76-2.67-1.53h0l.25-1.28-1.91-2,.25-.77.9-.51-.9-.76-.63.89.63,2.42.64.64-.76,2.16.63,2.17-.51.76-4.71-7.38-3.82-3.7-2.29-1.4L387.64,375l-6-5.85.51-.39,1.4,1.66.13-.38-1.91-1.4-.64.25-.25.76-.51-.38.12-.89-.89-.64-1.14-2,.38-.51-1.53-2.55-3.18-3.18.13-.51-1.79-1.53-.76-1.4-3.31-2.42.51-.63-2.8-4.33-.26-1.53-9.55-8.91,1.15.25.38-.51-.64-.38.13-1-.76-.13-.26.64-.63.25-4.84-3.81-1.78-.39L342.7,328l-5.86-3.69.26-.77.76.9,3.95,2.16.64.89,1.27.13.64,1,.76-.13,1,1.4.63-.13-.63-.76.13-.89.89-.26v-.51l-.39-1.52-1.91-2.55h-1.65l.13,1.78-1.4.26-1.4-1.79-.77.64-1.27-.25-.26-1.15-2-1.91-2.68-1.15-.25-.63-.77.51-1.4-.64-1-1.4.12-1.4-1.78-2,.76-.38,1.53,1.53.89-1.53-.76-.51-.26-1h-.38l.13-1.14.64-.64-.89-.38v-.64l.63-.76.13-1-1.27-.89-.39-2.42-.63-.89-1.91-1.28v.64l-1.15-.25-2.42-2.17-.38-1h-2l.13-1.4-1.53-.76-.76,1,.38.76-.51.76L316,297l-6.87-3.44.63-.76-.51-.64-1.65.51-1.91-2.93.89-1.65-.51-.77-1.53.51L304,286.6l-1.65-.13-.51.26.25.76-.25.89.64.39-.89,1.4-.64.25-.13-.76-.51-.13.26-.51-1-.38-1.53.25.38,1-1,.26-2.29-2.68,1.53-.25.51-.51.13-1,1.14,1.15,1.15-.51.25-1.28.89.13.64-.64-.38-1.65h-1.4l-1.28.76L297.12,286l-2-.63-.25.63-.77-.12-.51-1.4-2.16-2-.64.51,2,1.53.13,1-2-1.27-3.69-.63-.26-.39,2.55.39.13-2.55H289l-2-1.66-1.4.39-.51-.9.26-3.43.25-.13-.51-1.4-.51-.26v-.89l.9-2.67h.5v-1l2.68-4.33.89-3.05,1.27-1.4.26.12-.26,1.28-1.14.38-.77,3.44.51.76.38-.26.51-1.27-.38-.76.26-.38.38.63,1-2.16.76-1.53Z"/><path id="MX-SON" class="cls-1" d="M293.55,260.75l-1.27-.12h0l.13-.64H293Zm-2.16-.89.13-1.91.25,1.28-.38.63ZM248.1,223.45l.76,1.15-.25.38,1.65.76-.38.51L248,225.1l.13-1.65Zm-53.6-67.23.63,2-.38,1.4,1.28,1.53,1.27,3.31-.51.51-.13,1.78-1.91,5.09-.13,1.28-.89.76-.63-.64-1,.13-1.53-1.4-1.65-.13-.39-.76h-.63l-.13-.51-2.55-1.4,2.17-1.53.76-1.14-.51-4.08.89-3.82.77-1.14,1.65.25,1.28-1.14,2.29-.39Zm-75-92.81,1,.12-.12.77-1.91-.51v-.51l1,.13Zm-4.72-2.3,1.28.64.89,1.78,1.65,1.28.64,1.4-.38.89-1-.77-.89.13-1.27-.63-1.15-1.15L114,63.41l.25-1.79C114.28,61.37,114.79,61.11,114.79,61.11ZM306.41,79.19l1.4,1.28-1.14,1.65.63,2.42,2,3.57.26,2L309,91.8v2.29l-2,.13V95l3.44,3.44.13,3.06,1.27,1.14-.76,2,.12,1,1.4,1.91-.12,1.52,2.42,7.9-.39,2.29-.89.64.26,1.27,1.78,1.66v1.4l-1.65,3.31-.77,6.24.38,1.27h.77l1,1.27.89,7.9v3.31l-1,1.14-.26,1.15.26,7.25-.38.64-1.79.89-.12,3.44L311,163.74l.63,3.18-1.14,1.65,1,3.44-1.91,3.31-.26,1.28,1,2.41-.51,3.7,2,2.29,2.8,1.14-.76,1.53-1.15.13-1.27,1.53-1.4.12-1.79,1.41h-.63l-2.3-1.66-1-.13-1.79,1.15-3.18.64-1.27,1.78.25.76,2,1.4-.76,3.57.5.89,2.3.89,2.67,3.82.51,2.16-.89,3.06.63.76,3.57,2.17.76,2.67,1.28,1.78,2,5.22V224l-1.52,3.95.63,4.32-.89.51v.64l4.46,2.29,2.54-.76,2.3.51h0l-.39,2.29-3.94,5,.38,3.19-2.42.76-2.67,5-5.22,1.27-.64,1.15-.13,3.18L303,258l-1.66,1.53-3.69,2.17-.38-.51.12-1-.63.13-.13-1-1-1.15-.64,1.15-.5-.26-.26-2.42-.38.26.13,2h-.51l-.26.64-1.65-2.16.12-1.28L289.86,253l-2.93-3.31-1.78-1.28-1.15-.12,1.41.25.12-.51-.51-1.14h-.76l-.51-1L283,246l-.13-.77-.51-.13-.89,1.4.51,1-3.44-.12-.64.76-3.18-1.27-1.53-1.28L272,244v-1.27l-1.28-3.57L269,236.69l.26-.13,1.27,1.79.25-1.15-.76-.51.25-.51-.38-2-2.16-1.78-.38.51-.51-.51-1.4,1.28-1.28-.9-6.36-1.52-3.95-3.82-1.78-.89.38-.26-.51-1.15.13-1.65-.77-.51-.63.51-.89-.64-.13-1.65-.51-.13-.51-1,.25-2.67-.76-1.53.25-.51-1-1,.12-1,1.79-1.27-1-.13-.26,1,.26-1.91.89-.51-.89-.12-.38-1.41.63-.5-.13-1,.51-1,1.15.25.38-.63-1.27-1-1-.26-.64.64-.76-.64-5-1.14-.38-1-2,1.14.77,1.15-.26,1.4-1.52-.51L237,204.48l.51-.77-.76-.12v-.89l-1.66-.39-1.65,1-1.91-1.78-1.28-.38-1.14-1.66-1.27-.38-.9-1-.25-1.14-1.4-1.53-.13-1.15-.89-1.14-.51.12-.64-2h-.5l-1.53-1.4-.13-1.79-1.15-1L213,184.49l-.26-1.4-1.52-3.31-5.1-4.71-.63-1.53.76-.13.64-.76.63,1.53.77-.51v-1l-.77-.64-.63.51-.64-.89-.38.25-1.66-1.27-1.52-.38-.51-1.4-1.28-1-.38-.89-2.42-.77.77-.89-.51-1-.13-1.65-.51-.64.64-1.27-.64-1.4-.51-.13-.13-.76-.89-.13.64-2.29-.76-2.29-.77-.77h-1.65l-1,.51-2.17-1.14-.25-1.4,1.27-3.57-.38-.76-1.27-.64-.26-1.53-1.27-1-2.17-3.56-1.14-.89-.77-2.42-1.4-2-.38-2-1.53-.76-.76.26-.25-.39.5-3.18-.76-1.91.13-4.46-.64-1.78-2.42-2.42-.12-3.94-1.28-2.55-3.05-2.67-3.19-6-1.14-4.33.89-2.93.13-3.82.38.13.89-1.27.13-1.4-.64-3.57-.38.13-.26-1h-.63l-2.93-1.78-.89-1.4-1,.89-5-1.15-.25-.38L158,81l-3.31-.64-.13-.64-.77-.38-1.65-.25.25-1.91-.76-2,.13-1L151.08,73l-1.53-1.28-5.47-2.29-.13-.76-.51.12-.25-.63-.51.76-1-.64-.76.9-.26.76.38-.13.26.64-.89,1.27-.9-.13-.5,1.53L135.42,73l-3.95-1.79-1.78-1.91-3.69-2-.51-.77H124l-3-2.93-2.81-.12-1.65-.77-1.27-1.53h-1l-4.71-3.56-1.15-.13L107,56.15l.76-1.27-.25-1.28.51-3.44-.39-1.4.77-2.29-1.78-2.54,2.29-3.06.12-1.65.64-.64.77-2.55h1.65l.64.51,1-.64h0L233,79.45C233,79.32,306.41,79.19,306.41,79.19Z"/><path id="MX-TAB" class="cls-1" d="M790.24,532.71,785,534.62l-.51.77-2.42.25ZM826,523.93l1.4,4.71.77,1.15,1.78,1.27h1.27l.89,1.4.64-.13.13-.51.51.26,1.4,1.78-.26,2.55.64.38,1.4,3.31,1.53,2.29,4.45,2.93,1.15,1.78,1.66.89,1.91-.13,2.8,1.41,1.65-.77,2.17-.13.38-.89-.38-2.29.38-1.65,3.56-.13,4.71,1,2,1.91,2,.89,1,1.14.89-.51,5.09,2v2h0l-.25,18.46-13.5.26h0l.64-1.28,1-.38-1.41-2.29-1.65-.51-.25-1-5.48-1.53,1-3.43L852.11,556l-3.31-1.65v-2.55L847.4,550l-1.53.38-1.52-.25-.77.51-.76-.39.13-.76L841,549l-.89,2.29H837.6l-2.29-.63v.51l-.51-.13-.13.51.51,2.29-.51,1-4.2,1.53-.76,1-7.39,5.48-3.06,2.8-2.41,1-1-.38-.89-1.15v-.89l-1.53-2.42-.64-.25-.51.5-1.53.13-.51-.38.39-2.42-2.68-2.8-.51-1.15.13-.76,1.78-2.67.39-2.17-3.57.13-1-.51-1.78-2.16-2.67-1.15L800,547l-2.17.39-1,9-.77,1.52-1.53,1-1.78,2.42-.13,2-3.18,4.07h0l-2.42-1-.51-2.8.51-1.27-.25-1.53-1.4-4-.51-.63L781.7,555l-.5-.76h-1.53l-1.79-2.55-1.78-.5-1.4-1.28v-3.82l-.76-1.91-.13-3.56-.64-.51,1.15-1.15,1.15.64.25-.38-2.93-.51,2.42-1.15h0l5.73-1.91.13,1.53,3.44-.64.76-.51-.38-1.27.89-.51,1.27-.13.26.51,1,.13,1.65-.25.76-.77-.12-1.53,4.2-1,.25.89,1-1.15,6.88-.25,1.14.51-.89.76.13,1.15h1l1-.51.12.38h.9l.5-.77-2.29-1,1.4-.64,3.7.38,2.8-.38,3.82-2,2.92-3.56,6.75-1Z"/><path id="MX-TAM" class="cls-1" d="M658.71,332.31l-.25,5.73-.38.13Zm8.66-33.61.64.25-3.57,8.91-.38-1.78.25-1.14.77-.64.13-1.27,2.16-4.33ZM656.29,402.21,653.75,404l-1.91-2-.51-1.4-1.53-1.27L648,399l-2-1.53-1.4-.51-.89-1.66-3.18.39-.51.89.25.89-2.55.51-.12-.77-.51.26-.89-.77-1.4-.25-5.35.25L627.14,398h0l-1.28-.26-2.67.51-2.42-1.53-.89,1-2.93.13-2.55-.51-2.29.26-2.67-3.7-1.15-3.18-1-1.53-1.78-1.4-2.16-.76-1-1.66-.77-.38-1.27.76v1.28l-.76.51-2.8-.89-4.21-.39-5.34-1.78-1.4-1.14-.26-.9-.25-3.82.38-4.58-.64-1.4-1.27-1-.13-2.54-1.14-1.41h0l.51-1-.64-1.79,1-.89,3.94.51.26-2.29-.51-3.56.38-1.28,1.91-2.29.89-3.56,2.93-1.53,3.18.89.9-.13,2.29-1.27.38-1.91.51-.13,2.8.51-1-2.93-1.78-1-1.78-4.58-2.3-2.67,1.15-8.66-1.65-3.31-2.3.12-.25-.38.89-2.67,2.55-1.78,3.69-1.66,1.65-2.67,2.3.12,1.4-2,1.4-.64.51-1.27.51-.13.5,1.91,1.41-.51.63-2,1.15-.89,1.14-.12.51-2.17-.89-.51-.76-2.8.25-.51,1.66-.51,1.91-2.54h.63l.77,1.52,3.56.26,1-2.55,1.27-1.4,5.61-1.14,1.27-1.41,1-.12,1.78-1.79,1.53-.76.76-1.78,1.91-2v-.64l-.51-.38-2.54-.76-1.28-1,.51-1-.89-2,.26-2.67.63-1-.76-1.91.38-4.2-1-1.27-.12-1.91-.9-.51-4.33.89-1.4-.13-3.43,1.91-1.28-.63-1.52-2.93-.77-.77-4.2-.63-.51-.89-1-.64,1.15-.38-1-1.66.51-.89-.26-.76-.76-.13-1,.89-.89-.13-1.53-2,.13-1.28-1.78.13-2.29-3.18-1.53-5.22-2.42-.26-1.15-2.42-.89-.51-1.14.51-1-1,.25-4.07.64-1.66-.64-1-1.65-.89-1.91.12-.13-1.4,1-3.05,2-1.79-.51-4.07-1.4-1.4-.26-1.78.26-3.19-1.66-1.14,1.53-1.79v-1.14l-5.09-.26-.77-.5.51-1.41-.38-1,.76-.9,3.57-1,1.65-2.17.77-.38h0l.25.38h1.66l.12.89.89.26.26-.51h1l.89,1.4.38-.38.51.25.89,1.53-.51,2.16h1l.51.64-.38,3.69L601,225.36l1.27.13-.13,1.14.38.38.89-.25.51.76.51,2.42-.51,2.55.39.64-.64.89.25,1.52,1,.26,1,1.53-.38.51.64.89,1.4.38.51,1.91,1,.38,1.28,2.68-.13,1,1.15,1.4.63,3.06.51.25.13,3.06,1.53.76.89,1.53-.64,1.66,1.27,1.27,1-.51,1,.77,1.15-.26.63.13V259l1-.13.89.77.51-.38h2.42l.38,1.14,1.66.38,1.91,2.55,3.06-.13v.77l.38-.13.25.51.64-.64,1.14.64v.51l2-.51v.89l1.78,1.53,1.66-.13v1l1,1,1.91,1.14,1,.13.51.51.63-.64.89.77,2.17-.64.51.89h.89l.13-.63,1.65-.26.51.51,3.31-.38.89.51.89-.51.51.25-.25.64,1,.25h3.69l1.4,2.42.64-.12.63,1.27.51-.38.89,1.78,2.42.76-.25.39.76.51,1.91-.39-.13-2.16.89-.76.64.38.26-.51H673l.13-.64,2-.38,1.78-.13.38.38-.38,6.24-1.27,4.84-7.26,14.13-1-.25,2.29-3.95-.89-.76.64-.77-.51-.76-1.4.13.25-.77-1.91-.25-.76-1-1.28,1.4.9-.13.89,1.4.25-.25.38,1.4-.38.25-.25-.63-.77.25-.51,1,.39.26.38,1.52-1,.39-.38-1.79-1,.77-.51-.77v-1.4l-2.29-.25.13.51-1.15,1,.64,1-.39,1.15-.63.13-1.15-.77-.25.77.76.13.89,1.14.38-.25.77.38-.26,1,1.15.89-1,1.4.13,1.65-1.66,3.7.51.51h.89l.51.89,1.15.25-1.91,1.4-.26,1.28-.51.12v.89l.77.51.13,1-.64,3.82.51.13.38,1-1.15,5.34H658l-.38-.63.12-1.78-1.27.38-1.15-.77.26,1.15-.89.51.51.76-.39,1.28,1.15,2.8.51.25-.25.89.76-.12.13-2,1-.89.25,4.07-.89,8.15-.38.64-.26-.13.38-.76-.76-.13v.63l1.15.51v9l1.14.64v.51l-.51.38-.38,2.68.26.89.38.12.12-2.54h-.25l-.13-.89.64-.39-1.15,12.23.39,14-.26,4.59-.64.76-.51,2.42L655.15,386l-1.28,2.67-.25,1.53,1.27.89v3.57h-.51V396l.77,2.55.63-.13,1.53,3.44-1,.38Z"/><path id="MX-TLA" class="cls-1" d="M644.45,488.79l2.68.51.76-.26,1.91-2.29.64.13.89,1.4,5.22,4.33-.13,2.16,1,.26,1.91-.64.76.51,1.53,1.53L662,498l.89.77,1.15.25-.38,1.4-1,.64-3.44.64-1-.38-1.78,2.92-1.53,1h-1L652,503.94h-.76l-4,3.44-1.14.12-5.22-2.8-1.53-1.65-.64-1.78-1.65-1.79-3.82-2.93-1.53-.5-.89.38h0l-.64-.77-1,.26-1.27-2.29h0l6.37-2.17,1.27.26,2.67-.39,1.91-1.52,1-1.91Z"/><path id="MX-VER" class="cls-1" d="M668.77,428.44l-.89,2.54-1,1.28-.13-1.91Zm-9.42-13.37,2.16,4.58-.63-.13-1.28-2-.25-2.42Zm2.55,1.27,2.41,3.06,6.75,6.24-.89,3.94L668,434.8l-.64.64-.25-2.67,2.29-4.33-.13-1.66-2.29-2-1.66-2.54-3.56-3.95-1.91-4.71-.64.13.13-1,2.55,3.69ZM627,398l2.29-1.28,5.35-.25,1.4.25.89.77.51-.26.13.77,2.54-.51-.25-.89.51-.89,3.18-.39.89,1.66,1.4.51,2,1.53,1.78.25,1.53,1.27.51,1.4,1.91,2,2.55-1.78h0l.76,6.87,2.16,5.73-.12,1.28-.51.25.76,1.78.51,4.21,1,1.14.13,1.4,2.29,4.2,1.91-.38.63,1-.5,1.66.63,2.16,1.28,1,.12,1.4.64.25.89,3.7,6,12.6.77,3.69,1,1.79,5.34,5.22.9,1.52,7.51,8.15,4.45,5.6.77,1.79,3.31,3.69,1.53,4.2.12,2.55.77,1.4-.13,1.4,1.91,2.67-.25,2.29.89,3.31,2.16,1.66,1.53.64.25.89,1.28.63,1.27,1.79-.38.76.25,1.15,1,.89,3.06.38.38,3.18.89,2.29,1.15,1.15,4.45,2.16v.9l-2.54-1.79-1.28-.12-.12.38.63.13v.76l1,.38.38.77-.12.25-.9-.38-.38.38.26.64,1.52-.13-.12-.89,1.14-.38.77.38.25-1.53,2.29,1.53,3.44.89,12.1.25,3.82,3.06.76,1.53,2.8.76,4.2.38.64.51.76,2.29,1,1,.13.89,3.56,3.57.77,3.06,3.44,1.65L766,540l9.3-2.29h0l-2.42,1.15,2.93.5-.26.39-1.14-.64-1.15,1.15.64.5.13,3.57.76,1.91V550l1.4,1.27,1.78.51,1.78,2.55h1.53l.51.76L785,556.4l.5.63,1.4,4,.26,1.53-.51,1.27.51,2.8,2.42,1h0l-4.71,3.69-2.55,1.15-1.14,1.4h0l-36.42-2.29.38-1.79-.76-.76v-1.27l-4.33-3.44-4.33-5.6.26-1.4,1.91-.89.25-.9-1.78-1-.51-.13-1.53,1.4-4.71,1.14-3.82,2.68-3.69.25-1.66.89-2.54-.76-2.8-5.6.25-1.53-.38-.89.89-.89,1.27-3.31,1-1.4.26-1.53L717.15,540l-.63-.51-2.55-.63-1.53.25-1.78-.64-3.18,1-.9-.51.64-1.14-1.78-.13-1.27-2.42-1.79-1-1.65.51-2.55-2-.76-1.14-.77-3.44.77-1.66-1.28-.5-1.52-1.4-.89.76v1.14l.63.9-.38,1.27-1.53,2.8h0l-2.29-2.8-3.31-1-1.78,1-1.28,1.27-1.78-.12-2.42-3.95.26-1-4.84-1.4-1-.89-.51-1.4v-3.82l2.42-3.06.13-.63-.64-7.77.26-1.15,6.11.26.63-.13.26-.89-.13-1.66-.64-.76-3.69-1.66-4.58-1-1.78-1.28-.39-.51.77-1.78-1.78-3.82.25-.89.76-.25,1.28-3.31.89-1.15.38-1.27-.38-1.28.25-1,2.17-5.47,2.8-3.82-.13-.64-9-3.18-1,.89-1.52,2.55-2,1.78-.77-.25-1.14-2.3-2.55.26-.89-.64-.64-3.05-.12-5.1,1.52-1,2,1.15,1.91-3.18-.64-1.4-2.8-1.53-1-1-.26-1.15.51-1-1-.77-1.14.26-.26-.38,1.53-1V450l-2.55.39-1.53-.51-.38,1.27-1.14,1.15-.13,1-1.27,1-.9,3.31h0l-1.91-1.27-1,.51-2.68,2.93-2,.89-2.42,2.8-3.19,1.4-1.65,1.91-.64.26-1.14-1.4-1.53-3.32.25-2.67.77-1.65.38-4.71.76-.64.38-1.15,3.06-2.8h.64l1.65,1.78,1.91-.25.26-.76-.77-1.28.77-2.8,2.42-3.18-3.19-4.33L640,437.1l-1.15,1.14-1.66-.13-1.65-.89-2.29-2.16.38-3.44-.38-1-1.15-.25h0L632,426l-1.65-.26-1.15-4.2.26-1.14h1.65v-.9h1.28l.38-1,2.16-1-1.52-1.4v-.64l-.64.13-.77-.89.13-1.53-.51-.38.77-.64H631l-.51-.51.38-.51,2.8.38.51-.38.25-.89-.38-3.18,1.4-.89h3.19l-1.53-4.59-.77-.89-5.6-1.78h-3.05l-.64-.38V398Z"/><path id="MX-YUC" class="cls-1" d="M983.13,428.31l.38,6.75-.13,1-1.14,1.14-.64,4.08,1.65,4.07-.12,1.27-1.4,2.55-.64,3.18-1.15,1.4-.38,2-1.14,1.53-2.17,1-3.94,3.44-3.95,2.29-1.91-.13-1.91.51-1.4-1.27-1.53.51-1.91,3.56.26,2.8h-.51l-1.15-2.16H957l-.64.51-1,3.05-.64.64-7,2.54-2.29,1.28L943,478l.38.89-.38.38-1.4-1.15-2.42,2.29-1.53.51h-3l-3.06,1.28L929.78,484l-4.46.25-.76.64.25,1.15-.38,1.91-1.14,2.54h0l-.51-.63-1-4.33-4.08-4.59-1.52-3.18L911.32,475l-2.55-5.73-2.29-1.53-.76-1.27.12-1.15-1.27-2.29-.51-.38-1,1-.51,1.27-.63.13-1.15-1.28-1.4.38-.51-.25-1.27-2.55-5.22-.63.25-9.3h0l.13-1.78.76-.76.89-2.17-.25-.64-.38.26-1.4,4.33-.77.64.39-1.91,1.27-3.82,1.27-1.79,7.13-4.45,3.18-.77L907.5,437h1.14l.39-.64,1.27-.38,3.69-.89.13.51h.76l-.12-.38.89-.51,5.09-.9,21.14-2.8,6.36-2.42.77-1.78,7-1.53,4.07.39,1.66-.51,2.93-1.91,2.67.63-.26.64,2.17.76,4.58.26.64,1,1.27.76,2.8.13,2.42.64.51-.51-4.84-1.15Z"/><path id="MX-ZAC" class="cls-1" d="M498.41,306.08v-2l.77-.63,6.87-1.4,12,.76,3.18,2.17,3.19,1.27,2.54,2.16,2.81,3.95,1.91-.51,1.52.38.77,4.59h3.56l1.15-1.15,2.93-.64,3.82.51,1.52,1,2.42,4.84,1.79,1.65,2.67,1,1.78-.51.26-1,1-.39,2.68.64h0l-.64.51h0l-1,.51-.51,2.29-1.52,1.27-.89,2.17-1.28.63-2-.12-.89.63-.25,1.91-1.15,2.3L547.56,336l-2.42.64-.76.76-1,4.33,1.27,1.53-1.53,3.82L541.7,349l-6,2-4.46,6.49-4.58,2.67-2.93,1-1.14,1.27-.64,1.79-3.69.76-2.93-1.14-.89.25-1.15,2.16.76,1-.63,2.17,1.27,3.82-1.65,5.09-.26,1.66.26,1.9,1.14,1.28,5.35,3.18,1.4,1.66,2.93.38,1.4.76,1.14,2.55,1.91,2.55H531l3-.9,5.73-5.85,1.91-.89h.89l2.55,3.31-.25,2-4.2,9.3,1.78,5-.51,2h-.51l-.13.64.38.25-.51,1.27-2.41,5.1h0l-1,1.14-1.28-.76h0l-.38-.51-2.67-1L530,411.38l-2.67-1.4-4.46-1.15h0l-1.4-2.55-.76-3-5.61-3.31-1.65-1.66-1-1.78-.89.25-.51,1.66-1.53,1.15L505,402.08l-2.29.51-1.4.89-1.14,4.08-4.2,5.85-1.53,3.7.12,1.52,2.93,2.93h0l-.12,2.8.76,2.42,3.56,2.29-.63,3.44-1.28,1.66L496.89,436l-4.59,3.69-1.91-.64-1.78.64-.76.64-.39,2.54-1.91.64-.12.51-2.17-.51-1.65.38-.26.77-1.14-.13-1.28.64-3.69-2-2.93.25-1.14-.63-1-2.17-1-1-3.18-.76-.26-.64,5.1-2.29,1.52-1.4.13-1.27-.38-.77-.64-.51-1.27.64-1.15-.64-1.14-3.18,2.29-.63,2-2.42.38-3.19-.26-2.29,3.7-2.67,2.29-2.17,4.2-2.16,1.65-.26.9-.89,1.52-3.69.89-4.46-.63-.51-2.68-.12-.63-.51,1-1.91-.51-1.15-2.8-.25-2.42.89-.39,2.42L480,404l-3.05,2.42-1.15,2.17-1.14.5-.9-.63-1.65-.26-.89,1h-2.42l-.77-.89.13-.64,4.84-7.89v-1.53l-.76-2.42-1.79-1.65-1.78-.64-4.33.89-.76.77v8.91l-.51,1.53-1.53-.26L460,403.1v-4.2l2.17-5.35,1.91-2.42,1.4-1,.25-1.14-2.29-1.28-3.44.51-2.8,1.91-.13,1L459.2,396l.25,1.78-1.27,1.53-2.29,1.4-.38-.64,1.27-4.07-.64-.51L452.2,397l-.51,3.82-1.79-.38L448.5,402h0l-.89-.5-.51-1.28-.25-3.56h0l1.53-3.82,1.27-1.91,4.07-1.79.26-.76.25-7-1.14-3.95.13-1.65,1.78-3.44.76-.51,1.66-7.39.12-2.41,2.93-3.7,3.57-3-1.15-5.48.64-1.53-.51-2.41.38-2.17-.51-2-1-.63.26-1.66,3.05-.89,2.93-2.67,2.68-3.57,3-2.29.64-1.65,2.16-1.79,5,.38,2.8.9,2.8-1,1.4.12,1.27.9,3.44,1.14,1-1.14,2.16.25,7.77-.76.13-.89-.64-.51v-.51l1.28-.64-1.28-5.09-1.53-.51,1-6.24-1-1.15-1.91-.89-.51-1.4-1-.38v-2Z"/><polygon class="cls-2" points="136.06 199.13 136.06 197.99 135.17 198.11 131.35 202.95 131.09 203.97 131.47 204.86 132.37 203.72 133.26 203.72 134.27 203.21 134.15 202.7 135.04 202.57 135.93 202.57 135.04 200.79 135.04 200.15 136.06 199.13"/><polygon class="cls-2" points="164.32 246.11 164.32 246.11 163.18 246.75 163.3 247.13 165.85 247.77 167 248.53 166.1 246.5 164.32 246.11"/><polygon class="cls-2" points="271.65 336.77 273.56 337.15 273.06 334.73 269.49 328.87 269.36 330.65 270.76 335.49 271.65 336.77"/><polygon class="cls-2" points="210.54 325.82 209.39 325.69 207.99 323.91 203.92 323.65 203.66 323.91 204.05 324.42 212.83 330.78 213.21 329.76 211.56 326.58 210.54 325.82"/><polygon class="cls-2" points="242.63 282.02 241.61 283.93 242.12 285.71 243.01 286.22 242.63 282.02"/><polygon class="cls-2" points="199.84 297.17 200.23 295.51 200.48 289.91 200.48 289.91 199.21 296.79 199.84 297.17"/><polygon class="cls-2" points="244.15 297.93 244.79 297.68 245.3 296.15 243.9 297.04 244.15 297.93"/><polygon class="cls-2" points="254.21 322 254.34 323.01 255.1 323.4 255.87 323.01 254.72 321.36 254.21 322"/><polygon class="cls-2" points="256.88 327.98 258.03 325.31 255.87 323.4 254.72 323.78 255.1 324.42 254.85 325.18 255.49 325.94 255.36 326.58 256.25 326.96 256.25 327.98 256.88 327.98"/><polygon class="cls-2" points="244.79 303.41 244.41 305.19 245.55 306.34 246.44 308.88 249.75 311.56 250.39 311.43 249.12 308.63 248.99 306.72 248.48 305.95 245.94 305.19 244.79 303.41"/><polygon class="cls-2" points="200.74 285.84 200.61 283.29 200.23 289.15 200.48 289.02 200.74 285.84"/><polygon class="cls-2" points="202.14 228.54 200.74 227.27 200.23 228.16 200.86 229.94 201.63 230.07 202.14 228.54"/><polygon class="cls-2" points="100.92 204.86 102.7 206.13 102.83 205.5 101.04 204.48 100.92 204.86"/><polygon class="cls-2" points="207.74 220.39 207.23 220.27 206.72 220.65 206.85 221.16 208.12 221.16 207.74 220.39"/><polygon class="cls-2" points="228.49 276.67 227.98 277.31 228.11 278.2 228.87 278.2 228.87 277.31 229.64 276.67 229.64 275.4 231.8 272.09 233.33 272.98 232.82 270.81 233.46 269.54 233.46 269.54 232.19 270.18 231.29 269.67 231.04 270.18 229.89 270.43 230.02 272.34 228.75 274.5 228.49 276.67"/><polygon class="cls-2" points="234.99 283.55 234.35 282.02 234.35 282.02 233.59 282.14 234.09 284.06 234.6 284.31 234.99 283.55"/><polygon class="cls-2" points="226.84 267.12 226.33 267.5 226.58 268.27 227.09 268.14 226.84 267.12"/><polyline class="cls-2" points="136.82 202.57 136.44 203.08 135.93 202.57 135.04 202.57 134.78 204.35 135.55 204.99 134.02 207.15 134.91 209.7 134.15 209.06 133.89 209.7 135.93 211.35 140 209.83 139.75 208.3 141.15 205.88 143.31 207.79 143.06 208.94 143.57 211.1 143.31 211.86 143.95 212.5 143.82 213.01 142.93 212.12 142.81 213.52 144.84 215.56 144.08 217.08 142.93 216.83 140.9 213.14 138.22 212.12 138.22 213.26 136.82 214.66 135.8 214.28 135.93 213.77 134.15 212.25 132.62 211.74 130.71 210.21 129.69 208.68 130.33 205.5 129.31 205.12 127.91 206.64 128.67 206.77 128.54 207.53 127.53 207.66 126.76 207.28 123.71 208.94 122.94 208.43 119.38 208.81 117.34 208.3 116.83 207.66 114.67 207.28 113.01 207.53 112.5 206.9 110.59 206.64 107.66 206.9 106.26 205.75 105.25 206.26 106.26 207.28 107.66 210.84 108.3 210.46 109.7 211.23 110.08 212.37 110.97 212.75 111.87 211.61 112.63 212.12 112.76 213.39 114.92 215.05 116.32 217.85 120.65 219.5 123.58 221.92 124.22 223.83 124.22 228.41 124.47 228.8 125.23 228.67 126 229.18 125.87 230.2 126.51 230.58 127.14 230.07 130.33 231.98 131.22 231.09 133.76 231.47 135.29 232.24 136.69 233.25 138.09 235.8 139.75 237.58 140.26 237.46 140.51 236.82 141.15 236.56 143.95 237.33 146.24 238.98 148.28 243.69 150.32 244.2 151.21 245.99 152.23 246.62 153.25 247 154.14 246.5 154.14 245.73 155.03 245.35 155.54 243.95 156.56 242.8 158.34 242.42 158.97 242.68 158.97 243.18 158.21 242.68 157.96 243.44 159.87 243.69 162.67 245.48 163.18 245.35 163.18 243.06 163.56 242.04 164.45 242.42 165.21 241.78 165.72 237.58 166.49 236.82 167.5 240.38 167 242.04 164.96 244.08 164.32 243.82 163.94 244.2 165.85 245.09 166.36 243.82 167.5 246.24 169.67 248.91 169.29 249.68 169.8 250.31 169.54 250.57 172.34 253.12 173.24 252.86 174.63 253.24 176.04 254.26 175.78 254.52 174.25 253.37 172.98 253.24 177.56 256.94 178.33 257.06 178.33 257.57 180.87 259.35 181.89 260.88 182.78 260.5 183.55 260.88 187.62 263.81 188.26 263.68 188.51 262.79 190.55 263.3 192.59 265.85 193.73 269.41 196.15 270.81 197.3 272.34 199.97 279.22 200.35 282.78 201.37 284.18 201.5 285.84 201.37 288.89 200.99 289.02 200.61 290.29 200.86 291.57 201.37 292.08 200.61 292.58 200.61 294.11 201.25 294.24 201.12 297.3 200.23 297.42 199.84 299.71 198.83 302.26 198.57 304.68 199.72 304.55 199.59 305.83 198.7 307.86 197.68 308.5 198.44 310.28 197.94 311.3 198.32 310.15 197.43 308.5 198.44 307.61 198.32 303.66 199.72 299.33 199.46 297.55 196.92 306.97 194.37 313.59 193.86 313.59 193.99 314.36 194.88 314.99 196.41 314.48 198.06 315.38 199.08 316.65 199.21 317.92 198.95 318.69 198.19 318.56 198.06 319.19 200.23 321.61 200.35 322.51 201.63 323.14 201.75 322.76 200.23 320.34 198.95 319.45 199.84 318.05 199.34 316.27 198.06 315.25 198.32 314.87 196.92 313.21 196.66 312.32 197.04 311.68 197.81 311.56 197.55 312.19 198.06 313.72 199.08 313.72 198.95 310.41 199.46 309.77 199.08 308.88 199.84 307.74 200.35 308.25 200.1 308.88 200.61 309.01 200.1 309.9 200.48 310.15 199.59 311.43 199.84 312.45 200.61 312.96 200.48 313.85 199.84 313.85 200.23 314.74 202.77 316.01 204.68 316.27 204.43 315.76 205.32 315.38 206.08 316.01 205.7 316.39 208.5 319.45 209.39 322 209.27 323.91 210.03 323.91 210.03 322.89 213.09 323.14 213.21 321.74 214.49 322.12 215.12 322.89 214.74 323.01 216.01 326.83 216.91 326.83 216.78 327.47 218.82 327.73 220.22 329.38 220.09 329.64 233.84 338.04 248.74 352.68 256.5 356.88 258.92 359.94 262.11 365.8 263.89 374.83 265.42 378.4 268.47 380.95 270 380.95 270.76 380.06 271.91 380.06 273.18 379.04 273.82 377.76 276.49 376.24 276.49 375.34 278.02 374.33 280.82 373.56 282.22 372.67 284.51 369.74 285.28 368.09 285.91 362.49 285.4 361.98 285.66 361.08 283.88 358.54 284.26 357.39 277.38 354.08 276.88 353.44 276.49 351.41 276.88 348.86 272.8 344.79 272.67 342.24 273.56 341.1 272.93 340.46 272.8 339.82 269.49 340.84 267.96 340.46 267.07 336.38 264.52 334.35 261.72 333.07 261.21 331.67 259.81 330.91 259.81 329.89 257.9 329.64 257.01 330.27 256.63 331.55 257.78 334.35 257.65 335.62 256.12 336.89 256.12 337.91 253.96 338.17 253.7 336.26 254.34 335.87 255.23 336.77 256.88 336.13 256.88 335.75 255.36 335.87 249.75 334.73 247.84 332.95 246.95 331.04 245.55 329.38 245.43 325.69 244.03 324.03 243.77 322.63 244.03 318.69 245.17 317.54 246.19 315.25 246.32 313.72 245.55 311.17 243.39 308.25 243.13 306.59 242.12 305.83 241.61 306.08 240.97 304.94 239.82 304.3 239.31 302.64 238.42 302.01 238.42 300.73 237.66 299.71 237.15 297.68 237.53 297.55 237.15 296.15 236.13 295.13 234.6 291.06 234.86 289.02 231.68 288.64 229.26 285.58 228.24 281.63 227.98 281.89 225.69 279.98 225.69 278.58 224.8 277.82 224.67 275.4 224.16 274.63 224.04 273.36 224.67 272.47 224.54 270.69 225.31 269.54 222.76 262.92 223.27 262.15 223.15 260.63 222.89 259.99 222 259.61 220.47 257.19 220.47 255.66 221.24 253.63 217.67 252.48 217.29 251.72 217.54 247.26 214.74 245.6 214.23 244.59 212.45 243.44 211.56 242.04 209.27 240.26 208.25 240.89 209.14 242.93 209.52 246.62 213.85 251.21 211.94 252.99 210.67 251.97 209.78 249.81 208.38 249.04 207.99 247.51 206.47 246.62 207.1 244.97 207.99 244.2 207.61 242.55 206.34 241.66 206.34 241.02 205.19 240.51 203.03 237.46 203.41 235.42 204.43 234.02 205.19 234.02 205.06 233.13 203.79 233.13 203.28 232.36 199.97 231.6 196.66 228.92 197.17 227.91 196.03 225.1 193.86 222.81 192.97 218.1 192.08 216.83 190.04 215.43 188.9 215.17 188.13 214.41 184.57 213.39 183.04 211.23 182.53 211.23 181.13 209.57 180.62 207.15 178.96 205.75 179.09 205.12 178.33 202.95 177.18 202.7"/><polyline class="cls-2" points="405.34 390.88 404.96 391.13 405.21 392.28 404.83 391.13 404.83 391.13 404.32 391.64 405.21 394.44 404.32 394.7 402.92 392.53 402.54 392.79 404.96 398.52 405.98 403.86 406.23 404.37 407 404.25 405.72 396.23 405.98 395.33 405.34 394.7 405.47 393.17 405.72 393.81 405.34 394.7 406.11 395.21 405.85 396.23 406.23 396.99 406.49 401.32 407.25 402.46 407 403.36 407.51 403.74 407.89 403.23 408.4 403.36 408.52 404.12 408.02 404.5 408.27 405.26 409.54 404.88 410.05 405.77 410.31 405.52 411.71 406.41 411.33 408.32 408.78 407.05 408.4 406.03 407.63 405.9 407 404.37 405.98 404.88 405.72 408.96 406.74 412.39 410.44 418.89 412.35 423.34 418.2 427.42 419.35 427.04 420.37 428.06 420.62 429.71 418.84 433.15 419.73 436.71 419.09 440.66 419.35 441.93 417.95 443.97 416.67 443.59 416.42 444.61 415.27 446.13 413.75 447.15 412.73 449.19 412.22 449.06 411.07 451.74 410.05 452.63 413.87 453.9 415.02 452.88 415.65 453.01 417.18 455.3 422.79 448.05 422.91 448.05 417.18 455.18 418.84 456.57 419.22 457.85 418.33 459.89 416.42 461.29 407 462.69 405.85 464.21 404.45 464.85 405.09 466.89 407.89 469.94 408.14 470.71 408.91 470.96 409.42 472.49 409.16 475.29 410.56 478.35 415.53 485.1 416.04 486.5 417.82 488.41 418.2 489.3 421.77 491.97 421.77 492.48 422.79 492.48 423.8 493.5 424.06 495.41 424.69 495.66 424.57 496.68 425.59 497.32 426.1 498.21 425.59 499.23 428 501.39 430.55 502.67 431.7 502.54 432.08 501.9 433.23 502.28 433.35 502.92 432.72 503.56 432.72 504.45 433.74 504.19 434.37 504.58 435.26 504.32 435.39 504.96 436.15 504.83 436.79 505.47"/><polyline class="cls-2" points="177.18 202.7 178.33 202.95 179.09 205.12 179.47 201.93 179.22 200.66 177.95 200.02 178.46 198.37 177.69 196.59 178.33 194.04 175.78 190.47 176.54 187.16 176.16 186.27 176.67 185.63 176.54 184.87 175.53 185.13 175.4 184.11 174.76 183.72 171.71 184.49 168.4 182.58 167.63 178.12 166.61 177.1 164.83 171.25 163.43 170.48 161.78 171.88 160.38 171.88 159.87 170.61 159.74 168.06 159.23 167.81 159.23 167.3 158.47 167.43 157.96 166.41 157.32 166.92 156.68 166.54 156.17 167.43 156.68 167.81 156.05 168.7 155.03 168.57 154.01 166.41 154.39 166.16 153.88 164.12 154.52 162.59 153.5 160.55 150.95 157.24 150.95 156.61 151.84 155.59 151.46 154.44 149.55 152.91 147.13 149.86 145.22 148.97 145.1 148.2 143.19 147.06 140.51 144.13 138.48 143.11 137.59 141.58 136.44 140.94 135.17 139.54 134.78 139.54 133.26 137.63 130.96 136.62 130.46 137.76 129.05 137.51 128.42 136.62 127.4 136.23 126.89 135.09 126.89 132.67 126 131.65 124.85 131.4 124.47 130.25 122.81 129.49 120.65 124.39 119.89 123.88 118.61 121.34 119.38 118.54 119 118.15 119.63 115.61 119.38 114.59 119.76 112.93 119.76 110.13 117.59 104.91 117.72 98.29 116.96 93.84 113.27 91.54 113.39 90.65 114.03 89.89 112.25 88.23 111.48 85.43 111.74 82.63 111.36 81.74 112.5 77.79 112.63 73.21 113.52 70.15 114.92 68.37 113.78 63.28 114.41 60.99 115.3 60.99 115.69 61.5 114.79 61.11 114.28 61.37 114.16 63.15 114.67 64.42 115.69 65.57 117.09 66.21 117.98 66.21 119 66.97 119.38 66.08 118.61 64.68 116.96 63.53 116.32 62.26 116.58 62.52 118.23 63.28 120.91 63.41 123.96 66.46 124.98 66.59 125.49 67.35 129.18 69.39 131.09 71.43 135.04 73.21 138.6 73.34 139.24 71.81 140.13 71.94 141.02 70.66 140.77 70.03 140.26 70.15 140.51 69.39 141.28 68.5 142.3 69.14 142.68 68.37 143.06 69.14 143.44 68.88 143.7 69.64 149.17 72.06 150.7 73.21 151.34 74.48 151.34 75.5 151.97 77.54 151.72 79.32 153.37 79.58 154.14 79.96 154.26 80.59 157.45 81.1 157.96 80.85 158.21 81.36 163.18 82.5 164.19 81.61 165.09 83.01 168.01 84.67 168.52 84.67 168.78 85.69 169.16 85.56 169.8 89 169.8 90.4 168.91 91.8 168.52 91.67 168.4 95.49 167.5 98.42 168.65 102.75 171.96 108.73 175.02 111.28 176.16 113.83 176.29 117.77 178.84 120.19 179.47 121.97 179.35 126.3 180.11 128.21 179.6 131.4 179.98 131.78 180.75 131.52 182.28 132.29 182.66 134.32 184.18 136.36 184.95 138.78 186.22 139.67 188.26 143.24 189.53 144.38 189.79 145.78 191.06 146.55 191.44 147.31 190.17 150.88 190.42 152.28 192.59 153.29 193.61 152.79 195.26 152.79 196.03 153.55 196.92 155.84 196.15 158.13 197.04 158.26 197.17 159.03 197.68 159.28 198.19 160.68 197.68 161.95 198.06 162.08 198.19 163.86 198.7 164.88 197.94 165.77 200.35 166.54 200.74 167.43 202.01 168.45 202.52 169.85 204.05 170.23 205.7 171.5 206.08 171.25 206.72 172.27 207.36 171.76 208.12 172.39 208.12 173.41 207.36 173.92 206.72 172.52 206.08 173.16 205.32 173.28 205.96 174.94 211.05 179.52 212.45 182.83 212.71 184.36 219.58 186.91 220.73 187.8 220.85 189.58 222.38 190.98 222.89 190.98 223.4 193.02 223.91 192.89 224.8 194.04 224.93 195.18 226.33 196.71 226.46 197.86 227.35 199 228.62 199.39 229.77 200.91 231.04 201.42 232.95 203.08 234.6 202.19 236.26 202.44 236.26 203.46 237.02 203.59 236.51 204.35 237.79 205.62 239.31 206.13 239.57 204.86 238.81 203.72 240.97 202.57 241.35 203.59 246.32 204.73 247.08 205.5 247.72 204.86 248.86 205.12 250.14 206.13 249.75 206.77 248.61 206.52 248.1 207.53 248.23 208.43 247.72 208.94 248.1 210.34 248.86 210.46 248.1 210.97 247.84 212.88 248.1 211.86 249.12 211.99 247.34 213.26 247.21 214.28 248.23 215.3 247.97 215.81 248.74 217.34 248.35 219.88 248.86 220.9 249.37 220.9 249.63 222.56 250.52 223.19 251.16 222.69 251.92 223.19 251.92 224.85 252.43 226 252.05 226.38 253.7 227.27 257.65 231.09 264.01 232.62 265.29 233.51 266.69 232.36 267.2 232.87 267.58 232.36 269.75 234.14 270.13 236.18 269.87 236.69 270.64 237.2 270.38 238.35 269.24 236.56 268.98 236.82 270.64 239.11 272.04 242.68 272.04 243.95 273.18 245.6 274.71 246.88 277.89 248.15 278.53 247.39 281.97 247.39 281.46 246.5 282.35 245.09 282.86 245.22 282.99 245.99 283.75 245.73 284.26 246.62 284.9 246.62 285.4 247.77 285.4 248.28 284 248.02 285.15 248.28 286.93 249.55 289.86 252.73 291.64 255.92 291.39 257.19 293.04 259.35 293.3 258.72 293.94 258.72 293.68 256.68 294.06 256.43 294.06 256.43 293.81 256.68 293.94 258.59 293.94 259.61 295.08 261.9 295.72 262.15 296.1 261.9 296.36 262.41 295.34 263.3 295.85 264.7 293.55 262.79 294.06 262.54 294.19 261.14 293.55 260.75 293.55 260.75 293.04 259.86 292.41 259.86 292.28 260.5 292.28 260.5 292.03 262.67 291.01 264.83 290.63 264.19 290.37 264.57 290.75 265.34 290.37 266.61 289.99 266.74 289.35 266.1 290.12 262.67 291.26 262.28 291.52 261.01 291.13 260.88 289.86 262.28 288.97 265.34 286.3 269.67 286.17 270.81 285.79 270.69 284.9 273.36 284.9 274.25 285.53 274.5 285.91 275.91 285.66 275.91 285.4 279.34 285.91 280.24 287.31 279.85 289.35 281.51 289.99 281.63 289.86 284.06 287.31 283.8 287.57 284.18 291.13 284.82 293.17 286.09 293.04 285.2 291.01 283.67 291.64 283.16 293.81 285.07 294.32 286.6 295.08 286.73 295.34 285.96 297.37 286.6 298.39 284.31 299.79 283.55 301.19 283.55 301.57 285.2 300.94 285.84 300.17 285.58 299.79 286.86 298.65 287.49 297.5 286.35 297.5 287.37 296.86 287.87 295.46 288.13 297.75 290.8 298.77 290.55 298.39 289.53 299.92 289.27 300.94 289.66 300.68 290.17 301.19 290.42 301.32 291.19 301.96 290.93 302.72 289.53 302.21 289.15 302.47 288.26 302.21 287.49 302.72 287.24 304.25 287.24 304.76 288.51 306.29 288 306.92 288.76 306.03 290.42 307.94 293.48 309.6 292.97 310.11 293.6 309.47 294.37 316.34 297.81 318.76 300.61 319.27 299.84 318.89 298.95 319.53 297.93 321.18 298.7 321.06 300.1 323.09 300.1 323.47 301.12 325.89 303.28 327.04 303.54 327.04 302.9 329.08 304.17 329.71 305.06 330.1 307.48 331.37 308.37 331.24 309.26 330.6 310.15 330.6 310.79 331.5 311.17 330.99 311.81 330.86 312.83 331.24 312.83 331.37 313.85 332.13 314.36 331.37 315.88 329.71 314.36 328.95 314.74 330.73 316.78 330.6 318.3 331.62 319.58 333.02 320.21 333.79 319.7 334.04 320.34 336.72 321.49 338.88 323.27 339.13 324.54 340.41 324.8 341.17 324.03 342.57 325.94 343.97 325.56 343.85 323.78 345.5 323.78 347.41 326.32 347.67 327.85 347.67 328.36 346.77 328.62 346.65 329.51 347.41 330.27 346.77 330.4 345.76 329 344.99 329.13 344.36 328.11 343.08 327.98 342.44 326.96 338.5 324.8 337.73 323.91 337.35 324.67 343.34 328.24 349.7 333.33 351.49 333.71 356.32 337.66 357.09 337.4 357.34 336.77 357.98 336.89 357.85 337.91 358.49 338.29 358.11 338.8 356.83 338.55 366.51 347.33 366.76 348.86 369.56 353.19 369.06 353.83 372.24 356.37 373.13 357.77 374.91 359.3 374.79 359.68 377.97 362.87 379.62 365.41 379.24 365.92 380.39 367.96 381.28 368.6 381.15 369.49 381.66 369.87 381.79 369.23 382.55 368.98 384.33 370.38 384.33 370.89 382.81 369.23 382.3 369.62 388.15 375.47 393.63 382.09 395.79 383.49 399.61 387.06 404.32 394.44 404.83 393.81 404.2 391.64 404.83 389.86 405.09 390.75 405.6 389.86 404.96 388.71 405.72 389.6 405.47 390.88"/><polyline class="cls-2" points="436.79 505.47 437.55 505.72 437.43 506.1 436.54 505.59 436.15 506.1 441.88 507.63 444.18 508.65 444.43 509.41 446.85 508.27 448.25 509.03 448.76 509.67 448.63 510.43 448 510.56 447.87 511.58 452.96 513.36 459.58 516.8 466.58 522.4 466.58 522.4 468.49 524.82 468.11 525.84 471.8 528.77 473.97 533.99 478.81 536.91 479.57 536.66 485.81 538.95 490.65 539.84 497.14 542.9 507.2 545.06 512.42 546.59 516.11 548.5 517.77 547.87 517.51 546.85 517.51 546.85 518.28 547.36 519.17 546.21 520.95 546.08 523.75 546.85 528.59 549.65 530.37 552.58 532.66 554.23 533.68 556.65 534.96 557.16 535.08 557.92 537.88 558.18 538.9 558.94 540.05 560.34 539.79 561.36 547.69 564.8 548.71 565.95 551.89 568.24 552.53 569 552.4 569.76 586.27 581.86 587.28 582.37 588.68 584.66 589.45 584.28 589.2 583.77 590.47 583.64 590.72 584.28 589.96 585.04 591.23 585.42 593.52 587.34 596.2 588.61 598.23 589.37 603.33 589.37 607.27 590.26 620.9 594.34 622.42 594.59 622.93 593.83 625.1 593.57 627.52 596.76 631.98 601.47 632.1 601.34 636.81 603.12 642.8 604.14 649.8 607.83 656.93 612.67 660.11 613.18 660.62 612.67 663.93 613.18 664.82 612.93 668.26 613.82 670.81 613.69 674.88 614.45 679.72 616.62 680.1 617.64 680.99 618.27 684.18 619.29 686.09 620.44 691.18 621.2 695.76 623.11 697.67 623.11 700.09 621.97 705.82 622.22 709.51 620.44 709.26 620.06 711.17 619.55 711.17 619.16 714.61 617.64 719.57 616.24 721.1 615.22 724.28 614.84 726.83 613.69 726.96 613.05 729.5 613.05 729.63 612.29 731.54 612.54 731.79 611.91 733.58 611.27 733.32 610.25 733.71 609.62 736.25 608.47 736.51 607.2 737.27 607.2 737.91 606.56 740.45 606.43 740.71 605.67 743 605.8 748.09 605.03 752.8 604.9 752.68 604.52 750.26 604.27 742.11 604.27 742.62 603.25 743.38 603.12 743.13 602.1 744.4 600.96 745.93 601.09 747.58 598.16 749.75 597.65 751.53 598.92 751.15 599.81 752.55 600.96 751.15 602.1 751.27 602.61 751.91 602.87 752.29 602.1 753.57 601.98 754.08 600.96 755.6 599.81 758.66 600.96 758.15 602.36 757.26 603.25 753.95 604.4 754.2 604.9 764.01 606.31 767.7 607.45 773.81 610.13 773.81 610.13 775.34 610.25 774.45 608.85 773.94 608.85 773.94 609.36 770.12 606.43 764.52 606.05 763.12 604.78 763.12 604.01 764.01 603.89 763.88 602.61 765.41 602.1 766.43 604.01 767.57 604.01 768.59 605.16 769.48 605.03 770.12 605.67 770.75 605.67 773.3 604.65 773.3 605.03 773.3 605.03 773.56 606.69 774.45 607.83 780.43 609.11 781.83 611.53 781.71 612.03 780.81 612.42 780.56 611.65 779.54 611.78 779.16 612.29 784 614.58 791.76 619.93 798.77 625.4 812.9 638.77 813.92 639.03 814.04 640.17 828.05 654.94 833.78 660.03 834.8 659.14 835.31 657.23 836.2 655.71 835.05 650.23 836.45 648.45 836.2 645.27 836.71 644.38 837.73 644.5 839 642.47 834.16 636.1 849.7 609.23 890.69 609.62 890.31 607.83 891.07 607.96 891.2 607.45 890.44 607.07 891.33 606.56 890.31 605.16 891.2 603.12 890.82 602.61 891.07 601.85 891.71 601.72 892.09 600.7 891.71 599.94 892.09 599.56 891.97 598.79 891.46 598.03 889.29 598.03 889.55 597.39 888.91 596.63 888.15 596.88 887.38 596.12 886.24 596.5 885.85 595.87 884.84 596.37 884.58 595.87 885.47 595.48 885.22 594.85 884.2 594.97 883.82 590.9 882.03 588.1 879.36 586.44 879.23 585.81 877.83 585.93 876.69 584.92 875.41 584.92 875.03 583.9 873.63 583.26 873.38 583.64 872.61 582.88 870.96 582.37 870.83 581.61 869.05 579.82 868.67 578.55 867.39 578.17 865.86 576.77 865.48 575.49 864.72 575.24 863.96 574.22 864.08 573.2 862.81 572.82 861.79 573.2 860.52 571.8 859.63 571.93 858.86 570.66 859.63 570.53 859.75 570.53 873.12 570.27 873.38 551.81 873.38 549.77 873.38 549.77 873.38 551.81 931.82 551.81 931.94 547.61 931.94 547.61 933.47 546.08 935.76 545.57 937.04 547.1 938.31 546.97 939.2 548.25 940.35 548.76 941.49 550.03 941.37 547.99 943.4 546.34 944.17 544.55 945.95 543.54 947.48 539.84 948.88 538.06 949.39 535.51 950.79 534.11 951.81 530.29 953.08 529.15 954.61 529.53 955.88 529.02 956.13 529.4 959.06 529.15 963.14 521.64 961.99 522.15 961.87 521.89 963.26 521.38 966.19 516.8 967.21 517.18 966.83 518.33 967.85 519.22 968.36 521 967.85 522.53 968.49 523.29 967.21 525.46 966.83 528 965.94 528.64 967.21 530.17 970.52 531.19 970.27 532.46 971.29 532.71 971.54 533.61 972.18 533.99 971.67 535.77 972.18 535.64 972.3 536.91 971.67 537.42 971.67 538.32 972.43 538.19 973.32 538.83 974.09 534.62 975.87 531.7 976 529.02 976.51 527.88 977.52 521.89 978.67 520.62 980.2 514.63 982.75 509.29 983.13 505.21 985.93 501.9 984.65 502.03 984.27 503.43 984.65 501.65 984.15 501.39 983.13 501.9 980.45 505.47 978.67 505.47 978.8 504.58 978.29 504.45 979.18 503.43 979.18 501.9 979.95 499.74 983.13 497.83 983 498.85 983.64 498.85 986.18 496.43 987.08 493.24 986.44 492.23 984.15 492.48 984.53 492.99 983.51 494.01 982.75 493.24 980.71 493.63 979.56 495.28 978.8 495.41 979.18 494.39 978.67 494.26 978.8 493.24 977.91 493.75 977.78 492.99 976.51 492.1 976.76 489.68 979.82 489.17 981.85 485.61 983 484.97 983.51 485.48 984.4 485.1 985.8 482.8 985.67 481.15 986.44 481.66 986.44 481.02 985.8 480.77 985.04 478.35 985.04 475.93 986.82 470.83 988.73 468.67 990 465.49 992.17 462.43 997.13 458.61 999.55 455.81 1000.06 454.79 1001.46 453.9 1001.46 453.26 1002.86 451.36 1004.39 449.83 1005.92 444.73 1006.3 443.84 1007.32 443.72 1008.21 440.53 1006.68 439.51 1006.43 438.5 1006.68 436.71 1006.17 435.19 1006.94 433.15 1006.81 430.98 1005.92 430.73 1006.81 432 1006.94 433.15 1005.92 434.04 1005.66 436.08 1005.15 436.2 1003.88 431.11 1001.84 428.31 1001.84 427.29 1001.08 426.65 1000.7 426.91 999.93 425.89 998.15 425.38 997.51 424.75 997.01 424.87 996.11 425.89 997.01 426.27 996.62 428.82 993.19 429.84 992.8 430.6 992.29 430.09 990.26 429.84 989.37 430.09 988.98 429.58 986.31 428.82 985.42 429.33 984.78 428.95 984.78 428.44 983.13 428.31 983.13 428.31 976.51 426.78 981.22 427.93 980.71 428.44 978.29 427.8 975.49 427.67 974.22 426.91 973.58 425.89 969 425.51 966.83 424.75 967.09 424.24 964.41 423.6 961.48 425.51 959.83 425.89 955.75 425.64 948.75 427.04 947.99 428.82 941.62 431.24 920.49 434.04 915.39 435.06 914.5 435.44 914.76 435.82 913.99 435.82 913.87 435.31 910.17 436.2 908.9 436.59 908.64 437.22 907.5 437.22 904.83 438.88 901.64 439.51 894.51 444.1 893.11 445.75 891.84 449.57 891.46 451.61 892.22 450.85 892.48 449.83 892.48 451.61 892.22 459.38 892.48 451.61 892.48 451.61 890.95 453.39 890.44 457.21 888.65 461.8 889.29 466.12 888.91 467.14 889.42 472.75 888.91 473.13 889.42 474.78 889.04 476.56 890.31 480 888.53 483.19 883.56 486.75 883.31 488.15 882.16 489.55 882.29 490.32 882.93 491.08 882.03 493.37 882.29 496.17 881.65 498.72 881.78 499.99 881.14 501.14 874.9 506.87 868.79 511.32 860.13 516.03 856.95 519.22 856.95 519.6 857.84 519.47 857.97 518.84 858.99 517.82 859.63 517.94 860.64 516.93 861.54 515.27 862.55 515.02 861.28 516.42 861.41 517.43 860.52 517.94 860.9 519.22 862.43 519.98 863.57 519.09 864.97 520.36 865.23 521.25 864.85 522.91 864.08 523.29 862.94 527.11 857.33 529.02 856.44 529.91 856.19 530.8 854.4 530.93 845.75 528.77 845.49 528.13 844.09 527.24 843.33 527.37 843.07 526.73 842.05 526.73 842.57 528.13 841.16 528.51 840.4 527.49 840.91 526.86 840.78 525.84 841.04 525.71 841.93 526.22 842.82 525.07 844.09 526.73 844.47 526.35 844.86 526.86 845.62 525.33 843.71 524.31 842.57 522.53 830.09 523.29 826.01 523.93 827.54 528.77 828.3 529.91 830.09 531.19 830.09 531.19 828.3 529.91 827.41 528.77 826.01 523.93 826.01 523.93 819.26 525.2 816.34 528.77 812.52 530.8 809.72 531.19 806.02 530.8 804.62 531.44 807.04 532.33 806.53 533.1 805.64 533.1 805.51 532.71 804.5 533.35 803.48 533.22 803.48 532.08 804.24 531.44 803.22 530.93 796.35 531.19 795.2 532.33 794.95 531.44 790.75 532.46 790.87 533.99 790.11 534.75 788.45 535 787.56 535 787.18 534.37 785.91 534.62 785.01 535.13 785.4 536.41 784.63 536.91 781.2 537.42 781.07 535.9 775.34 537.81 775.34 537.81 766.17 540.1 761.33 540.61 757.9 538.95 757.26 535.9 753.69 532.33 753.44 531.57 752.55 530.55 751.78 528.26 751.15 527.62 746.95 527.24 744.14 526.48 743.38 524.95 739.56 522.02 727.47 521.76 723.9 520.75 721.61 519.22 721.35 520.75 720.59 520.36 719.45 520.75 719.57 521.64 718.04 521.76 717.79 521.13 718.3 520.75 719.06 521.13 719.19 520.87 718.81 520.11 717.92 519.73 717.92 518.84 717.28 518.71 717.41 518.33 718.55 518.33 721.23 520.11 721.23 519.22 716.77 517.05 715.63 515.91 714.73 513.62 714.35 510.43 711.3 509.92 710.4 509.16 710.02 508.01 710.53 507.12 709.26 505.47 707.99 504.83 707.73 503.94 706.2 503.3 704.04 501.65 703.15 498.34 703.4 496.05 701.49 493.37 701.62 491.84 700.73 490.57 700.6 488.02 699.2 483.82 695.89 480.13 695 478.35 690.67 472.87 683.16 464.72 682.27 463.2 676.92 457.98 675.9 456.19 675.01 452.5 669.15 439.77 668.13 436.08 667.5 435.82 667.5 434.93 667.5 435.44 668.13 434.93 670.3 429.58 671.19 425.76 664.31 419.52 661.89 416.34 661.89 416.34 659.48 412.65 659.35 413.67 659.99 413.41 661.89 418.12 665.46 422.2 667.12 424.75 669.41 426.78 669.53 428.44 667.24 432.89 667.37 434.42 666.1 433.4 665.46 431.24 665.97 429.58 665.33 428.56 663.42 429.07 661 424.87 661 423.47 659.86 422.33 659.35 418.12 658.59 416.47 659.09 416.09 659.22 414.81 657.06 409.08 656.29 402.21 653.75 403.99 653.75 403.99 656.29 402.21 656.29 402.21 656.55 401.83 655.02 398.26 654.51 398.52 653.75 395.97 653.75 394.7 654.26 394.7 654.13 391.13 652.98 390.24 653.11 388.71 654.38 386.04 656.04 384.13 656.42 381.71 657.06 380.82 657.31 376.24 656.93 362.23 658.2 350.01 657.57 350.39 657.57 350.13 658.08 349.75 658.08 349.24 656.93 348.61 656.93 339.69 655.78 339.19 655.78 338.55 656.55 338.55 656.29 339.31 656.55 339.44 656.93 338.8 657.82 330.65 657.57 326.58 656.55 327.47 656.42 329.51 655.66 329.76 655.91 328.87 655.4 328.62 654.26 325.82 654.64 324.42 654.13 323.78 655.02 323.14 654.76 322 655.78 322.89 657.06 322.51 656.93 324.29 657.31 325.05 657.95 324.93 658.97 319.58 658.59 318.56 658.08 318.3 658.71 314.61 658.59 313.59 657.82 313.08 657.95 312.19 658.46 312.19 658.71 310.92 660.62 309.52 659.6 309.26 659.09 308.25 658.08 308.25 657.57 307.74 659.35 304.04 659.22 302.39 660.24 300.99 659.09 300.1 659.35 299.21 658.59 298.7 658.2 299.08 657.31 297.93 656.67 297.81 656.93 297.04 658.08 297.81 658.71 297.68 659.09 296.53 658.46 295.51 659.6 294.5 659.48 293.86 661.77 294.24 661.77 295.64 662.28 296.4 663.3 295.64 663.68 297.3 664.7 297.04 664.19 295.39 663.8 295.13 664.31 294.24 665.08 293.99 665.33 294.62 665.84 294.24 665.33 292.84 665.08 293.09 664.19 291.69 663.3 291.82 664.57 290.55 665.33 291.57 667.24 291.69 667.12 292.46 668.52 292.33 669.02 293.09 668.52 293.86 669.41 294.62 667.12 298.57 668.01 298.82 675.26 284.82 676.54 279.98 676.92 273.61 676.54 273.23 674.75 273.36 672.72 273.74 672.59 274.38 671.44 274.38 671.19 274.89 670.55 274.38 669.66 275.14 669.79 277.31 667.88 277.69 667.12 277.05 667.37 276.67 664.95 276.03 663.93 274.25 663.42 274.63 662.79 273.36 662.28 273.49 660.88 271.07 657.18 271.07 656.17 270.81 656.29 270.18 655.78 269.92 654.89 270.3 654 269.8 650.69 270.18 650.18 269.67 648.53 269.92 648.4 270.56 647.63 270.56 647.13 269.67 644.96 270.3 644.07 269.54 643.31 270.18 642.92 269.54 641.91 269.54 640 268.39 638.98 267.38 638.98 266.48 637.32 266.61 635.54 265.08 635.54 264.19 633.5 264.7 633.63 264.06 632.36 263.56 631.72 264.19 631.59 263.56 631.08 263.68 631.08 262.92 628.15 263.17 626.12 260.5 624.59 260.25 624.08 259.1 621.66 259.1 621.15 259.48 620.26 258.72 619.24 258.85 619.24 258.08 618.61 257.95 617.46 258.21 616.44 257.44 615.42 257.95 614.28 256.68 614.79 255.15 613.89 253.63 612.37 252.86 612.24 249.93 611.73 249.68 611.09 246.62 609.95 245.22 610.08 244.33 608.8 241.66 607.78 241.27 607.27 239.37 605.87 238.98 605.36 238.09 605.75 237.58 604.6 236.05 603.71 235.8 603.46 234.27 604.09 233.38 603.71 232.87 604.22 230.32 603.71 227.78 603.2 227.14 602.31 227.4 601.93 227.01 602.05 225.87 600.78 225.61 602.05 223.07 602.44 219.38 601.93 218.74 600.91 218.74 601.42 216.57 600.53 215.05 600.02 214.79 599.63 215.05 598.74 213.77 597.85 213.77 597.6 214.28 596.71 214.03 596.58 213.14 594.92 213.14 594.67 212.75 593.9 213.14 592.25 215.43 588.68 216.45 587.92 217.21 587.92 217.21 588.68 216.32 592.25 215.3 593.9 213.14 594.67 212.75 593.27 210.46 592.25 210.21 592 209.06 590.98 209.19 590.6 209.95 589.32 210.97 588.05 211.1 585.63 212.75 585.63 212.75 588.05 211.1 589.32 210.97 590.6 209.95 590.98 209.19 590.6 208.17 589.83 208.04 589.83 206.77 588.81 205.37 589.07 204.1 587.79 202.82 587.79 201.42 586.65 201.29 585.63 199.77 585.38 198.37 584.36 197.86 583.21 195.57 579.26 193.78 578.88 192.38 577.86 192.26 576.72 190.85 576.72 189.46 574.81 186.4 575.06 184.74 574.17 183.47 575.06 183.22 575.19 182.71 573.66 182.32 572.77 181.18 573.28 179.78 571.75 178.76 571.62 177.74 569.97 176.98 569.71 174.18 568.95 173.41 568.82 171.76 568.44 170.99 567.55 170.87 566.66 168.32 565.77 168.19 565.13 166.66 564.75 161.95 564.24 160.81 561.18 158.51 561.57 158.01 560.55 155.84 558 154.57 557.62 153.55 555.84 152.28 553.8 151.26 552.14 148.07 549.22 147.44 548.58 146.04 546.16 145.91 545.78 145.4 546.41 144.13 546.16 141.96 545.65 141.84 545.14 142.22 544.89 144 544.12 143.36 544.5 141.45 544 140.69 542.47 140.94 542.09 139.16 541.32 138.65 540.81 137.38 541.45 137 541.07 136.74 539.79 137.38 539.54 135.98 536.99 137.13 536.74 135.22 535.97 135.85 535.85 136.62 533.43 137.25 533.05 136.74 532.54 137.13 532.03 136.74 531.52 137 529.35 135.98 528.34 136.36 528.46 135.6 527.83 135.22 525.28 135.72 524.64 136.23 524.39 135.72 522.35 135.34 521.08 135.6 520.95 135.98 520.31 136.11 518.53 135.98 516.49 134.07 513.82 133.69 513.82 133.18 512.04 132.8 510.64 134.07 510.13 136.11 509.24 136.87 505.8 136.23 505.93 136.87 504.78 137.63 504.02 137.25 502.23 138.02 500.83 137.63 499.94 139.67 500.07 140.18 498.67 141.58 498.54 143.24 497.9 142.98 497.4 145.02 496.5 145.78 496.63 147.06 495.74 148.71 495.74 149.86 496.25 150.11 495.23 151.26 495.36 151.77 494.08 152.02 493.83 154.19 493.32 155.33 494.34 155.84 494.6 156.73 493.96 157.12 493.19 156.86 492.94 157.75 491.67 158.39 491.28 158.01 490.52 158.26 490.39 159.03 488.99 161.19 487.97 161.32 487.59 162.72 487.34 162.46 486.7 165.39 485.56 165.77 484.41 165.26 482.37 165.39 481.99 164.88 481.35 165.52 481.23 164.88 479.57 163.99 479.82 163.23 479.32 163.1 478.93 163.99 478.04 163.86 475.24 169.08 475.24 169.59 475.24 169.59 475.24 169.08 478.04 163.86 476.64 163.1 476.01 162.21 475.24 162.21 475.37 161.7 472.69 159.03 469.64 159.03 469.38 158.51 467.48 158.13 466.2 156.35 465.69 156.73 465.44 155.08 464.93 155.33 463.15 154.44 459.33 153.93 456.78 152.79 455 151.13 453.21 150.37 451.69 148.2 451.81 147.44 451.05 147.18 450.92 146.68 448.38 145.4 447.74 145.78 446.34 145.02 445.83 143.87 441.37 140.44 439.72 135.47 438.32 133.05 436.92 131.91 436.54 130.5 436.92 130 436.41 128.98 436.54 127.7 436.03 127.45 436.66 124.78 436.28 123.5 436.54 121.59 435.9 119.56 434.12 118.15 434.24 117.52 432.33 115.48 432.59 114.97 431.19 114.08 431.44 113.06 430.81 112.04 430.81 110.26 429.92 107.46 428.77 106.19 427.37 105.68 426.99 104.02 426.22 103.13 425.08 103.26 424.06 102.62 423.04 100.84 421.51 100.58 421.64 100.08 421.13 100.08 420.37 99.18 419.86 99.44 419.6 98.67 418.46 99.06 417.31 97.91 416.93 98.42 415.15 97.15 413.87 96.89 414.13 96.25 413.36 95.11 410.94 93.71 410.56 92.69 409.03 91.93 407.51 88.49 405.98 87.22 404.07 86.45 403.56 85.69 401.9 85.18 401.65 84.16 398.85 80.72 398.21 80.72 397.7 79.83 396.94 79.83 396.18 78.05 394.65 77.03 392.36 76.78 388.28 74.23 386.75 71.3 385.86 70.66 383.57 65.57 382.55 64.3 381.28 63.53 379.24 63.79 377.97 62.39 324.37 62.39 324.37 79.07 306.41 79.19 232.95 79.32 113.78 35.78 113.9 35.78 114.28 33.74 114.67 33.49 114.03 31.19 114.92 30.94 116.96 27.37 40.31 34.38 40.31 36.16 42.98 43.67 43.62 44.31 46.3 45.2 46.8 46.22 47.95 49.78 48.08 53.6 49.61 55.13 51.13 55.13 51.77 55.64 52.28 58.06 53.81 58.31 54.44 59.2 56.1 59.59 56.61 60.35 56.35 63.66 55.08 64.81 53.04 63.79 52.41 63.91 53.55 65.19 53.93 64.93 55.46 66.97 54.83 68.63 55.34 69.77 54.06 70.41 54.19 71.17 54.7 71.05 55.08 71.94 56.74 73.08 56.99 74.36 57.75 74.23 59.41 75.5 61.83 79.45 64.5 82.25 66.28 85.81 65.27 92.44 65.65 93.07 67.56 92.82 70.49 96.64 71.12 96.64 73.03 98.29 73.8 98.29 74.43 99.69 75.2 104.15 74.56 111.02 75.83 113.57 76.22 113.44 75.58 111.79 76.22 111.79 76.85 112.68 77.49 112.17 76.85 111.02 77.11 110.52 78.13 111.53 77.87 113.32 80.55 114.84 82.33 118.03 82.33 123.38 83.09 124.9 82.2 129.49 84.24 130.25 85.64 132.29 86.15 134.2 85.77 137.38 88.18 139.42 89.33 139.54 91.88 142.35 93.4 141.96 95.95 144.38 96.84 144.51 100.03 145.91 101.94 149.09 105.88 149.6 109.57 151.51 113.9 156.99 114.54 156.86 114.67 157.37 116.07 158.01 116.45 159.79 117.47 161.06 118.23 160.55 119.63 161.19 120.4 162.59 121.16 166.03 121.42 165.65 122.31 166.16 122.94 167.56 123.2 167.17 124.34 167.17 125.62 168.19 125.87 168.96 126.51 168.96 127.14 171.38 128.29 172.01 128.93 173.54 128.8 174.18 130.71 175.32 131.35 175.96 131.22 176.98 134.02 177.1 134.66 177.74 134.78 180.29 136.69 181.05 138.35 183.85 137.46 187.93 135.93 191.62 136.57 192.26 137.59 191.49 138.22 192.76 136.18 196.59 136.69 198.75 138.73 199.26 137.71 201.04 136.69 199.51 136.69 201.17 137.2 201.81 136.82 202.44"/><path class="cls-3" d="M78.51,54.11a2.47,2.47,0,0,0,1.53.51,2.23,2.23,0,0,0,1.52-.51c.89-.63,20.37-14.64,20.25-32.21A21.9,21.9,0,0,0,58,21.77C58.14,39.47,77.62,53.6,78.51,54.11Z"/><path class="cls-4" d="M80,16.42a5.48,5.48,0,1,1-5.48,5.48A5.44,5.44,0,0,1,80,16.42Zm0,16.43a11,11,0,1,0-11-11A11,11,0,0,0,80,32.85Z"/><path class="cls-5" d="M371.22,200.66a2.47,2.47,0,0,0,1.53.51,2.25,2.25,0,0,0,1.53-.51c.89-.64,20.37-14.64,20.24-32.21a21.9,21.9,0,0,0-43.8-.13C351,186,370.46,200.15,371.22,200.66Z"/><path class="cls-4" d="M372.88,163a5.48,5.48,0,1,1-5.48,5.48A5.44,5.44,0,0,1,372.88,163Zm0,16.43a11,11,0,1,0-10.95-11A10.94,10.94,0,0,0,372.88,179.4Z"/><path class="cls-6" d="M544.5,278.71a2.47,2.47,0,0,0,1.53.51,2.23,2.23,0,0,0,1.53-.51c.89-.64,20.37-14.64,20.24-32.22a21.9,21.9,0,0,0-43.79-.12C524.13,264.07,543.61,278.07,544.5,278.71Z"/><path class="cls-4" d="M546,241a5.48,5.48,0,1,1-5.47,5.47A5.44,5.44,0,0,1,546,241Zm0,16.3a10.95,10.95,0,1,0-10.95-10.95A10.95,10.95,0,0,0,546,257.32Z"/><path class="cls-6" d="M934.49,465.11a2.47,2.47,0,0,0,1.53.51,2.25,2.25,0,0,0,1.53-.51c.89-.64,20.37-14.65,20.24-32.22a21.9,21.9,0,0,0-43.8-.12C914.12,450.46,933.73,464.6,934.49,465.11Z"/><path class="cls-4" d="M936.15,427.42a5.48,5.48,0,1,1-5.48,5.47A5.43,5.43,0,0,1,936.15,427.42Zm0,16.42a10.95,10.95,0,1,0-10.95-10.95A11,11,0,0,0,936.15,443.84Z"/><path class="cls-7" d="M469.26,375.47a2.47,2.47,0,0,0,1.53.51,2.23,2.23,0,0,0,1.52-.51c.89-.64,20.37-14.64,20.25-32.21a21.9,21.9,0,0,0-43.8-.13C449,360.83,468.49,374.83,469.26,375.47Z"/><path class="cls-4" d="M470.91,337.78a5.48,5.48,0,1,1-5.47,5.48A5.44,5.44,0,0,1,470.91,337.78Zm0,16.3a10.95,10.95,0,1,0-11-10.95A10.95,10.95,0,0,0,470.91,354.08Z"/><path class="cls-3" d="M589.58,506.1a2.4,2.4,0,0,0,1.52.51,2.19,2.19,0,0,0,1.53-.51c.89-.63,20.37-14.64,20.25-32.21a21.9,21.9,0,0,0-43.8-.13C569.21,491.46,588.81,505.59,589.58,506.1Z"/><path class="cls-4" d="M591.23,468.42a5.48,5.48,0,1,1-5.47,5.47A5.44,5.44,0,0,1,591.23,468.42Zm0,16.42a10.95,10.95,0,1,0-11-10.95A10.95,10.95,0,0,0,591.23,484.84Z"/></g></g></svg>