<svg xmlns="http://www.w3.org/2000/svg" viewBox="0 0 112.11 104.64"><g id="Layer_2" data-name="Layer 2"><g id="iconos"><path d="M104.08,89.66c1.64,1.64,3.25,3.19,4.77,4.82a23.74,23.74,0,0,1,2.72,3.37c1.15,1.83.42,3.14-1.76,3.22-1.19.05-2.4-.23-3.61-.29-3.55-.18-7.1-.42-10.65-.43-2.89,0-5.79.29-8.69.46a9.87,9.87,0,0,1-1.21.1,1.91,1.91,0,0,1-1.88-1.59,2.47,2.47,0,0,1,.72-1.87,24.12,24.12,0,0,1,3-2.08l8.08-5.44A44.4,44.4,0,0,0,89,80.11a17.21,17.21,0,0,1-3.56-6.26,24.25,24.25,0,0,0-3.88-8,12.86,12.86,0,0,1-1-2.06l.32-.46a5.16,5.16,0,0,1,1.61.42,12,12,0,0,1,4.22,4.89,10.08,10.08,0,0,1,1.06,2.94c.43,3.66,2.4,6.35,5,8.75a2.92,2.92,0,0,0,2.31,1c3.54-.18,7.09-.31,10.83-.47-1.72-7.48-5.67-14-7.94-21.49l-5.5.58c2.31,3.57,3.08,7.35,4.1,11A5.39,5.39,0,0,1,97,72.83a2.07,2.07,0,0,1-.86,1.52,23,23,0,0,1-4.43,1.13,1.81,1.81,0,0,1-1.52-.77c-.36-.78.22-1.37,1-1.61,1-.31,2-.56,3.26-.9-.7-2.09-1.32-4.14-2.07-6.14s-1.66-4-2.63-6.33c-23,1.64-46,.11-69.08.18L14.58,74.74a6.54,6.54,0,0,1,1.81.44c.41.26.91.83.88,1.22a1.52,1.52,0,0,1-1.09,1,7.51,7.51,0,0,1-2.63-.14c-1.17-.27-1.58-1-1.21-2.18.62-2,1.35-4,2.14-5.9,1.21-3,2.51-5.91,3.88-9.11H12.85c-3,7.35-6,14.71-9.12,22.41l14.65-1c.83-2.23,1.58-4.27,2.34-6.3a21.37,21.37,0,0,1,4.69-7.57c.79-.8,1.51-2.28,3.19-1.34.21.11.79-.36,1.16-.61A6.75,6.75,0,0,1,34.66,64c-.7.71-1.19,1.16-1.62,1.66a27,27,0,0,0-3,3.71c-1.57,2.72-2.89,5.58-4.34,8.37a3.61,3.61,0,0,1-1.23,1.37c-.88-3,.59-5.53,1.35-8.22-3.23,5.92-5.11,12.39-8,18.31.16.3.2.49.32.58q5.45,4,10.91,8c.39.29.87.46,1.24.76.87.71,1,1.55.17,2.25-2.92,2.44-5.8,4.56-10.16,3.53-5.24-1.23-10.64-1.83-16-2.69-.9-.14-1.88-.23-2.09-1.29s-.94-2.32.31-3.56c2.16-2.14,4.11-4.51,6.53-7.22-1.2,0-1.95,0-2.7,0-1.29,0-2.59.08-3.88.08A1.9,1.9,0,0,1,.42,88.14a7.59,7.59,0,0,1,.25-5.62c3.28-7.46,6.45-15,9.71-22.44a12.71,12.71,0,0,0,.95-5.63c-.17-4.44-.54-8.87-.59-13.31-.13-11.87-.14-23.75-.2-35.62,0-.49,0-1,0-1.46.08-2.2.69-3,2.83-3.1C18,.66,22.57.28,27.17.25,36.05.18,44.94.34,53.82.36Q69.93.41,86,.34c2.34,0,4.68-.27,7-.33a20.06,20.06,0,0,1,3.38.21A5.14,5.14,0,0,1,101,5.74c-.12,4.52-.16,9-.22,13.55,0,1.7,0,3.4,0,5.09q-.18,13.69-.4,27.37c0,2,.07,4-.76,6a2.82,2.82,0,0,0,.25,2c1.59,3.62,3.36,7.16,4.86,10.82s2.94,7.69,4.27,11.58c1.4,4.14.13,6.19-4.18,7.14A3.47,3.47,0,0,0,104.08,89.66ZM14,56.85c.74,0,1.29.11,1.84.1,3.31-.06,6.62-.23,9.93-.18,12.11.19,24.21.5,36.32.66,4.44.06,8.88-.18,13.32-.29q9.93-.26,19.85-.54l.73,0a1.39,1.39,0,0,0,1.56-1.46c.08-1.29.12-2.58.15-3.87.3-14.61-.08-29.22.61-43.82.23-5-1.24-5.07-5-5-8,.23-16,.7-24,.79-10.33.1-20.67-.12-31-.13-8.07,0-16.14.09-24.21.15a11.62,11.62,0,0,0-1.32.21C13.31,21.24,12.6,38.92,14,56.85ZM2.45,84.2c.27,1.16.46,2,.66,2.87H5c3.28,0,6.56-.12,9.85-.1,1,0,1.74-.12,2-1.22.19-.75.44-1.48.68-2.31Zm93.47,2c2.53.11,5,.26,7.5.3a6,6,0,0,0,2.36-.44c1.36-.58,1.5-1.15,1-2.83H94.83Z"/><path d="M40.26,74c1,2.83.13,5.5-.18,8.45l27.8-.93c-1.14-3.5-4.23-6-3.47-9.68l.55-.31a11.37,11.37,0,0,1,1,1.34,70.8,70.8,0,0,0,8,12.65c2.14,2.52,4.4,4.94,6.66,7.35.82.87,1.8,1.59,2.9,2.55A2.65,2.65,0,0,1,80.31,95a34.5,34.5,0,0,1-4.47-3.69,4.75,4.75,0,0,0-4.08-1.49c-6.7.27-13.39.54-20.09.61-5,.06-10-.15-15-.34A3.14,3.14,0,0,0,34,91.28a42,42,0,0,1-3.7,3.48c-.58.51-1.23,1.13-2.34.37a5.94,5.94,0,0,1,.84-1.25,44.86,44.86,0,0,0,7.15-8.81,17.9,17.9,0,0,0,2.89-7.62C39,76.33,38.9,75,40.26,74ZM71.82,86.79c-.78-1.1-1.24-1.65-1.61-2.27a2.53,2.53,0,0,0-2.63-1.19c-9.41.36-18.83.65-28.47,1q-.59,1-1.68,2.82C49,87.46,60.19,87.28,71.82,86.79Z"/><path d="M62.9,75.41a26.47,26.47,0,0,1-3.23.49c-4.93.09-9.86.11-14.78.16l-.73,0c-.87,0-1.64-.17-1.76-1.22a1.91,1.91,0,0,1,1.5-2.16,48.54,48.54,0,0,1,6-.6c3.47,0,6.94.08,10.42.15C62.59,72.25,63,72.69,62.9,75.41Z"/><path d="M63.64,66.39a1.84,1.84,0,0,1,2.47-.29,23.31,23.31,0,0,1,10.4,10.4,10.68,10.68,0,0,1,.66,2.63l-.48.27c-.72-.7-1.51-1.35-2.16-2.12a48.89,48.89,0,0,0-9.37-9A8.18,8.18,0,0,1,63.64,66.39Z"/><path d="M80.11,78.44c-3.61-5.29-6.34-11.1-12.06-14.33.54-1.14,1.2-1.27,1.91-.89a24.66,24.66,0,0,1,4.11,2.48c3.36,2.85,5.19,6.71,6.57,10.81a3.85,3.85,0,0,1,.11,1.18C80.75,77.81,80.56,77.93,80.11,78.44Z"/><path d="M38.58,65.05c-3.3,3.58-5.17,7.77-7.38,11.74-.36.65-.44,1.86-1.49,1.53S29,76.84,29.26,76A28,28,0,0,1,35,66.12,3,3,0,0,1,38.58,65.05Z"/><path d="M83.79,77.88,75.76,64c.64.08,1.27,0,1.56.22a19,19,0,0,1,3.85,3.92,57.17,57.17,0,0,1,3.32,7.49,6.68,6.68,0,0,1,.16,2Z"/><path d="M41.31,67.17l-1.15,2.32-4.51,9.09a10,10,0,0,1-.78,1.49.93.93,0,0,1-.85.21,1.06,1.06,0,0,1-.52-.7,2.59,2.59,0,0,1,.12-.94A23,23,0,0,1,38.78,68.1a10.61,10.61,0,0,1,2-1.47Z"/><path d="M55.16,8.59c6.61-.14,13.23-.33,19.84-.41,4.92-.06,9.85,0,14.77.06a8.21,8.21,0,0,1,1.91.26c2,.47,2.34,1.06,2.14,3-.06.63,0,1.28,0,1.92-.06,3.87-.19,7.73-.17,11.6,0,2.82.24,5.63.4,8.45q.38,6.77.77,13.52a7.85,7.85,0,0,1,0,1c-.14,2.3-.65,2.89-2.91,3-6.45.21-12.9.41-19.35.51-10.25.18-20.5.24-30.75.41-5.72.1-11.45.34-17.17.45A18.44,18.44,0,0,1,20.78,52c-1.91-.35-2.61-1.11-2.88-3-.22-1.52-.34-3-.44-4.58a310.39,310.39,0,0,1-.41-31.7,8.53,8.53,0,0,1,.33-2.14,2.59,2.59,0,0,1,2.67-2c5.57-.09,11.14-.32,16.71-.35,6.13,0,12.26.11,18.4.17Zm36.49,2.84a12.61,12.61,0,0,0-1.8-.31C87,11.06,84.19,11,81.37,11c-8.48.11-17,.34-25.44.37-6.29,0-12.59-.24-18.89-.34-5.8-.08-11.61-.11-17.64-.17-.15,12.87.8,25.78,1,39l22.25-.64c7.35-.21,14.69-.51,22-.62s14.61,0,22,0a157.1,157.1,0,0,0-1-19l-16.6.69c.15,2.83.32,5.56.43,8.29.09,2.34.15,4.68.15,7,0,.93,0,2.27-1.26,2.19s-.75-1.35-.77-2.18c0-2.26-.06-4.52-.06-6.78,0-2.58,0-5.17.13-7.75.1-1.87.74-2.45,2.53-2.56,4.67-.31,9.34-.62,14-.82,3.25-.13,3.42-.06,3.66,3.25.36,5.07.47,10.16.69,15.24,0,.7.1,1.39.16,2.13h3.36c0-2.82.15-5.55,0-8.26-.5-7.25-1.06-14.49-.35-21.77A60.36,60.36,0,0,0,91.65,11.43Z"/><path d="M56,6.9C54.73,6.8,54.1,6,54.22,5.15a1.29,1.29,0,0,1,1.51-1.21c.76.08,1.52.53,1.3,1.39A5,5,0,0,1,56,6.9Z"/><path d="M41.25,26.7c0,3.31,0,6.62,0,9.92,0,2.57-.13,2.44-2.61,3.14-4,1.15-8.16.84-12.25,1.13-2.44.17-2.66-.19-2.76-2.53Q23.17,28.7,22.76,19a21.44,21.44,0,0,1,.13-2.66c.18-2,.6-2.41,2.51-2.42,2.34,0,4.69,0,7,.12,2,.07,4,.23,6,.33,1.81.08,2,.25,2.14,2.15.14,2.74.2,5.48.31,8.23,0,.64.08,1.29.12,1.93ZM39.62,37.75c.4-7.21-.72-14.18-1.07-21.44H25.46a7.72,7.72,0,0,0-1.14.21c.35,7.4.7,14.74,1.06,22.22C30.33,38.75,35,38.9,39.62,37.75Z"/><path d="M62.94,20.94c-1.54,1.32-3.31.83-4.88.8-4.83-.08-9.71.25-14.46-1,.16-1.48,1-1.44,1.83-1.44q3.15,0,6.28.12c2.74.09,5.47.22,8.2.35C60.93,19.83,62,19.63,62.94,20.94Z"/><path d="M61.89,24.08c-.65.39-1,.76-1.29.74-5-.27-10-.57-15-.94a2.37,2.37,0,0,1-1.57-1.21,4.65,4.65,0,0,1,1.41-.39c4.44.12,8.87.28,13.3.44A4.14,4.14,0,0,1,61.89,24.08Z"/><path d="M44.22,30c1.81-.05,3.62-.14,5.43-.14,2.81,0,5.63,0,8.44.13a11.36,11.36,0,0,1,3,.67c.24.07.42.66.41,1s-.4.48-.68.58a2.3,2.3,0,0,1-1,.08c-4.57-.29-9.14-.57-13.71-.91a11.47,11.47,0,0,1-2.11-.6Z"/><path d="M61.42,27.83a12.09,12.09,0,0,1-2.11.63c-4.4.35-13-.6-14.66-1.57,1.3-1,4.05-1.34,10-.62C56.72,26.52,59.13,25.79,61.42,27.83Z"/><path d="M70,14.7c7.12-1.11,13.89-.47,15.69,1.38-.42,1-1.32.72-2.06.69-3.29-.12-6.58-.26-9.86-.46a13.69,13.69,0,0,1-2.81-.55C70.63,15.67,70.44,15.25,70,14.7Z"/><path d="M70.08,19.5c1.42-.9,6.48-1.27,10.14-.95s3.6.31,5.12,1.7a7.63,7.63,0,0,1-1.8.47C79.14,20.61,74.68,21,70.08,19.5Z"/><path d="M69.82,23.49c3.59-1.49,13-1,14.91.58a1.9,1.9,0,0,1-2,.84c-3.52-.26-7.05-.5-10.57-.8A16.37,16.37,0,0,1,69.82,23.49Z"/></g></g></svg>